<svg viewBox="0 0 512.001 512.001" xmlns="http://www.w3.org/2000/svg" xmlns:xlink="http://www.w3.org/1999/xlink" id="Capa_1" xml:space="preserve" overflow="hidden"><style>
.MsftOfcThm_Background1_Fill_v2 {
 fill:#FFFFFF; 
}
</style>
<g><g><path d="M485.561 170.656C469.744 156.177 453.388 141.207 461.875 76.629 462.231 73.914 461.099 71.219 458.913 69.572 456.725 67.925 453.821 67.581 451.313 68.676 449.413 69.502 404.808 89.738 404.808 160.202 404.808 193.16 423.05 210.355 439.144 225.529 452.3 237.931 463.663 248.642 463.663 266.411 463.663 293.656 456.913 303.573 456.148 304.609 453.281 307.409 453.247 311.808 455.884 314.849 457.342 316.532 459.435 317.371 461.553 317.371 463.302 317.371 465.068 316.799 466.508 315.656 468.366 314.182 512.001 278.963 512.001 227.851 512.001 194.858 498.56 182.554 485.561 170.656ZM449.562 214.477C434.357 200.144 419.996 186.606 419.996 160.202 419.996 122.504 434.141 101.821 445.05 91.475 440.605 150.102 458.956 166.895 475.304 181.859 487.32 192.859 496.811 201.546 496.811 227.851 496.811 248.835 487.725 267.107 478.242 280.462 478.628 276.252 478.852 271.581 478.852 266.412 478.852 242.087 463.962 228.05 449.562 214.477Z" class="MsftOfcThm_Background1_Fill_v2" stroke="none" stroke-width="1" stroke-linecap="butt" stroke-linejoin="miter" stroke-miterlimit="4" fill="#FFFFFF" fill-opacity="1"/></g></g><g><g><path d="M503.751 336.124 189.927 336.124 156.513 336.124 99.234 336.124C95.04 336.124 91.64 339.524 91.64 343.718 91.64 347.912 95.04 351.312 99.234 351.312L148.919 351.312 148.919 428.768 15.188 428.768 15.188 351.312 63.793 351.312C67.987 351.312 71.387 347.912 71.387 343.718 71.387 339.524 67.987 336.124 63.793 336.124L7.594 336.124C3.4 336.124 0 339.524 0 343.718L0 436.363C0 440.557 3.4 443.957 7.594 443.957L156.513 443.957 189.927 443.957 355.413 443.957C359.607 443.957 363.007 440.557 363.007 436.363 363.007 432.169 359.607 428.769 355.413 428.769L197.521 428.769 197.521 351.313 451.154 351.313 451.154 428.769 390.853 428.769C386.659 428.769 383.259 432.169 383.259 436.363 383.259 440.557 386.659 443.957 390.853 443.957L503.751 443.957C507.945 443.957 511.345 440.557 511.345 436.363L511.345 343.718C511.345 339.524 507.945 336.124 503.751 336.124ZM182.332 428.77 164.107 428.77 164.107 351.314 182.332 351.314 182.332 428.77ZM496.156 428.77 466.343 428.77 466.343 351.314 496.156 351.314 496.156 428.77Z" class="MsftOfcThm_Background1_Fill_v2" stroke="none" stroke-width="1" stroke-linecap="butt" stroke-linejoin="miter" stroke-miterlimit="4" fill="#FFFFFF" fill-opacity="1"/></g></g><g></g><g></g><g></g><g></g><g></g><g></g><g></g><g></g><g></g><g></g><g></g><g></g><g></g><g></g><g></g></svg>