<svg viewBox="0 0 64 64" xmlns="http://www.w3.org/2000/svg" xmlns:xlink="http://www.w3.org/1999/xlink" xml:space="preserve" overflow="hidden"><g id="BG_Colour" display="none" opacity="0.5"><g display="inline"><rect x="0" y="0" width="64" height="64"/></g></g><g id="AW"><g><line x1="2.72" y1="44.2" x2="19.8" y2="61.28" stroke="#40B4E5" stroke-width="2" stroke-miterlimit="10" fill="none"/><g><line x1="44.2" y1="2.72" x2="61.28" y2="19.8" stroke="#40B4E5" stroke-width="2" stroke-miterlimit="10" fill="none"/><line x1="42.03" y1="9.77" x2="54.23" y2="21.97" stroke="#40B4E5" stroke-width="2" stroke-linecap="square" stroke-miterlimit="10" fill="none"/><g><line x1="23.46" y1="23.46" x2="40.54" y2="40.54" stroke="#40B4E5" stroke-width="2" stroke-miterlimit="10" fill="none"/><line x1="20.22" y1="32.04" x2="32.42" y2="44.24" stroke="#40B4E5" stroke-width="2" stroke-linecap="round" stroke-miterlimit="10" fill="none"/><line x1="31.81" y1="19.99" x2="44.01" y2="32.19" stroke="#40B4E5" stroke-width="2" stroke-linecap="square" stroke-miterlimit="10" fill="none"/></g><line x1="9.77" y1="42.03" x2="21.97" y2="54.23" stroke="#40B4E5" stroke-width="2" stroke-miterlimit="10" fill="none"/><path d="M36.52 43.31C37.93 42.7 39.28 41.81 40.54 40.54 51.52 29.56 34.44 12.48 45.42 1.5" stroke="#FFFFFF" stroke-width="2" stroke-linecap="round" stroke-miterlimit="10" fill="none"/><path d="M1.5 45.42C9.95 36.97 22.31 45.05 32.42 44.24" stroke="#FFFFFF" stroke-width="2" stroke-linecap="round" stroke-miterlimit="10" fill="none"/><path d="M18.58 62.5C29.56 51.52 12.48 34.44 23.46 23.46 34.44 12.48 51.52 29.56 62.5 18.58" stroke="#FFFFFF" stroke-width="2" stroke-linecap="round" stroke-miterlimit="10" fill="none"/></g></g></g></svg>