<svg viewBox="0 0 64 64" xmlns="http://www.w3.org/2000/svg" xmlns:xlink="http://www.w3.org/1999/xlink" xml:space="preserve" overflow="hidden"><g id="BG_Colour" display="none" opacity="0.5"><g display="inline"><rect x="0" y="0" width="64" height="64"/></g></g><g id="AW"><g><line x1="57" y1="43" x2="57" y2="51" stroke="#40B4E5" stroke-width="2" stroke-miterlimit="10" fill="none"/><line x1="15" y1="43" x2="15" y2="51" stroke="#40B4E5" stroke-width="2" stroke-miterlimit="10" fill="none"/><line x1="19" y1="43" x2="19" y2="51" stroke="#40B4E5" stroke-width="2" stroke-miterlimit="10" fill="none"/><path d="M9 43 3 43C2.45 43 2 43.45 2 44L2 50C2 50.55 2.45 51 3 51L61 51C61.55 51 62 50.55 62 50L62 44C62 43.45 61.55 43 61 43L13 43" stroke="#FFFFFF" stroke-width="2" stroke-linecap="round" fill="none"/><path d="M55.85 28.27C53.87 26.37 52 24.58 52 21.09 52 16.1 53.84 13.37 55.26 12 54.68 19.76 57.07 21.98 59.2 23.96 60.76 25.42 62 26.56 62 30.04 62 32.82 60.82 35.23 59.58 37 59.63 36.44 59.66 35.83 59.66 35.14 59.66 31.92 57.72 30.07 55.85 28.27Z" stroke="#FFFFFF" stroke-width="2" stroke-linejoin="round" fill="none"/></g></g></svg>