<svg width="64" height="64" viewBox="0 0 64 64" xmlns="http://www.w3.org/2000/svg" xmlns:xlink="http://www.w3.org/1999/xlink" fill="none" overflow="hidden"><path d="M13.5 49C13.5 48.4477 13.9477 48 14.5 48L28.5 48C29.0523 48 29.5 48.4477 29.5 49 29.5 49.5523 29.0523 50 28.5 50L14.5 50C13.9477 50 13.5 49.5523 13.5 49Z" fill="#FFFFFF" fill-rule="evenodd" clip-rule="evenodd"/><path d="M17.5 48.5C18.0523 48.5 18.5 48.9477 18.5 49.5L18.5 56.5C18.5 57.0523 18.0523 57.5 17.5 57.5 16.9477 57.5 16.5 57.0523 16.5 56.5L16.5 49.5C16.5 48.9477 16.9477 48.5 17.5 48.5Z" fill="#FFFFFF" fill-rule="evenodd" clip-rule="evenodd"/><path d="M25 48.5C25.5523 48.5 26 48.9477 26 49.5L26 56.5C26 57.0523 25.5523 57.5 25 57.5 24.4477 57.5 24 57.0523 24 56.5L24 49.5C24 48.9477 24.4477 48.5 25 48.5Z" fill="#FFFFFF" fill-rule="evenodd" clip-rule="evenodd"/><path d="M26.2758 29.7508C26.5519 29.2725 27.1635 29.1086 27.6418 29.3848L34.57 33.3848C35.0483 33.6609 35.2122 34.2725 34.936 34.7508 34.6599 35.2291 34.0483 35.393 33.57 35.1168L26.6418 31.1168C26.1635 30.8407 25.9996 30.2291 26.2758 29.7508Z" fill="#FFFFFF" fill-rule="evenodd" clip-rule="evenodd"/><path d="M38.198 7.10092 40.7961 8.60092 43.7961 3.40477 48.9922 6.40477 45.9922 11.6009 48.5903 13.1009 46.8468 16.1207C47.5308 16.2447 48.1826 16.4615 48.7885 16.7576L50.8223 13.2349C51.0985 12.7566 50.9346 12.145 50.4563 11.8689L48.7243 10.8689 51.2243 6.53874C51.5004 6.06045 51.3365 5.44886 50.8582 5.17272L43.93 1.17272C43.4517 0.896573 42.8401 1.06045 42.564 1.53874L40.064 5.86887 38.332 4.86887C37.8537 4.59273 37.2421 4.7566 36.9659 5.23489L25.4659 25.1535C25.1898 25.6318 25.3537 26.2434 25.832 26.5195L37.9563 33.5195C38.4346 33.7956 39.0462 33.6318 39.3223 33.1535L41.3055 29.7185C40.738 29.3349 40.2257 28.8756 39.7833 28.3551L38.0903 31.2875 27.698 25.2875 38.198 7.10092Z" fill="#FFFFFF" fill-rule="evenodd" clip-rule="evenodd"/><path d="M53 38.0001C53 34.2091 52.1217 30.626 50.5585 27.4407L52.3539 26.5596C54.0488 30.0131 55 33.8969 55 38.0001 55 45.9084 51.4681 52.9927 45.8991 57.7598L44.5985 56.2405C49.7426 51.8371 53 45.2996 53 38.0001Z" fill="#FFFFFF" fill-rule="evenodd" clip-rule="evenodd"/><path d="M43.299 40.2239C45.1945 36.9407 46.2254 33.3985 46.4643 29.8584L48.4597 29.993C48.2008 33.8312 47.0826 37.6704 45.031 41.2239 41.0446 48.1285 32.8167 52.6529 25.6833 53.9832L25.3167 52.0171C32.0463 50.7621 39.6816 46.4894 43.299 40.2239Z" fill="#FFFFFF" fill-rule="evenodd" clip-rule="evenodd"/><path d="M45.5 29C48.5376 29 51 26.5376 51 23.5 51 20.4624 48.5376 18 45.5 18 42.4624 18 40 20.4624 40 23.5 40 26.5376 42.4624 29 45.5 29ZM45.5 31C49.6421 31 53 27.6421 53 23.5 53 19.3579 49.6421 16 45.5 16 41.3579 16 38 19.3579 38 23.5 38 27.6421 41.3579 31 45.5 31Z" fill="#40B4E5" fill-rule="evenodd" clip-rule="evenodd"/><path d="M13 58 50 58C51.1046 58 52 58.8954 52 60 52 61.1046 51.1046 62 50 62L26 62C25.4477 62 25 62.4477 25 63 25 63.5523 25.4477 64 26 64L50 64C52.2091 64 54 62.2091 54 60 54 57.7909 52.2091 56 50 56L13 56C10.7909 56 9 57.7909 9 60 9 62.2091 10.7909 64 13 64L20 64C20.5523 64 21 63.5523 21 63 21 62.4477 20.5523 62 20 62L13 62C11.8954 62 11 61.1046 11 60 11 58.8954 11.8954 58 13 58Z" fill="#FFFFFF"/></svg>