<svg width="64" height="64" viewBox="0 0 64 64" xmlns="http://www.w3.org/2000/svg" xmlns:xlink="http://www.w3.org/1999/xlink" fill="none" overflow="hidden"><path d="M36.6328 47.3571 36.5464 47.7928C36.2185 49.4455 36.9614 51.1264 38.4042 51.9965L51.0185 59.6039C52.4171 60.4474 54.1879 60.3558 55.4921 59.3727L59.9679 55.9986C61.2079 55.0639 61.7948 53.496 61.4735 51.9768L59.5717 42.9853C57.8753 34.9647 54.5532 27.3768 49.8105 20.6898L47.6802 17.6863C46.7594 16.3881 45.1699 16.1364 43.9433 16.7108 44.9759 16.5721 46.083 16.9648 46.7685 17.9906L48.722 20.9135C52.571 26.6725 55.0071 33.2584 55.8324 40.1359L56.0301 41.7835C56.6332 46.8095 54.5957 51.7902 50.6429 54.9524 49.8542 55.5834 48.7581 55.6628 47.8866 55.1521L38.4264 49.6085C37.55 49.0949 36.9243 48.2835 36.6328 47.3571Z" fill="#B4D6F1" fill-rule="evenodd" fill-opacity="0.5" clip-rule="evenodd"/><path d="M15.5041 17.1078C17.5354 14.2439 22.0071 15.1996 22.6904 18.6435L28.4345 47.5983C28.8444 49.6641 27.9158 51.7652 26.1123 52.8529L13.498 60.4603C11.7498 61.5146 9.5362 61.4002 7.90601 60.1712L3.43019 56.7972C1.88025 55.6287 1.14658 53.6689 1.54822 51.7699L3.44998 42.7784C5.17467 34.6241 8.55211 26.9097 13.3739 20.1113L15.5041 17.1078ZM20.7286 19.0327C20.387 17.3107 18.1511 16.8329 17.1355 18.2649L15.0052 21.2684C10.3415 27.8438 7.07483 35.3053 5.4067 43.1922L3.50494 52.1838C3.26395 53.3232 3.70415 54.4991 4.63411 55.2001L9.10993 58.5742C10.088 59.3115 11.4162 59.3802 12.4651 58.7476L25.0794 51.1402C26.1615 50.4876 26.7187 49.2269 26.4728 47.9875L20.7286 19.0327Z" fill="#065BAA" fill-rule="evenodd" clip-rule="evenodd"/><path d="M18.4864 35.7263C15.6198 39.5351 14.0451 44.1318 13.4834 47.1812 13.3833 47.7243 12.8619 48.0835 12.3188 47.9835 11.7756 47.8834 11.4164 47.362 11.5165 46.8188 12.1214 43.5348 13.7967 38.6315 16.8884 34.5237 19.9943 30.3969 24.595 27 30.9999 27 31.5522 27 31.9999 27.4477 31.9999 28 31.9999 28.5523 31.5522 29 30.9999 29 25.4048 29 21.3389 31.9364 18.4864 35.7263Z" fill="#40B4E5" fill-rule="evenodd" clip-rule="evenodd"/><path d="M14.5939 39.0862C15.0986 38.8619 15.6895 39.0892 15.9138 39.5939L17.9138 44.0939C18.1381 44.5986 17.9108 45.1895 17.4061 45.4138 16.9015 45.6381 16.3105 45.4108 16.0862 44.9061L14.0862 40.4061C13.8619 39.9015 14.0892 39.3105 14.5939 39.0862Z" fill="#40B4E5" fill-rule="evenodd" clip-rule="evenodd"/><path d="M14.1242 42.3712C14.4715 42.8006 14.4049 43.4303 13.9755 43.7776L10.1465 46.8741C9.71702 47.2214 9.08737 47.1548 8.74009 46.7253 8.3928 46.2959 8.4594 45.6663 8.88883 45.319L12.7179 42.2224C13.1473 41.8752 13.7769 41.9418 14.1242 42.3712Z" fill="#40B4E5" fill-rule="evenodd" clip-rule="evenodd"/><path d="M18.6097 34.1737C18.8289 34.6806 18.5958 35.2692 18.0889 35.4885L13.5692 37.4436C13.0623 37.6629 12.4736 37.4297 12.2544 36.9228 12.0351 36.4159 12.2683 35.8273 12.7752 35.608L17.2948 33.6529C17.8017 33.4336 18.3904 33.6668 18.6097 34.1737Z" fill="#40B4E5" fill-rule="evenodd" clip-rule="evenodd"/><path d="M28.9999 0C29.5522 0 29.9999 0.447715 29.9999 1L29.9999 5.375C29.9999 5.92728 29.5522 6.375 28.9999 6.375 28.4476 6.375 27.9999 5.92728 27.9999 5.375L27.9999 1C27.9999 0.447715 28.4476 0 28.9999 0ZM28.9999 9.125C29.5522 9.125 29.9999 9.57271 29.9999 10.125L29.9999 15.454C29.9999 17.7101 28.4931 19.6534 26.3773 20.3157 25.7584 20.5094 25.1371 20.7132 24.6096 20.9039 24.0615 21.1021 23.6789 21.2637 23.4961 21.3682 23.0165 21.6423 22.4057 21.4757 22.1317 20.9961 21.8577 20.5166 22.0243 19.9058 22.5038 19.6318 22.8531 19.4322 23.3842 19.2203 23.9296 19.0231 24.4955 18.8185 25.1475 18.605 25.7799 18.407 27.0987 17.9942 27.9999 16.7969 27.9999 15.454L27.9999 10.125C27.9999 9.57271 28.4476 9.125 28.9999 9.125Z" fill="#065BAA" fill-rule="evenodd" clip-rule="evenodd"/><path d="M48.4957 17.1078C46.4645 14.2439 41.9927 15.1996 41.3095 18.6435L35.5653 47.5983C35.1555 49.6641 36.0841 51.7652 37.8876 52.8529L50.5019 60.4603C52.2501 61.5146 54.4637 61.4002 56.0939 60.1712L60.5697 56.7972C62.1196 55.6287 62.8533 53.6689 62.4517 51.7699L60.5499 42.7784C58.8252 34.6241 55.4478 26.9097 50.626 20.1113L48.4957 17.1078ZM43.2713 19.0327C43.6129 17.3107 45.8488 16.8329 46.8644 18.2649L48.9946 21.2684C53.6583 27.8438 56.925 35.3053 58.5932 43.1922L60.4949 52.1838C60.7359 53.3232 60.2957 54.4991 59.3658 55.2001L54.8899 58.5742C53.9118 59.3115 52.5837 59.3802 51.5348 58.7476L38.9205 51.1402C37.8384 50.4876 37.2812 49.2269 37.5271 47.9875L43.2713 19.0327Z" fill="#065BAA" fill-rule="evenodd" clip-rule="evenodd"/><path d="M45.5135 35.7263C48.3801 39.5351 49.9548 44.1318 50.5165 47.1812 50.6165 47.7243 51.138 48.0835 51.6811 47.9835 52.2243 47.8834 52.5835 47.362 52.4834 46.8188 51.8784 43.5348 50.2032 38.6315 47.1114 34.5237 44.0055 30.3969 39.4048 27 32.9999 27 32.4477 27 31.9999 27.4477 31.9999 28 31.9999 28.5523 32.4477 29 32.9999 29 38.595 29 42.661 31.9364 45.5135 35.7263Z" fill="#40B4E5" fill-rule="evenodd" clip-rule="evenodd"/><path d="M49.4061 39.0862C48.9014 38.8619 48.3105 39.0892 48.0862 39.5939L46.0862 44.0939C45.8619 44.5986 46.0892 45.1895 46.5939 45.4138 47.0985 45.6381 47.6895 45.4108 47.9138 44.9061L49.9138 40.4061C50.1381 39.9015 49.9108 39.3105 49.4061 39.0862Z" fill="#40B4E5" fill-rule="evenodd" clip-rule="evenodd"/><path d="M49.8758 42.3712C49.5285 42.8006 49.5951 43.4303 50.0245 43.7776L53.8535 46.8741C54.283 47.2214 54.9126 47.1548 55.2599 46.7253 55.6072 46.2959 55.5406 45.6663 55.1112 45.319L51.2821 42.2224C50.8527 41.8752 50.2231 41.9418 49.8758 42.3712Z" fill="#40B4E5" fill-rule="evenodd" clip-rule="evenodd"/><path d="M45.3902 34.1737C45.1709 34.6806 45.4041 35.2692 45.911 35.4885L50.4307 37.4436C50.9376 37.6629 51.5262 37.4297 51.7455 36.9228 51.9648 36.4159 51.7316 35.8273 51.2247 35.608L46.705 33.6529C46.1981 33.4336 45.6095 33.6668 45.3902 34.1737Z" fill="#40B4E5" fill-rule="evenodd" clip-rule="evenodd"/><path d="M35 0C34.4477 0 34 0.447715 34 1L34 15.454C34 17.7101 35.5068 19.6534 37.6225 20.3157 38.2415 20.5094 38.8628 20.7132 39.3903 20.9039 39.9384 21.1021 40.3209 21.2637 40.5038 21.3682 40.9833 21.6423 41.5942 21.4757 41.8682 20.9961 42.1422 20.5166 41.9756 19.9058 41.4961 19.6318 41.1468 19.4322 40.6157 19.2203 40.0703 19.0231 39.5043 18.8185 38.8524 18.605 38.22 18.407 36.9012 17.9942 36 16.7969 36 15.454L36 1C36 0.447715 35.5522 0 35 0Z" fill="#065BAA" fill-rule="evenodd" clip-rule="evenodd"/><path d="M29 11C29 10.4477 29.4477 10 30 10L35 10C35.5523 10 36 10.4477 36 11 36 11.5523 35.5523 12 35 12L30 12C29.4477 12 29 11.5523 29 11Z" fill="#065BAA" fill-rule="evenodd" clip-rule="evenodd"/><path d="M33.5 29 30.5 29 30.5 27 33.5 27 33.5 29Z" fill="#40B4E5" fill-rule="evenodd" clip-rule="evenodd"/></svg>