<svg width="88" height="60" viewBox="0 0 88 60" fill="none" xmlns="http://www.w3.org/2000/svg">
<path d="M10.6165 15.7248C11.0289 15.2471 11.0101 14.5242 10.5603 14.0654L5.98055 9.4579C5.50571 8.98018 4.73722 8.98018 4.26238 9.4579C3.78754 9.93562 3.78754 10.7088 4.26238 11.1865L8.84209 15.794C9.07951 16.0328 9.39191 16.1523 9.7043 16.1523C9.97296 16.1523 10.2416 16.058 10.4665 15.8757C10.4853 15.8505 10.504 15.8254 10.5228 15.8065C10.554 15.7751 10.5853 15.7563 10.6165 15.7311" fill="#40B4E5"/>
<path d="M9.84375 22.7021L11.9868 24.8582C12.0493 24.921 12.118 24.9776 12.1867 25.0216C12.1242 24.9776 12.068 24.9336 12.018 24.8833L9.84375 22.7084V22.7021Z" fill="#40B4E5"/>
<path d="M3.04305 12.4125C2.56821 11.9348 1.79972 11.9348 1.32488 12.4125C0.85004 12.8902 0.85004 13.6634 1.32488 14.1411L6.79804 19.6537L8.47248 17.9126L3.04305 12.4125Z" fill="#40B4E5"/>
<path d="M10.6187 15.7251C10.5875 15.7502 10.55 15.7754 10.525 15.8005C10.5062 15.8257 10.4875 15.8445 10.4688 15.8697C10.5 15.8445 10.5375 15.8194 10.5625 15.7942C10.5812 15.7754 10.6 15.7502 10.6187 15.7251Z" fill="#002273"/>
<path d="M6.79688 19.6537L9.8396 22.7024L6.79688 19.6475V19.6537Z" fill="#002273"/>
<path d="M11.2109 20.6279L13.6976 23.1296C14.1724 23.6073 14.1724 24.3805 13.6976 24.8582C13.4602 25.0971 13.1478 25.2165 12.8354 25.2165C12.7229 25.2165 12.6105 25.1976 12.5043 25.1662C12.9291 25.2982 13.4102 25.2102 13.7413 24.8708C14.2162 24.3931 14.2162 23.6199 13.7413 23.1422L11.2109 20.6216V20.6279Z" fill="#002273"/>
<path d="M13.6961 24.8583C14.171 24.3806 14.171 23.6075 13.6961 23.1297L11.2095 20.628L8.47913 17.9062L6.80469 19.6474L9.84117 22.7023L12.0154 24.8772C12.0654 24.9275 12.1279 24.9778 12.1841 25.0155C12.2841 25.0846 12.3966 25.1286 12.509 25.1601C12.6152 25.1915 12.7277 25.2103 12.8402 25.2103C13.1526 25.2103 13.4587 25.0909 13.7024 24.852" fill="#002273"/>
<path d="M12.5124 25.1661C12.3999 25.1283 12.2875 25.0906 12.1875 25.0215C12.2875 25.0843 12.3999 25.1346 12.5124 25.1661Z" fill="#002273"/>
<path d="M32.3989 15.8757C32.6238 16.058 32.8925 16.1523 33.1611 16.1523C33.4735 16.1523 33.7859 16.0328 34.0234 15.794L38.6031 11.1865C39.0779 10.7088 39.0779 9.93562 38.6031 9.4579C38.1282 8.98018 37.3597 8.98018 36.8849 9.4579L32.3052 14.0654C31.8553 14.518 31.8366 15.2471 32.2489 15.7248C32.2802 15.75 32.3177 15.7751 32.3427 15.8003C32.3677 15.8191 32.3802 15.8443 32.3989 15.8694" fill="#40B4E5"/>
<path d="M30.6797 25.0216C30.7484 24.9776 30.8171 24.921 30.8796 24.8582L33.0227 22.7021L30.8484 24.877C30.7984 24.9336 30.7359 24.9776 30.6797 25.0153" fill="#40B4E5"/>
<path d="M41.5367 12.4125C41.0618 11.9348 40.2933 11.9348 39.8185 12.4125L34.3828 17.9126L36.0572 19.6537L41.5304 14.1411C42.0052 13.6634 42.0052 12.8902 41.5304 12.4125" fill="#40B4E5"/>
<path d="M32.4041 15.8759C32.3728 15.8508 32.3354 15.8256 32.3104 15.7942C32.2916 15.7754 32.2729 15.7502 32.2541 15.7251C31.7793 15.3354 31.0795 15.3542 30.6297 15.8005L23.026 23.4C22.7948 23.6263 22.6698 23.9406 22.6698 24.2675V27.7372H20.2019V24.2675C20.2019 23.9406 20.077 23.6326 19.8458 23.4L12.2421 15.8005C11.7985 15.3542 11.0987 15.3291 10.6176 15.7251C10.5989 15.7502 10.5802 15.7754 10.5614 15.7942C10.5302 15.8256 10.4989 15.8445 10.4677 15.8759C10.0553 16.3537 10.0741 17.0765 10.5239 17.5354L17.7715 24.7766V49.6809C17.7715 50.3535 18.3151 50.9004 18.9836 50.9004C19.6521 50.9004 20.1957 50.3535 20.1957 49.6809V30.1887H22.6636V49.6809C22.6636 50.3535 23.2072 50.9004 23.8757 50.9004C24.5442 50.9004 25.0878 50.3535 25.0878 49.6809V24.7766L32.3354 17.5354C32.7915 17.0765 32.8039 16.3537 32.3916 15.8759" fill="#002273"/>
<path d="M32.4 15.8755C32.4 15.8755 32.3625 15.8252 32.3437 15.8064C32.3125 15.775 32.2812 15.7561 32.25 15.731C32.2687 15.7561 32.2875 15.7812 32.3062 15.8001C32.3375 15.8315 32.3687 15.8504 32.4 15.8818" fill="#002273"/>
<path d="M36.0662 19.6537L36.0599 19.6475L33.0234 22.7024L36.0662 19.6537Z" fill="#002273"/>
<path d="M29.1577 24.8583C28.6828 24.3805 28.6828 23.6074 29.1577 23.1297L31.6443 20.6279L29.1139 23.1485C28.6391 23.6263 28.6391 24.3994 29.1139 24.8771C29.4451 25.2103 29.9262 25.3046 30.351 25.1726C30.2448 25.204 30.1324 25.2228 30.0199 25.2228C29.7075 25.2228 29.4013 25.1034 29.1577 24.8646" fill="#002273"/>
<path d="M31.6553 20.6281L29.1686 23.1298C28.6938 23.6075 28.6938 24.3807 29.1686 24.8584C29.4061 25.0973 29.7184 25.2167 30.0308 25.2167C30.1433 25.2167 30.2558 25.1978 30.362 25.1664C30.4744 25.1287 30.5869 25.091 30.6869 25.0218C30.7493 24.9778 30.8056 24.9338 30.8556 24.8835L33.0298 22.7087L36.0663 19.6538L34.3919 17.9126L31.6615 20.6281H31.6553Z" fill="#002273"/>
<path d="M30.6765 25.0215C30.5765 25.0906 30.464 25.1346 30.3516 25.1661C30.464 25.1346 30.5765 25.0843 30.6765 25.0215Z" fill="#002273"/>
<path d="M41.8906 27.886H46.932V22.8208H51.1839V27.886H56.2491V32.1379H51.1839V37.1792H46.932V32.1379H41.8906V27.886Z" fill="#6F727B"/>
<path d="M80.524 28.7388C80.4662 28.2824 80.3762 27.8324 80.254 27.4017C80.0033 26.5145 79.6112 25.6788 79.084 24.8753C78.7819 24.4188 78.4347 23.9688 78.0426 23.5381C77.9783 23.4674 77.914 23.3967 77.8497 23.326C77.0462 22.471 76.114 21.7188 75.124 21.0117C74.8862 20.8445 74.6483 20.6774 74.4104 20.5167L70.7976 18.1831C70.4312 17.9388 69.6983 17.4438 69.2933 17.1481C68.7083 16.7174 68.1554 16.2803 67.6604 15.811C66.8504 15.0524 66.1819 14.2295 65.7126 13.2845C65.5069 12.8603 65.3397 12.4167 65.2176 11.9474C65.0826 11.4138 65.0119 10.8417 65.0119 10.231C65.0119 9.58168 64.5104 9.04811 63.8804 9.02883C63.2183 9.00954 62.6719 9.54311 62.6719 10.1988C62.6719 12.2753 63.2762 14.1203 64.5169 15.7981C64.7869 16.171 65.0954 16.531 65.4297 16.8845C65.5069 16.9681 65.5904 17.0517 65.674 17.1353C66.6062 18.0738 67.6926 18.8967 68.8176 19.6617C68.8304 19.6745 68.8497 19.681 68.869 19.6938L72.2633 21.886C73.0797 22.4195 73.8704 22.9595 74.5969 23.5253C75.1369 23.9495 75.6383 24.3931 76.0883 24.8624C76.8083 25.621 77.3933 26.4438 77.7726 27.3888C77.9462 27.8131 78.0747 28.2567 78.1583 28.726C78.229 29.1245 78.2676 29.5488 78.2676 29.9924C78.2676 30.436 78.229 30.8538 78.1583 31.2588C78.0747 31.7281 77.9462 32.1781 77.7726 32.596C77.3933 33.541 76.8083 34.3703 76.0883 35.1224C75.6383 35.5917 75.1369 36.0353 74.5969 36.4595C73.8769 37.0317 73.0797 37.5653 72.2633 38.0988C72.0576 38.2338 71.8519 38.3624 71.6462 38.4974C71.4404 38.6324 71.2283 38.761 71.0162 38.896C70.9712 38.9217 70.9262 38.9538 70.8812 38.986C70.4119 39.2817 69.9426 39.5838 69.4797 39.886C69.274 40.021 69.0747 40.1495 68.8754 40.291C68.8562 40.3038 68.8433 40.3167 68.824 40.3231C67.6926 41.0945 66.6126 41.9174 65.6804 42.8495C65.5969 42.9331 65.5133 43.0167 65.4362 43.1003C65.1019 43.4538 64.7997 43.8138 64.5233 44.1867C63.2826 45.871 62.6783 47.7031 62.6719 49.7667C62.6719 50.4545 63.244 51.0202 63.9254 50.9688C64.5362 50.9238 65.0119 50.416 65.0119 49.7988C65.0119 49.1817 65.0826 48.6095 65.2176 48.0695C65.3333 47.6003 65.5004 47.1503 65.7126 46.7324C66.1754 45.7874 66.8504 44.9645 67.6604 44.206C68.1619 43.7367 68.7083 43.2931 69.2933 42.8688C69.8397 42.4638 70.4183 42.0781 71.0162 41.6924C71.2219 41.5574 71.4276 41.4288 71.6333 41.2938C71.839 41.1588 72.0512 41.0303 72.2633 40.8953C72.5526 40.7153 72.8419 40.5288 73.1247 40.3424C73.3497 40.1945 73.5747 40.0531 73.7997 39.9053C74.0054 39.7703 74.2047 39.6353 74.404 39.5003C74.6483 39.3395 74.8862 39.1724 75.1176 39.0053C76.1012 38.2981 77.0333 37.5395 77.8433 36.691C77.9076 36.6203 77.9783 36.5495 78.0362 36.4788C78.4283 36.0417 78.7754 35.5981 79.0776 35.1417C79.6047 34.3381 79.9904 33.496 80.2476 32.6153C80.3697 32.1781 80.4597 31.7345 80.5176 31.2781C80.569 30.8667 80.5947 30.4488 80.5947 30.0117C80.5947 29.5745 80.569 29.1567 80.5176 28.7453" fill="#002273"/>
<path d="M66.2735 13.2264C66.3828 13.4578 66.6142 13.6057 66.8713 13.6057H76.4049C76.6621 13.6057 76.8935 13.4578 77.0028 13.2264C77.0028 13.2264 77.0028 13.22 77.0028 13.2136C77.2085 12.7764 76.8871 12.2686 76.4049 12.2686H66.8649C66.3763 12.2686 66.0613 12.7764 66.2671 13.2136C66.2671 13.2136 66.2671 13.22 66.2735 13.2264Z" fill="#CBC545"/>
<path d="M70.6416 15.4639C69.9923 15.4639 69.7287 16.2996 70.2623 16.6724C70.2687 16.6724 70.2751 16.6789 70.2816 16.6853C70.3909 16.7624 70.5259 16.801 70.6609 16.801H72.6151C72.7501 16.801 72.8787 16.756 72.9944 16.6853C73.0009 16.6853 73.0073 16.6789 73.0137 16.6724C73.5473 16.2996 73.2837 15.4639 72.6344 15.4639H70.6416Z" fill="#CBC545"/>
<path d="M73.2881 25.5373C73.9246 25.5373 74.1946 24.7209 73.6803 24.3416C73.6739 24.3416 73.6674 24.3352 73.661 24.3288C73.5453 24.2452 73.4103 24.2002 73.2688 24.2002H70.0096C69.8681 24.2002 69.7267 24.2452 69.6174 24.3288C69.6174 24.3288 69.6046 24.3352 69.5981 24.3416C69.0838 24.7209 69.3538 25.5373 69.9903 25.5373H73.2881Z" fill="#CBC545"/>
<path d="M66.0548 28.1731C66.0548 28.1731 66.0548 28.1795 66.0548 28.1859C65.9005 28.6166 66.2219 29.0731 66.6783 29.0731H76.6105C77.0669 29.0731 77.3883 28.6166 77.234 28.1859C77.234 28.1859 77.234 28.1795 77.234 28.1731C77.1376 27.9095 76.8933 27.7295 76.6105 27.7295H66.6783C66.3955 27.7295 66.1512 27.9095 66.0548 28.1731Z" fill="#CBC545"/>
<path d="M66.0469 32.1459C66.0469 32.1459 66.0469 32.1524 66.0469 32.1588C66.1434 32.4224 66.3941 32.6024 66.6705 32.6024H76.5898C76.8727 32.6024 77.1169 32.4224 77.2134 32.1588C77.2134 32.1588 77.2134 32.1524 77.2134 32.1459C77.3677 31.7152 77.0462 31.2588 76.5898 31.2588H66.6705C66.2141 31.2588 65.8927 31.7152 66.0469 32.1459Z" fill="#CBC545"/>
<path d="M69.9903 34.7944C69.3538 34.7944 69.0838 35.6109 69.5981 35.9901C69.5981 35.9901 69.611 35.9966 69.6174 36.003C69.7331 36.0866 69.8681 36.1316 70.0096 36.1316H73.2688C73.4103 36.1316 73.5517 36.0866 73.661 36.003C73.661 36.003 73.6739 35.9966 73.6803 35.9901C74.1946 35.6109 73.9246 34.7944 73.2881 34.7944H69.9903Z" fill="#CBC545"/>
<path d="M72.6344 44.5403C73.2837 44.5403 73.5473 43.7046 73.0137 43.3317C73.0073 43.3317 73.0009 43.3253 72.9944 43.3188C72.8851 43.2417 72.7501 43.2031 72.6151 43.2031H70.6609C70.5259 43.2031 70.3909 43.2481 70.2816 43.3188C70.2816 43.3188 70.2687 43.3253 70.2623 43.3317C69.7287 43.7046 69.9923 44.5403 70.6416 44.5403H72.6344Z" fill="#CBC545"/>
<path d="M77.0042 47.1117C76.8949 46.8803 76.6634 46.7324 76.4063 46.7324H66.8727C66.6156 46.7324 66.3842 46.8803 66.2749 47.1117C66.2749 47.1117 66.2749 47.1181 66.2749 47.1246C66.0692 47.5617 66.3842 48.0696 66.8727 48.0696H76.4192C76.9077 48.0696 77.2227 47.5617 77.017 47.1246C77.017 47.1246 77.017 47.1181 77.0106 47.1117" fill="#CBC545"/>
</svg>
