<svg width="116" height="70" viewBox="0 0 116 70" fill="none" xmlns="http://www.w3.org/2000/svg">
<mask id="mask0_3941_10710" style="mask-type:luminance" maskUnits="userSpaceOnUse" x="5" y="10" width="51" height="50">
<path d="M55.6976 10H5.02539V60H55.6976V10Z" fill="white"/>
</mask>
<g mask="url(#mask0_3941_10710)">
<path d="M49.488 34.6955C49.376 34.3673 49.248 34.0552 49.0879 33.7511C48.7678 33.135 48.3597 32.5748 47.8475 32.0626C47.5594 31.7665 47.2313 31.4864 46.8792 31.2303C46.8232 31.1903 46.7592 31.1423 46.7032 31.1023C45.9829 30.5901 45.1747 30.166 44.3424 29.7899C44.1423 29.7019 43.9423 29.6138 43.7342 29.5258L40.7012 28.3254C40.3971 28.1974 39.7729 27.9413 39.4368 27.7812C38.9407 27.5492 38.4605 27.3011 38.0284 27.029C37.3162 26.5889 36.692 26.0767 36.2118 25.4525C35.9957 25.1724 35.8037 24.8683 35.6516 24.5402C35.4756 24.1641 35.3395 23.7559 35.2515 23.3078C35.1635 22.8437 34.7073 22.5236 34.2352 22.6036C33.739 22.6836 33.4109 23.1558 33.5069 23.6359C33.811 25.1564 34.5233 26.4288 35.6916 27.4851C35.9477 27.7172 36.2278 27.9413 36.5319 28.1494C36.6039 28.1974 36.6759 28.2534 36.748 28.3014C37.5802 28.8536 38.5005 29.3017 39.4608 29.7099C39.4768 29.7099 39.4848 29.7179 39.5009 29.7259L42.3498 30.8542C43.038 31.1263 43.7022 31.4064 44.3264 31.7265C44.7905 31.9586 45.2307 32.2147 45.6308 32.4947C46.279 32.9509 46.8312 33.4711 47.2553 34.1113C47.4474 34.3994 47.6074 34.7035 47.7355 35.0396C47.8475 35.3197 47.9356 35.6237 47.9996 35.9519C48.0636 36.28 48.0956 36.5921 48.1036 36.8962C48.1036 37.2563 48.0796 37.6004 48.0156 37.9365C47.8715 38.6807 47.5514 39.3769 47.1273 40.0332C46.9432 40.3132 46.7512 40.5773 46.5351 40.8494C46.5351 40.8494 48.9919 40.3773 48.9999 40.3693C49.232 40.0492 49.264 39.8571 49.368 39.601C49.6481 38.9368 49.8162 38.2646 49.8722 37.5764C49.9042 37.2403 49.9042 36.8962 49.8802 36.552C49.8562 36.2399 49.8162 35.9278 49.7521 35.6157C49.6881 35.2956 49.6081 34.9915 49.5121 34.6955" fill="#002273"/>
<path d="M36.2265 37.3125C36.2505 37.6246 36.2905 37.9367 36.3545 38.2488C36.4185 38.5609 36.4986 38.873 36.5946 39.1691C36.7066 39.4972 36.8347 39.8093 36.9947 40.1134C37.3148 40.7296 37.723 41.2898 38.2351 41.802C38.4032 41.978 38.5872 42.1381 38.7793 42.3061C38.7793 42.3061 41.2281 41.85 41.2201 41.85C40.996 41.7379 40.7079 41.5459 40.4678 41.3778C39.8196 40.9217 39.2674 40.4015 38.8433 39.7613C38.6513 39.4732 38.4912 39.1691 38.3632 38.833C38.2511 38.5449 38.1631 38.2488 38.0991 37.9207C38.0351 37.5926 38.003 37.2805 37.995 36.9764C37.995 36.6163 38.0191 36.2722 38.0831 35.9361C38.2271 35.1918 38.5472 34.4956 38.9714 33.8394C39.2354 33.4313 39.5475 33.0312 39.8836 32.639C40.3398 32.1189 40.852 31.6067 41.3881 31.1025L43.5968 29.0059C43.6048 28.9979 43.6208 28.9819 43.6288 28.9739C44.3571 28.2456 45.0453 27.4854 45.6055 26.6691C45.6535 26.5971 45.7015 26.5251 45.7495 26.445C45.9496 26.1329 46.1256 25.8288 46.2697 25.5167C46.9499 24.1083 47.134 22.6678 46.8299 21.1393C46.7338 20.6592 46.2537 20.3391 45.7575 20.4511C45.2934 20.5552 44.9973 21.0193 45.0853 21.4835C45.1733 21.9316 45.2054 22.3637 45.1813 22.7719C45.1653 23.132 45.1013 23.4841 45.0053 23.8282C44.7972 24.5885 44.4131 25.2927 43.9249 25.9649C43.6208 26.381 43.2767 26.7812 42.9006 27.1813C42.6445 27.4534 42.1644 27.9255 41.9323 28.1576L39.5796 30.3903C39.4275 30.5424 39.2674 30.7024 39.1154 30.8545C38.4832 31.5107 37.899 32.2069 37.4189 32.9431C37.3788 33.0071 37.3388 33.0632 37.3068 33.1272C37.0747 33.5033 36.8827 33.8794 36.7226 34.2635C36.4425 34.9278 36.2745 35.6 36.2185 36.2882C36.1865 36.6243 36.1865 36.9684 36.2105 37.3125" fill="#AFAFAF"/>
<path d="M43.5325 33.3354C44.0047 33.2473 44.0927 32.6071 43.6526 32.3991C43.6526 32.3991 43.6446 32.3991 43.6366 32.3991C43.5405 32.3511 43.4285 32.343 43.3245 32.3591L40.8917 32.8232C40.7877 32.8472 40.6916 32.8952 40.6196 32.9752C40.6196 32.9752 40.6196 32.9833 40.6116 32.9833C40.2835 33.3354 40.6036 33.8955 41.0758 33.8075L43.5325 33.3354Z" fill="#15274F"/>
<path d="M39.0992 39.2253C39.0992 39.2253 39.0992 39.2253 39.0992 39.2333C39.2112 39.4174 39.4193 39.5054 39.6274 39.4654L47.0217 38.049C47.2298 38.0089 47.3898 37.8409 47.4218 37.6328C47.4218 37.6328 47.4218 37.6328 47.4218 37.6248C47.4779 37.2887 47.1658 37.0006 46.8297 37.0646L39.4273 38.4811C39.0832 38.5451 38.9151 38.9292 39.0912 39.2173" fill="#15274F"/>
<path d="M42.4219 40.6015C41.9417 40.6896 41.8617 41.3298 42.3018 41.5378C42.3018 41.5378 42.3098 41.5378 42.3178 41.5378C42.4139 41.5858 42.5259 41.5938 42.63 41.5778L45.0627 41.1137C45.1668 41.0897 45.2628 41.0417 45.3348 40.9616C45.3348 40.9616 45.3348 40.9536 45.3428 40.9536C45.6709 40.6015 45.3508 40.0413 44.8787 40.1294L42.4219 40.6015Z" fill="#15274F"/>
<path d="M46.7588 34.6398C46.6388 34.4878 46.4467 34.4077 46.2546 34.4477L39.1484 35.8082C38.9563 35.8482 38.8043 35.9842 38.7562 36.1763C38.7562 36.1763 38.7562 36.1763 38.7562 36.1843C38.6682 36.5364 38.9803 36.8645 39.3404 36.7925L46.4547 35.4321C46.8148 35.36 46.9829 34.9439 46.7668 34.6478C46.7668 34.6478 46.7668 34.6478 46.7668 34.6398" fill="#002273"/>
<path d="M40.7249 19.0826C41.1971 18.9945 41.2851 18.3543 40.845 18.1463C40.845 18.1463 40.837 18.1463 40.829 18.1463C40.7329 18.0982 40.6209 18.0822 40.5169 18.1062L38.0841 18.5704C37.98 18.5944 37.884 18.6424 37.812 18.7224C37.812 18.7224 37.812 18.7304 37.804 18.7304C37.4759 19.0826 37.796 19.6427 38.2681 19.5547L40.7249 19.0826Z" fill="#15274F"/>
<path d="M36.2906 24.9724C36.2906 24.9724 36.2906 24.9724 36.2906 24.9804C36.4026 25.1645 36.6107 25.2525 36.8188 25.2125L44.2131 23.796C44.4212 23.756 44.5812 23.588 44.6133 23.3799C44.6133 23.3799 44.6133 23.3799 44.6133 23.3719C44.6693 23.0358 44.3572 22.7477 44.0211 22.8117L36.6187 24.2282C36.2746 24.2922 36.1065 24.6763 36.2826 24.9644" fill="#7F0064"/>
<path d="M39.6123 26.3569C39.1322 26.4449 39.0521 27.0851 39.4923 27.2932C39.4923 27.2932 39.5003 27.2932 39.5083 27.2932C39.6043 27.3412 39.7163 27.3492 39.8204 27.3332L42.2532 26.8691C42.3572 26.845 42.4532 26.797 42.5252 26.717C42.5252 26.717 42.5252 26.709 42.5332 26.709C42.8614 26.3569 42.5413 25.7967 42.0691 25.8847L39.6123 26.3569Z" fill="#002273"/>
<path d="M43.9414 20.3952C43.8214 20.2431 43.6293 20.1631 43.4373 20.2031L36.331 21.5635C36.1389 21.6036 35.9869 21.7396 35.9389 21.9317C35.9389 21.9317 35.9389 21.9317 35.9389 21.9397C35.8508 22.2918 36.1629 22.6199 36.523 22.5479L43.6373 21.1794C43.9974 21.1074 44.1655 20.6913 43.9494 20.4032C43.9494 20.4032 43.9494 20.4032 43.9494 20.3952" fill="#7F0064"/>
<path d="M45.1737 22.1475C45.1737 21.9794 45.1177 21.5313 45.0537 21.3312C45.0217 21.2352 44.9897 21.1472 44.9577 21.0511C44.8296 20.715 44.6696 20.4109 44.4775 20.1228C44.0614 19.4826 43.5012 18.9625 42.853 18.5063C42.5169 18.2663 42.1488 18.0502 41.7646 17.8501C41.7646 17.8501 44.2935 17.37 44.2855 17.37C43.9814 17.1619 44.8456 17.8341 45.0857 18.0742C45.5979 18.5864 45.95 19.1785 46.3261 19.7627C46.4862 20.0188 46.9023 21.0351 46.9183 21.7314" fill="#15274F"/>
<path d="M35.4349 24.0203C35.3789 23.8602 35.2508 23.4281 35.2348 23.22C35.2348 23.124 35.2268 23.02 35.2188 22.9239C35.2188 22.5638 35.2428 22.2197 35.3069 21.8836C35.4509 21.1394 35.771 20.4432 36.1952 19.7869C36.4192 19.4428 36.6673 19.1067 36.9474 18.7866C36.9474 18.7866 34.4506 19.2588 34.4346 19.2668C34.4026 19.2668 34.0905 19.899 33.9544 20.2191C33.6823 20.8833 33.5703 21.5635 33.4503 22.2437C33.3943 22.5398 33.4023 23.6362 33.6503 24.2924" fill="#15274F"/>
<path d="M40.9721 46.2036C40.7161 45.9715 40.444 45.7634 40.1639 45.5794C39.5877 45.1952 38.9475 44.9151 38.2513 44.7151C37.8512 44.603 37.435 44.523 36.9949 44.467C36.9229 44.459 36.8508 44.451 36.7788 44.443C35.8985 44.355 34.9862 44.379 34.0739 44.467C33.8579 44.491 33.6338 44.507 33.4177 44.539L30.1927 44.9872C29.8646 45.0272 29.2004 45.1072 28.8243 45.1392C28.2801 45.1872 27.7439 45.2032 27.2237 45.1792C26.3835 45.1472 25.5912 45.0032 24.863 44.6991C24.5349 44.563 24.2228 44.395 23.9267 44.1789C23.5906 43.9388 23.2705 43.6507 22.9664 43.3066C22.6543 42.9465 22.1101 42.8905 21.734 43.1946C21.3419 43.5067 21.2858 44.0829 21.606 44.451C22.6223 45.6274 23.8627 46.3796 25.3992 46.7237C25.7353 46.7957 26.0874 46.8518 26.4555 46.8918C26.5435 46.8998 26.6316 46.9078 26.7196 46.9158C27.7119 46.9878 28.7442 46.9238 29.7686 46.8037C29.7846 46.8037 29.8006 46.8037 29.8166 46.8037L32.8495 46.3796C33.5858 46.2756 34.306 46.1956 35.0022 46.1635C35.5224 46.1395 36.0266 46.1475 36.5147 46.1956C37.299 46.2676 38.0432 46.4516 38.7234 46.8037C39.0275 46.9558 39.3236 47.1479 39.5957 47.3799C39.8358 47.572 40.0599 47.7961 40.2759 48.0441C40.492 48.2922 40.6761 48.5563 40.8281 48.8124C41.0122 49.1245 41.1562 49.4366 41.2602 49.7567C41.5003 50.4769 41.5643 51.2372 41.5163 52.0214C41.4923 52.3495 41.4523 52.6856 41.3963 53.0217C41.3963 53.0217 43.3009 51.4052 43.3089 51.3892C43.3489 50.9971 43.2849 50.813 43.2529 50.5409C43.1649 49.8287 42.9808 49.1565 42.6927 48.5323C42.5487 48.2202 42.3886 47.9241 42.1965 47.636C42.0285 47.3799 41.8364 47.1239 41.6284 46.8838C41.4203 46.6357 41.1962 46.4116 40.9641 46.2036" fill="#15274F"/>
<path d="M30.7139 55.006C30.882 55.2621 31.0741 55.5182 31.2821 55.7663C31.4902 56.0144 31.7143 56.2384 31.9463 56.4465C32.2024 56.6786 32.4745 56.8866 32.7546 57.0707C33.3308 57.4468 33.971 57.7349 34.6592 57.935C34.8913 57.999 35.1314 58.055 35.3794 58.103L37.284 56.5025C37.028 56.5185 36.6839 56.4865 36.3958 56.4625C35.6115 56.3905 34.8673 56.2064 34.1871 55.8543C33.883 55.7023 33.5869 55.5102 33.3148 55.2781C33.0747 55.0861 32.8506 54.862 32.6346 54.6139C32.4185 54.3658 32.2344 54.1017 32.0824 53.8457C31.8983 53.5416 31.7543 53.2215 31.6502 52.9014C31.4102 52.1811 31.3461 51.4209 31.3942 50.6366C31.4262 50.1485 31.4982 49.6523 31.6022 49.1482C31.7463 48.4679 31.9383 47.7717 32.1544 47.0675L33.0427 44.1546C33.0427 44.1386 33.0427 44.1225 33.0507 44.1145C33.3308 43.1222 33.5549 42.1219 33.6349 41.1376C33.6349 41.0496 33.6509 40.9615 33.6509 40.8735C33.6749 40.5054 33.6669 40.1533 33.6509 39.8092C33.5468 38.2487 33.0027 36.9042 31.9863 35.7279C31.6662 35.3517 31.0901 35.3197 30.7139 35.6558C30.3618 35.9759 30.3298 36.5281 30.6339 36.8802C30.93 37.2243 31.1701 37.5845 31.3541 37.9606C31.5142 38.2887 31.6342 38.6248 31.7223 38.9609C31.9143 39.7211 31.9223 40.5294 31.8263 41.3537C31.7623 41.8658 31.6662 42.386 31.5302 42.9142C31.4422 43.2743 31.2581 43.9225 31.1701 44.2346L30.2258 47.3316C30.1698 47.5396 30.1057 47.7557 30.0577 47.9638C29.8337 48.8521 29.6656 49.7403 29.6096 50.6206C29.6096 50.6926 29.6096 50.7647 29.6016 50.8367C29.5856 51.2768 29.6016 51.701 29.6576 52.1091C29.7456 52.8213 29.9297 53.4935 30.2178 54.1177C30.3618 54.4218 30.5219 54.7259 30.7139 55.014" fill="#15274F"/>
<path d="M35.1145 47.9401C35.4826 47.628 35.2425 47.0278 34.7544 47.0678C34.7544 47.0678 34.7464 47.0678 34.7384 47.0678C34.6344 47.0758 34.5303 47.1158 34.4503 47.1879L32.5617 48.7884C32.4817 48.8604 32.4256 48.9484 32.3936 49.0525C32.3936 49.0525 32.3936 49.0605 32.3936 49.0685C32.2816 49.5406 32.8338 49.8687 33.2019 49.5566L35.1065 47.9401H35.1145Z" fill="#15274F"/>
<path d="M34.155 55.2543C34.155 55.2543 34.155 55.2543 34.163 55.2543C34.347 55.3584 34.5791 55.3343 34.7392 55.1983L40.477 50.3247C40.637 50.1887 40.7011 49.9646 40.621 49.7646C40.621 49.7646 40.621 49.7646 40.621 49.7566C40.501 49.4365 40.0929 49.3404 39.8288 49.5645L34.0909 54.4461C33.8269 54.6701 33.8589 55.0863 34.163 55.2543" fill="#15274F"/>
<path d="M37.724 54.8221C37.3558 55.1342 37.5959 55.7344 38.0761 55.6944C38.0761 55.6944 38.0841 55.6944 38.0921 55.6944C38.1961 55.6864 38.3001 55.6464 38.3802 55.5743L40.2688 53.9738C40.3488 53.9018 40.4048 53.8138 40.4368 53.7097C40.4368 53.7097 40.4368 53.7017 40.4368 53.6937C40.5489 53.2216 39.9967 52.8935 39.6286 53.2056L37.724 54.8221Z" fill="#15274F"/>
<path d="M38.5635 47.4997C38.3874 47.4197 38.1793 47.4517 38.0353 47.5797L32.5215 52.2612C32.3775 52.3892 32.3135 52.5813 32.3615 52.7734C32.3615 52.7734 32.3615 52.7734 32.3615 52.7814C32.4575 53.1335 32.8896 53.2615 33.1697 53.0214L38.6915 48.332C38.9716 48.0919 38.9076 47.6517 38.5795 47.4997C38.5795 47.4997 38.5795 47.4997 38.5715 47.4997" fill="#15274F"/>
<path d="M25.6477 36.9284C26.0158 36.6163 25.7757 36.0161 25.2876 36.0561C25.2876 36.0561 25.2796 36.0561 25.2716 36.0561C25.1676 36.0641 25.0635 36.1041 24.9835 36.1761L23.0949 37.7767C23.0149 37.8487 22.9588 37.9367 22.9268 38.0407C22.9268 38.0407 22.9268 38.0487 22.9268 38.0567C22.8148 38.5289 23.367 38.857 23.7351 38.5449L25.6397 36.9284H25.6477Z" fill="#15274F"/>
<path d="M24.6872 44.2348C24.6872 44.2348 24.6872 44.2348 24.6952 44.2348C24.8793 44.3388 25.1113 44.3148 25.2714 44.1788L31.0092 39.3052C31.1693 39.1692 31.2333 38.9451 31.1533 38.745C31.1533 38.745 31.1533 38.745 31.1533 38.737C31.0332 38.4169 30.6251 38.3209 30.361 38.545L24.6232 43.4185C24.3591 43.6426 24.3911 44.0587 24.6952 44.2268" fill="#15274F"/>
<path d="M28.2562 43.8026C27.8881 44.1147 28.1281 44.7148 28.6083 44.6748C28.6083 44.6748 28.6163 44.6748 28.6243 44.6748C28.7283 44.6668 28.8324 44.6268 28.9124 44.5548L30.801 42.9543C30.881 42.8823 30.937 42.7942 30.9691 42.6902C30.9691 42.6902 30.9691 42.6822 30.9691 42.6742C31.0811 42.202 30.5289 41.8739 30.1608 42.186L28.2562 43.8026Z" fill="#15274F"/>
<path d="M29.0957 36.4802C28.9196 36.4001 28.7116 36.4321 28.5675 36.5602L23.0537 41.2417C22.9097 41.3697 22.8457 41.5698 22.8937 41.7538C22.8937 41.7538 22.8937 41.7538 22.8937 41.7618C22.9897 42.114 23.4219 42.242 23.702 42.0019L29.2237 37.3124C29.5038 37.0723 29.4398 36.6322 29.1117 36.4802C29.1117 36.4802 29.1117 36.4802 29.1037 36.4802" fill="#15274F"/>
<path d="M31.0328 37.4005C30.9448 37.2564 30.6807 36.8883 30.5206 36.7443C30.4486 36.6803 30.3766 36.6162 30.2966 36.5522C30.0165 36.3281 29.7284 36.1361 29.4243 35.984C28.7441 35.6319 27.9998 35.4479 27.2156 35.3758C26.8074 35.3358 26.3833 35.3278 25.9512 35.3358C25.9512 35.3358 27.9118 33.6793 27.9038 33.6793C27.5357 33.6553 28.616 33.8073 28.9521 33.9034C29.6484 34.1034 30.2485 34.4395 30.8567 34.7676C31.1208 34.9117 31.9851 35.5919 32.3452 36.1921" fill="#15274F"/>
<path d="M23.4788 43.8267C23.3507 43.7147 23.0306 43.4026 22.9106 43.2265C22.8546 43.1465 22.8066 43.0584 22.7585 42.9784C22.5745 42.6663 22.4304 42.3542 22.3264 42.0261C22.0863 41.3059 22.0223 40.5456 22.0703 39.7614C22.0943 39.3533 22.1504 38.9371 22.2304 38.521C22.2304 38.521 20.2938 40.1615 20.2778 40.1695C20.2537 40.1935 20.2938 40.8898 20.3338 41.2339C20.4218 41.9461 20.6619 42.5943 20.894 43.2425C20.998 43.5306 21.5422 44.4749 22.0703 44.923" fill="#15274F"/>
<path d="M19.7895 37.6886C19.9816 37.4005 20.1496 37.1044 20.3017 36.8003C20.5978 36.1761 20.7899 35.5119 20.8939 34.7997C20.9499 34.3916 20.9739 33.9674 20.9659 33.5273C20.9659 33.4553 20.9659 33.3832 20.9659 33.3112C20.9259 32.4309 20.7738 31.5426 20.5578 30.6544C20.5098 30.4383 20.4537 30.2302 20.3977 30.0222L19.5014 26.9092C19.4134 26.5891 19.2374 25.9489 19.1573 25.5807C19.0373 25.0526 18.9413 24.5244 18.8852 24.0122C18.8052 23.188 18.8292 22.3877 19.0293 21.6275C19.1173 21.2914 19.2454 20.9553 19.4134 20.6352C19.6055 20.267 19.8456 19.9149 20.1496 19.5708C20.4617 19.2187 20.4457 18.6665 20.0936 18.3464C19.7255 18.0023 19.1493 18.0263 18.8212 18.4024C17.7889 19.5628 17.2207 20.8992 17.0927 22.4597C17.0687 22.8039 17.0607 23.156 17.0767 23.5241C17.0767 23.6121 17.0847 23.7001 17.0927 23.7882C17.1567 24.7725 17.3728 25.7808 17.6368 26.7731C17.6368 26.7891 17.6368 26.7971 17.6448 26.8131L18.4931 29.7341C18.7012 30.4383 18.8852 31.1345 19.0133 31.8147C19.1093 32.3189 19.1733 32.8231 19.1973 33.3112C19.2374 34.0955 19.1573 34.8477 18.9012 35.5679C18.7892 35.888 18.6372 36.2001 18.4531 36.5122C18.2931 36.7683 18.109 37.0244 17.8849 37.2725C17.6609 37.5206 17.4368 37.7366 17.1967 37.9287C16.9166 38.1528 16.6205 38.3368 16.3084 38.4889C15.6202 38.825 14.876 39.001 14.0837 39.0651C13.7556 39.0891 13.4115 39.0971 13.0674 39.0891C13.0674 39.0891 14.948 40.7376 14.956 40.7376C15.3481 40.7216 15.5242 40.6336 15.7963 40.5615C16.5005 40.3775 17.1327 40.0974 17.7169 39.7293C18.005 39.5452 18.277 39.3371 18.5411 39.1131C18.7732 38.905 18.9973 38.6809 19.2133 38.4409C19.4294 38.2008 19.6215 37.9527 19.7975 37.6966" fill="#15274F"/>
<path d="M9.56247 28.8617C9.3304 29.0698 9.10633 29.2939 8.89026 29.5339C8.67419 29.774 8.48213 30.0221 8.30607 30.2862C8.11401 30.5743 7.94595 30.8624 7.79391 31.1745C7.49781 31.7987 7.29775 32.4629 7.20172 33.1751C7.16971 33.4152 7.1457 33.6553 7.1377 33.9113C7.1377 33.9113 9.00229 35.5599 9.00229 35.5519C8.95428 35.3038 8.93027 34.9597 8.92227 34.6716C8.88225 33.8873 8.96228 33.1351 9.21836 32.4149C9.3304 32.0948 9.48245 31.7747 9.6665 31.4706C9.82656 31.2145 10.0106 30.9584 10.2347 30.7103C10.4588 30.4622 10.6828 30.2462 10.9229 30.0541C11.203 29.83 11.4991 29.646 11.8112 29.4939C12.4994 29.1578 13.2436 28.9818 14.0279 28.9177C14.5161 28.8777 15.0282 28.8777 15.5484 28.9177C16.2446 28.9578 16.9648 29.0538 17.6931 29.1578L20.718 29.622C20.734 29.622 20.7501 29.622 20.7661 29.622C21.7904 29.758 22.8227 29.83 23.823 29.774C23.9111 29.774 23.9991 29.766 24.0871 29.75C24.4552 29.718 24.8074 29.67 25.1515 29.598C26.696 29.2779 27.9524 28.5416 28.9847 27.3812C29.3128 27.0131 29.2648 26.4369 28.8727 26.1248C28.5045 25.8208 27.9524 25.8688 27.6403 26.2209C27.3362 26.565 27.0081 26.8451 26.6719 27.0772C26.3678 27.2852 26.0557 27.4533 25.7276 27.5813C24.9914 27.8774 24.1992 28.0055 23.3589 28.0295C22.8387 28.0455 22.3106 28.0135 21.7584 27.9654C21.3823 27.9334 20.718 27.8374 20.3899 27.7974L17.1649 27.3092C16.9488 27.2852 16.7248 27.2532 16.5087 27.2292C15.5964 27.1332 14.6841 27.0932 13.8038 27.1732C13.7318 27.1732 13.6598 27.1892 13.5878 27.1972C13.1476 27.2452 12.7315 27.3252 12.3234 27.4293C11.6271 27.6133 10.9869 27.8934 10.4027 28.2615C10.1146 28.4456 9.84256 28.6457 9.57848 28.8777" fill="#15274F"/>
<path d="M17.2205 32.175C17.5886 32.4951 18.1488 32.175 18.0368 31.7029C18.0368 31.7029 18.0368 31.6949 18.0368 31.6869C18.0128 31.5828 17.9568 31.4868 17.8767 31.4148L16.0121 29.7903C15.9321 29.7182 15.8281 29.6782 15.7241 29.6702C15.7241 29.6702 15.716 29.6702 15.708 29.6702C15.2279 29.6222 14.9718 30.2144 15.3399 30.5345L17.2205 32.175Z" fill="#15274F"/>
<path d="M9.80277 32.2711C9.80277 32.2711 9.80277 32.2711 9.80277 32.2791C9.72274 32.4792 9.77876 32.6952 9.93881 32.8393L15.6046 37.7849C15.7647 37.9289 15.9967 37.9529 16.1808 37.8489C16.1808 37.8489 16.1808 37.8489 16.1888 37.8489C16.4929 37.6808 16.5329 37.2727 16.2688 37.0406L10.595 32.087C10.3309 31.863 9.92281 31.951 9.80277 32.2711Z" fill="#15274F"/>
<path d="M10.739 35.7198C10.3709 35.3997 9.81072 35.7198 9.92275 36.192C9.92275 36.192 9.92275 36.2 9.92275 36.208C9.94676 36.312 10.0028 36.4081 10.0828 36.4801L11.9474 38.1046C12.0274 38.1766 12.1315 38.2166 12.2355 38.2246C12.2355 38.2246 12.2435 38.2246 12.2515 38.2246C12.7317 38.2647 12.9877 37.6805 12.6196 37.3604L10.739 35.7198Z" fill="#15274F"/>
<path d="M18.1567 35.5038C18.2047 35.3197 18.1487 35.1196 18.0046 34.9916L12.5629 30.2381C12.4188 30.11 12.2108 30.078 12.0347 30.15C12.0347 30.15 12.0347 30.15 12.0267 30.15C11.6906 30.2941 11.6186 30.7342 11.8987 30.9823L17.3484 35.7438C17.6285 35.9839 18.0607 35.8639 18.1647 35.5118C18.1647 35.5118 18.1647 35.5118 18.1647 35.5038" fill="#15274F"/>
<path d="M26.8719 21.3074C27.24 21.6275 27.8002 21.3074 27.6882 20.8352C27.6882 20.8352 27.6882 20.8272 27.6882 20.8192C27.6642 20.7152 27.6081 20.6191 27.5281 20.5471L25.6635 18.9226C25.5835 18.8506 25.4795 18.8106 25.3754 18.8026C25.3754 18.8026 25.3674 18.8026 25.3594 18.8026C24.8793 18.7545 24.6232 19.3467 24.9913 19.6668L26.8719 21.3074Z" fill="#15274F"/>
<path d="M19.4463 21.4034C19.4463 21.4034 19.4463 21.4034 19.4463 21.4114C19.3663 21.6115 19.4223 21.8276 19.5824 21.9716L25.2482 26.9172C25.4082 27.0612 25.6403 27.0852 25.8244 26.9812C25.8244 26.9812 25.8244 26.9812 25.8324 26.9812C26.1365 26.8132 26.1765 26.405 25.9124 26.1729L20.2386 21.2194C19.9745 20.9953 19.5664 21.0833 19.4463 21.4034Z" fill="#15274F"/>
<path d="M20.3826 24.8527C20.0145 24.5326 19.4543 24.8527 19.5663 25.3248C19.5663 25.3248 19.5663 25.3328 19.5663 25.3408C19.5903 25.4448 19.6463 25.5409 19.7264 25.6129L21.591 27.2374C21.671 27.3094 21.775 27.3495 21.879 27.3575C21.879 27.3575 21.887 27.3575 21.8951 27.3575C22.3752 27.3975 22.6313 26.8133 22.2632 26.4932L20.3826 24.8527Z" fill="#15274F"/>
<path d="M27.8002 24.6366C27.8563 24.4525 27.8002 24.2524 27.6482 24.1244L22.2064 19.3709C22.0624 19.2428 21.8543 19.2108 21.6783 19.2829C21.6783 19.2829 21.6783 19.2829 21.6703 19.2829C21.3342 19.4269 21.2621 19.867 21.5422 20.1151L26.992 24.8766C27.2721 25.1167 27.7042 24.9967 27.8002 24.6446C27.8002 24.6446 27.8002 24.6446 27.8002 24.6366Z" fill="#15274F"/>
<path d="M27.1523 26.6693C27.2884 26.5572 27.6085 26.2531 27.7285 26.0771C27.7845 25.9971 27.8406 25.909 27.8886 25.829C28.0726 25.5249 28.2247 25.2128 28.3367 24.8847C28.5928 24.1645 28.6648 23.4122 28.6328 22.628C28.6168 22.2199 28.5608 21.8037 28.4888 21.3716C28.4888 21.3716 30.4174 23.0681 30.4174 23.0601C30.3934 22.692 30.3934 23.7804 30.3454 24.1245C30.2493 24.8367 29.9933 25.4769 29.7532 26.1251C29.6491 26.4052 29.089 27.3495 28.5448 27.7896" fill="#15274F"/>
<path d="M19.6861 20.155C19.7821 20.011 20.0462 19.6509 20.2062 19.5068C20.2783 19.4428 20.3583 19.3788 20.4303 19.3148C20.7104 19.0907 21.0065 18.9066 21.3186 18.7546C22.0068 18.4185 22.751 18.2424 23.5353 18.1784C23.9434 18.1464 24.3676 18.1384 24.7997 18.1544C24.7997 18.1544 22.8951 16.4819 22.8791 16.4739C22.8551 16.4498 22.1589 16.5939 21.8227 16.6819C21.1265 16.866 20.5103 17.2021 19.9021 17.5142C19.63 17.6502 18.7658 18.3224 18.3896 18.9146" fill="#15274F"/>
</g>
<mask id="mask1_3941_10710" style="mask-type:luminance" maskUnits="userSpaceOnUse" x="5" y="10" width="51" height="50">
<path d="M55.6976 10H5.02539V60H55.6976V10Z" fill="white"/>
</mask>
<g mask="url(#mask1_3941_10710)">
<path d="M50.3119 19.7071C50.2879 19.6671 50.2559 19.6271 50.2159 19.5871C47.1669 15.7538 43.1176 12.8969 38.5081 11.3364C35.8913 10.4481 33.1544 10 30.3695 10C27.5846 10 24.7997 10.4561 22.1589 11.3604C17.5494 12.9369 13.5081 15.8019 10.4831 19.6431C6.922 24.1405 5.03339 29.5583 5.02539 35.3121V35.3521C5.02539 40.6258 6.63391 45.6914 9.68288 49.9888C12.8919 54.5262 17.5734 57.9193 22.8551 59.5599C23.1992 59.6639 23.5113 59.7519 23.8074 59.8319C25.9281 60.4081 28.1368 60.6962 30.3695 60.6962C32.6022 60.6962 34.963 60.3841 37.1637 59.7759L37.2757 59.7439C37.2757 59.7439 37.2997 59.7439 37.3157 59.7359C42.5654 58.2474 47.2709 55.0144 50.584 50.645C53.937 46.2196 55.7136 40.9299 55.7136 35.3601V35.3201C55.7056 29.5903 53.833 24.2045 50.3119 19.7151M48.2072 19.387H46.6307L38.9482 14.9776L38.9723 13.009C42.5094 14.3694 45.6704 16.5541 48.2072 19.387ZM22.8871 31.5509L30.3695 26.1092L37.8519 31.5509L35.6912 38.193L35.003 40.3057H25.728L25.1198 38.4331L22.8791 31.5429L22.8871 31.5509ZM24.4716 40.9539L24.4396 41.0019L19.9502 47.6601L13.3401 45.9875L12.9239 45.8835L12.8759 45.6834L10.5231 36.1204L13.6441 31.1348L14.5885 29.6303L21.5107 31.831L22.0868 33.6076L24.4716 40.9459V40.9539ZM38.14 16.122L41.0369 17.7865L45.7424 20.4834V24.5086L45.7584 28.2778L39.9486 30.1264L38.8042 30.4866L33.6666 26.7574L31.1057 24.8928L31.1217 17.8985L38.14 16.114V16.122ZM39.2363 31.839L46.1586 29.6383L47.711 32.1191L50.2159 36.1284L48.4473 43.8028L47.9751 45.8435L40.8368 47.444L36.2754 40.9139L39.2283 31.839H39.2363ZM23.0552 13.009L23.0712 12.5448C25.4239 11.7926 27.8807 11.4085 30.3695 11.4085C32.8583 11.4085 35.2511 11.7766 37.5718 12.5128L37.5478 14.8335L36.4675 15.1056L30.4495 16.6341L23.0151 14.2734L23.0632 13.009H23.0552ZM22.3989 15.5458L29.1131 17.6745L29.7213 17.8665V21.2916L29.7053 24.8447L26.0481 27.5016L21.9348 30.4866L14.9806 28.2778L14.9966 20.4513L18.3577 18.2186L22.3909 15.5378L22.3989 15.5458ZM21.6467 13.049L21.5987 14.3934L14.0843 19.379H12.5318C15.0366 16.5781 18.1496 14.4174 21.6387 13.049M11.3714 20.7794H13.5961L13.5801 26.8294V28.598L10.3551 33.7436L9.4268 35.2321L6.922 34.8079L6.43384 34.7279C6.56188 29.6303 8.26643 24.8287 11.3714 20.7875M6.44184 36.1444L9.20273 36.6165L11.5875 46.3236L10.2511 48.3243C7.89031 44.6751 6.58589 40.5058 6.44184 36.1444ZM23.5753 58.3035C23.4793 58.2714 23.3753 58.2474 23.2712 58.2154C18.4377 56.7189 14.1323 53.654 11.1073 49.5647L12.6518 47.2519L18.9418 48.8444L19.8461 49.0765L24.5356 55.9587L23.5753 58.3115V58.3035ZM24.9438 58.6636L25.8 56.5749H35.019L35.9873 58.6236C32.4021 59.4878 28.5449 59.5038 24.9518 58.6636M35.099 55.1745H25.712L21.7267 49.3326L21.1185 48.4443L24.1675 43.9709L25.688 41.7462H35.123L39.6205 48.3483L36.1634 53.614L35.099 55.1745ZM37.3637 58.2554L36.2754 55.9427L37.3317 54.3902L40.9649 48.8604L48.1352 47.2439L49.2395 50.0928C46.2146 53.9501 42.0292 56.831 37.3717 58.2554M50.2239 48.7484L49.3036 46.3796L51.5603 36.6165L51.8724 36.5605L54.3132 36.1444C54.1691 40.6898 52.7607 45.0032 50.2239 48.7484ZM53.833 34.8079L51.3282 35.2321L50.3999 33.7436L47.1749 28.598V26.8294L47.1589 20.7794H49.3836C52.4886 24.8207 54.1851 29.6143 54.3212 34.7199L53.833 34.7999V34.8079Z" fill="#CBC545"/>
</g>
<path d="M60.6973 32.886H65.7387V27.8208H69.9905V32.886H75.0557V37.1379H69.9905V42.1792H65.7387V37.1379H60.6973V32.886Z" fill="#6F727B"/>
<path d="M84.7024 20.7248C85.1148 20.2471 85.096 19.5242 84.6462 19.0654L80.0665 14.4579C79.5917 13.9802 78.8232 13.9802 78.3483 14.4579C77.8735 14.9356 77.8735 15.7088 78.3483 16.1865L82.928 20.794C83.1654 21.0328 83.4778 21.1523 83.7902 21.1523C84.0589 21.1523 84.3276 21.058 84.5525 20.8757C84.5712 20.8505 84.59 20.8254 84.6087 20.8065C84.64 20.7751 84.6712 20.7563 84.7024 20.7311" fill="#9F24E2"/>
<path d="M83.9277 27.7021L86.0708 29.8582C86.1332 29.921 86.202 29.9776 86.2707 30.0216C86.2082 29.9776 86.152 29.9336 86.102 29.8833L83.9277 27.7084V27.7021Z" fill="#9F24E2"/>
<path d="M77.13 17.4125C76.6551 16.9348 75.8866 16.9348 75.4118 17.4125C74.937 17.8902 74.937 18.6634 75.4118 19.1411L80.885 24.6537L82.5594 22.9126L77.13 17.4125Z" fill="#9F24E2"/>
<path d="M84.7027 20.7251C84.6714 20.7502 84.634 20.7754 84.609 20.8005C84.5902 20.8257 84.5715 20.8445 84.5527 20.8697C84.584 20.8445 84.6215 20.8194 84.6465 20.7942C84.6652 20.7754 84.6839 20.7502 84.7027 20.7251Z" fill="#002273"/>
<path d="M80.8857 24.6537L83.9285 27.7024L80.8857 24.6475V24.6537Z" fill="#002273"/>
<path d="M85.2959 25.6279L87.7826 28.1296C88.2574 28.6073 88.2574 29.3805 87.7826 29.8582C87.5451 30.0971 87.2327 30.2165 86.9204 30.2165C86.8079 30.2165 86.6954 30.1976 86.5892 30.1662C87.0141 30.2982 87.4952 30.2102 87.8263 29.8708C88.3011 29.3931 88.3011 28.6199 87.8263 28.1422L85.2959 25.6216V25.6279Z" fill="#002273"/>
<path d="M87.7821 29.8583C88.2569 29.3806 88.2569 28.6075 87.7821 28.1297L85.2954 25.628L82.5651 22.9062L80.8906 24.6474L83.9271 27.7023L86.1014 29.8772C86.1514 29.9275 86.2138 29.9778 86.2701 30.0155C86.37 30.0846 86.4825 30.1286 86.595 30.1601C86.7012 30.1915 86.8136 30.2103 86.9261 30.2103C87.2385 30.2103 87.5446 30.0909 87.7883 29.852" fill="#002273"/>
<path d="M86.5964 30.1661C86.4839 30.1283 86.3715 30.0906 86.2715 30.0215C86.3715 30.0843 86.4839 30.1346 86.5964 30.1661Z" fill="#002273"/>
<path d="M106.489 20.8757C106.714 21.058 106.982 21.1523 107.251 21.1523C107.563 21.1523 107.876 21.0328 108.113 20.794L112.693 16.1865C113.168 15.7088 113.168 14.9356 112.693 14.4579C112.218 13.9802 111.45 13.9802 110.975 14.4579L106.395 19.0654C105.945 19.518 105.926 20.2471 106.339 20.7248C106.37 20.75 106.408 20.7751 106.433 20.8003C106.458 20.8191 106.47 20.8443 106.489 20.8694" fill="#9F24E2"/>
<path d="M104.766 30.0216C104.834 29.9776 104.903 29.921 104.966 29.8582L107.109 27.7021L104.934 29.877C104.884 29.9336 104.822 29.9776 104.766 30.0153" fill="#9F24E2"/>
<path d="M115.624 17.4125C115.149 16.9348 114.38 16.9348 113.905 17.4125L108.47 22.9126L110.144 24.6537L115.617 19.1411C116.092 18.6634 116.092 17.8902 115.617 17.4125" fill="#9F24E2"/>
<path d="M106.49 20.8759C106.459 20.8508 106.421 20.8256 106.396 20.7942C106.378 20.7754 106.359 20.7502 106.34 20.7251C105.865 20.3354 105.165 20.3542 104.716 20.8005L97.1119 28.4C96.8807 28.6263 96.7558 28.9406 96.7558 29.2675V32.7372H94.2879V29.2675C94.2879 28.9406 94.1629 28.6326 93.9317 28.4L86.328 20.8005C85.8844 20.3542 85.1847 20.3291 84.7036 20.7251C84.6848 20.7502 84.6661 20.7754 84.6474 20.7942C84.6161 20.8256 84.5849 20.8445 84.5536 20.8759C84.1413 21.3537 84.16 22.0765 84.6099 22.5354L91.8574 29.7766V54.6809C91.8574 55.3535 92.401 55.9004 93.0695 55.9004C93.7381 55.9004 94.2816 55.3535 94.2816 54.6809V35.1887H96.7495V54.6809C96.7495 55.3535 97.2931 55.9004 97.9616 55.9004C98.6302 55.9004 99.1737 55.3535 99.1737 54.6809V29.7766L106.421 22.5354C106.877 22.0765 106.89 21.3537 106.478 20.8759" fill="#002273"/>
<path d="M106.49 20.8755C106.49 20.8755 106.452 20.8252 106.434 20.8064C106.402 20.775 106.371 20.7561 106.34 20.731C106.359 20.7561 106.377 20.7812 106.396 20.8001C106.427 20.8315 106.459 20.8504 106.49 20.8818" fill="#002273"/>
<path d="M110.15 24.6537L110.144 24.6475L107.107 27.7024L110.15 24.6537Z" fill="#002273"/>
<path d="M103.246 29.8583C102.771 29.3805 102.771 28.6074 103.246 28.1297L105.732 25.6279L103.202 28.1485C102.727 28.6263 102.727 29.3994 103.202 29.8771C103.533 30.2103 104.014 30.3046 104.439 30.1726C104.333 30.204 104.22 30.2228 104.108 30.2228C103.795 30.2228 103.489 30.1034 103.246 29.8646" fill="#002273"/>
<path d="M105.74 25.6281L103.254 28.1298C102.779 28.6075 102.779 29.3807 103.254 29.8584C103.491 30.0973 103.803 30.2167 104.116 30.2167C104.228 30.2167 104.341 30.1978 104.447 30.1664C104.559 30.1287 104.672 30.091 104.772 30.0218C104.834 29.9778 104.891 29.9338 104.941 29.8835L107.115 27.7087L110.151 24.6538L108.477 22.9126L105.747 25.6281H105.74Z" fill="#002273"/>
<path d="M104.764 30.0215C104.664 30.0906 104.552 30.1346 104.439 30.1661C104.552 30.1346 104.664 30.0843 104.764 30.0215Z" fill="#002273"/>
</svg>
