<svg width="116" height="70" viewBox="0 0 116 70" fill="none" xmlns="http://www.w3.org/2000/svg">
<mask id="mask0_3941_10085" style="mask-type:luminance" maskUnits="userSpaceOnUse" x="5" y="10" width="51" height="50">
<path d="M55.6976 10H5.02539V60H55.6976V10Z" fill="white"/>
</mask>
<g mask="url(#mask0_3941_10085)">
<path d="M49.488 34.6959C49.376 34.3678 49.248 34.0557 49.0879 33.7516C48.7678 33.1354 48.3597 32.5753 47.8475 32.0631C47.5594 31.767 47.2313 31.4869 46.8792 31.2308C46.8232 31.1908 46.7592 31.1428 46.7032 31.1028C45.9829 30.5906 45.1747 30.1665 44.3424 29.7904C44.1423 29.7023 43.9423 29.6143 43.7342 29.5263L40.7012 28.3259C40.3971 28.1979 39.7729 27.9418 39.4368 27.7817C38.9407 27.5497 38.4605 27.3016 38.0284 27.0295C37.3162 26.5893 36.692 26.0772 36.2118 25.453C35.9957 25.1729 35.8037 24.8688 35.6516 24.5407C35.4756 24.1646 35.3395 23.7564 35.2515 23.3083C35.1635 22.8441 34.7073 22.524 34.2352 22.6041C33.739 22.6841 33.4109 23.1562 33.5069 23.6364C33.811 25.1569 34.5233 26.4293 35.6916 27.4856C35.9477 27.7177 36.2278 27.9418 36.5319 28.1498C36.6039 28.1979 36.6759 28.2539 36.748 28.3019C37.5802 28.8541 38.5005 29.3022 39.4608 29.7103C39.4768 29.7103 39.4848 29.7183 39.5009 29.7263L42.3498 30.8547C43.038 31.1268 43.7022 31.4069 44.3264 31.727C44.7905 31.9591 45.2307 32.2151 45.6308 32.4952C46.279 32.9514 46.8312 33.4715 47.2553 34.1118C47.4474 34.3998 47.6074 34.7039 47.7355 35.04C47.8475 35.3201 47.9356 35.6242 47.9996 35.9523C48.0636 36.2804 48.0956 36.5925 48.1036 36.8966C48.1036 37.2568 48.0796 37.6009 48.0156 37.937C47.8715 38.6812 47.5514 39.3774 47.1273 40.0336C46.9432 40.3137 46.7512 40.5778 46.5351 40.8499C46.5351 40.8499 48.9919 40.3778 48.9999 40.3698C49.232 40.0497 49.264 39.8576 49.368 39.6015C49.6481 38.9373 49.8162 38.2651 49.8722 37.5769C49.9042 37.2408 49.9042 36.8966 49.8802 36.5525C49.8562 36.2404 49.8162 35.9283 49.7521 35.6162C49.6881 35.2961 49.6081 34.992 49.5121 34.6959" fill="#002273"/>
<path d="M36.2265 37.3135C36.2505 37.6256 36.2905 37.9377 36.3545 38.2498C36.4185 38.5619 36.4986 38.874 36.5946 39.1701C36.7066 39.4982 36.8347 39.8103 36.9947 40.1144C37.3148 40.7306 37.723 41.2908 38.2351 41.8029C38.4032 41.979 38.5872 42.139 38.7793 42.3071C38.7793 42.3071 41.2281 41.851 41.2201 41.851C40.996 41.7389 40.7079 41.5469 40.4678 41.3788C39.8196 40.9227 39.2674 40.4025 38.8433 39.7623C38.6513 39.4742 38.4912 39.1701 38.3632 38.834C38.2511 38.5459 38.1631 38.2498 38.0991 37.9217C38.0351 37.5936 38.003 37.2815 37.995 36.9774C37.995 36.6173 38.0191 36.2732 38.0831 35.9371C38.2271 35.1928 38.5472 34.4966 38.9714 33.8404C39.2354 33.4323 39.5475 33.0321 39.8836 32.64C40.3398 32.1198 40.852 31.6077 41.3881 31.1035L43.5968 29.0068C43.6048 28.9988 43.6208 28.9828 43.6288 28.9748C44.3571 28.2466 45.0453 27.4864 45.6055 26.6701C45.6535 26.5981 45.7015 26.526 45.7495 26.446C45.9496 26.1339 46.1256 25.8298 46.2697 25.5177C46.9499 24.1093 47.134 22.6688 46.8299 21.1403C46.7338 20.6602 46.2537 20.3401 45.7575 20.4521C45.2934 20.5561 44.9973 21.0203 45.0853 21.4844C45.1733 21.9326 45.2054 22.3647 45.1813 22.7728C45.1653 23.133 45.1013 23.4851 45.0053 23.8292C44.7972 24.5894 44.4131 25.2937 43.9249 25.9659C43.6208 26.382 43.2767 26.7821 42.9006 27.1823C42.6445 27.4543 42.1644 27.9265 41.9323 28.1586L39.5796 30.3913C39.4275 30.5433 39.2674 30.7034 39.1154 30.8554C38.4832 31.5116 37.899 32.2079 37.4189 32.9441C37.3788 33.0081 37.3388 33.0641 37.3068 33.1282C37.0747 33.5043 36.8827 33.8804 36.7226 34.2645C36.4425 34.9287 36.2745 35.601 36.2185 36.2892C36.1865 36.6253 36.1865 36.9694 36.2105 37.3135" fill="#AFAFAF"/>
<path d="M43.5325 33.3354C44.0047 33.2473 44.0927 32.6071 43.6526 32.3991C43.6526 32.3991 43.6446 32.3991 43.6366 32.3991C43.5405 32.3511 43.4285 32.343 43.3245 32.3591L40.8917 32.8232C40.7877 32.8472 40.6916 32.8952 40.6196 32.9752C40.6196 32.9752 40.6196 32.9833 40.6116 32.9833C40.2835 33.3354 40.6036 33.8955 41.0758 33.8075L43.5325 33.3354Z" fill="#15274F"/>
<path d="M39.0992 39.2253C39.0992 39.2253 39.0992 39.2253 39.0992 39.2333C39.2112 39.4174 39.4193 39.5054 39.6274 39.4654L47.0217 38.049C47.2298 38.0089 47.3898 37.8409 47.4218 37.6328C47.4218 37.6328 47.4218 37.6328 47.4218 37.6248C47.4779 37.2887 47.1658 37.0006 46.8297 37.0646L39.4273 38.4811C39.0832 38.5451 38.9151 38.9292 39.0912 39.2173" fill="#15274F"/>
<path d="M42.4219 40.6025C41.9417 40.6905 41.8617 41.3307 42.3018 41.5388C42.3018 41.5388 42.3098 41.5388 42.3178 41.5388C42.4139 41.5868 42.5259 41.5948 42.63 41.5788L45.0627 41.1147C45.1668 41.0907 45.2628 41.0426 45.3348 40.9626C45.3348 40.9626 45.3348 40.9546 45.3428 40.9546C45.6709 40.6025 45.3508 40.0423 44.8787 40.1303L42.4219 40.6025Z" fill="#15274F"/>
<path d="M46.7588 34.6398C46.6388 34.4878 46.4467 34.4077 46.2546 34.4477L39.1484 35.8082C38.9563 35.8482 38.8043 35.9842 38.7562 36.1763C38.7562 36.1763 38.7562 36.1763 38.7562 36.1843C38.6682 36.5364 38.9803 36.8645 39.3404 36.7925L46.4547 35.4321C46.8148 35.36 46.9829 34.9439 46.7668 34.6478C46.7668 34.6478 46.7668 34.6478 46.7668 34.6398" fill="#002273"/>
<path d="M40.7249 19.083C41.1971 18.995 41.2851 18.3548 40.845 18.1467C40.845 18.1467 40.837 18.1467 40.829 18.1467C40.7329 18.0987 40.6209 18.0827 40.5169 18.1067L38.0841 18.5709C37.98 18.5949 37.884 18.6429 37.812 18.7229C37.812 18.7229 37.812 18.7309 37.804 18.7309C37.4759 19.083 37.796 19.6432 38.2681 19.5552L40.7249 19.083Z" fill="#15274F"/>
<path d="M36.2906 24.9734C36.2906 24.9734 36.2906 24.9734 36.2906 24.9814C36.4026 25.1654 36.6107 25.2535 36.8188 25.2135L44.2131 23.797C44.4212 23.757 44.5812 23.5889 44.6133 23.3809C44.6133 23.3809 44.6133 23.3809 44.6133 23.3729C44.6693 23.0368 44.3572 22.7487 44.0211 22.8127L36.6187 24.2291C36.2746 24.2932 36.1065 24.6773 36.2826 24.9654" fill="#7F0064"/>
<path d="M39.6123 26.3574C39.1322 26.4454 39.0521 27.0856 39.4923 27.2937C39.4923 27.2937 39.5003 27.2937 39.5083 27.2937C39.6043 27.3417 39.7163 27.3497 39.8204 27.3337L42.2532 26.8695C42.3572 26.8455 42.4532 26.7975 42.5252 26.7175C42.5252 26.7175 42.5252 26.7095 42.5332 26.7095C42.8614 26.3574 42.5413 25.7972 42.0691 25.8852L39.6123 26.3574Z" fill="#002273"/>
<path d="M43.9414 20.3957C43.8214 20.2436 43.6293 20.1636 43.4373 20.2036L36.331 21.564C36.1389 21.604 35.9869 21.7401 35.9389 21.9321C35.9389 21.9321 35.9389 21.9322 35.9389 21.9402C35.8508 22.2923 36.1629 22.6204 36.523 22.5483L43.6373 21.1799C43.9974 21.1079 44.1655 20.6918 43.9494 20.4037C43.9494 20.4037 43.9494 20.4037 43.9494 20.3957" fill="#7F0064"/>
<path d="M45.1737 22.148C45.1737 21.9799 45.1177 21.5318 45.0537 21.3317C45.0217 21.2357 44.9897 21.1477 44.9577 21.0516C44.8296 20.7155 44.6696 20.4114 44.4775 20.1233C44.0614 19.4831 43.5012 18.963 42.853 18.5068C42.5169 18.2667 42.1488 18.0507 41.7646 17.8506C41.7646 17.8506 44.2935 17.3705 44.2855 17.3705C43.9814 17.1624 44.8456 17.8346 45.0857 18.0747C45.5979 18.5868 45.95 19.179 46.3261 19.7632C46.4862 20.0193 46.9023 21.0356 46.9183 21.7319" fill="#15274F"/>
<path d="M35.4349 24.0208C35.3789 23.8607 35.2508 23.4286 35.2348 23.2205C35.2348 23.1245 35.2268 23.0205 35.2188 22.9244C35.2188 22.5643 35.2428 22.2202 35.3069 21.8841C35.4509 21.1399 35.771 20.4436 36.1952 19.7874C36.4192 19.4433 36.6673 19.1072 36.9474 18.7871C36.9474 18.7871 34.4506 19.2593 34.4346 19.2673C34.4026 19.2673 34.0905 19.8995 33.9544 20.2196C33.6823 20.8838 33.5703 21.564 33.4503 22.2442C33.3943 22.5403 33.4023 23.6367 33.6503 24.2929" fill="#15274F"/>
<path d="M40.9721 46.204C40.7161 45.972 40.444 45.7639 40.1639 45.5798C39.5877 45.1957 38.9475 44.9156 38.2513 44.7156C37.8512 44.6035 37.435 44.5235 36.9949 44.4675C36.9229 44.4595 36.8508 44.4515 36.7788 44.4435C35.8985 44.3555 34.9862 44.3795 34.0739 44.4675C33.8579 44.4915 33.6338 44.5075 33.4177 44.5395L30.1927 44.9877C29.8646 45.0277 29.2004 45.1077 28.8243 45.1397C28.2801 45.1877 27.7439 45.2037 27.2237 45.1797C26.3835 45.1477 25.5912 45.0037 24.863 44.6996C24.5349 44.5635 24.2228 44.3955 23.9267 44.1794C23.5906 43.9393 23.2705 43.6512 22.9664 43.3071C22.6543 42.947 22.1101 42.891 21.734 43.1951C21.3419 43.5072 21.2858 44.0834 21.606 44.4515C22.6223 45.6279 23.8627 46.3801 25.3992 46.7242C25.7353 46.7962 26.0874 46.8523 26.4555 46.8923C26.5435 46.9003 26.6316 46.9083 26.7196 46.9163C27.7119 46.9883 28.7442 46.9243 29.7686 46.8042C29.7846 46.8042 29.8006 46.8042 29.8166 46.8042L32.8495 46.3801C33.5858 46.2761 34.306 46.196 35.0022 46.164C35.5224 46.14 36.0266 46.148 36.5147 46.196C37.299 46.2681 38.0432 46.4521 38.7234 46.8042C39.0275 46.9563 39.3236 47.1483 39.5957 47.3804C39.8358 47.5725 40.0599 47.7966 40.2759 48.0446C40.492 48.2927 40.6761 48.5568 40.8281 48.8129C41.0122 49.125 41.1562 49.4371 41.2602 49.7572C41.5003 50.4774 41.5643 51.2377 41.5163 52.0219C41.4923 52.35 41.4523 52.6861 41.3963 53.0222C41.3963 53.0222 43.3009 51.4057 43.3089 51.3897C43.3489 50.9976 43.2849 50.8135 43.2529 50.5414C43.1649 49.8292 42.9808 49.157 42.6927 48.5328C42.5487 48.2207 42.3886 47.9246 42.1965 47.6365C42.0285 47.3804 41.8364 47.1243 41.6284 46.8843C41.4203 46.6362 41.1962 46.4121 40.9641 46.204" fill="#15274F"/>
<path d="M30.7139 55.0065C30.882 55.2626 31.0741 55.5187 31.2821 55.7668C31.4902 56.0148 31.7143 56.2389 31.9463 56.447C32.2024 56.6791 32.4745 56.8871 32.7546 57.0712C33.3308 57.4473 33.971 57.7354 34.6592 57.9355C34.8913 57.9995 35.1314 58.0555 35.3794 58.1035L37.284 56.503C37.028 56.519 36.6839 56.487 36.3958 56.463C35.6115 56.391 34.8673 56.2069 34.1871 55.8548C33.883 55.7027 33.5869 55.5107 33.3148 55.2786C33.0747 55.0865 32.8506 54.8625 32.6346 54.6144C32.4185 54.3663 32.2344 54.1022 32.0824 53.8461C31.8983 53.542 31.7543 53.2219 31.6502 52.9018C31.4102 52.1816 31.3461 51.4214 31.3942 50.6371C31.4262 50.149 31.4982 49.6528 31.6022 49.1486C31.7463 48.4684 31.9383 47.7722 32.1544 47.068L33.0427 44.155C33.0427 44.139 33.0427 44.123 33.0507 44.115C33.3308 43.1227 33.5549 42.1224 33.6349 41.1381C33.6349 41.0501 33.6509 40.962 33.6509 40.874C33.6749 40.5059 33.6669 40.1538 33.6509 39.8097C33.5468 38.2492 33.0027 36.9047 31.9863 35.7283C31.6662 35.3522 31.0901 35.3202 30.7139 35.6563C30.3618 35.9764 30.3298 36.5286 30.6339 36.8807C30.93 37.2248 31.1701 37.5849 31.3541 37.9611C31.5142 38.2892 31.6342 38.6253 31.7223 38.9614C31.9143 39.7216 31.9223 40.5299 31.8263 41.3541C31.7623 41.8663 31.6662 42.3865 31.5302 42.9146C31.4422 43.2748 31.2581 43.923 31.1701 44.2351L30.2258 47.3321C30.1698 47.5401 30.1057 47.7562 30.0577 47.9643C29.8337 48.8525 29.6656 49.7408 29.6096 50.6211C29.6096 50.6931 29.6096 50.7652 29.6016 50.8372C29.5856 51.2773 29.6016 51.7015 29.6576 52.1096C29.7456 52.8218 29.9297 53.494 30.2178 54.1182C30.3618 54.4223 30.5219 54.7264 30.7139 55.0145" fill="#15274F"/>
<path d="M35.1145 47.9406C35.4826 47.6285 35.2425 47.0283 34.7544 47.0683C34.7544 47.0683 34.7464 47.0683 34.7384 47.0683C34.6344 47.0763 34.5303 47.1163 34.4503 47.1884L32.5617 48.7889C32.4817 48.8609 32.4256 48.9489 32.3936 49.0529C32.3936 49.0529 32.3936 49.0609 32.3936 49.069C32.2816 49.5411 32.8338 49.8692 33.2019 49.5571L35.1065 47.9406H35.1145Z" fill="#15274F"/>
<path d="M34.155 55.2543C34.155 55.2543 34.155 55.2543 34.163 55.2543C34.347 55.3584 34.5791 55.3343 34.7392 55.1983L40.477 50.3247C40.637 50.1887 40.7011 49.9646 40.621 49.7646C40.621 49.7646 40.621 49.7646 40.621 49.7566C40.501 49.4365 40.0929 49.3404 39.8288 49.5645L34.0909 54.4461C33.8269 54.6701 33.8589 55.0863 34.163 55.2543" fill="#15274F"/>
<path d="M37.724 54.8231C37.3558 55.1352 37.5959 55.7354 38.0761 55.6953C38.0761 55.6953 38.0841 55.6953 38.0921 55.6953C38.1961 55.6873 38.3001 55.6473 38.3802 55.5753L40.2688 53.9748C40.3488 53.9028 40.4048 53.8147 40.4368 53.7107C40.4368 53.7107 40.4368 53.7027 40.4368 53.6947C40.5489 53.2226 39.9967 52.8944 39.6286 53.2065L37.724 54.8231Z" fill="#15274F"/>
<path d="M38.5635 47.5007C38.3874 47.4206 38.1793 47.4526 38.0353 47.5807L32.5215 52.2622C32.3775 52.3902 32.3135 52.5823 32.3615 52.7743C32.3615 52.7743 32.3615 52.7743 32.3615 52.7823C32.4575 53.1345 32.8896 53.2625 33.1697 53.0224L38.6915 48.3329C38.9716 48.0929 38.9076 47.6527 38.5795 47.5007C38.5795 47.5007 38.5795 47.5007 38.5715 47.5007" fill="#15274F"/>
<path d="M25.6477 36.9289C26.0158 36.6168 25.7757 36.0166 25.2876 36.0566C25.2876 36.0566 25.2796 36.0566 25.2716 36.0566C25.1676 36.0646 25.0635 36.1046 24.9835 36.1766L23.0949 37.7771C23.0149 37.8492 22.9588 37.9372 22.9268 38.0412C22.9268 38.0412 22.9268 38.0492 22.9268 38.0572C22.8148 38.5294 23.367 38.8575 23.7351 38.5454L25.6397 36.9289H25.6477Z" fill="#15274F"/>
<path d="M24.6872 44.2348C24.6872 44.2348 24.6872 44.2348 24.6952 44.2348C24.8793 44.3388 25.1113 44.3148 25.2714 44.1788L31.0092 39.3052C31.1693 39.1692 31.2333 38.9451 31.1533 38.745C31.1533 38.745 31.1533 38.745 31.1533 38.737C31.0332 38.4169 30.6251 38.3209 30.361 38.545L24.6232 43.4185C24.3591 43.6426 24.3911 44.0587 24.6952 44.2268" fill="#15274F"/>
<path d="M28.2562 43.8035C27.8881 44.1156 28.1281 44.7158 28.6083 44.6758C28.6083 44.6758 28.6163 44.6758 28.6243 44.6758C28.7283 44.6678 28.8324 44.6278 28.9124 44.5558L30.801 42.9553C30.881 42.8832 30.937 42.7952 30.9691 42.6912C30.9691 42.6912 30.9691 42.6832 30.9691 42.6752C31.0811 42.203 30.5289 41.8749 30.1608 42.187L28.2562 43.8035Z" fill="#15274F"/>
<path d="M29.0957 36.4811C28.9196 36.4011 28.7116 36.4331 28.5675 36.5612L23.0537 41.2427C22.9097 41.3707 22.8457 41.5708 22.8937 41.7548C22.8937 41.7548 22.8937 41.7548 22.8937 41.7628C22.9897 42.1149 23.4219 42.243 23.702 42.0029L29.2237 37.3134C29.5038 37.0733 29.4398 36.6332 29.1117 36.4811C29.1117 36.4811 29.1117 36.4811 29.1037 36.4811" fill="#15274F"/>
<path d="M31.0328 37.4015C30.9448 37.2574 30.6807 36.8893 30.5206 36.7452C30.4486 36.6812 30.3766 36.6172 30.2966 36.5532C30.0165 36.3291 29.7284 36.1371 29.4243 35.985C28.7441 35.6329 27.9998 35.4488 27.2156 35.3768C26.8074 35.3368 26.3833 35.3288 25.9512 35.3368C25.9512 35.3368 27.9118 33.6803 27.9038 33.6803C27.5357 33.6563 28.616 33.8083 28.9521 33.9043C29.6484 34.1044 30.2485 34.4405 30.8567 34.7686C31.1208 34.9127 31.9851 35.5929 32.3452 36.1931" fill="#15274F"/>
<path d="M23.4788 43.8272C23.3507 43.7151 23.0306 43.403 22.9106 43.227C22.8546 43.147 22.8066 43.0589 22.7585 42.9789C22.5745 42.6668 22.4304 42.3547 22.3264 42.0266C22.0863 41.3064 22.0223 40.5461 22.0703 39.7619C22.0943 39.3538 22.1504 38.9376 22.2304 38.5215C22.2304 38.5215 20.2938 40.162 20.2778 40.17C20.2537 40.194 20.2938 40.8902 20.3338 41.2344C20.4218 41.9466 20.6619 42.5948 20.894 43.243C20.998 43.5311 21.5422 44.4754 22.0703 44.9235" fill="#15274F"/>
<path d="M19.7895 37.6896C19.9816 37.4015 20.1496 37.1054 20.3017 36.8013C20.5978 36.1771 20.7899 35.5129 20.8939 34.8007C20.9499 34.3925 20.9739 33.9684 20.9659 33.5283C20.9659 33.4562 20.9659 33.3842 20.9659 33.3122C20.9259 32.4319 20.7738 31.5436 20.5578 30.6553C20.5098 30.4393 20.4537 30.2312 20.3977 30.0231L19.5014 26.9101C19.4134 26.59 19.2374 25.9498 19.1573 25.5817C19.0373 25.0535 18.9413 24.5254 18.8852 24.0132C18.8052 23.189 18.8292 22.3887 19.0293 21.6285C19.1173 21.2923 19.2454 20.9562 19.4134 20.6361C19.6055 20.268 19.8456 19.9159 20.1496 19.5718C20.4617 19.2197 20.4457 18.6675 20.0936 18.3474C19.7255 18.0033 19.1493 18.0273 18.8212 18.4034C17.7889 19.5638 17.2207 20.9002 17.0927 22.4607C17.0687 22.8048 17.0607 23.1569 17.0767 23.5251C17.0767 23.6131 17.0847 23.7011 17.0927 23.7891C17.1567 24.7735 17.3728 25.7818 17.6368 26.7741C17.6368 26.7901 17.6368 26.7981 17.6448 26.8141L18.4931 29.735C18.7012 30.4393 18.8852 31.1355 19.0133 31.8157C19.1093 32.3199 19.1733 32.824 19.1973 33.3122C19.2374 34.0964 19.1573 34.8487 18.9012 35.5689C18.7892 35.889 18.6372 36.2011 18.4531 36.5132C18.2931 36.7693 18.109 37.0254 17.8849 37.2735C17.6609 37.5215 17.4368 37.7376 17.1967 37.9297C16.9166 38.1537 16.6205 38.3378 16.3084 38.4898C15.6202 38.826 14.876 39.002 14.0837 39.066C13.7556 39.09 13.4115 39.098 13.0674 39.09C13.0674 39.09 14.948 40.7386 14.956 40.7386C15.3481 40.7226 15.5242 40.6345 15.7963 40.5625C16.5005 40.3785 17.1327 40.0984 17.7169 39.7302C18.005 39.5462 18.277 39.3381 18.5411 39.114C18.7732 38.906 18.9973 38.6819 19.2133 38.4418C19.4294 38.2018 19.6215 37.9537 19.7975 37.6976" fill="#15274F"/>
<path d="M9.56247 28.8627C9.3304 29.0708 9.10633 29.2948 8.89026 29.5349C8.67419 29.775 8.48213 30.0231 8.30607 30.2872C8.11401 30.5752 7.94595 30.8633 7.79391 31.1754C7.49781 31.7996 7.29775 32.4639 7.20172 33.1761C7.16971 33.4162 7.1457 33.6562 7.1377 33.9123C7.1377 33.9123 9.00229 35.5608 9.00229 35.5528C8.95428 35.3048 8.93027 34.9607 8.92227 34.6726C8.88225 33.8883 8.96228 33.1361 9.21836 32.4158C9.3304 32.0957 9.48245 31.7756 9.6665 31.4715C9.82656 31.2155 10.0106 30.9594 10.2347 30.7113C10.4588 30.4632 10.6828 30.2471 10.9229 30.0551C11.203 29.831 11.4991 29.647 11.8112 29.4949C12.4994 29.1588 13.2436 28.9827 14.0279 28.9187C14.5161 28.8787 15.0282 28.8787 15.5484 28.9187C16.2446 28.9587 16.9648 29.0548 17.6931 29.1588L20.718 29.6229C20.734 29.6229 20.7501 29.6229 20.7661 29.6229C21.7904 29.759 22.8227 29.831 23.823 29.775C23.9111 29.775 23.9991 29.767 24.0871 29.751C24.4552 29.719 24.8074 29.671 25.1515 29.5989C26.696 29.2788 27.9524 28.5426 28.9847 27.3822C29.3128 27.0141 29.2648 26.4379 28.8727 26.1258C28.5045 25.8217 27.9524 25.8697 27.6403 26.2219C27.3362 26.566 27.0081 26.8461 26.6719 27.0781C26.3678 27.2862 26.0557 27.4542 25.7276 27.5823C24.9914 27.8784 24.1992 28.0064 23.3589 28.0304C22.8387 28.0464 22.3106 28.0144 21.7584 27.9664C21.3823 27.9344 20.718 27.8384 20.3899 27.7984L17.1649 27.3102C16.9488 27.2862 16.7248 27.2542 16.5087 27.2302C15.5964 27.1341 14.6841 27.0941 13.8038 27.1742C13.7318 27.1742 13.6598 27.1902 13.5878 27.1982C13.1476 27.2462 12.7315 27.3262 12.3234 27.4302C11.6271 27.6143 10.9869 27.8944 10.4027 28.2625C10.1146 28.4466 9.84256 28.6466 9.57848 28.8787" fill="#15274F"/>
<path d="M17.2205 32.1755C17.5886 32.4956 18.1488 32.1755 18.0368 31.7034C18.0368 31.7034 18.0368 31.6954 18.0368 31.6874C18.0128 31.5833 17.9568 31.4873 17.8767 31.4153L16.0121 29.7908C15.9321 29.7187 15.8281 29.6787 15.7241 29.6707C15.7241 29.6707 15.716 29.6707 15.708 29.6707C15.2279 29.6227 14.9718 30.2149 15.3399 30.535L17.2205 32.1755Z" fill="#15274F"/>
<path d="M9.80277 32.2716C9.80277 32.2716 9.80277 32.2716 9.80277 32.2796C9.72274 32.4797 9.77876 32.6957 9.93881 32.8398L15.6046 37.7854C15.7647 37.9294 15.9967 37.9534 16.1808 37.8494C16.1808 37.8494 16.1808 37.8494 16.1888 37.8494C16.4929 37.6813 16.5329 37.2732 16.2688 37.0411L10.595 32.0875C10.3309 31.8635 9.92281 31.9515 9.80277 32.2716Z" fill="#15274F"/>
<path d="M10.739 35.7208C10.3709 35.4007 9.81072 35.7208 9.92275 36.193C9.92275 36.193 9.92275 36.201 9.92275 36.209C9.94676 36.313 10.0028 36.409 10.0828 36.4811L11.9474 38.1056C12.0274 38.1776 12.1315 38.2176 12.2355 38.2256C12.2355 38.2256 12.2435 38.2256 12.2515 38.2256C12.7317 38.2656 12.9877 37.6814 12.6196 37.3613L10.739 35.7208Z" fill="#15274F"/>
<path d="M18.1567 35.5047C18.2047 35.3207 18.1487 35.1206 18.0046 34.9926L12.5629 30.239C12.4188 30.111 12.2108 30.079 12.0347 30.151C12.0347 30.151 12.0347 30.151 12.0267 30.151C11.6906 30.2951 11.6186 30.7352 11.8987 30.9833L17.3484 35.7448C17.6285 35.9849 18.0607 35.8648 18.1647 35.5127C18.1647 35.5127 18.1647 35.5127 18.1647 35.5047" fill="#15274F"/>
<path d="M26.8719 21.3083C27.24 21.6284 27.8002 21.3083 27.6882 20.8362C27.6882 20.8362 27.6882 20.8282 27.6882 20.8202C27.6642 20.7161 27.6081 20.6201 27.5281 20.5481L25.6635 18.9236C25.5835 18.8515 25.4795 18.8115 25.3754 18.8035C25.3754 18.8035 25.3674 18.8035 25.3594 18.8035C24.8793 18.7555 24.6232 19.3477 24.9913 19.6678L26.8719 21.3083Z" fill="#15274F"/>
<path d="M19.4463 21.4044C19.4463 21.4044 19.4463 21.4044 19.4463 21.4124C19.3663 21.6125 19.4223 21.8285 19.5824 21.9726L25.2482 26.9182C25.4082 27.0622 25.6403 27.0862 25.8244 26.9822C25.8244 26.9822 25.8244 26.9822 25.8324 26.9822C26.1365 26.8141 26.1765 26.406 25.9124 26.1739L20.2386 21.2203C19.9745 20.9963 19.5664 21.0843 19.4463 21.4044Z" fill="#15274F"/>
<path d="M20.3826 24.8527C20.0145 24.5326 19.4543 24.8527 19.5663 25.3248C19.5663 25.3248 19.5663 25.3328 19.5663 25.3408C19.5903 25.4448 19.6463 25.5409 19.7264 25.6129L21.591 27.2374C21.671 27.3094 21.775 27.3495 21.879 27.3575C21.879 27.3575 21.887 27.3575 21.8951 27.3575C22.3752 27.3975 22.6313 26.8133 22.2632 26.4932L20.3826 24.8527Z" fill="#15274F"/>
<path d="M27.8002 24.6366C27.8563 24.4525 27.8002 24.2524 27.6482 24.1244L22.2064 19.3709C22.0624 19.2428 21.8543 19.2108 21.6783 19.2829C21.6783 19.2829 21.6783 19.2829 21.6703 19.2829C21.3342 19.4269 21.2621 19.867 21.5422 20.1151L26.992 24.8766C27.2721 25.1167 27.7042 24.9967 27.8002 24.6446C27.8002 24.6446 27.8002 24.6446 27.8002 24.6366Z" fill="#15274F"/>
<path d="M27.1523 26.6698C27.2884 26.5577 27.6085 26.2536 27.7285 26.0776C27.7845 25.9976 27.8406 25.9095 27.8886 25.8295C28.0726 25.5254 28.2247 25.2133 28.3367 24.8852C28.5928 24.165 28.6648 23.4127 28.6328 22.6285C28.6168 22.2203 28.5608 21.8042 28.4888 21.3721C28.4888 21.3721 30.4174 23.0686 30.4174 23.0606C30.3934 22.6925 30.3934 23.7808 30.3454 24.125C30.2493 24.8372 29.9933 25.4774 29.7532 26.1256C29.6491 26.4057 29.089 27.35 28.5448 27.7901" fill="#15274F"/>
<path d="M19.6861 20.1555C19.7821 20.0115 20.0462 19.6514 20.2062 19.5073C20.2783 19.4433 20.3583 19.3793 20.4303 19.3152C20.7104 19.0912 21.0065 18.9071 21.3186 18.7551C22.0068 18.419 22.751 18.2429 23.5353 18.1789C23.9434 18.1469 24.3676 18.1389 24.7997 18.1549C24.7997 18.1549 22.8951 16.4823 22.8791 16.4743C22.8551 16.4503 22.1589 16.5944 21.8227 16.6824C21.1265 16.8665 20.5103 17.2026 19.9021 17.5147C19.63 17.6507 18.7658 18.3229 18.3896 18.9151" fill="#15274F"/>
</g>
<mask id="mask1_3941_10085" style="mask-type:luminance" maskUnits="userSpaceOnUse" x="5" y="10" width="51" height="50">
<path d="M55.6976 10H5.02539V60H55.6976V10Z" fill="white"/>
</mask>
<g mask="url(#mask1_3941_10085)">
<path d="M50.3119 19.7071C50.2879 19.6671 50.2559 19.6271 50.2159 19.5871C47.1669 15.7538 43.1176 12.8969 38.5081 11.3364C35.8913 10.4481 33.1544 10 30.3695 10C27.5846 10 24.7997 10.4561 22.1589 11.3604C17.5494 12.9369 13.5081 15.8019 10.4831 19.6431C6.922 24.1405 5.03339 29.5583 5.02539 35.3121V35.3521C5.02539 40.6258 6.63391 45.6914 9.68288 49.9888C12.8919 54.5262 17.5734 57.9193 22.8551 59.5599C23.1992 59.6639 23.5113 59.7519 23.8074 59.8319C25.9281 60.4081 28.1368 60.6962 30.3695 60.6962C32.6022 60.6962 34.963 60.3841 37.1637 59.7759L37.2757 59.7439C37.2757 59.7439 37.2997 59.7439 37.3157 59.7359C42.5654 58.2474 47.2709 55.0144 50.584 50.645C53.937 46.2196 55.7136 40.9299 55.7136 35.3601V35.3201C55.7056 29.5903 53.833 24.2045 50.3119 19.7151M48.2072 19.387H46.6307L38.9482 14.9776L38.9723 13.009C42.5094 14.3694 45.6704 16.5541 48.2072 19.387ZM22.8871 31.5509L30.3695 26.1092L37.8519 31.5509L35.6912 38.193L35.003 40.3057H25.728L25.1198 38.4331L22.8791 31.5429L22.8871 31.5509ZM24.4716 40.9539L24.4396 41.0019L19.9502 47.6601L13.3401 45.9875L12.9239 45.8835L12.8759 45.6834L10.5231 36.1204L13.6441 31.1348L14.5885 29.6303L21.5107 31.831L22.0868 33.6076L24.4716 40.9459V40.9539ZM38.14 16.122L41.0369 17.7865L45.7424 20.4834V24.5086L45.7584 28.2778L39.9486 30.1264L38.8042 30.4866L33.6666 26.7574L31.1057 24.8928L31.1217 17.8985L38.14 16.114V16.122ZM39.2363 31.839L46.1586 29.6383L47.711 32.1191L50.2159 36.1284L48.4473 43.8028L47.9751 45.8435L40.8368 47.444L36.2754 40.9139L39.2283 31.839H39.2363ZM23.0552 13.009L23.0712 12.5448C25.4239 11.7926 27.8807 11.4085 30.3695 11.4085C32.8583 11.4085 35.2511 11.7766 37.5718 12.5128L37.5478 14.8335L36.4675 15.1056L30.4495 16.6341L23.0151 14.2734L23.0632 13.009H23.0552ZM22.3989 15.5458L29.1131 17.6745L29.7213 17.8665V21.2916L29.7053 24.8447L26.0481 27.5016L21.9348 30.4866L14.9806 28.2778L14.9966 20.4513L18.3577 18.2186L22.3909 15.5378L22.3989 15.5458ZM21.6467 13.049L21.5987 14.3934L14.0843 19.379H12.5318C15.0366 16.5781 18.1496 14.4174 21.6387 13.049M11.3714 20.7794H13.5961L13.5801 26.8294V28.598L10.3551 33.7436L9.4268 35.2321L6.922 34.8079L6.43384 34.7279C6.56188 29.6303 8.26643 24.8287 11.3714 20.7875M6.44184 36.1444L9.20273 36.6165L11.5875 46.3236L10.2511 48.3243C7.89031 44.6751 6.58589 40.5058 6.44184 36.1444ZM23.5753 58.3035C23.4793 58.2714 23.3753 58.2474 23.2712 58.2154C18.4377 56.7189 14.1323 53.654 11.1073 49.5647L12.6518 47.2519L18.9418 48.8444L19.8461 49.0765L24.5356 55.9587L23.5753 58.3115V58.3035ZM24.9438 58.6636L25.8 56.5749H35.019L35.9873 58.6236C32.4021 59.4878 28.5449 59.5038 24.9518 58.6636M35.099 55.1745H25.712L21.7267 49.3326L21.1185 48.4443L24.1675 43.9709L25.688 41.7462H35.123L39.6205 48.3483L36.1634 53.614L35.099 55.1745ZM37.3637 58.2554L36.2754 55.9427L37.3317 54.3902L40.9649 48.8604L48.1352 47.2439L49.2395 50.0928C46.2146 53.9501 42.0292 56.831 37.3717 58.2554M50.2239 48.7484L49.3036 46.3796L51.5603 36.6165L51.8724 36.5605L54.3132 36.1444C54.1691 40.6898 52.7607 45.0032 50.2239 48.7484ZM53.833 34.8079L51.3282 35.2321L50.3999 33.7436L47.1749 28.598V26.8294L47.1589 20.7794H49.3836C52.4886 24.8207 54.1851 29.6143 54.3212 34.7199L53.833 34.7999V34.8079Z" fill="#CBC545"/>
</g>
<path d="M60.6973 32.8855H65.7387V27.8203H69.9905V32.8855H75.0557V37.1374H69.9905V42.1788H65.7387V37.1374H60.6973V32.8855Z" fill="#6F727B"/>
<path d="M84.7024 20.7248C85.1148 20.2471 85.096 19.5242 84.6462 19.0654L80.0665 14.4579C79.5917 13.9802 78.8232 13.9802 78.3483 14.4579C77.8735 14.9356 77.8735 15.7088 78.3483 16.1865L82.928 20.794C83.1654 21.0328 83.4778 21.1523 83.7902 21.1523C84.0589 21.1523 84.3276 21.058 84.5525 20.8757C84.5712 20.8505 84.59 20.8254 84.6087 20.8065C84.64 20.7751 84.6712 20.7563 84.7024 20.7311" fill="#9F24E2"/>
<path d="M83.9277 27.7021L86.0708 29.8582C86.1332 29.921 86.202 29.9776 86.2707 30.0216C86.2082 29.9776 86.152 29.9336 86.102 29.8833L83.9277 27.7084V27.7021Z" fill="#9F24E2"/>
<path d="M77.13 17.412C76.6551 16.9343 75.8866 16.9343 75.4118 17.412C74.937 17.8897 74.937 18.6629 75.4118 19.1406L80.885 24.6532L82.5594 22.9121L77.13 17.412Z" fill="#9F24E2"/>
<path d="M84.7027 20.7246C84.6714 20.7498 84.634 20.7749 84.609 20.8C84.5902 20.8252 84.5715 20.844 84.5527 20.8692C84.584 20.844 84.6215 20.8189 84.6465 20.7938C84.6652 20.7749 84.6839 20.7498 84.7027 20.7246Z" fill="#002273"/>
<path d="M80.8857 24.6537L83.9285 27.7024L80.8857 24.6475V24.6537Z" fill="#002273"/>
<path d="M85.2959 25.6274L87.7826 28.1291C88.2574 28.6068 88.2574 29.38 87.7826 29.8577C87.5451 30.0966 87.2327 30.216 86.9204 30.216C86.8079 30.216 86.6954 30.1971 86.5892 30.1657C87.0141 30.2977 87.4952 30.2097 87.8263 29.8703C88.3011 29.3926 88.3011 28.6194 87.8263 28.1417L85.2959 25.6211V25.6274Z" fill="#002273"/>
<path d="M87.7821 29.8583C88.2569 29.3806 88.2569 28.6075 87.7821 28.1297L85.2954 25.628L82.5651 22.9062L80.8906 24.6474L83.9271 27.7023L86.1014 29.8772C86.1514 29.9275 86.2138 29.9778 86.2701 30.0155C86.37 30.0846 86.4825 30.1286 86.595 30.1601C86.7012 30.1915 86.8136 30.2103 86.9261 30.2103C87.2385 30.2103 87.5446 30.0909 87.7883 29.852" fill="#002273"/>
<path d="M86.5964 30.1661C86.4839 30.1283 86.3715 30.0906 86.2715 30.0215C86.3715 30.0843 86.4839 30.1346 86.5964 30.1661Z" fill="#002273"/>
<path d="M106.489 20.8757C106.714 21.058 106.982 21.1523 107.251 21.1523C107.563 21.1523 107.876 21.0328 108.113 20.794L112.693 16.1865C113.168 15.7088 113.168 14.9356 112.693 14.4579C112.218 13.9802 111.45 13.9802 110.975 14.4579L106.395 19.0654C105.945 19.518 105.926 20.2471 106.339 20.7248C106.37 20.75 106.408 20.7751 106.433 20.8003C106.458 20.8191 106.47 20.8443 106.489 20.8694" fill="#9F24E2"/>
<path d="M104.766 30.0216C104.834 29.9776 104.903 29.921 104.966 29.8582L107.109 27.7021L104.934 29.877C104.884 29.9336 104.822 29.9776 104.766 30.0153" fill="#9F24E2"/>
<path d="M115.624 17.412C115.149 16.9343 114.38 16.9343 113.905 17.412L108.47 22.9121L110.144 24.6532L115.617 19.1406C116.092 18.6629 116.092 17.8897 115.617 17.412" fill="#9F24E2"/>
<path d="M106.49 20.8754C106.459 20.8503 106.421 20.8252 106.396 20.7937C106.378 20.7749 106.359 20.7497 106.34 20.7246C105.865 20.3349 105.165 20.3537 104.716 20.8L97.1119 28.3995C96.8807 28.6258 96.7558 28.9401 96.7558 29.267V32.7367H94.2879V29.267C94.2879 28.9401 94.1629 28.6321 93.9317 28.3995L86.328 20.8C85.8844 20.3537 85.1847 20.3286 84.7036 20.7246C84.6848 20.7497 84.6661 20.7749 84.6474 20.7937C84.6161 20.8252 84.5849 20.844 84.5536 20.8754C84.1413 21.3532 84.16 22.076 84.6099 22.5349L91.8574 29.7761V54.6804C91.8574 55.353 92.401 55.8999 93.0695 55.8999C93.7381 55.8999 94.2816 55.353 94.2816 54.6804V35.1882H96.7495V54.6804C96.7495 55.353 97.2931 55.8999 97.9616 55.8999C98.6302 55.8999 99.1737 55.353 99.1737 54.6804V29.7761L106.421 22.5349C106.877 22.076 106.89 21.3532 106.478 20.8754" fill="#002273"/>
<path d="M106.49 20.876C106.49 20.876 106.452 20.8257 106.434 20.8069C106.402 20.7754 106.371 20.7566 106.34 20.7314C106.359 20.7566 106.377 20.7817 106.396 20.8006C106.427 20.832 106.459 20.8509 106.49 20.8823" fill="#002273"/>
<path d="M110.15 24.6537L110.144 24.6475L107.107 27.7024L110.15 24.6537Z" fill="#002273"/>
<path d="M103.246 29.8583C102.771 29.3805 102.771 28.6074 103.246 28.1297L105.732 25.6279L103.202 28.1485C102.727 28.6263 102.727 29.3994 103.202 29.8771C103.533 30.2103 104.014 30.3046 104.439 30.1726C104.333 30.204 104.22 30.2228 104.108 30.2228C103.795 30.2228 103.489 30.1034 103.246 29.8646" fill="#002273"/>
<path d="M105.74 25.6276L103.254 28.1293C102.779 28.607 102.779 29.3802 103.254 29.8579C103.491 30.0968 103.803 30.2162 104.116 30.2162C104.228 30.2162 104.341 30.1973 104.447 30.1659C104.559 30.1282 104.672 30.0905 104.772 30.0213C104.834 29.9773 104.891 29.9333 104.941 29.8831L107.115 27.7082L110.151 24.6533L108.477 22.9121L105.747 25.6276H105.74Z" fill="#002273"/>
<path d="M104.764 30.0215C104.664 30.0906 104.552 30.1346 104.439 30.1661C104.552 30.1346 104.664 30.0843 104.764 30.0215Z" fill="#002273"/>
</svg>
