<svg width="98" height="50" viewBox="0 0 98 50" fill="none" xmlns="http://www.w3.org/2000/svg">
<path d="M10.5501 10.7248C10.9624 10.2471 10.9437 9.52425 10.4939 9.06538L5.91415 4.4579C5.43931 3.98018 4.67081 3.98018 4.19597 4.4579C3.72113 4.93562 3.72113 5.70877 4.19597 6.18649L8.77568 10.794C9.0131 11.0328 9.3255 11.1523 9.63789 11.1523C9.90655 11.1523 10.1752 11.058 10.4001 10.8757C10.4189 10.8505 10.4376 10.8254 10.4564 10.8065C10.4876 10.7751 10.5188 10.7563 10.5501 10.7311" fill="#35C9C9"/>
<path d="M9.77344 17.7021L11.9165 19.8582C11.9789 19.921 12.0477 19.9776 12.1164 20.0216C12.0539 19.9776 11.9977 19.9336 11.9477 19.8833L9.77344 17.7084V17.7021Z" fill="#CBC545"/>
<path d="M2.97665 7.41249C2.50181 6.93477 1.73331 6.93477 1.25847 7.41249C0.783634 7.89021 0.783634 8.66336 1.25847 9.14108L6.73163 14.6537L8.40607 12.9126L2.97665 7.41249Z" fill="#35C9C9"/>
<path d="M10.5484 10.7251C10.5171 10.7502 10.4797 10.7754 10.4547 10.8005C10.4359 10.8257 10.4172 10.8445 10.3984 10.8697C10.4297 10.8445 10.4672 10.8194 10.4922 10.7942C10.5109 10.7754 10.5296 10.7502 10.5484 10.7251Z" fill="#002273"/>
<path d="M6.73047 14.6537L9.7732 17.7024L6.73047 14.6475V14.6537Z" fill="#002273"/>
<path d="M11.1445 15.6279L13.6312 18.1296C14.106 18.6073 14.106 19.3805 13.6312 19.8582C13.3938 20.0971 13.0814 20.2165 12.769 20.2165C12.6565 20.2165 12.5441 20.1976 12.4378 20.1662C12.8627 20.2982 13.3438 20.2102 13.6749 19.8708C14.1498 19.3931 14.1498 18.6199 13.6749 18.1422L11.1445 15.6216V15.6279Z" fill="#002273"/>
<path d="M13.6297 19.8583C14.1046 19.3806 14.1046 18.6075 13.6297 18.1297L11.1431 15.628L8.41272 12.9062L6.73828 14.6474L9.77476 17.7023L11.949 19.8772C11.999 19.9275 12.0615 19.9778 12.1177 20.0155C12.2177 20.0846 12.3302 20.1286 12.4426 20.1601C12.5488 20.1915 12.6613 20.2103 12.7738 20.2103C13.0861 20.2103 13.3923 20.0909 13.636 19.852" fill="#002273"/>
<path d="M12.4421 20.1661C12.3296 20.1283 12.2172 20.0906 12.1172 20.0215C12.2172 20.0843 12.3296 20.1346 12.4421 20.1661Z" fill="#002273"/>
<path d="M32.3364 10.8757C32.5613 11.058 32.83 11.1523 33.0986 11.1523C33.411 11.1523 33.7234 11.0328 33.9609 10.794L38.5406 6.18649C39.0154 5.70877 39.0154 4.93562 38.5406 4.4579C38.0657 3.98018 37.2972 3.98018 36.8224 4.4579L32.2427 9.06538C31.7928 9.51796 31.7741 10.2471 32.1864 10.7248C32.2177 10.75 32.2552 10.7751 32.2802 10.8003C32.3052 10.8191 32.3177 10.8443 32.3364 10.8694" fill="#2069E7"/>
<path d="M30.6094 20.0216C30.6781 19.9776 30.7468 19.921 30.8093 19.8582L32.9523 17.7021L30.7781 19.877C30.7281 19.9336 30.6656 19.9776 30.6094 20.0153" fill="#CBC545"/>
<path d="M41.4703 7.41249C40.9954 6.93477 40.2269 6.93477 39.7521 7.41249L34.3164 12.9126L35.9908 14.6537L41.464 9.14108C41.9388 8.66336 41.9388 7.89021 41.464 7.41249" fill="#2069E7"/>
<path d="M32.3338 10.8759C32.3025 10.8508 32.265 10.8256 32.24 10.7942C32.2213 10.7754 32.2026 10.7502 32.1838 10.7251C31.709 10.3354 31.0092 10.3542 30.5594 10.8005L22.9557 18.4C22.7245 18.6263 22.5995 18.9406 22.5995 19.2675V22.7372H20.1316V19.2675C20.1316 18.9406 20.0067 18.6326 19.7755 18.4L12.1718 10.8005C11.7282 10.3542 11.0284 10.3291 10.5473 10.7251C10.5286 10.7502 10.5098 10.7754 10.4911 10.7942C10.4599 10.8256 10.4286 10.8445 10.3974 10.8759C9.98503 11.3537 10.0038 12.0765 10.4536 12.5354L17.7012 19.7766V44.6809C17.7012 45.3535 18.2448 45.9004 18.9133 45.9004C19.5818 45.9004 20.1254 45.3535 20.1254 44.6809V25.1887H22.5933V44.6809C22.5933 45.3535 23.1369 45.9004 23.8054 45.9004C24.4739 45.9004 25.0175 45.3535 25.0175 44.6809V19.7766L32.265 12.5354C32.7211 12.0765 32.7336 11.3537 32.3213 10.8759" fill="#002273"/>
<path d="M32.3375 10.8755C32.3375 10.8755 32.3 10.8252 32.2812 10.8064C32.25 10.775 32.2187 10.7561 32.1875 10.731C32.2062 10.7561 32.225 10.7812 32.2437 10.8001C32.275 10.8315 32.3062 10.8504 32.3375 10.8818" fill="#002273"/>
<path d="M35.9959 14.6537L35.9896 14.6475L32.9531 17.7024L35.9959 14.6537Z" fill="#002273"/>
<path d="M29.0913 19.8583C28.6164 19.3805 28.6164 18.6074 29.0913 18.1297L31.5779 15.6279L29.0475 18.1485C28.5727 18.6263 28.5727 19.3994 29.0475 19.8771C29.3787 20.2103 29.8598 20.3046 30.2846 20.1726C30.1784 20.204 30.0659 20.2228 29.9535 20.2228C29.6411 20.2228 29.3349 20.1034 29.0913 19.8646" fill="#002273"/>
<path d="M31.585 15.6281L29.0983 18.1298C28.6235 18.6075 28.6235 19.3807 29.0983 19.8584C29.3357 20.0973 29.6481 20.2167 29.9605 20.2167C30.073 20.2167 30.1855 20.1978 30.2917 20.1664C30.4041 20.1287 30.5166 20.091 30.6166 20.0218C30.679 19.9778 30.7353 19.9338 30.7853 19.8835L32.9595 17.7087L35.996 14.6538L34.3216 12.9126L31.5912 15.6281H31.585Z" fill="#002273"/>
<path d="M30.61 20.0215C30.5101 20.0906 30.3976 20.1346 30.2852 20.1661C30.3976 20.1346 30.5101 20.0843 30.61 20.0215Z" fill="#002273"/>
<path d="M41.8203 22.886H46.8617V17.8208H51.1136V22.886H56.1787V27.1379H51.1136V32.1792H46.8617V27.1379H41.8203V22.886Z" fill="#6F727B"/>
<path d="M65.8274 10.7248C66.2398 10.2471 66.221 9.52425 65.7712 9.06538L61.1915 4.4579C60.7167 3.98018 59.9482 3.98018 59.4733 4.4579C58.9985 4.93562 58.9985 5.70877 59.4733 6.18649L64.053 10.794C64.2904 11.0328 64.6028 11.1523 64.9152 11.1523C65.1839 11.1523 65.4526 11.058 65.6775 10.8757C65.6962 10.8505 65.715 10.8254 65.7337 10.8065C65.765 10.7751 65.7962 10.7563 65.8274 10.7311" fill="#9F24E2"/>
<path d="M65.0508 17.7021L67.1938 19.8582C67.2563 19.921 67.325 19.9776 67.3937 20.0216C67.3313 19.9776 67.275 19.9336 67.2251 19.8833L65.0508 17.7084V17.7021Z" fill="#9F24E2"/>
<path d="M58.254 7.41249C57.7791 6.93477 57.0107 6.93477 56.5358 7.41249C56.061 7.89021 56.061 8.66336 56.5358 9.14108L62.009 14.6537L63.6834 12.9126L58.254 7.41249Z" fill="#9F24E2"/>
<path d="M65.8257 10.7251C65.7945 10.7502 65.757 10.7754 65.732 10.8005C65.7133 10.8257 65.6945 10.8445 65.6758 10.8697C65.707 10.8445 65.7445 10.8194 65.7695 10.7942C65.7882 10.7754 65.807 10.7502 65.8257 10.7251Z" fill="#002273"/>
<path d="M62.0078 14.6537L65.0505 17.7024L62.0078 14.6475V14.6537Z" fill="#002273"/>
<path d="M66.4219 15.6279L68.9085 18.1296C69.3834 18.6073 69.3834 19.3805 68.9085 19.8582C68.6711 20.0971 68.3587 20.2165 68.0463 20.2165C67.9339 20.2165 67.8214 20.1976 67.7152 20.1662C68.14 20.2982 68.6211 20.2102 68.9523 19.8708C69.4271 19.3931 69.4271 18.6199 68.9523 18.1422L66.4219 15.6216V15.6279Z" fill="#002273"/>
<path d="M68.9071 19.8583C69.3819 19.3806 69.3819 18.6075 68.9071 18.1297L66.4204 15.628L63.6901 12.9062L62.0156 14.6474L65.0521 17.7023L67.2264 19.8772C67.2764 19.9275 67.3388 19.9778 67.3951 20.0155C67.495 20.0846 67.6075 20.1286 67.72 20.1601C67.8262 20.1915 67.9386 20.2103 68.0511 20.2103C68.3635 20.2103 68.6696 20.0909 68.9133 19.852" fill="#002273"/>
<path d="M67.7194 20.1661C67.607 20.1283 67.4945 20.0906 67.3945 20.0215C67.4945 20.0843 67.607 20.1346 67.7194 20.1661Z" fill="#002273"/>
<path d="M87.6137 10.8757C87.8387 11.058 88.1073 11.1523 88.376 11.1523C88.6884 11.1523 89.0008 11.0328 89.2382 10.794L93.8179 6.18649C94.2927 5.70877 94.2927 4.93562 93.8179 4.4579C93.3431 3.98018 92.5746 3.98018 92.0997 4.4579L87.52 9.06538C87.0702 9.51796 87.0514 10.2471 87.4638 10.7248C87.495 10.75 87.5325 10.7751 87.5575 10.8003C87.5825 10.8191 87.595 10.8443 87.6137 10.8694" fill="#9F24E2"/>
<path d="M85.8867 20.0216C85.9554 19.9776 86.0242 19.921 86.0867 19.8582L88.2297 17.7021L86.0554 19.877C86.0054 19.9336 85.9429 19.9776 85.8867 20.0153" fill="#9F24E2"/>
<path d="M96.7476 7.41249C96.2728 6.93477 95.5043 6.93477 95.0294 7.41249L89.5938 12.9126L91.2682 14.6537L96.7413 9.14108C97.2162 8.66336 97.2162 7.89021 96.7413 7.41249" fill="#9F24E2"/>
<path d="M87.6111 10.8759C87.5799 10.8508 87.5424 10.8256 87.5174 10.7942C87.4986 10.7754 87.4799 10.7502 87.4612 10.7251C86.9863 10.3354 86.2866 10.3542 85.8367 10.8005L78.233 18.4C78.0018 18.6263 77.8769 18.9406 77.8769 19.2675V22.7372H75.409V19.2675C75.409 18.9406 75.284 18.6326 75.0528 18.4L67.4491 10.8005C67.0055 10.3542 66.3058 10.3291 65.8247 10.7251C65.8059 10.7502 65.7872 10.7754 65.7684 10.7942C65.7372 10.8256 65.706 10.8445 65.6747 10.8759C65.2624 11.3537 65.2811 12.0765 65.731 12.5354L72.9785 19.7766V44.6809C72.9785 45.3535 73.5221 45.9004 74.1906 45.9004C74.8591 45.9004 75.4027 45.3535 75.4027 44.6809V25.1887H77.8706V44.6809C77.8706 45.3535 78.4142 45.9004 79.0827 45.9004C79.7513 45.9004 80.2948 45.3535 80.2948 44.6809V19.7766L87.5424 12.5354C87.9985 12.0765 88.011 11.3537 87.5986 10.8759" fill="#002273"/>
<path d="M87.6148 10.8755C87.6148 10.8755 87.5773 10.8252 87.5586 10.8064C87.5273 10.775 87.4961 10.7561 87.4648 10.731C87.4836 10.7561 87.5023 10.7812 87.5211 10.8001C87.5523 10.8315 87.5836 10.8504 87.6148 10.8818" fill="#002273"/>
<path d="M91.2732 14.6537L91.2669 14.6475L88.2305 17.7024L91.2732 14.6537Z" fill="#002273"/>
<path d="M84.3686 19.8583C83.8938 19.3805 83.8938 18.6074 84.3686 18.1297L86.8553 15.6279L84.3249 18.1485C83.85 18.6263 83.85 19.3994 84.3249 19.8771C84.656 20.2103 85.1371 20.3046 85.562 20.1726C85.4557 20.204 85.3433 20.2228 85.2308 20.2228C84.9184 20.2228 84.6123 20.1034 84.3686 19.8646" fill="#002273"/>
<path d="M86.8623 15.6281L84.3757 18.1298C83.9008 18.6075 83.9008 19.3807 84.3757 19.8584C84.6131 20.0973 84.9255 20.2167 85.2379 20.2167C85.3503 20.2167 85.4628 20.1978 85.569 20.1664C85.6815 20.1287 85.7939 20.091 85.8939 20.0218C85.9564 19.9778 86.0126 19.9338 86.0626 19.8835L88.2369 17.7087L91.2733 14.6538L89.5989 12.9126L86.8686 15.6281H86.8623Z" fill="#002273"/>
<path d="M85.8874 20.0215C85.7874 20.0906 85.675 20.1346 85.5625 20.1661C85.675 20.1346 85.7874 20.0843 85.8874 20.0215Z" fill="#002273"/>
</svg>
