<svg width="82" height="84" viewBox="0 0 82 84" fill="none" xmlns="http://www.w3.org/2000/svg">
<path d="M19.3736 13.4502C20.1983 12.4947 20.1608 11.049 19.2611 10.1313L10.1017 0.916287C9.15205 -0.039153 7.61506 -0.039153 6.66538 0.916287C5.71571 1.87173 5.71571 3.41803 6.66538 4.37347L15.8248 13.5884C16.2996 14.0662 16.9244 14.305 17.5492 14.305C18.0865 14.305 18.6238 14.1164 19.0737 13.7519C19.1112 13.7016 19.1487 13.6513 19.1862 13.6136C19.2486 13.5507 19.3111 13.513 19.3736 13.4627" fill="#35C9C9"/>
<path d="M17.8242 27.4048L22.1103 31.7168C22.2352 31.8426 22.3727 31.9557 22.5101 32.0437C22.3852 31.9557 22.2727 31.8677 22.1728 31.7671L17.8242 27.4174V27.4048Z" fill="#CBC545"/>
<path d="M4.23063 6.82498C3.28095 5.86954 1.74397 5.86954 0.794291 6.82498C-0.155389 7.78042 -0.155389 9.32672 0.794291 10.2822L11.7406 21.3074L15.0895 17.8251L4.23063 6.82498Z" fill="#35C9C9"/>
<path d="M19.3741 13.4507C19.3116 13.501 19.2367 13.5513 19.1867 13.6015C19.1492 13.6518 19.1117 13.6895 19.0742 13.7398C19.1367 13.6895 19.2117 13.6393 19.2617 13.589C19.2991 13.5513 19.3366 13.501 19.3741 13.4507Z" fill="#002273"/>
<path d="M11.7422 21.3075L17.8276 27.4047L11.7422 21.2949V21.3075Z" fill="#002273"/>
<path d="M20.5625 23.2562L25.5358 28.2597C26.4855 29.2152 26.4855 30.7615 25.5358 31.7169C25.061 32.1946 24.4362 32.4335 23.8114 32.4335C23.5865 32.4335 23.3616 32.3958 23.1491 32.3329C23.9988 32.5969 24.961 32.4209 25.6233 31.742C26.573 30.7866 26.573 29.2403 25.6233 28.2849L20.5625 23.2437V23.2562Z" fill="#002273"/>
<path d="M25.5368 31.7167C26.4864 30.7612 26.4864 29.2149 25.5368 28.2595L20.5634 23.256L15.1028 17.8125L11.7539 21.2948L17.8269 27.4046L22.1754 31.7544C22.2754 31.855 22.4003 31.9555 22.5128 32.031C22.7127 32.1692 22.9376 32.2572 23.1626 32.3201C23.375 32.383 23.5999 32.4207 23.8248 32.4207C24.4496 32.4207 25.0619 32.1818 25.5492 31.7041" fill="#002273"/>
<path d="M23.1615 32.3331C22.9366 32.2577 22.7117 32.1822 22.5117 32.0439C22.7117 32.1697 22.9366 32.2702 23.1615 32.3331Z" fill="#002273"/>
<path d="M62.9501 13.7519C63.4 14.1164 63.9373 14.305 64.4746 14.305C65.0994 14.305 65.7242 14.0662 66.199 13.5884L75.3585 4.37347C76.3081 3.41803 76.3081 1.87173 75.3585 0.916287C74.4088 -0.039153 72.8718 -0.039153 71.9221 0.916287L62.7627 10.1313C61.863 11.0364 61.8255 12.4947 62.6502 13.4502C62.7127 13.5004 62.7877 13.5507 62.8377 13.601C62.8877 13.6387 62.9127 13.689 62.9501 13.7393" fill="#2069E7"/>
<path d="M59.5 32.0437C59.6375 31.9557 59.7749 31.8426 59.8999 31.7168L64.1859 27.4048L59.8374 31.7546C59.7374 31.8677 59.6125 31.9557 59.5 32.0311" fill="#CBC545"/>
<path d="M81.2178 6.82498C80.2681 5.86954 78.7312 5.86954 77.7815 6.82498L66.9102 17.8251L70.259 21.3074L81.2053 10.2822C82.155 9.32672 82.155 7.78042 81.2053 6.82498" fill="#2069E7"/>
<path d="M62.9487 13.7519C62.8862 13.7016 62.8113 13.6513 62.7613 13.5884C62.7238 13.5507 62.6863 13.5004 62.6488 13.4501C61.6991 12.6707 60.2996 12.7084 59.3999 13.601L44.1925 28.8C43.7302 29.2526 43.4803 29.8812 43.4803 30.5349V37.4744H38.5444V30.5349C38.5444 29.8812 38.2945 29.2652 37.8322 28.8L22.6248 13.601C21.7376 12.7084 20.3381 12.6581 19.3759 13.4501C19.3384 13.5004 19.3009 13.5507 19.2635 13.5884C19.201 13.6513 19.1385 13.689 19.076 13.7519C18.2513 14.7073 18.2888 16.153 19.1885 17.0708L33.6836 31.5532V81.3618C33.6836 82.707 34.7707 83.8007 36.1078 83.8007C37.4448 83.8007 38.532 82.707 38.532 81.3618V42.3774H43.4678V81.3618C43.4678 82.707 44.5549 83.8007 45.892 83.8007C47.229 83.8007 48.3161 82.707 48.3161 81.3618V31.5532L62.8113 17.0708C63.7234 16.153 63.7484 14.7073 62.9237 13.7519" fill="#002273"/>
<path d="M62.9483 13.752C62.9483 13.752 62.8734 13.6515 62.8359 13.6137C62.7734 13.5509 62.7109 13.5132 62.6484 13.4629C62.6859 13.5132 62.7234 13.5635 62.7609 13.6012C62.8234 13.664 62.8859 13.7018 62.9483 13.7646" fill="#002273"/>
<path d="M70.2729 21.3075L70.2604 21.2949L64.1875 27.4047L70.2729 21.3075Z" fill="#002273"/>
<path d="M56.4638 31.717C55.5141 30.7616 55.5141 29.2153 56.4638 28.2598L61.4371 23.2563L56.3763 28.2976C55.4266 29.253 55.4266 30.7993 56.3763 31.7547C57.0386 32.421 58.0008 32.6096 58.8505 32.3456C58.6381 32.4085 58.4131 32.4462 58.1882 32.4462C57.5634 32.4462 56.9511 32.2073 56.4638 31.7296" fill="#002273"/>
<path d="M61.4512 23.2561L56.4779 28.2596C55.5282 29.215 55.5282 30.7614 56.4779 31.7168C56.9527 32.1945 57.5775 32.4334 58.2023 32.4334C58.4272 32.4334 58.6521 32.3957 58.8646 32.3328C59.0895 32.2574 59.3144 32.1819 59.5144 32.0437C59.6393 31.9557 59.7518 31.8677 59.8517 31.7671L64.2003 27.4173L70.2732 21.3075L66.9244 17.8252L61.4637 23.2561H61.4512Z" fill="#002273"/>
<path d="M59.4974 32.0439C59.2975 32.1822 59.0726 32.2702 58.8477 32.3331C59.0726 32.2702 59.2975 32.1697 59.4974 32.0439Z" fill="#002273"/>
</svg>
