<svg width="100" height="105" viewBox="0 0 100 105" fill="none" xmlns="http://www.w3.org/2000/svg">
<mask id="mask0_4034_6441" style="mask-type:luminance" maskUnits="userSpaceOnUse" x="10" y="0" width="80" height="105">
<path d="M89.0872 0H10.9141V105H89.0872V0Z" fill="white"/>
</mask>
<g mask="url(#mask0_4034_6441)">
<path d="M83.6265 96.5705C83.6265 98.201 82.3036 99.5239 80.6731 99.5239H19.5436C17.913 99.5239 16.3594 98.1702 16.3594 96.5397V22.0429C16.3594 20.4124 17.6823 19.0895 19.3128 19.0895H32.2648V22.1198C32.2648 23.7196 33.5569 25.0117 35.1567 25.0117H64.8292C66.429 25.0117 67.7211 23.7196 67.7211 22.1198V19.1049H80.6731C83.9957 19.1049 83.6265 22.9197 83.6265 22.0429V96.5858V96.5705ZM50.0006 5.46074C51.7542 5.46074 53.1848 6.8913 53.1848 8.64489C53.1848 10.3985 51.7542 11.829 50.0006 11.829C48.2471 11.829 46.8165 10.3985 46.8165 8.64489C46.8165 6.8913 48.2471 5.46074 50.0006 5.46074ZM80.6731 13.6288H67.7211V11.0599C67.7211 9.46015 66.429 8.16803 64.8292 8.16803H59.43C58.7532 3.55333 54.7999 0 50.0006 0C45.2013 0 41.2327 3.55333 40.5713 8.16803H35.172C33.5723 8.16803 32.2802 9.46015 32.2802 11.0599V13.6288H19.3282C14.6827 13.6288 10.9141 17.3974 10.9141 22.0429V96.5551C10.9141 101.201 14.6827 104.969 19.3282 104.969L80.6731 105C85.3185 105 89.0872 101.231 89.0872 96.5858V22.0429C89.0872 17.3974 85.3185 13.6288 80.6731 13.6288Z" fill="#002273"/>
</g>
<path d="M75.9021 39.9941H51.3672V44.0858H75.9021V39.9941Z" fill="#35C9C9"/>
<path d="M75.9021 60.4526H51.3672V64.5443H75.9021V60.4526Z" fill="#002273"/>
<path d="M75.9021 84.9877H51.3672V80.896H75.9021" fill="#002273"/>
<mask id="mask1_4034_6441" style="mask-type:luminance" maskUnits="userSpaceOnUse" x="10" y="0" width="80" height="105">
<path d="M89.0872 0H10.9141V105H89.0872V0Z" fill="white"/>
</mask>
<g mask="url(#mask1_4034_6441)">
<path d="M42.0488 79.7575L33.0809 88.4178C32.604 88.8793 31.9734 89.0946 31.3427 89.0792C30.7274 89.0792 30.1121 88.8639 29.6506 88.4178L24.7744 84.3415C23.8669 83.4493 23.8669 82.0187 24.7744 81.1265C25.682 80.2344 27.1587 80.2344 28.0816 81.1265L31.2658 83.8031L38.7416 76.5887C39.6492 75.712 41.1413 75.712 42.0488 76.5887C42.9564 77.4655 42.9564 78.8961 42.0488 79.7729" fill="#002273"/>
<path d="M42.0488 59.299L33.0809 67.9593C32.604 68.4208 31.9734 68.6361 31.3427 68.6207C30.7274 68.6207 30.1121 68.4054 29.6506 67.9593L24.7744 63.883C23.8669 62.9908 23.8669 61.5602 24.7744 60.668C25.682 59.7759 27.1587 59.7759 28.0816 60.668L31.2658 63.3446L38.7416 56.1303C39.6492 55.2535 41.1413 55.2535 42.0488 56.1303C42.9564 57.007 42.9564 58.4376 42.0488 59.3144" fill="#002273"/>
<path d="M42.0488 38.8559L33.0809 47.5162C32.604 47.9776 31.9734 48.193 31.3427 48.1622C30.7274 48.1622 30.1121 47.9469 29.6506 47.5008L24.7744 43.4245C23.8669 42.5323 23.8669 41.1017 24.7744 40.2096C25.682 39.3174 27.1587 39.3174 28.0816 40.2096L31.2658 42.8861L38.7416 35.6718C39.6492 34.795 41.1413 34.795 42.0488 35.6718C42.9564 36.5486 42.9564 37.9791 42.0488 38.8559Z" fill="#2069E7"/>
</g>
</svg>
