<svg width="76" height="75" viewBox="0 0 76 75" fill="none" xmlns="http://www.w3.org/2000/svg">
<mask id="mask0_4034_125" style="mask-type:luminance" maskUnits="userSpaceOnUse" x="10" y="0" width="56" height="75">
<path d="M65.9161 0H10.0781V75H65.9161V0Z" fill="white"/>
</mask>
<g mask="url(#mask0_4034_125)">
<path d="M62.0156 68.9789C62.0156 70.1436 61.0707 71.0885 59.906 71.0885H16.2421C15.0774 71.0885 13.9677 70.1216 13.9677 68.9569V15.7449C13.9677 14.5803 14.9126 13.6354 16.0772 13.6354H25.3286V15.7999C25.3286 16.9426 26.2516 17.8655 27.3943 17.8655H48.589C49.7317 17.8655 50.6546 16.9426 50.6546 15.7999V13.6464H59.906C62.2793 13.6464 62.0156 16.3712 62.0156 15.7449V68.9899V68.9789ZM37.9971 3.90053C39.2497 3.90053 40.2715 4.92236 40.2715 6.17492C40.2715 7.42748 39.2497 8.44931 37.9971 8.44931C36.7445 8.44931 35.7227 7.42748 35.7227 6.17492C35.7227 4.92236 36.7445 3.90053 37.9971 3.90053ZM59.906 9.73484H50.6546V7.89994C50.6546 6.75725 49.7317 5.83431 48.589 5.83431H44.7324C44.2489 2.53809 41.4252 0 37.9971 0C34.569 0 31.7343 2.53809 31.2618 5.83431H27.4053C26.2626 5.83431 25.3396 6.75725 25.3396 7.89994V9.73484H16.0882C12.77 9.73484 10.0781 12.4268 10.0781 15.7449V68.9679C10.0781 72.2861 12.77 74.978 16.0882 74.978L59.906 75C63.2242 75 65.9161 72.3081 65.9161 68.9899V15.7449C65.9161 12.4268 63.2242 9.73484 59.906 9.73484Z" fill="#002273"/>
</g>
<path d="M56.5015 28.5674H38.9766V31.49H56.5015V28.5674Z" fill="#35C9C9"/>
<path d="M56.5015 43.1807H38.9766V46.1033H56.5015V43.1807Z" fill="#002273"/>
<path d="M56.5015 60.7054H38.9766V57.7827H56.5015" fill="#002273"/>
<mask id="mask1_4034_125" style="mask-type:luminance" maskUnits="userSpaceOnUse" x="10" y="0" width="56" height="75">
<path d="M65.9161 0H10.0781V75H65.9161V0Z" fill="white"/>
</mask>
<g mask="url(#mask1_4034_125)">
<path d="M32.3172 56.9699L25.9116 63.1558C25.571 63.4855 25.1205 63.6393 24.67 63.6283C24.2305 63.6283 23.791 63.4745 23.4614 63.1558L19.9784 60.2442C19.3301 59.6069 19.3301 58.5851 19.9784 57.9478C20.6266 57.3105 21.6814 57.3105 22.3407 57.9478L24.6151 59.8596L29.9549 54.7065C30.6032 54.0802 31.669 54.0802 32.3172 54.7065C32.9655 55.3328 32.9655 56.3546 32.3172 56.9809" fill="#002273"/>
<path d="M32.3172 42.3566L25.9116 48.5426C25.571 48.8722 25.1205 49.026 24.67 49.015C24.2305 49.015 23.791 48.8612 23.4614 48.5426L19.9784 45.6309C19.3301 44.9936 19.3301 43.9718 19.9784 43.3345C20.6266 42.6973 21.6814 42.6973 22.3407 43.3345L24.6151 45.2463L29.9549 40.0932C30.6032 39.467 31.669 39.467 32.3172 40.0932C32.9655 40.7195 32.9655 41.7414 32.3172 42.3676" fill="#002273"/>
<path d="M32.3172 27.7544L25.9116 33.9403C25.571 34.2699 25.1205 34.4237 24.67 34.4017C24.2305 34.4017 23.791 34.2479 23.4614 33.9293L19.9784 31.0176C19.3301 30.3803 19.3301 29.3585 19.9784 28.7212C20.6266 28.084 21.6814 28.084 22.3407 28.7212L24.6151 30.6331L29.9549 25.48C30.6032 24.8537 31.669 24.8537 32.3172 25.48C32.9655 26.1062 32.9655 27.1281 32.3172 27.7544Z" fill="#2069E7"/>
</g>
</svg>
