<svg width="104" height="40" viewBox="0 0 104 40" fill="none" xmlns="http://www.w3.org/2000/svg">
<path d="M8.38382 8.57996C8.71371 8.19779 8.69871 7.61949 8.33884 7.2524L4.67507 3.56642C4.2952 3.18424 3.6804 3.18424 3.30053 3.56642C2.92066 3.94859 2.92066 4.56711 3.30053 4.94929L6.9643 8.63528C7.15423 8.82637 7.40415 8.92191 7.65407 8.92191C7.86899 8.92191 8.08392 8.84648 8.26386 8.70065C8.27886 8.68054 8.29385 8.66042 8.30885 8.64534C8.33384 8.62019 8.35883 8.60511 8.38382 8.58499" fill="#78BE20"/>
<path d="M7.76562 14.1621L9.48005 15.8869C9.53003 15.9372 9.58501 15.9825 9.64 16.0177C9.59001 15.9825 9.54503 15.9473 9.50504 15.907L7.76562 14.1671V14.1621Z" fill="#CBC545"/>
<path d="M2.3235 5.93019C1.94363 5.54801 1.32884 5.54801 0.948967 5.93019C0.569094 6.31236 0.569094 6.93088 0.948967 7.31306L5.3275 11.7232L6.66705 10.3302L2.3235 5.93019Z" fill="#78BE20"/>
<path d="M8.38558 8.58008C8.36059 8.60019 8.3306 8.62031 8.31061 8.64042C8.29561 8.66054 8.28062 8.67562 8.26562 8.69574C8.29062 8.67562 8.32061 8.65551 8.3406 8.63539C8.3556 8.62031 8.37059 8.60019 8.38558 8.58008Z" fill="#002273"/>
<path d="M5.32812 11.7228L7.76231 14.1617L5.32812 11.7178V11.7228Z" fill="#002273"/>
<path d="M8.85938 12.5021L10.8487 14.5035C11.2286 14.8857 11.2286 15.5042 10.8487 15.8864C10.6588 16.0775 10.4089 16.173 10.1589 16.173C10.069 16.173 9.979 16.1579 9.89403 16.1328C10.2339 16.2384 10.6188 16.168 10.8837 15.8964C11.2636 15.5142 11.2636 14.8957 10.8837 14.5136L8.85938 12.4971V12.5021Z" fill="#002273"/>
<path d="M10.8491 15.8869C11.229 15.5047 11.229 14.8862 10.8491 14.504L8.85975 12.5026L6.67549 10.3252L5.33594 11.7181L7.76512 14.162L9.50454 15.9019C9.54452 15.9422 9.59451 15.9824 9.63949 16.0126C9.71946 16.0679 9.80943 16.1031 9.8994 16.1282C9.98438 16.1534 10.0743 16.1685 10.1643 16.1685C10.4142 16.1685 10.6591 16.0729 10.8541 15.8818" fill="#002273"/>
<path d="M9.89272 16.1332C9.80275 16.1031 9.71279 16.0729 9.63281 16.0176C9.71279 16.0679 9.80275 16.1081 9.89272 16.1332Z" fill="#002273"/>
<path d="M25.8097 8.70065C25.9897 8.84648 26.2046 8.92191 26.4195 8.92191C26.6695 8.92191 26.9194 8.82637 27.1093 8.63528L30.7731 4.94929C31.1529 4.56711 31.1529 3.94859 30.7731 3.56642C30.3932 3.18424 29.7784 3.18424 29.3985 3.56642L25.7348 7.2524C25.3749 7.61447 25.3599 8.19779 25.6898 8.57996C25.7148 8.60008 25.7448 8.62019 25.7648 8.64031C25.7848 8.65539 25.7948 8.67551 25.8097 8.69562" fill="#2069E7"/>
<path d="M24.4297 16.0177C24.4847 15.9825 24.5397 15.9372 24.5896 15.8869L26.3041 14.1621L24.5646 15.902C24.5247 15.9473 24.4747 15.9825 24.4297 16.0126" fill="#CBC545"/>
<path d="M33.1215 5.93019C32.7416 5.54801 32.1268 5.54801 31.747 5.93019L27.3984 10.3302L28.738 11.7232L33.1165 7.31306C33.4964 6.93088 33.4964 6.31236 33.1165 5.93019" fill="#2069E7"/>
<path d="M25.8092 8.70055C25.7842 8.68044 25.7542 8.66032 25.7342 8.63518C25.7192 8.62009 25.7042 8.59998 25.6892 8.57986C25.3094 8.26809 24.7496 8.28317 24.3897 8.64021L18.3067 14.7198C18.1218 14.9009 18.0218 15.1523 18.0218 15.4138V18.1896H16.0475V15.4138C16.0475 15.1523 15.9475 14.9059 15.7626 14.7198L9.67962 8.64021C9.32474 8.28317 8.76493 8.26306 8.38006 8.57986C8.36506 8.59998 8.35007 8.62009 8.33507 8.63518C8.31008 8.66032 8.28509 8.67541 8.2601 8.70055C7.93021 9.08273 7.9452 9.66102 8.30508 10.0281L14.1031 15.8211V35.7445C14.1031 36.2826 14.538 36.7201 15.0728 36.7201C15.6076 36.7201 16.0425 36.2826 16.0425 35.7445V20.1507H18.0168V35.7445C18.0168 36.2826 18.4517 36.7201 18.9865 36.7201C19.5213 36.7201 19.9562 36.2826 19.9562 35.7445V15.8211L25.7542 10.0281C26.1191 9.66102 26.1291 9.08273 25.7992 8.70055" fill="#002273"/>
<path d="M25.8075 8.70062C25.8075 8.70062 25.7775 8.66039 25.7625 8.6453C25.7375 8.62016 25.7125 8.60508 25.6875 8.58496C25.7025 8.60508 25.7175 8.62519 25.7325 8.64028C25.7575 8.66542 25.7825 8.6805 25.8075 8.70565" fill="#002273"/>
<path d="M28.7389 11.7228L28.7339 11.7178L26.3047 14.1617L28.7389 11.7228Z" fill="#002273"/>
<path d="M23.2183 15.8867C22.8385 15.5045 22.8385 14.886 23.2183 14.5038L25.2077 12.5024L23.1833 14.5189C22.8035 14.9011 22.8035 15.5196 23.1833 15.9018C23.4483 16.1683 23.8331 16.2437 24.173 16.1381C24.088 16.1633 23.9981 16.1784 23.9081 16.1784C23.6582 16.1784 23.4133 16.0828 23.2183 15.8917" fill="#002273"/>
<path d="M25.2117 12.5024L23.2224 14.5038C22.8425 14.886 22.8425 15.5045 23.2224 15.8867C23.4123 16.0778 23.6623 16.1733 23.9122 16.1733C24.0021 16.1733 24.0921 16.1583 24.1771 16.1331C24.2671 16.1029 24.357 16.0728 24.437 16.0175C24.487 15.9823 24.532 15.9471 24.572 15.9068L26.3114 14.1669L28.7405 11.723L27.401 10.3301L25.2167 12.5024H25.2117Z" fill="#002273"/>
<path d="M24.4318 16.0176C24.3518 16.0729 24.2618 16.1081 24.1719 16.1332C24.2618 16.1081 24.3518 16.0679 24.4318 16.0176Z" fill="#002273"/>
<path d="M33.3984 18.309H37.4315V14.2568H40.8331V18.309H44.8852V21.7105H40.8331V25.7436H37.4315V21.7105H33.3984V18.309Z" fill="#6F727B"/>
<g clip-path="url(#clip0_4034_3953)">
<path d="M61.3033 7.4846H63.6529C63.9296 7.4846 64.1594 7.26009 64.1594 6.97814C64.1594 6.69619 63.9348 6.47168 63.6529 6.47168H61.3033C61.0266 6.47168 60.7969 6.69619 60.7969 6.97814C60.7969 7.26009 61.0214 7.4846 61.3033 7.4846Z" fill="#002273"/>
<path d="M59.7955 10.1736H63.6488C63.9255 10.1736 64.1553 9.94905 64.1553 9.66711C64.1553 9.38516 63.9308 9.16064 63.6488 9.16064H59.7955C59.5188 9.16064 59.2891 9.38516 59.2891 9.66711C59.2891 9.94905 59.5136 10.1736 59.7955 10.1736Z" fill="#002273"/>
<path d="M63.6451 11.8599H61.2955C61.0188 11.8599 60.7891 12.0844 60.7891 12.3663C60.7891 12.6483 61.0136 12.8728 61.2955 12.8728H63.6451C63.9218 12.8728 64.1515 12.6483 64.1515 12.3663C64.1515 12.0844 63.927 11.8599 63.6451 11.8599Z" fill="#002273"/>
<path d="M71.812 24.8556C69.7079 24.8556 67.9953 26.5682 67.9953 28.6723V34.0502C67.9953 36.6191 65.9068 38.7076 63.338 38.7076C60.7691 38.7076 58.6806 36.6191 58.6806 34.0502V33.6012C59.3385 33.1365 59.7457 32.3794 59.7457 31.544V29.8732H59.7614C60.1217 29.8732 60.4088 29.5808 60.4088 29.2258C60.4088 28.8707 60.1165 28.5783 59.7614 28.5783H58.6806V27.0068C59.3698 26.9702 59.918 26.3959 59.918 25.6962V25.0488H62.7636C64.7216 25.0488 66.3141 23.4563 66.3141 21.4983V5.91812C66.3141 3.96015 64.7216 2.36767 62.7636 2.36767H61.0458C60.7482 1.01536 59.5421 0.00244141 58.1011 0.00244141C56.66 0.00244141 55.4539 1.01536 55.1563 2.36767H53.4385C51.4753 2.36767 49.8828 3.96015 49.8828 5.91812V21.4931C49.8828 23.4511 51.4753 25.0436 53.4333 25.0436H56.2788V25.691C56.2788 26.3437 56.7592 26.8867 57.3857 26.9859V28.5679H56.3102C55.9499 28.5679 55.6627 28.8603 55.6627 29.2153C55.6627 29.5704 55.9551 29.8628 56.3102 29.8628H56.3258V31.5336C56.3258 32.3638 56.7331 33.1261 57.391 33.5907V34.0398C57.391 37.3239 60.0642 39.9972 63.3484 39.9972C66.6326 39.9972 69.3006 37.3239 69.3006 34.0398V28.6619C69.3006 27.273 70.4284 26.14 71.8225 26.14C73.2166 26.14 74.3391 27.2678 74.3391 28.6619C74.3391 29.0169 74.6315 29.3093 74.9866 29.3093C75.3416 29.3093 75.634 29.0169 75.634 28.6619C75.634 26.5577 73.9214 24.8452 71.8173 24.8452M51.1777 21.4983V5.91812C51.1777 4.67546 52.1906 3.66254 53.4333 3.66254H55.7306C56.0909 3.66254 56.378 3.37015 56.378 3.0151C56.378 2.07006 57.1508 1.29731 58.0958 1.29731C59.0409 1.29731 59.8136 2.07006 59.8136 3.0151C59.8136 3.37537 60.106 3.66254 60.4611 3.66254H62.7584C64.0011 3.66254 65.014 4.67546 65.014 5.91812V21.4931C65.014 22.7358 64.0011 23.7487 62.7584 23.7487H53.4333C52.1906 23.7487 51.1777 22.7358 51.1777 21.4931" fill="#002273"/>
<path d="M58.0982 3.71992C58.5212 3.71992 58.8605 3.38054 58.8605 2.95762C58.8605 2.53469 58.5212 2.19531 58.0982 2.19531C57.6753 2.19531 57.3359 2.53469 57.3359 2.95762C57.3359 3.38054 57.6753 3.71992 58.0982 3.71992Z" fill="#002273"/>
<path d="M64.1549 21.4981V14.3032C63.3822 14.8253 62.5834 15.0811 61.7323 15.0811C61.5704 15.0811 61.4033 15.0707 61.2363 15.055C60.192 14.9402 59.1948 14.4703 58.2288 14.0212C56.297 13.118 54.4695 12.2669 52.2035 13.9742C52.1565 14.0108 52.0991 14.0369 52.0469 14.0526V21.5033C52.0469 22.2708 52.6682 22.8921 53.4357 22.8921H62.7609C63.5284 22.8921 64.1497 22.2708 64.1497 21.5033" fill="#CBC545"/>
</g>
<path d="M95.1409 4.9917H83.8213C83.0224 4.9917 82.375 5.63913 82.375 6.43799V8.5787C82.375 9.37755 83.0224 10.025 83.8213 10.025H95.1409C95.9398 10.025 96.5872 9.37755 96.5872 8.5787V6.43799C96.5872 5.63913 95.9398 4.9917 95.1409 4.9917Z" fill="#002273"/>
<path d="M88.383 24.1119H86.1953V21.9242H88.383V19.7417H90.5655V21.9242H92.7532V24.1119H90.5655V26.2944H88.383V24.1119Z" fill="#D50056"/>
<path d="M96.0564 28.6129H82.8988V17.4237H96.0616V28.6129H96.0564ZM95.4246 11.0225H83.5306C81.9329 11.0225 80.6328 12.3226 80.6328 13.9203V32.1111C80.6328 33.7088 81.9329 35.0089 83.5306 35.0089H95.4298C97.0275 35.0089 98.3276 33.7088 98.3276 32.1111V13.9203C98.3276 12.3226 97.0275 11.0225 95.4298 11.0225" fill="#002273"/>
<defs>
<clipPath id="clip0_4034_3953">
<rect width="30.7512" height="39.9948" fill="white" transform="translate(44.8828 0.00244141)"/>
</clipPath>
</defs>
</svg>
