<svg width="60" height="80" viewBox="0 0 60 80" fill="none" xmlns="http://www.w3.org/2000/svg">
<g clip-path="url(#clip0_4034_490)">
<path d="M47.3296 37.4598C47.2171 36.5723 47.0421 35.6973 46.8046 34.8598C46.3171 33.1348 45.5546 31.5098 44.5296 29.9473C43.9421 29.0598 43.2671 28.1848 42.5046 27.3473C42.3796 27.2098 42.2546 27.0723 42.1296 26.9348C40.5671 25.2723 38.7546 23.8098 36.8296 22.4348C36.3671 22.1098 35.9046 21.7848 35.4421 21.4723L28.4171 16.9348C27.7047 16.4598 26.2797 15.4973 25.4922 14.9223C24.3547 14.0848 23.2797 13.2348 22.3172 12.3223C20.7422 10.8473 19.4422 9.24727 18.5297 7.40977C18.1297 6.58477 17.8047 5.72227 17.5672 4.80977C17.3047 3.77227 17.1672 2.65977 17.1672 1.47227C17.1672 0.209775 16.1922 -0.827725 14.9672 -0.865225C13.6797 -0.902725 12.6172 0.134775 12.6172 1.40977C12.6172 5.44727 13.7922 9.03477 16.2047 12.2973C16.7297 13.0223 17.3297 13.7223 17.9797 14.4098C18.1297 14.5723 18.2922 14.7348 18.4547 14.8973C20.2672 16.7223 22.3797 18.3223 24.5672 19.8098C24.5922 19.8348 24.6297 19.8473 24.6672 19.8723L31.2671 24.1348C32.8546 25.1723 34.3921 26.2223 35.8046 27.3223C36.8546 28.1473 37.8296 29.0098 38.7046 29.9223C40.1046 31.3973 41.2421 32.9973 41.9796 34.8348C42.3171 35.6598 42.5671 36.5223 42.7296 37.4348C42.8671 38.2098 42.9421 39.0348 42.9421 39.8973C42.9421 40.7598 42.8671 41.5723 42.7296 42.3598C42.5671 43.2723 42.3171 44.1473 41.9796 44.9598C41.2421 46.7973 40.1046 48.4098 38.7046 49.8723C37.8296 50.7848 36.8546 51.6473 35.8046 52.4723C34.4046 53.5848 32.8546 54.6223 31.2671 55.6598C30.8671 55.9223 30.4671 56.1723 30.0671 56.4348C29.6671 56.6973 29.2546 56.9473 28.8421 57.2098C28.7546 57.2598 28.6671 57.3223 28.5796 57.3848C27.6672 57.9598 26.7547 58.5473 25.8547 59.1348C25.4547 59.3973 25.0672 59.6473 24.6797 59.9223C24.6422 59.9473 24.6172 59.9723 24.5797 59.9848C22.3797 61.4848 20.2797 63.0848 18.4672 64.8973C18.3047 65.0598 18.1422 65.2223 17.9922 65.3848C17.3422 66.0723 16.7547 66.7723 16.2172 67.4973C13.8047 70.7723 12.6297 74.3348 12.6172 78.3473C12.6172 79.6848 13.7297 80.7848 15.0547 80.6848C16.2422 80.5973 17.1672 79.6098 17.1672 78.4098C17.1672 77.2098 17.3047 76.0973 17.5672 75.0473C17.7922 74.1348 18.1172 73.2598 18.5297 72.4473C19.4297 70.6098 20.7422 69.0098 22.3172 67.5348C23.2922 66.6223 24.3547 65.7598 25.4922 64.9348C26.5547 64.1473 27.6797 63.3973 28.8421 62.6473C29.2421 62.3848 29.6421 62.1348 30.0421 61.8723C30.4421 61.6098 30.8546 61.3598 31.2671 61.0973C31.8296 60.7473 32.3921 60.3848 32.9421 60.0223C33.3796 59.7348 33.8171 59.4598 34.2546 59.1723C34.6546 58.9098 35.0421 58.6473 35.4296 58.3848C35.9046 58.0723 36.3671 57.7473 36.8171 57.4223C38.7296 56.0473 40.5421 54.5723 42.1171 52.9223C42.2421 52.7848 42.3796 52.6473 42.4921 52.5098C43.2546 51.6598 43.9296 50.7973 44.5171 49.9098C45.5421 48.3473 46.2921 46.7098 46.7921 44.9973C47.0296 44.1473 47.2046 43.2848 47.3171 42.3973C47.4171 41.5973 47.4671 40.7848 47.4671 39.9348C47.4671 39.0848 47.4171 38.2723 47.3171 37.4723" fill="#002273"/>
<path d="M19.6212 7.29707C19.8337 7.74707 20.2837 8.03457 20.7837 8.03457H39.3211C39.8211 8.03457 40.2711 7.74707 40.4836 7.29707C40.4836 7.29707 40.4836 7.28457 40.4836 7.27207C40.8836 6.42207 40.2586 5.43457 39.3211 5.43457H20.7712C19.8212 5.43457 19.2087 6.42207 19.6087 7.27207C19.6087 7.27207 19.6087 7.28457 19.6212 7.29707Z" fill="#CBC545"/>
<path d="M28.1212 11.6475C26.8587 11.6475 26.3462 13.2725 27.3837 13.9975C27.3962 13.9975 27.4087 14.01 27.4212 14.0225C27.6337 14.1725 27.8962 14.2475 28.1587 14.2475H31.9587C32.2212 14.2475 32.4712 14.16 32.6962 14.0225C32.7087 14.0225 32.7212 14.01 32.7337 13.9975C33.7712 13.2725 33.2587 11.6475 31.9962 11.6475H28.1212Z" fill="#CBC545"/>
<path d="M33.2547 31.2348C34.4922 31.2348 35.0172 29.6473 34.0172 28.9098C34.0047 28.9098 33.9922 28.8973 33.9797 28.8848C33.7547 28.7223 33.4922 28.6348 33.2172 28.6348H26.8797C26.6047 28.6348 26.3297 28.7223 26.1172 28.8848C26.1172 28.8848 26.0922 28.8973 26.0797 28.9098C25.0797 29.6473 25.6047 31.2348 26.8422 31.2348H33.2547Z" fill="#CBC545"/>
<path d="M19.1933 36.3596C19.1933 36.3596 19.1933 36.3721 19.1933 36.3846C18.8933 37.2221 19.5183 38.1096 20.4058 38.1096H39.7182C40.6057 38.1096 41.2307 37.2221 40.9307 36.3846C40.9307 36.3846 40.9307 36.3721 40.9307 36.3596C40.7432 35.8471 40.2682 35.4971 39.7182 35.4971H20.4058C19.8558 35.4971 19.3808 35.8471 19.1933 36.3596Z" fill="#CBC545"/>
<path d="M19.1776 44.0849C19.1776 44.0849 19.1776 44.0974 19.1776 44.1099C19.3651 44.6224 19.8526 44.9724 20.3901 44.9724H39.6776C40.2276 44.9724 40.7026 44.6224 40.8901 44.1099C40.8901 44.1099 40.8901 44.0974 40.8901 44.0849C41.1901 43.2474 40.5651 42.3599 39.6776 42.3599H20.3901C19.5026 42.3599 18.8776 43.2474 19.1776 44.0849Z" fill="#CBC545"/>
<path d="M26.8422 49.2349C25.6047 49.2349 25.0797 50.8224 26.0797 51.5599C26.0797 51.5599 26.1047 51.5724 26.1172 51.5849C26.3422 51.7474 26.6047 51.8349 26.8797 51.8349H33.2172C33.4922 51.8349 33.7672 51.7474 33.9797 51.5849C33.9797 51.5849 34.0047 51.5724 34.0172 51.5599C35.0172 50.8224 34.4922 49.2349 33.2547 49.2349H26.8422Z" fill="#CBC545"/>
<path d="M31.9962 68.185C33.2587 68.185 33.7712 66.56 32.7337 65.835C32.7212 65.835 32.7087 65.8225 32.6962 65.81C32.4837 65.66 32.2212 65.585 31.9587 65.585H28.1587C27.8962 65.585 27.6337 65.6725 27.4212 65.81C27.4212 65.81 27.3962 65.8225 27.3837 65.835C26.3462 66.56 26.8587 68.185 28.1212 68.185H31.9962Z" fill="#CBC545"/>
<path d="M40.479 73.1848C40.2665 72.7348 39.8165 72.4473 39.3165 72.4473H20.779C20.279 72.4473 19.829 72.7348 19.6165 73.1848C19.6165 73.1848 19.6165 73.1973 19.6165 73.2098C19.2165 74.0598 19.829 75.0473 20.779 75.0473H39.3415C40.2915 75.0473 40.9039 74.0598 40.504 73.2098C40.504 73.2098 40.504 73.1973 40.4915 73.1848" fill="#CBC545"/>
<path d="M12.6812 37.6474C12.7937 36.7599 12.9687 35.8849 13.2062 35.0474C13.6937 33.3224 14.4562 31.6974 15.4812 30.1349C16.0687 29.2474 16.7437 28.3724 17.5062 27.5349C17.6312 27.3974 17.7562 27.2599 17.8812 27.1224C19.4437 25.4599 21.2562 23.9974 23.1812 22.6224C23.6437 22.2974 24.1062 21.9724 24.5687 21.6599L31.5937 17.1224C32.3062 16.6474 33.7312 15.6849 34.5187 15.1099C35.6562 14.2724 36.7312 13.4224 37.6937 12.5099C39.2687 11.0349 40.5687 9.43487 41.4812 7.59737C41.8812 6.77237 42.2062 5.90987 42.4437 4.99737C42.7062 3.95987 42.8437 2.84737 42.8437 1.65987C42.8437 0.434872 43.8187 -0.602628 45.0437 -0.640128C46.3312 -0.677628 47.3937 0.359872 47.3937 1.63487C47.3937 5.67237 46.2187 9.25987 43.8062 12.5099C43.2812 13.2349 42.6812 13.9349 42.0312 14.6224C41.8812 14.7849 41.7187 14.9474 41.5562 15.1099C39.7437 16.9349 37.6312 18.5349 35.4437 20.0224C35.4187 20.0474 35.3812 20.0599 35.3437 20.0849L28.7437 24.3474C27.1562 25.3849 25.6187 26.4349 24.2062 27.5349C23.1562 28.3599 22.1812 29.2224 21.3062 30.1349C19.9062 31.6099 18.7687 33.2099 18.0312 35.0474C17.6937 35.8724 17.4437 36.7349 17.2812 37.6474C17.1437 38.4224 17.0687 39.2474 17.0687 40.1099C17.0687 40.9724 17.1437 41.7849 17.2812 42.5724C17.4437 43.4849 17.6937 44.3599 18.0312 45.1724C18.7687 47.0099 19.9062 48.6224 21.3062 50.0849C22.1812 50.9974 23.1562 51.8599 24.2062 52.6849C25.6062 53.7974 27.1562 54.8349 28.7437 55.8724C29.1437 56.1349 29.5437 56.3849 29.9437 56.6474C30.3437 56.9099 30.7562 57.1599 31.1687 57.4224C31.2562 57.4724 31.3437 57.5349 31.4312 57.5974C32.3437 58.1724 33.2562 58.7599 34.1562 59.3474C34.5562 59.6099 34.9437 59.8599 35.3312 60.1349C35.3687 60.1599 35.3937 60.1849 35.4312 60.1974C37.6312 61.6974 39.7312 63.2974 41.5437 65.1099C41.7062 65.2724 41.8687 65.4349 42.0187 65.5974C42.6687 66.2849 43.2562 66.9849 43.7937 67.7099C46.1937 70.9599 47.3687 74.5224 47.3812 78.5224C47.3812 79.8599 46.2687 80.9599 44.9437 80.8599C43.7562 80.7724 42.8312 79.7849 42.8312 78.5849C42.8312 77.3849 42.6937 76.2724 42.4312 75.2224C42.2062 74.3099 41.8812 73.4349 41.4687 72.6224C40.5687 70.7849 39.2562 69.1849 37.6812 67.7099C36.7062 66.7974 35.6437 65.9349 34.5062 65.1099C33.4437 64.3224 32.3187 63.5724 31.1562 62.8224C30.7562 62.5599 30.3562 62.3099 29.9562 62.0474C29.5562 61.7849 29.1437 61.5349 28.7312 61.2724C28.1687 60.9224 27.6062 60.5599 27.0562 60.1974C26.6187 59.9099 26.1812 59.6349 25.7437 59.3474C25.3437 59.0849 24.9562 58.8224 24.5687 58.5599C24.0937 58.2474 23.6312 57.9224 23.1812 57.5974C21.2687 56.2224 19.4562 54.7474 17.8812 53.0974C17.7562 52.9599 17.6187 52.8224 17.5062 52.6849C16.7437 51.8349 16.0687 50.9724 15.4812 50.0849C14.4562 48.5224 13.7062 46.8849 13.2062 45.1724C12.9687 44.3224 12.7937 43.4599 12.6812 42.5724C12.5812 41.7724 12.5312 40.9599 12.5312 40.1099C12.5312 39.2599 12.5812 38.4474 12.6812 37.6474Z" fill="#002273"/>
</g>
<defs>
<clipPath id="clip0_4034_490">
<rect width="59.9378" height="80" fill="white" transform="translate(0.03125)"/>
</clipPath>
</defs>
</svg>
