<svg width="118" height="80" viewBox="0 0 118 80" fill="none" xmlns="http://www.w3.org/2000/svg">
<path d="M10.2571 25.7297C10.6695 25.252 10.6507 24.5291 10.2009 24.0703L5.62118 19.4628C5.14634 18.9851 4.37785 18.9851 3.90301 19.4628C3.42816 19.9405 3.42816 20.7137 3.90301 21.1914L8.48272 25.7989C8.72014 26.0377 9.03253 26.1571 9.34493 26.1571C9.61359 26.1571 9.88225 26.0629 10.1072 25.8806C10.1259 25.8554 10.1447 25.8303 10.1634 25.8114C10.1946 25.78 10.2259 25.7611 10.2571 25.736" fill="#35C9C9"/>
<path d="M9.48047 32.707L11.6235 34.8631C11.686 34.9259 11.7547 34.9825 11.8234 35.0265C11.761 34.9825 11.7047 34.9385 11.6547 34.8882L9.48047 32.7133V32.707Z" fill="#CBC545"/>
<path d="M2.68368 22.4174C2.20884 21.9397 1.44035 21.9397 0.965505 22.4174C0.490665 22.8951 0.490665 23.6682 0.965505 24.146L6.43867 29.6586L8.1131 27.9174L2.68368 22.4174Z" fill="#35C9C9"/>
<path d="M10.2554 25.73C10.2242 25.7551 10.1867 25.7803 10.1617 25.8054C10.143 25.8306 10.1242 25.8494 10.1055 25.8746C10.1367 25.8494 10.1742 25.8243 10.1992 25.7991C10.2179 25.7803 10.2367 25.7551 10.2554 25.73Z" fill="#002273"/>
<path d="M6.4375 29.6586L9.48023 32.7072L6.4375 29.6523V29.6586Z" fill="#002273"/>
<path d="M10.8516 30.6328L13.3382 33.1345C13.8131 33.6122 13.8131 34.3854 13.3382 34.8631C13.1008 35.1019 12.7884 35.2214 12.476 35.2214C12.3636 35.2214 12.2511 35.2025 12.1449 35.1711C12.5697 35.3031 13.0508 35.2151 13.382 34.8757C13.8568 34.3979 13.8568 33.6248 13.382 33.1471L10.8516 30.6265V30.6328Z" fill="#002273"/>
<path d="M13.3367 34.8632C13.8116 34.3855 13.8116 33.6123 13.3367 33.1346L10.8501 30.6329L8.11975 27.9111L6.44531 29.6523L9.48179 32.7072L11.6561 34.8821C11.706 34.9324 11.7685 34.9826 11.8248 35.0204C11.9247 35.0895 12.0372 35.1335 12.1496 35.1649C12.2559 35.1964 12.3683 35.2152 12.4808 35.2152C12.7932 35.2152 13.0993 35.0958 13.343 34.8569" fill="#002273"/>
<path d="M12.1491 35.1709C12.0366 35.1332 11.9242 35.0955 11.8242 35.0264C11.9242 35.0892 12.0366 35.1395 12.1491 35.1709Z" fill="#002273"/>
<path d="M32.0434 25.8806C32.2684 26.0629 32.537 26.1571 32.8057 26.1571C33.1181 26.1571 33.4305 26.0377 33.6679 25.7989L38.2476 21.1914C38.7224 20.7137 38.7224 19.9405 38.2476 19.4628C37.7728 18.9851 37.0043 18.9851 36.5294 19.4628L31.9497 24.0703C31.4999 24.5228 31.4811 25.252 31.8935 25.7297C31.9247 25.7549 31.9622 25.78 31.9872 25.8051C32.0122 25.824 32.0247 25.8491 32.0434 25.8743" fill="#2069E7"/>
<path d="M30.3164 35.0265C30.3851 34.9825 30.4539 34.9259 30.5163 34.8631L32.6594 32.707L30.4851 34.8819C30.4351 34.9385 30.3726 34.9825 30.3164 35.0202" fill="#CBC545"/>
<path d="M41.1773 22.4174C40.7024 21.9397 39.934 21.9397 39.4591 22.4174L34.0234 27.9174L35.6979 29.6586L41.171 24.146C41.6459 23.6682 41.6459 22.8951 41.171 22.4174" fill="#2069E7"/>
<path d="M32.0408 25.8808C32.0096 25.8557 31.9721 25.8305 31.9471 25.7991C31.9283 25.7802 31.9096 25.7551 31.8908 25.73C31.416 25.3402 30.7162 25.3591 30.2664 25.8054L22.6627 33.4049C22.4315 33.6312 22.3066 33.9455 22.3066 34.2723V37.7421H19.8386V34.2723C19.8386 33.9455 19.7137 33.6375 19.4825 33.4049L11.8788 25.8054C11.4352 25.3591 10.7355 25.334 10.2544 25.73C10.2356 25.7551 10.2169 25.7802 10.1981 25.7991C10.1669 25.8305 10.1357 25.8494 10.1044 25.8808C9.69206 26.3585 9.7108 27.0814 10.1606 27.5403L17.4082 34.7815V59.6858C17.4082 60.3584 17.9518 60.9052 18.6203 60.9052C19.2888 60.9052 19.8324 60.3584 19.8324 59.6858V40.1936H22.3003V59.6858C22.3003 60.3584 22.8439 60.9052 23.5124 60.9052C24.1809 60.9052 24.7245 60.3584 24.7245 59.6858V34.7815L31.9721 27.5403C32.4282 27.0814 32.4407 26.3585 32.0283 25.8808" fill="#002273"/>
<path d="M32.0445 25.8804C32.0445 25.8804 32.007 25.8301 31.9883 25.8113C31.957 25.7798 31.9258 25.761 31.8945 25.7358C31.9133 25.761 31.932 25.7861 31.9508 25.805C31.982 25.8364 32.0132 25.8553 32.0445 25.8867" fill="#002273"/>
<path d="M35.7029 29.6586L35.6966 29.6523L32.6602 32.7072L35.7029 29.6586Z" fill="#002273"/>
<path d="M28.7983 34.8631C28.3235 34.3854 28.3235 33.6123 28.7983 33.1346L31.285 30.6328L28.7546 33.1534C28.2797 33.6311 28.2797 34.4043 28.7546 34.882C29.0857 35.2152 29.5668 35.3094 29.9917 35.1774C29.8854 35.2089 29.773 35.2277 29.6605 35.2277C29.3481 35.2277 29.042 35.1083 28.7983 34.8694" fill="#002273"/>
<path d="M31.292 30.6329L28.8053 33.1347C28.3305 33.6124 28.3305 34.3856 28.8053 34.8633C29.0428 35.1021 29.3552 35.2216 29.6676 35.2216C29.78 35.2216 29.8925 35.2027 29.9987 35.1713C30.1112 35.1336 30.2236 35.0959 30.3236 35.0267C30.3861 34.9827 30.4423 34.9387 30.4923 34.8884L32.6666 32.7135L35.703 29.6586L34.0286 27.9175L31.2983 30.6329H31.292Z" fill="#002273"/>
<path d="M30.3171 35.0264C30.2171 35.0955 30.1046 35.1395 29.9922 35.1709C30.1046 35.1395 30.2171 35.0892 30.3171 35.0264Z" fill="#002273"/>
<path d="M41.5273 37.8909H46.5687V32.8257H50.8206V37.8909H55.8858V42.1427H50.8206V47.1841H46.5687V42.1427H41.5273V37.8909Z" fill="#6F727B"/>
<g clip-path="url(#clip0_4034_7495)">
<path d="M88.7239 14.9741H93.423C93.9764 14.9741 94.4359 14.5251 94.4359 13.9612C94.4359 13.3973 93.9869 12.9482 93.423 12.9482H88.7239C88.1704 12.9482 87.7109 13.3973 87.7109 13.9612C87.7109 14.5251 88.16 14.9741 88.7239 14.9741Z" fill="#002273"/>
<path d="M85.7082 20.352H93.4148C93.9682 20.352 94.4277 19.903 94.4277 19.3391C94.4277 18.7752 93.9787 18.3262 93.4148 18.3262H85.7082C85.1548 18.3262 84.6953 18.7752 84.6953 19.3391C84.6953 19.903 85.1443 20.352 85.7082 20.352Z" fill="#002273"/>
<path d="M93.4113 23.7251H88.7121C88.1587 23.7251 87.6992 24.1741 87.6992 24.738C87.6992 25.3019 88.1482 25.7509 88.7121 25.7509H93.4113C93.9647 25.7509 94.4242 25.3019 94.4242 24.738C94.4242 24.1741 93.9752 23.7251 93.4113 23.7251Z" fill="#002273"/>
<path d="M109.745 49.7166C105.537 49.7166 102.112 53.1417 102.112 57.35V68.1058C102.112 73.2435 97.9347 77.4205 92.797 77.4205C87.6593 77.4205 83.4823 73.2435 83.4823 68.1058V67.2077C84.7981 66.2784 85.6126 64.7642 85.6126 63.0934V59.7518H85.6439C86.3645 59.7518 86.9388 59.167 86.9388 58.4569C86.9388 57.7468 86.354 57.1621 85.6439 57.1621H83.4823V54.0189C84.8607 53.9458 85.9572 52.7971 85.9572 51.3978V50.1029H91.6484C95.5643 50.1029 98.7492 46.918 98.7492 43.002V11.8416C98.7492 7.92567 95.5643 4.74071 91.6484 4.74071H88.2128C87.6175 2.0361 85.2053 0.0102539 82.3232 0.0102539C79.4411 0.0102539 77.0289 2.0361 76.4336 4.74071H72.9981C69.0717 4.74071 65.8867 7.92567 65.8867 11.8416V42.9916C65.8867 46.9075 69.0717 50.0925 72.9876 50.0925H78.6788V51.3874C78.6788 52.6927 79.6395 53.7787 80.8926 53.9771V57.1412H78.7414C78.0209 57.1412 77.4466 57.726 77.4466 58.4361C77.4466 59.1461 78.0313 59.7309 78.7414 59.7309H78.7728V63.0725C78.7728 64.7329 79.5873 66.2575 80.903 67.1869V68.0849C80.903 74.6533 86.2496 79.9998 92.8179 79.9998C99.3862 79.9998 104.722 74.6533 104.722 68.0849V57.3291C104.722 54.5514 106.978 52.2854 109.766 52.2854C112.554 52.2854 114.799 54.541 114.799 57.3291C114.799 58.0392 115.384 58.624 116.094 58.624C116.804 58.624 117.389 58.0392 117.389 57.3291C117.389 53.1208 113.964 49.6957 109.756 49.6957M68.4765 43.002V11.8416C68.4765 9.35629 70.5023 7.33045 72.9876 7.33045H77.5823C78.3028 7.33045 78.8772 6.74567 78.8772 6.03558C78.8772 4.14548 80.4227 2.59999 82.3128 2.59999C84.2029 2.59999 85.7483 4.14548 85.7483 6.03558C85.7483 6.75611 86.3331 7.33045 87.0432 7.33045H91.6379C94.1232 7.33045 96.1491 9.35629 96.1491 11.8416V42.9916C96.1491 45.4769 94.1232 47.5028 91.6379 47.5028H72.9876C70.5023 47.5028 68.4765 45.4769 68.4765 42.9916" fill="#002273"/>
<path d="M82.3137 7.44521C83.1595 7.44521 83.8383 6.76644 83.8383 5.9206C83.8383 5.07476 83.1595 4.396 82.3137 4.396C81.4678 4.396 80.7891 5.07476 80.7891 5.9206C80.7891 6.76644 81.4678 7.44521 82.3137 7.44521Z" fill="#002273"/>
<path d="M94.4271 43.002V28.6122C92.8816 29.6565 91.2839 30.1681 89.5818 30.1681C89.258 30.1681 88.9239 30.1473 88.5897 30.1159C86.5012 29.8862 84.5067 28.9464 82.5749 28.0483C78.7111 26.2418 75.0563 24.5396 70.5242 27.9543C70.4302 28.0274 70.3154 28.0796 70.2109 28.111V43.0124C70.2109 44.5475 71.4536 45.7901 72.9886 45.7901H91.6389C93.174 45.7901 94.4166 44.5475 94.4166 43.0124" fill="#CBC545"/>
</g>
<defs>
<clipPath id="clip0_4034_7495">
<rect width="61.5024" height="79.9896" fill="white" transform="translate(55.8867 0.0102539)"/>
</clipPath>
</defs>
</svg>
