<svg width="82" height="84" viewBox="0 0 82 84" fill="none" xmlns="http://www.w3.org/2000/svg">
<path d="M19.3736 13.4502C20.1983 12.4947 20.1608 11.049 19.2611 10.1313L10.1017 0.916287C9.15205 -0.039153 7.61506 -0.039153 6.66538 0.916287C5.71571 1.87173 5.71571 3.41803 6.66538 4.37347L15.8248 13.5884C16.2996 14.0662 16.9244 14.305 17.5492 14.305C18.0865 14.305 18.6238 14.1164 19.0737 13.7519C19.1112 13.7016 19.1487 13.6513 19.1862 13.6136C19.2486 13.5507 19.3111 13.513 19.3736 13.4627" fill="#9F24E2"/>
<path d="M17.8203 27.4048L22.1064 31.7168C22.2313 31.8426 22.3688 31.9557 22.5062 32.0437C22.3813 31.9557 22.2688 31.8677 22.1688 31.7671L17.8203 27.4174V27.4048Z" fill="#9F24E2"/>
<path d="M4.22672 6.82498C3.27704 5.86954 1.74006 5.86954 0.790384 6.82498C-0.159295 7.78042 -0.159295 9.32672 0.790384 10.2822L11.7367 21.3074L15.0856 17.8251L4.22672 6.82498Z" fill="#9F24E2"/>
<path d="M19.3702 13.4507C19.3077 13.501 19.2328 13.5513 19.1828 13.6015C19.1453 13.6518 19.1078 13.6895 19.0703 13.7398C19.1328 13.6895 19.2078 13.6393 19.2577 13.589C19.2952 13.5513 19.3327 13.501 19.3702 13.4507Z" fill="#002273"/>
<path d="M11.7344 21.3075L17.8198 27.4047L11.7344 21.2949V21.3075Z" fill="#002273"/>
<path d="M20.5625 23.2562L25.5358 28.2597C26.4855 29.2152 26.4855 30.7615 25.5358 31.7169C25.061 32.1946 24.4362 32.4335 23.8114 32.4335C23.5865 32.4335 23.3616 32.3958 23.1491 32.3329C23.9988 32.5969 24.961 32.4209 25.6233 31.742C26.573 30.7866 26.573 29.2403 25.6233 28.2849L20.5625 23.2437V23.2562Z" fill="#002273"/>
<path d="M25.5328 31.7167C26.4825 30.7612 26.4825 29.2149 25.5328 28.2595L20.5595 23.256L15.0989 17.8125L11.75 21.2948L17.8229 27.4046L22.1715 31.7544C22.2714 31.855 22.3964 31.9555 22.5089 32.031C22.7088 32.1692 22.9337 32.2572 23.1586 32.3201C23.3711 32.383 23.596 32.4207 23.8209 32.4207C24.4457 32.4207 25.058 32.1818 25.5453 31.7041" fill="#002273"/>
<path d="M23.1576 32.3331C22.9327 32.2577 22.7077 32.1822 22.5078 32.0439C22.7077 32.1697 22.9327 32.2702 23.1576 32.3331Z" fill="#002273"/>
<path d="M62.9462 13.7519C63.3961 14.1164 63.9334 14.305 64.4707 14.305C65.0955 14.305 65.7203 14.0662 66.1951 13.5884L75.3545 4.37347C76.3042 3.41803 76.3042 1.87173 75.3545 0.916287C74.4049 -0.039153 72.8679 -0.039153 71.9182 0.916287L62.7588 10.1313C61.8591 11.0364 61.8216 12.4947 62.6463 13.4502C62.7088 13.5004 62.7838 13.5507 62.8338 13.601C62.8838 13.6387 62.9087 13.689 62.9462 13.7393" fill="#9F24E2"/>
<path d="M59.4922 32.0437C59.6296 31.9557 59.7671 31.8426 59.8921 31.7168L64.1781 27.4048L59.8296 31.7546C59.7296 31.8677 59.6046 31.9557 59.4922 32.0311" fill="#9F24E2"/>
<path d="M81.2139 6.82498C80.2642 5.86954 78.7273 5.86954 77.7776 6.82498L66.9062 17.8251L70.2551 21.3074L81.2014 10.2822C82.1511 9.32672 82.1511 7.78042 81.2014 6.82498" fill="#9F24E2"/>
<path d="M62.9409 13.7519C62.8784 13.7016 62.8034 13.6513 62.7535 13.5884C62.716 13.5507 62.6785 13.5004 62.641 13.4501C61.6913 12.6707 60.2918 12.7084 59.3921 13.601L44.1847 28.8C43.7224 29.2526 43.4725 29.8812 43.4725 30.5349V37.4744H38.5366V30.5349C38.5366 29.8812 38.2867 29.2652 37.8244 28.8L22.617 13.601C21.7298 12.7084 20.3303 12.6581 19.3681 13.4501C19.3306 13.5004 19.2931 13.5507 19.2556 13.5884C19.1932 13.6513 19.1307 13.689 19.0682 13.7519C18.2435 14.7073 18.281 16.153 19.1807 17.0708L33.6758 31.5532V81.3618C33.6758 82.707 34.7629 83.8007 36.1 83.8007C37.437 83.8007 38.5241 82.707 38.5241 81.3618V42.3774H43.46V81.3618C43.46 82.707 44.5471 83.8007 45.8842 83.8007C47.2212 83.8007 48.3083 82.707 48.3083 81.3618V31.5532L62.8034 17.0708C63.7156 16.153 63.7406 14.7073 62.9159 13.7519" fill="#002273"/>
<path d="M62.9483 13.752C62.9483 13.752 62.8734 13.6515 62.8359 13.6137C62.7734 13.5509 62.7109 13.5132 62.6484 13.4629C62.6859 13.5132 62.7234 13.5635 62.7609 13.6012C62.8234 13.664 62.8859 13.7018 62.9483 13.7646" fill="#002273"/>
<path d="M70.2651 21.3075L70.2526 21.2949L64.1797 27.4047L70.2651 21.3075Z" fill="#002273"/>
<path d="M56.456 31.717C55.5063 30.7616 55.5063 29.2153 56.456 28.2598L61.4293 23.2563L56.3685 28.2976C55.4188 29.253 55.4188 30.7993 56.3685 31.7547C57.0308 32.421 57.993 32.6096 58.8427 32.3456C58.6302 32.4085 58.4053 32.4462 58.1804 32.4462C57.5556 32.4462 56.9433 32.2073 56.456 31.7296" fill="#002273"/>
<path d="M61.4434 23.2561L56.4701 28.2596C55.5204 29.215 55.5204 30.7614 56.4701 31.7168C56.9449 32.1945 57.5697 32.4334 58.1945 32.4334C58.4194 32.4334 58.6443 32.3957 58.8568 32.3328C59.0817 32.2574 59.3066 32.1819 59.5065 32.0437C59.6315 31.9557 59.744 31.8677 59.8439 31.7671L64.1925 27.4173L70.2654 21.3075L66.9165 17.8252L61.4559 23.2561H61.4434Z" fill="#002273"/>
<path d="M59.4935 32.0439C59.2936 32.1822 59.0687 32.2702 58.8438 32.3331C59.0687 32.2702 59.2936 32.1697 59.4935 32.0439Z" fill="#002273"/>
</svg>
