<svg width="106" height="97" viewBox="0 0 106 97" fill="none" xmlns="http://www.w3.org/2000/svg">
<path d="M15.9241 10.9076C16.3218 10.4469 16.3037 9.74979 15.8699 9.30729L11.4535 4.86407C10.9956 4.40338 10.2545 4.40338 9.79656 4.86407C9.33865 5.32476 9.33865 6.07035 9.79656 6.53104L14.213 10.9743C14.442 11.2046 14.7432 11.3198 15.0445 11.3198C15.3035 11.3198 15.5626 11.2288 15.7795 11.0531C15.7976 11.0288 15.8157 11.0046 15.8338 10.9864C15.8639 10.9561 15.894 10.9379 15.9241 10.9136" fill="#D50056"/>
<path d="M15.1797 17.6357L17.2463 19.7149C17.3066 19.7755 17.3728 19.8301 17.4391 19.8725C17.3789 19.8301 17.3246 19.7876 17.2764 19.7391L15.1797 17.6418V17.6357Z" fill="#CBC545"/>
<path d="M8.62535 7.7127C8.16744 7.25202 7.42635 7.25202 6.96843 7.7127C6.51052 8.17339 6.51052 8.91898 6.96843 9.37967L12.2465 14.6958L13.8612 13.0167L8.62535 7.7127Z" fill="#D50056"/>
<path d="M15.9259 10.9082C15.8957 10.9324 15.8596 10.9567 15.8355 10.9809C15.8174 11.0052 15.7993 11.0234 15.7812 11.0476C15.8114 11.0234 15.8475 10.9991 15.8716 10.9749C15.8897 10.9567 15.9078 10.9324 15.9259 10.9082Z" fill="#002273"/>
<path d="M12.25 14.6965L15.1842 17.6364L12.25 14.6904V14.6965Z" fill="#002273"/>
<path d="M16.5 15.6359L18.898 18.0485C19.3559 18.5092 19.3559 19.2548 18.898 19.7155C18.6691 19.9458 18.3678 20.061 18.0665 20.061C17.9581 20.061 17.8496 20.0428 17.7472 20.0125C18.1569 20.1398 18.6209 20.0549 18.9402 19.7276C19.3981 19.2669 19.3981 18.5213 18.9402 18.0606L16.5 15.6299V15.6359Z" fill="#002273"/>
<path d="M18.8957 19.715C19.3537 19.2543 19.3537 18.5087 18.8957 18.048L16.4977 15.6355L13.8647 13.0107L12.25 14.6898L15.1782 17.6358L17.275 19.7332C17.3232 19.7817 17.3834 19.8301 17.4377 19.8665C17.5341 19.9332 17.6425 19.9756 17.751 20.0059C17.8534 20.0362 17.9618 20.0544 18.0703 20.0544C18.3716 20.0544 18.6668 19.9393 18.9018 19.7089" fill="#002273"/>
<path d="M17.7508 20.0125C17.6424 19.9761 17.5339 19.9397 17.4375 19.873C17.5339 19.9337 17.6424 19.9822 17.7508 20.0125Z" fill="#002273"/>
<path d="M36.9377 11.0531C37.1546 11.2288 37.4137 11.3198 37.6728 11.3198C37.974 11.3198 38.2753 11.2046 38.5042 10.9743L42.9207 6.53104C43.3786 6.07035 43.3786 5.32476 42.9207 4.86407C42.4628 4.40338 41.7217 4.40338 41.2638 4.86407L36.8473 9.30729C36.4135 9.74373 36.3954 10.4469 36.7931 10.9076C36.8232 10.9318 36.8594 10.9561 36.8835 10.9803C36.9076 10.9985 36.9196 11.0227 36.9377 11.047" fill="#7F0064"/>
<path d="M35.2734 19.8725C35.3397 19.8301 35.406 19.7755 35.4662 19.7149L37.5329 17.6357L35.4361 19.7331C35.3879 19.7876 35.3277 19.8301 35.2734 19.8664" fill="#CBC545"/>
<path d="M45.7504 7.7127C45.2925 7.25202 44.5514 7.25202 44.0934 7.7127L38.8516 13.0167L40.4663 14.6958L45.7443 9.37967C46.2022 8.91898 46.2022 8.17339 45.7443 7.7127" fill="#7F0064"/>
<path d="M36.9396 11.0535C36.9095 11.0292 36.8733 11.005 36.8492 10.9747C36.8311 10.9565 36.8131 10.9322 36.795 10.908C36.3371 10.5322 35.6623 10.5503 35.2284 10.9807L27.8958 18.3093C27.6729 18.5275 27.5524 18.8306 27.5524 19.1458V22.4919H25.1725V19.1458C25.1725 18.8306 25.052 18.5336 24.829 18.3093L17.4964 10.9807C17.0686 10.5503 16.3938 10.5261 15.9299 10.908C15.9118 10.9322 15.8937 10.9565 15.8757 10.9747C15.8455 11.005 15.8154 11.0232 15.7853 11.0535C15.3876 11.5142 15.4057 12.2113 15.8395 12.6538L22.8287 19.6368V43.6532C22.8287 44.3018 23.3529 44.8292 23.9976 44.8292C24.6423 44.8292 25.1664 44.3018 25.1664 43.6532V24.8559H27.5464V43.6532C27.5464 44.3018 28.0706 44.8292 28.7153 44.8292C29.3599 44.8292 29.8841 44.3018 29.8841 43.6532V19.6368L36.8733 12.6538C37.3132 12.2113 37.3252 11.5142 36.9275 11.0535" fill="#002273"/>
<path d="M36.9415 11.0535C36.9415 11.0535 36.9053 11.005 36.8873 10.9868C36.8571 10.9565 36.827 10.9383 36.7969 10.9141C36.815 10.9383 36.833 10.9626 36.8511 10.9807C36.8812 11.011 36.9114 11.0292 36.9415 11.0595" fill="#002273"/>
<path d="M40.4655 14.6965L40.4595 14.6904L37.5312 17.6364L40.4655 14.6965Z" fill="#002273"/>
<path d="M33.8075 19.7153C33.3496 19.2546 33.3496 18.509 33.8075 18.0483L36.2055 15.6357L33.7653 18.0665C33.3074 18.5272 33.3074 19.2728 33.7653 19.7334C34.0846 20.0547 34.5486 20.1456 34.9583 20.0183C34.8559 20.0487 34.7474 20.0668 34.639 20.0668C34.3377 20.0668 34.0425 19.9517 33.8075 19.7213" fill="#002273"/>
<path d="M36.218 15.6362L33.82 18.0488C33.3621 18.5095 33.3621 19.2551 33.82 19.7157C34.049 19.9461 34.3502 20.0613 34.6515 20.0613C34.7599 20.0613 34.8684 20.0431 34.9708 20.0128C35.0793 19.9764 35.1877 19.94 35.2841 19.8734C35.3444 19.8309 35.3986 19.7885 35.4468 19.74L37.5435 17.6426L40.4718 14.6967L38.857 13.0176L36.224 15.6362H36.218Z" fill="#002273"/>
<path d="M35.2742 19.873C35.1778 19.9397 35.0694 19.9822 34.9609 20.0125C35.0694 19.9822 35.1778 19.9337 35.2742 19.873Z" fill="#002273"/>
<path d="M46.0859 22.6356H50.9476V17.751H55.0479V22.6356H59.9325V26.7359H55.0479V31.5975H50.9476V26.7359H46.0859V22.6356Z" fill="#6F727B"/>
<path d="M69.2288 10.9076C69.6265 10.4469 69.6084 9.74979 69.1746 9.30729L64.7582 4.86407C64.3003 4.40338 63.5592 4.40338 63.1012 4.86407C62.6433 5.32476 62.6433 6.07035 63.1012 6.53104L67.5177 10.9743C67.7466 11.2046 68.0479 11.3198 68.3492 11.3198C68.6082 11.3198 68.8673 11.2288 69.0842 11.0531C69.1023 11.0288 69.1204 11.0046 69.1384 10.9864C69.1686 10.9561 69.1987 10.9379 69.2288 10.9136" fill="#9F24E2"/>
<path d="M68.4844 17.6357L70.551 19.7149C70.6113 19.7755 70.6775 19.8301 70.7438 19.8725C70.6836 19.8301 70.6293 19.7876 70.5811 19.7391L68.4844 17.6418V17.6357Z" fill="#CBC545"/>
<path d="M61.93 7.7127C61.4721 7.25202 60.731 7.25202 60.2731 7.7127C59.8152 8.17339 59.8152 8.91898 60.2731 9.37967L65.5512 14.6958L67.1659 13.0167L61.93 7.7127Z" fill="#9F24E2"/>
<path d="M69.2305 10.9082C69.2004 10.9324 69.1643 10.9567 69.1402 10.9809C69.1221 11.0052 69.104 11.0234 69.0859 11.0476C69.1161 11.0234 69.1522 10.9991 69.1763 10.9749C69.1944 10.9567 69.2125 10.9324 69.2305 10.9082Z" fill="#002273"/>
<path d="M65.5547 14.6965L68.4889 17.6364L65.5547 14.6904V14.6965Z" fill="#002273"/>
<path d="M69.8047 15.6359L72.2027 18.0485C72.6606 18.5092 72.6606 19.2548 72.2027 19.7155C71.9737 19.9458 71.6725 20.061 71.3712 20.061C71.2628 20.061 71.1543 20.0428 71.0519 20.0125C71.4616 20.1398 71.9255 20.0549 72.2449 19.7276C72.7028 19.2669 72.7028 18.5213 72.2449 18.0606L69.8047 15.6299V15.6359Z" fill="#002273"/>
<path d="M72.2004 19.715C72.6583 19.2543 72.6583 18.5087 72.2004 18.048L69.8024 15.6355L67.1694 13.0107L65.5547 14.6898L68.4829 17.6358L70.5797 19.7332C70.6279 19.7817 70.6881 19.8301 70.7423 19.8665C70.8387 19.9332 70.9472 19.9756 71.0557 20.0059C71.1581 20.0362 71.2665 20.0544 71.375 20.0544C71.6762 20.0544 71.9715 19.9393 72.2065 19.7089" fill="#002273"/>
<path d="M71.0555 20.0125C70.947 19.9761 70.8386 19.9397 70.7422 19.873C70.8386 19.9337 70.947 19.9822 71.0555 20.0125Z" fill="#002273"/>
<path d="M90.2424 11.0531C90.4593 11.2288 90.7184 11.3198 90.9774 11.3198C91.2787 11.3198 91.58 11.2046 91.8089 10.9743L96.2254 6.53104C96.6833 6.07035 96.6833 5.32476 96.2254 4.86407C95.7674 4.40338 95.0264 4.40338 94.5684 4.86407L90.152 9.30729C89.7182 9.74373 89.7001 10.4469 90.0978 10.9076C90.1279 10.9318 90.1641 10.9561 90.1882 10.9803C90.2123 10.9985 90.2243 11.0227 90.2424 11.047" fill="#9F24E2"/>
<path d="M88.5781 19.8725C88.6444 19.8301 88.7107 19.7755 88.7709 19.7149L90.8376 17.6357L88.7408 19.7331C88.6926 19.7876 88.6324 19.8301 88.5781 19.8664" fill="#CBC545"/>
<path d="M99.0551 7.7127C98.5971 7.25202 97.856 7.25202 97.3981 7.7127L92.1562 13.0167L93.771 14.6958L99.049 9.37967C99.5069 8.91898 99.5069 8.17339 99.049 7.7127" fill="#9F24E2"/>
<path d="M90.2443 11.0535C90.2142 11.0292 90.178 11.005 90.1539 10.9747C90.1358 10.9565 90.1177 10.9322 90.0997 10.908C89.6418 10.5322 88.9669 10.5503 88.5331 10.9807L81.2005 18.3093C80.9776 18.5275 80.8571 18.8306 80.8571 19.1458V22.4919H78.4772V19.1458C78.4772 18.8306 78.3567 18.5336 78.1337 18.3093L70.8011 10.9807C70.3733 10.5503 69.6985 10.5261 69.2346 10.908C69.2165 10.9322 69.1984 10.9565 69.1803 10.9747C69.1502 11.005 69.1201 11.0232 69.09 11.0535C68.6923 11.5142 68.7104 12.2113 69.1442 12.6538L76.1334 19.6368V43.6532C76.1334 44.3018 76.6576 44.8292 77.3022 44.8292C77.9469 44.8292 78.4711 44.3018 78.4711 43.6532V24.8559H80.8511V43.6532C80.8511 44.3018 81.3753 44.8292 82.0199 44.8292C82.6646 44.8292 83.1888 44.3018 83.1888 43.6532V19.6368L90.178 12.6538C90.6178 12.2113 90.6299 11.5142 90.2322 11.0535" fill="#002273"/>
<path d="M90.2462 11.0535C90.2462 11.0535 90.21 11.005 90.1919 10.9868C90.1618 10.9565 90.1317 10.9383 90.1016 10.9141C90.1196 10.9383 90.1377 10.9626 90.1558 10.9807C90.1859 11.011 90.216 11.0292 90.2462 11.0595" fill="#002273"/>
<path d="M93.7702 14.6965L93.7642 14.6904L90.8359 17.6364L93.7702 14.6965Z" fill="#002273"/>
<path d="M87.1122 19.7153C86.6543 19.2546 86.6543 18.509 87.1122 18.0483L89.5102 15.6357L87.07 18.0665C86.6121 18.5272 86.6121 19.2728 87.07 19.7334C87.3893 20.0547 87.8533 20.1456 88.263 20.0183C88.1605 20.0487 88.0521 20.0668 87.9436 20.0668C87.6424 20.0668 87.3472 19.9517 87.1122 19.7213" fill="#002273"/>
<path d="M89.5227 15.6362L87.1247 18.0488C86.6668 18.5095 86.6668 19.2551 87.1247 19.7157C87.3536 19.9461 87.6549 20.0613 87.9562 20.0613C88.0646 20.0613 88.1731 20.0431 88.2755 20.0128C88.3839 19.9764 88.4924 19.94 88.5888 19.8734C88.649 19.8309 88.7033 19.7885 88.7515 19.74L90.8482 17.6426L93.7765 14.6967L92.1617 13.0176L89.5287 15.6362H89.5227Z" fill="#002273"/>
<path d="M88.5789 19.873C88.4825 19.9397 88.3741 19.9822 88.2656 20.0125C88.3741 19.9822 88.4825 19.9337 88.5789 19.873Z" fill="#002273"/>
<path d="M15.9241 59.1254C16.3218 58.6647 16.3037 57.9676 15.8699 57.5251L11.4535 53.0818C10.9956 52.6212 10.2545 52.6212 9.79656 53.0818C9.33865 53.5425 9.33865 54.2881 9.79656 54.7488L14.213 59.192C14.442 59.4224 14.7432 59.5375 15.0445 59.5375C15.3035 59.5375 15.5626 59.4466 15.7795 59.2708C15.7976 59.2466 15.8157 59.2223 15.8338 59.2042C15.8639 59.1738 15.894 59.1557 15.9241 59.1314" fill="#D50056"/>
<path d="M15.1797 65.8535L17.2463 67.9327C17.3066 67.9933 17.3728 68.0478 17.4391 68.0903C17.3789 68.0478 17.3246 68.0054 17.2764 67.9569L15.1797 65.8596V65.8535Z" fill="#CBC545"/>
<path d="M8.62535 55.9305C8.16744 55.4698 7.42635 55.4698 6.96843 55.9305C6.51052 56.3912 6.51052 57.1368 6.96843 57.5974L12.2465 62.9135L13.8612 61.2345L8.62535 55.9305Z" fill="#D50056"/>
<path d="M15.9259 59.126C15.8957 59.1502 15.8596 59.1745 15.8355 59.1987C15.8174 59.223 15.7993 59.2411 15.7812 59.2654C15.8114 59.2411 15.8475 59.2169 15.8716 59.1927C15.8897 59.1745 15.9078 59.1502 15.9259 59.126Z" fill="#002273"/>
<path d="M12.25 62.9143L15.1842 65.8542L12.25 62.9082V62.9143Z" fill="#002273"/>
<path d="M16.5 63.8537L18.898 66.2663C19.3559 66.727 19.3559 67.4725 18.898 67.9332C18.6691 68.1636 18.3678 68.2788 18.0665 68.2788C17.9581 68.2788 17.8496 68.2606 17.7472 68.2303C18.1569 68.3576 18.6209 68.2727 18.9402 67.9454C19.3981 67.4847 19.3981 66.7391 18.9402 66.2784L16.5 63.8477V63.8537Z" fill="#002273"/>
<path d="M18.8957 67.9327C19.3537 67.4721 19.3537 66.7265 18.8957 66.2658L16.4977 63.8532L13.8647 61.2285L12.25 62.9076L15.1782 65.8536L17.275 67.9509C17.3232 67.9994 17.3834 68.0479 17.4377 68.0843C17.5341 68.151 17.6425 68.1934 17.751 68.2237C17.8534 68.254 17.9618 68.2722 18.0703 68.2722C18.3716 68.2722 18.6668 68.157 18.9018 67.9267" fill="#002273"/>
<path d="M17.7508 68.2302C17.6424 68.1939 17.5339 68.1575 17.4375 68.0908C17.5339 68.1514 17.6424 68.1999 17.7508 68.2302Z" fill="#002273"/>
<path d="M36.9377 59.2708C37.1546 59.4466 37.4137 59.5375 37.6728 59.5375C37.974 59.5375 38.2753 59.4224 38.5042 59.192L42.9207 54.7488C43.3786 54.2881 43.3786 53.5425 42.9207 53.0818C42.4628 52.6212 41.7217 52.6212 41.2638 53.0818L36.8473 57.5251C36.4135 57.9615 36.3954 58.6647 36.7931 59.1254C36.8232 59.1496 36.8594 59.1738 36.8835 59.1981C36.9076 59.2163 36.9196 59.2405 36.9377 59.2648" fill="#7F0064"/>
<path d="M35.2734 68.0903C35.3397 68.0478 35.406 67.9933 35.4662 67.9327L37.5329 65.8535L35.4361 67.9509C35.3879 68.0054 35.3277 68.0478 35.2734 68.0842" fill="#CBC545"/>
<path d="M45.7504 55.9305C45.2925 55.4698 44.5514 55.4698 44.0934 55.9305L38.8516 61.2345L40.4663 62.9135L45.7443 57.5974C46.2022 57.1368 46.2022 56.3912 45.7443 55.9305" fill="#7F0064"/>
<path d="M36.9396 59.2712C36.9095 59.247 36.8733 59.2227 36.8492 59.1924C36.8311 59.1743 36.8131 59.15 36.795 59.1258C36.3371 58.7499 35.6623 58.7681 35.2284 59.1985L27.8958 66.5271C27.6729 66.7453 27.5524 67.0484 27.5524 67.3636V70.7097H25.1725V67.3636C25.1725 67.0484 25.052 66.7514 24.829 66.5271L17.4964 59.1985C17.0686 58.7681 16.3938 58.7439 15.9299 59.1258C15.9118 59.15 15.8937 59.1743 15.8757 59.1924C15.8455 59.2227 15.8154 59.2409 15.7853 59.2712C15.3876 59.7319 15.4057 60.429 15.8395 60.8715L22.8287 67.8546V91.871C22.8287 92.5196 23.3529 93.047 23.9976 93.047C24.6423 93.047 25.1664 92.5196 25.1664 91.871V73.0737H27.5464V91.871C27.5464 92.5196 28.0706 93.047 28.7153 93.047C29.3599 93.047 29.8841 92.5196 29.8841 91.871V67.8546L36.8733 60.8715C37.3132 60.429 37.3252 59.7319 36.9275 59.2712" fill="#002273"/>
<path d="M36.9415 59.2713C36.9415 59.2713 36.9053 59.2228 36.8873 59.2046C36.8571 59.1743 36.827 59.1561 36.7969 59.1318C36.815 59.1561 36.833 59.1803 36.8511 59.1985C36.8812 59.2288 36.9114 59.247 36.9415 59.2773" fill="#002273"/>
<path d="M40.4655 62.9143L40.4595 62.9082L37.5312 65.8542L40.4655 62.9143Z" fill="#002273"/>
<path d="M33.8075 67.933C33.3496 67.4723 33.3496 66.7268 33.8075 66.2661L36.2055 63.8535L33.7653 66.2843C33.3074 66.7449 33.3074 67.4905 33.7653 67.9512C34.0846 68.2725 34.5486 68.3634 34.9583 68.2361C34.8559 68.2664 34.7474 68.2846 34.639 68.2846C34.3377 68.2846 34.0425 68.1694 33.8075 67.9391" fill="#002273"/>
<path d="M36.218 63.854L33.82 66.2666C33.3621 66.7272 33.3621 67.4728 33.82 67.9335C34.049 68.1639 34.3502 68.279 34.6515 68.279C34.7599 68.279 34.8684 68.2609 34.9708 68.2305C35.0793 68.1942 35.1877 68.1578 35.2841 68.0911C35.3444 68.0487 35.3986 68.0063 35.4468 67.9578L37.5435 65.8604L40.4718 62.9144L38.857 61.2354L36.224 63.854H36.218Z" fill="#002273"/>
<path d="M35.2742 68.0908C35.1778 68.1575 35.0694 68.1999 34.9609 68.2302C35.0694 68.1999 35.1778 68.1514 35.2742 68.0908Z" fill="#002273"/>
<path d="M46.0859 70.8533H50.9476V65.9688H55.0479V70.8533H59.9325V74.9536H55.0479V79.8153H50.9476V74.9536H46.0859V70.8533Z" fill="#6F727B"/>
<path d="M69.2288 59.1254C69.6265 58.6647 69.6084 57.9676 69.1746 57.5251L64.7582 53.0818C64.3003 52.6212 63.5592 52.6212 63.1012 53.0818C62.6433 53.5425 62.6433 54.2881 63.1012 54.7488L67.5177 59.192C67.7466 59.4224 68.0479 59.5375 68.3492 59.5375C68.6082 59.5375 68.8673 59.4466 69.0842 59.2708C69.1023 59.2466 69.1204 59.2223 69.1384 59.2042C69.1686 59.1738 69.1987 59.1557 69.2288 59.1314" fill="#D50056"/>
<path d="M68.4844 65.8535L70.551 67.9327C70.6113 67.9933 70.6775 68.0478 70.7438 68.0903C70.6836 68.0478 70.6293 68.0054 70.5811 67.9569L68.4844 65.8596V65.8535Z" fill="#CBC545"/>
<path d="M61.93 55.9305C61.4721 55.4698 60.731 55.4698 60.2731 55.9305C59.8152 56.3912 59.8152 57.1368 60.2731 57.5974L65.5512 62.9135L67.1659 61.2345L61.93 55.9305Z" fill="#D50056"/>
<path d="M69.2305 59.126C69.2004 59.1502 69.1643 59.1745 69.1402 59.1987C69.1221 59.223 69.104 59.2411 69.0859 59.2654C69.1161 59.2411 69.1522 59.2169 69.1763 59.1927C69.1944 59.1745 69.2125 59.1502 69.2305 59.126Z" fill="#002273"/>
<path d="M65.5547 62.9143L68.4889 65.8542L65.5547 62.9082V62.9143Z" fill="#002273"/>
<path d="M69.8047 63.8537L72.2027 66.2663C72.6606 66.727 72.6606 67.4725 72.2027 67.9332C71.9737 68.1636 71.6725 68.2788 71.3712 68.2788C71.2628 68.2788 71.1543 68.2606 71.0519 68.2303C71.4616 68.3576 71.9255 68.2727 72.2449 67.9454C72.7028 67.4847 72.7028 66.7391 72.2449 66.2784L69.8047 63.8477V63.8537Z" fill="#002273"/>
<path d="M72.2004 67.9327C72.6583 67.4721 72.6583 66.7265 72.2004 66.2658L69.8024 63.8532L67.1694 61.2285L65.5547 62.9076L68.4829 65.8536L70.5797 67.9509C70.6279 67.9994 70.6881 68.0479 70.7423 68.0843C70.8387 68.151 70.9472 68.1934 71.0557 68.2237C71.1581 68.254 71.2665 68.2722 71.375 68.2722C71.6762 68.2722 71.9715 68.157 72.2065 67.9267" fill="#002273"/>
<path d="M71.0555 68.2302C70.947 68.1939 70.8386 68.1575 70.7422 68.0908C70.8386 68.1514 70.947 68.1999 71.0555 68.2302Z" fill="#002273"/>
<path d="M90.2424 59.2708C90.4593 59.4466 90.7184 59.5375 90.9774 59.5375C91.2787 59.5375 91.58 59.4224 91.8089 59.192L96.2254 54.7488C96.6833 54.2881 96.6833 53.5425 96.2254 53.0818C95.7674 52.6212 95.0264 52.6212 94.5684 53.0818L90.152 57.5251C89.7182 57.9615 89.7001 58.6647 90.0978 59.1254C90.1279 59.1496 90.1641 59.1738 90.1882 59.1981C90.2123 59.2163 90.2243 59.2405 90.2424 59.2648" fill="#2069E7"/>
<path d="M88.5781 68.0903C88.6444 68.0478 88.7107 67.9933 88.7709 67.9327L90.8376 65.8535L88.7408 67.9509C88.6926 68.0054 88.6324 68.0478 88.5781 68.0842" fill="#CBC545"/>
<path d="M99.0551 55.9305C98.5971 55.4698 97.856 55.4698 97.3981 55.9305L92.1562 61.2345L93.771 62.9135L99.049 57.5974C99.5069 57.1368 99.5069 56.3912 99.049 55.9305" fill="#2069E7"/>
<path d="M90.2443 59.2712C90.2142 59.247 90.178 59.2227 90.1539 59.1924C90.1358 59.1743 90.1177 59.15 90.0997 59.1258C89.6418 58.7499 88.9669 58.7681 88.5331 59.1985L81.2005 66.5271C80.9776 66.7453 80.8571 67.0484 80.8571 67.3636V70.7097H78.4772V67.3636C78.4772 67.0484 78.3567 66.7514 78.1337 66.5271L70.8011 59.1985C70.3733 58.7681 69.6985 58.7439 69.2346 59.1258C69.2165 59.15 69.1984 59.1743 69.1803 59.1924C69.1502 59.2227 69.1201 59.2409 69.09 59.2712C68.6923 59.7319 68.7104 60.429 69.1442 60.8715L76.1334 67.8546V91.871C76.1334 92.5196 76.6576 93.047 77.3022 93.047C77.9469 93.047 78.4711 92.5196 78.4711 91.871V73.0737H80.8511V91.871C80.8511 92.5196 81.3753 93.047 82.0199 93.047C82.6646 93.047 83.1888 92.5196 83.1888 91.871V67.8546L90.178 60.8715C90.6178 60.429 90.6299 59.7319 90.2322 59.2712" fill="#002273"/>
<path d="M90.2462 59.2713C90.2462 59.2713 90.21 59.2228 90.1919 59.2046C90.1618 59.1743 90.1317 59.1561 90.1016 59.1318C90.1196 59.1561 90.1377 59.1803 90.1558 59.1985C90.1859 59.2288 90.216 59.247 90.2462 59.2773" fill="#002273"/>
<path d="M93.7702 62.9143L93.7642 62.9082L90.8359 65.8542L93.7702 62.9143Z" fill="#002273"/>
<path d="M87.1122 67.933C86.6543 67.4723 86.6543 66.7268 87.1122 66.2661L89.5102 63.8535L87.07 66.2843C86.6121 66.7449 86.6121 67.4905 87.07 67.9512C87.3893 68.2725 87.8533 68.3634 88.263 68.2361C88.1605 68.2664 88.0521 68.2846 87.9436 68.2846C87.6424 68.2846 87.3472 68.1694 87.1122 67.9391" fill="#002273"/>
<path d="M89.5227 63.854L87.1247 66.2666C86.6668 66.7272 86.6668 67.4728 87.1247 67.9335C87.3536 68.1639 87.6549 68.279 87.9562 68.279C88.0646 68.279 88.1731 68.2609 88.2755 68.2305C88.3839 68.1942 88.4924 68.1578 88.5888 68.0911C88.649 68.0487 88.7033 68.0063 88.7515 67.9578L90.8482 65.8604L93.7765 62.9144L92.1617 61.2354L89.5287 63.854H89.5227Z" fill="#002273"/>
<path d="M88.5789 68.0908C88.4825 68.1575 88.3741 68.1999 88.2656 68.2302C88.3741 68.1999 88.4825 68.1514 88.5789 68.0908Z" fill="#002273"/>
</svg>
