<svg width="98" height="50" viewBox="0 0 98 50" fill="none" xmlns="http://www.w3.org/2000/svg">
<path d="M10.554 10.7248C10.9664 10.2471 10.9476 9.52425 10.4978 9.06538L5.91805 4.4579C5.44321 3.98018 4.67472 3.98018 4.19988 4.4579C3.72504 4.93562 3.72504 5.70877 4.19988 6.18649L8.77959 10.794C9.01701 11.0328 9.32941 11.1523 9.6418 11.1523C9.91046 11.1523 10.1791 11.058 10.404 10.8757C10.4228 10.8505 10.4415 10.8254 10.4603 10.8065C10.4915 10.7751 10.5228 10.7563 10.554 10.7311" fill="#D50056"/>
<path d="M9.78125 17.7021L11.9243 19.8582C11.9868 19.921 12.0555 19.9776 12.1242 20.0216C12.0617 19.9776 12.0055 19.9336 11.9555 19.8833L9.78125 17.7084V17.7021Z" fill="#CBC545"/>
<path d="M2.98055 7.41225C2.50571 6.93453 1.73722 6.93453 1.26238 7.41225C0.78754 7.88997 0.78754 8.66312 1.26238 9.14084L6.73554 14.6535L8.40998 12.9123L2.98055 7.41225Z" fill="#D50056"/>
<path d="M10.5562 10.7251C10.525 10.7502 10.4875 10.7754 10.4625 10.8005C10.4437 10.8257 10.425 10.8445 10.4062 10.8697C10.4375 10.8445 10.475 10.8194 10.5 10.7942C10.5187 10.7754 10.5375 10.7502 10.5562 10.7251Z" fill="#002273"/>
<path d="M6.73438 14.6535L9.7771 17.7021L6.73438 14.6472V14.6535Z" fill="#002273"/>
<path d="M11.1484 15.6279L13.6351 18.1296C14.1099 18.6073 14.1099 19.3805 13.6351 19.8582C13.3977 20.0971 13.0853 20.2165 12.7729 20.2165C12.6604 20.2165 12.548 20.1976 12.4418 20.1662C12.8666 20.2982 13.3477 20.2102 13.6788 19.8708C14.1537 19.3931 14.1537 18.6199 13.6788 18.1422L11.1484 15.6216V15.6279Z" fill="#002273"/>
<path d="M13.6336 19.8581C14.1085 19.3804 14.1085 18.6072 13.6336 18.1295L11.147 15.6278L8.41663 12.906L6.74219 14.6472L9.77867 17.7021L11.9529 19.8769C12.0029 19.9272 12.0654 19.9775 12.1216 20.0152C12.2216 20.0844 12.3341 20.1284 12.4465 20.1598C12.5527 20.1912 12.6652 20.2101 12.7777 20.2101C13.0901 20.2101 13.3962 20.0907 13.6399 19.8518" fill="#002273"/>
<path d="M12.4499 20.1663C12.3374 20.1286 12.225 20.0909 12.125 20.0217C12.225 20.0846 12.3374 20.1349 12.4499 20.1663Z" fill="#002273"/>
<path d="M32.3364 10.8757C32.5613 11.058 32.83 11.1523 33.0986 11.1523C33.411 11.1523 33.7234 11.0328 33.9609 10.794L38.5406 6.18649C39.0154 5.70877 39.0154 4.93562 38.5406 4.4579C38.0657 3.98018 37.2972 3.98018 36.8224 4.4579L32.2427 9.06538C31.7928 9.51796 31.7741 10.2471 32.1864 10.7248C32.2177 10.75 32.2552 10.7751 32.2802 10.8003C32.3052 10.8191 32.3177 10.8443 32.3364 10.8694" fill="#7F0064"/>
<path d="M30.6172 20.0216C30.6859 19.9776 30.7546 19.921 30.8171 19.8582L32.9602 17.7021L30.7859 19.877C30.7359 19.9336 30.6734 19.9776 30.6172 20.0153" fill="#CBC545"/>
<path d="M41.4742 7.41225C40.9993 6.93453 40.2308 6.93453 39.756 7.41225L34.3203 12.9123L35.9947 14.6535L41.4679 9.14084C41.9427 8.66312 41.9427 7.88997 41.4679 7.41225" fill="#7F0064"/>
<path d="M32.3416 10.8757C32.3103 10.8505 32.2729 10.8254 32.2479 10.794C32.2291 10.7751 32.2104 10.75 32.1916 10.7248C31.7168 10.3351 31.017 10.354 30.5672 10.8003L22.9635 18.3998C22.7323 18.6261 22.6073 18.9404 22.6073 19.2672V22.737H20.1394V19.2672C20.1394 18.9404 20.0145 18.6324 19.7833 18.3998L12.1796 10.8003C11.736 10.354 11.0362 10.3288 10.5551 10.7248C10.5364 10.75 10.5177 10.7751 10.4989 10.794C10.4677 10.8254 10.4364 10.8443 10.4052 10.8757C9.99284 11.3534 10.0116 12.0763 10.4614 12.5351L17.709 19.7764V44.6807C17.709 45.3532 18.2526 45.9001 18.9211 45.9001C19.5896 45.9001 20.1332 45.3532 20.1332 44.6807V25.1884H22.6011V44.6807C22.6011 45.3532 23.1447 45.9001 23.8132 45.9001C24.4817 45.9001 25.0253 45.3532 25.0253 44.6807V19.7764L32.2729 12.5351C32.729 12.0763 32.7414 11.3534 32.3291 10.8757" fill="#002273"/>
<path d="M32.3375 10.8758C32.3375 10.8758 32.3 10.8255 32.2812 10.8066C32.25 10.7752 32.2187 10.7563 32.1875 10.7312C32.2062 10.7563 32.225 10.7815 32.2437 10.8003C32.275 10.8318 32.3062 10.8506 32.3375 10.8821" fill="#002273"/>
<path d="M36.0037 14.6535L35.9974 14.6472L32.9609 17.7021L36.0037 14.6535Z" fill="#002273"/>
<path d="M29.0952 19.8583C28.6203 19.3805 28.6203 18.6074 29.0952 18.1297L31.5818 15.6279L29.0514 18.1485C28.5766 18.6263 28.5766 19.3994 29.0514 19.8771C29.3826 20.2103 29.8637 20.3046 30.2885 20.1726C30.1823 20.204 30.0699 20.2228 29.9574 20.2228C29.645 20.2228 29.3388 20.1034 29.0952 19.8646" fill="#002273"/>
<path d="M31.5928 15.6278L29.1061 18.1296C28.6313 18.6073 28.6313 19.3804 29.1061 19.8582C29.3436 20.097 29.6559 20.2164 29.9683 20.2164C30.0808 20.2164 30.1933 20.1976 30.2995 20.1662C30.4119 20.1284 30.5244 20.0907 30.6244 20.0216C30.6868 19.9776 30.7431 19.9336 30.7931 19.8833L32.9673 17.7084L36.0038 14.6535L34.3294 12.9124L31.599 15.6278H31.5928Z" fill="#002273"/>
<path d="M30.614 20.0217C30.514 20.0909 30.4015 20.1349 30.2891 20.1663C30.4015 20.1349 30.514 20.0846 30.614 20.0217Z" fill="#002273"/>
<path d="M41.8281 22.886H46.8695V17.8208H51.1214V22.886H56.1866V27.1379H51.1214V32.1792H46.8695V27.1379H41.8281V22.886Z" fill="#6F727B"/>
<path d="M65.8274 10.7248C66.2398 10.2471 66.221 9.52425 65.7712 9.06538L61.1915 4.4579C60.7167 3.98018 59.9482 3.98018 59.4733 4.4579C58.9985 4.93562 58.9985 5.70877 59.4733 6.18649L64.053 10.794C64.2904 11.0328 64.6028 11.1523 64.9152 11.1523C65.1839 11.1523 65.4526 11.058 65.6775 10.8757C65.6962 10.8505 65.715 10.8254 65.7337 10.8065C65.765 10.7751 65.7962 10.7563 65.8274 10.7311" fill="#9F24E2"/>
<path d="M65.0547 17.7021L67.1977 19.8582C67.2602 19.921 67.3289 19.9776 67.3977 20.0216C67.3352 19.9776 67.2789 19.9336 67.229 19.8833L65.0547 17.7084V17.7021Z" fill="#9F24E2"/>
<path d="M58.254 7.41225C57.7791 6.93453 57.0107 6.93453 56.5358 7.41225C56.061 7.88997 56.061 8.66312 56.5358 9.14084L62.009 14.6535L63.6834 12.9123L58.254 7.41225Z" fill="#9F24E2"/>
<path d="M65.8296 10.7251C65.7984 10.7502 65.7609 10.7754 65.7359 10.8005C65.7172 10.8257 65.6984 10.8445 65.6797 10.8697C65.7109 10.8445 65.7484 10.8194 65.7734 10.7942C65.7922 10.7754 65.8109 10.7502 65.8296 10.7251Z" fill="#002273"/>
<path d="M62.0078 14.6535L65.0505 17.7021L62.0078 14.6472V14.6535Z" fill="#002273"/>
<path d="M66.4219 15.6279L68.9085 18.1296C69.3834 18.6073 69.3834 19.3805 68.9085 19.8582C68.6711 20.0971 68.3587 20.2165 68.0463 20.2165C67.9339 20.2165 67.8214 20.1976 67.7152 20.1662C68.14 20.2982 68.6211 20.2102 68.9523 19.8708C69.4271 19.3931 69.4271 18.6199 68.9523 18.1422L66.4219 15.6216V15.6279Z" fill="#002273"/>
<path d="M68.9071 19.8581C69.3819 19.3804 69.3819 18.6072 68.9071 18.1295L66.4204 15.6278L63.6901 12.906L62.0156 14.6472L65.0521 17.7021L67.2264 19.8769C67.2764 19.9272 67.3388 19.9775 67.3951 20.0152C67.495 20.0844 67.6075 20.1284 67.72 20.1598C67.8262 20.1912 67.9386 20.2101 68.0511 20.2101C68.3635 20.2101 68.6696 20.0907 68.9133 19.8518" fill="#002273"/>
<path d="M67.7233 20.1663C67.6109 20.1286 67.4984 20.0909 67.3984 20.0217C67.4984 20.0846 67.6109 20.1349 67.7233 20.1663Z" fill="#002273"/>
<path d="M87.6098 10.8757C87.8348 11.058 88.1034 11.1523 88.3721 11.1523C88.6845 11.1523 88.9969 11.0328 89.2343 10.794L93.814 6.18649C94.2888 5.70877 94.2888 4.93562 93.814 4.4579C93.3392 3.98018 92.5707 3.98018 92.0958 4.4579L87.5161 9.06538C87.0663 9.51796 87.0475 10.2471 87.4599 10.7248C87.4911 10.75 87.5286 10.7751 87.5536 10.8003C87.5786 10.8191 87.5911 10.8443 87.6098 10.8694" fill="#9F24E2"/>
<path d="M85.8906 20.0216C85.9594 19.9776 86.0281 19.921 86.0906 19.8582L88.2336 17.7021L86.0593 19.877C86.0093 19.9336 85.9469 19.9776 85.8906 20.0153" fill="#9F24E2"/>
<path d="M96.7476 7.41225C96.2728 6.93453 95.5043 6.93453 95.0294 7.41225L89.5938 12.9123L91.2682 14.6535L96.7413 9.14084C97.2162 8.66312 97.2162 7.88997 96.7413 7.41225" fill="#9F24E2"/>
<path d="M87.615 10.8757C87.5838 10.8505 87.5463 10.8254 87.5213 10.794C87.5026 10.7751 87.4838 10.75 87.4651 10.7248C86.9902 10.3351 86.2905 10.354 85.8406 10.8003L78.2369 18.3998C78.0057 18.6261 77.8808 18.9404 77.8808 19.2672V22.737H75.4129V19.2672C75.4129 18.9404 75.2879 18.6324 75.0567 18.3998L67.453 10.8003C67.0094 10.354 66.3097 10.3288 65.8286 10.7248C65.8098 10.75 65.7911 10.7751 65.7724 10.794C65.7411 10.8254 65.7099 10.8443 65.6786 10.8757C65.2663 11.3534 65.285 12.0763 65.7349 12.5351L72.9824 19.7764V44.6807C72.9824 45.3532 73.526 45.9001 74.1945 45.9001C74.8631 45.9001 75.4066 45.3532 75.4066 44.6807V25.1884H77.8745V44.6807C77.8745 45.3532 78.4181 45.9001 79.0866 45.9001C79.7552 45.9001 80.2987 45.3532 80.2987 44.6807V19.7764L87.5463 12.5351C88.0024 12.0763 88.0149 11.3534 87.6025 10.8757" fill="#002273"/>
<path d="M87.6109 10.8758C87.6109 10.8758 87.5734 10.8255 87.5547 10.8066C87.5234 10.7752 87.4922 10.7563 87.4609 10.7312C87.4797 10.7563 87.4984 10.7815 87.5172 10.8003C87.5484 10.8318 87.5796 10.8506 87.6109 10.8821" fill="#002273"/>
<path d="M91.2771 14.6535L91.2709 14.6472L88.2344 17.7021L91.2771 14.6535Z" fill="#002273"/>
<path d="M84.3686 19.8583C83.8938 19.3805 83.8938 18.6074 84.3686 18.1297L86.8553 15.6279L84.3249 18.1485C83.85 18.6263 83.85 19.3994 84.3249 19.8771C84.656 20.2103 85.1371 20.3046 85.562 20.1726C85.4557 20.204 85.3433 20.2228 85.2308 20.2228C84.9184 20.2228 84.6123 20.1034 84.3686 19.8646" fill="#002273"/>
<path d="M86.8662 15.6278L84.3796 18.1296C83.9047 18.6073 83.9047 19.3804 84.3796 19.8582C84.617 20.097 84.9294 20.2164 85.2418 20.2164C85.3542 20.2164 85.4667 20.1976 85.5729 20.1662C85.6854 20.1284 85.7978 20.0907 85.8978 20.0216C85.9603 19.9776 86.0165 19.9336 86.0665 19.8833L88.2408 17.7084L91.2772 14.6535L89.6028 12.9124L86.8725 15.6278H86.8662Z" fill="#002273"/>
<path d="M85.8874 20.0217C85.7874 20.0909 85.675 20.1349 85.5625 20.1663C85.675 20.1349 85.7874 20.0846 85.8874 20.0217Z" fill="#002273"/>
</svg>
