<svg width="120" height="40" viewBox="0 0 120 40" fill="none" xmlns="http://www.w3.org/2000/svg">
<path d="M8.12015 8.57996C8.45004 8.19779 8.43504 7.61949 8.07516 7.2524L4.4114 3.56642C4.03152 3.18424 3.41673 3.18424 3.03686 3.56642C2.65699 3.94859 2.65699 4.56711 3.03686 4.94929L6.70063 8.63528C6.89056 8.82637 7.14048 8.92191 7.39039 8.92191C7.60532 8.92191 7.82025 8.84648 8.00019 8.70065C8.01518 8.68054 8.03018 8.66042 8.04517 8.64534C8.07017 8.62019 8.09516 8.60511 8.12015 8.58499" fill="#E2C0DF"/>
<path d="M7.50098 14.1619L9.2154 15.8867C9.26538 15.937 9.32037 15.9822 9.37535 16.0174C9.32536 15.9822 9.28038 15.947 9.24039 15.9068L7.50098 14.1669V14.1619Z" fill="#E2C0DF"/>
<path d="M2.06276 5.92994C1.68289 5.54777 1.0681 5.54777 0.688225 5.92994C0.308352 6.31212 0.308352 6.93064 0.688225 7.31282L5.06675 11.7229L6.4063 10.33L2.06276 5.92994Z" fill="#E2C0DF"/>
<path d="M8.12094 8.58008C8.09594 8.60019 8.06595 8.62031 8.04596 8.64042C8.03097 8.66054 8.01597 8.67562 8.00098 8.69574C8.02597 8.67562 8.05596 8.65551 8.07595 8.63539C8.09095 8.62031 8.10594 8.60019 8.12094 8.58008Z" fill="#E2C0DF"/>
<path d="M5.06641 11.7229L7.50059 14.1618L5.06641 11.7179V11.7229Z" fill="#E2C0DF"/>
<path d="M8.5957 12.5023L10.585 14.5037C10.9649 14.8859 10.9649 15.5044 10.585 15.8866C10.3951 16.0777 10.1452 16.1732 9.89527 16.1732C9.8053 16.1732 9.71533 16.1582 9.63036 16.133C9.97024 16.2386 10.3551 16.1682 10.62 15.8967C10.9999 15.5145 10.9999 14.896 10.62 14.5138L8.5957 12.4973V12.5023Z" fill="#E2C0DF"/>
<path d="M10.5854 15.8866C10.9653 15.5044 10.9653 14.8859 10.5854 14.5037L8.59608 12.5023L6.41182 10.325L5.07227 11.7179L7.50145 14.1618L9.24086 15.9017C9.28085 15.9419 9.33083 15.9822 9.37582 16.0123C9.45579 16.0676 9.54576 16.1028 9.63573 16.128C9.7207 16.1531 9.81067 16.1682 9.90064 16.1682C10.1506 16.1682 10.3955 16.0727 10.5904 15.8816" fill="#E2C0DF"/>
<path d="M9.63491 16.1331C9.54494 16.1029 9.45497 16.0728 9.375 16.0175C9.45497 16.0677 9.54494 16.108 9.63491 16.1331Z" fill="#E2C0DF"/>
<path d="M25.55 8.70065C25.7299 8.84648 25.9448 8.92191 26.1598 8.92191C26.4097 8.92191 26.6596 8.82637 26.8495 8.63528L30.5133 4.94929C30.8932 4.56711 30.8932 3.94859 30.5133 3.56642C30.1334 3.18424 29.5186 3.18424 29.1388 3.56642L25.475 7.2524C25.1151 7.61447 25.1001 8.19779 25.43 8.57996C25.455 8.60008 25.485 8.62019 25.505 8.64031C25.525 8.65539 25.535 8.67551 25.55 8.69562" fill="#E2C0DF"/>
<path d="M24.1699 16.0174C24.2249 15.9822 24.2799 15.937 24.3299 15.8867L26.0443 14.1619L24.3049 15.9018C24.2649 15.947 24.2149 15.9822 24.1699 16.0124" fill="#E2C0DF"/>
<path d="M32.8578 5.92994C32.478 5.54777 31.8632 5.54777 31.4833 5.92994L27.1348 10.33L28.4743 11.7229L32.8528 7.31282C33.2327 6.93064 33.2327 6.31212 32.8528 5.92994" fill="#E2C0DF"/>
<path d="M25.5494 8.70067C25.5244 8.68056 25.4945 8.66044 25.4745 8.6353C25.4595 8.62021 25.4445 8.6001 25.4295 8.57999C25.0496 8.26821 24.4898 8.2833 24.1299 8.64033L18.047 14.7199C17.862 14.901 17.7621 15.1524 17.7621 15.4139V18.1897H15.7877V15.4139C15.7877 15.1524 15.6877 14.906 15.5028 14.7199L9.41985 8.64033C9.06497 8.2833 8.50516 8.26318 8.12029 8.57999C8.1053 8.6001 8.0903 8.62021 8.07531 8.6353C8.05031 8.66044 8.02532 8.67553 8.00033 8.70067C7.67044 9.08285 7.68544 9.66114 8.04532 10.0282L13.8434 15.8212V35.7447C13.8434 36.2827 14.2782 36.7202 14.813 36.7202C15.3479 36.7202 15.7827 36.2827 15.7827 35.7447V20.1509H17.7571V35.7447C17.7571 36.2827 18.1919 36.7202 18.7267 36.7202C19.2615 36.7202 19.6964 36.2827 19.6964 35.7447V15.8212L25.4945 10.0282C25.8593 9.66114 25.8693 9.08285 25.5394 8.70067" fill="#E2C0DF"/>
<path d="M25.5496 8.70074C25.5496 8.70074 25.5197 8.66051 25.5047 8.64543C25.4797 8.62028 25.4547 8.6052 25.4297 8.58508C25.4447 8.6052 25.4597 8.62531 25.4747 8.6404C25.4997 8.66554 25.5247 8.68063 25.5496 8.70577" fill="#E2C0DF"/>
<path d="M28.4791 11.7229L28.4741 11.7179L26.0449 14.1618L28.4791 11.7229Z" fill="#E2C0DF"/>
<path d="M22.9556 15.8867C22.5758 15.5045 22.5758 14.886 22.9556 14.5038L24.945 12.5024L22.9206 14.5189C22.5408 14.9011 22.5408 15.5196 22.9206 15.9018C23.1856 16.1683 23.5704 16.2437 23.9103 16.1381C23.8253 16.1633 23.7354 16.1784 23.6454 16.1784C23.3955 16.1784 23.1506 16.0828 22.9556 15.8917" fill="#E2C0DF"/>
<path d="M24.95 12.5024L22.9607 14.5038C22.5808 14.886 22.5808 15.5045 22.9607 15.8867C23.1506 16.0778 23.4005 16.1733 23.6505 16.1733C23.7404 16.1733 23.8304 16.1583 23.9154 16.1331C24.0053 16.1029 24.0953 16.0728 24.1753 16.0175C24.2253 15.9823 24.2702 15.9471 24.3102 15.9068L26.0496 14.1669L28.4788 11.723L27.1393 10.3301L24.955 12.5024H24.95Z" fill="#E2C0DF"/>
<path d="M24.1701 16.0175C24.0901 16.0728 24.0001 16.108 23.9102 16.1331C24.0001 16.108 24.0901 16.0677 24.1701 16.0175Z" fill="#E2C0DF"/>
<path d="M33.1377 18.3087H37.1708V14.2566H40.5723V18.3087H44.6244V21.7102H40.5723V25.7433H37.1708V21.7102H33.1377V18.3087Z" fill="#6F727B"/>
<path d="M52.3409 8.57996C52.6707 8.19779 52.6557 7.61949 52.2959 7.2524L48.6321 3.56642C48.2522 3.18424 47.6374 3.18424 47.2576 3.56642C46.8777 3.94859 46.8777 4.56711 47.2576 4.94929L50.9213 8.63528C51.1113 8.82637 51.3612 8.92191 51.6111 8.92191C51.826 8.92191 52.041 8.84648 52.2209 8.70065C52.2359 8.68054 52.2509 8.66042 52.2659 8.64534C52.2909 8.62019 52.3159 8.60511 52.3409 8.58499" fill="#9F24E2"/>
<path d="M51.7217 14.1619L53.4361 15.8867C53.4861 15.937 53.5411 15.9822 53.5961 16.0174C53.5461 15.9822 53.5011 15.947 53.4611 15.9068L51.7217 14.1669V14.1619Z" fill="#9F24E2"/>
<path d="M46.2835 5.92994C45.9036 5.54777 45.2888 5.54777 44.9089 5.92994C44.5291 6.31212 44.5291 6.93064 44.9089 7.31282L49.2875 11.7229L50.627 10.33L46.2835 5.92994Z" fill="#9F24E2"/>
<path d="M52.3416 8.58008C52.3166 8.60019 52.2867 8.62031 52.2667 8.64042C52.2517 8.66054 52.2367 8.67562 52.2217 8.69574C52.2467 8.67562 52.2767 8.65551 52.2967 8.63539C52.3116 8.62031 52.3266 8.60019 52.3416 8.58008Z" fill="#9F24E2"/>
<path d="M49.2871 11.7229L51.7213 14.1618L49.2871 11.7179V11.7229Z" fill="#9F24E2"/>
<path d="M52.8164 12.5023L54.8057 14.5037C55.1856 14.8859 55.1856 15.5044 54.8057 15.8866C54.6158 16.0777 54.3659 16.1732 54.116 16.1732C54.026 16.1732 53.936 16.1582 53.8511 16.133C54.1909 16.2386 54.5758 16.1682 54.8407 15.8967C55.2206 15.5145 55.2206 14.896 54.8407 14.5138L52.8164 12.4973V12.5023Z" fill="#9F24E2"/>
<path d="M54.8061 15.8866C55.186 15.5044 55.186 14.8859 54.8061 14.5037L52.8168 12.5023L50.6325 10.325L49.293 11.7179L51.7222 14.1618L53.4616 15.9017C53.5016 15.9419 53.5515 15.9822 53.5965 16.0123C53.6765 16.0676 53.7665 16.1028 53.8564 16.128C53.9414 16.1531 54.0314 16.1682 54.1213 16.1682C54.3713 16.1682 54.6162 16.0727 54.8111 15.8816" fill="#9F24E2"/>
<path d="M53.8556 16.1331C53.7656 16.1029 53.6757 16.0728 53.5957 16.0175C53.6757 16.0677 53.7656 16.108 53.8556 16.1331Z" fill="#9F24E2"/>
<path d="M69.7707 8.70065C69.9506 8.84648 70.1655 8.92191 70.3805 8.92191C70.6304 8.92191 70.8803 8.82637 71.0702 8.63528L74.734 4.94929C75.1139 4.56711 75.1139 3.94859 74.734 3.56642C74.3541 3.18424 73.7393 3.18424 73.3595 3.56642L69.6957 7.2524C69.3358 7.61447 69.3208 8.19779 69.6507 8.57996C69.6757 8.60008 69.7057 8.62019 69.7257 8.64031C69.7457 8.65539 69.7557 8.67551 69.7707 8.69562" fill="#9F24E2"/>
<path d="M68.3906 16.0174C68.4456 15.9822 68.5006 15.937 68.5506 15.8867L70.265 14.1619L68.5256 15.9018C68.4856 15.947 68.4356 15.9822 68.3906 16.0124" fill="#9F24E2"/>
<path d="M77.0785 5.92994C76.6987 5.54777 76.0839 5.54777 75.704 5.92994L71.3555 10.33L72.695 11.7229L77.0735 7.31282C77.4534 6.93064 77.4534 6.31212 77.0735 5.92994" fill="#9F24E2"/>
<path d="M69.7701 8.70067C69.7451 8.68056 69.7152 8.66044 69.6952 8.6353C69.6802 8.62021 69.6652 8.6001 69.6502 8.57999C69.2703 8.26821 68.7105 8.2833 68.3506 8.64033L62.2677 14.7199C62.0827 14.901 61.9828 15.1524 61.9828 15.4139V18.1897H60.0084V15.4139C60.0084 15.1524 59.9085 14.906 59.7235 14.7199L53.6406 8.64033C53.2857 8.2833 52.7259 8.26318 52.341 8.57999C52.326 8.6001 52.311 8.62021 52.296 8.6353C52.271 8.66044 52.246 8.67553 52.221 8.70067C51.8911 9.08285 51.9061 9.66114 52.266 10.0282L58.0641 15.8212V35.7447C58.0641 36.2827 58.4989 36.7202 59.0337 36.7202C59.5686 36.7202 60.0034 36.2827 60.0034 35.7447V20.1509H61.9778V35.7447C61.9778 36.2827 62.4126 36.7202 62.9474 36.7202C63.4823 36.7202 63.9171 36.2827 63.9171 35.7447V15.8212L69.7152 10.0282C70.08 9.66114 70.09 9.08285 69.7601 8.70067" fill="#9F24E2"/>
<path d="M69.7704 8.70074C69.7704 8.70074 69.7404 8.66051 69.7254 8.64543C69.7004 8.62028 69.6754 8.6052 69.6504 8.58508C69.6654 8.6052 69.6804 8.62531 69.6954 8.6404C69.7204 8.66554 69.7454 8.68063 69.7704 8.70577" fill="#9F24E2"/>
<path d="M72.6998 11.7229L72.6948 11.7179L70.2656 14.1618L72.6998 11.7229Z" fill="#9F24E2"/>
<path d="M67.1763 15.8867C66.7965 15.5045 66.7965 14.886 67.1763 14.5038L69.1657 12.5024L67.1413 14.5189C66.7615 14.9011 66.7615 15.5196 67.1413 15.9018C67.4063 16.1683 67.7911 16.2437 68.131 16.1381C68.046 16.1633 67.9561 16.1784 67.8661 16.1784C67.6162 16.1784 67.3713 16.0828 67.1763 15.8917" fill="#9F24E2"/>
<path d="M69.1707 12.5024L67.1814 14.5038C66.8015 14.886 66.8015 15.5045 67.1814 15.8867C67.3713 16.0778 67.6212 16.1733 67.8712 16.1733C67.9611 16.1733 68.0511 16.1583 68.1361 16.1331C68.226 16.1029 68.316 16.0728 68.396 16.0175C68.446 15.9823 68.4909 15.9471 68.5309 15.9068L70.2704 14.1669L72.6995 11.723L71.36 10.3301L69.1757 12.5024H69.1707Z" fill="#9F24E2"/>
<path d="M68.3908 16.0175C68.3108 16.0728 68.2208 16.108 68.1309 16.1331C68.2208 16.108 68.3108 16.0677 68.3908 16.0175Z" fill="#9F24E2"/>
<path d="M77.3594 18.3087H81.3925V14.2566H84.794V18.3087H88.8461V21.7102H84.794V25.7433H81.3925V21.7102H77.3594V18.3087Z" fill="#6F727B"/>
<g clip-path="url(#clip0_5928_12042)">
<path d="M105.264 7.4846H107.614C107.891 7.4846 108.12 7.26009 108.12 6.97814C108.12 6.69619 107.896 6.47168 107.614 6.47168H105.264C104.988 6.47168 104.758 6.69619 104.758 6.97814C104.758 7.26009 104.982 7.4846 105.264 7.4846Z" fill="#002273"/>
<path d="M103.756 10.1736H107.61C107.886 10.1736 108.116 9.94905 108.116 9.66711C108.116 9.38516 107.892 9.16064 107.61 9.16064H103.756C103.48 9.16064 103.25 9.38516 103.25 9.66711C103.25 9.94905 103.475 10.1736 103.756 10.1736Z" fill="#002273"/>
<path d="M107.608 11.86H105.258C104.982 11.86 104.752 12.0845 104.752 12.3664C104.752 12.6484 104.976 12.8729 105.258 12.8729H107.608C107.885 12.8729 108.114 12.6484 108.114 12.3664C108.114 12.0845 107.89 11.86 107.608 11.86Z" fill="#002273"/>
<path d="M115.775 24.8557C113.671 24.8557 111.958 26.5683 111.958 28.6725V34.0503C111.958 36.6192 109.87 38.7077 107.301 38.7077C104.732 38.7077 102.644 36.6192 102.644 34.0503V33.6013C103.301 33.1366 103.709 32.3795 103.709 31.5441V29.8733H103.724C104.085 29.8733 104.372 29.5809 104.372 29.2259C104.372 28.8709 104.079 28.5785 103.724 28.5785H102.644V27.0069C103.333 26.9703 103.881 26.396 103.881 25.6963V25.0489H106.727C108.684 25.0489 110.277 23.4564 110.277 21.4985V5.91824C110.277 3.96027 108.684 2.36779 106.727 2.36779H105.009C104.711 1.01549 103.505 0.00256348 102.064 0.00256348C100.623 0.00256348 99.4168 1.01549 99.1192 2.36779H97.4014C95.4382 2.36779 93.8457 3.96027 93.8457 5.91824V21.4932C93.8457 23.4512 95.4382 25.0437 97.3962 25.0437H100.242V25.6911C100.242 26.3438 100.722 26.8868 101.349 26.986V28.568H100.273C99.9128 28.568 99.6256 28.8604 99.6256 29.2155C99.6256 29.5705 99.918 29.8629 100.273 29.8629H100.289V31.5337C100.289 32.3639 100.696 33.1262 101.354 33.5909V34.0399C101.354 37.3241 104.027 39.9973 107.311 39.9973C110.595 39.9973 113.264 37.3241 113.264 34.0399V28.662C113.264 27.2732 114.391 26.1401 115.785 26.1401C117.179 26.1401 118.302 27.2679 118.302 28.662C118.302 29.0171 118.594 29.3094 118.949 29.3094C119.305 29.3094 119.597 29.0171 119.597 28.662C119.597 26.5578 117.884 24.8453 115.78 24.8453M95.1406 21.4985V5.91824C95.1406 4.67558 96.1535 3.66266 97.3962 3.66266H99.6935C100.054 3.66266 100.341 3.37027 100.341 3.01523C100.341 2.07018 101.114 1.29743 102.059 1.29743C103.004 1.29743 103.777 2.07018 103.777 3.01523C103.777 3.37549 104.069 3.66266 104.424 3.66266H106.721C107.964 3.66266 108.977 4.67558 108.977 5.91824V21.4932C108.977 22.7359 107.964 23.7488 106.721 23.7488H97.3962C96.1535 23.7488 95.1406 22.7359 95.1406 21.4932" fill="#002273"/>
<path d="M102.059 3.72016C102.482 3.72016 102.821 3.38078 102.821 2.95786C102.821 2.53494 102.482 2.19556 102.059 2.19556C101.636 2.19556 101.297 2.53494 101.297 2.95786C101.297 3.38078 101.636 3.72016 102.059 3.72016Z" fill="#002273"/>
<path d="M108.116 21.4984V14.3035C107.343 14.8257 106.544 15.0815 105.693 15.0815C105.531 15.0815 105.364 15.0711 105.197 15.0554C104.153 14.9405 103.156 14.4706 102.19 14.0216C100.258 13.1183 98.4305 12.2673 96.1645 13.9746C96.1175 14.0112 96.06 14.0373 96.0078 14.0529V21.5036C96.0078 22.2712 96.6291 22.8925 97.3967 22.8925H106.722C107.489 22.8925 108.111 22.2712 108.111 21.5036" fill="#CBC545"/>
</g>
<defs>
<clipPath id="clip0_5928_12042">
<rect width="30.7512" height="39.9948" fill="white" transform="translate(88.8457 0.00256348)"/>
</clipPath>
</defs>
</svg>
