<svg width="120" height="40" viewBox="0 0 120 40" fill="none" xmlns="http://www.w3.org/2000/svg">
<path d="M8.12601 8.57996C8.4559 8.19779 8.4409 7.61949 8.08102 7.2524L4.41725 3.56642C4.03738 3.18424 3.42259 3.18424 3.04272 3.56642C2.66284 3.94859 2.66284 4.56711 3.04272 4.94929L6.70649 8.63528C6.89642 8.82637 7.14634 8.92191 7.39625 8.92191C7.61118 8.92191 7.82611 8.84648 8.00605 8.70065C8.02104 8.68054 8.03604 8.66042 8.05103 8.64534C8.07603 8.62019 8.10102 8.60511 8.12601 8.58499" fill="#E2C0DF"/>
<path d="M7.5 14.1621L9.21442 15.8869C9.26441 15.9372 9.31939 15.9825 9.37437 16.0177C9.32439 15.9825 9.2794 15.9473 9.23942 15.907L7.5 14.1671V14.1621Z" fill="#CBC545"/>
<path d="M2.06569 5.93019C1.68582 5.54801 1.07103 5.54801 0.691154 5.93019C0.311282 6.31236 0.311282 6.93088 0.691154 7.31306L5.06968 11.7232L6.40923 10.3302L2.06569 5.93019Z" fill="#E2C0DF"/>
<path d="M8.11996 8.58008C8.09497 8.60019 8.06498 8.62031 8.04498 8.64042C8.02999 8.66054 8.01499 8.67562 8 8.69574C8.02499 8.67562 8.05498 8.65551 8.07498 8.63539C8.08997 8.62031 8.10496 8.60019 8.11996 8.58008Z" fill="#002273"/>
<path d="M5.07031 11.7228L7.50449 14.1617L5.07031 11.7178V11.7228Z" fill="#002273"/>
<path d="M8.60156 12.5021L10.5909 14.5035C10.9708 14.8857 10.9708 15.5042 10.5909 15.8864C10.401 16.0775 10.151 16.173 9.90113 16.173C9.81116 16.173 9.72119 16.1579 9.63621 16.1328C9.9761 16.2384 10.361 16.168 10.6259 15.8964C11.0058 15.5142 11.0058 14.8957 10.6259 14.5136L8.60156 12.4971V12.5021Z" fill="#002273"/>
<path d="M10.5913 15.8869C10.9711 15.5047 10.9711 14.8862 10.5913 14.504L8.60194 12.5026L6.41768 10.3252L5.07812 11.7181L7.50731 14.162L9.24672 15.9019C9.28671 15.9422 9.33669 15.9824 9.38168 16.0126C9.46165 16.0679 9.55162 16.1031 9.64159 16.1282C9.72656 16.1534 9.81653 16.1685 9.9065 16.1685C10.1564 16.1685 10.4013 16.0729 10.5963 15.8818" fill="#002273"/>
<path d="M9.63491 16.1332C9.54494 16.1031 9.45497 16.0729 9.375 16.0176C9.45497 16.0679 9.54494 16.1081 9.63491 16.1332Z" fill="#002273"/>
<path d="M25.5519 8.70065C25.7319 8.84648 25.9468 8.92191 26.1617 8.92191C26.4116 8.92191 26.6616 8.82637 26.8515 8.63528L30.5153 4.94929C30.8951 4.56711 30.8951 3.94859 30.5153 3.56642C30.1354 3.18424 29.5206 3.18424 29.1407 3.56642L25.477 7.2524C25.1171 7.61447 25.1021 8.19779 25.432 8.57996C25.457 8.60008 25.487 8.62019 25.5069 8.64031C25.5269 8.65539 25.5369 8.67551 25.5519 8.69562" fill="#E2C0DF"/>
<path d="M24.1719 16.0177C24.2269 15.9825 24.2818 15.9372 24.3318 15.8869L26.0462 14.1621L24.3068 15.902C24.2668 15.9473 24.2169 15.9825 24.1719 16.0126" fill="#CBC545"/>
<path d="M32.8637 5.93019C32.4838 5.54801 31.869 5.54801 31.4892 5.93019L27.1406 10.3302L28.4802 11.7232L32.8587 7.31306C33.2386 6.93088 33.2386 6.31236 32.8587 5.93019" fill="#E2C0DF"/>
<path d="M25.5514 8.70055C25.5264 8.68044 25.4964 8.66032 25.4764 8.63518C25.4614 8.62009 25.4464 8.59998 25.4314 8.57986C25.0516 8.26809 24.4917 8.28317 24.1319 8.64021L18.0489 14.7198C17.864 14.9009 17.764 15.1523 17.764 15.4138V18.1896H15.7897V15.4138C15.7897 15.1523 15.6897 14.9059 15.5048 14.7198L9.42181 8.64021C9.06693 8.28317 8.50711 8.26306 8.12224 8.57986C8.10725 8.59998 8.09225 8.62009 8.07726 8.63518C8.05227 8.66032 8.02728 8.67541 8.00228 8.70055C7.6724 9.08273 7.68739 9.66102 8.04727 10.0281L13.8453 15.8211V35.7445C13.8453 36.2826 14.2802 36.7201 14.815 36.7201C15.3498 36.7201 15.7847 36.2826 15.7847 35.7445V20.1507H17.759V35.7445C17.759 36.2826 18.1939 36.7201 18.7287 36.7201C19.2635 36.7201 19.6984 36.2826 19.6984 35.7445V15.8211L25.4964 10.0281C25.8613 9.66102 25.8713 9.08273 25.5414 8.70055" fill="#002273"/>
<path d="M25.5496 8.70062C25.5496 8.70062 25.5197 8.66039 25.5047 8.6453C25.4797 8.62016 25.4547 8.60508 25.4297 8.58496C25.4447 8.60508 25.4597 8.62519 25.4747 8.64028C25.4997 8.66542 25.5247 8.6805 25.5496 8.70565" fill="#002273"/>
<path d="M28.4811 11.7228L28.4761 11.7178L26.0469 14.1617L28.4811 11.7228Z" fill="#002273"/>
<path d="M22.9605 15.8867C22.5806 15.5045 22.5806 14.886 22.9605 14.5038L24.9498 12.5024L22.9255 14.5189C22.5457 14.9011 22.5457 15.5196 22.9255 15.9018C23.1904 16.1683 23.5753 16.2437 23.9152 16.1381C23.8302 16.1633 23.7403 16.1784 23.6503 16.1784C23.4004 16.1784 23.1555 16.0828 22.9605 15.8917" fill="#002273"/>
<path d="M24.9539 12.5024L22.9646 14.5038C22.5847 14.886 22.5847 15.5045 22.9646 15.8867C23.1545 16.0778 23.4044 16.1733 23.6544 16.1733C23.7443 16.1733 23.8343 16.1583 23.9193 16.1331C24.0092 16.1029 24.0992 16.0728 24.1792 16.0175C24.2292 15.9823 24.2742 15.9471 24.3141 15.9068L26.0536 14.1669L28.4827 11.723L27.1432 10.3301L24.9589 12.5024H24.9539Z" fill="#002273"/>
<path d="M24.174 16.0176C24.094 16.0729 24.004 16.1081 23.9141 16.1332C24.004 16.1081 24.094 16.0679 24.174 16.0176Z" fill="#002273"/>
<path d="M33.1406 18.309H37.1737V14.2568H40.5752V18.309H44.6274V21.7105H40.5752V25.7436H37.1737V21.7105H33.1406V18.309Z" fill="#6F727B"/>
<path d="M52.3448 8.57996C52.6746 8.19779 52.6597 7.61949 52.2998 7.2524L48.636 3.56642C48.2561 3.18424 47.6413 3.18424 47.2615 3.56642C46.8816 3.94859 46.8816 4.56711 47.2615 4.94929L50.9252 8.63528C51.1152 8.82637 51.3651 8.92191 51.615 8.92191C51.8299 8.92191 52.0449 8.84648 52.2248 8.70065C52.2398 8.68054 52.2548 8.66042 52.2698 8.64534C52.2948 8.62019 52.3198 8.60511 52.3448 8.58499" fill="#9F24E2"/>
<path d="M51.7188 14.1621L53.4332 15.8869C53.4832 15.9372 53.5381 15.9825 53.5931 16.0177C53.5431 15.9825 53.4982 15.9473 53.4582 15.907L51.7188 14.1671V14.1621Z" fill="#CBC545"/>
<path d="M46.2844 5.93019C45.9046 5.54801 45.2898 5.54801 44.9099 5.93019C44.53 6.31236 44.53 6.93088 44.9099 7.31306L49.2884 11.7232L50.628 10.3302L46.2844 5.93019Z" fill="#9F24E2"/>
<path d="M52.3387 8.58008C52.3137 8.60019 52.2837 8.62031 52.2637 8.64042C52.2487 8.66054 52.2337 8.67562 52.2188 8.69574C52.2437 8.67562 52.2737 8.65551 52.2937 8.63539C52.3087 8.62031 52.3237 8.60019 52.3387 8.58008Z" fill="#002273"/>
<path d="M49.2891 11.7228L51.7232 14.1617L49.2891 11.7178V11.7228Z" fill="#002273"/>
<path d="M52.8203 12.5021L54.8096 14.5035C55.1895 14.8857 55.1895 15.5042 54.8096 15.8864C54.6197 16.0775 54.3698 16.173 54.1199 16.173C54.0299 16.173 53.9399 16.1579 53.855 16.1328C54.1949 16.2384 54.5797 16.168 54.8446 15.8964C55.2245 15.5142 55.2245 14.8957 54.8446 14.5136L52.8203 12.4971V12.5021Z" fill="#002273"/>
<path d="M54.81 15.8869C55.1899 15.5047 55.1899 14.8862 54.81 14.504L52.8207 12.5026L50.6364 10.3252L49.2969 11.7181L51.7261 14.162L53.4655 15.9019C53.5055 15.9422 53.5554 15.9824 53.6004 16.0126C53.6804 16.0679 53.7704 16.1031 53.8603 16.1282C53.9453 16.1534 54.0353 16.1685 54.1253 16.1685C54.3752 16.1685 54.6201 16.0729 54.815 15.8818" fill="#002273"/>
<path d="M53.8537 16.1332C53.7637 16.1031 53.6737 16.0729 53.5938 16.0176C53.6737 16.0679 53.7637 16.1081 53.8537 16.1332Z" fill="#002273"/>
<path d="M69.7707 8.70065C69.9506 8.84648 70.1655 8.92191 70.3805 8.92191C70.6304 8.92191 70.8803 8.82637 71.0702 8.63528L74.734 4.94929C75.1139 4.56711 75.1139 3.94859 74.734 3.56642C74.3541 3.18424 73.7393 3.18424 73.3595 3.56642L69.6957 7.2524C69.3358 7.61447 69.3208 8.19779 69.6507 8.57996C69.6757 8.60008 69.7057 8.62019 69.7257 8.64031C69.7457 8.65539 69.7557 8.67551 69.7707 8.69562" fill="#9F24E2"/>
<path d="M68.3906 16.0177C68.4456 15.9825 68.5006 15.9372 68.5506 15.8869L70.265 14.1621L68.5256 15.902C68.4856 15.9473 68.4356 15.9825 68.3906 16.0126" fill="#CBC545"/>
<path d="M77.0825 5.93019C76.7026 5.54801 76.0878 5.54801 75.7079 5.93019L71.3594 10.3302L72.6989 11.7232L77.0775 7.31306C77.4573 6.93088 77.4573 6.31236 77.0775 5.93019" fill="#9F24E2"/>
<path d="M69.7701 8.70055C69.7451 8.68044 69.7152 8.66032 69.6952 8.63518C69.6802 8.62009 69.6652 8.59998 69.6502 8.57986C69.2703 8.26809 68.7105 8.28317 68.3506 8.64021L62.2677 14.7198C62.0827 14.9009 61.9828 15.1523 61.9828 15.4138V18.1896H60.0084V15.4138C60.0084 15.1523 59.9085 14.9059 59.7235 14.7198L53.6406 8.64021C53.2857 8.28317 52.7259 8.26306 52.341 8.57986C52.326 8.59998 52.311 8.62009 52.296 8.63518C52.271 8.66032 52.246 8.67541 52.221 8.70055C51.8911 9.08273 51.9061 9.66102 52.266 10.0281L58.0641 15.8211V35.7445C58.0641 36.2826 58.4989 36.7201 59.0337 36.7201C59.5686 36.7201 60.0034 36.2826 60.0034 35.7445V20.1507H61.9778V35.7445C61.9778 36.2826 62.4126 36.7201 62.9474 36.7201C63.4823 36.7201 63.9171 36.2826 63.9171 35.7445V15.8211L69.7152 10.0281C70.08 9.66102 70.09 9.08273 69.7601 8.70055" fill="#002273"/>
<path d="M69.7684 8.70062C69.7684 8.70062 69.7384 8.66039 69.7234 8.6453C69.6984 8.62016 69.6734 8.60508 69.6484 8.58496C69.6634 8.60508 69.6784 8.62519 69.6934 8.64028C69.7184 8.66542 69.7434 8.6805 69.7684 8.70565" fill="#002273"/>
<path d="M72.6998 11.7228L72.6948 11.7178L70.2656 14.1617L72.6998 11.7228Z" fill="#002273"/>
<path d="M67.1793 15.8867C66.7994 15.5045 66.7994 14.886 67.1793 14.5038L69.1686 12.5024L67.1443 14.5189C66.7644 14.9011 66.7644 15.5196 67.1443 15.9018C67.4092 16.1683 67.7941 16.2437 68.1339 16.1381C68.049 16.1633 67.959 16.1784 67.869 16.1784C67.6191 16.1784 67.3742 16.0828 67.1793 15.8917" fill="#002273"/>
<path d="M69.1727 12.5024L67.1833 14.5038C66.8035 14.886 66.8035 15.5045 67.1833 15.8867C67.3733 16.0778 67.6232 16.1733 67.8731 16.1733C67.9631 16.1733 68.053 16.1583 68.138 16.1331C68.228 16.1029 68.318 16.0728 68.3979 16.0175C68.4479 15.9823 68.4929 15.9471 68.5329 15.9068L70.2723 14.1669L72.7015 11.723L71.3619 10.3301L69.1777 12.5024H69.1727Z" fill="#002273"/>
<path d="M68.3927 16.0176C68.3128 16.0729 68.2228 16.1081 68.1328 16.1332C68.2228 16.1081 68.3128 16.0679 68.3927 16.0176Z" fill="#002273"/>
<path d="M77.3594 18.309H81.3925V14.2568H84.794V18.309H88.8461V21.7105H84.794V25.7436H81.3925V21.7105H77.3594V18.309Z" fill="#6F727B"/>
<g clip-path="url(#clip0_4034_4334)">
<path d="M105.272 7.4846H107.622C107.898 7.4846 108.128 7.26009 108.128 6.97814C108.128 6.69619 107.904 6.47168 107.622 6.47168H105.272C104.995 6.47168 104.766 6.69619 104.766 6.97814C104.766 7.26009 104.99 7.4846 105.272 7.4846Z" fill="#002273"/>
<path d="M103.764 10.1736H107.618C107.894 10.1736 108.124 9.94905 108.124 9.66711C108.124 9.38516 107.9 9.16064 107.618 9.16064H103.764C103.488 9.16064 103.258 9.38516 103.258 9.66711C103.258 9.94905 103.482 10.1736 103.764 10.1736Z" fill="#002273"/>
<path d="M107.614 11.8599H105.264C104.988 11.8599 104.758 12.0844 104.758 12.3663C104.758 12.6483 104.982 12.8728 105.264 12.8728H107.614C107.891 12.8728 108.12 12.6483 108.12 12.3663C108.12 12.0844 107.896 11.8599 107.614 11.8599Z" fill="#002273"/>
<path d="M115.781 24.8556C113.677 24.8556 111.964 26.5682 111.964 28.6723V34.0502C111.964 36.6191 109.876 38.7076 107.307 38.7076C104.738 38.7076 102.649 36.6191 102.649 34.0502V33.6012C103.307 33.1365 103.714 32.3794 103.714 31.544V29.8732H103.73C104.09 29.8732 104.378 29.5808 104.378 29.2258C104.378 28.8707 104.085 28.5783 103.73 28.5783H102.649V27.0068C103.339 26.9702 103.887 26.3959 103.887 25.6962V25.0488H106.732C108.69 25.0488 110.283 23.4563 110.283 21.4983V5.91812C110.283 3.96015 108.69 2.36767 106.732 2.36767H105.015C104.717 1.01536 103.511 0.00244141 102.07 0.00244141C100.629 0.00244141 99.4226 1.01536 99.125 2.36767H97.4072C95.444 2.36767 93.8516 3.96015 93.8516 5.91812V21.4931C93.8516 23.4511 95.444 25.0436 97.402 25.0436H100.248V25.691C100.248 26.3437 100.728 26.8867 101.354 26.9859V28.5679H100.279C99.9187 28.5679 99.6315 28.8603 99.6315 29.2153C99.6315 29.5704 99.9239 29.8628 100.279 29.8628H100.295V31.5336C100.295 32.3638 100.702 33.1261 101.36 33.5907V34.0398C101.36 37.3239 104.033 39.9972 107.317 39.9972C110.601 39.9972 113.269 37.3239 113.269 34.0398V28.6619C113.269 27.273 114.397 26.14 115.791 26.14C117.185 26.14 118.308 27.2678 118.308 28.6619C118.308 29.0169 118.6 29.3093 118.955 29.3093C119.31 29.3093 119.603 29.0169 119.603 28.6619C119.603 26.5577 117.89 24.8452 115.786 24.8452M95.1464 21.4983V5.91812C95.1464 4.67546 96.1594 3.66254 97.402 3.66254H99.6994C100.06 3.66254 100.347 3.37015 100.347 3.0151C100.347 2.07006 101.12 1.29731 102.065 1.29731C103.01 1.29731 103.782 2.07006 103.782 3.0151C103.782 3.37537 104.075 3.66254 104.43 3.66254H106.727C107.97 3.66254 108.983 4.67546 108.983 5.91812V21.4931C108.983 22.7358 107.97 23.7487 106.727 23.7487H97.402C96.1594 23.7487 95.1464 22.7358 95.1464 21.4931" fill="#002273"/>
<path d="M102.067 3.71992C102.49 3.71992 102.829 3.38054 102.829 2.95762C102.829 2.53469 102.49 2.19531 102.067 2.19531C101.644 2.19531 101.305 2.53469 101.305 2.95762C101.305 3.38054 101.644 3.71992 102.067 3.71992Z" fill="#002273"/>
<path d="M108.124 21.4981V14.3032C107.351 14.8253 106.552 15.0811 105.701 15.0811C105.539 15.0811 105.372 15.0707 105.205 15.055C104.161 14.9402 103.164 14.4703 102.198 14.0212C100.266 13.118 98.4383 12.2669 96.1723 13.9742C96.1253 14.0108 96.0678 14.0369 96.0156 14.0526V21.5033C96.0156 22.2708 96.637 22.8921 97.4045 22.8921H106.73C107.497 22.8921 108.118 22.2708 108.118 21.5033" fill="#CBC545"/>
</g>
<defs>
<clipPath id="clip0_4034_4334">
<rect width="30.7512" height="39.9948" fill="white" transform="translate(88.8516 0.00244141)"/>
</clipPath>
</defs>
</svg>
