<svg width="82" height="84" viewBox="0 0 82 84" fill="none" xmlns="http://www.w3.org/2000/svg">
<path d="M19.3736 13.4499C20.1983 12.4945 20.1608 11.0487 19.2611 10.131L10.1017 0.916043C9.15205 -0.0393971 7.61506 -0.0393971 6.66538 0.916043C5.71571 1.87148 5.71571 3.41779 6.66538 4.37323L15.8248 13.5882C16.2996 14.0659 16.9244 14.3048 17.5492 14.3048C18.0865 14.3048 18.6238 14.1162 19.0737 13.7516C19.1112 13.7013 19.1487 13.6511 19.1862 13.6133C19.2486 13.5505 19.3111 13.5128 19.3736 13.4625" fill="#9F24E2"/>
<path d="M17.8203 27.4048L22.1064 31.7168C22.2313 31.8426 22.3688 31.9557 22.5062 32.0437C22.3813 31.9557 22.2688 31.8677 22.1688 31.7671L17.8203 27.4174V27.4048Z" fill="#9F24E2"/>
<path d="M4.22672 6.82498C3.27704 5.86954 1.74006 5.86954 0.790384 6.82498C-0.159295 7.78042 -0.159295 9.32672 0.790384 10.2822L11.7367 21.3074L15.0856 17.8251L4.22672 6.82498Z" fill="#9F24E2"/>
<path d="M19.3702 13.4502C19.3077 13.5005 19.2328 13.5508 19.1828 13.6011C19.1453 13.6513 19.1078 13.6891 19.0703 13.7393C19.1328 13.6891 19.2078 13.6388 19.2577 13.5885C19.2952 13.5508 19.3327 13.5005 19.3702 13.4502Z" fill="#002273"/>
<path d="M11.7344 21.3072L17.8198 27.4045L11.7344 21.2947V21.3072Z" fill="#002273"/>
<path d="M20.5625 23.256L25.5358 28.2595C26.4855 29.2149 26.4855 30.7612 25.5358 31.7167C25.061 32.1944 24.4362 32.4332 23.8114 32.4332C23.5865 32.4332 23.3616 32.3955 23.1491 32.3327C23.9988 32.5967 24.961 32.4207 25.6233 31.7418C26.573 30.7864 26.573 29.2401 25.6233 28.2846L20.5625 23.2434V23.256Z" fill="#002273"/>
<path d="M25.5328 31.7167C26.4825 30.7612 26.4825 29.2149 25.5328 28.2595L20.5595 23.256L15.0989 17.8125L11.75 21.2948L17.8229 27.4046L22.1715 31.7544C22.2714 31.855 22.3964 31.9555 22.5089 32.031C22.7088 32.1692 22.9337 32.2572 23.1586 32.3201C23.3711 32.383 23.596 32.4207 23.8209 32.4207C24.4457 32.4207 25.058 32.1818 25.5453 31.7041" fill="#002273"/>
<path d="M23.1576 32.3326C22.9327 32.2572 22.7077 32.1817 22.5078 32.0435C22.7077 32.1692 22.9327 32.2697 23.1576 32.3326Z" fill="#002273"/>
<path d="M62.9462 13.7516C63.3961 14.1162 63.9334 14.3048 64.4707 14.3048C65.0955 14.3048 65.7203 14.0659 66.1951 13.5882L75.3545 4.37323C76.3042 3.41779 76.3042 1.87148 75.3545 0.916043C74.4049 -0.0393971 72.8679 -0.0393971 71.9182 0.916043L62.7588 10.131C61.8591 11.0362 61.8216 12.4945 62.6463 13.4499C62.7088 13.5002 62.7838 13.5505 62.8338 13.6008C62.8838 13.6385 62.9087 13.6888 62.9462 13.7391" fill="#9F24E2"/>
<path d="M59.4922 32.0437C59.6296 31.9557 59.7671 31.8426 59.8921 31.7168L64.1781 27.4048L59.8296 31.7546C59.7296 31.8677 59.6046 31.9557 59.4922 32.0311" fill="#9F24E2"/>
<path d="M81.2139 6.82498C80.2642 5.86954 78.7273 5.86954 77.7776 6.82498L66.9062 17.8251L70.2551 21.3074L81.2014 10.2822C82.1511 9.32672 82.1511 7.78042 81.2014 6.82498" fill="#9F24E2"/>
<path d="M62.9409 13.7516C62.8784 13.7013 62.8034 13.651 62.7535 13.5882C62.716 13.5505 62.6785 13.5002 62.641 13.4499C61.6913 12.6705 60.2918 12.7082 59.3921 13.6008L44.1847 28.7998C43.7224 29.2524 43.4725 29.881 43.4725 30.5347V37.4742H38.5366V30.5347C38.5366 29.881 38.2867 29.2649 37.8244 28.7998L22.617 13.6008C21.7298 12.7082 20.3303 12.6579 19.3681 13.4499C19.3306 13.5002 19.2931 13.5505 19.2556 13.5882C19.1932 13.651 19.1307 13.6888 19.0682 13.7516C18.2435 14.7071 18.281 16.1528 19.1807 17.0705L33.6758 31.553V81.3616C33.6758 82.7067 34.7629 83.8005 36.1 83.8005C37.437 83.8005 38.5241 82.7067 38.5241 81.3616V42.3771H43.46V81.3616C43.46 82.7067 44.5471 83.8005 45.8842 83.8005C47.2212 83.8005 48.3083 82.7067 48.3083 81.3616V31.553L62.8034 17.0705C63.7156 16.1528 63.7406 14.7071 62.9159 13.7516" fill="#002273"/>
<path d="M62.9483 13.7518C62.9483 13.7518 62.8734 13.6512 62.8359 13.6135C62.7734 13.5506 62.7109 13.5129 62.6484 13.4626C62.6859 13.5129 62.7234 13.5632 62.7609 13.6009C62.8234 13.6638 62.8859 13.7015 62.9483 13.7644" fill="#002273"/>
<path d="M70.2651 21.3072L70.2526 21.2947L64.1797 27.4045L70.2651 21.3072Z" fill="#002273"/>
<path d="M56.456 31.7165C55.5063 30.7611 55.5063 29.2148 56.456 28.2593L61.4293 23.2559L56.3685 28.2971C55.4188 29.2525 55.4188 30.7988 56.3685 31.7542C57.0308 32.4205 57.993 32.6091 58.8427 32.3451C58.6302 32.408 58.4053 32.4457 58.1804 32.4457C57.5556 32.4457 56.9433 32.2068 56.456 31.7291" fill="#002273"/>
<path d="M61.4434 23.2559L56.4701 28.2594C55.5204 29.2148 55.5204 30.7611 56.4701 31.7165C56.9449 32.1943 57.5697 32.4331 58.1945 32.4331C58.4194 32.4331 58.6443 32.3954 58.8568 32.3326C59.0817 32.2571 59.3066 32.1817 59.5065 32.0434C59.6315 31.9554 59.744 31.8674 59.8439 31.7668L64.1925 27.4171L70.2654 21.3073L66.9165 17.825L61.4559 23.2559H61.4434Z" fill="#002273"/>
<path d="M59.4935 32.0435C59.2936 32.1817 59.0687 32.2697 58.8438 32.3326C59.0687 32.2697 59.2936 32.1692 59.4935 32.0435Z" fill="#002273"/>
</svg>
