<svg width="84" height="84" viewBox="0 0 84 84" fill="none" xmlns="http://www.w3.org/2000/svg">
<g clip-path="url(#clip0_4034_1811)">
<path d="M37.1975 49.0615H24.1172" stroke="#002273" stroke-width="1.8932"/>
<path d="M60.1272 72.3579H47.0469" stroke="#002273" stroke-width="1.8932"/>
<path d="M60.1272 53.2734H47.0469" stroke="#002273" stroke-width="1.8932"/>
<path d="M60.1266 60.3013C56.2477 60.3013 53.1094 57.1583 53.1094 53.2735C53.1094 49.3887 56.2477 46.2456 60.1266 46.2456C64.0055 46.2456 67.1438 49.3887 67.1438 53.2735C67.1438 57.1583 64.0055 60.3013 60.1266 60.3013Z" fill="#D50056"/>
<path d="M60.1266 79.8888C56.2477 79.8888 53.1094 76.7457 53.1094 72.8609C53.1094 68.9761 56.2477 65.833 60.1266 65.833C64.0055 65.833 67.1438 68.9761 67.1438 72.8609C67.1438 76.7457 64.0055 79.8888 60.1266 79.8888Z" fill="#D50056"/>
<path d="M23.8766 55.5992C19.9977 55.5992 16.8594 52.4561 16.8594 48.5713C16.8594 44.6865 19.9977 41.5435 23.8766 41.5435C27.7555 41.5435 30.8938 44.6865 30.8938 48.5713C30.8938 52.4561 27.7555 55.5992 23.8766 55.5992Z" fill="#D50056"/>
<path d="M20.268 13.6457C21.0965 12.6902 21.0589 11.2444 20.1551 10.3266L10.9411 1.11115C9.98704 0.155659 8.443 0.155659 7.48897 1.11115C6.53493 2.06664 6.53493 3.61302 7.48897 4.56851L16.6904 13.7839C17.1674 14.2617 17.7951 14.5006 18.4227 14.5006C18.9625 14.5006 19.5023 14.312 19.9542 13.9474C19.9919 13.8971 20.0295 13.8468 20.0672 13.8091C20.13 13.7462 20.1927 13.7085 20.2555 13.6582" fill="#01737C"/>
<path d="M18.7188 27.6006L23.0245 31.9129C23.15 32.0386 23.2881 32.1392 23.4262 32.2397C23.3006 32.1517 23.1877 32.0637 23.0872 31.9631L18.7188 27.6132V27.6006Z" fill="#CBC545"/>
<path d="M5.05826 7.00763C4.10422 6.05214 2.56019 6.05214 1.60615 7.00763C0.652116 7.96312 0.652116 9.5095 1.60615 10.465L12.6027 21.4908L15.9669 18.0083L5.05826 7.00763Z" fill="#01737C"/>
<path d="M20.27 13.6455C20.2073 13.6958 20.1319 13.7461 20.0817 13.7964C20.0441 13.8467 20.0064 13.897 19.9688 13.9347C20.0315 13.8844 20.1068 13.8341 20.157 13.7838C20.1947 13.7335 20.2324 13.6958 20.27 13.6455Z" fill="#002273"/>
<path d="M12.6016 21.5033L18.7149 27.6008L12.6016 21.4907V21.5033Z" fill="#2789C6"/>
<path d="M21.4688 23.452L26.4649 28.4558C27.4189 29.4113 27.4189 30.9576 26.4649 31.9131C25.9879 32.3909 25.3602 32.6297 24.7326 32.6297C24.5066 32.6297 24.2806 32.592 24.0672 32.5292C24.9209 32.7932 25.8874 32.6172 26.5528 31.9383C27.5068 30.9828 27.5068 29.4364 26.5528 28.4809L21.4688 23.4395V23.452Z" fill="#002273"/>
<path d="M26.4633 31.9132C27.4173 30.9577 27.4173 29.4113 26.4633 28.4558L21.4671 23.4521L15.9814 18.0083L12.6172 21.4908L18.718 27.6009L23.0865 31.9509C23.1869 32.0515 23.3124 32.152 23.4254 32.2275C23.6263 32.3658 23.8522 32.4538 24.0782 32.5166C24.2916 32.5795 24.5175 32.6172 24.7435 32.6172C25.3712 32.6172 25.9863 32.3783 26.4758 31.9006" fill="#002273"/>
<path d="M24.0746 32.5289C23.8487 32.4535 23.6227 32.378 23.4219 32.2397C23.6227 32.378 23.8487 32.466 24.0746 32.5289Z" fill="#002273"/>
<path d="M64.0441 13.9474C64.496 14.312 65.0358 14.5006 65.5756 14.5006C66.2032 14.5006 66.8183 14.2617 67.3079 13.7839L76.5093 4.56851C77.4634 3.61302 77.4634 2.06664 76.5093 1.11115C75.5553 0.155659 74.0112 0.155659 73.0572 1.11115L63.8558 10.3266C62.952 11.2444 62.9143 12.6902 63.7428 13.6457C63.8056 13.6959 63.8809 13.7462 63.9311 13.7965C63.9813 13.8468 64.0064 13.8845 64.0441 13.9348" fill="#2789C6"/>
<path d="M60.5781 32.2402C60.7162 32.1522 60.8543 32.0391 60.9798 31.9133L65.2855 27.6011L60.9171 31.9511C60.8166 32.0516 60.6911 32.1522 60.5781 32.2277" fill="#CBC545"/>
<path d="M82.3968 7.00763C81.4427 6.05214 79.8987 6.05214 78.9446 7.00763L68.0234 18.0083L71.3877 21.4908L82.3968 10.465C83.3508 9.5095 83.3508 7.96312 82.3968 7.00763Z" fill="#2789C6"/>
<path d="M64.0434 13.9472C63.9806 13.8969 63.9053 13.8466 63.8551 13.7838C63.8174 13.7461 63.7797 13.6958 63.7421 13.6455C62.788 12.866 61.3695 12.9037 60.4783 13.7964L45.2011 28.9962C44.7367 29.4488 44.4856 30.0774 44.4856 30.7311V37.671H39.5271V30.7311C39.5271 30.0774 39.2761 29.4613 38.8116 28.9962L23.5344 13.7964C22.6432 12.9037 21.2372 12.8534 20.2706 13.6455C20.233 13.6958 20.1953 13.7461 20.1577 13.7838C20.0949 13.8466 20.0321 13.8844 19.9694 13.9472C19.1409 14.9027 19.1785 16.3485 20.0823 17.2663L34.644 31.7495V81.5606C34.644 82.9058 35.7361 83.9996 37.0793 83.9996C38.4224 83.9996 39.5146 82.9058 39.5146 81.5606V42.5742H44.473V81.5606C44.473 82.9058 45.5652 83.9996 46.9083 83.9996C48.2515 83.9996 49.3436 82.9058 49.3436 81.5606V31.7495L63.9053 17.2663C64.8216 16.3485 64.8468 14.9027 64.0182 13.9472" fill="#002273"/>
<path d="M64.0435 13.9474C64.0435 13.9474 63.9681 13.8468 63.9305 13.8091C63.8677 13.7462 63.805 13.7085 63.7422 13.6582C63.7798 13.7085 63.8175 13.7588 63.8552 13.7965C63.9179 13.8594 63.9807 13.8971 64.0435 13.9599" fill="#002273"/>
<path d="M71.4024 21.5033L71.3899 21.4907L65.2891 27.6008L71.4024 21.5033Z" fill="#002273"/>
<path d="M57.53 31.9133C56.5759 30.9578 56.5759 29.4114 57.53 28.4559L62.5261 23.4521L57.4421 28.4936C56.4881 29.4491 56.4881 30.9955 57.4421 31.951C58.1074 32.6173 59.074 32.8059 59.9276 32.5419C59.7142 32.6047 59.4882 32.6424 59.2623 32.6424C58.6346 32.6424 58.0195 32.4036 57.53 31.9258" fill="#002273"/>
<path d="M62.5398 23.4522L57.5437 28.4559C56.5896 29.4114 56.5896 30.9578 57.5437 31.9133C58.0207 32.391 58.6483 32.6299 59.276 32.6299C59.5019 32.6299 59.7279 32.5922 59.9413 32.5293C60.1673 32.4539 60.3932 32.3785 60.5941 32.2402C60.7196 32.1522 60.8326 32.0642 60.933 31.9636L65.3015 27.6136L71.4023 21.5035L68.0381 18.021L62.5523 23.4522H62.5398Z" fill="#002273"/>
<path d="M60.5825 32.2397C60.3816 32.378 60.1556 32.466 59.9297 32.5289C60.1556 32.466 60.3816 32.3655 60.5825 32.2397Z" fill="#002273"/>
</g>
<defs>
<clipPath id="clip0_4034_1811">
<rect width="82.2229" height="83.6053" fill="white" transform="translate(0.890625 0.394531)"/>
</clipPath>
</defs>
</svg>
