<svg width="106" height="50" viewBox="0 0 106 50" fill="none" xmlns="http://www.w3.org/2000/svg">
<path d="M9.88993 10.7248C10.3023 10.2471 10.2835 9.52425 9.8337 9.06538L5.25399 4.4579C4.77915 3.98018 4.01066 3.98018 3.53582 4.4579C3.06098 4.93562 3.06098 5.70877 3.53582 6.18649L8.11553 10.794C8.35295 11.0328 8.66534 11.1523 8.97774 11.1523C9.2464 11.1523 9.51506 11.058 9.73998 10.8757C9.75873 10.8505 9.77747 10.8254 9.79621 10.8065C9.82745 10.7751 9.85869 10.7563 9.88993 10.7311" fill="#CB0094"/>
<path d="M9.11719 17.7021L11.2602 19.8582C11.3227 19.921 11.3914 19.9776 11.4602 20.0216C11.3977 19.9776 11.3414 19.9336 11.2915 19.8833L9.11719 17.7084V17.7021Z" fill="#CB0094"/>
<path d="M2.31649 7.41225C1.84165 6.93453 1.07316 6.93453 0.598318 7.41225C0.123477 7.88997 0.123477 8.66312 0.598318 9.14084L6.07148 14.6535L7.74592 12.9123L2.31649 7.41225Z" fill="#CB0094"/>
<path d="M9.89214 10.7251C9.8609 10.7502 9.82341 10.7754 9.79842 10.8005C9.77967 10.8257 9.76093 10.8445 9.74219 10.8697C9.77343 10.8445 9.81091 10.8194 9.83591 10.7942C9.85465 10.7754 9.87339 10.7502 9.89214 10.7251Z" fill="#002273"/>
<path d="M6.07031 14.6535L9.11304 17.7021L6.07031 14.6472V14.6535Z" fill="#002273"/>
<path d="M10.4844 15.6279L12.971 18.1296C13.4459 18.6073 13.4459 19.3805 12.971 19.8582C12.7336 20.0971 12.4212 20.2165 12.1088 20.2165C11.9964 20.2165 11.8839 20.1976 11.7777 20.1662C12.2025 20.2982 12.6836 20.2102 13.0148 19.8708C13.4896 19.3931 13.4896 18.6199 13.0148 18.1422L10.4844 15.6216V15.6279Z" fill="#002273"/>
<path d="M12.9696 19.8581C13.4444 19.3804 13.4444 18.6072 12.9696 18.1295L10.4829 15.6278L7.75256 12.906L6.07812 14.6472L9.1146 17.7021L11.2889 19.8769C11.3389 19.9272 11.4013 19.9775 11.4576 20.0152C11.5575 20.0844 11.67 20.1284 11.7825 20.1598C11.8887 20.1912 12.0011 20.2101 12.1136 20.2101C12.426 20.2101 12.7321 20.0907 12.9758 19.8518" fill="#002273"/>
<path d="M11.7858 20.1663C11.6734 20.1286 11.5609 20.0909 11.4609 20.0217C11.5609 20.0846 11.6734 20.1349 11.7858 20.1663Z" fill="#002273"/>
<path d="M31.6723 10.8757C31.8973 11.058 32.1659 11.1523 32.4346 11.1523C32.747 11.1523 33.0594 11.0328 33.2968 10.794L37.8765 6.18649C38.3513 5.70877 38.3513 4.93562 37.8765 4.4579C37.4017 3.98018 36.6332 3.98018 36.1583 4.4579L31.5786 9.06538C31.1288 9.51796 31.11 10.2471 31.5224 10.7248C31.5536 10.75 31.5911 10.7751 31.6161 10.8003C31.6411 10.8191 31.6536 10.8443 31.6723 10.8694" fill="#CB0094"/>
<path d="M29.9531 20.0216C30.0219 19.9776 30.0906 19.921 30.1531 19.8582L32.2961 17.7021L30.1218 19.877C30.0718 19.9336 30.0094 19.9776 29.9531 20.0153" fill="#CB0094"/>
<path d="M40.8101 7.41225C40.3353 6.93453 39.5668 6.93453 39.0919 7.41225L33.6562 12.9123L35.3307 14.6535L40.8038 9.14084C41.2787 8.66312 41.2787 7.88997 40.8038 7.41225" fill="#CB0094"/>
<path d="M31.6775 10.8757C31.6463 10.8505 31.6088 10.8254 31.5838 10.794C31.5651 10.7751 31.5463 10.75 31.5276 10.7248C31.0527 10.3351 30.353 10.354 29.9031 10.8003L22.2994 18.3998C22.0682 18.6261 21.9433 18.9404 21.9433 19.2672V22.737H19.4754V19.2672C19.4754 18.9404 19.3504 18.6324 19.1192 18.3998L11.5155 10.8003C11.0719 10.354 10.3722 10.3288 9.89109 10.7248C9.87234 10.75 9.8536 10.7751 9.83486 10.794C9.80362 10.8254 9.77238 10.8443 9.74114 10.8757C9.32878 11.3534 9.34752 12.0763 9.79737 12.5351L17.0449 19.7764V44.6807C17.0449 45.3532 17.5885 45.9001 18.257 45.9001C18.9256 45.9001 19.4691 45.3532 19.4691 44.6807V25.1884H21.937V44.6807C21.937 45.3532 22.4806 45.9001 23.1491 45.9001C23.8177 45.9001 24.3612 45.3532 24.3612 44.6807V19.7764L31.6088 12.5351C32.0649 12.0763 32.0774 11.3534 31.665 10.8757" fill="#002273"/>
<path d="M31.6734 10.8758C31.6734 10.8758 31.6359 10.8255 31.6172 10.8066C31.5859 10.7752 31.5547 10.7563 31.5234 10.7312C31.5422 10.7563 31.5609 10.7815 31.5797 10.8003C31.6109 10.8318 31.6421 10.8506 31.6734 10.8821" fill="#002273"/>
<path d="M35.3396 14.6535L35.3334 14.6472L32.2969 17.7021L35.3396 14.6535Z" fill="#002273"/>
<path d="M28.4311 19.8583C27.9563 19.3805 27.9563 18.6074 28.4311 18.1297L30.9178 15.6279L28.3874 18.1485C27.9125 18.6263 27.9125 19.3994 28.3874 19.8771C28.7185 20.2103 29.1996 20.3046 29.6245 20.1726C29.5182 20.204 29.4058 20.2228 29.2933 20.2228C28.9809 20.2228 28.6748 20.1034 28.4311 19.8646" fill="#002273"/>
<path d="M30.9287 15.6278L28.4421 18.1296C27.9672 18.6073 27.9672 19.3804 28.4421 19.8582C28.6795 20.097 28.9919 20.2164 29.3043 20.2164C29.4167 20.2164 29.5292 20.1976 29.6354 20.1662C29.7479 20.1284 29.8603 20.0907 29.9603 20.0216C30.0228 19.9776 30.079 19.9336 30.129 19.8833L32.3033 17.7084L35.3397 14.6535L33.6653 12.9124L30.935 15.6278H30.9287Z" fill="#002273"/>
<path d="M29.9499 20.0217C29.8499 20.0909 29.7375 20.1349 29.625 20.1663C29.7375 20.1349 29.8499 20.0846 29.9499 20.0217Z" fill="#002273"/>
<path d="M45.1562 15.8501H50.6623V10.3181H55.3061V15.8501H60.8381V20.4939H55.3061V25.9999H50.6623V20.4939H45.1562V15.8501Z" fill="#6F727B"/>
<path d="M45.1562 29.532H60.8381V34.1758H45.1562V29.532Z" fill="#6F727B"/>
<path d="M74.4915 10.7248C74.9039 10.2471 74.8851 9.52425 74.4353 9.06538L69.8556 4.4579C69.3807 3.98018 68.6122 3.98018 68.1374 4.4579C67.6625 4.93562 67.6625 5.70877 68.1374 6.18649L72.7171 10.794C72.9545 11.0328 73.2669 11.1523 73.5793 11.1523C73.848 11.1523 74.1166 11.058 74.3415 10.8757C74.3603 10.8505 74.379 10.8254 74.3978 10.8065C74.429 10.7751 74.4603 10.7563 74.4915 10.7311" fill="#9F24E2"/>
<path d="M73.7188 17.7021L75.8618 19.8582C75.9243 19.921 75.993 19.9776 76.0617 20.0216C75.9992 19.9776 75.943 19.9336 75.893 19.8833L73.7188 17.7084V17.7021Z" fill="#9F24E2"/>
<path d="M66.9181 7.41225C66.4432 6.93453 65.6747 6.93453 65.1999 7.41225C64.725 7.88997 64.725 8.66312 65.1999 9.14084L70.673 14.6535L72.3475 12.9123L66.9181 7.41225Z" fill="#9F24E2"/>
<path d="M74.4937 10.7251C74.4625 10.7502 74.425 10.7754 74.4 10.8005C74.3812 10.8257 74.3625 10.8445 74.3438 10.8697C74.375 10.8445 74.4125 10.8194 74.4375 10.7942C74.4562 10.7754 74.475 10.7502 74.4937 10.7251Z" fill="#002273"/>
<path d="M70.6719 14.6535L73.7146 17.7021L70.6719 14.6472V14.6535Z" fill="#002273"/>
<path d="M75.0859 15.6279L77.5726 18.1296C78.0474 18.6073 78.0474 19.3805 77.5726 19.8582C77.3352 20.0971 77.0228 20.2165 76.7104 20.2165C76.5979 20.2165 76.4855 20.1976 76.3793 20.1662C76.8041 20.2982 77.2852 20.2102 77.6163 19.8708C78.0912 19.3931 78.0912 18.6199 77.6163 18.1422L75.0859 15.6216V15.6279Z" fill="#002273"/>
<path d="M77.5711 19.8581C78.046 19.3804 78.046 18.6072 77.5711 18.1295L75.0845 15.6278L72.3541 12.906L70.6797 14.6472L73.7162 17.7021L75.8904 19.8769C75.9404 19.9272 76.0029 19.9775 76.0591 20.0152C76.1591 20.0844 76.2716 20.1284 76.384 20.1598C76.4902 20.1912 76.6027 20.2101 76.7152 20.2101C77.0276 20.2101 77.3337 20.0907 77.5774 19.8518" fill="#002273"/>
<path d="M76.3874 20.1663C76.2749 20.1286 76.1625 20.0909 76.0625 20.0217C76.1625 20.0846 76.2749 20.1349 76.3874 20.1663Z" fill="#002273"/>
<path d="M96.2739 10.8757C96.4988 11.058 96.7675 11.1523 97.0361 11.1523C97.3485 11.1523 97.6609 11.0328 97.8984 10.794L102.478 6.18649C102.953 5.70877 102.953 4.93562 102.478 4.4579C102.003 3.98018 101.235 3.98018 100.76 4.4579L96.1802 9.06538C95.7303 9.51796 95.7116 10.2471 96.1239 10.7248C96.1552 10.75 96.1927 10.7751 96.2177 10.8003C96.2427 10.8191 96.2552 10.8443 96.2739 10.8694" fill="#9F24E2"/>
<path d="M94.5547 20.0216C94.6234 19.9776 94.6921 19.921 94.7546 19.8582L96.8977 17.7021L94.7234 19.877C94.6734 19.9336 94.6109 19.9776 94.5547 20.0153" fill="#9F24E2"/>
<path d="M105.412 7.41225C104.937 6.93453 104.168 6.93453 103.693 7.41225L98.2578 12.9123L99.9322 14.6535L105.405 9.14084C105.88 8.66312 105.88 7.88997 105.405 7.41225" fill="#9F24E2"/>
<path d="M96.2791 10.8757C96.2478 10.8505 96.2104 10.8254 96.1854 10.794C96.1666 10.7751 96.1479 10.75 96.1291 10.7248C95.6543 10.3351 94.9545 10.354 94.5047 10.8003L86.901 18.3998C86.6698 18.6261 86.5448 18.9404 86.5448 19.2672V22.737H84.0769V19.2672C84.0769 18.9404 83.952 18.6324 83.7208 18.3998L76.1171 10.8003C75.6735 10.354 74.9737 10.3288 74.4926 10.7248C74.4739 10.75 74.4552 10.7751 74.4364 10.794C74.4052 10.8254 74.3739 10.8443 74.3427 10.8757C73.9303 11.3534 73.9491 12.0763 74.3989 12.5351L81.6465 19.7764V44.6807C81.6465 45.3532 82.1901 45.9001 82.8586 45.9001C83.5271 45.9001 84.0707 45.3532 84.0707 44.6807V25.1884H86.5386V44.6807C86.5386 45.3532 87.0822 45.9001 87.7507 45.9001C88.4192 45.9001 88.9628 45.3532 88.9628 44.6807V19.7764L96.2104 12.5351C96.6665 12.0763 96.6789 11.3534 96.2666 10.8757" fill="#002273"/>
<path d="M96.275 10.8758C96.275 10.8758 96.2375 10.8255 96.2187 10.8066C96.1875 10.7752 96.1562 10.7563 96.125 10.7312C96.1437 10.7563 96.1625 10.7815 96.1812 10.8003C96.2125 10.8318 96.2437 10.8506 96.275 10.8821" fill="#002273"/>
<path d="M99.9412 14.6535L99.9349 14.6472L96.8984 17.7021L99.9412 14.6535Z" fill="#002273"/>
<path d="M93.0327 19.8583C92.5578 19.3805 92.5578 18.6074 93.0327 18.1297L95.5193 15.6279L92.9889 18.1485C92.5141 18.6263 92.5141 19.3994 92.9889 19.8771C93.3201 20.2103 93.8012 20.3046 94.226 20.1726C94.1198 20.204 94.0074 20.2228 93.8949 20.2228C93.5825 20.2228 93.2763 20.1034 93.0327 19.8646" fill="#002273"/>
<path d="M95.5303 15.6278L93.0436 18.1296C92.5688 18.6073 92.5688 19.3804 93.0436 19.8582C93.2811 20.097 93.5934 20.2164 93.9058 20.2164C94.0183 20.2164 94.1308 20.1976 94.237 20.1662C94.3494 20.1284 94.4619 20.0907 94.5619 20.0216C94.6243 19.9776 94.6806 19.9336 94.7306 19.8833L96.9048 17.7084L99.9413 14.6535L98.2669 12.9124L95.5365 15.6278H95.5303Z" fill="#002273"/>
<path d="M94.5515 20.0217C94.4515 20.0909 94.339 20.1349 94.2266 20.1663C94.339 20.1349 94.4515 20.0846 94.5515 20.0217Z" fill="#002273"/>
</svg>
