<svg width="98" height="50" viewBox="0 0 98 50" fill="none" xmlns="http://www.w3.org/2000/svg">
<path d="M10.554 10.7248C10.9664 10.2471 10.9476 9.52425 10.4978 9.06538L5.91805 4.4579C5.44321 3.98018 4.67472 3.98018 4.19988 4.4579C3.72504 4.93562 3.72504 5.70877 4.19988 6.18649L8.77959 10.794C9.01701 11.0328 9.32941 11.1523 9.6418 11.1523C9.91046 11.1523 10.1791 11.058 10.404 10.8757C10.4228 10.8505 10.4415 10.8254 10.4603 10.8065C10.4915 10.7751 10.5228 10.7563 10.554 10.7311" fill="#FFC656"/>
<path d="M9.78125 17.7031L11.9243 19.8592C11.9868 19.922 12.0555 19.9786 12.1242 20.0226C12.0617 19.9786 12.0055 19.9346 11.9555 19.8843L9.78125 17.7094V17.7031Z" fill="#CBC545"/>
<path d="M2.98055 7.41298C2.50571 6.93526 1.73722 6.93526 1.26238 7.41298C0.78754 7.8907 0.78754 8.66385 1.26238 9.14157L6.73554 14.6542L8.40998 12.913L2.98055 7.41298Z" fill="#FFC656"/>
<path d="M10.5562 10.7246C10.525 10.7498 10.4875 10.7749 10.4625 10.8C10.4437 10.8252 10.425 10.844 10.4062 10.8692C10.4375 10.844 10.475 10.8189 10.5 10.7938C10.5187 10.7749 10.5375 10.7498 10.5562 10.7246Z" fill="#002273"/>
<path d="M6.73438 14.6537L9.7771 17.7024L6.73438 14.6475V14.6537Z" fill="#002273"/>
<path d="M11.1484 15.6274L13.6351 18.1291C14.1099 18.6068 14.1099 19.38 13.6351 19.8577C13.3977 20.0966 13.0853 20.216 12.7729 20.216C12.6604 20.216 12.548 20.1971 12.4418 20.1657C12.8666 20.2977 13.3477 20.2097 13.6788 19.8703C14.1537 19.3926 14.1537 18.6194 13.6788 18.1417L11.1484 15.6211V15.6274Z" fill="#002273"/>
<path d="M13.6336 19.8583C14.1085 19.3806 14.1085 18.6075 13.6336 18.1297L11.147 15.628L8.41663 12.9062L6.74219 14.6474L9.77867 17.7023L11.9529 19.8772C12.0029 19.9275 12.0654 19.9778 12.1216 20.0155C12.2216 20.0846 12.3341 20.1286 12.4465 20.1601C12.5527 20.1915 12.6652 20.2103 12.7777 20.2103C13.0901 20.2103 13.3962 20.0909 13.6399 19.852" fill="#002273"/>
<path d="M12.4499 20.1661C12.3374 20.1283 12.225 20.0906 12.125 20.0215C12.225 20.0843 12.3374 20.1346 12.4499 20.1661Z" fill="#002273"/>
<path d="M32.3364 10.8757C32.5613 11.058 32.83 11.1523 33.0986 11.1523C33.411 11.1523 33.7234 11.0328 33.9609 10.794L38.5406 6.18649C39.0154 5.70877 39.0154 4.93562 38.5406 4.4579C38.0657 3.98018 37.2972 3.98018 36.8224 4.4579L32.2427 9.06538C31.7928 9.51796 31.7741 10.2471 32.1864 10.7248C32.2177 10.75 32.2552 10.7751 32.2802 10.8003C32.3052 10.8191 32.3177 10.8443 32.3364 10.8694" fill="#7F0064"/>
<path d="M30.6094 20.0226C30.6781 19.9786 30.7468 19.922 30.8093 19.8592L32.9523 17.7031L30.7781 19.878C30.7281 19.9346 30.6656 19.9786 30.6094 20.0163" fill="#CBC545"/>
<path d="M41.4742 7.41298C40.9993 6.93526 40.2308 6.93526 39.756 7.41298L34.3203 12.913L35.9947 14.6542L41.4679 9.14157C41.9427 8.66385 41.9427 7.8907 41.4679 7.41298" fill="#7F0064"/>
<path d="M32.3416 10.8754C32.3103 10.8503 32.2729 10.8252 32.2479 10.7937C32.2291 10.7749 32.2104 10.7497 32.1916 10.7246C31.7168 10.3349 31.017 10.3537 30.5672 10.8L22.9635 18.3995C22.7323 18.6258 22.6073 18.9401 22.6073 19.267V22.7367H20.1394V19.267C20.1394 18.9401 20.0145 18.6321 19.7833 18.3995L12.1796 10.8C11.736 10.3537 11.0362 10.3286 10.5551 10.7246C10.5364 10.7497 10.5177 10.7749 10.4989 10.7937C10.4677 10.8252 10.4364 10.844 10.4052 10.8754C9.99284 11.3532 10.0116 12.076 10.4614 12.5349L17.709 19.7761V44.6804C17.709 45.353 18.2526 45.8999 18.9211 45.8999C19.5896 45.8999 20.1332 45.353 20.1332 44.6804V25.1882H22.6011V44.6804C22.6011 45.353 23.1447 45.8999 23.8132 45.8999C24.4817 45.8999 25.0253 45.353 25.0253 44.6804V19.7761L32.2729 12.5349C32.729 12.076 32.7414 11.3532 32.3291 10.8754" fill="#002273"/>
<path d="M32.3375 10.876C32.3375 10.876 32.3 10.8257 32.2812 10.8069C32.25 10.7754 32.2187 10.7566 32.1875 10.7314C32.2062 10.7566 32.225 10.7817 32.2437 10.8006C32.275 10.832 32.3062 10.8509 32.3375 10.8823" fill="#002273"/>
<path d="M35.9959 14.6537L35.9896 14.6475L32.9531 17.7024L35.9959 14.6537Z" fill="#002273"/>
<path d="M29.103 19.8583C28.6282 19.3805 28.6282 18.6074 29.103 18.1297L31.5897 15.6279L29.0593 18.1485C28.5844 18.6263 28.5844 19.3994 29.0593 19.8771C29.3904 20.2103 29.8715 20.3046 30.2963 20.1726C30.1901 20.204 30.0777 20.2228 29.9652 20.2228C29.6528 20.2228 29.3467 20.1034 29.103 19.8646" fill="#002273"/>
<path d="M31.5928 15.6276L29.1061 18.1293C28.6313 18.607 28.6313 19.3802 29.1061 19.8579C29.3436 20.0968 29.6559 20.2162 29.9683 20.2162C30.0808 20.2162 30.1933 20.1973 30.2995 20.1659C30.4119 20.1282 30.5244 20.0905 30.6244 20.0213C30.6868 19.9773 30.7431 19.9333 30.7931 19.8831L32.9673 17.7082L36.0038 14.6533L34.3294 12.9121L31.599 15.6276H31.5928Z" fill="#002273"/>
<path d="M30.614 20.0215C30.514 20.0906 30.4015 20.1346 30.2891 20.1661C30.4015 20.1346 30.514 20.0843 30.614 20.0215Z" fill="#002273"/>
<path d="M41.8281 22.8855H46.8695V17.8203H51.1214V22.8855H56.1866V27.1374H51.1214V32.1788H46.8695V27.1374H41.8281V22.8855Z" fill="#6F727B"/>
<path d="M65.8274 10.7248C66.2398 10.2471 66.221 9.52425 65.7712 9.06538L61.1915 4.4579C60.7167 3.98018 59.9482 3.98018 59.4733 4.4579C58.9985 4.93562 58.9985 5.70877 59.4733 6.18649L64.053 10.794C64.2904 11.0328 64.6028 11.1523 64.9152 11.1523C65.1839 11.1523 65.4526 11.058 65.6775 10.8757C65.6962 10.8505 65.715 10.8254 65.7337 10.8065C65.765 10.7751 65.7962 10.7563 65.8274 10.7311" fill="#9F24E2"/>
<path d="M65.0547 17.7031L67.1977 19.8592C67.2602 19.922 67.3289 19.9786 67.3977 20.0226C67.3352 19.9786 67.2789 19.9346 67.229 19.8843L65.0547 17.7094V17.7031Z" fill="#9F24E2"/>
<path d="M58.254 7.41298C57.7791 6.93526 57.0107 6.93526 56.5358 7.41298C56.061 7.8907 56.061 8.66385 56.5358 9.14157L62.009 14.6542L63.6834 12.913L58.254 7.41298Z" fill="#9F24E2"/>
<path d="M65.8296 10.7246C65.7984 10.7498 65.7609 10.7749 65.7359 10.8C65.7172 10.8252 65.6984 10.844 65.6797 10.8692C65.7109 10.844 65.7484 10.8189 65.7734 10.7938C65.7922 10.7749 65.8109 10.7498 65.8296 10.7246Z" fill="#002273"/>
<path d="M62.0078 14.6537L65.0505 17.7024L62.0078 14.6475V14.6537Z" fill="#002273"/>
<path d="M66.4219 15.6274L68.9085 18.1291C69.3834 18.6068 69.3834 19.38 68.9085 19.8577C68.6711 20.0966 68.3587 20.216 68.0463 20.216C67.9339 20.216 67.8214 20.1971 67.7152 20.1657C68.14 20.2977 68.6211 20.2097 68.9523 19.8703C69.4271 19.3926 69.4271 18.6194 68.9523 18.1417L66.4219 15.6211V15.6274Z" fill="#002273"/>
<path d="M68.9071 19.8583C69.3819 19.3806 69.3819 18.6075 68.9071 18.1297L66.4204 15.628L63.6901 12.9062L62.0156 14.6474L65.0521 17.7023L67.2264 19.8772C67.2764 19.9275 67.3388 19.9778 67.3951 20.0155C67.495 20.0846 67.6075 20.1286 67.72 20.1601C67.8262 20.1915 67.9386 20.2103 68.0511 20.2103C68.3635 20.2103 68.6696 20.0909 68.9133 19.852" fill="#002273"/>
<path d="M67.7233 20.1661C67.6109 20.1283 67.4984 20.0906 67.3984 20.0215C67.4984 20.0843 67.6109 20.1346 67.7233 20.1661Z" fill="#002273"/>
<path d="M87.6098 10.8757C87.8348 11.058 88.1034 11.1523 88.3721 11.1523C88.6845 11.1523 88.9969 11.0328 89.2343 10.794L93.814 6.18649C94.2888 5.70877 94.2888 4.93562 93.814 4.4579C93.3392 3.98018 92.5707 3.98018 92.0958 4.4579L87.5161 9.06538C87.0663 9.51796 87.0475 10.2471 87.4599 10.7248C87.4911 10.75 87.5286 10.7751 87.5536 10.8003C87.5786 10.8191 87.5911 10.8443 87.6098 10.8694" fill="#9F24E2"/>
<path d="M85.8906 20.0226C85.9594 19.9786 86.0281 19.922 86.0906 19.8592L88.2336 17.7031L86.0593 19.878C86.0093 19.9346 85.9469 19.9786 85.8906 20.0163" fill="#9F24E2"/>
<path d="M96.7476 7.41298C96.2728 6.93526 95.5043 6.93526 95.0294 7.41298L89.5938 12.913L91.2682 14.6542L96.7413 9.14157C97.2162 8.66385 97.2162 7.8907 96.7413 7.41298" fill="#9F24E2"/>
<path d="M87.6072 10.8754C87.576 10.8503 87.5385 10.8252 87.5135 10.7937C87.4947 10.7749 87.476 10.7497 87.4573 10.7246C86.9824 10.3349 86.2827 10.3537 85.8328 10.8L78.2291 18.3995C77.9979 18.6258 77.873 18.9401 77.873 19.267V22.7367H75.4051V19.267C75.4051 18.9401 75.2801 18.6321 75.0489 18.3995L67.4452 10.8C67.0016 10.3537 66.3019 10.3286 65.8208 10.7246C65.802 10.7497 65.7833 10.7749 65.7645 10.7937C65.7333 10.8252 65.7021 10.844 65.6708 10.8754C65.2585 11.3532 65.2772 12.076 65.7271 12.5349L72.9746 19.7761V44.6804C72.9746 45.353 73.5182 45.8999 74.1867 45.8999C74.8552 45.8999 75.3988 45.353 75.3988 44.6804V25.1882H77.8667V44.6804C77.8667 45.353 78.4103 45.8999 79.0788 45.8999C79.7473 45.8999 80.2909 45.353 80.2909 44.6804V19.7761L87.5385 12.5349C87.9946 12.076 88.0071 11.3532 87.5947 10.8754" fill="#002273"/>
<path d="M87.6109 10.876C87.6109 10.876 87.5734 10.8257 87.5547 10.8069C87.5234 10.7754 87.4922 10.7566 87.4609 10.7314C87.4797 10.7566 87.4984 10.7817 87.5172 10.8006C87.5484 10.832 87.5796 10.8509 87.6109 10.8823" fill="#002273"/>
<path d="M91.2771 14.6537L91.2709 14.6475L88.2344 17.7024L91.2771 14.6537Z" fill="#002273"/>
<path d="M84.3686 19.8583C83.8938 19.3805 83.8938 18.6074 84.3686 18.1297L86.8553 15.6279L84.3249 18.1485C83.85 18.6263 83.85 19.3994 84.3249 19.8771C84.656 20.2103 85.1371 20.3046 85.562 20.1726C85.4557 20.204 85.3433 20.2228 85.2308 20.2228C84.9184 20.2228 84.6123 20.1034 84.3686 19.8646" fill="#002273"/>
<path d="M86.8662 15.6276L84.3796 18.1293C83.9047 18.607 83.9047 19.3802 84.3796 19.8579C84.617 20.0968 84.9294 20.2162 85.2418 20.2162C85.3542 20.2162 85.4667 20.1973 85.5729 20.1659C85.6854 20.1282 85.7978 20.0905 85.8978 20.0213C85.9603 19.9773 86.0165 19.9333 86.0665 19.8831L88.2408 17.7082L91.2772 14.6533L89.6028 12.9121L86.8725 15.6276H86.8662Z" fill="#002273"/>
<path d="M85.8874 20.0215C85.7874 20.0906 85.675 20.1346 85.5625 20.1661C85.675 20.1346 85.7874 20.0843 85.8874 20.0215Z" fill="#002273"/>
<path d="M41 22.532H46.506V17H51.1498V22.532H56.6818V27.1758H51.1498V32.6818H46.506V27.1758H41V22.532Z" fill="#6F727B"/>
<path d="M41 36.2139H56.6818V40.8576H41V36.2139Z" fill="#6F727B"/>
</svg>
