<svg width="98" height="50" viewBox="0 0 98 50" fill="none" xmlns="http://www.w3.org/2000/svg">
<path d="M10.554 10.7248C10.9664 10.2471 10.9476 9.52425 10.4978 9.06538L5.91805 4.4579C5.44321 3.98018 4.67472 3.98018 4.19988 4.4579C3.72504 4.93562 3.72504 5.70877 4.19988 6.18649L8.77959 10.794C9.01701 11.0328 9.32941 11.1523 9.6418 11.1523C9.91046 11.1523 10.1791 11.058 10.404 10.8757C10.4228 10.8505 10.4415 10.8254 10.4603 10.8065C10.4915 10.7751 10.5228 10.7563 10.554 10.7311" fill="#FFC656"/>
<path d="M9.78125 17.7021L11.9243 19.8582C11.9868 19.921 12.0555 19.9776 12.1242 20.0216C12.0617 19.9776 12.0055 19.9336 11.9555 19.8833L9.78125 17.7084V17.7021Z" fill="#CBC545"/>
<path d="M2.98055 7.41249C2.50571 6.93477 1.73722 6.93477 1.26238 7.41249C0.78754 7.89021 0.78754 8.66336 1.26238 9.14108L6.73554 14.6537L8.40998 12.9126L2.98055 7.41249Z" fill="#FFC656"/>
<path d="M10.5562 10.7251C10.525 10.7502 10.4875 10.7754 10.4625 10.8005C10.4437 10.8257 10.425 10.8445 10.4062 10.8697C10.4375 10.8445 10.475 10.8194 10.5 10.7942C10.5187 10.7754 10.5375 10.7502 10.5562 10.7251Z" fill="#002273"/>
<path d="M6.73438 14.6537L9.7771 17.7024L6.73438 14.6475V14.6537Z" fill="#002273"/>
<path d="M11.1484 15.6279L13.6351 18.1296C14.1099 18.6073 14.1099 19.3805 13.6351 19.8582C13.3977 20.0971 13.0853 20.2165 12.7729 20.2165C12.6604 20.2165 12.548 20.1976 12.4418 20.1662C12.8666 20.2982 13.3477 20.2102 13.6788 19.8708C14.1537 19.3931 14.1537 18.6199 13.6788 18.1422L11.1484 15.6216V15.6279Z" fill="#002273"/>
<path d="M13.6336 19.8583C14.1085 19.3806 14.1085 18.6075 13.6336 18.1297L11.147 15.628L8.41663 12.9062L6.74219 14.6474L9.77867 17.7023L11.9529 19.8772C12.0029 19.9275 12.0654 19.9778 12.1216 20.0155C12.2216 20.0846 12.3341 20.1286 12.4465 20.1601C12.5527 20.1915 12.6652 20.2103 12.7777 20.2103C13.0901 20.2103 13.3962 20.0909 13.6399 19.852" fill="#002273"/>
<path d="M12.4499 20.1661C12.3374 20.1283 12.225 20.0906 12.125 20.0215C12.225 20.0843 12.3374 20.1346 12.4499 20.1661Z" fill="#002273"/>
<path d="M32.3364 10.8757C32.5613 11.058 32.83 11.1523 33.0986 11.1523C33.411 11.1523 33.7234 11.0328 33.9609 10.794L38.5406 6.18649C39.0154 5.70877 39.0154 4.93562 38.5406 4.4579C38.0657 3.98018 37.2972 3.98018 36.8224 4.4579L32.2427 9.06538C31.7928 9.51796 31.7741 10.2471 32.1864 10.7248C32.2177 10.75 32.2552 10.7751 32.2802 10.8003C32.3052 10.8191 32.3177 10.8443 32.3364 10.8694" fill="#2069E7"/>
<path d="M30.6172 20.0216C30.6859 19.9776 30.7546 19.921 30.8171 19.8582L32.9602 17.7021L30.7859 19.877C30.7359 19.9336 30.6734 19.9776 30.6172 20.0153" fill="#CBC545"/>
<path d="M41.4742 7.41249C40.9993 6.93477 40.2308 6.93477 39.756 7.41249L34.3203 12.9126L35.9947 14.6537L41.4679 9.14108C41.9427 8.66336 41.9427 7.89021 41.4679 7.41249" fill="#2069E7"/>
<path d="M32.3416 10.8759C32.3103 10.8508 32.2729 10.8256 32.2479 10.7942C32.2291 10.7754 32.2104 10.7502 32.1916 10.7251C31.7168 10.3354 31.017 10.3542 30.5672 10.8005L22.9635 18.4C22.7323 18.6263 22.6073 18.9406 22.6073 19.2675V22.7372H20.1394V19.2675C20.1394 18.9406 20.0145 18.6326 19.7833 18.4L12.1796 10.8005C11.736 10.3542 11.0362 10.3291 10.5551 10.7251C10.5364 10.7502 10.5177 10.7754 10.4989 10.7942C10.4677 10.8256 10.4364 10.8445 10.4052 10.8759C9.99284 11.3537 10.0116 12.0765 10.4614 12.5354L17.709 19.7766V44.6809C17.709 45.3535 18.2526 45.9004 18.9211 45.9004C19.5896 45.9004 20.1332 45.3535 20.1332 44.6809V25.1887H22.6011V44.6809C22.6011 45.3535 23.1447 45.9004 23.8132 45.9004C24.4817 45.9004 25.0253 45.3535 25.0253 44.6809V19.7766L32.2729 12.5354C32.729 12.0765 32.7414 11.3537 32.3291 10.8759" fill="#002273"/>
<path d="M32.3375 10.8755C32.3375 10.8755 32.3 10.8252 32.2812 10.8064C32.25 10.775 32.2187 10.7561 32.1875 10.731C32.2062 10.7561 32.225 10.7812 32.2437 10.8001C32.275 10.8315 32.3062 10.8504 32.3375 10.8818" fill="#002273"/>
<path d="M36.0037 14.6537L35.9974 14.6475L32.9609 17.7024L36.0037 14.6537Z" fill="#002273"/>
<path d="M29.0952 19.8583C28.6203 19.3805 28.6203 18.6074 29.0952 18.1297L31.5818 15.6279L29.0514 18.1485C28.5766 18.6263 28.5766 19.3994 29.0514 19.8771C29.3826 20.2103 29.8637 20.3046 30.2885 20.1726C30.1823 20.204 30.0699 20.2228 29.9574 20.2228C29.645 20.2228 29.3388 20.1034 29.0952 19.8646" fill="#002273"/>
<path d="M31.5928 15.6281L29.1061 18.1298C28.6313 18.6075 28.6313 19.3807 29.1061 19.8584C29.3436 20.0973 29.6559 20.2167 29.9683 20.2167C30.0808 20.2167 30.1933 20.1978 30.2995 20.1664C30.4119 20.1287 30.5244 20.091 30.6244 20.0218C30.6868 19.9778 30.7431 19.9338 30.7931 19.8835L32.9673 17.7087L36.0038 14.6538L34.3294 12.9126L31.599 15.6281H31.5928Z" fill="#002273"/>
<path d="M30.614 20.0215C30.514 20.0906 30.4015 20.1346 30.2891 20.1661C30.4015 20.1346 30.514 20.0843 30.614 20.0215Z" fill="#002273"/>
<path d="M41.8281 22.886H46.8695V17.8208H51.1214V22.886H56.1866V27.1379H51.1214V32.1792H46.8695V27.1379H41.8281V22.886Z" fill="#6F727B"/>
<path d="M65.8274 10.7248C66.2398 10.2471 66.221 9.52425 65.7712 9.06538L61.1915 4.4579C60.7167 3.98018 59.9482 3.98018 59.4733 4.4579C58.9985 4.93562 58.9985 5.70877 59.4733 6.18649L64.053 10.794C64.2904 11.0328 64.6028 11.1523 64.9152 11.1523C65.1839 11.1523 65.4526 11.058 65.6775 10.8757C65.6962 10.8505 65.715 10.8254 65.7337 10.8065C65.765 10.7751 65.7962 10.7563 65.8274 10.7311" fill="#9F24E2"/>
<path d="M65.0547 17.7021L67.1977 19.8582C67.2602 19.921 67.3289 19.9776 67.3977 20.0216C67.3352 19.9776 67.2789 19.9336 67.229 19.8833L65.0547 17.7084V17.7021Z" fill="#9F24E2"/>
<path d="M58.254 7.41249C57.7791 6.93477 57.0107 6.93477 56.5358 7.41249C56.061 7.89021 56.061 8.66336 56.5358 9.14108L62.009 14.6537L63.6834 12.9126L58.254 7.41249Z" fill="#9F24E2"/>
<path d="M65.8296 10.7251C65.7984 10.7502 65.7609 10.7754 65.7359 10.8005C65.7172 10.8257 65.6984 10.8445 65.6797 10.8697C65.7109 10.8445 65.7484 10.8194 65.7734 10.7942C65.7922 10.7754 65.8109 10.7502 65.8296 10.7251Z" fill="#002273"/>
<path d="M62.0078 14.6537L65.0505 17.7024L62.0078 14.6475V14.6537Z" fill="#002273"/>
<path d="M66.4219 15.6279L68.9085 18.1296C69.3834 18.6073 69.3834 19.3805 68.9085 19.8582C68.6711 20.0971 68.3587 20.2165 68.0463 20.2165C67.9339 20.2165 67.8214 20.1976 67.7152 20.1662C68.14 20.2982 68.6211 20.2102 68.9523 19.8708C69.4271 19.3931 69.4271 18.6199 68.9523 18.1422L66.4219 15.6216V15.6279Z" fill="#002273"/>
<path d="M68.9071 19.8583C69.3819 19.3806 69.3819 18.6075 68.9071 18.1297L66.4204 15.628L63.6901 12.9062L62.0156 14.6474L65.0521 17.7023L67.2264 19.8772C67.2764 19.9275 67.3388 19.9778 67.3951 20.0155C67.495 20.0846 67.6075 20.1286 67.72 20.1601C67.8262 20.1915 67.9386 20.2103 68.0511 20.2103C68.3635 20.2103 68.6696 20.0909 68.9133 19.852" fill="#002273"/>
<path d="M67.7233 20.1661C67.6109 20.1283 67.4984 20.0906 67.3984 20.0215C67.4984 20.0843 67.6109 20.1346 67.7233 20.1661Z" fill="#002273"/>
<path d="M87.6098 10.8757C87.8348 11.058 88.1034 11.1523 88.3721 11.1523C88.6845 11.1523 88.9969 11.0328 89.2343 10.794L93.814 6.18649C94.2888 5.70877 94.2888 4.93562 93.814 4.4579C93.3392 3.98018 92.5707 3.98018 92.0958 4.4579L87.5161 9.06538C87.0663 9.51796 87.0475 10.2471 87.4599 10.7248C87.4911 10.75 87.5286 10.7751 87.5536 10.8003C87.5786 10.8191 87.5911 10.8443 87.6098 10.8694" fill="#9F24E2"/>
<path d="M85.8906 20.0216C85.9594 19.9776 86.0281 19.921 86.0906 19.8582L88.2336 17.7021L86.0593 19.877C86.0093 19.9336 85.9469 19.9776 85.8906 20.0153" fill="#9F24E2"/>
<path d="M96.7476 7.41249C96.2728 6.93477 95.5043 6.93477 95.0294 7.41249L89.5938 12.9126L91.2682 14.6537L96.7413 9.14108C97.2162 8.66336 97.2162 7.89021 96.7413 7.41249" fill="#9F24E2"/>
<path d="M87.615 10.8759C87.5838 10.8508 87.5463 10.8256 87.5213 10.7942C87.5026 10.7754 87.4838 10.7502 87.4651 10.7251C86.9902 10.3354 86.2905 10.3542 85.8406 10.8005L78.2369 18.4C78.0057 18.6263 77.8808 18.9406 77.8808 19.2675V22.7372H75.4129V19.2675C75.4129 18.9406 75.2879 18.6326 75.0567 18.4L67.453 10.8005C67.0094 10.3542 66.3097 10.3291 65.8286 10.7251C65.8098 10.7502 65.7911 10.7754 65.7724 10.7942C65.7411 10.8256 65.7099 10.8445 65.6786 10.8759C65.2663 11.3537 65.285 12.0765 65.7349 12.5354L72.9824 19.7766V44.6809C72.9824 45.3535 73.526 45.9004 74.1945 45.9004C74.8631 45.9004 75.4066 45.3535 75.4066 44.6809V25.1887H77.8745V44.6809C77.8745 45.3535 78.4181 45.9004 79.0866 45.9004C79.7552 45.9004 80.2987 45.3535 80.2987 44.6809V19.7766L87.5463 12.5354C88.0024 12.0765 88.0149 11.3537 87.6025 10.8759" fill="#002273"/>
<path d="M87.6109 10.8755C87.6109 10.8755 87.5734 10.8252 87.5547 10.8064C87.5234 10.775 87.4922 10.7561 87.4609 10.731C87.4797 10.7561 87.4984 10.7812 87.5172 10.8001C87.5484 10.8315 87.5796 10.8504 87.6109 10.8818" fill="#002273"/>
<path d="M91.2771 14.6537L91.2709 14.6475L88.2344 17.7024L91.2771 14.6537Z" fill="#002273"/>
<path d="M84.3686 19.8583C83.8938 19.3805 83.8938 18.6074 84.3686 18.1297L86.8553 15.6279L84.3249 18.1485C83.85 18.6263 83.85 19.3994 84.3249 19.8771C84.656 20.2103 85.1371 20.3046 85.562 20.1726C85.4557 20.204 85.3433 20.2228 85.2308 20.2228C84.9184 20.2228 84.6123 20.1034 84.3686 19.8646" fill="#002273"/>
<path d="M86.8662 15.6281L84.3796 18.1298C83.9047 18.6075 83.9047 19.3807 84.3796 19.8584C84.617 20.0973 84.9294 20.2167 85.2418 20.2167C85.3542 20.2167 85.4667 20.1978 85.5729 20.1664C85.6854 20.1287 85.7978 20.091 85.8978 20.0218C85.9603 19.9778 86.0165 19.9338 86.0665 19.8835L88.2408 17.7087L91.2772 14.6538L89.6028 12.9126L86.8725 15.6281H86.8662Z" fill="#002273"/>
<path d="M85.8874 20.0215C85.7874 20.0906 85.675 20.1346 85.5625 20.1661C85.675 20.1346 85.7874 20.0843 85.8874 20.0215Z" fill="#002273"/>
</svg>
