<svg width="116" height="70" viewBox="0 0 116 70" fill="none" xmlns="http://www.w3.org/2000/svg">
<mask id="mask0_4034_3537" style="mask-type:luminance" maskUnits="userSpaceOnUse" x="5" y="10" width="51" height="50">
<path d="M55.6957 10H5.02344V60H55.6957V10Z" fill="white"/>
</mask>
<g mask="url(#mask0_4034_3537)">
<path d="M49.4822 34.6959C49.3702 34.3678 49.2421 34.0557 49.0821 33.7516C48.762 33.1354 48.3538 32.5753 47.8417 32.0631C47.5536 31.767 47.2255 31.4869 46.8734 31.2308C46.8173 31.1908 46.7533 31.1428 46.6973 31.1028C45.9771 30.5906 45.1688 30.1665 44.3365 29.7904C44.1365 29.7023 43.9364 29.6143 43.7283 29.5263L40.6954 28.3259C40.3913 28.1979 39.7671 27.9418 39.431 27.7817C38.9348 27.5497 38.4547 27.3016 38.0225 27.0295C37.3103 26.5893 36.6861 26.0772 36.2059 25.453C35.9899 25.1729 35.7978 24.8688 35.6458 24.5407C35.4697 24.1646 35.3337 23.7564 35.2456 23.3083C35.1576 22.8441 34.7015 22.524 34.2293 22.6041C33.7331 22.6841 33.405 23.1562 33.5011 23.6364C33.8052 25.1569 34.5174 26.4293 35.6858 27.4856C35.9419 27.7177 36.2219 27.9418 36.526 28.1498C36.5981 28.1979 36.6701 28.2539 36.7421 28.3019C37.5744 28.8541 38.4947 29.3022 39.455 29.7103C39.471 29.7103 39.479 29.7183 39.495 29.7263L42.3439 30.8547C43.0321 31.1268 43.6963 31.4069 44.3205 31.727C44.7847 31.9591 45.2248 32.2151 45.625 32.4952C46.2732 32.9514 46.8253 33.4715 47.2495 34.1118C47.4415 34.3998 47.6016 34.7039 47.7296 35.04C47.8417 35.3201 47.9297 35.6242 47.9937 35.9523C48.0577 36.2804 48.0897 36.5925 48.0977 36.8966C48.0977 37.2568 48.0737 37.6009 48.0097 37.937C47.8657 38.6812 47.5456 39.3774 47.1214 40.0336C46.9374 40.3137 46.7453 40.5778 46.5292 40.8499C46.5292 40.8499 48.986 40.3778 48.994 40.3698C49.2261 40.0497 49.2581 39.8576 49.3621 39.6015C49.6422 38.9373 49.8103 38.2651 49.8663 37.5769C49.8983 37.2408 49.8983 36.8966 49.8743 36.5525C49.8503 36.2404 49.8103 35.9283 49.7463 35.6162C49.6823 35.2961 49.6022 34.992 49.5062 34.6959" fill="#15274F"/>
<path d="M36.2206 37.3128C36.2446 37.6249 36.2846 37.937 36.3487 38.2491C36.4127 38.5612 36.4927 38.8733 36.5887 39.1694C36.7008 39.4975 36.8288 39.8096 36.9889 40.1137C37.309 40.7299 37.7171 41.29 38.2293 41.8022C38.3973 41.9783 38.5814 42.1383 38.7734 42.3064C38.7734 42.3064 41.2222 41.8502 41.2142 41.8502C40.9901 41.7382 40.7021 41.5461 40.462 41.3781C39.8138 40.9219 39.2616 40.4018 38.8375 39.7615C38.6454 39.4735 38.4853 39.1694 38.3573 38.8333C38.2453 38.5452 38.1572 38.2491 38.0932 37.921C38.0292 37.5929 37.9972 37.2808 37.9892 36.9767C37.9892 36.6165 38.0132 36.2724 38.0772 35.9363C38.2213 35.1921 38.5414 34.4959 38.9655 33.8397C39.2296 33.4315 39.5417 33.0314 39.8778 32.6393C40.3339 32.1191 40.8461 31.6069 41.3823 31.1028L43.591 29.0061C43.599 28.9981 43.615 28.9821 43.623 28.9741C44.3512 28.2459 45.0394 27.4856 45.5996 26.6694C45.6476 26.5973 45.6956 26.5253 45.7437 26.4453C45.9437 26.1332 46.1198 25.8291 46.2638 25.517C46.944 24.1085 47.1281 22.6681 46.824 21.1396C46.728 20.6594 46.2478 20.3393 45.7517 20.4514C45.2875 20.5554 44.9914 21.0196 45.0795 21.4837C45.1675 21.9318 45.1995 22.364 45.1755 22.7721C45.1595 23.1322 45.0955 23.4843 44.9994 23.8285C44.7914 24.5887 44.4072 25.2929 43.9191 25.9651C43.615 26.3813 43.2709 26.7814 42.8948 27.1815C42.6387 27.4536 42.1585 27.9258 41.9264 28.1578L39.5737 30.3906C39.4216 30.5426 39.2616 30.7027 39.1095 30.8547C38.4773 31.5109 37.8932 32.2071 37.413 32.9434C37.373 33.0074 37.333 33.0634 37.301 33.1274C37.0689 33.5035 36.8768 33.8797 36.7168 34.2638C36.4367 34.928 36.2686 35.6002 36.2126 36.2884C36.1806 36.6245 36.1806 36.9687 36.2046 37.3128" fill="#15274F"/>
<path d="M43.5237 33.3354C43.9959 33.2473 44.0839 32.6071 43.6438 32.3991C43.6438 32.3991 43.6358 32.3991 43.6278 32.3991C43.5318 32.3511 43.4197 32.343 43.3157 32.3591L40.8829 32.8232C40.7789 32.8472 40.6828 32.8952 40.6108 32.9752C40.6108 32.9752 40.6108 32.9833 40.6028 32.9833C40.2747 33.3354 40.5948 33.8955 41.067 33.8075L43.5237 33.3354Z" fill="#15274F"/>
<path d="M39.0943 39.2253C39.0943 39.2253 39.0943 39.2253 39.0943 39.2333C39.2063 39.4174 39.4144 39.5054 39.6225 39.4654L47.0168 38.049C47.2249 38.0089 47.385 37.8409 47.417 37.6328C47.417 37.6328 47.417 37.6328 47.417 37.6248C47.473 37.2887 47.1609 37.0006 46.8248 37.0646L39.4224 38.4811C39.0783 38.5451 38.9102 38.9292 39.0863 39.2173" fill="#15274F"/>
<path d="M42.417 40.6018C41.9368 40.6898 41.8568 41.33 42.297 41.5381C42.297 41.5381 42.305 41.5381 42.313 41.5381C42.409 41.5861 42.521 41.5941 42.6251 41.5781L45.0578 41.1139C45.1619 41.0899 45.2579 41.0419 45.3299 40.9619C45.3299 40.9619 45.3299 40.9539 45.3379 40.9539C45.666 40.6018 45.3459 40.0416 44.8738 40.1296L42.417 40.6018Z" fill="#15274F"/>
<path d="M46.752 34.6398C46.6319 34.4878 46.4399 34.4077 46.2478 34.4477L39.1415 35.8082C38.9495 35.8482 38.7974 35.9842 38.7494 36.1763C38.7494 36.1763 38.7494 36.1763 38.7494 36.1843C38.6614 36.5364 38.9735 36.8645 39.3336 36.7925L46.4479 35.4321C46.808 35.36 46.976 34.9439 46.76 34.6478C46.76 34.6478 46.76 34.6478 46.76 34.6398" fill="#15274F"/>
<path d="M40.7191 19.083C41.1912 18.995 41.2792 18.3548 40.8391 18.1467C40.8391 18.1467 40.8311 18.1467 40.8231 18.1467C40.7271 18.0987 40.615 18.0827 40.511 18.1067L38.0782 18.5709C37.9742 18.5949 37.8782 18.6429 37.8061 18.7229C37.8061 18.7229 37.8061 18.7309 37.7981 18.7309C37.47 19.083 37.7901 19.6432 38.2623 19.5552L40.7191 19.083Z" fill="#15274F"/>
<path d="M36.2818 24.9729C36.2818 24.9729 36.2818 24.9729 36.2818 24.9809C36.3938 25.1649 36.6019 25.253 36.81 25.213L44.2043 23.7965C44.4124 23.7565 44.5725 23.5884 44.6045 23.3804C44.6045 23.3804 44.6045 23.3804 44.6045 23.3724C44.6605 23.0363 44.3484 22.7482 44.0123 22.8122L36.6099 24.2286C36.2658 24.2927 36.0977 24.6768 36.2738 24.9649" fill="#15274F"/>
<path d="M39.6045 26.3571C39.1243 26.4452 39.0443 27.0854 39.4845 27.2934C39.4845 27.2934 39.4925 27.2934 39.5005 27.2934C39.5965 27.3415 39.7085 27.3495 39.8126 27.3334L42.2453 26.8693C42.3494 26.8453 42.4454 26.7973 42.5174 26.7173C42.5174 26.7173 42.5174 26.7092 42.5254 26.7092C42.8535 26.3571 42.5334 25.797 42.0613 25.885L39.6045 26.3571Z" fill="#15274F"/>
<path d="M43.9395 20.3954C43.8194 20.2434 43.6274 20.1633 43.4353 20.2034L36.329 21.5638C36.137 21.6038 35.9849 21.7398 35.9369 21.9319C35.9369 21.9319 35.9369 21.9319 35.9369 21.9399C35.8489 22.292 36.161 22.6201 36.5211 22.5481L43.6354 21.1797C43.9955 21.1076 44.1635 20.6915 43.9475 20.4034C43.9475 20.4034 43.9475 20.4034 43.9475 20.3954" fill="#15274F"/>
<path d="M45.1669 22.148C45.1669 21.9799 45.1109 21.5318 45.0469 21.3317C45.0149 21.2357 44.9828 21.1477 44.9508 21.0516C44.8228 20.7155 44.6627 20.4114 44.4707 20.1233C44.0545 19.4831 43.4944 18.963 42.8462 18.5068C42.5101 18.2667 42.1419 18.0507 41.7578 17.8506C41.7578 17.8506 44.2866 17.3705 44.2786 17.3705C43.9745 17.1624 44.8388 17.8346 45.0789 18.0747C45.591 18.5868 45.9432 19.179 46.3193 19.7632C46.4793 20.0193 46.8955 21.0356 46.9115 21.7319" fill="#15274F"/>
<path d="M35.4271 24.0205C35.3711 23.8605 35.243 23.4284 35.227 23.2203C35.227 23.1243 35.219 23.0202 35.211 22.9242C35.211 22.5641 35.235 22.22 35.2991 21.8839C35.4431 21.1396 35.7632 20.4434 36.1873 19.7872C36.4114 19.4431 36.6595 19.107 36.9396 18.7869C36.9396 18.7869 34.4428 19.259 34.4268 19.267C34.3948 19.267 34.0827 19.8992 33.9466 20.2193C33.6745 20.8835 33.5625 21.5638 33.4425 22.244C33.3864 22.5401 33.3944 23.6364 33.6425 24.2926" fill="#15274F"/>
<path d="M40.9643 46.2036C40.7083 45.9715 40.4362 45.7634 40.1561 45.5794C39.5799 45.1952 38.9397 44.9151 38.2435 44.7151C37.8433 44.603 37.4272 44.523 36.9871 44.467C36.915 44.459 36.843 44.451 36.771 44.443C35.8907 44.355 34.9784 44.379 34.0661 44.467C33.8501 44.491 33.626 44.507 33.4099 44.539L30.1849 44.9872C29.8568 45.0272 29.1926 45.1072 28.8164 45.1392C28.2723 45.1872 27.7361 45.2032 27.2159 45.1792C26.3757 45.1472 25.5834 45.0032 24.8552 44.6991C24.5271 44.563 24.215 44.395 23.9189 44.1789C23.5828 43.9388 23.2627 43.6507 22.9586 43.3066C22.6465 42.9465 22.1023 42.8905 21.7262 43.1946C21.3341 43.5067 21.278 44.0829 21.5981 44.451C22.6145 45.6274 23.8549 46.3796 25.3914 46.7237C25.7275 46.7957 26.0796 46.8518 26.4477 46.8918C26.5357 46.8998 26.6237 46.9078 26.7118 46.9158C27.7041 46.9878 28.7364 46.9238 29.7608 46.8037C29.7768 46.8037 29.7928 46.8037 29.8088 46.8037L32.8417 46.3796C33.578 46.2756 34.2982 46.1956 34.9944 46.1635C35.5146 46.1395 36.0188 46.1475 36.5069 46.1956C37.2912 46.2676 38.0354 46.4516 38.7156 46.8037C39.0197 46.9558 39.3158 47.1479 39.5879 47.3799C39.828 47.572 40.052 47.7961 40.2681 48.0441C40.4842 48.2922 40.6682 48.5563 40.8203 48.8124C41.0044 49.1245 41.1484 49.4366 41.2524 49.7567C41.4925 50.4769 41.5565 51.2372 41.5085 52.0214C41.4845 52.3495 41.4445 52.6856 41.3885 53.0217C41.3885 53.0217 43.2931 51.4052 43.3011 51.3892C43.3411 50.9971 43.2771 50.813 43.2451 50.5409C43.157 49.8287 42.973 49.1565 42.6849 48.5323C42.5408 48.2202 42.3808 47.9241 42.1887 47.636C42.0207 47.3799 41.8286 47.1239 41.6205 46.8838C41.4125 46.6357 41.1884 46.4116 40.9563 46.2036" fill="#15274F"/>
<path d="M30.712 55.0065C30.88 55.2626 31.0721 55.5187 31.2802 55.7668C31.4882 56.0148 31.7123 56.2389 31.9444 56.447C32.2005 56.6791 32.4726 56.8871 32.7526 57.0712C33.3288 57.4473 33.969 57.7354 34.6572 57.9355C34.8893 57.9995 35.1294 58.0555 35.3775 58.1035L37.2821 56.503C37.026 56.519 36.6819 56.487 36.3938 56.463C35.6096 56.391 34.8653 56.2069 34.1851 55.8548C33.881 55.7027 33.5849 55.5107 33.3128 55.2786C33.0727 55.0865 32.8487 54.8625 32.6326 54.6144C32.4165 54.3663 32.2325 54.1022 32.0804 53.8461C31.8964 53.542 31.7523 53.2219 31.6483 52.9018C31.4082 52.1816 31.3442 51.4214 31.3922 50.6371C31.4242 50.149 31.4962 49.6528 31.6003 49.1486C31.7443 48.4684 31.9364 47.7722 32.1525 47.068L33.0407 44.155C33.0407 44.139 33.0407 44.123 33.0487 44.115C33.3288 43.1227 33.5529 42.1224 33.6329 41.1381C33.6329 41.0501 33.6489 40.962 33.6489 40.874C33.6729 40.5059 33.6649 40.1538 33.6489 39.8097C33.5449 38.2492 33.0007 36.9047 31.9844 35.7283C31.6643 35.3522 31.0881 35.3202 30.712 35.6563C30.3599 35.9764 30.3279 36.5286 30.632 36.8807C30.9281 37.2248 31.1681 37.5849 31.3522 37.9611C31.5122 38.2892 31.6323 38.6253 31.7203 38.9614C31.9124 39.7216 31.9204 40.5299 31.8243 41.3541C31.7603 41.8663 31.6643 42.3865 31.5282 42.9146C31.4402 43.2748 31.2562 43.923 31.1681 44.2351L30.2238 47.3321C30.1678 47.5401 30.1038 47.7562 30.0558 47.9643C29.8317 48.8525 29.6637 49.7408 29.6076 50.6211C29.6076 50.6931 29.6076 50.7652 29.5996 50.8372C29.5836 51.2773 29.5996 51.7015 29.6557 52.1096C29.7437 52.8218 29.9277 53.494 30.2158 54.1182C30.3599 54.4223 30.5199 54.7264 30.712 55.0145" fill="#15274F"/>
<path d="M35.1106 47.9401C35.4787 47.628 35.2386 47.0278 34.7505 47.0678C34.7505 47.0678 34.7425 47.0678 34.7345 47.0678C34.6304 47.0758 34.5264 47.1158 34.4464 47.1879L32.5578 48.7884C32.4778 48.8604 32.4217 48.9484 32.3897 49.0525C32.3897 49.0525 32.3897 49.0605 32.3897 49.0685C32.2777 49.5406 32.8299 49.8687 33.198 49.5566L35.1026 47.9401H35.1106Z" fill="#15274F"/>
<path d="M34.1491 55.2546C34.1491 55.2546 34.1491 55.2546 34.1571 55.2546C34.3412 55.3586 34.5732 55.3346 34.7333 55.1985L40.4711 50.325C40.6312 50.1889 40.6952 49.9649 40.6152 49.7648C40.6152 49.7648 40.6152 49.7648 40.6152 49.7568C40.4951 49.4367 40.087 49.3407 39.8229 49.5647L34.0851 54.4463C33.821 54.6704 33.853 55.0865 34.1571 55.2546" fill="#15274F"/>
<path d="M37.7181 54.8223C37.35 55.1344 37.5901 55.7346 38.0702 55.6946C38.0702 55.6946 38.0782 55.6946 38.0862 55.6946C38.1903 55.6866 38.2943 55.6466 38.3743 55.5746L40.2629 53.9741C40.3429 53.902 40.399 53.814 40.431 53.71C40.431 53.71 40.431 53.702 40.431 53.694C40.543 53.2218 39.9908 52.8937 39.6227 53.2058L37.7181 54.8223Z" fill="#15274F"/>
<path d="M38.5615 47.4999C38.3854 47.4199 38.1774 47.4519 38.0333 47.58L32.5196 52.2615C32.3755 52.3895 32.3115 52.5816 32.3595 52.7736C32.3595 52.7736 32.3595 52.7736 32.3595 52.7816C32.4555 53.1337 32.8877 53.2618 33.1678 53.0217L38.6895 48.3322C38.9696 48.0921 38.9056 47.652 38.5775 47.4999C38.5775 47.4999 38.5775 47.4999 38.5695 47.4999" fill="#15274F"/>
<path d="M25.6418 36.9286C26.01 36.6165 25.7699 36.0163 25.2817 36.0563C25.2817 36.0563 25.2737 36.0563 25.2657 36.0563C25.1617 36.0644 25.0577 36.1044 24.9776 36.1764L23.089 37.7769C23.009 37.8489 22.953 37.9369 22.921 38.041C22.921 38.041 22.921 38.049 22.921 38.057C22.8089 38.5291 23.3611 38.8572 23.7292 38.5451L25.6338 36.9286H25.6418Z" fill="#15274F"/>
<path d="M24.6804 44.235C24.6804 44.235 24.6804 44.235 24.6884 44.235C24.8724 44.3391 25.1045 44.3151 25.2645 44.179L31.0024 39.3055C31.1624 39.1694 31.2265 38.9453 31.1464 38.7453C31.1464 38.7453 31.1464 38.7453 31.1464 38.7373C31.0264 38.4172 30.6183 38.3211 30.3542 38.5452L24.6163 43.4188C24.3523 43.6428 24.3843 44.059 24.6884 44.227" fill="#15274F"/>
<path d="M28.2494 43.8028C27.8812 44.1149 28.1213 44.7151 28.6015 44.6751C28.6015 44.6751 28.6095 44.6751 28.6175 44.6751C28.7215 44.6671 28.8255 44.6271 28.9056 44.555L30.7942 42.9545C30.8742 42.8825 30.9302 42.7945 30.9622 42.6904C30.9622 42.6904 30.9622 42.6824 30.9622 42.6744C31.0743 42.2023 30.5221 41.8742 30.154 42.1863L28.2494 43.8028Z" fill="#15274F"/>
<path d="M29.0927 36.4804C28.9167 36.4004 28.7086 36.4324 28.5646 36.5604L23.0508 41.2419C22.9068 41.37 22.8427 41.57 22.8908 41.7541C22.8908 41.7541 22.8908 41.7541 22.8908 41.7621C22.9868 42.1142 23.4189 42.2422 23.699 42.0022L29.2208 37.3127C29.5009 37.0726 29.4369 36.6324 29.1088 36.4804C29.1088 36.4804 29.1088 36.4804 29.1008 36.4804" fill="#15274F"/>
<path d="M31.0269 37.4007C30.9389 37.2567 30.6748 36.8886 30.5148 36.7445C30.4428 36.6805 30.3707 36.6165 30.2907 36.5525C30.0106 36.3284 29.7225 36.1363 29.4184 35.9843C28.7382 35.6322 27.994 35.4481 27.2097 35.3761C26.8016 35.3361 26.3775 35.3281 25.9453 35.3361C25.9453 35.3361 27.9059 33.6795 27.8979 33.6795C27.5298 33.6555 28.6102 33.8076 28.9463 33.9036C29.6425 34.1037 30.2427 34.4398 30.8509 34.7679C31.115 34.9119 31.9792 35.5921 32.3394 36.1923" fill="#15274F"/>
<path d="M23.4739 43.8269C23.3459 43.7149 23.0258 43.4028 22.9057 43.2267C22.8497 43.1467 22.8017 43.0587 22.7537 42.9787C22.5696 42.6666 22.4256 42.3545 22.3215 42.0264C22.0815 41.3061 22.0174 40.5459 22.0654 39.7616C22.0895 39.3535 22.1455 38.9374 22.2255 38.5212C22.2255 38.5212 20.2889 40.1618 20.2729 40.1698C20.2489 40.1938 20.2889 40.89 20.3289 41.2341C20.4169 41.9463 20.657 42.5945 20.8891 43.2428C20.9931 43.5308 21.5373 44.4751 22.0654 44.9233" fill="#15274F"/>
<path d="M19.7847 37.6889C19.9767 37.4008 20.1448 37.1047 20.2968 36.8006C20.5929 36.1764 20.785 35.5122 20.889 34.7999C20.945 34.3918 20.969 33.9677 20.961 33.5275C20.961 33.4555 20.961 33.3835 20.961 33.3115C20.921 32.4312 20.769 31.5429 20.5529 30.6546C20.5049 30.4385 20.4489 30.2305 20.3928 30.0224L19.4966 26.9094C19.4085 26.5893 19.2325 25.9491 19.1524 25.581C19.0324 25.0528 18.9364 24.5246 18.8804 24.0125C18.8003 23.1882 18.8243 22.388 19.0244 21.6277C19.1124 21.2916 19.2405 20.9555 19.4085 20.6354C19.6006 20.2673 19.8407 19.9152 20.1448 19.5711C20.4569 19.2189 20.4409 18.6668 20.0887 18.3467C19.7206 18.0026 19.1444 18.0266 18.8163 18.4027C17.784 19.5631 17.2158 20.8995 17.0878 22.46C17.0638 22.8041 17.0558 23.1562 17.0718 23.5243C17.0718 23.6124 17.0798 23.7004 17.0878 23.7884C17.1518 24.7727 17.3679 25.781 17.632 26.7734C17.632 26.7894 17.632 26.7974 17.64 26.8134L18.4882 29.7343C18.6963 30.4385 18.8804 31.1348 19.0084 31.815C19.1044 32.3191 19.1685 32.8233 19.1925 33.3115C19.2325 34.0957 19.1524 34.848 18.8964 35.5682C18.7843 35.8883 18.6323 36.2004 18.4482 36.5125C18.2882 36.7686 18.1041 37.0246 17.88 37.2727C17.656 37.5208 17.4319 37.7369 17.1918 37.9289C16.9117 38.153 16.6156 38.3371 16.3035 38.4891C15.6153 38.8252 14.8711 39.0013 14.0788 39.0653C13.7507 39.0893 13.4066 39.0973 13.0625 39.0893C13.0625 39.0893 14.9431 40.7378 14.9511 40.7378C15.3432 40.7218 15.5193 40.6338 15.7914 40.5618C16.4956 40.3777 17.1278 40.0976 17.712 39.7295C18.0001 39.5455 18.2722 39.3374 18.5363 39.1133C18.7683 38.9052 18.9924 38.6812 19.2085 38.4411C19.4245 38.201 19.6166 37.9529 19.7927 37.6969" fill="#15274F"/>
<path d="M9.55759 28.862C9.32551 29.07 9.10144 29.2941 8.88537 29.5342C8.6693 29.7743 8.47724 30.0223 8.30119 30.2864C8.10912 30.5745 7.94107 30.8626 7.78902 31.1747C7.49293 31.7989 7.29286 32.4631 7.19683 33.1753C7.16482 33.4154 7.14082 33.6555 7.13281 33.9116C7.13281 33.9116 8.99741 35.5601 8.99741 35.5521C8.94939 35.304 8.92539 34.9599 8.91738 34.6718C8.87737 33.8876 8.9574 33.1353 9.21348 32.4151C9.32551 32.095 9.47756 31.7749 9.66162 31.4708C9.82167 31.2147 10.0057 30.9586 10.2298 30.7106C10.4539 30.4625 10.6779 30.2464 10.918 30.0543C11.1981 29.8303 11.4942 29.6462 11.8063 29.4942C12.4945 29.1581 13.2388 28.982 14.023 28.918C14.5112 28.878 15.0233 28.878 15.5435 28.918C16.2397 28.958 16.96 29.054 17.6882 29.1581L20.7132 29.6222C20.7292 29.6222 20.7452 29.6222 20.7612 29.6222C21.7855 29.7583 22.8178 29.8303 23.8182 29.7743C23.9062 29.7743 23.9942 29.7663 24.0822 29.7503C24.4504 29.7182 24.8025 29.6702 25.1466 29.5982C26.6911 29.2781 27.9475 28.5419 28.9798 27.3815C29.3079 27.0134 29.2599 26.4372 28.8678 26.1251C28.4996 25.821 27.9475 25.869 27.6354 26.2211C27.3313 26.5652 27.0032 26.8453 26.6671 27.0774C26.363 27.2855 26.0509 27.4535 25.7228 27.5816C24.9865 27.8777 24.1943 28.0057 23.354 28.0297C22.8338 28.0457 22.3057 28.0137 21.7535 27.9657C21.3774 27.9337 20.7132 27.8376 20.3851 27.7976L17.16 27.3095C16.944 27.2855 16.7199 27.2535 16.5038 27.2294C15.5915 27.1334 14.6792 27.0934 13.7989 27.1734C13.7269 27.1734 13.6549 27.1894 13.5829 27.1974C13.1427 27.2455 12.7266 27.3255 12.3185 27.4295C11.6222 27.6136 10.982 27.8937 10.3979 28.2618C10.1098 28.4458 9.83768 28.6459 9.57359 28.878" fill="#15274F"/>
<path d="M17.2117 32.175C17.5799 32.4951 18.14 32.175 18.028 31.7029C18.028 31.7029 18.028 31.6949 18.028 31.6869C18.004 31.5828 17.948 31.4868 17.868 31.4148L16.0034 29.7903C15.9233 29.7182 15.8193 29.6782 15.7153 29.6702C15.7153 29.6702 15.7073 29.6702 15.6993 29.6702C15.2191 29.6222 14.963 30.2144 15.3311 30.5345L17.2117 32.175Z" fill="#15274F"/>
<path d="M9.79398 32.2711C9.79398 32.2711 9.79398 32.2711 9.79398 32.2791C9.71395 32.4792 9.76997 32.6952 9.93002 32.8393L15.5958 37.7849C15.7559 37.9289 15.988 37.9529 16.172 37.8489C16.172 37.8489 16.172 37.8489 16.18 37.8489C16.4841 37.6808 16.5241 37.2727 16.26 37.0406L10.5862 32.087C10.3221 31.863 9.91402 31.951 9.79398 32.2711Z" fill="#15274F"/>
<path d="M10.7371 35.7203C10.3689 35.4002 9.80876 35.7203 9.9208 36.1925C9.9208 36.1925 9.9208 36.2005 9.9208 36.2085C9.94481 36.3125 10.0008 36.4086 10.0809 36.4806L11.9454 38.1051C12.0255 38.1771 12.1295 38.2171 12.2335 38.2251C12.2335 38.2251 12.2415 38.2251 12.2495 38.2251C12.7297 38.2651 12.9858 37.681 12.6177 37.3609L10.7371 35.7203Z" fill="#15274F"/>
<path d="M18.1498 35.5042C18.1979 35.3202 18.1418 35.1201 17.9978 34.9921L12.5561 30.2386C12.412 30.1105 12.2039 30.0785 12.0279 30.1505C12.0279 30.1505 12.0279 30.1505 12.0199 30.1505C11.6838 30.2946 11.6118 30.7347 11.8918 30.9828L17.3416 35.7443C17.6217 35.9844 18.0538 35.8644 18.1579 35.5122C18.1579 35.5122 18.1579 35.5122 18.1579 35.5042" fill="#15274F"/>
<path d="M26.868 21.3076C27.2361 21.6277 27.7963 21.3076 27.6843 20.8355C27.6843 20.8355 27.6843 20.8274 27.6843 20.8194C27.6602 20.7154 27.6042 20.6194 27.5242 20.5474L25.6596 18.9228C25.5796 18.8508 25.4755 18.8108 25.3715 18.8028C25.3715 18.8028 25.3635 18.8028 25.3555 18.8028C24.8754 18.7548 24.6193 19.347 24.9874 19.6671L26.868 21.3076Z" fill="#15274F"/>
<path d="M19.4424 21.4037C19.4424 21.4037 19.4424 21.4037 19.4424 21.4117C19.3624 21.6117 19.4184 21.8278 19.5785 21.9718L25.2443 26.9174C25.4043 27.0615 25.6364 27.0855 25.8205 26.9815C25.8205 26.9815 25.8205 26.9815 25.8285 26.9815C26.1326 26.8134 26.1726 26.4053 25.9085 26.1732L20.2347 21.2196C19.9706 20.9955 19.5625 21.0836 19.4424 21.4037Z" fill="#15274F"/>
<path d="M20.3777 24.8527C20.0096 24.5326 19.4494 24.8527 19.5614 25.3248C19.5614 25.3248 19.5614 25.3328 19.5614 25.3408C19.5854 25.4448 19.6415 25.5409 19.7215 25.6129L21.5861 27.2374C21.6661 27.3094 21.7701 27.3495 21.8742 27.3575C21.8742 27.3575 21.8822 27.3575 21.8902 27.3575C22.3703 27.3975 22.6264 26.8133 22.2583 26.4932L20.3777 24.8527Z" fill="#15274F"/>
<path d="M27.7983 24.6368C27.8543 24.4528 27.7983 24.2527 27.6462 24.1246L22.2045 19.3711C22.0605 19.2431 21.8524 19.2111 21.6763 19.2831C21.6763 19.2831 21.6763 19.2831 21.6683 19.2831C21.3322 19.4271 21.2602 19.8673 21.5403 20.1154L26.99 24.8769C27.2701 25.117 27.7023 24.9969 27.7983 24.6448C27.7983 24.6448 27.7983 24.6448 27.7983 24.6368Z" fill="#15274F"/>
<path d="M27.1484 26.6693C27.2845 26.5572 27.6046 26.2531 27.7246 26.0771C27.7806 25.9971 27.8367 25.909 27.8847 25.829C28.0687 25.5249 28.2208 25.2128 28.3328 24.8847C28.5889 24.1645 28.6609 23.4122 28.6289 22.628C28.6129 22.2199 28.5569 21.8037 28.4849 21.3716C28.4849 21.3716 30.4135 23.0681 30.4135 23.0601C30.3895 22.692 30.3895 23.7804 30.3415 24.1245C30.2454 24.8367 29.9893 25.4769 29.7493 26.1251C29.6452 26.4052 29.0851 27.3495 28.5409 27.7896" fill="#15274F"/>
<path d="M19.6792 20.1553C19.7753 20.0112 20.0393 19.6511 20.1994 19.5071C20.2714 19.443 20.3514 19.379 20.4235 19.315C20.7036 19.0909 20.9996 18.9069 21.3117 18.7548C22 18.4187 22.7442 18.2427 23.5285 18.1786C23.9366 18.1466 24.3607 18.1386 24.7929 18.1546C24.7929 18.1546 22.8883 16.4821 22.8722 16.4741C22.8482 16.4501 22.152 16.5941 21.8159 16.6822C21.1197 16.8662 20.5035 17.2023 19.8953 17.5144C19.6232 17.6505 18.7589 18.3227 18.3828 18.9149" fill="#15274F"/>
</g>
<mask id="mask1_4034_3537" style="mask-type:luminance" maskUnits="userSpaceOnUse" x="5" y="10" width="51" height="50">
<path d="M55.6957 10H5.02344V60H55.6957V10Z" fill="white"/>
</mask>
<g mask="url(#mask1_4034_3537)">
<path d="M50.3099 19.7071C50.2859 19.6671 50.2539 19.6271 50.2139 19.5871C47.1649 15.7538 43.1156 12.8969 38.5062 11.3364C35.8893 10.4481 33.1524 10 30.3675 10C27.5827 10 24.7978 10.4561 22.1569 11.3604C17.5474 12.9369 13.5062 15.8019 10.4812 19.6431C6.92004 24.1405 5.03144 29.5583 5.02344 35.3121V35.3521C5.02344 40.6258 6.63195 45.6914 9.68093 49.9888C12.89 54.5262 17.5715 57.9193 22.8531 59.5599C23.1973 59.6639 23.5094 59.7519 23.8054 59.8319C25.9261 60.4081 28.1348 60.6962 30.3675 60.6962C32.6003 60.6962 34.961 60.3841 37.1617 59.7759L37.2738 59.7439C37.2738 59.7439 37.2978 59.7439 37.3138 59.7359C42.5634 58.2474 47.269 55.0144 50.582 50.645C53.9351 46.2196 55.7117 40.9299 55.7117 35.3601V35.3201C55.7037 29.5903 53.8311 24.2045 50.3099 19.7151M48.2053 19.387H46.6288L38.9463 14.9776L38.9703 13.009C42.5074 14.3694 45.6684 16.5541 48.2053 19.387ZM22.8852 31.5509L30.3675 26.1092L37.8499 31.5509L35.6892 38.193L35.001 40.3057H25.7261L25.1179 38.4331L22.8771 31.5429L22.8852 31.5509ZM24.4697 40.9539L24.4377 41.0019L19.9482 47.6601L13.3381 45.9875L12.922 45.8835L12.874 45.6834L10.5212 36.1204L13.6422 31.1348L14.5865 29.6303L21.5087 31.831L22.0849 33.6076L24.4697 40.9459V40.9539ZM38.138 16.122L41.035 17.7865L45.7405 20.4834V24.5086L45.7565 28.2778L39.9466 30.1264L38.8022 30.4866L33.6646 26.7574L31.1038 24.8928L31.1198 17.8985L38.138 16.114V16.122ZM39.2344 31.839L46.1566 29.6383L47.7091 32.1191L50.2139 36.1284L48.4453 43.8028L47.9732 45.8435L40.8349 47.444L36.2734 40.9139L39.2264 31.839H39.2344ZM23.0532 13.009L23.0692 12.5448C25.422 11.7926 27.8788 11.4085 30.3675 11.4085C32.8563 11.4085 35.2491 11.7766 37.5699 12.5128L37.5458 14.8335L36.4655 15.1056L30.4476 16.6341L23.0132 14.2734L23.0612 13.009H23.0532ZM22.397 15.5458L29.1111 17.6745L29.7193 17.8665V21.2916L29.7033 24.8447L26.0462 27.5016L21.9328 30.4866L14.9786 28.2778L14.9946 20.4513L18.3557 18.2186L22.389 15.5378L22.397 15.5458ZM21.6448 13.049L21.5967 14.3934L14.0823 19.379H12.5298C15.0346 16.5781 18.1476 14.4174 21.6368 13.049M11.3695 20.7794H13.5942L13.5782 26.8294V28.598L10.3531 33.7436L9.42485 35.2321L6.92004 34.8079L6.43189 34.7279C6.55993 29.6303 8.26447 24.8287 11.3695 20.7875M6.43989 36.1444L9.20077 36.6165L11.5855 46.3236L10.2491 48.3243C7.88835 44.6751 6.58394 40.5058 6.43989 36.1444ZM23.5734 58.3035C23.4773 58.2714 23.3733 58.2474 23.2693 58.2154C18.4357 56.7189 14.1304 53.654 11.1054 49.5647L12.6499 47.2519L18.9399 48.8444L19.8442 49.0765L24.5337 55.9587L23.5734 58.3115V58.3035ZM24.9418 58.6636L25.7981 56.5749H35.017L35.9853 58.6236C32.4002 59.4878 28.543 59.5038 24.9498 58.6636M35.0971 55.1745H25.7101L21.7248 49.3326L21.1166 48.4443L24.1656 43.9709L25.686 41.7462H35.1211L39.6185 48.3483L36.1614 53.614L35.0971 55.1745ZM37.3618 58.2554L36.2734 55.9427L37.3298 54.3902L40.9629 48.8604L48.1332 47.2439L49.2376 50.0928C46.2126 53.9501 42.0273 56.831 37.3698 58.2554M50.2219 48.7484L49.3016 46.3796L51.5583 36.6165L51.8704 36.5605L54.3112 36.1444C54.1672 40.6898 52.7587 45.0032 50.2219 48.7484ZM53.8311 34.8079L51.3263 35.2321L50.398 33.7436L47.1729 28.598V26.8294L47.1569 20.7794H49.3816C52.4866 24.8207 54.1832 29.6143 54.3192 34.7199L53.8311 34.7999V34.8079Z" fill="#CBC545"/>
</g>
<path d="M60.6953 32.886H65.7367V27.8208H69.9886V32.886H75.0537V37.1379H69.9886V42.1792H65.7367V37.1379H60.6953V32.886Z" fill="#6F727B"/>
<path d="M84.7024 20.7248C85.1148 20.2471 85.096 19.5242 84.6462 19.0654L80.0665 14.4579C79.5917 13.9802 78.8232 13.9802 78.3483 14.4579C77.8735 14.9356 77.8735 15.7088 78.3483 16.1865L82.928 20.794C83.1654 21.0328 83.4778 21.1523 83.7902 21.1523C84.0589 21.1523 84.3276 21.058 84.5525 20.8757C84.5712 20.8505 84.59 20.8254 84.6087 20.8065C84.64 20.7751 84.6712 20.7563 84.7024 20.7311" fill="#9F24E2"/>
<path d="M83.9297 27.7021L86.0727 29.8582C86.1352 29.921 86.2039 29.9776 86.2727 30.0216C86.2102 29.9776 86.1539 29.9336 86.104 29.8833L83.9297 27.7084V27.7021Z" fill="#9F24E2"/>
<path d="M77.129 17.4122C76.6541 16.9345 75.8857 16.9345 75.4108 17.4122C74.936 17.89 74.936 18.6631 75.4108 19.1408L80.884 24.6535L82.5584 22.9123L77.129 17.4122Z" fill="#9F24E2"/>
<path d="M84.7046 20.7251C84.6734 20.7502 84.6359 20.7754 84.6109 20.8005C84.5922 20.8257 84.5734 20.8445 84.5547 20.8697C84.5859 20.8445 84.6234 20.8194 84.6484 20.7942C84.6672 20.7754 84.6859 20.7502 84.7046 20.7251Z" fill="#002273"/>
<path d="M80.8828 24.6535L83.9255 27.7021L80.8828 24.6472V24.6535Z" fill="#002273"/>
<path d="M85.2969 25.6279L87.7835 28.1296C88.2584 28.6073 88.2584 29.3805 87.7835 29.8582C87.5461 30.0971 87.2337 30.2165 86.9213 30.2165C86.8089 30.2165 86.6964 30.1976 86.5902 30.1662C87.015 30.2982 87.4961 30.2102 87.8273 29.8708C88.3021 29.3931 88.3021 28.6199 87.8273 28.1422L85.2969 25.6216V25.6279Z" fill="#002273"/>
<path d="M87.7821 29.8581C88.2569 29.3804 88.2569 28.6072 87.7821 28.1295L85.2954 25.6278L82.5651 22.906L80.8906 24.6472L83.9271 27.7021L86.1014 29.8769C86.1514 29.9272 86.2138 29.9775 86.2701 30.0152C86.37 30.0844 86.4825 30.1284 86.595 30.1598C86.7012 30.1912 86.8136 30.2101 86.9261 30.2101C87.2385 30.2101 87.5446 30.0907 87.7883 29.8518" fill="#002273"/>
<path d="M86.5983 30.1663C86.4859 30.1286 86.3734 30.0909 86.2734 30.0217C86.3734 30.0846 86.4859 30.1349 86.5983 30.1663Z" fill="#002273"/>
<path d="M106.485 20.8757C106.71 21.058 106.978 21.1523 107.247 21.1523C107.559 21.1523 107.872 21.0328 108.109 20.794L112.689 16.1865C113.164 15.7088 113.164 14.9356 112.689 14.4579C112.214 13.9802 111.446 13.9802 110.971 14.4579L106.391 19.0654C105.941 19.518 105.923 20.2471 106.335 20.7248C106.366 20.75 106.404 20.7751 106.429 20.8003C106.454 20.8191 106.466 20.8443 106.485 20.8694" fill="#9F24E2"/>
<path d="M104.766 30.0216C104.834 29.9776 104.903 29.921 104.966 29.8582L107.109 27.7021L104.934 29.877C104.884 29.9336 104.822 29.9776 104.766 30.0153" fill="#9F24E2"/>
<path d="M115.623 17.4122C115.148 16.9345 114.379 16.9345 113.904 17.4122L108.469 22.9123L110.143 24.6535L115.616 19.1408C116.091 18.6631 116.091 17.89 115.616 17.4122" fill="#9F24E2"/>
<path d="M106.49 20.8757C106.459 20.8505 106.421 20.8254 106.396 20.794C106.378 20.7751 106.359 20.75 106.34 20.7248C105.865 20.3351 105.165 20.354 104.716 20.8003L97.1119 28.3998C96.8807 28.6261 96.7558 28.9404 96.7558 29.2672V32.737H94.2879V29.2672C94.2879 28.9404 94.1629 28.6324 93.9317 28.3998L86.328 20.8003C85.8844 20.354 85.1847 20.3288 84.7036 20.7248C84.6848 20.75 84.6661 20.7751 84.6474 20.794C84.6161 20.8254 84.5849 20.8443 84.5536 20.8757C84.1413 21.3534 84.16 22.0763 84.6099 22.5351L91.8574 29.7764V54.6807C91.8574 55.3532 92.401 55.9001 93.0695 55.9001C93.7381 55.9001 94.2816 55.3532 94.2816 54.6807V35.1884H96.7495V54.6807C96.7495 55.3532 97.2931 55.9001 97.9616 55.9001C98.6302 55.9001 99.1737 55.3532 99.1737 54.6807V29.7764L106.421 22.5351C106.877 22.0763 106.89 21.3534 106.478 20.8757" fill="#002273"/>
<path d="M106.486 20.8758C106.486 20.8758 106.448 20.8255 106.43 20.8066C106.398 20.7752 106.367 20.7563 106.336 20.7312C106.355 20.7563 106.373 20.7815 106.392 20.8003C106.423 20.8318 106.455 20.8506 106.486 20.8821" fill="#002273"/>
<path d="M110.152 24.6535L110.146 24.6472L107.109 27.7021L110.152 24.6535Z" fill="#002273"/>
<path d="M103.244 29.8583C102.769 29.3805 102.769 28.6074 103.244 28.1297L105.73 25.6279L103.2 28.1485C102.725 28.6263 102.725 29.3994 103.2 29.8771C103.531 30.2103 104.012 30.3046 104.437 30.1726C104.331 30.204 104.218 30.2228 104.106 30.2228C103.793 30.2228 103.487 30.1034 103.244 29.8646" fill="#002273"/>
<path d="M105.741 25.6278L103.255 28.1296C102.78 28.6073 102.78 29.3804 103.255 29.8582C103.492 30.097 103.804 30.2164 104.117 30.2164C104.229 30.2164 104.342 30.1976 104.448 30.1662C104.56 30.1284 104.673 30.0907 104.773 30.0216C104.835 29.9776 104.892 29.9336 104.942 29.8833L107.116 27.7084L110.152 24.6535L108.478 22.9124L105.747 25.6278H105.741Z" fill="#002273"/>
<path d="M104.762 30.0217C104.662 30.0909 104.55 30.1349 104.438 30.1663C104.55 30.1349 104.662 30.0846 104.762 30.0217Z" fill="#002273"/>
</svg>
