<svg width="98" height="50" viewBox="0 0 98 50" fill="none" xmlns="http://www.w3.org/2000/svg">
<path d="M10.5501 10.7248C10.9624 10.2471 10.9437 9.52425 10.4939 9.06538L5.91415 4.4579C5.43931 3.98018 4.67081 3.98018 4.19597 4.4579C3.72113 4.93562 3.72113 5.70877 4.19597 6.18649L8.77568 10.794C9.0131 11.0328 9.3255 11.1523 9.63789 11.1523C9.90655 11.1523 10.1752 11.058 10.4001 10.8757C10.4189 10.8505 10.4376 10.8254 10.4564 10.8065C10.4876 10.7751 10.5188 10.7563 10.5501 10.7311" fill="#AFAFAF"/>
<path d="M9.77441 17.7021L11.9174 19.8582C11.9799 19.921 12.0487 19.9776 12.1174 20.0216C12.0549 19.9776 11.9987 19.9336 11.9487 19.8833L9.77441 17.7084V17.7021Z" fill="#002273"/>
<path d="M2.97665 7.41225C2.50181 6.93453 1.73331 6.93453 1.25847 7.41225C0.783634 7.88997 0.783634 8.66312 1.25847 9.14084L6.73163 14.6535L8.40607 12.9123L2.97665 7.41225Z" fill="#AFAFAF"/>
<path d="M10.5494 10.7251C10.5181 10.7502 10.4806 10.7754 10.4556 10.8005C10.4369 10.8257 10.4182 10.8445 10.3994 10.8697C10.4307 10.8445 10.4681 10.8194 10.4931 10.7942C10.5119 10.7754 10.5306 10.7502 10.5494 10.7251Z" fill="#002273"/>
<path d="M6.73242 14.6535L9.77515 17.7021L6.73242 14.6472V14.6535Z" fill="#002273"/>
<path d="M11.1426 15.6279L13.6292 18.1296C14.1041 18.6073 14.1041 19.3805 13.6292 19.8582C13.3918 20.0971 13.0794 20.2165 12.767 20.2165C12.6546 20.2165 12.5421 20.1976 12.4359 20.1662C12.8608 20.2982 13.3418 20.2102 13.673 19.8708C14.1478 19.3931 14.1478 18.6199 13.673 18.1422L11.1426 15.6216V15.6279Z" fill="#002273"/>
<path d="M13.6287 19.8581C14.1036 19.3804 14.1036 18.6072 13.6287 18.1295L11.1421 15.6278L8.41174 12.906L6.7373 14.6472L9.77378 17.7021L11.9481 19.8769C11.998 19.9272 12.0605 19.9775 12.1167 20.0152C12.2167 20.0844 12.3292 20.1284 12.4416 20.1598C12.5479 20.1912 12.6603 20.2101 12.7728 20.2101C13.0852 20.2101 13.3913 20.0907 13.635 19.8518" fill="#002273"/>
<path d="M12.4431 20.1663C12.3306 20.1286 12.2181 20.0909 12.1182 20.0217C12.2181 20.0846 12.3306 20.1349 12.4431 20.1663Z" fill="#002273"/>
<path d="M32.3354 10.8757C32.5603 11.058 32.829 11.1523 33.0977 11.1523C33.4101 11.1523 33.7225 11.0328 33.9599 10.794L38.5396 6.18649C39.0144 5.70877 39.0144 4.93562 38.5396 4.4579C38.0647 3.98018 37.2963 3.98018 36.8214 4.4579L32.2417 9.06538C31.7919 9.51796 31.7731 10.2471 32.1855 10.7248C32.2167 10.75 32.2542 10.7751 32.2792 10.8003C32.3042 10.8191 32.3167 10.8443 32.3354 10.8694" fill="#7F0064"/>
<path d="M30.6113 20.0216C30.6801 19.9776 30.7488 19.921 30.8113 19.8582L32.9543 17.7021L30.78 19.877C30.73 19.9336 30.6676 19.9776 30.6113 20.0153" fill="#002273"/>
<path d="M41.4703 7.41225C40.9954 6.93453 40.2269 6.93453 39.7521 7.41225L34.3164 12.9123L35.9908 14.6535L41.464 9.14084C41.9388 8.66312 41.9388 7.88997 41.464 7.41225" fill="#7F0064"/>
<path d="M32.3357 10.8757C32.3045 10.8505 32.267 10.8254 32.242 10.794C32.2233 10.7751 32.2045 10.75 32.1858 10.7248C31.7109 10.3351 31.0112 10.354 30.5613 10.8003L22.9576 18.3998C22.7264 18.6261 22.6015 18.9404 22.6015 19.2672V22.737H20.1336V19.2672C20.1336 18.9404 20.0086 18.6324 19.7774 18.3998L12.1737 10.8003C11.7301 10.354 11.0304 10.3288 10.5493 10.7248C10.5305 10.75 10.5118 10.7751 10.4931 10.794C10.4618 10.8254 10.4306 10.8443 10.3993 10.8757C9.98698 11.3534 10.0057 12.0763 10.4556 12.5351L17.7031 19.7764V44.6807C17.7031 45.3532 18.2467 45.9001 18.9152 45.9001C19.5838 45.9001 20.1273 45.3532 20.1273 44.6807V25.1884H22.5952V44.6807C22.5952 45.3532 23.1388 45.9001 23.8073 45.9001C24.4759 45.9001 25.0194 45.3532 25.0194 44.6807V19.7764L32.267 12.5351C32.7231 12.0763 32.7356 11.3534 32.3232 10.8757" fill="#002273"/>
<path d="M32.3365 10.8758C32.3365 10.8758 32.299 10.8255 32.2802 10.8066C32.249 10.7752 32.2178 10.7563 32.1865 10.7312C32.2053 10.7563 32.224 10.7815 32.2428 10.8003C32.274 10.8318 32.3052 10.8506 32.3365 10.8821" fill="#002273"/>
<path d="M35.9968 14.6535L35.9906 14.6472L32.9541 17.7021L35.9968 14.6535Z" fill="#002273"/>
<path d="M29.0932 19.8583C28.6184 19.3805 28.6184 18.6074 29.0932 18.1297L31.5799 15.6279L29.0495 18.1485C28.5746 18.6263 28.5746 19.3994 29.0495 19.8771C29.3806 20.2103 29.8617 20.3046 30.2866 20.1726C30.1804 20.204 30.0679 20.2228 29.9554 20.2228C29.643 20.2228 29.3369 20.1034 29.0932 19.8646" fill="#002273"/>
<path d="M31.5869 15.6278L29.1003 18.1296C28.6254 18.6073 28.6254 19.3804 29.1003 19.8582C29.3377 20.097 29.6501 20.2164 29.9625 20.2164C30.0749 20.2164 30.1874 20.1976 30.2936 20.1662C30.4061 20.1284 30.5185 20.0907 30.6185 20.0216C30.681 19.9776 30.7372 19.9336 30.7872 19.8833L32.9615 17.7084L35.998 14.6535L34.3235 12.9124L31.5932 15.6278H31.5869Z" fill="#002273"/>
<path d="M30.611 20.0217C30.5111 20.0909 30.3986 20.1349 30.2861 20.1663C30.3986 20.1349 30.5111 20.0846 30.611 20.0217Z" fill="#002273"/>
<path d="M41.8203 22.886H46.8617V17.8208H51.1136V22.886H56.1787V27.1379H51.1136V32.1792H46.8617V27.1379H41.8203V22.886Z" fill="#6F727B"/>
<path d="M65.8255 10.7248C66.2378 10.2471 66.2191 9.52425 65.7692 9.06538L61.1895 4.4579C60.7147 3.98018 59.9462 3.98018 59.4714 4.4579C58.9965 4.93562 58.9965 5.70877 59.4714 6.18649L64.0511 10.794C64.2885 11.0328 64.6009 11.1523 64.9133 11.1523C65.1819 11.1523 65.4506 11.058 65.6755 10.8757C65.6943 10.8505 65.713 10.8254 65.7318 10.8065C65.763 10.7751 65.7942 10.7563 65.8255 10.7311" fill="#9F24E2"/>
<path d="M65.0508 17.7021L67.1938 19.8582C67.2563 19.921 67.325 19.9776 67.3937 20.0216C67.3313 19.9776 67.275 19.9336 67.2251 19.8833L65.0508 17.7084V17.7021Z" fill="#9F24E2"/>
<path d="M58.253 7.41225C57.7782 6.93453 57.0097 6.93453 56.5348 7.41225C56.06 7.88997 56.06 8.66312 56.5348 9.14084L62.008 14.6535L63.6824 12.9123L58.253 7.41225Z" fill="#9F24E2"/>
<path d="M65.8257 10.7251C65.7945 10.7502 65.757 10.7754 65.732 10.8005C65.7133 10.8257 65.6945 10.8445 65.6758 10.8697C65.707 10.8445 65.7445 10.8194 65.7695 10.7942C65.7882 10.7754 65.807 10.7502 65.8257 10.7251Z" fill="#002273"/>
<path d="M62.0088 14.6535L65.0515 17.7021L62.0088 14.6472V14.6535Z" fill="#002273"/>
<path d="M66.4189 15.6279L68.9056 18.1296C69.3805 18.6073 69.3805 19.3805 68.9056 19.8582C68.6682 20.0971 68.3558 20.2165 68.0434 20.2165C67.9309 20.2165 67.8185 20.1976 67.7123 20.1662C68.1371 20.2982 68.6182 20.2102 68.9493 19.8708C69.4242 19.3931 69.4242 18.6199 68.9493 18.1422L66.4189 15.6216V15.6279Z" fill="#002273"/>
<path d="M68.9051 19.8581C69.3799 19.3804 69.3799 18.6072 68.9051 18.1295L66.4184 15.6278L63.6881 12.906L62.0137 14.6472L65.0502 17.7021L67.2244 19.8769C67.2744 19.9272 67.3369 19.9775 67.3931 20.0152C67.4931 20.0844 67.6055 20.1284 67.718 20.1598C67.8242 20.1912 67.9367 20.2101 68.0491 20.2101C68.3615 20.2101 68.6677 20.0907 68.9114 19.8518" fill="#002273"/>
<path d="M67.7194 20.1663C67.607 20.1286 67.4945 20.0909 67.3945 20.0217C67.4945 20.0846 67.607 20.1349 67.7194 20.1663Z" fill="#002273"/>
<path d="M87.6118 10.8757C87.8367 11.058 88.1054 11.1523 88.374 11.1523C88.6864 11.1523 88.9988 11.0328 89.2362 10.794L93.816 6.18649C94.2908 5.70877 94.2908 4.93562 93.816 4.4579C93.3411 3.98018 92.5726 3.98018 92.0978 4.4579L87.5181 9.06538C87.0682 9.51796 87.0495 10.2471 87.4618 10.7248C87.4931 10.75 87.5306 10.7751 87.5556 10.8003C87.5806 10.8191 87.593 10.8443 87.6118 10.8694" fill="#9F24E2"/>
<path d="M85.8887 20.0216C85.9574 19.9776 86.0261 19.921 86.0886 19.8582L88.2316 17.7021L86.0574 19.877C86.0074 19.9336 85.9449 19.9776 85.8887 20.0153" fill="#9F24E2"/>
<path d="M96.7466 7.41225C96.2718 6.93453 95.5033 6.93453 95.0284 7.41225L89.5928 12.9123L91.2672 14.6535L96.7404 9.14084C97.2152 8.66312 97.2152 7.88997 96.7404 7.41225" fill="#9F24E2"/>
<path d="M87.6131 10.8757C87.5818 10.8505 87.5443 10.8254 87.5193 10.794C87.5006 10.7751 87.4819 10.75 87.4631 10.7248C86.9883 10.3351 86.2885 10.354 85.8387 10.8003L78.235 18.3998C78.0038 18.6261 77.8788 18.9404 77.8788 19.2672V22.737H75.4109V19.2672C75.4109 18.9404 75.286 18.6324 75.0548 18.3998L67.4511 10.8003C67.0075 10.354 66.3077 10.3288 65.8266 10.7248C65.8079 10.75 65.7891 10.7751 65.7704 10.794C65.7392 10.8254 65.7079 10.8443 65.6767 10.8757C65.2643 11.3534 65.2831 12.0763 65.7329 12.5351L72.9805 19.7764V44.6807C72.9805 45.3532 73.524 45.9001 74.1926 45.9001C74.8611 45.9001 75.4047 45.3532 75.4047 44.6807V25.1884H77.8726V44.6807C77.8726 45.3532 78.4162 45.9001 79.0847 45.9001C79.7532 45.9001 80.2968 45.3532 80.2968 44.6807V19.7764L87.5443 12.5351C88.0004 12.0763 88.0129 11.3534 87.6006 10.8757" fill="#002273"/>
<path d="M87.6128 10.8758C87.6128 10.8758 87.5754 10.8255 87.5566 10.8066C87.5254 10.7752 87.4941 10.7563 87.4629 10.7312C87.4816 10.7563 87.5004 10.7815 87.5191 10.8003C87.5504 10.8318 87.5816 10.8506 87.6128 10.8821" fill="#002273"/>
<path d="M91.2732 14.6535L91.2669 14.6472L88.2305 17.7021L91.2732 14.6535Z" fill="#002273"/>
<path d="M84.3686 19.8583C83.8938 19.3805 83.8938 18.6074 84.3686 18.1297L86.8553 15.6279L84.3249 18.1485C83.85 18.6263 83.85 19.3994 84.3249 19.8771C84.656 20.2103 85.1371 20.3046 85.562 20.1726C85.4557 20.204 85.3433 20.2228 85.2308 20.2228C84.9184 20.2228 84.6123 20.1034 84.3686 19.8646" fill="#002273"/>
<path d="M86.8633 15.6278L84.3766 18.1296C83.9018 18.6073 83.9018 19.3804 84.3766 19.8582C84.6141 20.097 84.9265 20.2164 85.2388 20.2164C85.3513 20.2164 85.4638 20.1976 85.57 20.1662C85.6824 20.1284 85.7949 20.0907 85.8949 20.0216C85.9574 19.9776 86.0136 19.9336 86.0636 19.8833L88.2378 17.7084L91.2743 14.6535L89.5999 12.9124L86.8695 15.6278H86.8633Z" fill="#002273"/>
<path d="M85.8874 20.0217C85.7874 20.0909 85.675 20.1349 85.5625 20.1663C85.675 20.1349 85.7874 20.0846 85.8874 20.0217Z" fill="#002273"/>
</svg>
