<svg width="106" height="97" viewBox="0 0 106 97" fill="none" xmlns="http://www.w3.org/2000/svg">
<path d="M11.0032 10.9078C11.4009 10.4471 11.3828 9.75004 10.949 9.30754L6.53258 4.86432C6.07467 4.40363 5.33357 4.40363 4.87566 4.86432C4.41775 5.325 4.41775 6.07059 4.87566 6.53128L9.2921 10.9745C9.52105 11.2048 9.82231 11.32 10.1236 11.32C10.3826 11.32 10.6417 11.2291 10.8586 11.0533C10.8767 11.0291 10.8948 11.0048 10.9129 10.9866C10.943 10.9563 10.9731 10.9381 11.0032 10.9139" fill="#FFC656"/>
<path d="M10.2559 17.6365L12.3225 19.7156C12.3827 19.7763 12.449 19.8308 12.5153 19.8732C12.455 19.8308 12.4008 19.7884 12.3526 19.7399L10.2559 17.6425V17.6365Z" fill="#002273"/>
<path d="M3.70055 7.71344C3.24263 7.25275 2.50154 7.25275 2.04363 7.71344C1.58572 8.17412 1.58572 8.91971 2.04363 9.3804L7.32166 14.6965L8.9364 13.0174L3.70055 7.71344Z" fill="#FFC656"/>
<path d="M11.003 10.908C10.9729 10.9322 10.9367 10.9565 10.9126 10.9807C10.8945 11.0049 10.8765 11.0231 10.8584 11.0474C10.8885 11.0231 10.9247 10.9989 10.9488 10.9746C10.9669 10.9565 10.9849 10.9322 11.003 10.908Z" fill="#002273"/>
<path d="M7.32227 14.6965L10.2565 17.6364L7.32227 14.6904V14.6965Z" fill="#002273"/>
<path d="M11.5752 15.6359L13.9732 18.0485C14.4311 18.5092 14.4311 19.2548 13.9732 19.7155C13.7443 19.9458 13.443 20.061 13.1417 20.061C13.0333 20.061 12.9248 20.0428 12.8224 20.0125C13.2321 20.1398 13.696 20.0549 14.0154 19.7276C14.4733 19.2669 14.4733 18.5213 14.0154 18.0606L11.5752 15.6299V15.6359Z" fill="#002273"/>
<path d="M13.9729 19.7155C14.4308 19.2548 14.4308 18.5092 13.9729 18.0485L11.5749 15.6359L8.94189 13.0112L7.32715 14.6903L10.2554 17.6363L12.3521 19.7336C12.4003 19.7821 12.4606 19.8306 12.5148 19.867C12.6112 19.9337 12.7197 19.9761 12.8281 20.0064C12.9305 20.0367 13.039 20.0549 13.1474 20.0549C13.4487 20.0549 13.7439 19.9397 13.9789 19.7094" fill="#002273"/>
<path d="M12.8299 20.0127C12.7215 19.9763 12.613 19.94 12.5166 19.8733C12.613 19.9339 12.7215 19.9824 12.8299 20.0127Z" fill="#002273"/>
<path d="M32.0129 11.0533C32.2298 11.2291 32.4889 11.32 32.748 11.32C33.0492 11.32 33.3505 11.2048 33.5794 10.9745L37.9959 6.53128C38.4538 6.07059 38.4538 5.325 37.9959 4.86432C37.538 4.40363 36.7969 4.40363 36.3389 4.86432L31.9225 9.30754C31.4887 9.74398 31.4706 10.4471 31.8683 10.9078C31.8984 10.9321 31.9346 10.9563 31.9587 10.9806C31.9828 10.9987 31.9948 11.023 32.0129 11.0472" fill="#2069E7"/>
<path d="M30.3506 19.8732C30.4169 19.8308 30.4831 19.7763 30.5434 19.7156L32.61 17.6365L30.5133 19.7338C30.4651 19.7884 30.4048 19.8308 30.3506 19.8672" fill="#002273"/>
<path d="M40.8217 7.71344C40.3637 7.25275 39.6226 7.25275 39.1647 7.71344L33.9229 13.0174L35.5376 14.6965L40.8156 9.3804C41.2735 8.91971 41.2735 8.17412 40.8156 7.71344" fill="#2069E7"/>
<path d="M32.0138 11.0535C31.9837 11.0292 31.9475 11.005 31.9234 10.9747C31.9054 10.9565 31.8873 10.9322 31.8692 10.908C31.4113 10.5322 30.7365 10.5503 30.3027 10.9807L22.9701 18.3093C22.7471 18.5275 22.6266 18.8306 22.6266 19.1458V22.4919H20.2467V19.1458C20.2467 18.8306 20.1262 18.5336 19.9033 18.3093L12.5706 10.9807C12.1429 10.5503 11.468 10.5261 11.0041 10.908C10.986 10.9322 10.9679 10.9565 10.9499 10.9747C10.9197 11.005 10.8896 11.0232 10.8595 11.0535C10.4618 11.5142 10.4799 12.2113 10.9137 12.6538L17.9029 19.6368V43.6532C17.9029 44.3018 18.4271 44.8292 19.0718 44.8292C19.7165 44.8292 20.2407 44.3018 20.2407 43.6532V24.8559H22.6206V43.6532C22.6206 44.3018 23.1448 44.8292 23.7895 44.8292C24.4342 44.8292 24.9584 44.3018 24.9584 43.6532V19.6368L31.9475 12.6538C32.3874 12.2113 32.3994 11.5142 32.0018 11.0535" fill="#002273"/>
<path d="M32.0137 11.0532C32.0137 11.0532 31.9776 11.0047 31.9595 10.9866C31.9294 10.9563 31.8993 10.9381 31.8691 10.9138C31.8872 10.9381 31.9053 10.9623 31.9234 10.9805C31.9535 11.0108 31.9836 11.029 32.0137 11.0593" fill="#002273"/>
<path d="M35.5436 14.6965L35.5376 14.6904L32.6094 17.6364L35.5436 14.6965Z" fill="#002273"/>
<path d="M28.8856 19.7155C28.4277 19.2548 28.4277 18.5092 28.8856 18.0485L31.2836 15.636L28.8434 18.0667C28.3855 18.5274 28.3855 19.273 28.8434 19.7337C29.1628 20.055 29.6267 20.1459 30.0364 20.0186C29.934 20.0489 29.8255 20.0671 29.7171 20.0671C29.4158 20.0671 29.1206 19.9519 28.8856 19.7216" fill="#002273"/>
<path d="M31.2912 15.636L28.8932 18.0485C28.4353 18.5092 28.4353 19.2548 28.8932 19.7155C29.1222 19.9458 29.4235 20.061 29.7247 20.061C29.8332 20.061 29.9416 20.0428 30.044 20.0125C30.1525 19.9762 30.2609 19.9398 30.3574 19.8731C30.4176 19.8307 30.4718 19.7882 30.52 19.7398L32.6168 17.6424L35.545 14.6964L33.9303 13.0173L31.2973 15.636H31.2912Z" fill="#002273"/>
<path d="M30.3494 19.8733C30.253 19.94 30.1446 19.9824 30.0361 20.0127C30.1446 19.9824 30.253 19.9339 30.3494 19.8733Z" fill="#002273"/>
<path d="M45.1602 15.5242H50.6662V9.99219H55.31V15.5242H60.842V20.168H55.31V25.674H50.6662V20.168H45.1602V15.5242Z" fill="#6F727B"/>
<path d="M45.1602 29.2058H60.842V33.8496H45.1602V29.2058Z" fill="#6F727B"/>
<path d="M74.1429 10.9078C74.5405 10.4471 74.5225 9.75004 74.0887 9.30754L69.6722 4.86432C69.2143 4.40363 68.4732 4.40363 68.0153 4.86432C67.5574 5.325 67.5574 6.07059 68.0153 6.53128L72.4317 10.9745C72.6607 11.2048 72.962 11.32 73.2632 11.32C73.5223 11.32 73.7814 11.2291 73.9983 11.0533C74.0164 11.0291 74.0344 11.0048 74.0525 10.9866C74.0826 10.9563 74.1128 10.9381 74.1429 10.9139" fill="#9F24E2"/>
<path d="M73.3965 17.6365L75.4631 19.7156C75.5234 19.7763 75.5896 19.8308 75.6559 19.8732C75.5957 19.8308 75.5414 19.7884 75.4932 19.7399L73.3965 17.6425V17.6365Z" fill="#9F24E2"/>
<path d="M66.8412 7.71344C66.3833 7.25275 65.6422 7.25275 65.1843 7.71344C64.7263 8.17412 64.7263 8.91971 65.1843 9.3804L70.4623 14.6965L72.077 13.0174L66.8412 7.71344Z" fill="#9F24E2"/>
<path d="M74.1436 10.908C74.1135 10.9322 74.0774 10.9565 74.0532 10.9807C74.0352 11.0049 74.0171 11.0231 73.999 11.0474C74.0291 11.0231 74.0653 10.9989 74.0894 10.9746C74.1075 10.9565 74.1256 10.9322 74.1436 10.908Z" fill="#002273"/>
<path d="M70.4619 14.6965L73.3962 17.6364L70.4619 14.6904V14.6965Z" fill="#002273"/>
<path d="M74.7158 15.6359L77.1138 18.0485C77.5717 18.5092 77.5717 19.2548 77.1138 19.7155C76.8849 19.9458 76.5836 20.061 76.2824 20.061C76.1739 20.061 76.0655 20.0428 75.963 20.0125C76.3727 20.1398 76.8367 20.0549 77.156 19.7276C77.6139 19.2669 77.6139 18.5213 77.156 18.0606L74.7158 15.6299V15.6359Z" fill="#002273"/>
<path d="M77.1145 19.7155C77.5724 19.2548 77.5724 18.5092 77.1145 18.0485L74.7165 15.6359L72.0835 13.0112L70.4688 14.6903L73.397 17.6363L75.4937 19.7336C75.5419 19.7821 75.6022 19.8306 75.6564 19.867C75.7528 19.9337 75.8613 19.9761 75.9697 20.0064C76.0721 20.0367 76.1806 20.0549 76.289 20.0549C76.5903 20.0549 76.8855 19.9397 77.1205 19.7094" fill="#002273"/>
<path d="M75.9686 20.0127C75.8601 19.9763 75.7517 19.94 75.6553 19.8733C75.7517 19.9339 75.8601 19.9824 75.9686 20.0127Z" fill="#002273"/>
<path d="M95.1535 11.0533C95.3704 11.2291 95.6295 11.32 95.8886 11.32C96.1898 11.32 96.4911 11.2048 96.7201 10.9745L101.136 6.53128C101.594 6.07059 101.594 5.325 101.136 4.86432C100.679 4.40363 99.9375 4.40363 99.4796 4.86432L95.0631 9.30754C94.6293 9.74398 94.6113 10.4471 95.0089 10.9078C95.039 10.9321 95.0752 10.9563 95.0993 10.9806C95.1234 10.9987 95.1354 11.023 95.1535 11.0472" fill="#9F24E2"/>
<path d="M93.4902 19.8732C93.5565 19.8308 93.6228 19.7763 93.683 19.7156L95.7497 17.6365L93.6529 19.7338C93.6047 19.7884 93.5445 19.8308 93.4902 19.8672" fill="#9F24E2"/>
<path d="M103.962 7.71344C103.504 7.25275 102.763 7.25275 102.305 7.71344L97.0635 13.0174L98.6782 14.6965L103.956 9.3804C104.414 8.91971 104.414 8.17412 103.956 7.71344" fill="#9F24E2"/>
<path d="M95.1525 11.0535C95.1224 11.0292 95.0862 11.005 95.0621 10.9747C95.044 10.9565 95.026 10.9322 95.0079 10.908C94.55 10.5322 93.8751 10.5503 93.4413 10.9807L86.1087 18.3093C85.8858 18.5275 85.7653 18.8306 85.7653 19.1458V22.4919H83.3854V19.1458C83.3854 18.8306 83.2649 18.5336 83.0419 18.3093L75.7093 10.9807C75.2815 10.5503 74.6067 10.5261 74.1428 10.908C74.1247 10.9322 74.1066 10.9565 74.0885 10.9747C74.0584 11.005 74.0283 11.0232 73.9982 11.0535C73.6005 11.5142 73.6186 12.2113 74.0524 12.6538L81.0416 19.6368V43.6532C81.0416 44.3018 81.5658 44.8292 82.2105 44.8292C82.8551 44.8292 83.3793 44.3018 83.3793 43.6532V24.8559H85.7593V43.6532C85.7593 44.3018 86.2835 44.8292 86.9281 44.8292C87.5728 44.8292 88.097 44.3018 88.097 43.6532V19.6368L95.0862 12.6538C95.526 12.2113 95.5381 11.5142 95.1404 11.0535" fill="#002273"/>
<path d="M95.1534 11.0532C95.1534 11.0532 95.1172 11.0047 95.0992 10.9866C95.069 10.9563 95.0389 10.9381 95.0088 10.9138C95.0269 10.9381 95.0449 10.9623 95.063 10.9805C95.0931 11.0108 95.1233 11.029 95.1534 11.0593" fill="#002273"/>
<path d="M98.6842 14.6965L98.6782 14.6904L95.75 17.6364L98.6842 14.6965Z" fill="#002273"/>
<path d="M92.0262 19.7155C91.5683 19.2548 91.5683 18.5092 92.0262 18.0485L94.4242 15.636L91.9841 18.0667C91.5261 18.5274 91.5261 19.273 91.9841 19.7337C92.3034 20.055 92.7673 20.1459 93.177 20.0186C93.0746 20.0489 92.9662 20.0671 92.8577 20.0671C92.5564 20.0671 92.2612 19.9519 92.0262 19.7216" fill="#002273"/>
<path d="M94.4299 15.636L92.0319 18.0485C91.574 18.5092 91.574 19.2548 92.0319 19.7155C92.2609 19.9458 92.5621 20.061 92.8634 20.061C92.9718 20.061 93.0803 20.0428 93.1827 20.0125C93.2912 19.9762 93.3996 19.9398 93.496 19.8731C93.5563 19.8307 93.6105 19.7882 93.6587 19.7398L95.7555 17.6424L98.6837 14.6964L97.0689 13.0173L94.4359 15.636H94.4299Z" fill="#002273"/>
<path d="M93.4901 19.8733C93.3937 19.94 93.2852 19.9824 93.1768 20.0127C93.2852 19.9824 93.3937 19.9339 93.4901 19.8733Z" fill="#002273"/>
<path d="M15.9202 59.1254C16.3179 58.6647 16.2998 57.9676 15.866 57.5251L11.4496 53.0818C10.9917 52.6212 10.2506 52.6212 9.79265 53.0818C9.33474 53.5425 9.33474 54.2881 9.79265 54.7488L14.2091 59.192C14.438 59.4224 14.7393 59.5375 15.0406 59.5375C15.2996 59.5375 15.5587 59.4466 15.7756 59.2708C15.7937 59.2466 15.8118 59.2223 15.8299 59.2042C15.86 59.1738 15.8901 59.1557 15.9202 59.1314" fill="#FFC656"/>
<path d="M15.1729 65.854L17.2395 67.9332C17.2997 67.9938 17.366 68.0483 17.4323 68.0908C17.372 68.0483 17.3178 68.0059 17.2696 67.9574L15.1729 65.8601V65.854Z" fill="#CBC545"/>
<path d="M8.61754 55.931C8.15963 55.4703 7.41853 55.4703 6.96062 55.931C6.50271 56.3917 6.50271 57.1372 6.96062 57.5979L12.2387 62.914L13.8534 61.2349L8.61754 55.931Z" fill="#FFC656"/>
<path d="M15.92 59.1255C15.8899 59.1497 15.8537 59.174 15.8296 59.1982C15.8115 59.2225 15.7935 59.2407 15.7754 59.2649C15.8055 59.2407 15.8417 59.2164 15.8658 59.1922C15.8838 59.174 15.9019 59.1497 15.92 59.1255Z" fill="#002273"/>
<path d="M12.2393 62.914L15.1735 65.8539L12.2393 62.908V62.914Z" fill="#002273"/>
<path d="M16.4922 63.8535L18.8902 66.266C19.3481 66.7267 19.3481 67.4723 18.8902 67.933C18.6612 68.1633 18.36 68.2785 18.0587 68.2785C17.9503 68.2785 17.8418 68.2603 17.7394 68.23C18.1491 68.3573 18.613 68.2724 18.9324 67.9451C19.3903 67.4844 19.3903 66.7388 18.9324 66.2782L16.4922 63.8474V63.8535Z" fill="#002273"/>
<path d="M18.8899 67.933C19.3478 67.4723 19.3478 66.7267 18.8899 66.266L16.4919 63.8535L13.8589 61.2288L12.2441 62.9078L15.1724 65.8538L17.2691 67.9512C17.3173 67.9997 17.3776 68.0482 17.4318 68.0845C17.5282 68.1512 17.6367 68.1936 17.7451 68.224C17.8475 68.2543 17.956 68.2724 18.0644 68.2724C18.3657 68.2724 18.6609 68.1573 18.8959 67.9269" fill="#002273"/>
<path d="M17.7469 68.2302C17.6384 68.1939 17.53 68.1575 17.4336 68.0908C17.53 68.1514 17.6384 68.1999 17.7469 68.2302Z" fill="#002273"/>
<path d="M36.9299 59.2708C37.1468 59.4466 37.4059 59.5375 37.6649 59.5375C37.9662 59.5375 38.2675 59.4224 38.4964 59.192L42.9129 54.7488C43.3708 54.2881 43.3708 53.5425 42.9129 53.0818C42.4549 52.6212 41.7139 52.6212 41.2559 53.0818L36.8395 57.5251C36.4057 57.9615 36.3876 58.6647 36.7853 59.1254C36.8154 59.1496 36.8516 59.1738 36.8757 59.1981C36.8998 59.2163 36.9118 59.2405 36.9299 59.2648" fill="#2069E7"/>
<path d="M35.2676 68.0908C35.3339 68.0483 35.4001 67.9938 35.4604 67.9332L37.527 65.854L35.4303 67.9513C35.3821 68.0059 35.3218 68.0483 35.2676 68.0847" fill="#CBC545"/>
<path d="M45.7386 55.931C45.2807 55.4703 44.5396 55.4703 44.0817 55.931L38.8398 61.2349L40.4546 62.914L45.7326 57.5979C46.1905 57.1372 46.1905 56.3917 45.7326 55.931" fill="#2069E7"/>
<path d="M36.9308 59.2708C36.9007 59.2465 36.8645 59.2223 36.8404 59.192C36.8223 59.1738 36.8043 59.1495 36.7862 59.1253C36.3283 58.7494 35.6535 58.7676 35.2197 59.198L27.887 66.5266C27.6641 66.7448 27.5436 67.0479 27.5436 67.3631V70.7092H25.1637V67.3631C25.1637 67.0479 25.0432 66.7509 24.8202 66.5266L17.4876 59.198C17.0598 58.7676 16.385 58.7434 15.9211 59.1253C15.903 59.1495 15.8849 59.1738 15.8669 59.192C15.8367 59.2223 15.8066 59.2404 15.7765 59.2708C15.3788 59.7314 15.3969 60.4285 15.8307 60.871L22.8199 67.8541V91.8705C22.8199 92.5191 23.3441 93.0465 23.9888 93.0465C24.6335 93.0465 25.1577 92.5191 25.1577 91.8705V73.0732H27.5376V91.8705C27.5376 92.5191 28.0618 93.0465 28.7065 93.0465C29.3512 93.0465 29.8753 92.5191 29.8753 91.8705V67.8541L36.8645 60.871C37.3044 60.4285 37.3164 59.7314 36.9188 59.2708" fill="#002273"/>
<path d="M36.9307 59.2708C36.9307 59.2708 36.8946 59.2223 36.8765 59.2041C36.8464 59.1738 36.8163 59.1556 36.7861 59.1313C36.8042 59.1556 36.8223 59.1798 36.8404 59.198C36.8705 59.2283 36.9006 59.2465 36.9307 59.2768" fill="#002273"/>
<path d="M40.4606 62.914L40.4546 62.908L37.5264 65.8539L40.4606 62.914Z" fill="#002273"/>
<path d="M33.8026 67.933C33.3447 67.4723 33.3447 66.7268 33.8026 66.2661L36.2006 63.8535L33.7604 66.2843C33.3025 66.7449 33.3025 67.4905 33.7604 67.9512C34.0798 68.2725 34.5437 68.3634 34.9534 68.2361C34.851 68.2664 34.7425 68.2846 34.6341 68.2846C34.3328 68.2846 34.0376 68.1694 33.8026 67.9391" fill="#002273"/>
<path d="M36.2082 63.8535L33.8102 66.2661C33.3523 66.7268 33.3523 67.4723 33.8102 67.933C34.0392 68.1634 34.3404 68.2785 34.6417 68.2785C34.7502 68.2785 34.8586 68.2604 34.961 68.2301C35.0695 68.1937 35.1779 68.1573 35.2743 68.0906C35.3346 68.0482 35.3888 68.0058 35.437 67.9573L37.5338 65.8599L40.462 62.914L38.8473 61.2349L36.2143 63.8535H36.2082Z" fill="#002273"/>
<path d="M35.2664 68.0908C35.17 68.1575 35.0616 68.1999 34.9531 68.2302C35.0616 68.1999 35.17 68.1514 35.2664 68.0908Z" fill="#002273"/>
<path d="M46.0762 70.8528H50.9378V65.9683H55.0381V70.8528H59.9227V74.9531H55.0381V79.8148H50.9378V74.9531H46.0762V70.8528Z" fill="#6F727B"/>
<path d="M69.2249 59.1254C69.6226 58.6647 69.6045 57.9676 69.1707 57.5251L64.7543 53.0818C64.2963 52.6212 63.5553 52.6212 63.0973 53.0818C62.6394 53.5425 62.6394 54.2881 63.0973 54.7488L67.5138 59.192C67.7427 59.4224 68.044 59.5375 68.3452 59.5375C68.6043 59.5375 68.8634 59.4466 69.0803 59.2708C69.0984 59.2466 69.1165 59.2223 69.1345 59.2042C69.1647 59.1738 69.1948 59.1557 69.2249 59.1314" fill="#FFC656"/>
<path d="M68.4785 65.854L70.5451 67.9332C70.6054 67.9938 70.6717 68.0483 70.7379 68.0908C70.6777 68.0483 70.6235 68.0059 70.5753 67.9574L68.4785 65.8601V65.854Z" fill="#CBC545"/>
<path d="M61.9232 55.931C61.4653 55.4703 60.7242 55.4703 60.2663 55.931C59.8084 56.3917 59.8084 57.1372 60.2663 57.5979L65.5443 62.914L67.1591 61.2349L61.9232 55.931Z" fill="#FFC656"/>
<path d="M69.2257 59.1255C69.1955 59.1497 69.1594 59.174 69.1353 59.1982C69.1172 59.2225 69.0991 59.2407 69.0811 59.2649C69.1112 59.2407 69.1473 59.2164 69.1714 59.1922C69.1895 59.174 69.2076 59.1497 69.2257 59.1255Z" fill="#002273"/>
<path d="M65.5439 62.914L68.4782 65.8539L65.5439 62.908V62.914Z" fill="#002273"/>
<path d="M69.7979 63.8535L72.1959 66.266C72.6538 66.7267 72.6538 67.4723 72.1959 67.933C71.9669 68.1633 71.6656 68.2785 71.3644 68.2785C71.2559 68.2785 71.1475 68.2603 71.0451 68.23C71.4548 68.3573 71.9187 68.2724 72.238 67.9451C72.696 67.4844 72.696 66.7388 72.238 66.2782L69.7979 63.8474V63.8535Z" fill="#002273"/>
<path d="M72.1965 67.933C72.6544 67.4723 72.6544 66.7267 72.1965 66.266L69.7985 63.8535L67.1655 61.2288L65.5508 62.9078L68.479 65.8538L70.5758 67.9512C70.624 67.9997 70.6842 68.0482 70.7384 68.0845C70.8348 68.1512 70.9433 68.1936 71.0517 68.224C71.1542 68.2543 71.2626 68.2724 71.3711 68.2724C71.6723 68.2724 71.9676 68.1573 72.2025 67.9269" fill="#002273"/>
<path d="M71.0506 68.2302C70.9422 68.1939 70.8337 68.1575 70.7373 68.0908C70.8337 68.1514 70.9422 68.1999 71.0506 68.2302Z" fill="#002273"/>
<path d="M90.2355 59.2708C90.4525 59.4466 90.7115 59.5375 90.9706 59.5375C91.2719 59.5375 91.5731 59.4224 91.8021 59.192L96.2185 54.7488C96.6764 54.2881 96.6764 53.5425 96.2185 53.0818C95.7606 52.6212 95.0195 52.6212 94.5616 53.0818L90.1452 57.5251C89.7114 57.9615 89.6933 58.6647 90.0909 59.1254C90.1211 59.1496 90.1572 59.1738 90.1813 59.1981C90.2054 59.2163 90.2175 59.2405 90.2355 59.2648" fill="#7F0064"/>
<path d="M88.5723 68.0908C88.6385 68.0483 88.7048 67.9938 88.7651 67.9332L90.8317 65.854L88.7349 67.9513C88.6867 68.0059 88.6265 68.0483 88.5723 68.0847" fill="#CBC545"/>
<path d="M99.0443 55.931C98.5864 55.4703 97.8453 55.4703 97.3874 55.931L92.1455 61.2349L93.7602 62.914L99.0383 57.5979C99.4962 57.1372 99.4962 56.3917 99.0383 55.931" fill="#7F0064"/>
<path d="M90.2345 59.2708C90.2044 59.2465 90.1682 59.2223 90.1441 59.192C90.1261 59.1738 90.108 59.1495 90.0899 59.1253C89.632 58.7494 88.9572 58.7676 88.5234 59.198L81.1908 66.5266C80.9678 66.7448 80.8473 67.0479 80.8473 67.3631V70.7092H78.4674V67.3631C78.4674 67.0479 78.3469 66.7509 78.124 66.5266L70.7913 59.198C70.3636 58.7676 69.6887 58.7434 69.2248 59.1253C69.2067 59.1495 69.1887 59.1738 69.1706 59.192C69.1405 59.2223 69.1103 59.2404 69.0802 59.2708C68.6825 59.7314 68.7006 60.4285 69.1344 60.871L76.1236 67.8541V91.8705C76.1236 92.5191 76.6478 93.0465 77.2925 93.0465C77.9372 93.0465 78.4614 92.5191 78.4614 91.8705V73.0732H80.8413V91.8705C80.8413 92.5191 81.3655 93.0465 82.0102 93.0465C82.6549 93.0465 83.1791 92.5191 83.1791 91.8705V67.8541L90.1682 60.871C90.6081 60.4285 90.6201 59.7314 90.2225 59.2708" fill="#002273"/>
<path d="M90.2354 59.2708C90.2354 59.2708 90.1993 59.2223 90.1812 59.2041C90.1511 59.1738 90.1209 59.1556 90.0908 59.1313C90.1089 59.1556 90.127 59.1798 90.145 59.198C90.1752 59.2283 90.2053 59.2465 90.2354 59.2768" fill="#002273"/>
<path d="M93.7663 62.914L93.7603 62.908L90.832 65.8539L93.7663 62.914Z" fill="#002273"/>
<path d="M87.1083 67.933C86.6504 67.4723 86.6504 66.7268 87.1083 66.2661L89.5063 63.8535L87.0661 66.2843C86.6082 66.7449 86.6082 67.4905 87.0661 67.9512C87.3854 68.2725 87.8494 68.3634 88.2591 68.2361C88.1566 68.2664 88.0482 68.2846 87.9397 68.2846C87.6385 68.2846 87.3432 68.1694 87.1083 67.9391" fill="#002273"/>
<path d="M89.512 63.8535L87.1139 66.2661C86.656 66.7268 86.656 67.4723 87.1139 67.933C87.3429 68.1634 87.6442 68.2785 87.9454 68.2785C88.0539 68.2785 88.1623 68.2604 88.2647 68.2301C88.3732 68.1937 88.4817 68.1573 88.5781 68.0906C88.6383 68.0482 88.6925 68.0058 88.7407 67.9573L90.8375 65.8599L93.7657 62.914L92.151 61.2349L89.518 63.8535H89.512Z" fill="#002273"/>
<path d="M88.5721 68.0908C88.4757 68.1575 88.3672 68.1999 88.2588 68.2302C88.3672 68.1999 88.4757 68.1514 88.5721 68.0908Z" fill="#002273"/>
</svg>
