<svg width="98" height="50" viewBox="0 0 98 50" fill="none" xmlns="http://www.w3.org/2000/svg">
<path d="M10.5501 10.725C10.9624 10.2472 10.9437 9.52437 10.4939 9.06551L5.91415 4.45802C5.43931 3.9803 4.67081 3.9803 4.19597 4.45802C3.72113 4.93574 3.72113 5.70889 4.19597 6.18661L8.77568 10.7941C9.0131 11.033 9.3255 11.1524 9.63789 11.1524C9.90655 11.1524 10.1752 11.0581 10.4001 10.8758C10.4189 10.8507 10.4376 10.8255 10.4564 10.8067C10.4876 10.7752 10.5188 10.7564 10.5501 10.7312" fill="#CB0094"/>
<path d="M9.77441 17.7023L11.9174 19.8584C11.9799 19.9212 12.0487 19.9778 12.1174 20.0218C12.0549 19.9778 11.9987 19.9338 11.9487 19.8835L9.77441 17.7086V17.7023Z" fill="#CB0094"/>
<path d="M2.97665 7.41243C2.50181 6.93471 1.73331 6.93471 1.25847 7.41243C0.783634 7.89015 0.783634 8.6633 1.25847 9.14102L6.73163 14.6537L8.40607 12.9125L2.97665 7.41243Z" fill="#CB0094"/>
<path d="M10.5494 10.7251C10.5181 10.7502 10.4806 10.7754 10.4556 10.8005C10.4369 10.8257 10.4182 10.8445 10.3994 10.8697C10.4307 10.8445 10.4681 10.8194 10.4931 10.7942C10.5119 10.7754 10.5306 10.7502 10.5494 10.7251Z" fill="#CB0094"/>
<path d="M6.73242 14.6537L9.77515 17.7023L6.73242 14.6474V14.6537Z" fill="#CB0094"/>
<path d="M11.1426 15.6279L13.6292 18.1297C14.1041 18.6074 14.1041 19.3805 13.6292 19.8583C13.3918 20.0971 13.0794 20.2166 12.767 20.2166C12.6546 20.2166 12.5421 20.1977 12.4359 20.1663C12.8608 20.2983 13.3418 20.2103 13.673 19.8708C14.1478 19.3931 14.1478 18.62 13.673 18.1422L11.1426 15.6216V15.6279Z" fill="#CB0094"/>
<path d="M13.6287 19.8583C14.1036 19.3806 14.1036 18.6074 13.6287 18.1297L11.1421 15.6279L8.41174 12.9062L6.7373 14.6474L9.77378 17.7022L11.9481 19.8771C11.998 19.9274 12.0605 19.9777 12.1167 20.0154C12.2167 20.0846 12.3292 20.1286 12.4416 20.16C12.5479 20.1914 12.6603 20.2103 12.7728 20.2103C13.0852 20.2103 13.3913 20.0908 13.635 19.852" fill="#CB0094"/>
<path d="M12.4431 20.1663C12.3306 20.1286 12.2181 20.0909 12.1182 20.0217C12.2181 20.0846 12.3306 20.1349 12.4431 20.1663Z" fill="#CB0094"/>
<path d="M32.3354 10.8758C32.5603 11.0581 32.829 11.1524 33.0977 11.1524C33.4101 11.1524 33.7225 11.033 33.9599 10.7941L38.5396 6.18661C39.0144 5.70889 39.0144 4.93574 38.5396 4.45802C38.0647 3.9803 37.2963 3.9803 36.8214 4.45802L32.2417 9.06551C31.7919 9.51808 31.7731 10.2472 32.1855 10.725C32.2167 10.7501 32.2542 10.7752 32.2792 10.8004C32.3042 10.8192 32.3167 10.8444 32.3354 10.8695" fill="#CB0094"/>
<path d="M30.6113 20.0218C30.6801 19.9778 30.7488 19.9212 30.8113 19.8584L32.9543 17.7023L30.78 19.8772C30.73 19.9338 30.6676 19.9778 30.6113 20.0155" fill="#CB0094"/>
<path d="M41.4703 7.41243C40.9954 6.93471 40.2269 6.93471 39.7521 7.41243L34.3164 12.9125L35.9908 14.6537L41.464 9.14102C41.9388 8.6633 41.9388 7.89015 41.464 7.41243" fill="#CB0094"/>
<path d="M32.3357 10.8758C32.3045 10.8507 32.267 10.8256 32.242 10.7941C32.2233 10.7753 32.2045 10.7501 32.1858 10.725C31.7109 10.3353 31.0112 10.3541 30.5613 10.8004L22.9576 18.3999C22.7264 18.6262 22.6015 18.9405 22.6015 19.2674V22.7371H20.1336V19.2674C20.1336 18.9405 20.0086 18.6325 19.7774 18.3999L12.1737 10.8004C11.7301 10.3541 11.0304 10.329 10.5493 10.725C10.5305 10.7501 10.5118 10.7753 10.4931 10.7941C10.4618 10.8256 10.4306 10.8444 10.3993 10.8758C9.98698 11.3536 10.0057 12.0764 10.4556 12.5353L17.7031 19.7765V44.6808C17.7031 45.3534 18.2467 45.9003 18.9152 45.9003C19.5838 45.9003 20.1273 45.3534 20.1273 44.6808V25.1886H22.5952V44.6808C22.5952 45.3534 23.1388 45.9003 23.8073 45.9003C24.4759 45.9003 25.0194 45.3534 25.0194 44.6808V19.7765L32.267 12.5353C32.7231 12.0764 32.7356 11.3536 32.3232 10.8758" fill="#CB0094"/>
<path d="M32.3365 10.8759C32.3365 10.8759 32.299 10.8256 32.2802 10.8067C32.249 10.7753 32.2178 10.7564 32.1865 10.7313C32.2053 10.7564 32.224 10.7816 32.2428 10.8004C32.274 10.8318 32.3052 10.8507 32.3365 10.8821" fill="#CB0094"/>
<path d="M35.9968 14.6537L35.9906 14.6474L32.9541 17.7023L35.9968 14.6537Z" fill="#CB0094"/>
<path d="M29.0932 19.8583C28.6184 19.3806 28.6184 18.6074 29.0932 18.1297L31.5799 15.628L29.0495 18.1486C28.5746 18.6263 28.5746 19.3995 29.0495 19.8772C29.3806 20.2103 29.8617 20.3046 30.2866 20.1726C30.1804 20.204 30.0679 20.2229 29.9554 20.2229C29.643 20.2229 29.3369 20.1035 29.0932 19.8646" fill="#CB0094"/>
<path d="M31.5869 15.628L29.1003 18.1297C28.6254 18.6074 28.6254 19.3806 29.1003 19.8583C29.3377 20.0972 29.6501 20.2166 29.9625 20.2166C30.0749 20.2166 30.1874 20.1978 30.2936 20.1663C30.4061 20.1286 30.5185 20.0909 30.6185 20.0217C30.681 19.9777 30.7372 19.9337 30.7872 19.8835L32.9615 17.7086L35.998 14.6537L34.3235 12.9125L31.5932 15.628H31.5869Z" fill="#CB0094"/>
<path d="M30.611 20.0217C30.5111 20.0909 30.3986 20.1349 30.2861 20.1663C30.3986 20.1349 30.5111 20.0846 30.611 20.0217Z" fill="#CB0094"/>
<path d="M41.8203 22.8859H46.8617V17.8208H51.1136V22.8859H56.1787V27.1378H51.1136V32.1792H46.8617V27.1378H41.8203V22.8859Z" fill="#6F727B"/>
<path d="M65.8255 10.725C66.2378 10.2472 66.2191 9.52437 65.7692 9.06551L61.1895 4.45802C60.7147 3.9803 59.9462 3.9803 59.4714 4.45802C58.9965 4.93574 58.9965 5.70889 59.4714 6.18661L64.0511 10.7941C64.2885 11.033 64.6009 11.1524 64.9133 11.1524C65.1819 11.1524 65.4506 11.0581 65.6755 10.8758C65.6943 10.8507 65.713 10.8255 65.7318 10.8067C65.763 10.7752 65.7942 10.7564 65.8255 10.7312" fill="#9F24E2"/>
<path d="M65.0508 17.7023L67.1938 19.8584C67.2563 19.9212 67.325 19.9778 67.3937 20.0218C67.3313 19.9778 67.275 19.9338 67.2251 19.8835L65.0508 17.7086V17.7023Z" fill="#9F24E2"/>
<path d="M58.253 7.41243C57.7782 6.93471 57.0097 6.93471 56.5348 7.41243C56.06 7.89015 56.06 8.6633 56.5348 9.14102L62.008 14.6537L63.6824 12.9125L58.253 7.41243Z" fill="#9F24E2"/>
<path d="M65.8257 10.7251C65.7945 10.7502 65.757 10.7754 65.732 10.8005C65.7133 10.8257 65.6945 10.8445 65.6758 10.8697C65.707 10.8445 65.7445 10.8194 65.7695 10.7942C65.7882 10.7754 65.807 10.7502 65.8257 10.7251Z" fill="#9F24E2"/>
<path d="M62.0088 14.6537L65.0515 17.7023L62.0088 14.6474V14.6537Z" fill="#9F24E2"/>
<path d="M66.4189 15.6279L68.9056 18.1297C69.3805 18.6074 69.3805 19.3805 68.9056 19.8583C68.6682 20.0971 68.3558 20.2166 68.0434 20.2166C67.9309 20.2166 67.8185 20.1977 67.7123 20.1663C68.1371 20.2983 68.6182 20.2103 68.9493 19.8708C69.4242 19.3931 69.4242 18.62 68.9493 18.1422L66.4189 15.6216V15.6279Z" fill="#9F24E2"/>
<path d="M68.9051 19.8583C69.3799 19.3806 69.3799 18.6074 68.9051 18.1297L66.4184 15.6279L63.6881 12.9062L62.0137 14.6474L65.0502 17.7022L67.2244 19.8771C67.2744 19.9274 67.3369 19.9777 67.3931 20.0154C67.4931 20.0846 67.6055 20.1286 67.718 20.16C67.8242 20.1914 67.9367 20.2103 68.0491 20.2103C68.3615 20.2103 68.6677 20.0908 68.9114 19.852" fill="#9F24E2"/>
<path d="M67.7194 20.1663C67.607 20.1286 67.4945 20.0909 67.3945 20.0217C67.4945 20.0846 67.607 20.1349 67.7194 20.1663Z" fill="#9F24E2"/>
<path d="M87.6118 10.8758C87.8367 11.0581 88.1054 11.1524 88.374 11.1524C88.6864 11.1524 88.9988 11.033 89.2362 10.7941L93.816 6.18661C94.2908 5.70889 94.2908 4.93574 93.816 4.45802C93.3411 3.9803 92.5726 3.9803 92.0978 4.45802L87.5181 9.06551C87.0682 9.51808 87.0495 10.2472 87.4618 10.725C87.4931 10.7501 87.5306 10.7752 87.5556 10.8004C87.5806 10.8192 87.593 10.8444 87.6118 10.8695" fill="#9F24E2"/>
<path d="M85.8887 20.0218C85.9574 19.9778 86.0261 19.9212 86.0886 19.8584L88.2316 17.7023L86.0574 19.8772C86.0074 19.9338 85.9449 19.9778 85.8887 20.0155" fill="#9F24E2"/>
<path d="M96.7466 7.41243C96.2718 6.93471 95.5033 6.93471 95.0284 7.41243L89.5928 12.9125L91.2672 14.6537L96.7404 9.14102C97.2152 8.6633 97.2152 7.89015 96.7404 7.41243" fill="#9F24E2"/>
<path d="M87.6131 10.8758C87.5818 10.8507 87.5443 10.8256 87.5193 10.7941C87.5006 10.7753 87.4819 10.7501 87.4631 10.725C86.9883 10.3353 86.2885 10.3541 85.8387 10.8004L78.235 18.3999C78.0038 18.6262 77.8788 18.9405 77.8788 19.2674V22.7371H75.4109V19.2674C75.4109 18.9405 75.286 18.6325 75.0548 18.3999L67.4511 10.8004C67.0075 10.3541 66.3077 10.329 65.8266 10.725C65.8079 10.7501 65.7891 10.7753 65.7704 10.7941C65.7392 10.8256 65.7079 10.8444 65.6767 10.8758C65.2643 11.3536 65.2831 12.0764 65.7329 12.5353L72.9805 19.7765V44.6808C72.9805 45.3534 73.524 45.9003 74.1926 45.9003C74.8611 45.9003 75.4047 45.3534 75.4047 44.6808V25.1886H77.8726V44.6808C77.8726 45.3534 78.4162 45.9003 79.0847 45.9003C79.7532 45.9003 80.2968 45.3534 80.2968 44.6808V19.7765L87.5443 12.5353C88.0004 12.0764 88.0129 11.3536 87.6006 10.8758" fill="#9F24E2"/>
<path d="M87.6128 10.8759C87.6128 10.8759 87.5754 10.8256 87.5566 10.8067C87.5254 10.7753 87.4941 10.7564 87.4629 10.7313C87.4816 10.7564 87.5004 10.7816 87.5191 10.8004C87.5504 10.8318 87.5816 10.8507 87.6128 10.8821" fill="#9F24E2"/>
<path d="M91.2732 14.6537L91.2669 14.6474L88.2305 17.7023L91.2732 14.6537Z" fill="#9F24E2"/>
<path d="M84.3686 19.8583C83.8938 19.3806 83.8938 18.6074 84.3686 18.1297L86.8553 15.628L84.3249 18.1486C83.85 18.6263 83.85 19.3995 84.3249 19.8772C84.656 20.2103 85.1371 20.3046 85.562 20.1726C85.4557 20.204 85.3433 20.2229 85.2308 20.2229C84.9184 20.2229 84.6123 20.1035 84.3686 19.8646" fill="#9F24E2"/>
<path d="M86.8633 15.628L84.3766 18.1297C83.9018 18.6074 83.9018 19.3806 84.3766 19.8583C84.6141 20.0972 84.9265 20.2166 85.2388 20.2166C85.3513 20.2166 85.4638 20.1978 85.57 20.1663C85.6824 20.1286 85.7949 20.0909 85.8949 20.0217C85.9574 19.9777 86.0136 19.9337 86.0636 19.8835L88.2378 17.7086L91.2743 14.6537L89.5999 12.9125L86.8695 15.628H86.8633Z" fill="#9F24E2"/>
<path d="M85.8874 20.0217C85.7874 20.0909 85.675 20.1349 85.5625 20.1663C85.675 20.1349 85.7874 20.0846 85.8874 20.0217Z" fill="#9F24E2"/>
</svg>
