<svg width="106" height="97" viewBox="0 0 106 97" fill="none" xmlns="http://www.w3.org/2000/svg">
<path d="M11.0032 10.9078C11.4009 10.4471 11.3828 9.75004 10.949 9.30754L6.53258 4.86432C6.07467 4.40363 5.33357 4.40363 4.87566 4.86432C4.41775 5.325 4.41775 6.07059 4.87566 6.53128L9.2921 10.9745C9.52105 11.2048 9.82231 11.32 10.1236 11.32C10.3826 11.32 10.6417 11.2291 10.8586 11.0533C10.8767 11.0291 10.8948 11.0048 10.9129 10.9866C10.943 10.9563 10.9731 10.9381 11.0032 10.9139" fill="#FFC656"/>
<path d="M10.2559 17.6365L12.3225 19.7156C12.3827 19.7763 12.449 19.8308 12.5153 19.8732C12.455 19.8308 12.4008 19.7884 12.3526 19.7399L10.2559 17.6425V17.6365Z" fill="#002273"/>
<path d="M3.70055 7.71344C3.24263 7.25275 2.50154 7.25275 2.04363 7.71344C1.58572 8.17412 1.58572 8.91971 2.04363 9.3804L7.32166 14.6965L8.9364 13.0174L3.70055 7.71344Z" fill="#FFC656"/>
<path d="M11.003 10.908C10.9729 10.9322 10.9367 10.9565 10.9126 10.9807C10.8945 11.0049 10.8765 11.0231 10.8584 11.0474C10.8885 11.0231 10.9247 10.9989 10.9488 10.9746C10.9669 10.9565 10.9849 10.9322 11.003 10.908Z" fill="#002273"/>
<path d="M7.32227 14.6965L10.2565 17.6364L7.32227 14.6904V14.6965Z" fill="#002273"/>
<path d="M11.5752 15.6359L13.9732 18.0485C14.4311 18.5092 14.4311 19.2548 13.9732 19.7155C13.7443 19.9458 13.443 20.061 13.1417 20.061C13.0333 20.061 12.9248 20.0428 12.8224 20.0125C13.2321 20.1398 13.696 20.0549 14.0154 19.7276C14.4733 19.2669 14.4733 18.5213 14.0154 18.0606L11.5752 15.6299V15.6359Z" fill="#002273"/>
<path d="M13.9729 19.7155C14.4308 19.2548 14.4308 18.5092 13.9729 18.0485L11.5749 15.6359L8.94189 13.0112L7.32715 14.6903L10.2554 17.6363L12.3521 19.7336C12.4003 19.7821 12.4606 19.8306 12.5148 19.867C12.6112 19.9337 12.7197 19.9761 12.8281 20.0064C12.9305 20.0367 13.039 20.0549 13.1474 20.0549C13.4487 20.0549 13.7439 19.9397 13.9789 19.7094" fill="#002273"/>
<path d="M12.8299 20.0127C12.7215 19.9763 12.613 19.94 12.5166 19.8733C12.613 19.9339 12.7215 19.9824 12.8299 20.0127Z" fill="#002273"/>
<path d="M32.0129 11.0533C32.2298 11.2291 32.4889 11.32 32.748 11.32C33.0492 11.32 33.3505 11.2048 33.5794 10.9745L37.9959 6.53128C38.4538 6.07059 38.4538 5.325 37.9959 4.86432C37.538 4.40363 36.7969 4.40363 36.3389 4.86432L31.9225 9.30754C31.4887 9.74398 31.4706 10.4471 31.8683 10.9078C31.8984 10.9321 31.9346 10.9563 31.9587 10.9806C31.9828 10.9987 31.9948 11.023 32.0129 11.0472" fill="#2069E7"/>
<path d="M30.3506 19.8732C30.4169 19.8308 30.4831 19.7763 30.5434 19.7156L32.61 17.6365L30.5133 19.7338C30.4651 19.7884 30.4048 19.8308 30.3506 19.8672" fill="#002273"/>
<path d="M40.8217 7.71344C40.3637 7.25275 39.6226 7.25275 39.1647 7.71344L33.9229 13.0174L35.5376 14.6965L40.8156 9.3804C41.2735 8.91971 41.2735 8.17412 40.8156 7.71344" fill="#2069E7"/>
<path d="M32.0138 11.0535C31.9837 11.0292 31.9475 11.005 31.9234 10.9747C31.9054 10.9565 31.8873 10.9322 31.8692 10.908C31.4113 10.5322 30.7365 10.5503 30.3027 10.9807L22.9701 18.3093C22.7471 18.5275 22.6266 18.8306 22.6266 19.1458V22.4919H20.2467V19.1458C20.2467 18.8306 20.1262 18.5336 19.9033 18.3093L12.5706 10.9807C12.1429 10.5503 11.468 10.5261 11.0041 10.908C10.986 10.9322 10.9679 10.9565 10.9499 10.9747C10.9197 11.005 10.8896 11.0232 10.8595 11.0535C10.4618 11.5142 10.4799 12.2113 10.9137 12.6538L17.9029 19.6368V43.6532C17.9029 44.3018 18.4271 44.8292 19.0718 44.8292C19.7165 44.8292 20.2407 44.3018 20.2407 43.6532V24.8559H22.6206V43.6532C22.6206 44.3018 23.1448 44.8292 23.7895 44.8292C24.4342 44.8292 24.9584 44.3018 24.9584 43.6532V19.6368L31.9475 12.6538C32.3874 12.2113 32.3994 11.5142 32.0018 11.0535" fill="#002273"/>
<path d="M32.0137 11.0532C32.0137 11.0532 31.9776 11.0047 31.9595 10.9866C31.9294 10.9563 31.8993 10.9381 31.8691 10.9138C31.8872 10.9381 31.9053 10.9623 31.9234 10.9805C31.9535 11.0108 31.9836 11.029 32.0137 11.0593" fill="#002273"/>
<path d="M35.5436 14.6965L35.5376 14.6904L32.6094 17.6364L35.5436 14.6965Z" fill="#002273"/>
<path d="M28.8856 19.7155C28.4277 19.2548 28.4277 18.5092 28.8856 18.0485L31.2836 15.636L28.8434 18.0667C28.3855 18.5274 28.3855 19.273 28.8434 19.7337C29.1628 20.055 29.6267 20.1459 30.0364 20.0186C29.934 20.0489 29.8255 20.0671 29.7171 20.0671C29.4158 20.0671 29.1206 19.9519 28.8856 19.7216" fill="#002273"/>
<path d="M31.2912 15.636L28.8932 18.0485C28.4353 18.5092 28.4353 19.2548 28.8932 19.7155C29.1222 19.9458 29.4235 20.061 29.7247 20.061C29.8332 20.061 29.9416 20.0428 30.044 20.0125C30.1525 19.9762 30.2609 19.9398 30.3574 19.8731C30.4176 19.8307 30.4718 19.7882 30.52 19.7398L32.6168 17.6424L35.545 14.6964L33.9303 13.0173L31.2973 15.636H31.2912Z" fill="#002273"/>
<path d="M30.3494 19.8733C30.253 19.94 30.1446 19.9824 30.0361 20.0127C30.1446 19.9824 30.253 19.9339 30.3494 19.8733Z" fill="#002273"/>
<path d="M45.1602 15.5242H50.6662V9.99219H55.31V15.5242H60.842V20.168H55.31V25.674H50.6662V20.168H45.1602V15.5242Z" fill="#6F727B"/>
<path d="M45.1602 29.2058H60.842V33.8496H45.1602V29.2058Z" fill="#6F727B"/>
<path d="M74.1429 10.9078C74.5405 10.4471 74.5225 9.75004 74.0887 9.30754L69.6722 4.86432C69.2143 4.40363 68.4732 4.40363 68.0153 4.86432C67.5574 5.325 67.5574 6.07059 68.0153 6.53128L72.4317 10.9745C72.6607 11.2048 72.962 11.32 73.2632 11.32C73.5223 11.32 73.7814 11.2291 73.9983 11.0533C74.0164 11.0291 74.0344 11.0048 74.0525 10.9866C74.0826 10.9563 74.1128 10.9381 74.1429 10.9139" fill="#9F24E2"/>
<path d="M73.3965 17.6365L75.4631 19.7156C75.5234 19.7763 75.5896 19.8308 75.6559 19.8732C75.5957 19.8308 75.5414 19.7884 75.4932 19.7399L73.3965 17.6425V17.6365Z" fill="#9F24E2"/>
<path d="M66.8412 7.71344C66.3833 7.25275 65.6422 7.25275 65.1843 7.71344C64.7263 8.17412 64.7263 8.91971 65.1843 9.3804L70.4623 14.6965L72.077 13.0174L66.8412 7.71344Z" fill="#9F24E2"/>
<path d="M74.1436 10.908C74.1135 10.9322 74.0774 10.9565 74.0532 10.9807C74.0352 11.0049 74.0171 11.0231 73.999 11.0474C74.0291 11.0231 74.0653 10.9989 74.0894 10.9746C74.1075 10.9565 74.1256 10.9322 74.1436 10.908Z" fill="#9F24E2"/>
<path d="M70.4619 14.6965L73.3962 17.6364L70.4619 14.6904V14.6965Z" fill="#9F24E2"/>
<path d="M74.7158 15.6359L77.1138 18.0485C77.5717 18.5092 77.5717 19.2548 77.1138 19.7155C76.8849 19.9458 76.5836 20.061 76.2824 20.061C76.1739 20.061 76.0655 20.0428 75.963 20.0125C76.3727 20.1398 76.8367 20.0549 77.156 19.7276C77.6139 19.2669 77.6139 18.5213 77.156 18.0606L74.7158 15.6299V15.6359Z" fill="#9F24E2"/>
<path d="M77.1145 19.7155C77.5724 19.2548 77.5724 18.5092 77.1145 18.0485L74.7165 15.6359L72.0835 13.0112L70.4688 14.6903L73.397 17.6363L75.4937 19.7336C75.5419 19.7821 75.6022 19.8306 75.6564 19.867C75.7528 19.9337 75.8613 19.9761 75.9697 20.0064C76.0721 20.0367 76.1806 20.0549 76.289 20.0549C76.5903 20.0549 76.8855 19.9397 77.1205 19.7094" fill="#9F24E2"/>
<path d="M75.9686 20.0127C75.8601 19.9763 75.7517 19.94 75.6553 19.8733C75.7517 19.9339 75.8601 19.9824 75.9686 20.0127Z" fill="#9F24E2"/>
<path d="M95.1535 11.0533C95.3704 11.2291 95.6295 11.32 95.8886 11.32C96.1898 11.32 96.4911 11.2048 96.7201 10.9745L101.136 6.53128C101.594 6.07059 101.594 5.325 101.136 4.86432C100.679 4.40363 99.9375 4.40363 99.4796 4.86432L95.0631 9.30754C94.6293 9.74398 94.6113 10.4471 95.0089 10.9078C95.039 10.9321 95.0752 10.9563 95.0993 10.9806C95.1234 10.9987 95.1354 11.023 95.1535 11.0472" fill="#9F24E2"/>
<path d="M93.4902 19.8732C93.5565 19.8308 93.6228 19.7763 93.683 19.7156L95.7497 17.6365L93.6529 19.7338C93.6047 19.7884 93.5445 19.8308 93.4902 19.8672" fill="#9F24E2"/>
<path d="M103.962 7.71344C103.504 7.25275 102.763 7.25275 102.305 7.71344L97.0635 13.0174L98.6782 14.6965L103.956 9.3804C104.414 8.91971 104.414 8.17412 103.956 7.71344" fill="#9F24E2"/>
<path d="M95.1525 11.0535C95.1224 11.0292 95.0862 11.005 95.0621 10.9747C95.044 10.9565 95.026 10.9322 95.0079 10.908C94.55 10.5322 93.8751 10.5503 93.4413 10.9807L86.1087 18.3093C85.8858 18.5275 85.7653 18.8306 85.7653 19.1458V22.4919H83.3854V19.1458C83.3854 18.8306 83.2649 18.5336 83.0419 18.3093L75.7093 10.9807C75.2815 10.5503 74.6067 10.5261 74.1428 10.908C74.1247 10.9322 74.1066 10.9565 74.0885 10.9747C74.0584 11.005 74.0283 11.0232 73.9982 11.0535C73.6005 11.5142 73.6186 12.2113 74.0524 12.6538L81.0416 19.6368V43.6532C81.0416 44.3018 81.5658 44.8292 82.2105 44.8292C82.8551 44.8292 83.3793 44.3018 83.3793 43.6532V24.8559H85.7593V43.6532C85.7593 44.3018 86.2835 44.8292 86.9281 44.8292C87.5728 44.8292 88.097 44.3018 88.097 43.6532V19.6368L95.0862 12.6538C95.526 12.2113 95.5381 11.5142 95.1404 11.0535" fill="#9F24E2"/>
<path d="M95.1534 11.0532C95.1534 11.0532 95.1172 11.0047 95.0992 10.9866C95.069 10.9563 95.0389 10.9381 95.0088 10.9138C95.0269 10.9381 95.0449 10.9623 95.063 10.9805C95.0931 11.0108 95.1233 11.029 95.1534 11.0593" fill="#9F24E2"/>
<path d="M98.6842 14.6965L98.6782 14.6904L95.75 17.6364L98.6842 14.6965Z" fill="#9F24E2"/>
<path d="M92.0262 19.7155C91.5683 19.2548 91.5683 18.5092 92.0262 18.0485L94.4242 15.636L91.9841 18.0667C91.5261 18.5274 91.5261 19.273 91.9841 19.7337C92.3034 20.055 92.7673 20.1459 93.177 20.0186C93.0746 20.0489 92.9662 20.0671 92.8577 20.0671C92.5564 20.0671 92.2612 19.9519 92.0262 19.7216" fill="#9F24E2"/>
<path d="M94.4299 15.636L92.0319 18.0485C91.574 18.5092 91.574 19.2548 92.0319 19.7155C92.2609 19.9458 92.5621 20.061 92.8634 20.061C92.9718 20.061 93.0803 20.0428 93.1827 20.0125C93.2912 19.9762 93.3996 19.9398 93.496 19.8731C93.5563 19.8307 93.6105 19.7882 93.6587 19.7398L95.7555 17.6424L98.6837 14.6964L97.0689 13.0173L94.4359 15.636H94.4299Z" fill="#9F24E2"/>
<path d="M93.4901 19.8733C93.3937 19.94 93.2852 19.9824 93.1768 20.0127C93.2852 19.9824 93.3937 19.9339 93.4901 19.8733Z" fill="#9F24E2"/>
<path d="M10.4202 59.1254C10.8179 58.6647 10.7998 57.9676 10.366 57.5251L5.94957 53.0818C5.49166 52.6212 4.75056 52.6212 4.29265 53.0818C3.83474 53.5425 3.83474 54.2881 4.29265 54.7488L8.70909 59.192C8.93805 59.4224 9.2393 59.5375 9.54056 59.5375C9.79964 59.5375 10.0587 59.4466 10.2756 59.2708C10.2937 59.2466 10.3118 59.2223 10.3299 59.2042C10.36 59.1738 10.3901 59.1557 10.4202 59.1314" fill="#FFC656"/>
<path d="M9.67285 65.854L11.7395 67.9332C11.7997 67.9938 11.866 68.0483 11.9323 68.0908C11.872 68.0483 11.8178 68.0059 11.7696 67.9574L9.67285 65.8601V65.854Z" fill="#CBC545"/>
<path d="M3.11754 55.931C2.65963 55.4703 1.91853 55.4703 1.46062 55.931C1.00271 56.3917 1.00271 57.1372 1.46062 57.5979L6.73866 62.914L8.3534 61.2349L3.11754 55.931Z" fill="#FFC656"/>
<path d="M10.42 59.1255C10.3899 59.1497 10.3537 59.174 10.3296 59.1982C10.3115 59.2225 10.2935 59.2407 10.2754 59.2649C10.3055 59.2407 10.3417 59.2164 10.3658 59.1922C10.3838 59.174 10.4019 59.1497 10.42 59.1255Z" fill="#002273"/>
<path d="M6.73926 62.914L9.67351 65.8539L6.73926 62.908V62.914Z" fill="#002273"/>
<path d="M10.9922 63.8535L13.3902 66.266C13.8481 66.7267 13.8481 67.4723 13.3902 67.933C13.1612 68.1633 12.86 68.2785 12.5587 68.2785C12.4503 68.2785 12.3418 68.2603 12.2394 68.23C12.6491 68.3573 13.113 68.2724 13.4324 67.9451C13.8903 67.4844 13.8903 66.7388 13.4324 66.2782L10.9922 63.8474V63.8535Z" fill="#002273"/>
<path d="M13.3899 67.933C13.8478 67.4723 13.8478 66.7267 13.3899 66.266L10.9919 63.8535L8.35888 61.2288L6.74414 62.9078L9.67236 65.8538L11.7691 67.9512C11.8173 67.9997 11.8776 68.0482 11.9318 68.0845C12.0282 68.1512 12.1367 68.1936 12.2451 68.224C12.3475 68.2543 12.456 68.2724 12.5644 68.2724C12.8657 68.2724 13.1609 68.1573 13.3959 67.9269" fill="#002273"/>
<path d="M12.2469 68.2302C12.1384 68.1939 12.03 68.1575 11.9336 68.0908C12.03 68.1514 12.1384 68.1999 12.2469 68.2302Z" fill="#002273"/>
<path d="M31.4299 59.2708C31.6468 59.4466 31.9059 59.5375 32.1649 59.5375C32.4662 59.5375 32.7675 59.4224 32.9964 59.192L37.4129 54.7488C37.8708 54.2881 37.8708 53.5425 37.4129 53.0818C36.9549 52.6212 36.2139 52.6212 35.7559 53.0818L31.3395 57.5251C30.9057 57.9615 30.8876 58.6647 31.2853 59.1254C31.3154 59.1496 31.3516 59.1738 31.3757 59.1981C31.3998 59.2163 31.4118 59.2405 31.4299 59.2648" fill="#2069E7"/>
<path d="M29.7676 68.0908C29.8339 68.0483 29.9001 67.9938 29.9604 67.9332L32.027 65.854L29.9303 67.9513C29.8821 68.0059 29.8218 68.0483 29.7676 68.0847" fill="#CBC545"/>
<path d="M40.2386 55.931C39.7807 55.4703 39.0396 55.4703 38.5817 55.931L33.3398 61.2349L34.9546 62.914L40.2326 57.5979C40.6905 57.1372 40.6905 56.3917 40.2326 55.931" fill="#2069E7"/>
<path d="M31.4308 59.2708C31.4007 59.2465 31.3645 59.2223 31.3404 59.192C31.3223 59.1738 31.3043 59.1495 31.2862 59.1253C30.8283 58.7494 30.1535 58.7676 29.7197 59.198L22.387 66.5266C22.1641 66.7448 22.0436 67.0479 22.0436 67.3631V70.7092H19.6637V67.3631C19.6637 67.0479 19.5432 66.7509 19.3202 66.5266L11.9876 59.198C11.5598 58.7676 10.885 58.7434 10.4211 59.1253C10.403 59.1495 10.3849 59.1738 10.3669 59.192C10.3367 59.2223 10.3066 59.2404 10.2765 59.2708C9.87883 59.7314 9.8969 60.4285 10.3307 60.871L17.3199 67.8541V91.8705C17.3199 92.5191 17.8441 93.0465 18.4888 93.0465C19.1335 93.0465 19.6577 92.5191 19.6577 91.8705V73.0732H22.0376V91.8705C22.0376 92.5191 22.5618 93.0465 23.2065 93.0465C23.8512 93.0465 24.3753 92.5191 24.3753 91.8705V67.8541L31.3645 60.871C31.8044 60.4285 31.8164 59.7314 31.4188 59.2708" fill="#002273"/>
<path d="M31.4307 59.2708C31.4307 59.2708 31.3946 59.2223 31.3765 59.2041C31.3464 59.1738 31.3163 59.1556 31.2861 59.1313C31.3042 59.1556 31.3223 59.1798 31.3404 59.198C31.3705 59.2283 31.4006 59.2465 31.4307 59.2768" fill="#002273"/>
<path d="M34.9606 62.914L34.9546 62.908L32.0264 65.8539L34.9606 62.914Z" fill="#002273"/>
<path d="M28.3026 67.933C27.8447 67.4723 27.8447 66.7268 28.3026 66.2661L30.7006 63.8535L28.2604 66.2843C27.8025 66.7449 27.8025 67.4905 28.2604 67.9512C28.5798 68.2725 29.0437 68.3634 29.4534 68.2361C29.351 68.2664 29.2425 68.2846 29.1341 68.2846C28.8328 68.2846 28.5376 68.1694 28.3026 67.9391" fill="#002273"/>
<path d="M30.7082 63.8535L28.3102 66.2661C27.8523 66.7268 27.8523 67.4723 28.3102 67.933C28.5392 68.1634 28.8404 68.2785 29.1417 68.2785C29.2502 68.2785 29.3586 68.2604 29.461 68.2301C29.5695 68.1937 29.6779 68.1573 29.7743 68.0906C29.8346 68.0482 29.8888 68.0058 29.937 67.9573L32.0338 65.8599L34.962 62.914L33.3473 61.2349L30.7143 63.8535H30.7082Z" fill="#002273"/>
<path d="M29.7664 68.0908C29.67 68.1575 29.5616 68.1999 29.4531 68.2302C29.5616 68.1999 29.67 68.1514 29.7664 68.0908Z" fill="#002273"/>
<path d="M46.0762 70.8528H50.9378V65.9683H55.0381V70.8528H59.9227V74.9531H55.0381V79.8148H50.9378V74.9531H46.0762V70.8528Z" fill="#6F727B"/>
<path d="M74.7249 59.1254C75.1226 58.6647 75.1045 57.9676 74.6707 57.5251L70.2543 53.0818C69.7963 52.6212 69.0553 52.6212 68.5973 53.0818C68.1394 53.5425 68.1394 54.2881 68.5973 54.7488L73.0138 59.192C73.2427 59.4224 73.544 59.5375 73.8452 59.5375C74.1043 59.5375 74.3634 59.4466 74.5803 59.2708C74.5984 59.2466 74.6165 59.2223 74.6345 59.2042C74.6647 59.1738 74.6948 59.1557 74.7249 59.1314" fill="#FFC656"/>
<path d="M73.9785 65.854L76.0451 67.9332C76.1054 67.9938 76.1717 68.0483 76.2379 68.0908C76.1777 68.0483 76.1235 68.0059 76.0753 67.9574L73.9785 65.8601V65.854Z" fill="#CBC545"/>
<path d="M67.4232 55.931C66.9653 55.4703 66.2242 55.4703 65.7663 55.931C65.3084 56.3917 65.3084 57.1372 65.7663 57.5979L71.0443 62.914L72.6591 61.2349L67.4232 55.931Z" fill="#FFC656"/>
<path d="M74.7257 59.1255C74.6955 59.1497 74.6594 59.174 74.6353 59.1982C74.6172 59.2225 74.5991 59.2407 74.5811 59.2649C74.6112 59.2407 74.6473 59.2164 74.6714 59.1922C74.6895 59.174 74.7076 59.1497 74.7257 59.1255Z" fill="#002273"/>
<path d="M71.0439 62.914L73.9782 65.8539L71.0439 62.908V62.914Z" fill="#002273"/>
<path d="M75.2979 63.8535L77.6959 66.266C78.1538 66.7267 78.1538 67.4723 77.6959 67.933C77.4669 68.1633 77.1656 68.2785 76.8644 68.2785C76.7559 68.2785 76.6475 68.2603 76.5451 68.23C76.9548 68.3573 77.4187 68.2724 77.738 67.9451C78.196 67.4844 78.196 66.7388 77.738 66.2782L75.2979 63.8474V63.8535Z" fill="#002273"/>
<path d="M77.6965 67.933C78.1544 67.4723 78.1544 66.7267 77.6965 66.266L75.2985 63.8535L72.6655 61.2288L71.0508 62.9078L73.979 65.8538L76.0758 67.9512C76.124 67.9997 76.1842 68.0482 76.2384 68.0845C76.3348 68.1512 76.4433 68.1936 76.5517 68.224C76.6542 68.2543 76.7626 68.2724 76.8711 68.2724C77.1723 68.2724 77.4676 68.1573 77.7025 67.9269" fill="#002273"/>
<path d="M76.5506 68.2302C76.4422 68.1939 76.3337 68.1575 76.2373 68.0908C76.3337 68.1514 76.4422 68.1999 76.5506 68.2302Z" fill="#002273"/>
<path d="M95.7355 59.2708C95.9525 59.4466 96.2115 59.5375 96.4706 59.5375C96.7719 59.5375 97.0731 59.4224 97.3021 59.192L101.719 54.7488C102.176 54.2881 102.176 53.5425 101.719 53.0818C101.261 52.6212 100.52 52.6212 100.062 53.0818L95.6452 57.5251C95.2114 57.9615 95.1933 58.6647 95.5909 59.1254C95.6211 59.1496 95.6572 59.1738 95.6813 59.1981C95.7054 59.2163 95.7175 59.2405 95.7355 59.2648" fill="#7F0064"/>
<path d="M94.0723 68.0908C94.1385 68.0483 94.2048 67.9938 94.2651 67.9332L96.3317 65.854L94.2349 67.9513C94.1867 68.0059 94.1265 68.0483 94.0723 68.0847" fill="#CBC545"/>
<path d="M104.544 55.931C104.086 55.4703 103.345 55.4703 102.887 55.931L97.6455 61.2349L99.2602 62.914L104.538 57.5979C104.996 57.1372 104.996 56.3917 104.538 55.931" fill="#7F0064"/>
<path d="M95.7345 59.2708C95.7044 59.2465 95.6682 59.2223 95.6441 59.192C95.6261 59.1738 95.608 59.1495 95.5899 59.1253C95.132 58.7494 94.4572 58.7676 94.0234 59.198L86.6908 66.5266C86.4678 66.7448 86.3473 67.0479 86.3473 67.3631V70.7092H83.9674V67.3631C83.9674 67.0479 83.8469 66.7509 83.624 66.5266L76.2913 59.198C75.8636 58.7676 75.1887 58.7434 74.7248 59.1253C74.7067 59.1495 74.6887 59.1738 74.6706 59.192C74.6405 59.2223 74.6103 59.2404 74.5802 59.2708C74.1825 59.7314 74.2006 60.4285 74.6344 60.871L81.6236 67.8541V91.8705C81.6236 92.5191 82.1478 93.0465 82.7925 93.0465C83.4372 93.0465 83.9614 92.5191 83.9614 91.8705V73.0732H86.3413V91.8705C86.3413 92.5191 86.8655 93.0465 87.5102 93.0465C88.1549 93.0465 88.6791 92.5191 88.6791 91.8705V67.8541L95.6682 60.871C96.1081 60.4285 96.1201 59.7314 95.7225 59.2708" fill="#002273"/>
<path d="M95.7354 59.2708C95.7354 59.2708 95.6993 59.2223 95.6812 59.2041C95.6511 59.1738 95.6209 59.1556 95.5908 59.1313C95.6089 59.1556 95.627 59.1798 95.645 59.198C95.6752 59.2283 95.7053 59.2465 95.7354 59.2768" fill="#002273"/>
<path d="M99.2663 62.914L99.2603 62.908L96.332 65.8539L99.2663 62.914Z" fill="#002273"/>
<path d="M92.6083 67.933C92.1504 67.4723 92.1504 66.7268 92.6083 66.2661L95.0063 63.8535L92.5661 66.2843C92.1082 66.7449 92.1082 67.4905 92.5661 67.9512C92.8854 68.2725 93.3494 68.3634 93.7591 68.2361C93.6566 68.2664 93.5482 68.2846 93.4397 68.2846C93.1385 68.2846 92.8432 68.1694 92.6083 67.9391" fill="#002273"/>
<path d="M95.012 63.8535L92.6139 66.2661C92.156 66.7268 92.156 67.4723 92.6139 67.933C92.8429 68.1634 93.1442 68.2785 93.4454 68.2785C93.5539 68.2785 93.6623 68.2604 93.7647 68.2301C93.8732 68.1937 93.9817 68.1573 94.0781 68.0906C94.1383 68.0482 94.1925 68.0058 94.2407 67.9573L96.3375 65.8599L99.2657 62.914L97.651 61.2349L95.018 63.8535H95.012Z" fill="#002273"/>
<path d="M94.0721 68.0908C93.9757 68.1575 93.8672 68.1999 93.7588 68.2302C93.8672 68.1999 93.9757 68.1514 94.0721 68.0908Z" fill="#002273"/>
</svg>
