<svg width="82" height="84" viewBox="0 0 82 84" fill="none" xmlns="http://www.w3.org/2000/svg">
<path d="M19.3755 13.4499C20.2003 12.4945 20.1628 11.0487 19.2631 10.131L10.1037 0.916043C9.154 -0.0393971 7.61702 -0.0393971 6.66734 0.916043C5.71766 1.87148 5.71766 3.41779 6.66734 4.37323L15.8267 13.5882C16.3016 14.0659 16.9264 14.3048 17.5512 14.3048C18.0885 14.3048 18.6258 14.1162 19.0756 13.7516C19.1131 13.7013 19.1506 13.6511 19.1881 13.6133C19.2506 13.5505 19.3131 13.5128 19.3755 13.4625" fill="#3CA00C"/>
<path d="M17.8262 27.4048L22.1122 31.7168C22.2372 31.8426 22.3746 31.9557 22.5121 32.0437C22.3871 31.9557 22.2747 31.8677 22.1747 31.7671L17.8262 27.4174V27.4048Z" fill="#CB0094"/>
<path d="M4.23063 6.82498C3.28095 5.86954 1.74397 5.86954 0.794291 6.82498C-0.155389 7.78042 -0.155389 9.32672 0.794291 10.2822L11.7406 21.3074L15.0895 17.8251L4.23063 6.82498Z" fill="#3CA00C"/>
<path d="M19.3761 13.4502C19.3136 13.5005 19.2386 13.5508 19.1886 13.6011C19.1511 13.6513 19.1137 13.6891 19.0762 13.7393C19.1387 13.6891 19.2136 13.6388 19.2636 13.5885C19.3011 13.5508 19.3386 13.5005 19.3761 13.4502Z" fill="#002273"/>
<path d="M11.7412 21.3072L17.8267 27.4045L11.7412 21.2947V21.3072Z" fill="#002273"/>
<path d="M20.5625 23.256L25.5358 28.2595C26.4855 29.2149 26.4855 30.7612 25.5358 31.7167C25.061 32.1944 24.4362 32.4332 23.8114 32.4332C23.5865 32.4332 23.3616 32.3955 23.1491 32.3327C23.9988 32.5967 24.961 32.4207 25.6233 31.7418C26.573 30.7864 26.573 29.2401 25.6233 28.2846L20.5625 23.2434V23.256Z" fill="#002273"/>
<path d="M25.5358 31.7167C26.4855 30.7612 26.4855 29.2149 25.5358 28.2595L20.5625 23.256L15.1018 17.8125L11.7529 21.2948L17.8259 27.4046L22.1744 31.7544C22.2744 31.855 22.3993 31.9555 22.5118 32.031C22.7117 32.1692 22.9367 32.2572 23.1616 32.3201C23.374 32.383 23.5989 32.4207 23.8239 32.4207C24.4486 32.4207 25.0609 32.1818 25.5483 31.7041" fill="#002273"/>
<path d="M23.1625 32.3326C22.9376 32.2572 22.7126 32.1817 22.5127 32.0435C22.7126 32.1692 22.9376 32.2697 23.1625 32.3326Z" fill="#002273"/>
<path d="M62.9482 13.7516C63.398 14.1162 63.9354 14.3048 64.4727 14.3048C65.0975 14.3048 65.7223 14.0659 66.1971 13.5882L75.3565 4.37323C76.3062 3.41779 76.3062 1.87148 75.3565 0.916043C74.4068 -0.0393971 72.8698 -0.0393971 71.9202 0.916043L62.7608 10.131C61.8611 11.0362 61.8236 12.4945 62.6483 13.4499C62.7108 13.5002 62.7857 13.5505 62.8357 13.6008C62.8857 13.6385 62.9107 13.6888 62.9482 13.7391" fill="#3CA00C"/>
<path d="M59.5 32.0437C59.6375 31.9557 59.7749 31.8426 59.8999 31.7168L64.1859 27.4048L59.8374 31.7546C59.7374 31.8677 59.6125 31.9557 59.5 32.0311" fill="#CB0094"/>
<path d="M81.2178 6.82498C80.2681 5.86954 78.7312 5.86954 77.7815 6.82498L66.9102 17.8251L70.259 21.3074L81.2053 10.2822C82.155 9.32672 82.155 7.78042 81.2053 6.82498" fill="#3CA00C"/>
<path d="M62.9487 13.7516C62.8862 13.7013 62.8113 13.651 62.7613 13.5882C62.7238 13.5505 62.6863 13.5002 62.6488 13.4499C61.6991 12.6705 60.2996 12.7082 59.3999 13.6008L44.1925 28.7998C43.7302 29.2524 43.4803 29.881 43.4803 30.5347V37.4742H38.5444V30.5347C38.5444 29.881 38.2945 29.2649 37.8322 28.7998L22.6248 13.6008C21.7376 12.7082 20.3381 12.6579 19.3759 13.4499C19.3384 13.5002 19.3009 13.5505 19.2635 13.5882C19.201 13.651 19.1385 13.6888 19.076 13.7516C18.2513 14.7071 18.2888 16.1528 19.1885 17.0705L33.6836 31.553V81.3616C33.6836 82.7067 34.7707 83.8005 36.1078 83.8005C37.4448 83.8005 38.532 82.7067 38.532 81.3616V42.3771H43.4678V81.3616C43.4678 82.7067 44.5549 83.8005 45.892 83.8005C47.229 83.8005 48.3161 82.7067 48.3161 81.3616V31.553L62.8113 17.0705C63.7234 16.1528 63.7484 14.7071 62.9237 13.7516" fill="#002273"/>
<path d="M62.9493 13.7518C62.9493 13.7518 62.8743 13.6512 62.8369 13.6135C62.7744 13.5506 62.7119 13.5129 62.6494 13.4626C62.6869 13.5129 62.7244 13.5632 62.7619 13.6009C62.8244 13.6638 62.8868 13.7015 62.9493 13.7644" fill="#002273"/>
<path d="M70.271 21.3072L70.2585 21.2947L64.1855 27.4045L70.271 21.3072Z" fill="#002273"/>
<path d="M56.4628 31.7165C55.5131 30.7611 55.5131 29.2148 56.4628 28.2593L61.4361 23.2559L56.3753 28.2971C55.4257 29.2525 55.4257 30.7988 56.3753 31.7542C57.0376 32.4205 57.9998 32.6091 58.8495 32.3451C58.6371 32.408 58.4122 32.4457 58.1872 32.4457C57.5624 32.4457 56.9502 32.2068 56.4628 31.7291" fill="#002273"/>
<path d="M61.4502 23.2559L56.4769 28.2594C55.5272 29.2148 55.5272 30.7611 56.4769 31.7165C56.9517 32.1943 57.5765 32.4331 58.2013 32.4331C58.4262 32.4331 58.6512 32.3954 58.8636 32.3326C59.0885 32.2571 59.3135 32.1817 59.5134 32.0434C59.6383 31.9554 59.7508 31.8674 59.8508 31.7668L64.1993 27.4171L70.2722 21.3073L66.9234 17.825L61.4627 23.2559H61.4502Z" fill="#002273"/>
<path d="M59.4984 32.0435C59.2985 32.1817 59.0736 32.2697 58.8486 32.3326C59.0736 32.2697 59.2985 32.1692 59.4984 32.0435Z" fill="#002273"/>
</svg>
