<svg width="106" height="50" viewBox="0 0 106 50" fill="none" xmlns="http://www.w3.org/2000/svg">
<path d="M9.88798 10.7248C10.3003 10.2471 10.2816 9.52425 9.83175 9.06538L5.25204 4.4579C4.7772 3.98018 4.00871 3.98018 3.53386 4.4579C3.05902 4.93562 3.05902 5.70877 3.53386 6.18649L8.11358 10.794C8.351 11.0328 8.66339 11.1523 8.97578 11.1523C9.24444 11.1523 9.5131 11.058 9.73803 10.8757C9.75677 10.8505 9.77552 10.8254 9.79426 10.8065C9.8255 10.7751 9.85674 10.7563 9.88798 10.7311" fill="#CB0094"/>
<path d="M9.11328 17.7021L11.2563 19.8582C11.3188 19.921 11.3875 19.9776 11.4562 20.0216C11.3938 19.9776 11.3375 19.9336 11.2876 19.8833L9.11328 17.7084V17.7021Z" fill="#002273"/>
<path d="M2.31551 7.41225C1.84067 6.93453 1.07218 6.93453 0.597341 7.41225C0.122501 7.88997 0.122501 8.66312 0.597341 9.14084L6.0705 14.6535L7.74494 12.9123L2.31551 7.41225Z" fill="#CB0094"/>
<path d="M9.88823 10.7251C9.85699 10.7502 9.8195 10.7754 9.79451 10.8005C9.77577 10.8257 9.75702 10.8445 9.73828 10.8697C9.76952 10.8445 9.80701 10.8194 9.832 10.7942C9.85074 10.7754 9.86949 10.7502 9.88823 10.7251Z" fill="#002273"/>
<path d="M6.07129 14.6535L9.11402 17.7021L6.07129 14.6472V14.6535Z" fill="#002273"/>
<path d="M10.4814 15.6279L12.9681 18.1296C13.443 18.6073 13.443 19.3805 12.9681 19.8582C12.7307 20.0971 12.4183 20.2165 12.1059 20.2165C11.9934 20.2165 11.881 20.1976 11.7748 20.1662C12.1996 20.2982 12.6807 20.2102 13.0118 19.8708C13.4867 19.3931 13.4867 18.6199 13.0118 18.1422L10.4814 15.6216V15.6279Z" fill="#002273"/>
<path d="M12.9676 19.8581C13.4424 19.3804 13.4424 18.6072 12.9676 18.1295L10.4809 15.6278L7.75061 12.906L6.07617 14.6472L9.11265 17.7021L11.2869 19.8769C11.3369 19.9272 11.3994 19.9775 11.4556 20.0152C11.5556 20.0844 11.668 20.1284 11.7805 20.1598C11.8867 20.1912 11.9992 20.2101 12.1116 20.2101C12.424 20.2101 12.7302 20.0907 12.9739 19.8518" fill="#002273"/>
<path d="M11.7819 20.1663C11.6695 20.1286 11.557 20.0909 11.457 20.0217C11.557 20.0846 11.6695 20.1349 11.7819 20.1663Z" fill="#002273"/>
<path d="M31.6743 10.8757C31.8992 11.058 32.1679 11.1523 32.4365 11.1523C32.7489 11.1523 33.0613 11.0328 33.2987 10.794L37.8785 6.18649C38.3533 5.70877 38.3533 4.93562 37.8785 4.4579C37.4036 3.98018 36.6351 3.98018 36.1603 4.4579L31.5806 9.06538C31.1307 9.51796 31.112 10.2471 31.5243 10.7248C31.5556 10.75 31.5931 10.7751 31.6181 10.8003C31.6431 10.8191 31.6555 10.8443 31.6743 10.8694" fill="#CB0094"/>
<path d="M29.9512 20.0216C30.0199 19.9776 30.0886 19.921 30.1511 19.8582L32.2941 17.7021L30.1199 19.877C30.0699 19.9336 30.0074 19.9776 29.9512 20.0153" fill="#002273"/>
<path d="M40.8091 7.41225C40.3343 6.93453 39.5658 6.93453 39.0909 7.41225L33.6553 12.9123L35.3297 14.6535L40.8029 9.14084C41.2777 8.66312 41.2777 7.88997 40.8029 7.41225" fill="#CB0094"/>
<path d="M31.6756 10.8757C31.6443 10.8505 31.6068 10.8254 31.5818 10.794C31.5631 10.7751 31.5444 10.75 31.5256 10.7248C31.0508 10.3351 30.351 10.354 29.9012 10.8003L22.2975 18.3998C22.0663 18.6261 21.9413 18.9404 21.9413 19.2672V22.737H19.4734V19.2672C19.4734 18.9404 19.3485 18.6324 19.1173 18.3998L11.5136 10.8003C11.07 10.354 10.3702 10.3288 9.88913 10.7248C9.87039 10.75 9.85165 10.7751 9.8329 10.794C9.80166 10.8254 9.77042 10.8443 9.73918 10.8757C9.32682 11.3534 9.34557 12.0763 9.79542 12.5351L17.043 19.7764V44.6807C17.043 45.3532 17.5865 45.9001 18.2551 45.9001C18.9236 45.9001 19.4672 45.3532 19.4672 44.6807V25.1884H21.9351V44.6807C21.9351 45.3532 22.4787 45.9001 23.1472 45.9001C23.8157 45.9001 24.3593 45.3532 24.3593 44.6807V19.7764L31.6068 12.5351C32.0629 12.0763 32.0754 11.3534 31.6631 10.8757" fill="#002273"/>
<path d="M31.6753 10.8758C31.6753 10.8758 31.6379 10.8255 31.6191 10.8066C31.5879 10.7752 31.5566 10.7563 31.5254 10.7312C31.5441 10.7563 31.5629 10.7815 31.5816 10.8003C31.6129 10.8318 31.6441 10.8506 31.6753 10.8821" fill="#002273"/>
<path d="M35.3357 14.6535L35.3294 14.6472L32.293 17.7021L35.3357 14.6535Z" fill="#002273"/>
<path d="M28.4311 19.8583C27.9563 19.3805 27.9563 18.6074 28.4311 18.1297L30.9178 15.6279L28.3874 18.1485C27.9125 18.6263 27.9125 19.3994 28.3874 19.8771C28.7185 20.2103 29.1996 20.3046 29.6245 20.1726C29.5182 20.204 29.4058 20.2228 29.2933 20.2228C28.9809 20.2228 28.6748 20.1034 28.4311 19.8646" fill="#002273"/>
<path d="M30.9258 15.6278L28.4391 18.1296C27.9643 18.6073 27.9643 19.3804 28.4391 19.8582C28.6766 20.097 28.989 20.2164 29.3013 20.2164C29.4138 20.2164 29.5263 20.1976 29.6325 20.1662C29.7449 20.1284 29.8574 20.0907 29.9574 20.0216C30.0199 19.9776 30.0761 19.9336 30.1261 19.8833L32.3003 17.7084L35.3368 14.6535L33.6624 12.9124L30.932 15.6278H30.9258Z" fill="#002273"/>
<path d="M29.9499 20.0217C29.8499 20.0909 29.7375 20.1349 29.625 20.1663C29.7375 20.1349 29.8499 20.0846 29.9499 20.0217Z" fill="#002273"/>
<path d="M45.1602 15.8501H50.6662V10.3181H55.31V15.8501H60.842V20.4939H55.31V25.9999H50.6662V20.4939H45.1602V15.8501Z" fill="#6F727B"/>
<path d="M45.1602 29.532H60.842V34.1758H45.1602V29.532Z" fill="#6F727B"/>
<path d="M74.4876 10.7248C74.8999 10.2471 74.8812 9.52425 74.4314 9.06538L69.8516 4.4579C69.3768 3.98018 68.6083 3.98018 68.1335 4.4579C67.6586 4.93562 67.6586 5.70877 68.1335 6.18649L72.7132 10.794C72.9506 11.0328 73.263 11.1523 73.5754 11.1523C73.8441 11.1523 74.1127 11.058 74.3376 10.8757C74.3564 10.8505 74.3751 10.8254 74.3939 10.8065C74.4251 10.7751 74.4563 10.7563 74.4876 10.7311" fill="#9F24E2"/>
<path d="M73.7129 17.7021L75.8559 19.8582C75.9184 19.921 75.9871 19.9776 76.0559 20.0216C75.9934 19.9776 75.9371 19.9336 75.8872 19.8833L73.7129 17.7084V17.7021Z" fill="#9F24E2"/>
<path d="M66.9151 7.41225C66.4403 6.93453 65.6718 6.93453 65.197 7.41225C64.7221 7.88997 64.7221 8.66312 65.197 9.14084L70.6701 14.6535L72.3445 12.9123L66.9151 7.41225Z" fill="#9F24E2"/>
<path d="M74.4878 10.7251C74.4566 10.7502 74.4191 10.7754 74.3941 10.8005C74.3754 10.8257 74.3566 10.8445 74.3379 10.8697C74.3691 10.8445 74.4066 10.8194 74.4316 10.7942C74.4504 10.7754 74.4691 10.7502 74.4878 10.7251Z" fill="#002273"/>
<path d="M70.6709 14.6535L73.7136 17.7021L70.6709 14.6472V14.6535Z" fill="#002273"/>
<path d="M75.0811 15.6279L77.5677 18.1296C78.0426 18.6073 78.0426 19.3805 77.5677 19.8582C77.3303 20.0971 77.0179 20.2165 76.7055 20.2165C76.593 20.2165 76.4806 20.1976 76.3744 20.1662C76.7992 20.2982 77.2803 20.2102 77.6115 19.8708C78.0863 19.3931 78.0863 18.6199 77.6115 18.1422L75.0811 15.6216V15.6279Z" fill="#002273"/>
<path d="M77.5672 19.8581C78.0421 19.3804 78.0421 18.6072 77.5672 18.1295L75.0806 15.6278L72.3502 12.906L70.6758 14.6472L73.7123 17.7021L75.8865 19.8769C75.9365 19.9272 75.999 19.9775 76.0552 20.0152C76.1552 20.0844 76.2677 20.1284 76.3801 20.1598C76.4863 20.1912 76.5988 20.2101 76.7113 20.2101C77.0236 20.2101 77.3298 20.0907 77.5735 19.8518" fill="#002273"/>
<path d="M76.3815 20.1663C76.2691 20.1286 76.1566 20.0909 76.0566 20.0217C76.1566 20.0846 76.2691 20.1349 76.3815 20.1663Z" fill="#002273"/>
<path d="M96.2739 10.8757C96.4988 11.058 96.7675 11.1523 97.0361 11.1523C97.3485 11.1523 97.6609 11.0328 97.8984 10.794L102.478 6.18649C102.953 5.70877 102.953 4.93562 102.478 4.4579C102.003 3.98018 101.235 3.98018 100.76 4.4579L96.1802 9.06538C95.7303 9.51796 95.7116 10.2471 96.1239 10.7248C96.1552 10.75 96.1927 10.7751 96.2177 10.8003C96.2427 10.8191 96.2552 10.8443 96.2739 10.8694" fill="#9F24E2"/>
<path d="M94.5508 20.0216C94.6195 19.9776 94.6882 19.921 94.7507 19.8582L96.8937 17.7021L94.7195 19.877C94.6695 19.9336 94.607 19.9776 94.5508 20.0153" fill="#9F24E2"/>
<path d="M105.409 7.41225C104.934 6.93453 104.165 6.93453 103.691 7.41225L98.2549 12.9123L99.9293 14.6535L105.402 9.14084C105.877 8.66312 105.877 7.88997 105.402 7.41225" fill="#9F24E2"/>
<path d="M96.2752 10.8757C96.2439 10.8505 96.2064 10.8254 96.1815 10.794C96.1627 10.7751 96.144 10.75 96.1252 10.7248C95.6504 10.3351 94.9506 10.354 94.5008 10.8003L86.8971 18.3998C86.6659 18.6261 86.5409 18.9404 86.5409 19.2672V22.737H84.073V19.2672C84.073 18.9404 83.9481 18.6324 83.7169 18.3998L76.1132 10.8003C75.6696 10.354 74.9698 10.3288 74.4887 10.7248C74.47 10.75 74.4513 10.7751 74.4325 10.794C74.4013 10.8254 74.37 10.8443 74.3388 10.8757C73.9264 11.3534 73.9452 12.0763 74.395 12.5351L81.6426 19.7764V44.6807C81.6426 45.3532 82.1862 45.9001 82.8547 45.9001C83.5232 45.9001 84.0668 45.3532 84.0668 44.6807V25.1884H86.5347V44.6807C86.5347 45.3532 87.0783 45.9001 87.7468 45.9001C88.4153 45.9001 88.9589 45.3532 88.9589 44.6807V19.7764L96.2064 12.5351C96.6625 12.0763 96.675 11.3534 96.2627 10.8757" fill="#002273"/>
<path d="M96.275 10.8758C96.275 10.8758 96.2375 10.8255 96.2187 10.8066C96.1875 10.7752 96.1562 10.7563 96.125 10.7312C96.1437 10.7563 96.1625 10.7815 96.1812 10.8003C96.2125 10.8318 96.2437 10.8506 96.275 10.8821" fill="#002273"/>
<path d="M99.9353 14.6535L99.9291 14.6472L96.8926 17.7021L99.9353 14.6535Z" fill="#002273"/>
<path d="M93.0307 19.8583C92.5559 19.3805 92.5559 18.6074 93.0307 18.1297L95.5174 15.6279L92.987 18.1485C92.5121 18.6263 92.5121 19.3994 92.987 19.8771C93.3181 20.2103 93.7992 20.3046 94.2241 20.1726C94.1179 20.204 94.0054 20.2228 93.8929 20.2228C93.5805 20.2228 93.2744 20.1034 93.0307 19.8646" fill="#002273"/>
<path d="M95.5254 15.6278L93.0387 18.1296C92.5639 18.6073 92.5639 19.3804 93.0387 19.8582C93.2762 20.097 93.5886 20.2164 93.901 20.2164C94.0134 20.2164 94.1259 20.1976 94.2321 20.1662C94.3446 20.1284 94.457 20.0907 94.557 20.0216C94.6195 19.9776 94.6757 19.9336 94.7257 19.8833L96.9 17.7084L99.9364 14.6535L98.262 12.9124L95.5317 15.6278H95.5254Z" fill="#002273"/>
<path d="M94.5495 20.0217C94.4495 20.0909 94.3371 20.1349 94.2246 20.1663C94.3371 20.1349 94.4495 20.0846 94.5495 20.0217Z" fill="#002273"/>
</svg>
