<svg width="82" height="84" viewBox="0 0 82 84" fill="none" xmlns="http://www.w3.org/2000/svg">
<path d="M19.3755 13.4502C20.2003 12.4947 20.1628 11.049 19.2631 10.1313L10.1037 0.916287C9.154 -0.039153 7.61702 -0.039153 6.66734 0.916287C5.71766 1.87173 5.71766 3.41803 6.66734 4.37347L15.8267 13.5884C16.3016 14.0662 16.9264 14.305 17.5512 14.305C18.0885 14.305 18.6258 14.1164 19.0756 13.7519C19.1131 13.7016 19.1506 13.6513 19.1881 13.6136C19.2506 13.5507 19.3131 13.513 19.3755 13.4627" fill="#9F24E2"/>
<path d="M17.8262 27.4048L22.1122 31.7168C22.2372 31.8426 22.3746 31.9557 22.5121 32.0437C22.3871 31.9557 22.2747 31.8677 22.1747 31.7671L17.8262 27.4174V27.4048Z" fill="#9F24E2"/>
<path d="M4.23063 6.82498C3.28095 5.86954 1.74397 5.86954 0.794291 6.82498C-0.155389 7.78042 -0.155389 9.32672 0.794291 10.2822L11.7406 21.3074L15.0895 17.8251L4.23063 6.82498Z" fill="#9F24E2"/>
<path d="M19.3761 13.4507C19.3136 13.501 19.2386 13.5513 19.1886 13.6015C19.1511 13.6518 19.1137 13.6895 19.0762 13.7398C19.1387 13.6895 19.2136 13.6393 19.2636 13.589C19.3011 13.5513 19.3386 13.501 19.3761 13.4507Z" fill="#9F24E2"/>
<path d="M11.7412 21.3075L17.8267 27.4047L11.7412 21.2949V21.3075Z" fill="#9F24E2"/>
<path d="M20.5625 23.2562L25.5358 28.2597C26.4855 29.2152 26.4855 30.7615 25.5358 31.7169C25.061 32.1946 24.4362 32.4335 23.8114 32.4335C23.5865 32.4335 23.3616 32.3958 23.1491 32.3329C23.9988 32.5969 24.961 32.4209 25.6233 31.742C26.573 30.7866 26.573 29.2403 25.6233 28.2849L20.5625 23.2437V23.2562Z" fill="#9F24E2"/>
<path d="M25.5358 31.7167C26.4855 30.7612 26.4855 29.2149 25.5358 28.2595L20.5625 23.256L15.1018 17.8125L11.7529 21.2948L17.8259 27.4046L22.1744 31.7544C22.2744 31.855 22.3993 31.9555 22.5118 32.031C22.7117 32.1692 22.9367 32.2572 23.1616 32.3201C23.374 32.383 23.5989 32.4207 23.8239 32.4207C24.4486 32.4207 25.0609 32.1818 25.5483 31.7041" fill="#9F24E2"/>
<path d="M23.1625 32.3331C22.9376 32.2577 22.7126 32.1822 22.5127 32.0439C22.7126 32.1697 22.9376 32.2702 23.1625 32.3331Z" fill="#9F24E2"/>
<path d="M62.9482 13.7519C63.398 14.1164 63.9354 14.305 64.4727 14.305C65.0975 14.305 65.7223 14.0662 66.1971 13.5884L75.3565 4.37347C76.3062 3.41803 76.3062 1.87173 75.3565 0.916287C74.4068 -0.039153 72.8698 -0.039153 71.9202 0.916287L62.7608 10.1313C61.8611 11.0364 61.8236 12.4947 62.6483 13.4502C62.7108 13.5004 62.7857 13.5507 62.8357 13.601C62.8857 13.6387 62.9107 13.689 62.9482 13.7393" fill="#9F24E2"/>
<path d="M59.5 32.0437C59.6375 31.9557 59.7749 31.8426 59.8999 31.7168L64.1859 27.4048L59.8374 31.7546C59.7374 31.8677 59.6125 31.9557 59.5 32.0311" fill="#9F24E2"/>
<path d="M81.2178 6.82498C80.2681 5.86954 78.7312 5.86954 77.7815 6.82498L66.9102 17.8251L70.259 21.3074L81.2053 10.2822C82.155 9.32672 82.155 7.78042 81.2053 6.82498" fill="#9F24E2"/>
<path d="M62.9487 13.7519C62.8862 13.7016 62.8113 13.6513 62.7613 13.5884C62.7238 13.5507 62.6863 13.5004 62.6488 13.4501C61.6991 12.6707 60.2996 12.7084 59.3999 13.601L44.1925 28.8C43.7302 29.2526 43.4803 29.8812 43.4803 30.5349V37.4744H38.5444V30.5349C38.5444 29.8812 38.2945 29.2652 37.8322 28.8L22.6248 13.601C21.7376 12.7084 20.3381 12.6581 19.3759 13.4501C19.3384 13.5004 19.3009 13.5507 19.2635 13.5884C19.201 13.6513 19.1385 13.689 19.076 13.7519C18.2513 14.7073 18.2888 16.153 19.1885 17.0708L33.6836 31.5532V81.3618C33.6836 82.707 34.7707 83.8007 36.1078 83.8007C37.4448 83.8007 38.532 82.707 38.532 81.3618V42.3774H43.4678V81.3618C43.4678 82.707 44.5549 83.8007 45.892 83.8007C47.229 83.8007 48.3161 82.707 48.3161 81.3618V31.5532L62.8113 17.0708C63.7234 16.153 63.7484 14.7073 62.9237 13.7519" fill="#9F24E2"/>
<path d="M62.9493 13.752C62.9493 13.752 62.8743 13.6515 62.8369 13.6137C62.7744 13.5509 62.7119 13.5132 62.6494 13.4629C62.6869 13.5132 62.7244 13.5635 62.7619 13.6012C62.8244 13.664 62.8868 13.7018 62.9493 13.7646" fill="#9F24E2"/>
<path d="M70.271 21.3075L70.2585 21.2949L64.1855 27.4047L70.271 21.3075Z" fill="#9F24E2"/>
<path d="M56.4628 31.717C55.5131 30.7616 55.5131 29.2153 56.4628 28.2598L61.4361 23.2563L56.3753 28.2976C55.4257 29.253 55.4257 30.7993 56.3753 31.7547C57.0376 32.421 57.9998 32.6096 58.8495 32.3456C58.6371 32.4085 58.4122 32.4462 58.1872 32.4462C57.5624 32.4462 56.9502 32.2073 56.4628 31.7296" fill="#9F24E2"/>
<path d="M61.4502 23.2561L56.4769 28.2596C55.5272 29.215 55.5272 30.7614 56.4769 31.7168C56.9517 32.1945 57.5765 32.4334 58.2013 32.4334C58.4262 32.4334 58.6512 32.3957 58.8636 32.3328C59.0885 32.2574 59.3135 32.1819 59.5134 32.0437C59.6383 31.9557 59.7508 31.8677 59.8508 31.7671L64.1993 27.4173L70.2722 21.3075L66.9234 17.8252L61.4627 23.2561H61.4502Z" fill="#9F24E2"/>
<path d="M59.4984 32.0439C59.2985 32.1822 59.0736 32.2702 58.8486 32.3331C59.0736 32.2702 59.2985 32.1697 59.4984 32.0439Z" fill="#9F24E2"/>
</svg>
