<svg width="82" height="84" viewBox="0 0 82 84" fill="none" xmlns="http://www.w3.org/2000/svg">
<path d="M19.3755 13.4499C20.2003 12.4945 20.1628 11.0487 19.2631 10.131L10.1037 0.916043C9.154 -0.0393971 7.61702 -0.0393971 6.66734 0.916043C5.71766 1.87148 5.71766 3.41779 6.66734 4.37323L15.8267 13.5882C16.3016 14.0659 16.9264 14.3048 17.5512 14.3048C18.0885 14.3048 18.6258 14.1162 19.0756 13.7516C19.1131 13.7013 19.1506 13.6511 19.1881 13.6133C19.2506 13.5505 19.3131 13.5128 19.3755 13.4625" fill="#78BE20"/>
<path d="M17.8262 27.4047L22.1122 31.7167C22.2372 31.8424 22.3746 31.9556 22.5121 32.0436C22.3871 31.9556 22.2747 31.8676 22.1747 31.767L17.8262 27.4172V27.4047Z" fill="#CBC545"/>
<path d="M4.23063 6.82486C3.28095 5.86942 1.74397 5.86942 0.794291 6.82486C-0.155389 7.7803 -0.155389 9.3266 0.794291 10.282L11.7406 21.3073L15.0895 17.825L4.23063 6.82486Z" fill="#78BE20"/>
<path d="M19.3761 13.4502C19.3136 13.5005 19.2386 13.5508 19.1886 13.6011C19.1511 13.6513 19.1137 13.6891 19.0762 13.7393C19.1387 13.6891 19.2136 13.6388 19.2636 13.5885C19.3011 13.5508 19.3386 13.5005 19.3761 13.4502Z" fill="#002273"/>
<path d="M11.7412 21.3074L17.8267 27.4046L11.7412 21.2948V21.3074Z" fill="#002273"/>
<path d="M20.5625 23.2559L25.5358 28.2593C26.4855 29.2148 26.4855 30.7611 25.5358 31.7165C25.061 32.1943 24.4362 32.4331 23.8114 32.4331C23.5865 32.4331 23.3616 32.3954 23.1491 32.3325C23.9988 32.5965 24.961 32.4205 25.6233 31.7417C26.573 30.7862 26.573 29.2399 25.6233 28.2845L20.5625 23.2433V23.2559Z" fill="#002273"/>
<path d="M25.5358 31.7165C26.4855 30.7611 26.4855 29.2148 25.5358 28.2594L20.5625 23.2559L15.1018 17.8124L11.7529 21.2947L17.8259 27.4045L22.1744 31.7543C22.2744 31.8548 22.3993 31.9554 22.5118 32.0308C22.7117 32.1691 22.9367 32.2571 23.1616 32.32C23.374 32.3828 23.5989 32.4206 23.8239 32.4206C24.4486 32.4206 25.0609 32.1817 25.5483 31.704" fill="#002273"/>
<path d="M23.1625 32.3326C22.9376 32.2572 22.7126 32.1817 22.5127 32.0435C22.7126 32.1692 22.9376 32.2697 23.1625 32.3326Z" fill="#002273"/>
<path d="M62.9482 13.7516C63.398 14.1162 63.9354 14.3048 64.4727 14.3048C65.0975 14.3048 65.7223 14.0659 66.1971 13.5882L75.3565 4.37323C76.3062 3.41779 76.3062 1.87148 75.3565 0.916043C74.4068 -0.0393971 72.8698 -0.0393971 71.9202 0.916043L62.7608 10.131C61.8611 11.0362 61.8236 12.4945 62.6483 13.4499C62.7108 13.5002 62.7857 13.5505 62.8357 13.6008C62.8857 13.6385 62.9107 13.6888 62.9482 13.7391" fill="#2069E7"/>
<path d="M59.5 32.0436C59.6375 31.9556 59.7749 31.8424 59.8999 31.7167L64.1859 27.4047L59.8374 31.7544C59.7374 31.8676 59.6125 31.9556 59.5 32.031" fill="#CBC545"/>
<path d="M81.2178 6.82486C80.2681 5.86942 78.7312 5.86942 77.7815 6.82486L66.9102 17.825L70.259 21.3073L81.2053 10.282C82.155 9.3266 82.155 7.7803 81.2053 6.82486" fill="#2069E7"/>
<path d="M62.9487 13.7517C62.8862 13.7015 62.8113 13.6512 62.7613 13.5883C62.7238 13.5506 62.6863 13.5003 62.6488 13.45C61.6991 12.6706 60.2996 12.7083 59.3999 13.6009L44.1925 28.7999C43.7302 29.2525 43.4803 29.8811 43.4803 30.5348V37.4743H38.5444V30.5348C38.5444 29.8811 38.2945 29.2651 37.8322 28.7999L22.6248 13.6009C21.7376 12.7083 20.3381 12.658 19.3759 13.45C19.3384 13.5003 19.3009 13.5506 19.2635 13.5883C19.201 13.6512 19.1385 13.6889 19.076 13.7517C18.2513 14.7072 18.2888 16.1529 19.1885 17.0706L33.6836 31.5531V81.3617C33.6836 82.7069 34.7707 83.8006 36.1078 83.8006C37.4448 83.8006 38.532 82.7069 38.532 81.3617V42.3772H43.4678V81.3617C43.4678 82.7069 44.5549 83.8006 45.892 83.8006C47.229 83.8006 48.3161 82.7069 48.3161 81.3617V31.5531L62.8113 17.0706C63.7234 16.1529 63.7484 14.7072 62.9237 13.7517" fill="#002273"/>
<path d="M62.9493 13.7517C62.9493 13.7517 62.8743 13.6511 62.8369 13.6134C62.7744 13.5505 62.7119 13.5128 62.6494 13.4625C62.6869 13.5128 62.7244 13.5631 62.7619 13.6008C62.8244 13.6637 62.8868 13.7014 62.9493 13.7642" fill="#002273"/>
<path d="M70.271 21.3074L70.2585 21.2948L64.1855 27.4046L70.271 21.3074Z" fill="#002273"/>
<path d="M56.4628 31.7167C55.5131 30.7612 55.5131 29.2149 56.4628 28.2595L61.4361 23.256L56.3753 28.2972C55.4257 29.2526 55.4257 30.7989 56.3753 31.7544C57.0376 32.4207 57.9998 32.6092 58.8495 32.3452C58.6371 32.4081 58.4122 32.4458 58.1872 32.4458C57.5624 32.4458 56.9502 32.2069 56.4628 31.7292" fill="#002273"/>
<path d="M61.4502 23.256L56.4769 28.2595C55.5272 29.2149 55.5272 30.7612 56.4769 31.7167C56.9517 32.1944 57.5765 32.4332 58.2013 32.4332C58.4262 32.4332 58.6512 32.3955 58.8636 32.3327C59.0885 32.2572 59.3135 32.1818 59.5134 32.0435C59.6383 31.9555 59.7508 31.8675 59.8508 31.767L64.1993 27.4172L70.2722 21.3074L66.9234 17.8251L61.4627 23.256H61.4502Z" fill="#002273"/>
<path d="M59.4984 32.0435C59.2985 32.1817 59.0736 32.2697 58.8486 32.3326C59.0736 32.2697 59.2985 32.1692 59.4984 32.0435Z" fill="#002273"/>
</svg>
