<svg width="118" height="80" viewBox="0 0 118 80" fill="none" xmlns="http://www.w3.org/2000/svg">
<path d="M10.2571 25.7301C10.6695 25.2524 10.6507 24.5296 10.2009 24.0707L5.62118 19.4632C5.14634 18.9855 4.37785 18.9855 3.90301 19.4632C3.42816 19.9409 3.42816 20.7141 3.90301 21.1918L8.48272 25.7993C8.72014 26.0381 9.03253 26.1576 9.34493 26.1576C9.61359 26.1576 9.88225 26.0633 10.1072 25.881C10.1259 25.8559 10.1447 25.8307 10.1634 25.8119C10.1946 25.7804 10.2259 25.7616 10.2571 25.7364" fill="#35C9C9"/>
<path d="M9.48242 32.7075L11.6255 34.8635C11.6879 34.9264 11.7567 34.983 11.8254 35.027C11.7629 34.983 11.7067 34.939 11.6567 34.8887L9.48242 32.7138V32.7075Z" fill="#CBC545"/>
<path d="M2.68465 22.4176C2.20981 21.9399 1.44132 21.9399 0.966482 22.4176C0.491641 22.8953 0.491641 23.6685 0.966482 24.1462L6.43964 29.6588L8.11408 27.9177L2.68465 22.4176Z" fill="#35C9C9"/>
<path d="M10.2574 25.7303C10.2261 25.7554 10.1886 25.7806 10.1637 25.8057C10.1449 25.8309 10.1262 25.8497 10.1074 25.8749C10.1387 25.8497 10.1761 25.8246 10.2011 25.7994C10.2199 25.7806 10.2386 25.7554 10.2574 25.7303Z" fill="#002273"/>
<path d="M6.44043 29.6589L9.48316 32.7075L6.44043 29.6526V29.6589Z" fill="#002273"/>
<path d="M10.8506 30.6331L13.3373 33.1349C13.8121 33.6126 13.8121 34.3857 13.3373 34.8635C13.0998 35.1023 12.7874 35.2217 12.475 35.2217C12.3626 35.2217 12.2501 35.2029 12.1439 35.1715C12.5688 35.3035 13.0498 35.2155 13.381 34.876C13.8558 34.3983 13.8558 33.6252 13.381 33.1474L10.8506 30.6268V30.6331Z" fill="#002273"/>
<path d="M13.3367 34.8635C13.8116 34.3857 13.8116 33.6126 13.3367 33.1349L10.8501 30.6331L8.11975 27.9114L6.44531 29.6525L9.48179 32.7074L11.6561 34.8823C11.706 34.9326 11.7685 34.9829 11.8248 35.0206C11.9247 35.0897 12.0372 35.1337 12.1496 35.1652C12.2559 35.1966 12.3683 35.2155 12.4808 35.2155C12.7932 35.2155 13.0993 35.096 13.343 34.8572" fill="#002273"/>
<path d="M12.1511 35.1715C12.0386 35.1338 11.9261 35.0961 11.8262 35.0269C11.9261 35.0898 12.0386 35.1401 12.1511 35.1715Z" fill="#002273"/>
<path d="M32.0434 25.881C32.2684 26.0633 32.537 26.1576 32.8057 26.1576C33.1181 26.1576 33.4305 26.0381 33.6679 25.7993L38.2476 21.1918C38.7224 20.7141 38.7224 19.9409 38.2476 19.4632C37.7728 18.9855 37.0043 18.9855 36.5294 19.4632L31.9497 24.0707C31.4999 24.5233 31.4811 25.2524 31.8935 25.7301C31.9247 25.7553 31.9622 25.7804 31.9872 25.8056C32.0122 25.8244 32.0247 25.8496 32.0434 25.8747" fill="#2069E7"/>
<path d="M30.3203 35.027C30.389 34.983 30.4578 34.9264 30.5202 34.8635L32.6633 32.7075L30.489 34.8824C30.439 34.939 30.3765 34.983 30.3203 35.0207" fill="#CBC545"/>
<path d="M41.1783 22.4176C40.7034 21.9399 39.9349 21.9399 39.4601 22.4176L34.0244 27.9177L35.6989 29.6588L41.172 24.1462C41.6469 23.6685 41.6469 22.8953 41.172 22.4176" fill="#2069E7"/>
<path d="M32.0447 25.8811C32.0135 25.8559 31.976 25.8308 31.951 25.7993C31.9322 25.7805 31.9135 25.7553 31.8948 25.7302C31.4199 25.3405 30.7201 25.3593 30.2703 25.8056L22.6666 33.4051C22.4354 33.6314 22.3105 33.9457 22.3105 34.2726V37.7423H19.8426V34.2726C19.8426 33.9457 19.7176 33.6377 19.4864 33.4051L11.8827 25.8056C11.4391 25.3593 10.7394 25.3342 10.2583 25.7302C10.2395 25.7553 10.2208 25.7805 10.202 25.7993C10.1708 25.8308 10.1396 25.8496 10.1083 25.8811C9.69596 26.3588 9.71471 27.0816 10.1646 27.5405L17.4121 34.7817V59.686C17.4121 60.3586 17.9557 60.9055 18.6242 60.9055C19.2927 60.9055 19.8363 60.3586 19.8363 59.686V40.1938H22.3042V59.686C22.3042 60.3586 22.8478 60.9055 23.5163 60.9055C24.1848 60.9055 24.7284 60.3586 24.7284 59.686V34.7817L31.976 27.5405C32.4321 27.0816 32.4446 26.3588 32.0322 25.8811" fill="#002273"/>
<path d="M32.0445 25.881C32.0445 25.881 32.007 25.8307 31.9883 25.8119C31.957 25.7805 31.9258 25.7616 31.8945 25.7365C31.9133 25.7616 31.932 25.7867 31.9508 25.8056C31.982 25.837 32.0132 25.8559 32.0445 25.8873" fill="#002273"/>
<path d="M35.7048 29.6589L35.6986 29.6526L32.6621 32.7075L35.7048 29.6589Z" fill="#002273"/>
<path d="M28.8003 34.8635C28.3254 34.3858 28.3254 33.6126 28.8003 33.1349L31.2869 30.6332L28.7565 33.1538C28.2817 33.6315 28.2817 34.4047 28.7565 34.8824C29.0877 35.2155 29.5687 35.3098 29.9936 35.1778C29.8874 35.2092 29.7749 35.2281 29.6625 35.2281C29.3501 35.2281 29.0439 35.1087 28.8003 34.8698" fill="#002273"/>
<path d="M31.2949 30.6332L28.8083 33.1349C28.3334 33.6126 28.3334 34.3858 28.8083 34.8635C29.0457 35.1024 29.3581 35.2218 29.6705 35.2218C29.7829 35.2218 29.8954 35.203 30.0016 35.1715C30.1141 35.1338 30.2266 35.0961 30.3265 35.027C30.389 34.983 30.4452 34.939 30.4952 34.8887L32.6695 32.7138L35.706 29.6589L34.0315 27.9177L31.3012 30.6332H31.2949Z" fill="#002273"/>
<path d="M30.319 35.0269C30.2191 35.0961 30.1066 35.1401 29.9941 35.1715C30.1066 35.1401 30.2191 35.0898 30.319 35.0269Z" fill="#002273"/>
<path d="M41.5283 37.8912H46.5697V32.826H50.8216V37.8912H55.8868V42.143H50.8216V47.1844H46.5697V42.143H41.5283V37.8912Z" fill="#6F727B"/>
<g clip-path="url(#clip0_3925_24918)">
<path d="M88.7248 14.9745H93.424C93.9774 14.9745 94.4369 14.5255 94.4369 13.9616C94.4369 13.3977 93.9879 12.9487 93.424 12.9487H88.7248C88.1714 12.9487 87.7119 13.3977 87.7119 13.9616C87.7119 14.5255 88.1609 14.9745 88.7248 14.9745Z" fill="#002273"/>
<path d="M85.7073 20.3524H93.4138C93.9673 20.3524 94.4267 19.9034 94.4267 19.3395C94.4267 18.7756 93.9777 18.3266 93.4138 18.3266H85.7073C85.1538 18.3266 84.6943 18.7756 84.6943 19.3395C84.6943 19.9034 85.1434 20.3524 85.7073 20.3524Z" fill="#002273"/>
<path d="M93.4122 23.7253H88.7131C88.1597 23.7253 87.7002 24.1743 87.7002 24.7382C87.7002 25.3021 88.1492 25.7511 88.7131 25.7511H93.4122C93.9657 25.7511 94.4252 25.3021 94.4252 24.7382C94.4252 24.1743 93.9761 23.7253 93.4122 23.7253Z" fill="#002273"/>
<path d="M109.745 49.7167C105.537 49.7167 102.112 53.1419 102.112 57.3502V68.106C102.112 73.2437 97.9347 77.4207 92.797 77.4207C87.6593 77.4207 83.4823 73.2437 83.4823 68.106V67.2079C84.7981 66.2785 85.6126 64.7644 85.6126 63.0936V59.752H85.6439C86.3645 59.752 86.9388 59.1672 86.9388 58.4571C86.9388 57.747 86.354 57.1622 85.6439 57.1622H83.4823V54.0191C84.8607 53.946 85.9572 52.7973 85.9572 51.398V50.1031H91.6484C95.5643 50.1031 98.7492 46.9182 98.7492 43.0022V11.8418C98.7492 7.92585 95.5643 4.74089 91.6484 4.74089H88.2128C87.6175 2.03628 85.2053 0.010437 82.3232 0.010437C79.4411 0.010437 77.0289 2.03628 76.4336 4.74089H72.9981C69.0717 4.74089 65.8867 7.92585 65.8867 11.8418V42.9918C65.8867 46.9077 69.0717 50.0927 72.9876 50.0927H78.6788V51.3875C78.6788 52.6929 79.6395 53.7789 80.8926 53.9773V57.1414H78.7414C78.0209 57.1414 77.4466 57.7261 77.4466 58.4362C77.4466 59.1463 78.0313 59.7311 78.7414 59.7311H78.7728V63.0727C78.7728 64.7331 79.5873 66.2577 80.903 67.187V68.0851C80.903 74.6534 86.2496 80 92.8179 80C99.3862 80 104.722 74.6534 104.722 68.0851V57.3293C104.722 54.5516 106.978 52.2856 109.766 52.2856C112.554 52.2856 114.799 54.5412 114.799 57.3293C114.799 58.0394 115.384 58.6242 116.094 58.6242C116.804 58.6242 117.389 58.0394 117.389 57.3293C117.389 53.121 113.964 49.6959 109.756 49.6959M68.4765 43.0022V11.8418C68.4765 9.35648 70.5023 7.33063 72.9876 7.33063H77.5823C78.3028 7.33063 78.8772 6.74585 78.8772 6.03576C78.8772 4.14567 80.4227 2.60018 82.3128 2.60018C84.2029 2.60018 85.7483 4.14567 85.7483 6.03576C85.7483 6.75629 86.3331 7.33063 87.0432 7.33063H91.6379C94.1232 7.33063 96.1491 9.35648 96.1491 11.8418V42.9918C96.1491 45.4771 94.1232 47.5029 91.6379 47.5029H72.9876C70.5023 47.5029 68.4765 45.4771 68.4765 42.9918" fill="#002273"/>
<path d="M82.3127 7.44551C83.1585 7.44551 83.8373 6.76675 83.8373 5.92091C83.8373 5.07506 83.1585 4.3963 82.3127 4.3963C81.4668 4.3963 80.7881 5.07506 80.7881 5.92091C80.7881 6.76675 81.4668 7.44551 82.3127 7.44551Z" fill="#002273"/>
<path d="M94.4261 43.0022V28.6124C92.8806 29.6566 91.2829 30.1683 89.5808 30.1683C89.2571 30.1683 88.9229 30.1474 88.5888 30.1161C86.5003 29.8864 84.5057 28.9466 82.5739 28.0485C78.7102 26.2419 75.0553 24.5398 70.5232 27.9545C70.4293 28.0276 70.3144 28.0798 70.21 28.1112V43.0126C70.21 44.5477 71.4526 45.7903 72.9877 45.7903H91.638C93.173 45.7903 94.4157 44.5477 94.4157 43.0126" fill="#CBC545"/>
</g>
<defs>
<clipPath id="clip0_3925_24918">
<rect width="61.5024" height="79.9896" fill="white" transform="translate(55.8867 0.010437)"/>
</clipPath>
</defs>
</svg>
