<svg width="104" height="40" viewBox="0 0 104 40" fill="none" xmlns="http://www.w3.org/2000/svg">
<path d="M8.38284 8.57996C8.71273 8.19779 8.69774 7.61949 8.33786 7.2524L4.67409 3.56642C4.29422 3.18424 3.67942 3.18424 3.29955 3.56642C2.91968 3.94859 2.91968 4.56711 3.29955 4.94929L6.96332 8.63528C7.15326 8.82637 7.40317 8.92191 7.65309 8.92191C7.86802 8.92191 8.08294 8.84648 8.26288 8.70065C8.27788 8.68054 8.29287 8.66042 8.30787 8.64534C8.33286 8.62019 8.35785 8.60511 8.38284 8.58499" fill="#78BE20"/>
<path d="M7.76367 14.1619L9.4781 15.8867C9.52808 15.937 9.58306 15.9822 9.63804 16.0174C9.58806 15.9822 9.54307 15.947 9.50309 15.9068L7.76367 14.1669V14.1619Z" fill="#CBC545"/>
<path d="M2.32546 5.92994C1.94559 5.54777 1.33079 5.54777 0.95092 5.92994C0.571048 6.31212 0.571048 6.93064 0.95092 7.31282L5.32945 11.7229L6.669 10.33L2.32546 5.92994Z" fill="#78BE20"/>
<path d="M8.38363 8.58008C8.35864 8.60019 8.32865 8.62031 8.30866 8.64042C8.29366 8.66054 8.27867 8.67562 8.26367 8.69574C8.28866 8.67562 8.31865 8.65551 8.33865 8.63539C8.35364 8.62031 8.36864 8.60019 8.38363 8.58008Z" fill="#002273"/>
<path d="M5.3291 11.7229L7.76328 14.1618L5.3291 11.7179V11.7229Z" fill="#002273"/>
<path d="M8.8584 12.5023L10.8477 14.5037C11.2276 14.8859 11.2276 15.5044 10.8477 15.8866C10.6578 16.0777 10.4079 16.1732 10.158 16.1732C10.068 16.1732 9.97802 16.1582 9.89305 16.133C10.2329 16.2386 10.6178 16.1682 10.8827 15.8967C11.2626 15.5145 11.2626 14.896 10.8827 14.5138L8.8584 12.4973V12.5023Z" fill="#002273"/>
<path d="M10.8481 15.8866C11.228 15.5044 11.228 14.8859 10.8481 14.5037L8.85878 12.5023L6.67451 10.325L5.33496 11.7179L7.76414 14.1618L9.50356 15.9017C9.54355 15.9419 9.59353 15.9822 9.63851 16.0123C9.71849 16.0676 9.80846 16.1028 9.89843 16.128C9.9834 16.1531 10.0734 16.1682 10.1633 16.1682C10.4133 16.1682 10.6582 16.0727 10.8531 15.8816" fill="#002273"/>
<path d="M9.89761 16.1331C9.80764 16.1029 9.71767 16.0727 9.6377 16.0174C9.71767 16.0677 9.80764 16.1079 9.89761 16.1331Z" fill="#002273"/>
<path d="M25.8127 8.70065C25.9926 8.84648 26.2075 8.92191 26.4225 8.92191C26.6724 8.92191 26.9223 8.82637 27.1122 8.63528L30.776 4.94929C31.1559 4.56711 31.1559 3.94859 30.776 3.56642C30.3961 3.18424 29.7813 3.18424 29.4015 3.56642L25.7377 7.2524C25.3778 7.61447 25.3628 8.19779 25.6927 8.57996C25.7177 8.60008 25.7477 8.62019 25.7677 8.64031C25.7877 8.65539 25.7977 8.67551 25.8127 8.69562" fill="#2069E7"/>
<path d="M24.4326 16.0174C24.4876 15.9822 24.5426 15.937 24.5926 15.8867L26.307 14.1619L24.5676 15.9018C24.5276 15.947 24.4776 15.9822 24.4326 16.0124" fill="#CBC545"/>
<path d="M33.1205 5.92994C32.7407 5.54777 32.1259 5.54777 31.746 5.92994L27.3975 10.33L28.737 11.7229L33.1155 7.31282C33.4954 6.93064 33.4954 6.31212 33.1155 5.92994" fill="#2069E7"/>
<path d="M25.8121 8.70067C25.7871 8.68056 25.7571 8.66044 25.7372 8.6353C25.7222 8.62021 25.7072 8.6001 25.6922 8.57999C25.3123 8.26821 24.7525 8.2833 24.3926 8.64033L18.3096 14.7199C18.1247 14.901 18.0247 15.1524 18.0247 15.4139V18.1897H16.0504V15.4139C16.0504 15.1524 15.9504 14.906 15.7655 14.7199L9.68255 8.64033C9.32767 8.2833 8.76786 8.26318 8.38299 8.57999C8.36799 8.6001 8.353 8.62021 8.338 8.6353C8.31301 8.66044 8.28802 8.67553 8.26303 8.70067C7.93314 9.08285 7.94813 9.66114 8.30801 10.0282L14.1061 15.8212V35.7447C14.1061 36.2827 14.5409 36.7202 15.0757 36.7202C15.6106 36.7202 16.0454 36.2827 16.0454 35.7447V20.1509H18.0197V35.7447C18.0197 36.2827 18.4546 36.7202 18.9894 36.7202C19.5242 36.7202 19.9591 36.2827 19.9591 35.7447V15.8212L25.7571 10.0282C26.122 9.66114 26.132 9.08285 25.8021 8.70067" fill="#002273"/>
<path d="M25.8123 8.70068C25.8123 8.70068 25.7824 8.66045 25.7674 8.64537C25.7424 8.62022 25.7174 8.60514 25.6924 8.58502C25.7074 8.60514 25.7224 8.62525 25.7374 8.64034C25.7624 8.66548 25.7874 8.68057 25.8123 8.70571" fill="#002273"/>
<path d="M28.7418 11.7229L28.7368 11.7179L26.3076 14.1618L28.7418 11.7229Z" fill="#002273"/>
<path d="M23.2183 15.8866C22.8385 15.5045 22.8385 14.886 23.2183 14.5038L25.2077 12.5024L23.1833 14.5189C22.8035 14.901 22.8035 15.5196 23.1833 15.9017C23.4483 16.1683 23.8331 16.2437 24.173 16.1381C24.088 16.1632 23.9981 16.1783 23.9081 16.1783C23.6582 16.1783 23.4133 16.0828 23.2183 15.8917" fill="#002273"/>
<path d="M25.2127 12.5024L23.2234 14.5038C22.8435 14.886 22.8435 15.5045 23.2234 15.8867C23.4133 16.0777 23.6632 16.1733 23.9131 16.1733C24.0031 16.1733 24.0931 16.1582 24.1781 16.1331C24.268 16.1029 24.358 16.0727 24.438 16.0174C24.488 15.9822 24.5329 15.947 24.5729 15.9068L26.3123 14.1669L28.7415 11.7229L27.402 10.33L25.2177 12.5024H25.2127Z" fill="#002273"/>
<path d="M24.4328 16.0174C24.3528 16.0727 24.2628 16.1079 24.1729 16.1331C24.2628 16.1079 24.3528 16.0677 24.4328 16.0174Z" fill="#002273"/>
<path d="M33.4004 18.3088H37.4335V14.2566H40.835V18.3088H44.8871V21.7103H40.835V25.7434H37.4335V21.7103H33.4004V18.3088Z" fill="#6F727B"/>
<g clip-path="url(#clip0_3925_24657)">
<path d="M61.3053 7.48466H63.6549C63.9316 7.48466 64.1613 7.26015 64.1613 6.9782C64.1613 6.69625 63.9368 6.47174 63.6549 6.47174H61.3053C61.0286 6.47174 60.7988 6.69625 60.7988 6.9782C60.7988 7.26015 61.0233 7.48466 61.3053 7.48466Z" fill="#002273"/>
<path d="M59.7975 10.1736H63.6508C63.9275 10.1736 64.1572 9.94911 64.1572 9.66717C64.1572 9.38522 63.9327 9.16071 63.6508 9.16071H59.7975C59.5208 9.16071 59.291 9.38522 59.291 9.66717C59.291 9.94911 59.5155 10.1736 59.7975 10.1736Z" fill="#002273"/>
<path d="M63.649 11.86H61.2994C61.0227 11.86 60.793 12.0846 60.793 12.3665C60.793 12.6485 61.0175 12.873 61.2994 12.873H63.649C63.9257 12.873 64.1555 12.6485 64.1555 12.3665C64.1555 12.0846 63.9309 11.86 63.649 11.86Z" fill="#002273"/>
<path d="M71.816 24.8558C69.7118 24.8558 67.9992 26.5683 67.9992 28.6725V34.0504C67.9992 36.6193 65.9107 38.7078 63.3419 38.7078C60.773 38.7078 58.6845 36.6193 58.6845 34.0504V33.6014C59.3424 33.1367 59.7497 32.3796 59.7497 31.5442V29.8734H59.7653C60.1256 29.8734 60.4128 29.581 60.4128 29.226C60.4128 28.8709 60.1204 28.5785 59.7653 28.5785H58.6845V27.0069C59.3737 26.9704 59.922 26.396 59.922 25.6964V25.049H62.7675C64.7255 25.049 66.318 23.4565 66.318 21.4985V5.9183C66.318 3.96033 64.7255 2.36785 62.7675 2.36785H61.0497C60.7521 1.01555 59.546 0.00262451 58.105 0.00262451C56.6639 0.00262451 55.4578 1.01555 55.1602 2.36785H53.4424C51.4792 2.36785 49.8867 3.96033 49.8867 5.9183V21.4933C49.8867 23.4513 51.4792 25.0437 53.4372 25.0437H56.2827V25.6912C56.2827 26.3438 56.7631 26.8868 57.3897 26.986V28.5681H56.3141C55.9538 28.5681 55.6666 28.8605 55.6666 29.2155C55.6666 29.5706 55.959 29.863 56.3141 29.863H56.3297V31.5338C56.3297 32.3639 56.737 33.1262 57.3949 33.5909V34.04C57.3949 37.3241 60.0682 39.9974 63.3523 39.9974C66.6365 39.9974 69.3045 37.3241 69.3045 34.04V28.6621C69.3045 27.2732 70.4323 26.1402 71.8264 26.1402C73.2205 26.1402 74.343 27.268 74.343 28.6621C74.343 29.0171 74.6354 29.3095 74.9905 29.3095C75.3455 29.3095 75.6379 29.0171 75.6379 28.6621C75.6379 26.5579 73.9253 24.8453 71.8212 24.8453M51.1816 21.4985V5.9183C51.1816 4.67564 52.1945 3.66272 53.4372 3.66272H55.7345C56.0948 3.66272 56.3819 3.37033 56.3819 3.01529C56.3819 2.07024 57.1547 1.29749 58.0997 1.29749C59.0448 1.29749 59.8175 2.07024 59.8175 3.01529C59.8175 3.37555 60.1099 3.66272 60.465 3.66272H62.7623C64.005 3.66272 65.0179 4.67564 65.0179 5.9183V21.4933C65.0179 22.736 64.005 23.7489 62.7623 23.7489H53.4372C52.1945 23.7489 51.1816 22.736 51.1816 21.4933" fill="#002273"/>
<path d="M58.1002 3.72016C58.5231 3.72016 58.8625 3.38078 58.8625 2.95786C58.8625 2.53494 58.5231 2.19556 58.1002 2.19556C57.6773 2.19556 57.3379 2.53494 57.3379 2.95786C57.3379 3.38078 57.6773 3.72016 58.1002 3.72016Z" fill="#002273"/>
<path d="M64.1569 21.4985V14.3036C63.3842 14.8257 62.5853 15.0816 61.7342 15.0816C61.5724 15.0816 61.4053 15.0711 61.2382 15.0555C60.194 14.9406 59.1967 14.4707 58.2308 14.0217C56.2989 13.1184 54.4715 12.2673 52.2055 13.9747C52.1585 14.0112 52.101 14.0373 52.0488 14.053V21.5037C52.0488 22.2712 52.6702 22.8926 53.4377 22.8926H62.7628C63.5304 22.8926 64.1517 22.2712 64.1517 21.5037" fill="#CBC545"/>
</g>
<path d="M95.1429 4.99152H83.8232C83.0244 4.99152 82.377 5.63895 82.377 6.4378V8.57852C82.377 9.37737 83.0244 10.0248 83.8232 10.0248H95.1429C95.9418 10.0248 96.5892 9.37737 96.5892 8.57852V6.4378C96.5892 5.63895 95.9418 4.99152 95.1429 4.99152Z" fill="#002273"/>
<path d="M88.3918 24.1118H86.2041V21.9241H88.3918V19.7416H90.5743V21.9241H92.762V24.1118H90.5743V26.2942H88.3918V24.1118Z" fill="#D50056"/>
<path d="M96.0622 28.6124H82.9047V17.4233H96.0675V28.6124H96.0622ZM95.4305 11.022H83.5365C81.9388 11.022 80.6387 12.3221 80.6387 13.9198V32.1107C80.6387 33.7084 81.9388 35.0085 83.5365 35.0085H95.4357C97.0334 35.0085 98.3335 33.7084 98.3335 32.1107V13.9198C98.3335 12.3221 97.0334 11.022 95.4357 11.022" fill="#002273"/>
<defs>
<clipPath id="clip0_3925_24657">
<rect width="30.7512" height="39.9948" fill="white" transform="translate(44.8867 0.00262451)"/>
</clipPath>
</defs>
</svg>
