<svg width="84" height="84" viewBox="0 0 84 84" fill="none" xmlns="http://www.w3.org/2000/svg">
<g clip-path="url(#clip0_4204_23306)">
<path d="M37.1917 49.0618H24.1113" stroke="#002273" stroke-width="1.8932"/>
<path d="M60.1262 72.3583H47.0459" stroke="#002273" stroke-width="1.8932"/>
<path d="M60.1262 53.2734H47.0459" stroke="#002273" stroke-width="1.8932"/>
<path d="M60.1275 60.3013C56.2486 60.3013 53.1104 57.1583 53.1104 53.2735C53.1104 49.3887 56.2486 46.2456 60.1275 46.2456C64.0065 46.2456 67.1447 49.3887 67.1447 53.2735C67.1447 57.1583 64.0065 60.3013 60.1275 60.3013Z" fill="#D50056"/>
<path d="M60.1275 79.889C56.2486 79.889 53.1104 76.7459 53.1104 72.8611C53.1104 68.9763 56.2486 65.8333 60.1275 65.8333C64.0065 65.8333 67.1447 68.9763 67.1447 72.8611C67.1447 76.7459 64.0065 79.889 60.1275 79.889Z" fill="#D50056"/>
<path d="M23.8727 55.5994C19.9937 55.5994 16.8555 52.4564 16.8555 48.5716C16.8555 44.6868 19.9937 41.5437 23.8727 41.5437C27.7516 41.5437 30.8899 44.6868 30.8899 48.5716C30.8899 52.4564 27.7516 55.5994 23.8727 55.5994Z" fill="#D50056"/>
<path d="M20.27 13.6459C21.0985 12.6904 21.0608 11.2446 20.157 10.3268L10.943 1.11139C9.98899 0.155903 8.44495 0.155903 7.49092 1.11139C6.53688 2.06688 6.53688 3.61326 7.49092 4.56875L16.6924 13.7842C17.1694 14.2619 17.797 14.5008 18.4247 14.5008C18.9645 14.5008 19.5042 14.3122 19.9562 13.9476C19.9938 13.8973 20.0315 13.8471 20.0691 13.8093C20.1319 13.7465 20.1947 13.7088 20.2574 13.6585" fill="#01737C"/>
<path d="M18.7148 27.6011L23.0206 31.9133C23.1461 32.0391 23.2842 32.1396 23.4223 32.2402C23.2967 32.1522 23.1838 32.0642 23.0833 31.9636L18.7148 27.6136V27.6011Z" fill="#CBC545"/>
<path d="M5.05631 7.00775C4.10227 6.05227 2.55824 6.05227 1.6042 7.00775C0.650163 7.96324 0.650163 9.50963 1.6042 10.4651L12.6007 21.491L15.965 18.0084L5.05631 7.00775Z" fill="#01737C"/>
<path d="M20.271 13.6459C20.2082 13.6962 20.1329 13.7465 20.0827 13.7967C20.045 13.847 20.0074 13.8973 19.9697 13.935C20.0325 13.8847 20.1078 13.8345 20.158 13.7842C20.1957 13.7339 20.2333 13.6962 20.271 13.6459Z" fill="#01737C"/>
<path d="M12.6016 21.5034L18.7149 27.6009L12.6016 21.4908V21.5034Z" fill="#01737C"/>
<path d="M21.4639 23.4521L26.46 28.4559C27.414 29.4114 27.414 30.9578 26.46 31.9133C25.983 32.391 25.3553 32.6299 24.7277 32.6299C24.5017 32.6299 24.2758 32.5922 24.0624 32.5293C24.916 32.7933 25.8826 32.6173 26.5479 31.9384C27.5019 30.9829 27.5019 29.4365 26.5479 28.481L21.4639 23.4396V23.4521Z" fill="#002273"/>
<path d="M26.4584 31.9133C27.4124 30.9578 27.4124 29.4114 26.4584 28.4559L21.4622 23.4522L15.9765 18.0084L12.6123 21.4909L18.7131 27.601L23.0816 31.951C23.182 32.0516 23.3076 32.1522 23.4205 32.2276C23.6214 32.3659 23.8473 32.4539 24.0733 32.5168C24.2867 32.5796 24.5127 32.6173 24.7386 32.6173C25.3663 32.6173 25.9814 32.3785 26.4709 31.9007" fill="#002273"/>
<path d="M24.0756 32.5293C23.8497 32.4538 23.6237 32.3784 23.4229 32.2401C23.6237 32.3784 23.8497 32.4664 24.0756 32.5293Z" fill="#002273"/>
<path d="M64.0451 13.9476C64.497 14.3122 65.0367 14.5008 65.5765 14.5008C66.2042 14.5008 66.8193 14.2619 67.3089 13.7842L76.5103 4.56875C77.4643 3.61326 77.4643 2.06688 76.5103 1.11139C75.5563 0.155903 74.0122 0.155903 73.0582 1.11139L63.8568 10.3268C62.9529 11.2446 62.9153 12.6904 63.7438 13.6459C63.8065 13.6962 63.8819 13.7465 63.9321 13.7968C63.9823 13.8471 64.0074 13.8848 64.0451 13.9351" fill="#01737C"/>
<path d="M60.5791 32.2402C60.7172 32.1522 60.8553 32.0391 60.9808 31.9133L65.2865 27.6011L60.918 31.9511C60.8176 32.0516 60.6921 32.1522 60.5791 32.2277" fill="#CBC545"/>
<path d="M82.3958 7.00775C81.4417 6.05227 79.8977 6.05227 78.9437 7.00775L68.0225 18.0084L71.3867 21.491L82.3958 10.4651C83.3498 9.50963 83.3498 7.96324 82.3958 7.00775Z" fill="#01737C"/>
<path d="M64.0434 13.9476C63.9806 13.8973 63.9053 13.847 63.8551 13.7841C63.8174 13.7464 63.7797 13.6961 63.7421 13.6459C62.788 12.8664 61.3695 12.9041 60.4783 13.7967L45.2011 28.9965C44.7367 29.4491 44.4856 30.0777 44.4856 30.7315V37.6714H39.5271V30.7315C39.5271 30.0777 39.2761 29.4617 38.8116 28.9965L23.5344 13.7967C22.6432 12.9041 21.2372 12.8538 20.2706 13.6459C20.233 13.6961 20.1953 13.7464 20.1577 13.7841C20.0949 13.847 20.0321 13.8847 19.9694 13.9476C19.1409 14.9031 19.1785 16.3489 20.0823 17.2667L34.644 31.7499V81.561C34.644 82.9062 35.7361 84 37.0793 84C38.4224 84 39.5146 82.9062 39.5146 81.561V42.5745H44.473V81.561C44.473 82.9062 45.5652 84 46.9083 84C48.2515 84 49.3436 82.9062 49.3436 81.561V31.7499L63.9053 17.2667C64.8216 16.3489 64.8468 14.9031 64.0182 13.9476" fill="#002273"/>
<path d="M64.0444 13.9476C64.0444 13.9476 63.9691 13.847 63.9315 13.8093C63.8687 13.7465 63.8059 13.7087 63.7432 13.6584C63.7808 13.7087 63.8185 13.759 63.8561 13.7967C63.9189 13.8596 63.9817 13.8973 64.0444 13.9602" fill="#002273"/>
<path d="M71.3995 21.5035L71.3869 21.491L65.2861 27.6011L71.3995 21.5035Z" fill="#002273"/>
<path d="M57.528 31.9133C56.574 30.9578 56.574 29.4114 57.528 28.4559L62.5241 23.4521L57.4401 28.4936C56.4861 29.4491 56.4861 30.9955 57.4401 31.951C58.1055 32.6173 59.072 32.8059 59.9257 32.5419C59.7122 32.6047 59.4863 32.6424 59.2603 32.6424C58.6327 32.6424 58.0176 32.4036 57.528 31.9258" fill="#002273"/>
<path d="M62.5378 23.4523L57.5417 28.4561C56.5877 29.4115 56.5877 30.9579 57.5417 31.9134C58.0187 32.3912 58.6464 32.63 59.274 32.63C59.5 32.63 59.7259 32.5923 59.9393 32.5295C60.1653 32.454 60.3913 32.3786 60.5921 32.2403C60.7176 32.1523 60.8306 32.0643 60.931 31.9637L65.2995 27.6137L71.4003 21.5036L68.0361 18.0211L62.5504 23.4523H62.5378Z" fill="#002273"/>
<path d="M60.5795 32.2401C60.3787 32.3784 60.1527 32.4664 59.9268 32.5293C60.1527 32.4664 60.3787 32.3658 60.5795 32.2401Z" fill="#002273"/>
</g>
<defs>
<clipPath id="clip0_4204_23306">
<rect width="82.2229" height="83.6053" fill="white" transform="translate(0.888672 0.394775)"/>
</clipPath>
</defs>
</svg>
