<svg width="116" height="70" viewBox="0 0 116 70" fill="none" xmlns="http://www.w3.org/2000/svg">
<mask id="mask0_5928_12966" style="mask-type:luminance" maskUnits="userSpaceOnUse" x="5" y="10" width="51" height="50">
<path d="M55.6976 10H5.02539V60H55.6976V10Z" fill="white"/>
</mask>
<g mask="url(#mask0_5928_12966)">
<path d="M49.488 34.6959C49.376 34.3678 49.248 34.0557 49.0879 33.7516C48.7678 33.1354 48.3597 32.5753 47.8475 32.0631C47.5594 31.767 47.2313 31.4869 46.8792 31.2308C46.8232 31.1908 46.7592 31.1428 46.7032 31.1028C45.9829 30.5906 45.1747 30.1665 44.3424 29.7904C44.1423 29.7023 43.9423 29.6143 43.7342 29.5263L40.7012 28.3259C40.3971 28.1979 39.7729 27.9418 39.4368 27.7817C38.9407 27.5497 38.4605 27.3016 38.0284 27.0295C37.3162 26.5893 36.692 26.0772 36.2118 25.453C35.9957 25.1729 35.8037 24.8688 35.6516 24.5407C35.4756 24.1646 35.3395 23.7564 35.2515 23.3083C35.1635 22.8441 34.7073 22.524 34.2352 22.6041C33.739 22.6841 33.4109 23.1562 33.5069 23.6364C33.811 25.1569 34.5233 26.4293 35.6916 27.4856C35.9477 27.7177 36.2278 27.9418 36.5319 28.1498C36.6039 28.1979 36.6759 28.2539 36.748 28.3019C37.5802 28.8541 38.5005 29.3022 39.4608 29.7103C39.4768 29.7103 39.4848 29.7183 39.5009 29.7263L42.3498 30.8547C43.038 31.1268 43.7022 31.4069 44.3264 31.727C44.7905 31.9591 45.2307 32.2151 45.6308 32.4952C46.279 32.9514 46.8312 33.4715 47.2553 34.1118C47.4474 34.3998 47.6074 34.7039 47.7355 35.04C47.8475 35.3201 47.9356 35.6242 47.9996 35.9523C48.0636 36.2804 48.0956 36.5925 48.1036 36.8966C48.1036 37.2568 48.0796 37.6009 48.0156 37.937C47.8715 38.6812 47.5514 39.3774 47.1273 40.0336C46.9432 40.3137 46.7512 40.5778 46.5351 40.8499C46.5351 40.8499 48.9919 40.3778 48.9999 40.3698C49.232 40.0497 49.264 39.8576 49.368 39.6015C49.6481 38.9373 49.8162 38.2651 49.8722 37.5769C49.9042 37.2408 49.9042 36.8966 49.8802 36.5525C49.8562 36.2404 49.8162 35.9283 49.7521 35.6162C49.6881 35.2961 49.6081 34.992 49.5121 34.6959" fill="#002273"/>
<path d="M36.2265 37.3128C36.2505 37.6249 36.2905 37.937 36.3545 38.2491C36.4185 38.5612 36.4986 38.8733 36.5946 39.1694C36.7066 39.4975 36.8347 39.8096 36.9947 40.1137C37.3148 40.7299 37.723 41.29 38.2351 41.8022C38.4032 41.9783 38.5872 42.1383 38.7793 42.3064C38.7793 42.3064 41.2281 41.8502 41.2201 41.8502C40.996 41.7382 40.7079 41.5461 40.4678 41.3781C39.8196 40.9219 39.2674 40.4018 38.8433 39.7615C38.6513 39.4735 38.4912 39.1694 38.3632 38.8333C38.2511 38.5452 38.1631 38.2491 38.0991 37.921C38.0351 37.5929 38.003 37.2808 37.995 36.9767C37.995 36.6165 38.0191 36.2724 38.0831 35.9363C38.2271 35.1921 38.5472 34.4959 38.9714 33.8397C39.2354 33.4315 39.5475 33.0314 39.8836 32.6393C40.3398 32.1191 40.852 31.6069 41.3881 31.1028L43.5968 29.0061C43.6048 28.9981 43.6208 28.9821 43.6288 28.9741C44.3571 28.2459 45.0453 27.4856 45.6055 26.6694C45.6535 26.5973 45.7015 26.5253 45.7495 26.4453C45.9496 26.1332 46.1256 25.8291 46.2697 25.517C46.9499 24.1085 47.134 22.6681 46.8299 21.1396C46.7338 20.6594 46.2537 20.3393 45.7575 20.4514C45.2934 20.5554 44.9973 21.0196 45.0853 21.4837C45.1733 21.9318 45.2054 22.364 45.1813 22.7721C45.1653 23.1322 45.1013 23.4843 45.0053 23.8285C44.7972 24.5887 44.4131 25.2929 43.9249 25.9651C43.6208 26.3813 43.2767 26.7814 42.9006 27.1815C42.6445 27.4536 42.1644 27.9258 41.9323 28.1578L39.5796 30.3906C39.4275 30.5426 39.2674 30.7027 39.1154 30.8547C38.4832 31.5109 37.899 32.2071 37.4189 32.9434C37.3788 33.0074 37.3388 33.0634 37.3068 33.1274C37.0747 33.5035 36.8827 33.8797 36.7226 34.2638C36.4425 34.928 36.2745 35.6002 36.2185 36.2884C36.1865 36.6245 36.1865 36.9687 36.2105 37.3128" fill="#AFAFAF"/>
<path d="M43.5325 33.3354C44.0047 33.2473 44.0927 32.6071 43.6526 32.3991C43.6526 32.3991 43.6446 32.3991 43.6366 32.3991C43.5405 32.3511 43.4285 32.343 43.3245 32.3591L40.8917 32.8232C40.7877 32.8472 40.6916 32.8952 40.6196 32.9752C40.6196 32.9752 40.6196 32.9833 40.6116 32.9833C40.2835 33.3354 40.6036 33.8955 41.0758 33.8075L43.5325 33.3354Z" fill="#15274F"/>
<path d="M39.0992 39.2253C39.0992 39.2253 39.0992 39.2253 39.0992 39.2333C39.2112 39.4174 39.4193 39.5054 39.6274 39.4654L47.0217 38.049C47.2298 38.0089 47.3898 37.8409 47.4218 37.6328C47.4218 37.6328 47.4218 37.6328 47.4218 37.6248C47.4779 37.2887 47.1658 37.0006 46.8297 37.0646L39.4273 38.4811C39.0832 38.5451 38.9151 38.9292 39.0912 39.2173" fill="#15274F"/>
<path d="M42.4219 40.6018C41.9417 40.6898 41.8617 41.33 42.3018 41.5381C42.3018 41.5381 42.3098 41.5381 42.3178 41.5381C42.4139 41.5861 42.5259 41.5941 42.63 41.5781L45.0627 41.1139C45.1668 41.0899 45.2628 41.0419 45.3348 40.9619C45.3348 40.9619 45.3348 40.9539 45.3428 40.9539C45.6709 40.6018 45.3508 40.0416 44.8787 40.1296L42.4219 40.6018Z" fill="#15274F"/>
<path d="M46.7588 34.6398C46.6388 34.4878 46.4467 34.4077 46.2546 34.4477L39.1484 35.8082C38.9563 35.8482 38.8043 35.9842 38.7562 36.1763C38.7562 36.1763 38.7562 36.1763 38.7562 36.1843C38.6682 36.5364 38.9803 36.8645 39.3404 36.7925L46.4547 35.4321C46.8148 35.36 46.9829 34.9439 46.7668 34.6478C46.7668 34.6478 46.7668 34.6478 46.7668 34.6398" fill="#002273"/>
<path d="M40.7249 19.083C41.1971 18.995 41.2851 18.3548 40.845 18.1467C40.845 18.1467 40.837 18.1467 40.829 18.1467C40.7329 18.0987 40.6209 18.0827 40.5169 18.1067L38.0841 18.5709C37.98 18.5949 37.884 18.6429 37.812 18.7229C37.812 18.7229 37.812 18.7309 37.804 18.7309C37.4759 19.083 37.796 19.6432 38.2681 19.5552L40.7249 19.083Z" fill="#15274F"/>
<path d="M36.2906 24.9729C36.2906 24.9729 36.2906 24.9729 36.2906 24.9809C36.4026 25.1649 36.6107 25.253 36.8188 25.213L44.2131 23.7965C44.4212 23.7565 44.5812 23.5884 44.6133 23.3804C44.6133 23.3804 44.6133 23.3804 44.6133 23.3724C44.6693 23.0363 44.3572 22.7482 44.0211 22.8122L36.6187 24.2286C36.2746 24.2927 36.1065 24.6768 36.2826 24.9649" fill="#7F0064"/>
<path d="M39.6123 26.3571C39.1322 26.4452 39.0521 27.0854 39.4923 27.2934C39.4923 27.2934 39.5003 27.2934 39.5083 27.2934C39.6043 27.3415 39.7163 27.3495 39.8204 27.3334L42.2532 26.8693C42.3572 26.8453 42.4532 26.7973 42.5252 26.7173C42.5252 26.7173 42.5252 26.7092 42.5332 26.7092C42.8614 26.3571 42.5413 25.797 42.0691 25.885L39.6123 26.3571Z" fill="#002273"/>
<path d="M43.9414 20.3954C43.8214 20.2434 43.6293 20.1633 43.4373 20.2034L36.331 21.5638C36.1389 21.6038 35.9869 21.7398 35.9389 21.9319C35.9389 21.9319 35.9389 21.9319 35.9389 21.9399C35.8508 22.292 36.1629 22.6201 36.523 22.5481L43.6373 21.1797C43.9974 21.1076 44.1655 20.6915 43.9494 20.4034C43.9494 20.4034 43.9494 20.4034 43.9494 20.3954" fill="#7F0064"/>
<path d="M45.1737 22.148C45.1737 21.9799 45.1177 21.5318 45.0537 21.3317C45.0217 21.2357 44.9897 21.1477 44.9577 21.0516C44.8296 20.7155 44.6696 20.4114 44.4775 20.1233C44.0614 19.4831 43.5012 18.963 42.853 18.5068C42.5169 18.2667 42.1488 18.0507 41.7646 17.8506C41.7646 17.8506 44.2935 17.3705 44.2855 17.3705C43.9814 17.1624 44.8456 17.8346 45.0857 18.0747C45.5979 18.5868 45.95 19.179 46.3261 19.7632C46.4862 20.0193 46.9023 21.0356 46.9183 21.7319" fill="#15274F"/>
<path d="M35.4349 24.0205C35.3789 23.8605 35.2508 23.4284 35.2348 23.2203C35.2348 23.1243 35.2268 23.0202 35.2188 22.9242C35.2188 22.5641 35.2428 22.22 35.3069 21.8839C35.4509 21.1396 35.771 20.4434 36.1952 19.7872C36.4192 19.4431 36.6673 19.107 36.9474 18.7869C36.9474 18.7869 34.4506 19.259 34.4346 19.267C34.4026 19.267 34.0905 19.8992 33.9544 20.2193C33.6823 20.8835 33.5703 21.5638 33.4503 22.244C33.3943 22.5401 33.4023 23.6364 33.6503 24.2926" fill="#15274F"/>
<path d="M40.9721 46.2036C40.7161 45.9715 40.444 45.7634 40.1639 45.5794C39.5877 45.1952 38.9475 44.9151 38.2513 44.7151C37.8512 44.603 37.435 44.523 36.9949 44.467C36.9229 44.459 36.8508 44.451 36.7788 44.443C35.8985 44.355 34.9862 44.379 34.0739 44.467C33.8579 44.491 33.6338 44.507 33.4177 44.539L30.1927 44.9872C29.8646 45.0272 29.2004 45.1072 28.8243 45.1392C28.2801 45.1872 27.7439 45.2032 27.2237 45.1792C26.3835 45.1472 25.5912 45.0032 24.863 44.6991C24.5349 44.563 24.2228 44.395 23.9267 44.1789C23.5906 43.9388 23.2705 43.6507 22.9664 43.3066C22.6543 42.9465 22.1101 42.8905 21.734 43.1946C21.3419 43.5067 21.2858 44.0829 21.606 44.451C22.6223 45.6274 23.8627 46.3796 25.3992 46.7237C25.7353 46.7957 26.0874 46.8518 26.4555 46.8918C26.5435 46.8998 26.6316 46.9078 26.7196 46.9158C27.7119 46.9878 28.7442 46.9238 29.7686 46.8037C29.7846 46.8037 29.8006 46.8037 29.8166 46.8037L32.8495 46.3796C33.5858 46.2756 34.306 46.1956 35.0022 46.1635C35.5224 46.1395 36.0266 46.1475 36.5147 46.1956C37.299 46.2676 38.0432 46.4516 38.7234 46.8037C39.0275 46.9558 39.3236 47.1479 39.5957 47.3799C39.8358 47.572 40.0599 47.7961 40.2759 48.0441C40.492 48.2922 40.6761 48.5563 40.8281 48.8124C41.0122 49.1245 41.1562 49.4366 41.2602 49.7567C41.5003 50.4769 41.5643 51.2372 41.5163 52.0214C41.4923 52.3495 41.4523 52.6856 41.3963 53.0217C41.3963 53.0217 43.3009 51.4052 43.3089 51.3892C43.3489 50.9971 43.2849 50.813 43.2529 50.5409C43.1649 49.8287 42.9808 49.1565 42.6927 48.5323C42.5487 48.2202 42.3886 47.9241 42.1965 47.636C42.0285 47.3799 41.8364 47.1239 41.6284 46.8838C41.4203 46.6357 41.1962 46.4116 40.9641 46.2036" fill="#15274F"/>
<path d="M30.7139 55.0065C30.882 55.2626 31.0741 55.5187 31.2821 55.7668C31.4902 56.0148 31.7143 56.2389 31.9463 56.447C32.2024 56.6791 32.4745 56.8871 32.7546 57.0712C33.3308 57.4473 33.971 57.7354 34.6592 57.9355C34.8913 57.9995 35.1314 58.0555 35.3794 58.1035L37.284 56.503C37.028 56.519 36.6839 56.487 36.3958 56.463C35.6115 56.391 34.8673 56.2069 34.1871 55.8548C33.883 55.7027 33.5869 55.5107 33.3148 55.2786C33.0747 55.0865 32.8506 54.8625 32.6346 54.6144C32.4185 54.3663 32.2344 54.1022 32.0824 53.8461C31.8983 53.542 31.7543 53.2219 31.6502 52.9018C31.4102 52.1816 31.3461 51.4214 31.3942 50.6371C31.4262 50.149 31.4982 49.6528 31.6022 49.1486C31.7463 48.4684 31.9383 47.7722 32.1544 47.068L33.0427 44.155C33.0427 44.139 33.0427 44.123 33.0507 44.115C33.3308 43.1227 33.5549 42.1224 33.6349 41.1381C33.6349 41.0501 33.6509 40.962 33.6509 40.874C33.6749 40.5059 33.6669 40.1538 33.6509 39.8097C33.5468 38.2492 33.0027 36.9047 31.9863 35.7283C31.6662 35.3522 31.0901 35.3202 30.7139 35.6563C30.3618 35.9764 30.3298 36.5286 30.6339 36.8807C30.93 37.2248 31.1701 37.5849 31.3541 37.9611C31.5142 38.2892 31.6342 38.6253 31.7223 38.9614C31.9143 39.7216 31.9223 40.5299 31.8263 41.3541C31.7623 41.8663 31.6662 42.3865 31.5302 42.9146C31.4422 43.2748 31.2581 43.923 31.1701 44.2351L30.2258 47.3321C30.1698 47.5401 30.1057 47.7562 30.0577 47.9643C29.8337 48.8525 29.6656 49.7408 29.6096 50.6211C29.6096 50.6931 29.6096 50.7652 29.6016 50.8372C29.5856 51.2773 29.6016 51.7015 29.6576 52.1096C29.7456 52.8218 29.9297 53.494 30.2178 54.1182C30.3618 54.4223 30.5219 54.7264 30.7139 55.0145" fill="#15274F"/>
<path d="M35.1145 47.9401C35.4826 47.628 35.2425 47.0278 34.7544 47.0678C34.7544 47.0678 34.7464 47.0678 34.7384 47.0678C34.6344 47.0758 34.5303 47.1158 34.4503 47.1879L32.5617 48.7884C32.4817 48.8604 32.4256 48.9484 32.3936 49.0525C32.3936 49.0525 32.3936 49.0605 32.3936 49.0685C32.2816 49.5406 32.8338 49.8687 33.2019 49.5566L35.1065 47.9401H35.1145Z" fill="#15274F"/>
<path d="M34.155 55.2546C34.155 55.2546 34.155 55.2546 34.163 55.2546C34.347 55.3586 34.5791 55.3346 34.7392 55.1985L40.477 50.325C40.637 50.1889 40.7011 49.9649 40.621 49.7648C40.621 49.7648 40.621 49.7648 40.621 49.7568C40.501 49.4367 40.0929 49.3407 39.8288 49.5647L34.0909 54.4463C33.8269 54.6704 33.8589 55.0865 34.163 55.2546" fill="#15274F"/>
<path d="M37.724 54.8223C37.3558 55.1344 37.5959 55.7346 38.0761 55.6946C38.0761 55.6946 38.0841 55.6946 38.0921 55.6946C38.1961 55.6866 38.3001 55.6466 38.3802 55.5746L40.2688 53.9741C40.3488 53.902 40.4048 53.814 40.4368 53.71C40.4368 53.71 40.4368 53.702 40.4368 53.694C40.5489 53.2218 39.9967 52.8937 39.6286 53.2058L37.724 54.8223Z" fill="#15274F"/>
<path d="M38.5635 47.4999C38.3874 47.4199 38.1793 47.4519 38.0353 47.58L32.5215 52.2615C32.3775 52.3895 32.3135 52.5816 32.3615 52.7736C32.3615 52.7736 32.3615 52.7736 32.3615 52.7816C32.4575 53.1337 32.8896 53.2618 33.1697 53.0217L38.6915 48.3322C38.9716 48.0921 38.9076 47.652 38.5795 47.4999C38.5795 47.4999 38.5795 47.4999 38.5715 47.4999" fill="#15274F"/>
<path d="M25.6477 36.9286C26.0158 36.6165 25.7757 36.0163 25.2876 36.0563C25.2876 36.0563 25.2796 36.0563 25.2716 36.0563C25.1676 36.0644 25.0635 36.1044 24.9835 36.1764L23.0949 37.7769C23.0149 37.8489 22.9588 37.9369 22.9268 38.041C22.9268 38.041 22.9268 38.049 22.9268 38.057C22.8148 38.5291 23.367 38.8572 23.7351 38.5451L25.6397 36.9286H25.6477Z" fill="#15274F"/>
<path d="M24.6872 44.235C24.6872 44.235 24.6872 44.235 24.6952 44.235C24.8793 44.3391 25.1113 44.3151 25.2714 44.179L31.0092 39.3055C31.1693 39.1694 31.2333 38.9453 31.1533 38.7453C31.1533 38.7453 31.1533 38.7453 31.1533 38.7373C31.0332 38.4172 30.6251 38.3211 30.361 38.5452L24.6232 43.4188C24.3591 43.6428 24.3911 44.059 24.6952 44.227" fill="#15274F"/>
<path d="M28.2562 43.8028C27.8881 44.1149 28.1281 44.7151 28.6083 44.6751C28.6083 44.6751 28.6163 44.6751 28.6243 44.6751C28.7283 44.6671 28.8324 44.6271 28.9124 44.555L30.801 42.9545C30.881 42.8825 30.937 42.7945 30.9691 42.6904C30.9691 42.6904 30.9691 42.6824 30.9691 42.6744C31.0811 42.2023 30.5289 41.8742 30.1608 42.1863L28.2562 43.8028Z" fill="#15274F"/>
<path d="M29.0957 36.4804C28.9196 36.4004 28.7116 36.4324 28.5675 36.5604L23.0537 41.2419C22.9097 41.37 22.8457 41.57 22.8937 41.7541C22.8937 41.7541 22.8937 41.7541 22.8937 41.7621C22.9897 42.1142 23.4219 42.2422 23.702 42.0022L29.2237 37.3127C29.5038 37.0726 29.4398 36.6324 29.1117 36.4804C29.1117 36.4804 29.1117 36.4804 29.1037 36.4804" fill="#15274F"/>
<path d="M31.0328 37.4007C30.9448 37.2567 30.6807 36.8886 30.5206 36.7445C30.4486 36.6805 30.3766 36.6165 30.2966 36.5525C30.0165 36.3284 29.7284 36.1363 29.4243 35.9843C28.7441 35.6322 27.9998 35.4481 27.2156 35.3761C26.8074 35.3361 26.3833 35.3281 25.9512 35.3361C25.9512 35.3361 27.9118 33.6795 27.9038 33.6795C27.5357 33.6555 28.616 33.8076 28.9521 33.9036C29.6484 34.1037 30.2485 34.4398 30.8567 34.7679C31.1208 34.9119 31.9851 35.5921 32.3452 36.1923" fill="#15274F"/>
<path d="M23.4788 43.8269C23.3507 43.7149 23.0306 43.4028 22.9106 43.2267C22.8546 43.1467 22.8066 43.0587 22.7585 42.9787C22.5745 42.6666 22.4304 42.3545 22.3264 42.0264C22.0863 41.3061 22.0223 40.5459 22.0703 39.7616C22.0943 39.3535 22.1504 38.9374 22.2304 38.5212C22.2304 38.5212 20.2938 40.1618 20.2778 40.1698C20.2537 40.1938 20.2938 40.89 20.3338 41.2341C20.4218 41.9463 20.6619 42.5945 20.894 43.2428C20.998 43.5308 21.5422 44.4751 22.0703 44.9233" fill="#15274F"/>
<path d="M19.7895 37.6889C19.9816 37.4008 20.1496 37.1047 20.3017 36.8006C20.5978 36.1764 20.7899 35.5122 20.8939 34.7999C20.9499 34.3918 20.9739 33.9677 20.9659 33.5275C20.9659 33.4555 20.9659 33.3835 20.9659 33.3115C20.9259 32.4312 20.7738 31.5429 20.5578 30.6546C20.5098 30.4385 20.4537 30.2305 20.3977 30.0224L19.5014 26.9094C19.4134 26.5893 19.2374 25.9491 19.1573 25.581C19.0373 25.0528 18.9413 24.5246 18.8852 24.0125C18.8052 23.1882 18.8292 22.388 19.0293 21.6277C19.1173 21.2916 19.2454 20.9555 19.4134 20.6354C19.6055 20.2673 19.8456 19.9152 20.1496 19.5711C20.4617 19.2189 20.4457 18.6668 20.0936 18.3467C19.7255 18.0026 19.1493 18.0266 18.8212 18.4027C17.7889 19.5631 17.2207 20.8995 17.0927 22.46C17.0687 22.8041 17.0607 23.1562 17.0767 23.5243C17.0767 23.6124 17.0847 23.7004 17.0927 23.7884C17.1567 24.7727 17.3728 25.781 17.6368 26.7734C17.6368 26.7894 17.6368 26.7974 17.6448 26.8134L18.4931 29.7343C18.7012 30.4385 18.8852 31.1348 19.0133 31.815C19.1093 32.3191 19.1733 32.8233 19.1973 33.3115C19.2374 34.0957 19.1573 34.848 18.9012 35.5682C18.7892 35.8883 18.6372 36.2004 18.4531 36.5125C18.2931 36.7686 18.109 37.0246 17.8849 37.2727C17.6609 37.5208 17.4368 37.7369 17.1967 37.9289C16.9166 38.153 16.6205 38.3371 16.3084 38.4891C15.6202 38.8252 14.876 39.0013 14.0837 39.0653C13.7556 39.0893 13.4115 39.0973 13.0674 39.0893C13.0674 39.0893 14.948 40.7378 14.956 40.7378C15.3481 40.7218 15.5242 40.6338 15.7963 40.5618C16.5005 40.3777 17.1327 40.0976 17.7169 39.7295C18.005 39.5455 18.277 39.3374 18.5411 39.1133C18.7732 38.9052 18.9973 38.6812 19.2133 38.4411C19.4294 38.201 19.6215 37.9529 19.7975 37.6969" fill="#15274F"/>
<path d="M9.56247 28.862C9.3304 29.07 9.10633 29.2941 8.89026 29.5342C8.67419 29.7743 8.48213 30.0223 8.30607 30.2864C8.11401 30.5745 7.94595 30.8626 7.79391 31.1747C7.49781 31.7989 7.29775 32.4631 7.20172 33.1753C7.16971 33.4154 7.1457 33.6555 7.1377 33.9116C7.1377 33.9116 9.00229 35.5601 9.00229 35.5521C8.95428 35.304 8.93027 34.9599 8.92227 34.6718C8.88225 33.8876 8.96228 33.1353 9.21836 32.4151C9.3304 32.095 9.48245 31.7749 9.6665 31.4708C9.82656 31.2147 10.0106 30.9586 10.2347 30.7106C10.4588 30.4625 10.6828 30.2464 10.9229 30.0543C11.203 29.8303 11.4991 29.6462 11.8112 29.4942C12.4994 29.1581 13.2436 28.982 14.0279 28.918C14.5161 28.878 15.0282 28.878 15.5484 28.918C16.2446 28.958 16.9648 29.054 17.6931 29.1581L20.718 29.6222C20.734 29.6222 20.7501 29.6222 20.7661 29.6222C21.7904 29.7583 22.8227 29.8303 23.823 29.7743C23.9111 29.7743 23.9991 29.7663 24.0871 29.7503C24.4552 29.7182 24.8074 29.6702 25.1515 29.5982C26.696 29.2781 27.9524 28.5419 28.9847 27.3815C29.3128 27.0134 29.2648 26.4372 28.8727 26.1251C28.5045 25.821 27.9524 25.869 27.6403 26.2211C27.3362 26.5652 27.0081 26.8453 26.6719 27.0774C26.3678 27.2855 26.0557 27.4535 25.7276 27.5816C24.9914 27.8777 24.1992 28.0057 23.3589 28.0297C22.8387 28.0457 22.3106 28.0137 21.7584 27.9657C21.3823 27.9337 20.718 27.8376 20.3899 27.7976L17.1649 27.3095C16.9488 27.2855 16.7248 27.2535 16.5087 27.2294C15.5964 27.1334 14.6841 27.0934 13.8038 27.1734C13.7318 27.1734 13.6598 27.1894 13.5878 27.1974C13.1476 27.2455 12.7315 27.3255 12.3234 27.4295C11.6271 27.6136 10.9869 27.8937 10.4027 28.2618C10.1146 28.4458 9.84256 28.6459 9.57848 28.878" fill="#15274F"/>
<path d="M17.2205 32.175C17.5886 32.4951 18.1488 32.175 18.0368 31.7029C18.0368 31.7029 18.0368 31.6949 18.0368 31.6869C18.0128 31.5828 17.9568 31.4868 17.8767 31.4148L16.0121 29.7903C15.9321 29.7182 15.8281 29.6782 15.7241 29.6702C15.7241 29.6702 15.716 29.6702 15.708 29.6702C15.2279 29.6222 14.9718 30.2144 15.3399 30.5345L17.2205 32.175Z" fill="#15274F"/>
<path d="M9.80277 32.2711C9.80277 32.2711 9.80277 32.2711 9.80277 32.2791C9.72274 32.4792 9.77876 32.6952 9.93881 32.8393L15.6046 37.7849C15.7647 37.9289 15.9967 37.9529 16.1808 37.8489C16.1808 37.8489 16.1808 37.8489 16.1888 37.8489C16.4929 37.6808 16.5329 37.2727 16.2688 37.0406L10.595 32.087C10.3309 31.863 9.92281 31.951 9.80277 32.2711Z" fill="#15274F"/>
<path d="M10.739 35.7203C10.3709 35.4002 9.81072 35.7203 9.92275 36.1925C9.92275 36.1925 9.92275 36.2005 9.92275 36.2085C9.94676 36.3125 10.0028 36.4086 10.0828 36.4806L11.9474 38.1051C12.0274 38.1771 12.1315 38.2171 12.2355 38.2251C12.2355 38.2251 12.2435 38.2251 12.2515 38.2251C12.7317 38.2651 12.9877 37.681 12.6196 37.3609L10.739 35.7203Z" fill="#15274F"/>
<path d="M18.1567 35.5042C18.2047 35.3202 18.1487 35.1201 18.0046 34.9921L12.5629 30.2386C12.4188 30.1105 12.2108 30.0785 12.0347 30.1505C12.0347 30.1505 12.0347 30.1505 12.0267 30.1505C11.6906 30.2946 11.6186 30.7347 11.8987 30.9828L17.3484 35.7443C17.6285 35.9844 18.0607 35.8644 18.1647 35.5122C18.1647 35.5122 18.1647 35.5122 18.1647 35.5042" fill="#15274F"/>
<path d="M26.8719 21.3076C27.24 21.6277 27.8002 21.3076 27.6882 20.8355C27.6882 20.8355 27.6882 20.8274 27.6882 20.8194C27.6642 20.7154 27.6081 20.6194 27.5281 20.5474L25.6635 18.9228C25.5835 18.8508 25.4795 18.8108 25.3754 18.8028C25.3754 18.8028 25.3674 18.8028 25.3594 18.8028C24.8793 18.7548 24.6232 19.347 24.9913 19.6671L26.8719 21.3076Z" fill="#15274F"/>
<path d="M19.4463 21.4037C19.4463 21.4037 19.4463 21.4037 19.4463 21.4117C19.3663 21.6117 19.4223 21.8278 19.5824 21.9718L25.2482 26.9174C25.4082 27.0615 25.6403 27.0855 25.8244 26.9815C25.8244 26.9815 25.8244 26.9815 25.8324 26.9815C26.1365 26.8134 26.1765 26.4053 25.9124 26.1732L20.2386 21.2196C19.9745 20.9955 19.5664 21.0836 19.4463 21.4037Z" fill="#15274F"/>
<path d="M20.3826 24.8527C20.0145 24.5326 19.4543 24.8527 19.5663 25.3248C19.5663 25.3248 19.5663 25.3328 19.5663 25.3408C19.5903 25.4448 19.6463 25.5409 19.7264 25.6129L21.591 27.2374C21.671 27.3094 21.775 27.3495 21.879 27.3575C21.879 27.3575 21.887 27.3575 21.8951 27.3575C22.3752 27.3975 22.6313 26.8133 22.2632 26.4932L20.3826 24.8527Z" fill="#15274F"/>
<path d="M27.8002 24.6368C27.8563 24.4528 27.8002 24.2527 27.6482 24.1246L22.2064 19.3711C22.0624 19.2431 21.8543 19.2111 21.6783 19.2831C21.6783 19.2831 21.6783 19.2831 21.6703 19.2831C21.3342 19.4271 21.2621 19.8673 21.5422 20.1154L26.992 24.8769C27.2721 25.117 27.7042 24.9969 27.8002 24.6448C27.8002 24.6448 27.8002 24.6448 27.8002 24.6368Z" fill="#15274F"/>
<path d="M27.1523 26.6693C27.2884 26.5572 27.6085 26.2531 27.7285 26.0771C27.7845 25.9971 27.8406 25.909 27.8886 25.829C28.0726 25.5249 28.2247 25.2128 28.3367 24.8847C28.5928 24.1645 28.6648 23.4122 28.6328 22.628C28.6168 22.2199 28.5608 21.8037 28.4888 21.3716C28.4888 21.3716 30.4174 23.0681 30.4174 23.0601C30.3934 22.692 30.3934 23.7804 30.3454 24.1245C30.2493 24.8367 29.9933 25.4769 29.7532 26.1251C29.6491 26.4052 29.089 27.3495 28.5448 27.7896" fill="#15274F"/>
<path d="M19.6861 20.1553C19.7821 20.0112 20.0462 19.6511 20.2062 19.5071C20.2783 19.443 20.3583 19.379 20.4303 19.315C20.7104 19.0909 21.0065 18.9069 21.3186 18.7548C22.0068 18.4187 22.751 18.2427 23.5353 18.1786C23.9434 18.1466 24.3676 18.1386 24.7997 18.1546C24.7997 18.1546 22.8951 16.4821 22.8791 16.4741C22.8551 16.4501 22.1589 16.5941 21.8227 16.6822C21.1265 16.8662 20.5103 17.2023 19.9021 17.5144C19.63 17.6505 18.7658 18.3227 18.3896 18.9149" fill="#15274F"/>
</g>
<mask id="mask1_5928_12966" style="mask-type:luminance" maskUnits="userSpaceOnUse" x="5" y="10" width="51" height="50">
<path d="M55.6976 10H5.02539V60H55.6976V10Z" fill="white"/>
</mask>
<g mask="url(#mask1_5928_12966)">
<path d="M50.3119 19.7071C50.2879 19.6671 50.2559 19.6271 50.2159 19.5871C47.1669 15.7538 43.1176 12.8969 38.5081 11.3364C35.8913 10.4481 33.1544 10 30.3695 10C27.5846 10 24.7997 10.4561 22.1589 11.3604C17.5494 12.9369 13.5081 15.8019 10.4831 19.6431C6.922 24.1405 5.03339 29.5583 5.02539 35.3121V35.3521C5.02539 40.6258 6.63391 45.6914 9.68288 49.9888C12.8919 54.5262 17.5734 57.9193 22.8551 59.5599C23.1992 59.6639 23.5113 59.7519 23.8074 59.8319C25.9281 60.4081 28.1368 60.6962 30.3695 60.6962C32.6022 60.6962 34.963 60.3841 37.1637 59.7759L37.2757 59.7439C37.2757 59.7439 37.2997 59.7439 37.3157 59.7359C42.5654 58.2474 47.2709 55.0144 50.584 50.645C53.937 46.2196 55.7136 40.9299 55.7136 35.3601V35.3201C55.7056 29.5903 53.833 24.2045 50.3119 19.7151M48.2072 19.387H46.6307L38.9482 14.9776L38.9723 13.009C42.5094 14.3694 45.6704 16.5541 48.2072 19.387ZM22.8871 31.5509L30.3695 26.1092L37.8519 31.5509L35.6912 38.193L35.003 40.3057H25.728L25.1198 38.4331L22.8791 31.5429L22.8871 31.5509ZM24.4716 40.9539L24.4396 41.0019L19.9502 47.6601L13.3401 45.9875L12.9239 45.8835L12.8759 45.6834L10.5231 36.1204L13.6441 31.1348L14.5885 29.6303L21.5107 31.831L22.0868 33.6076L24.4716 40.9459V40.9539ZM38.14 16.122L41.0369 17.7865L45.7424 20.4834V24.5086L45.7584 28.2778L39.9486 30.1264L38.8042 30.4866L33.6666 26.7574L31.1057 24.8928L31.1217 17.8985L38.14 16.114V16.122ZM39.2363 31.839L46.1586 29.6383L47.711 32.1191L50.2159 36.1284L48.4473 43.8028L47.9751 45.8435L40.8368 47.444L36.2754 40.9139L39.2283 31.839H39.2363ZM23.0552 13.009L23.0712 12.5448C25.4239 11.7926 27.8807 11.4085 30.3695 11.4085C32.8583 11.4085 35.2511 11.7766 37.5718 12.5128L37.5478 14.8335L36.4675 15.1056L30.4495 16.6341L23.0151 14.2734L23.0632 13.009H23.0552ZM22.3989 15.5458L29.1131 17.6745L29.7213 17.8665V21.2916L29.7053 24.8447L26.0481 27.5016L21.9348 30.4866L14.9806 28.2778L14.9966 20.4513L18.3577 18.2186L22.3909 15.5378L22.3989 15.5458ZM21.6467 13.049L21.5987 14.3934L14.0843 19.379H12.5318C15.0366 16.5781 18.1496 14.4174 21.6387 13.049M11.3714 20.7794H13.5961L13.5801 26.8294V28.598L10.3551 33.7436L9.4268 35.2321L6.922 34.8079L6.43384 34.7279C6.56188 29.6303 8.26643 24.8287 11.3714 20.7875M6.44184 36.1444L9.20273 36.6165L11.5875 46.3236L10.2511 48.3243C7.89031 44.6751 6.58589 40.5058 6.44184 36.1444ZM23.5753 58.3035C23.4793 58.2714 23.3753 58.2474 23.2712 58.2154C18.4377 56.7189 14.1323 53.654 11.1073 49.5647L12.6518 47.2519L18.9418 48.8444L19.8461 49.0765L24.5356 55.9587L23.5753 58.3115V58.3035ZM24.9438 58.6636L25.8 56.5749H35.019L35.9873 58.6236C32.4021 59.4878 28.5449 59.5038 24.9518 58.6636M35.099 55.1745H25.712L21.7267 49.3326L21.1185 48.4443L24.1675 43.9709L25.688 41.7462H35.123L39.6205 48.3483L36.1634 53.614L35.099 55.1745ZM37.3637 58.2554L36.2754 55.9427L37.3317 54.3902L40.9649 48.8604L48.1352 47.2439L49.2395 50.0928C46.2146 53.9501 42.0292 56.831 37.3717 58.2554M50.2239 48.7484L49.3036 46.3796L51.5603 36.6165L51.8724 36.5605L54.3132 36.1444C54.1691 40.6898 52.7607 45.0032 50.2239 48.7484ZM53.833 34.8079L51.3282 35.2321L50.3999 33.7436L47.1749 28.598V26.8294L47.1589 20.7794H49.3836C52.4886 24.8207 54.1851 29.6143 54.3212 34.7199L53.833 34.7999V34.8079Z" fill="#CBC545"/>
</g>
<path d="M60.6973 32.886H65.7387V27.8208H69.9905V32.886H75.0557V37.1379H69.9905V42.1792H65.7387V37.1379H60.6973V32.886Z" fill="#6F727B"/>
<path d="M84.7024 20.7248C85.1148 20.2471 85.096 19.5242 84.6462 19.0654L80.0665 14.4579C79.5917 13.9802 78.8232 13.9802 78.3483 14.4579C77.8735 14.9356 77.8735 15.7088 78.3483 16.1865L82.928 20.794C83.1654 21.0328 83.4778 21.1523 83.7902 21.1523C84.0589 21.1523 84.3276 21.058 84.5525 20.8757C84.5712 20.8505 84.59 20.8254 84.6087 20.8065C84.64 20.7751 84.6712 20.7563 84.7024 20.7311" fill="#9F24E2"/>
<path d="M83.9277 27.7021L86.0708 29.8582C86.1332 29.921 86.202 29.9776 86.2707 30.0216C86.2082 29.9776 86.152 29.9336 86.102 29.8833L83.9277 27.7084V27.7021Z" fill="#9F24E2"/>
<path d="M77.13 17.4122C76.6551 16.9345 75.8866 16.9345 75.4118 17.4122C74.937 17.89 74.937 18.6631 75.4118 19.1408L80.885 24.6535L82.5594 22.9123L77.13 17.4122Z" fill="#9F24E2"/>
<path d="M84.7027 20.7251C84.6714 20.7502 84.634 20.7754 84.609 20.8005C84.5902 20.8257 84.5715 20.8445 84.5527 20.8697C84.584 20.8445 84.6215 20.8194 84.6465 20.7942C84.6652 20.7754 84.6839 20.7502 84.7027 20.7251Z" fill="#9F24E2"/>
<path d="M80.8857 24.6535L83.9285 27.7021L80.8857 24.6472V24.6535Z" fill="#9F24E2"/>
<path d="M85.2959 25.6279L87.7826 28.1296C88.2574 28.6073 88.2574 29.3805 87.7826 29.8582C87.5451 30.0971 87.2327 30.2165 86.9204 30.2165C86.8079 30.2165 86.6954 30.1976 86.5892 30.1662C87.0141 30.2982 87.4952 30.2102 87.8263 29.8708C88.3011 29.3931 88.3011 28.6199 87.8263 28.1422L85.2959 25.6216V25.6279Z" fill="#9F24E2"/>
<path d="M87.7821 29.8581C88.2569 29.3804 88.2569 28.6072 87.7821 28.1295L85.2954 25.6278L82.5651 22.906L80.8906 24.6472L83.9271 27.7021L86.1014 29.8769C86.1514 29.9272 86.2138 29.9775 86.2701 30.0152C86.37 30.0844 86.4825 30.1284 86.595 30.1598C86.7012 30.1912 86.8136 30.2101 86.9261 30.2101C87.2385 30.2101 87.5446 30.0907 87.7883 29.8518" fill="#9F24E2"/>
<path d="M86.5964 30.1663C86.4839 30.1286 86.3715 30.0909 86.2715 30.0217C86.3715 30.0846 86.4839 30.1349 86.5964 30.1663Z" fill="#9F24E2"/>
<path d="M106.489 20.8757C106.714 21.058 106.982 21.1523 107.251 21.1523C107.563 21.1523 107.876 21.0328 108.113 20.794L112.693 16.1865C113.168 15.7088 113.168 14.9356 112.693 14.4579C112.218 13.9802 111.45 13.9802 110.975 14.4579L106.395 19.0654C105.945 19.518 105.926 20.2471 106.339 20.7248C106.37 20.75 106.408 20.7751 106.433 20.8003C106.458 20.8191 106.47 20.8443 106.489 20.8694" fill="#9F24E2"/>
<path d="M104.766 30.0216C104.834 29.9776 104.903 29.921 104.966 29.8582L107.109 27.7021L104.934 29.877C104.884 29.9336 104.822 29.9776 104.766 30.0153" fill="#9F24E2"/>
<path d="M115.624 17.4122C115.149 16.9345 114.38 16.9345 113.905 17.4122L108.47 22.9123L110.144 24.6535L115.617 19.1408C116.092 18.6631 116.092 17.89 115.617 17.4122" fill="#9F24E2"/>
<path d="M106.49 20.8757C106.459 20.8505 106.421 20.8254 106.396 20.794C106.378 20.7751 106.359 20.75 106.34 20.7248C105.865 20.3351 105.165 20.354 104.716 20.8003L97.1119 28.3998C96.8807 28.6261 96.7558 28.9404 96.7558 29.2672V32.737H94.2879V29.2672C94.2879 28.9404 94.1629 28.6324 93.9317 28.3998L86.328 20.8003C85.8844 20.354 85.1847 20.3288 84.7036 20.7248C84.6848 20.75 84.6661 20.7751 84.6474 20.794C84.6161 20.8254 84.5849 20.8443 84.5536 20.8757C84.1413 21.3534 84.16 22.0763 84.6099 22.5351L91.8574 29.7764V54.6807C91.8574 55.3532 92.401 55.9001 93.0695 55.9001C93.7381 55.9001 94.2816 55.3532 94.2816 54.6807V35.1884H96.7495V54.6807C96.7495 55.3532 97.2931 55.9001 97.9616 55.9001C98.6302 55.9001 99.1737 55.3532 99.1737 54.6807V29.7764L106.421 22.5351C106.877 22.0763 106.89 21.3534 106.478 20.8757" fill="#9F24E2"/>
<path d="M106.49 20.8758C106.49 20.8758 106.452 20.8255 106.434 20.8066C106.402 20.7752 106.371 20.7563 106.34 20.7312C106.359 20.7563 106.377 20.7815 106.396 20.8003C106.427 20.8318 106.459 20.8506 106.49 20.8821" fill="#9F24E2"/>
<path d="M110.15 24.6535L110.144 24.6472L107.107 27.7021L110.15 24.6535Z" fill="#9F24E2"/>
<path d="M103.246 29.8583C102.771 29.3805 102.771 28.6074 103.246 28.1297L105.732 25.6279L103.202 28.1485C102.727 28.6263 102.727 29.3994 103.202 29.8771C103.533 30.2103 104.014 30.3046 104.439 30.1726C104.333 30.204 104.22 30.2228 104.108 30.2228C103.795 30.2228 103.489 30.1034 103.246 29.8646" fill="#9F24E2"/>
<path d="M105.74 25.6278L103.254 28.1296C102.779 28.6073 102.779 29.3804 103.254 29.8582C103.491 30.097 103.803 30.2164 104.116 30.2164C104.228 30.2164 104.341 30.1976 104.447 30.1662C104.559 30.1284 104.672 30.0907 104.772 30.0216C104.834 29.9776 104.891 29.9336 104.941 29.8833L107.115 27.7084L110.151 24.6535L108.477 22.9124L105.747 25.6278H105.74Z" fill="#9F24E2"/>
<path d="M104.764 30.0217C104.664 30.0909 104.552 30.1349 104.439 30.1663C104.552 30.1349 104.664 30.0846 104.764 30.0217Z" fill="#9F24E2"/>
</svg>
