<svg width="60" height="80" viewBox="0 0 60 80" fill="none" xmlns="http://www.w3.org/2000/svg">
<g clip-path="url(#clip0_3925_25992)">
<path d="M47.3316 37.4598C47.2191 36.5723 47.0441 35.6973 46.8066 34.8598C46.3191 33.1348 45.5566 31.5098 44.5316 29.9473C43.9441 29.0598 43.2691 28.1848 42.5066 27.3473C42.3816 27.2098 42.2566 27.0723 42.1316 26.9348C40.5691 25.2723 38.7566 23.8098 36.8316 22.4348C36.3691 22.1098 35.9066 21.7848 35.4441 21.4723L28.4191 16.9348C27.7066 16.4598 26.2816 15.4973 25.4941 14.9223C24.3566 14.0848 23.2816 13.2348 22.3191 12.3223C20.7441 10.8473 19.4441 9.24727 18.5316 7.40977C18.1316 6.58477 17.8066 5.72227 17.5691 4.80977C17.3066 3.77227 17.1691 2.65977 17.1691 1.47227C17.1691 0.209775 16.1941 -0.827725 14.9691 -0.865225C13.6816 -0.902725 12.6191 0.134775 12.6191 1.40977C12.6191 5.44727 13.7941 9.03477 16.2066 12.2973C16.7316 13.0223 17.3316 13.7223 17.9816 14.4098C18.1316 14.5723 18.2941 14.7348 18.4566 14.8973C20.2691 16.7223 22.3816 18.3223 24.5691 19.8098C24.5941 19.8348 24.6316 19.8473 24.6691 19.8723L31.2691 24.1348C32.8566 25.1723 34.3941 26.2223 35.8066 27.3223C36.8566 28.1473 37.8316 29.0098 38.7066 29.9223C40.1066 31.3973 41.2441 32.9973 41.9816 34.8348C42.3191 35.6598 42.5691 36.5223 42.7316 37.4348C42.8691 38.2098 42.9441 39.0348 42.9441 39.8973C42.9441 40.7598 42.8691 41.5723 42.7316 42.3598C42.5691 43.2723 42.3191 44.1473 41.9816 44.9598C41.2441 46.7973 40.1066 48.4098 38.7066 49.8723C37.8316 50.7848 36.8566 51.6473 35.8066 52.4723C34.4066 53.5848 32.8566 54.6223 31.2691 55.6598C30.8691 55.9223 30.4691 56.1723 30.0691 56.4348C29.6691 56.6973 29.2566 56.9473 28.8441 57.2098C28.7566 57.2598 28.6691 57.3223 28.5816 57.3848C27.6691 57.9598 26.7566 58.5473 25.8566 59.1348C25.4566 59.3973 25.0691 59.6473 24.6816 59.9223C24.6441 59.9473 24.6191 59.9723 24.5816 59.9848C22.3816 61.4848 20.2816 63.0848 18.4691 64.8973C18.3066 65.0598 18.1441 65.2223 17.9941 65.3848C17.3441 66.0723 16.7566 66.7723 16.2191 67.4973C13.8066 70.7723 12.6316 74.3348 12.6191 78.3473C12.6191 79.6848 13.7316 80.7848 15.0566 80.6848C16.2441 80.5973 17.1691 79.6098 17.1691 78.4098C17.1691 77.2098 17.3066 76.0973 17.5691 75.0473C17.7941 74.1348 18.1191 73.2598 18.5316 72.4473C19.4316 70.6098 20.7441 69.0098 22.3191 67.5348C23.2941 66.6223 24.3566 65.7598 25.4941 64.9348C26.5566 64.1473 27.6816 63.3973 28.8441 62.6473C29.2441 62.3848 29.6441 62.1348 30.0441 61.8723C30.4441 61.6098 30.8566 61.3598 31.2691 61.0973C31.8316 60.7473 32.3941 60.3848 32.9441 60.0223C33.3816 59.7348 33.8191 59.4598 34.2566 59.1723C34.6566 58.9098 35.0441 58.6473 35.4316 58.3848C35.9066 58.0723 36.3691 57.7473 36.8191 57.4223C38.7316 56.0473 40.5441 54.5723 42.1191 52.9223C42.2441 52.7848 42.3816 52.6473 42.4941 52.5098C43.2566 51.6598 43.9316 50.7973 44.5191 49.9098C45.5441 48.3473 46.2941 46.7098 46.7941 44.9973C47.0316 44.1473 47.2066 43.2848 47.3191 42.3973C47.4191 41.5973 47.4691 40.7848 47.4691 39.9348C47.4691 39.0848 47.4191 38.2723 47.3191 37.4723" fill="#002273"/>
<path d="M19.6183 7.29731C19.8308 7.74731 20.2808 8.03481 20.7808 8.03481H39.3182C39.8182 8.03481 40.2682 7.74731 40.4807 7.29731C40.4807 7.29731 40.4807 7.28481 40.4807 7.27231C40.8807 6.42231 40.2557 5.43481 39.3182 5.43481H20.7683C19.8183 5.43481 19.2058 6.42231 19.6058 7.27231C19.6058 7.27231 19.6058 7.28481 19.6183 7.29731Z" fill="#CBC545"/>
<path d="M28.1183 11.6472C26.8558 11.6472 26.3433 13.2722 27.3808 13.9972C27.3933 13.9972 27.4058 14.0097 27.4183 14.0222C27.6308 14.1722 27.8933 14.2472 28.1558 14.2472H31.9557C32.2182 14.2472 32.4682 14.1597 32.6932 14.0222C32.7057 14.0222 32.7182 14.0097 32.7307 13.9972C33.7682 13.2722 33.2557 11.6472 31.9932 11.6472H28.1183Z" fill="#CBC545"/>
<path d="M33.2566 31.2348C34.4941 31.2348 35.0191 29.6473 34.0191 28.9098C34.0066 28.9098 33.9941 28.8973 33.9816 28.8848C33.7566 28.7223 33.4941 28.6348 33.2191 28.6348H26.8817C26.6067 28.6348 26.3317 28.7223 26.1192 28.8848C26.1192 28.8848 26.0942 28.8973 26.0817 28.9098C25.0817 29.6473 25.6067 31.2348 26.8442 31.2348H33.2566Z" fill="#CBC545"/>
<path d="M19.1942 36.3598C19.1942 36.3598 19.1942 36.3723 19.1942 36.3848C18.8942 37.2223 19.5192 38.1098 20.4067 38.1098H39.7192C40.6067 38.1098 41.2317 37.2223 40.9317 36.3848C40.9317 36.3848 40.9317 36.3723 40.9317 36.3598C40.7442 35.8473 40.2692 35.4973 39.7192 35.4973H20.4067C19.8567 35.4973 19.3817 35.8473 19.1942 36.3598Z" fill="#CBC545"/>
<path d="M19.1806 44.0849C19.1806 44.0849 19.1806 44.0974 19.1806 44.1099C19.3681 44.6224 19.8556 44.9724 20.3931 44.9724H39.6805C40.2305 44.9724 40.7055 44.6224 40.893 44.1099C40.893 44.1099 40.893 44.0974 40.893 44.0849C41.193 43.2474 40.568 42.3599 39.6805 42.3599H20.3931C19.5056 42.3599 18.8806 43.2474 19.1806 44.0849Z" fill="#CBC545"/>
<path d="M26.8442 49.2349C25.6067 49.2349 25.0817 50.8224 26.0817 51.5599C26.0817 51.5599 26.1067 51.5724 26.1192 51.5849C26.3442 51.7474 26.6067 51.8349 26.8817 51.8349H33.2191C33.4941 51.8349 33.7691 51.7474 33.9816 51.5849C33.9816 51.5849 34.0066 51.5724 34.0191 51.5599C35.0191 50.8224 34.4941 49.2349 33.2566 49.2349H26.8442Z" fill="#CBC545"/>
<path d="M31.9932 68.1847C33.2557 68.1847 33.7682 66.5597 32.7307 65.8347C32.7182 65.8347 32.7057 65.8222 32.6932 65.8097C32.4807 65.6597 32.2182 65.5847 31.9557 65.5847H28.1558C27.8933 65.5847 27.6308 65.6722 27.4183 65.8097C27.4183 65.8097 27.3933 65.8222 27.3808 65.8347C26.3433 66.5597 26.8558 68.1847 28.1183 68.1847H31.9932Z" fill="#CBC545"/>
<path d="M40.4809 73.1848C40.2684 72.7348 39.8184 72.4473 39.3184 72.4473H20.781C20.281 72.4473 19.831 72.7348 19.6185 73.1848C19.6185 73.1848 19.6185 73.1973 19.6185 73.2098C19.2185 74.0598 19.831 75.0473 20.781 75.0473H39.3434C40.2934 75.0473 40.9059 74.0598 40.5059 73.2098C40.5059 73.2098 40.5059 73.1973 40.4934 73.1848" fill="#CBC545"/>
<path d="M12.6812 37.6474C12.7937 36.7599 12.9687 35.8849 13.2062 35.0474C13.6937 33.3224 14.4562 31.6974 15.4812 30.1349C16.0687 29.2474 16.7437 28.3724 17.5062 27.5349C17.6312 27.3974 17.7562 27.2599 17.8812 27.1224C19.4437 25.4599 21.2562 23.9974 23.1812 22.6224C23.6437 22.2974 24.1062 21.9724 24.5687 21.6599L31.5937 17.1224C32.3062 16.6474 33.7312 15.6849 34.5187 15.1099C35.6562 14.2724 36.7312 13.4224 37.6937 12.5099C39.2687 11.0349 40.5687 9.43487 41.4812 7.59737C41.8812 6.77237 42.2062 5.90987 42.4437 4.99737C42.7062 3.95987 42.8437 2.84737 42.8437 1.65987C42.8437 0.434872 43.8187 -0.602628 45.0437 -0.640128C46.3312 -0.677628 47.3937 0.359872 47.3937 1.63487C47.3937 5.67237 46.2187 9.25987 43.8062 12.5099C43.2812 13.2349 42.6812 13.9349 42.0312 14.6224C41.8812 14.7849 41.7187 14.9474 41.5562 15.1099C39.7437 16.9349 37.6312 18.5349 35.4437 20.0224C35.4187 20.0474 35.3812 20.0599 35.3437 20.0849L28.7437 24.3474C27.1562 25.3849 25.6187 26.4349 24.2062 27.5349C23.1562 28.3599 22.1812 29.2224 21.3062 30.1349C19.9062 31.6099 18.7687 33.2099 18.0312 35.0474C17.6937 35.8724 17.4437 36.7349 17.2812 37.6474C17.1437 38.4224 17.0687 39.2474 17.0687 40.1099C17.0687 40.9724 17.1437 41.7849 17.2812 42.5724C17.4437 43.4849 17.6937 44.3599 18.0312 45.1724C18.7687 47.0099 19.9062 48.6224 21.3062 50.0849C22.1812 50.9974 23.1562 51.8599 24.2062 52.6849C25.6062 53.7974 27.1562 54.8349 28.7437 55.8724C29.1437 56.1349 29.5437 56.3849 29.9437 56.6474C30.3437 56.9099 30.7562 57.1599 31.1687 57.4224C31.2562 57.4724 31.3437 57.5349 31.4312 57.5974C32.3437 58.1724 33.2562 58.7599 34.1562 59.3474C34.5562 59.6099 34.9437 59.8599 35.3312 60.1349C35.3687 60.1599 35.3937 60.1849 35.4312 60.1974C37.6312 61.6974 39.7312 63.2974 41.5437 65.1099C41.7062 65.2724 41.8687 65.4349 42.0187 65.5974C42.6687 66.2849 43.2562 66.9849 43.7937 67.7099C46.1937 70.9599 47.3687 74.5224 47.3812 78.5224C47.3812 79.8599 46.2687 80.9599 44.9437 80.8599C43.7562 80.7724 42.8312 79.7849 42.8312 78.5849C42.8312 77.3849 42.6937 76.2724 42.4312 75.2224C42.2062 74.3099 41.8812 73.4349 41.4687 72.6224C40.5687 70.7849 39.2562 69.1849 37.6812 67.7099C36.7062 66.7974 35.6437 65.9349 34.5062 65.1099C33.4437 64.3224 32.3187 63.5724 31.1562 62.8224C30.7562 62.5599 30.3562 62.3099 29.9562 62.0474C29.5562 61.7849 29.1437 61.5349 28.7312 61.2724C28.1687 60.9224 27.6062 60.5599 27.0562 60.1974C26.6187 59.9099 26.1812 59.6349 25.7437 59.3474C25.3437 59.0849 24.9562 58.8224 24.5687 58.5599C24.0937 58.2474 23.6312 57.9224 23.1812 57.5974C21.2687 56.2224 19.4562 54.7474 17.8812 53.0974C17.7562 52.9599 17.6187 52.8224 17.5062 52.6849C16.7437 51.8349 16.0687 50.9724 15.4812 50.0849C14.4562 48.5224 13.7062 46.8849 13.2062 45.1724C12.9687 44.3224 12.7937 43.4599 12.6812 42.5724C12.5812 41.7724 12.5312 40.9599 12.5312 40.1099C12.5312 39.2599 12.5812 38.4474 12.6812 37.6474Z" fill="#002273"/>
</g>
<defs>
<clipPath id="clip0_3925_25992">
<rect width="59.9378" height="80" fill="white" transform="translate(0.03125)"/>
</clipPath>
</defs>
</svg>
