<svg width="106" height="97" viewBox="0 0 106 97" fill="none" xmlns="http://www.w3.org/2000/svg">
<path d="M15.9202 10.9078C16.3179 10.4471 16.2998 9.75004 15.866 9.30754L11.4496 4.86432C10.9917 4.40363 10.2506 4.40363 9.79265 4.86432C9.33474 5.325 9.33474 6.07059 9.79265 6.53128L14.2091 10.9745C14.438 11.2048 14.7393 11.32 15.0406 11.32C15.2996 11.32 15.5587 11.2291 15.7756 11.0533C15.7937 11.0291 15.8118 11.0048 15.8299 10.9866C15.86 10.9563 15.8901 10.9381 15.9202 10.9139" fill="#D50056"/>
<path d="M15.1729 17.6365L17.2395 19.7156C17.2997 19.7763 17.366 19.8308 17.4323 19.8732C17.372 19.8308 17.3178 19.7884 17.2696 19.7399L15.1729 17.6425V17.6365Z" fill="#002273"/>
<path d="M8.61754 7.71344C8.15963 7.25275 7.41853 7.25275 6.96062 7.71344C6.50271 8.17412 6.50271 8.91971 6.96062 9.3804L12.2387 14.6965L13.8534 13.0174L8.61754 7.71344Z" fill="#D50056"/>
<path d="M15.92 10.908C15.8899 10.9322 15.8537 10.9565 15.8296 10.9807C15.8115 11.0049 15.7935 11.0231 15.7754 11.0474C15.8055 11.0231 15.8417 10.9989 15.8658 10.9746C15.8838 10.9565 15.9019 10.9322 15.92 10.908Z" fill="#002273"/>
<path d="M12.2393 14.6965L15.1735 17.6364L12.2393 14.6904V14.6965Z" fill="#002273"/>
<path d="M16.4922 15.6359L18.8902 18.0485C19.3481 18.5092 19.3481 19.2548 18.8902 19.7155C18.6612 19.9458 18.36 20.061 18.0587 20.061C17.9503 20.061 17.8418 20.0428 17.7394 20.0125C18.1491 20.1398 18.613 20.0549 18.9324 19.7276C19.3903 19.2669 19.3903 18.5213 18.9324 18.0606L16.4922 15.6299V15.6359Z" fill="#002273"/>
<path d="M18.8899 19.7155C19.3478 19.2548 19.3478 18.5092 18.8899 18.0485L16.4919 15.6359L13.8589 13.0112L12.2441 14.6903L15.1724 17.6363L17.2691 19.7336C17.3173 19.7821 17.3776 19.8306 17.4318 19.867C17.5282 19.9337 17.6367 19.9761 17.7451 20.0064C17.8475 20.0367 17.956 20.0549 18.0644 20.0549C18.3657 20.0549 18.6609 19.9397 18.8959 19.7094" fill="#002273"/>
<path d="M17.7469 20.0127C17.6384 19.9763 17.53 19.94 17.4336 19.8733C17.53 19.9339 17.6384 19.9824 17.7469 20.0127Z" fill="#002273"/>
<path d="M36.9299 11.0533C37.1468 11.2291 37.4059 11.32 37.6649 11.32C37.9662 11.32 38.2675 11.2048 38.4964 10.9745L42.9129 6.53128C43.3708 6.07059 43.3708 5.325 42.9129 4.86432C42.4549 4.40363 41.7139 4.40363 41.2559 4.86432L36.8395 9.30754C36.4057 9.74398 36.3876 10.4471 36.7853 10.9078C36.8154 10.9321 36.8516 10.9563 36.8757 10.9806C36.8998 10.9987 36.9118 11.023 36.9299 11.0472" fill="#7F0064"/>
<path d="M35.2676 19.8732C35.3339 19.8308 35.4001 19.7763 35.4604 19.7156L37.527 17.6365L35.4303 19.7338C35.3821 19.7884 35.3218 19.8308 35.2676 19.8672" fill="#002273"/>
<path d="M45.7386 7.71344C45.2807 7.25275 44.5396 7.25275 44.0817 7.71344L38.8398 13.0174L40.4546 14.6965L45.7326 9.3804C46.1905 8.91971 46.1905 8.17412 45.7326 7.71344" fill="#7F0064"/>
<path d="M36.9308 11.0535C36.9007 11.0292 36.8645 11.005 36.8404 10.9747C36.8223 10.9565 36.8043 10.9322 36.7862 10.908C36.3283 10.5322 35.6535 10.5503 35.2197 10.9807L27.887 18.3093C27.6641 18.5275 27.5436 18.8306 27.5436 19.1458V22.4919H25.1637V19.1458C25.1637 18.8306 25.0432 18.5336 24.8202 18.3093L17.4876 10.9807C17.0598 10.5503 16.385 10.5261 15.9211 10.908C15.903 10.9322 15.8849 10.9565 15.8669 10.9747C15.8367 11.005 15.8066 11.0232 15.7765 11.0535C15.3788 11.5142 15.3969 12.2113 15.8307 12.6538L22.8199 19.6368V43.6532C22.8199 44.3018 23.3441 44.8292 23.9888 44.8292C24.6335 44.8292 25.1577 44.3018 25.1577 43.6532V24.8559H27.5376V43.6532C27.5376 44.3018 28.0618 44.8292 28.7065 44.8292C29.3512 44.8292 29.8753 44.3018 29.8753 43.6532V19.6368L36.8645 12.6538C37.3044 12.2113 37.3164 11.5142 36.9188 11.0535" fill="#002273"/>
<path d="M36.9307 11.0532C36.9307 11.0532 36.8946 11.0047 36.8765 10.9866C36.8464 10.9563 36.8163 10.9381 36.7861 10.9138C36.8042 10.9381 36.8223 10.9623 36.8404 10.9805C36.8705 11.0108 36.9006 11.029 36.9307 11.0593" fill="#002273"/>
<path d="M40.4606 14.6965L40.4546 14.6904L37.5264 17.6364L40.4606 14.6965Z" fill="#002273"/>
<path d="M33.8026 19.7155C33.3447 19.2548 33.3447 18.5092 33.8026 18.0485L36.2006 15.636L33.7604 18.0667C33.3025 18.5274 33.3025 19.273 33.7604 19.7337C34.0798 20.055 34.5437 20.1459 34.9534 20.0186C34.851 20.0489 34.7425 20.0671 34.6341 20.0671C34.3328 20.0671 34.0376 19.9519 33.8026 19.7216" fill="#002273"/>
<path d="M36.2082 15.636L33.8102 18.0485C33.3523 18.5092 33.3523 19.2548 33.8102 19.7155C34.0392 19.9458 34.3404 20.061 34.6417 20.061C34.7502 20.061 34.8586 20.0428 34.961 20.0125C35.0695 19.9762 35.1779 19.9398 35.2743 19.8731C35.3346 19.8307 35.3888 19.7882 35.437 19.7398L37.5338 17.6424L40.462 14.6964L38.8473 13.0173L36.2143 15.636H36.2082Z" fill="#002273"/>
<path d="M35.2664 19.8733C35.17 19.94 35.0616 19.9824 34.9531 20.0127C35.0616 19.9824 35.17 19.9339 35.2664 19.8733Z" fill="#002273"/>
<path d="M46.0762 22.6353H50.9378V17.7507H55.0381V22.6353H59.9227V26.7356H55.0381V31.5973H50.9378V26.7356H46.0762V22.6353Z" fill="#6F727B"/>
<path d="M69.2249 10.9078C69.6226 10.4471 69.6045 9.75004 69.1707 9.30754L64.7543 4.86432C64.2963 4.40363 63.5553 4.40363 63.0973 4.86432C62.6394 5.325 62.6394 6.07059 63.0973 6.53128L67.5138 10.9745C67.7427 11.2048 68.044 11.32 68.3452 11.32C68.6043 11.32 68.8634 11.2291 69.0803 11.0533C69.0984 11.0291 69.1165 11.0048 69.1345 10.9866C69.1647 10.9563 69.1948 10.9381 69.2249 10.9139" fill="#9F24E2"/>
<path d="M68.4785 17.6365L70.5451 19.7156C70.6054 19.7763 70.6717 19.8308 70.7379 19.8732C70.6777 19.8308 70.6235 19.7884 70.5753 19.7399L68.4785 17.6425V17.6365Z" fill="#9F24E2"/>
<path d="M61.9232 7.71344C61.4653 7.25275 60.7242 7.25275 60.2663 7.71344C59.8084 8.17412 59.8084 8.91971 60.2663 9.3804L65.5443 14.6965L67.1591 13.0174L61.9232 7.71344Z" fill="#9F24E2"/>
<path d="M69.2257 10.908C69.1955 10.9322 69.1594 10.9565 69.1353 10.9807C69.1172 11.0049 69.0991 11.0231 69.0811 11.0474C69.1112 11.0231 69.1473 10.9989 69.1714 10.9746C69.1895 10.9565 69.2076 10.9322 69.2257 10.908Z" fill="#002273"/>
<path d="M65.5439 14.6965L68.4782 17.6364L65.5439 14.6904V14.6965Z" fill="#002273"/>
<path d="M69.7979 15.6359L72.1959 18.0485C72.6538 18.5092 72.6538 19.2548 72.1959 19.7155C71.9669 19.9458 71.6656 20.061 71.3644 20.061C71.2559 20.061 71.1475 20.0428 71.0451 20.0125C71.4548 20.1398 71.9187 20.0549 72.238 19.7276C72.696 19.2669 72.696 18.5213 72.238 18.0606L69.7979 15.6299V15.6359Z" fill="#002273"/>
<path d="M72.1965 19.7155C72.6544 19.2548 72.6544 18.5092 72.1965 18.0485L69.7985 15.6359L67.1655 13.0112L65.5508 14.6903L68.479 17.6363L70.5758 19.7336C70.624 19.7821 70.6842 19.8306 70.7384 19.867C70.8348 19.9337 70.9433 19.9761 71.0517 20.0064C71.1542 20.0367 71.2626 20.0549 71.3711 20.0549C71.6723 20.0549 71.9676 19.9397 72.2025 19.7094" fill="#002273"/>
<path d="M71.0506 20.0127C70.9422 19.9763 70.8337 19.94 70.7373 19.8733C70.8337 19.9339 70.9422 19.9824 71.0506 20.0127Z" fill="#002273"/>
<path d="M90.2355 11.0533C90.4525 11.2291 90.7115 11.32 90.9706 11.32C91.2719 11.32 91.5731 11.2048 91.8021 10.9745L96.2185 6.53128C96.6764 6.07059 96.6764 5.325 96.2185 4.86432C95.7606 4.40363 95.0195 4.40363 94.5616 4.86432L90.1452 9.30754C89.7114 9.74398 89.6933 10.4471 90.0909 10.9078C90.1211 10.9321 90.1572 10.9563 90.1813 10.9806C90.2054 10.9987 90.2175 11.023 90.2355 11.0472" fill="#9F24E2"/>
<path d="M88.5723 19.8732C88.6385 19.8308 88.7048 19.7763 88.7651 19.7156L90.8317 17.6365L88.7349 19.7338C88.6867 19.7884 88.6265 19.8308 88.5723 19.8672" fill="#9F24E2"/>
<path d="M99.0443 7.71344C98.5864 7.25275 97.8453 7.25275 97.3874 7.71344L92.1455 13.0174L93.7602 14.6965L99.0383 9.3804C99.4962 8.91971 99.4962 8.17412 99.0383 7.71344" fill="#9F24E2"/>
<path d="M90.2345 11.0535C90.2044 11.0292 90.1682 11.005 90.1441 10.9747C90.1261 10.9565 90.108 10.9322 90.0899 10.908C89.632 10.5322 88.9572 10.5503 88.5234 10.9807L81.1908 18.3093C80.9678 18.5275 80.8473 18.8306 80.8473 19.1458V22.4919H78.4674V19.1458C78.4674 18.8306 78.3469 18.5336 78.124 18.3093L70.7913 10.9807C70.3636 10.5503 69.6887 10.5261 69.2248 10.908C69.2067 10.9322 69.1887 10.9565 69.1706 10.9747C69.1405 11.005 69.1103 11.0232 69.0802 11.0535C68.6825 11.5142 68.7006 12.2113 69.1344 12.6538L76.1236 19.6368V43.6532C76.1236 44.3018 76.6478 44.8292 77.2925 44.8292C77.9372 44.8292 78.4614 44.3018 78.4614 43.6532V24.8559H80.8413V43.6532C80.8413 44.3018 81.3655 44.8292 82.0102 44.8292C82.6549 44.8292 83.1791 44.3018 83.1791 43.6532V19.6368L90.1682 12.6538C90.6081 12.2113 90.6201 11.5142 90.2225 11.0535" fill="#002273"/>
<path d="M90.2354 11.0532C90.2354 11.0532 90.1993 11.0047 90.1812 10.9866C90.1511 10.9563 90.1209 10.9381 90.0908 10.9138C90.1089 10.9381 90.127 10.9623 90.145 10.9805C90.1752 11.0108 90.2053 11.029 90.2354 11.0593" fill="#002273"/>
<path d="M93.7663 14.6965L93.7603 14.6904L90.832 17.6364L93.7663 14.6965Z" fill="#002273"/>
<path d="M87.1083 19.7155C86.6504 19.2548 86.6504 18.5092 87.1083 18.0485L89.5063 15.636L87.0661 18.0667C86.6082 18.5274 86.6082 19.273 87.0661 19.7337C87.3854 20.055 87.8494 20.1459 88.2591 20.0186C88.1566 20.0489 88.0482 20.0671 87.9397 20.0671C87.6385 20.0671 87.3432 19.9519 87.1083 19.7216" fill="#002273"/>
<path d="M89.512 15.636L87.1139 18.0485C86.656 18.5092 86.656 19.2548 87.1139 19.7155C87.3429 19.9458 87.6442 20.061 87.9454 20.061C88.0539 20.061 88.1623 20.0428 88.2647 20.0125C88.3732 19.9762 88.4817 19.9398 88.5781 19.8731C88.6383 19.8307 88.6925 19.7882 88.7407 19.7398L90.8375 17.6424L93.7657 14.6964L92.151 13.0173L89.518 15.636H89.512Z" fill="#002273"/>
<path d="M88.5721 19.8733C88.4757 19.94 88.3672 19.9824 88.2588 20.0127C88.3672 19.9824 88.4757 19.9339 88.5721 19.8733Z" fill="#002273"/>
<path d="M15.9202 59.1254C16.3179 58.6647 16.2998 57.9676 15.866 57.5251L11.4496 53.0818C10.9917 52.6212 10.2506 52.6212 9.79265 53.0818C9.33474 53.5425 9.33474 54.2881 9.79265 54.7488L14.2091 59.192C14.438 59.4224 14.7393 59.5375 15.0406 59.5375C15.2996 59.5375 15.5587 59.4466 15.7756 59.2708C15.7937 59.2466 15.8118 59.2223 15.8299 59.2042C15.86 59.1738 15.8901 59.1557 15.9202 59.1314" fill="#D50056"/>
<path d="M15.1729 65.854L17.2395 67.9332C17.2997 67.9938 17.366 68.0483 17.4323 68.0908C17.372 68.0483 17.3178 68.0059 17.2696 67.9574L15.1729 65.8601V65.854Z" fill="#CBC545"/>
<path d="M8.61754 55.931C8.15963 55.4703 7.41853 55.4703 6.96062 55.931C6.50271 56.3917 6.50271 57.1372 6.96062 57.5979L12.2387 62.914L13.8534 61.2349L8.61754 55.931Z" fill="#D50056"/>
<path d="M15.92 59.1255C15.8899 59.1497 15.8537 59.174 15.8296 59.1982C15.8115 59.2225 15.7935 59.2407 15.7754 59.2649C15.8055 59.2407 15.8417 59.2164 15.8658 59.1922C15.8838 59.174 15.9019 59.1497 15.92 59.1255Z" fill="#002273"/>
<path d="M12.2393 62.914L15.1735 65.8539L12.2393 62.908V62.914Z" fill="#002273"/>
<path d="M16.4922 63.8535L18.8902 66.266C19.3481 66.7267 19.3481 67.4723 18.8902 67.933C18.6612 68.1633 18.36 68.2785 18.0587 68.2785C17.9503 68.2785 17.8418 68.2603 17.7394 68.23C18.1491 68.3573 18.613 68.2724 18.9324 67.9451C19.3903 67.4844 19.3903 66.7388 18.9324 66.2782L16.4922 63.8474V63.8535Z" fill="#002273"/>
<path d="M18.8899 67.933C19.3478 67.4723 19.3478 66.7267 18.8899 66.266L16.4919 63.8535L13.8589 61.2288L12.2441 62.9078L15.1724 65.8538L17.2691 67.9512C17.3173 67.9997 17.3776 68.0482 17.4318 68.0845C17.5282 68.1512 17.6367 68.1936 17.7451 68.224C17.8475 68.2543 17.956 68.2724 18.0644 68.2724C18.3657 68.2724 18.6609 68.1573 18.8959 67.9269" fill="#002273"/>
<path d="M17.7469 68.2302C17.6384 68.1939 17.53 68.1575 17.4336 68.0908C17.53 68.1514 17.6384 68.1999 17.7469 68.2302Z" fill="#002273"/>
<path d="M36.9299 59.2708C37.1468 59.4466 37.4059 59.5375 37.6649 59.5375C37.9662 59.5375 38.2675 59.4224 38.4964 59.192L42.9129 54.7488C43.3708 54.2881 43.3708 53.5425 42.9129 53.0818C42.4549 52.6212 41.7139 52.6212 41.2559 53.0818L36.8395 57.5251C36.4057 57.9615 36.3876 58.6647 36.7853 59.1254C36.8154 59.1496 36.8516 59.1738 36.8757 59.1981C36.8998 59.2163 36.9118 59.2405 36.9299 59.2648" fill="#7F0064"/>
<path d="M35.2676 68.0908C35.3339 68.0483 35.4001 67.9938 35.4604 67.9332L37.527 65.854L35.4303 67.9513C35.3821 68.0059 35.3218 68.0483 35.2676 68.0847" fill="#CBC545"/>
<path d="M45.7386 55.931C45.2807 55.4703 44.5396 55.4703 44.0817 55.931L38.8398 61.2349L40.4546 62.914L45.7326 57.5979C46.1905 57.1372 46.1905 56.3917 45.7326 55.931" fill="#7F0064"/>
<path d="M36.9308 59.2708C36.9007 59.2465 36.8645 59.2223 36.8404 59.192C36.8223 59.1738 36.8043 59.1495 36.7862 59.1253C36.3283 58.7494 35.6535 58.7676 35.2197 59.198L27.887 66.5266C27.6641 66.7448 27.5436 67.0479 27.5436 67.3631V70.7092H25.1637V67.3631C25.1637 67.0479 25.0432 66.7509 24.8202 66.5266L17.4876 59.198C17.0598 58.7676 16.385 58.7434 15.9211 59.1253C15.903 59.1495 15.8849 59.1738 15.8669 59.192C15.8367 59.2223 15.8066 59.2404 15.7765 59.2708C15.3788 59.7314 15.3969 60.4285 15.8307 60.871L22.8199 67.8541V91.8705C22.8199 92.5191 23.3441 93.0465 23.9888 93.0465C24.6335 93.0465 25.1577 92.5191 25.1577 91.8705V73.0732H27.5376V91.8705C27.5376 92.5191 28.0618 93.0465 28.7065 93.0465C29.3512 93.0465 29.8753 92.5191 29.8753 91.8705V67.8541L36.8645 60.871C37.3044 60.4285 37.3164 59.7314 36.9188 59.2708" fill="#002273"/>
<path d="M36.9307 59.2708C36.9307 59.2708 36.8946 59.2223 36.8765 59.2041C36.8464 59.1738 36.8163 59.1556 36.7861 59.1313C36.8042 59.1556 36.8223 59.1798 36.8404 59.198C36.8705 59.2283 36.9006 59.2465 36.9307 59.2768" fill="#002273"/>
<path d="M40.4606 62.914L40.4546 62.908L37.5264 65.8539L40.4606 62.914Z" fill="#002273"/>
<path d="M33.8026 67.933C33.3447 67.4723 33.3447 66.7268 33.8026 66.2661L36.2006 63.8535L33.7604 66.2843C33.3025 66.7449 33.3025 67.4905 33.7604 67.9512C34.0798 68.2725 34.5437 68.3634 34.9534 68.2361C34.851 68.2664 34.7425 68.2846 34.6341 68.2846C34.3328 68.2846 34.0376 68.1694 33.8026 67.9391" fill="#002273"/>
<path d="M36.2082 63.8535L33.8102 66.2661C33.3523 66.7268 33.3523 67.4723 33.8102 67.933C34.0392 68.1634 34.3404 68.2785 34.6417 68.2785C34.7502 68.2785 34.8586 68.2604 34.961 68.2301C35.0695 68.1937 35.1779 68.1573 35.2743 68.0906C35.3346 68.0482 35.3888 68.0058 35.437 67.9573L37.5338 65.8599L40.462 62.914L38.8473 61.2349L36.2143 63.8535H36.2082Z" fill="#002273"/>
<path d="M35.2664 68.0908C35.17 68.1575 35.0616 68.1999 34.9531 68.2302C35.0616 68.1999 35.17 68.1514 35.2664 68.0908Z" fill="#002273"/>
<path d="M46.0762 70.8528H50.9378V65.9683H55.0381V70.8528H59.9227V74.9531H55.0381V79.8148H50.9378V74.9531H46.0762V70.8528Z" fill="#6F727B"/>
<path d="M69.2249 59.1254C69.6226 58.6647 69.6045 57.9676 69.1707 57.5251L64.7543 53.0818C64.2963 52.6212 63.5553 52.6212 63.0973 53.0818C62.6394 53.5425 62.6394 54.2881 63.0973 54.7488L67.5138 59.192C67.7427 59.4224 68.044 59.5375 68.3452 59.5375C68.6043 59.5375 68.8634 59.4466 69.0803 59.2708C69.0984 59.2466 69.1165 59.2223 69.1345 59.2042C69.1647 59.1738 69.1948 59.1557 69.2249 59.1314" fill="#D50056"/>
<path d="M68.4785 65.854L70.5451 67.9332C70.6054 67.9938 70.6717 68.0483 70.7379 68.0908C70.6777 68.0483 70.6235 68.0059 70.5753 67.9574L68.4785 65.8601V65.854Z" fill="#CBC545"/>
<path d="M61.9232 55.931C61.4653 55.4703 60.7242 55.4703 60.2663 55.931C59.8084 56.3917 59.8084 57.1372 60.2663 57.5979L65.5443 62.914L67.1591 61.2349L61.9232 55.931Z" fill="#D50056"/>
<path d="M69.2257 59.1255C69.1955 59.1497 69.1594 59.174 69.1353 59.1982C69.1172 59.2225 69.0991 59.2407 69.0811 59.2649C69.1112 59.2407 69.1473 59.2164 69.1714 59.1922C69.1895 59.174 69.2076 59.1497 69.2257 59.1255Z" fill="#002273"/>
<path d="M65.5439 62.914L68.4782 65.8539L65.5439 62.908V62.914Z" fill="#002273"/>
<path d="M69.7979 63.8535L72.1959 66.266C72.6538 66.7267 72.6538 67.4723 72.1959 67.933C71.9669 68.1633 71.6656 68.2785 71.3644 68.2785C71.2559 68.2785 71.1475 68.2603 71.0451 68.23C71.4548 68.3573 71.9187 68.2724 72.238 67.9451C72.696 67.4844 72.696 66.7388 72.238 66.2782L69.7979 63.8474V63.8535Z" fill="#002273"/>
<path d="M72.1965 67.933C72.6544 67.4723 72.6544 66.7267 72.1965 66.266L69.7985 63.8535L67.1655 61.2288L65.5508 62.9078L68.479 65.8538L70.5758 67.9512C70.624 67.9997 70.6842 68.0482 70.7384 68.0845C70.8348 68.1512 70.9433 68.1936 71.0517 68.224C71.1542 68.2543 71.2626 68.2724 71.3711 68.2724C71.6723 68.2724 71.9676 68.1573 72.2025 67.9269" fill="#002273"/>
<path d="M71.0506 68.2302C70.9422 68.1939 70.8337 68.1575 70.7373 68.0908C70.8337 68.1514 70.9422 68.1999 71.0506 68.2302Z" fill="#002273"/>
<path d="M90.2355 59.2708C90.4525 59.4466 90.7115 59.5375 90.9706 59.5375C91.2719 59.5375 91.5731 59.4224 91.8021 59.192L96.2185 54.7488C96.6764 54.2881 96.6764 53.5425 96.2185 53.0818C95.7606 52.6212 95.0195 52.6212 94.5616 53.0818L90.1452 57.5251C89.7114 57.9615 89.6933 58.6647 90.0909 59.1254C90.1211 59.1496 90.1572 59.1738 90.1813 59.1981C90.2054 59.2163 90.2175 59.2405 90.2355 59.2648" fill="#2069E7"/>
<path d="M88.5723 68.0908C88.6385 68.0483 88.7048 67.9938 88.7651 67.9332L90.8317 65.854L88.7349 67.9513C88.6867 68.0059 88.6265 68.0483 88.5723 68.0847" fill="#CBC545"/>
<path d="M99.0443 55.931C98.5864 55.4703 97.8453 55.4703 97.3874 55.931L92.1455 61.2349L93.7602 62.914L99.0383 57.5979C99.4962 57.1372 99.4962 56.3917 99.0383 55.931" fill="#2069E7"/>
<path d="M90.2345 59.2708C90.2044 59.2465 90.1682 59.2223 90.1441 59.192C90.1261 59.1738 90.108 59.1495 90.0899 59.1253C89.632 58.7494 88.9572 58.7676 88.5234 59.198L81.1908 66.5266C80.9678 66.7448 80.8473 67.0479 80.8473 67.3631V70.7092H78.4674V67.3631C78.4674 67.0479 78.3469 66.7509 78.124 66.5266L70.7913 59.198C70.3636 58.7676 69.6887 58.7434 69.2248 59.1253C69.2067 59.1495 69.1887 59.1738 69.1706 59.192C69.1405 59.2223 69.1103 59.2404 69.0802 59.2708C68.6825 59.7314 68.7006 60.4285 69.1344 60.871L76.1236 67.8541V91.8705C76.1236 92.5191 76.6478 93.0465 77.2925 93.0465C77.9372 93.0465 78.4614 92.5191 78.4614 91.8705V73.0732H80.8413V91.8705C80.8413 92.5191 81.3655 93.0465 82.0102 93.0465C82.6549 93.0465 83.1791 92.5191 83.1791 91.8705V67.8541L90.1682 60.871C90.6081 60.4285 90.6201 59.7314 90.2225 59.2708" fill="#002273"/>
<path d="M90.2354 59.2708C90.2354 59.2708 90.1993 59.2223 90.1812 59.2041C90.1511 59.1738 90.1209 59.1556 90.0908 59.1313C90.1089 59.1556 90.127 59.1798 90.145 59.198C90.1752 59.2283 90.2053 59.2465 90.2354 59.2768" fill="#002273"/>
<path d="M93.7663 62.914L93.7603 62.908L90.832 65.8539L93.7663 62.914Z" fill="#002273"/>
<path d="M87.1083 67.933C86.6504 67.4723 86.6504 66.7268 87.1083 66.2661L89.5063 63.8535L87.0661 66.2843C86.6082 66.7449 86.6082 67.4905 87.0661 67.9512C87.3854 68.2725 87.8494 68.3634 88.2591 68.2361C88.1566 68.2664 88.0482 68.2846 87.9397 68.2846C87.6385 68.2846 87.3432 68.1694 87.1083 67.9391" fill="#002273"/>
<path d="M89.512 63.8535L87.1139 66.2661C86.656 66.7268 86.656 67.4723 87.1139 67.933C87.3429 68.1634 87.6442 68.2785 87.9454 68.2785C88.0539 68.2785 88.1623 68.2604 88.2647 68.2301C88.3732 68.1937 88.4817 68.1573 88.5781 68.0906C88.6383 68.0482 88.6925 68.0058 88.7407 67.9573L90.8375 65.8599L93.7657 62.914L92.151 61.2349L89.518 63.8535H89.512Z" fill="#002273"/>
<path d="M88.5721 68.0908C88.4757 68.1575 88.3672 68.1999 88.2588 68.2302C88.3672 68.1999 88.4757 68.1514 88.5721 68.0908Z" fill="#002273"/>
</svg>
