<svg width="88" height="60" viewBox="0 0 88 60" fill="none" xmlns="http://www.w3.org/2000/svg">
<path d="M10.6184 15.7248C11.0308 15.2471 11.0121 14.5242 10.5622 14.0654L5.98251 9.4579C5.50767 8.98018 4.73917 8.98018 4.26433 9.4579C3.78949 9.93562 3.78949 10.7088 4.26433 11.1865L8.84404 15.794C9.08146 16.0328 9.39386 16.1523 9.70625 16.1523C9.97491 16.1523 10.2436 16.058 10.4685 15.8757C10.4872 15.8505 10.506 15.8254 10.5247 15.8065C10.556 15.7751 10.5872 15.7563 10.6184 15.7311" fill="#40B4E5"/>
<path d="M9.84375 22.7021L11.9868 24.8582C12.0493 24.921 12.118 24.9776 12.1867 25.0216C12.1242 24.9776 12.068 24.9336 12.018 24.8833L9.84375 22.7084V22.7021Z" fill="#40B4E5"/>
<path d="M3.04598 12.4122C2.57114 11.9345 1.80265 11.9345 1.32781 12.4122C0.85297 12.89 0.85297 13.6631 1.32781 14.1408L6.80097 19.6535L8.47541 17.9123L3.04598 12.4122Z" fill="#40B4E5"/>
<path d="M10.6187 15.7251C10.5875 15.7502 10.55 15.7754 10.525 15.8005C10.5062 15.8257 10.4875 15.8445 10.4688 15.8697C10.5 15.8445 10.5375 15.8194 10.5625 15.7942C10.5812 15.7754 10.6 15.7502 10.6187 15.7251Z" fill="#002273"/>
<path d="M6.80176 19.6535L9.84449 22.7021L6.80176 19.6472V19.6535Z" fill="#002273"/>
<path d="M11.2119 20.6279L13.6986 23.1296C14.1734 23.6073 14.1734 24.3805 13.6986 24.8582C13.4612 25.0971 13.1488 25.2165 12.8364 25.2165C12.7239 25.2165 12.6114 25.1976 12.5052 25.1662C12.9301 25.2982 13.4112 25.2102 13.7423 24.8708C14.2172 24.3931 14.2172 23.6199 13.7423 23.1422L11.2119 20.6216V20.6279Z" fill="#002273"/>
<path d="M13.6981 24.8581C14.1729 24.3804 14.1729 23.6072 13.6981 23.1295L11.2114 20.6278L8.48108 17.906L6.80664 19.6472L9.84312 22.7021L12.0174 24.8769C12.0674 24.9272 12.1299 24.9775 12.1861 25.0152C12.286 25.0844 12.3985 25.1284 12.511 25.1598C12.6172 25.1912 12.7297 25.2101 12.8421 25.2101C13.1545 25.2101 13.4607 25.0907 13.7043 24.8518" fill="#002273"/>
<path d="M12.5124 25.1663C12.3999 25.1286 12.2875 25.0909 12.1875 25.0217C12.2875 25.0846 12.3999 25.1349 12.5124 25.1663Z" fill="#002273"/>
<path d="M32.4048 15.8757C32.6297 16.058 32.8983 16.1523 33.167 16.1523C33.4794 16.1523 33.7918 16.0328 34.0292 15.794L38.6089 11.1865C39.0838 10.7088 39.0838 9.93562 38.6089 9.4579C38.1341 8.98018 37.3656 8.98018 36.8908 9.4579L32.311 14.0654C31.8612 14.518 31.8424 15.2471 32.2548 15.7248C32.286 15.75 32.3235 15.7751 32.3485 15.8003C32.3735 15.8191 32.386 15.8443 32.4048 15.8694" fill="#40B4E5"/>
<path d="M30.6816 25.0216C30.7504 24.9776 30.8191 24.921 30.8816 24.8582L33.0246 22.7021L30.8503 24.877C30.8004 24.9336 30.7379 24.9776 30.6816 25.0153" fill="#40B4E5"/>
<path d="M41.5396 12.4122C41.0647 11.9345 40.2963 11.9345 39.8214 12.4122L34.3857 17.9123L36.0602 19.6535L41.5333 14.1408C42.0082 13.6631 42.0082 12.89 41.5333 12.4122" fill="#40B4E5"/>
<path d="M32.406 15.8757C32.3748 15.8505 32.3373 15.8254 32.3123 15.794C32.2936 15.7751 32.2748 15.75 32.2561 15.7248C31.7812 15.3351 31.0815 15.354 30.6316 15.8003L23.0279 23.3998C22.7968 23.6261 22.6718 23.9404 22.6718 24.2672V27.737H20.2039V24.2672C20.2039 23.9404 20.0789 23.6324 19.8478 23.3998L12.2441 15.8003C11.8005 15.354 11.1007 15.3288 10.6196 15.7248C10.6009 15.75 10.5821 15.7751 10.5634 15.794C10.5321 15.8254 10.5009 15.8443 10.4697 15.8757C10.0573 16.3534 10.076 17.0763 10.5259 17.5351L17.7734 24.7764V49.6807C17.7734 50.3532 18.317 50.9001 18.9855 50.9001C19.6541 50.9001 20.1976 50.3532 20.1976 49.6807V30.1884H22.6656V49.6807C22.6656 50.3532 23.2091 50.9001 23.8776 50.9001C24.5462 50.9001 25.0897 50.3532 25.0897 49.6807V24.7764L32.3373 17.5351C32.7934 17.0763 32.8059 16.3534 32.3935 15.8757" fill="#002273"/>
<path d="M32.4058 15.8758C32.4058 15.8758 32.3683 15.8255 32.3496 15.8066C32.3183 15.7752 32.2871 15.7563 32.2559 15.7312C32.2746 15.7563 32.2933 15.7815 32.3121 15.8003C32.3433 15.8318 32.3746 15.8506 32.4058 15.8821" fill="#002273"/>
<path d="M36.0662 19.6535L36.0599 19.6472L33.0234 22.7021L36.0662 19.6535Z" fill="#002273"/>
<path d="M29.1616 24.8583C28.6867 24.3805 28.6867 23.6074 29.1616 23.1297L31.6482 20.6279L29.1178 23.1485C28.643 23.6263 28.643 24.3994 29.1178 24.8771C29.449 25.2103 29.9301 25.3046 30.3549 25.1726C30.2487 25.204 30.1363 25.2228 30.0238 25.2228C29.7114 25.2228 29.4053 25.1034 29.1616 24.8646" fill="#002273"/>
<path d="M31.6563 20.6278L29.1696 23.1296C28.6948 23.6073 28.6948 24.3804 29.1696 24.8582C29.407 25.097 29.7194 25.2164 30.0318 25.2164C30.1443 25.2164 30.2567 25.1976 30.363 25.1662C30.4754 25.1284 30.5879 25.0907 30.6878 25.0216C30.7503 24.9776 30.8066 24.9336 30.8565 24.8833L33.0308 22.7084L36.0673 19.6535L34.3929 17.9124L31.6625 20.6278H31.6563Z" fill="#002273"/>
<path d="M30.6804 25.0217C30.5804 25.0909 30.4679 25.1349 30.3555 25.1663C30.4679 25.1349 30.5804 25.0846 30.6804 25.0217Z" fill="#002273"/>
<path d="M41.8896 27.886H46.931V22.8208H51.1829V27.886H56.2481V32.1379H51.1829V37.1792H46.931V32.1379H41.8896V27.886Z" fill="#6F727B"/>
<path d="M80.5289 28.7386C80.471 28.2822 80.381 27.8322 80.2589 27.4014C80.0082 26.5143 79.616 25.6786 79.0889 24.875C78.7868 24.4186 78.4396 23.9686 78.0475 23.5379C77.9832 23.4672 77.9189 23.3964 77.8546 23.3257C77.051 22.4707 76.1189 21.7186 75.1289 21.0114C74.891 20.8443 74.6532 20.6772 74.4153 20.5164L70.8025 18.1829C70.436 17.9386 69.7032 17.4436 69.2982 17.1479C68.7132 16.7172 68.1603 16.28 67.6653 15.8107C66.8553 15.0522 66.1868 14.2293 65.7175 13.2843C65.5118 12.86 65.3446 12.4164 65.2225 11.9472C65.0875 11.4136 65.0168 10.8414 65.0168 10.2307C65.0168 9.58144 64.5153 9.04787 63.8853 9.02858C63.2232 9.0093 62.6768 9.54287 62.6768 10.1986C62.6768 12.275 63.281 14.12 64.5218 15.7979C64.7918 16.1707 65.1003 16.5307 65.4346 16.8843C65.5118 16.9679 65.5953 17.0514 65.6789 17.135C66.611 18.0736 67.6975 18.8964 68.8225 19.6614C68.8353 19.6743 68.8546 19.6807 68.8739 19.6936L72.2682 21.8857C73.0846 22.4193 73.8753 22.9593 74.6018 23.525C75.1418 23.9493 75.6432 24.3929 76.0932 24.8622C76.8132 25.6207 77.3982 26.4436 77.7775 27.3886C77.951 27.8129 78.0796 28.2564 78.1632 28.7257C78.2339 29.1243 78.2725 29.5486 78.2725 29.9922C78.2725 30.4357 78.2339 30.8536 78.1632 31.2586C78.0796 31.7279 77.951 32.1779 77.7775 32.5957C77.3982 33.5407 76.8132 34.37 76.0932 35.1222C75.6432 35.5914 75.1418 36.035 74.6018 36.4593C73.8818 37.0314 73.0846 37.565 72.2682 38.0986C72.0625 38.2336 71.8568 38.3622 71.651 38.4972C71.4453 38.6322 71.2332 38.7607 71.021 38.8957C70.976 38.9214 70.931 38.9536 70.886 38.9857C70.4168 39.2814 69.9475 39.5836 69.4846 39.8857C69.2789 40.0207 69.0796 40.1493 68.8803 40.2907C68.861 40.3036 68.8482 40.3164 68.8289 40.3229C67.6975 41.0943 66.6175 41.9172 65.6853 42.8493C65.6018 42.9329 65.5182 43.0164 65.441 43.1C65.1068 43.4536 64.8046 43.8136 64.5282 44.1864C63.2875 45.8707 62.6832 47.7029 62.6768 49.7664C62.6768 50.4543 63.2489 51.02 63.9303 50.9686C64.541 50.9236 65.0168 50.4157 65.0168 49.7986C65.0168 49.1814 65.0875 48.6093 65.2225 48.0693C65.3382 47.6 65.5053 47.15 65.7175 46.7322C66.1803 45.7872 66.8553 44.9643 67.6653 44.2057C68.1668 43.7364 68.7132 43.2929 69.2982 42.8686C69.8446 42.4636 70.4232 42.0779 71.021 41.6922C71.2268 41.5572 71.4325 41.4286 71.6382 41.2936C71.8439 41.1586 72.056 41.03 72.2682 40.895C72.5575 40.715 72.8468 40.5286 73.1296 40.3422C73.3546 40.1943 73.5796 40.0529 73.8046 39.905C74.0103 39.77 74.2096 39.635 74.4089 39.5C74.6532 39.3393 74.891 39.1722 75.1225 39.005C76.106 38.2979 77.0382 37.5393 77.8482 36.6907C77.9125 36.62 77.9832 36.5493 78.041 36.4786C78.4332 36.0414 78.7803 35.5979 79.0825 35.1414C79.6096 34.3379 79.9953 33.4957 80.2525 32.615C80.3746 32.1779 80.4646 31.7343 80.5225 31.2779C80.5739 30.8664 80.5996 30.4486 80.5996 30.0114C80.5996 29.5743 80.5739 29.1564 80.5225 28.745" fill="#002273"/>
<path d="M66.2764 13.2264C66.3857 13.4578 66.6171 13.6057 66.8743 13.6057H76.4078C76.665 13.6057 76.8964 13.4578 77.0057 13.2264C77.0057 13.2264 77.0057 13.22 77.0057 13.2136C77.2114 12.7764 76.89 12.2686 76.4078 12.2686H66.8678C66.3793 12.2686 66.0643 12.7764 66.27 13.2136C66.27 13.2136 66.27 13.22 66.2764 13.2264Z" fill="#CBC545"/>
<path d="M70.6484 15.4636C69.9991 15.4636 69.7355 16.2993 70.2691 16.6722C70.2755 16.6722 70.282 16.6786 70.2884 16.6851C70.3977 16.7622 70.5327 16.8008 70.6677 16.8008H72.622C72.757 16.8008 72.8855 16.7558 73.0013 16.6851C73.0077 16.6851 73.0141 16.6786 73.0205 16.6722C73.5541 16.2993 73.2905 15.4636 72.6413 15.4636H70.6484Z" fill="#CBC545"/>
<path d="M73.2901 25.5371C73.9265 25.5371 74.1965 24.7207 73.6822 24.3414C73.6758 24.3414 73.6694 24.335 73.6629 24.3285C73.5472 24.245 73.4122 24.2 73.2708 24.2H70.0115C69.8701 24.2 69.7287 24.245 69.6194 24.3285C69.6194 24.3285 69.6065 24.335 69.6001 24.3414C69.0858 24.7207 69.3558 25.5371 69.9922 25.5371H73.2901Z" fill="#CBC545"/>
<path d="M66.0587 28.1728C66.0587 28.1728 66.0587 28.1792 66.0587 28.1857C65.9044 28.6164 66.2258 29.0728 66.6822 29.0728H76.6144C77.0708 29.0728 77.3922 28.6164 77.2379 28.1857C77.2379 28.1857 77.2379 28.1792 77.2379 28.1728C77.1415 27.9092 76.8972 27.7292 76.6144 27.7292H66.6822C66.3994 27.7292 66.1551 27.9092 66.0587 28.1728Z" fill="#CBC545"/>
<path d="M66.0518 32.1457C66.0518 32.1457 66.0518 32.1521 66.0518 32.1585C66.1482 32.4221 66.399 32.6021 66.6754 32.6021H76.5947C76.8775 32.6021 77.1218 32.4221 77.2182 32.1585C77.2182 32.1585 77.2182 32.1521 77.2182 32.1457C77.3725 31.715 77.0511 31.2585 76.5947 31.2585H66.6754C66.219 31.2585 65.8975 31.715 66.0518 32.1457Z" fill="#CBC545"/>
<path d="M69.9922 34.7942C69.3558 34.7942 69.0858 35.6106 69.6001 35.9899C69.6001 35.9899 69.6129 35.9963 69.6194 36.0028C69.7351 36.0863 69.8701 36.1313 70.0115 36.1313H73.2708C73.4122 36.1313 73.5537 36.0863 73.6629 36.0028C73.6629 36.0028 73.6758 35.9963 73.6822 35.9899C74.1965 35.6106 73.9265 34.7942 73.2901 34.7942H69.9922Z" fill="#CBC545"/>
<path d="M72.6413 44.54C73.2905 44.54 73.5541 43.7043 73.0205 43.3315C73.0141 43.3315 73.0077 43.325 73.0013 43.3186C72.892 43.2415 72.757 43.2029 72.622 43.2029H70.6677C70.5327 43.2029 70.3977 43.2479 70.2884 43.3186C70.2884 43.3186 70.2755 43.325 70.2691 43.3315C69.7355 43.7043 69.9991 44.54 70.6484 44.54H72.6413Z" fill="#CBC545"/>
<path d="M77.0061 47.1115C76.8968 46.88 76.6654 46.7322 76.4083 46.7322H66.8747C66.6175 46.7322 66.3861 46.88 66.2768 47.1115C66.2768 47.1115 66.2768 47.1179 66.2768 47.1243C66.0711 47.5615 66.3861 48.0693 66.8747 48.0693H76.4211C76.9097 48.0693 77.2247 47.5615 77.019 47.1243C77.019 47.1243 77.019 47.1179 77.0125 47.1115" fill="#CBC545"/>
</svg>
