<svg width="76" height="75" viewBox="0 0 76 75" fill="none" xmlns="http://www.w3.org/2000/svg">
<mask id="mask0_3925_24752" style="mask-type:luminance" maskUnits="userSpaceOnUse" x="10" y="0" width="56" height="75">
<path d="M65.919 0H10.0811V75H65.919V0Z" fill="white"/>
</mask>
<g mask="url(#mask0_3925_24752)">
<path d="M62.0185 68.9789C62.0185 70.1436 61.0736 71.0885 59.9089 71.0885H16.245C15.0803 71.0885 13.9706 70.1216 13.9706 68.9569V15.7449C13.9706 14.5803 14.9155 13.6354 16.0802 13.6354H25.3316V15.7999C25.3316 16.9426 26.2545 17.8655 27.3972 17.8655H48.5919C49.7346 17.8655 50.6575 16.9426 50.6575 15.7999V13.6464H59.9089C62.2822 13.6464 62.0185 16.3712 62.0185 15.7449V68.9899V68.9789ZM38 3.90053C39.2526 3.90053 40.2744 4.92236 40.2744 6.17492C40.2744 7.42748 39.2526 8.44931 38 8.44931C36.7475 8.44931 35.7256 7.42748 35.7256 6.17492C35.7256 4.92236 36.7475 3.90053 38 3.90053ZM59.9089 9.73484H50.6575V7.89994C50.6575 6.75725 49.7346 5.83431 48.5919 5.83431H44.7353C44.2519 2.53809 41.4281 0 38 0C34.572 0 31.7372 2.53809 31.2648 5.83431H27.4082C26.2655 5.83431 25.3426 6.75725 25.3426 7.89994V9.73484H16.0912C12.773 9.73484 10.0811 12.4268 10.0811 15.7449V68.9679C10.0811 72.2861 12.773 74.978 16.0912 74.978L59.9089 75C63.2271 75 65.919 72.3081 65.919 68.9899V15.7449C65.919 12.4268 63.2271 9.73484 59.9089 9.73484Z" fill="#002273"/>
</g>
<path d="M56.5015 28.5672H38.9766V31.4899H56.5015V28.5672Z" fill="#35C9C9"/>
<path d="M56.5015 43.1805H38.9766V46.1032H56.5015V43.1805Z" fill="#002273"/>
<path d="M56.5015 60.7055H38.9766V57.7829H56.5015" fill="#002273"/>
<mask id="mask1_3925_24752" style="mask-type:luminance" maskUnits="userSpaceOnUse" x="10" y="0" width="56" height="75">
<path d="M65.919 0H10.0811V75H65.919V0Z" fill="white"/>
</mask>
<g mask="url(#mask1_3925_24752)">
<path d="M32.3202 56.9696L25.9145 63.1555C25.5739 63.4851 25.1234 63.639 24.6729 63.628C24.2334 63.628 23.7939 63.4742 23.4643 63.1555L19.9813 60.2439C19.3331 59.6066 19.3331 58.5848 19.9813 57.9475C20.6296 57.3102 21.6844 57.3102 22.3436 57.9475L24.618 59.8593L29.9579 54.7062C30.6061 54.0799 31.6719 54.0799 32.3202 54.7062C32.9684 55.3325 32.9684 56.3543 32.3202 56.9806" fill="#002273"/>
<path d="M32.3202 42.3564L25.9145 48.5423C25.5739 48.8719 25.1234 49.0257 24.6729 49.0148C24.2334 49.0148 23.7939 48.8609 23.4643 48.5423L19.9813 45.6306C19.3331 44.9934 19.3331 43.9715 19.9813 43.3343C20.6296 42.697 21.6844 42.697 22.3436 43.3343L24.618 45.2461L29.9579 40.093C30.6061 39.4667 31.6719 39.4667 32.3202 40.093C32.9684 40.7193 32.9684 41.7411 32.3202 42.3674" fill="#002273"/>
<path d="M32.3202 27.7542L25.9145 33.9401C25.5739 34.2697 25.1234 34.4235 24.6729 34.4016C24.2334 34.4016 23.7939 34.2477 23.4643 33.9291L19.9813 31.0174C19.3331 30.3802 19.3331 29.3583 19.9813 28.7211C20.6296 28.0838 21.6844 28.0838 22.3436 28.7211L24.618 30.6329L29.9579 25.4798C30.6061 24.8535 31.6719 24.8535 32.3202 25.4798C32.9684 26.1061 32.9684 27.1279 32.3202 27.7542Z" fill="#2069E7"/>
</g>
</svg>
