<svg viewBox="0 0 55.26 61.86" xmlns="http://www.w3.org/2000/svg" xmlns:xlink="http://www.w3.org/1999/xlink" id="Layer_2" overflow="hidden"><defs></defs><g id="AW"><circle cx="39.5" cy="7.14" r="6.14" stroke="#FFFFFF" stroke-width="1.74603" stroke-linejoin="miter" stroke-miterlimit="10" stroke-opacity="1" fill="none"/><path d="M1.13 14.81C1.13 14.81-0.4 36.3 7.27 42.44 14.94 48.58 31.83 45.51 31.83 45.51" stroke="#40B4E5" stroke-width="1.74603" stroke-linecap="round" stroke-linejoin="miter" stroke-miterlimit="10" stroke-opacity="1" fill="none"/><line x1="16.47" y1="47.05" x2="8.8" y2="60.86" stroke="#40B4E5" stroke-width="1.74603" stroke-linecap="round" stroke-linejoin="miter" stroke-miterlimit="10" stroke-opacity="1" fill="none"/><line x1="27.22" y1="47.05" x2="34.89" y2="60.86" stroke="#40B4E5" stroke-width="1.74603" stroke-linecap="round" stroke-linejoin="miter" stroke-miterlimit="10" stroke-opacity="1" fill="none"/><path d="M27.22 8.11C33.98 8.11 29.36 17.21 29.36 22.2 29.36 27.19 30.52 34.48 35.72 34.48 40.92 34.48 42.91 36.04 44.64 45.83 46.37 55.62 54.26 60.85 54.26 60.85L43.08 60.85C43.08 60.85 38.93 41.96 35.7 41.28 33.66 40.85 22.73 44.86 15.12 42.03 7.51 39.2 11.32 8.11 27.22 8.11Z" stroke="#FFFFFF" stroke-width="1.74603" stroke-linecap="round" stroke-linejoin="miter" stroke-miterlimit="10" stroke-opacity="1" fill="none"/><path d="M25.56 33.44C25.56 33.44 20.12 35.17 20.12 31.71 20.12 28.25 20.58 26.4 22.84 20.03 23.37 28.06 25.56 33.44 25.56 33.44Z" stroke="#FFFFFF" stroke-width="1.74603" stroke-linecap="round" stroke-linejoin="miter" stroke-miterlimit="10" stroke-opacity="1" fill="none"/></g></svg>