<svg viewBox="0 0 55.9 59.99" xmlns="http://www.w3.org/2000/svg" xmlns:xlink="http://www.w3.org/1999/xlink" id="Layer_2" overflow="hidden"><defs></defs><g id="AW"><path d="M24.45 13.76C23.07 11.66 20.69 10.27 17.99 10.27 13.73 10.27 10.27 13.73 10.27 17.99 10.27 20.66 11.62 23.01 13.67 24.39" stroke="#FFFFFF" stroke-width="1.82114" stroke-linecap="round" stroke-linejoin="miter" stroke-miterlimit="10" stroke-opacity="1" fill="none"/><line x1="5.63" y1="17.99" x2="1" y2="17.99" stroke="#40B4E5" stroke-width="1.82114" stroke-linecap="round" stroke-linejoin="miter" stroke-miterlimit="10" stroke-opacity="1" fill="none"/><line x1="9.25" y1="9.25" x2="5.98" y2="5.98" stroke="#40B4E5" stroke-width="1.82114" stroke-linecap="round" stroke-linejoin="miter" stroke-miterlimit="10" stroke-opacity="1" fill="none"/><line x1="17.99" y1="5.63" x2="17.99" y2="1" stroke="#40B4E5" stroke-width="1.82114" stroke-linecap="round" stroke-linejoin="miter" stroke-miterlimit="10" stroke-opacity="1" fill="none"/><line x1="5.98" y1="30" x2="9.25" y2="26.72" stroke="#40B4E5" stroke-width="1.82114" stroke-linecap="round" stroke-linejoin="miter" stroke-miterlimit="10" stroke-opacity="1" fill="none"/><line x1="26.72" y1="9.25" x2="30" y2="5.98" stroke="#40B4E5" stroke-width="1.82114" stroke-linecap="round" stroke-linejoin="miter" stroke-miterlimit="10" stroke-opacity="1" fill="none"/><line x1="5.98" y1="30" x2="9.25" y2="26.72" stroke="#40B4E5" stroke-width="1.82114" stroke-linecap="round" stroke-linejoin="miter" stroke-miterlimit="10" stroke-opacity="1" fill="none"/><line x1="26.72" y1="9.25" x2="30" y2="5.98" stroke="#40B4E5" stroke-width="1.82114" stroke-linecap="round" stroke-linejoin="miter" stroke-miterlimit="10" stroke-opacity="1" fill="none"/><path d="M25.96 35.04 31.52 40.6C31.91 40.99 32.54 40.99 32.93 40.6L46.21 27.32" stroke="#40B4E5" stroke-width="1.82114" stroke-linecap="round" stroke-linejoin="miter" stroke-miterlimit="10" stroke-opacity="1" fill="none"/><path d="M54.9 24 54.9 20.78C54.9 20.36 54.64 19.99 54.25 19.84L36.44 13.22C36.22 13.14 35.97 13.14 35.74 13.22L17.93 19.84C17.54 19.99 17.28 20.36 17.28 20.78L17.28 32.05C17.28 37.9 19.19 43.59 22.81 48.52 26.03 52.9 30.45 56.47 35.67 58.89 35.94 59.02 36.26 59.02 36.53 58.89 41.74 56.47 46.17 52.9 49.39 48.52 53.01 43.59 54.92 37.9 54.92 32.05L54.92 28.01" stroke="#FFFFFF" stroke-width="1.82114" stroke-linecap="round" stroke-linejoin="miter" stroke-miterlimit="10" stroke-opacity="1" fill="none"/></g></svg>