<svg viewBox="0 0 155.41 150.08" xmlns="http://www.w3.org/2000/svg" xmlns:xlink="http://www.w3.org/1999/xlink" id="Layer_2" overflow="hidden"><defs/><g id="Layer_1-2"><path d="M135.3 59.18C137.37 59.42 138.82 60.03 138.21 61 137.6 61.97 122.3 78.73 120.11 81.65 117.92 84.56 108.21 96.1 111.49 98.17 114.77 100.24 129.7 76.92 129.7 76.92L144.64 59.67 144.39 55.42 135.28 59.19Z" stroke-width="0" fill="#B4D6F1"/><path d="M143.08 27.73C143.08 27.73 146.36 27.25 146.97 28.58 147.57 29.91 142.23 36.11 142.23 36.11 142.23 36.11 128.35 53.35 125.55 56.75 122.76 60.15 108.47 79.58 107.5 80.92 106.53 82.25 105.92 84.56 106.89 85.65 107.86 86.74 125.23 63.67 125.23 63.67L143.57 41.69 152.8 29.18C152.8 29.18 155.58 25.41 150.73 24.93 145.88 24.45 143.09 27.73 143.09 27.73" stroke-width="0" fill="#B4D6F1"/><path d="M101.26 77.16C101.26 77.16 115.87 59.98 122.18 50.26 128.5 40.55 141.61 20.87 143.56 17.96 145.5 15.04 150.46 11.14 146.97 8.18 143.81 5.51 137.13 8.67 137.13 8.67 137.13 8.67 143.08 8.67 142.6 11.58 142.11 14.49 123.01 41.82 119.28 47.65 115.55 53.48 102.24 69.39 100.62 71.82 99 74.25 101.27 77.16 101.27 77.16" stroke-width="0" fill="#B4D6F1"/><path d="M123.93 7.37C127.17 6.72 129.76 6.4 129.44 8.67 129.12 10.94 117.46 26.48 117.46 26.48 117.46 26.48 108.12 40.02 103.86 45.43 99.65 50.77 87.35 60.17 89.93 63.73 92.52 67.29 98.03 57.58 98.03 57.58L116.49 37.18 129.45 17.1 139.07 6.74 133.65 2.21 123.94 7.39Z" stroke-width="0" fill="#B4D6F1"/><path d="M61.1 17.73C61.1 17.73 65.31 18.06 64.34 23.56 63.37 29.07 53.98 46.23 53.98 46.23 53.98 46.23 47.18 60.15 53.98 64.04 60.78 67.93 56.9 56.27 56.9 56.27L63.38 41.05 71.8 25.51 72.77 14.82 67.28 10.91 61.11 17.74Z" stroke-width="0" fill="#B4D6F1"/><path d="M100.18 93.57C110.56 105.16 109.58 122.97 97.99 133.36 86.4 143.74 68.59 142.76 58.21 131.17 58.21 131.17 76.31 144.95 94.59 128.59 111.84 113.14 100.19 93.58 100.19 93.58" stroke-width="0" fill="#B4D6F1"/><path d="M76.19 79.85C75.38 79.85 74.56 79.74 73.75 79.53 68.68 78.2 65.65 72.99 66.98 67.92 67.63 65.47 69.19 63.41 71.38 62.13 73.57 60.85 76.13 60.5 78.59 61.15 81.04 61.8 83.1 63.36 84.38 65.55 85.66 67.74 86.01 70.3 85.36 72.76 84.71 75.22 83.15 77.27 80.96 78.55 79.49 79.41 77.85 79.85 76.19 79.85ZM76.16 65.84C75.37 65.84 74.6 66.05 73.9 66.45 72.86 67.06 72.12 68.03 71.81 69.19L71.81 69.19C71.18 71.59 72.62 74.06 75.02 74.69 76.18 75 77.4 74.83 78.44 74.23 79.48 73.62 80.22 72.65 80.53 71.49 80.84 70.33 80.67 69.11 80.07 68.07 79.46 67.03 78.49 66.29 77.33 65.98 76.95 65.88 76.56 65.83 76.18 65.83Z" stroke-width="0" fill="#40B4E5"/><path d="M48.02 91.09C47.5 91.09 46.98 91.02 46.47 90.89 44.91 90.48 43.61 89.49 42.8 88.1 41.99 86.71 41.77 85.08 42.18 83.52L42.18 83.52C43.03 80.3 46.33 78.37 49.55 79.22 51.11 79.63 52.41 80.62 53.23 82.01 54.04 83.4 54.26 85.03 53.85 86.59 53.44 88.15 52.45 89.46 51.05 90.27 50.12 90.81 49.08 91.09 48.02 91.09ZM47.01 84.8 47.01 84.8C46.91 85.16 47.04 85.45 47.12 85.58 47.2 85.72 47.39 85.96 47.75 86.06 48.11 86.15 48.4 86.04 48.53 85.95 48.67 85.87 48.91 85.68 49.01 85.32 49.1 84.96 48.98 84.68 48.9 84.54 48.82 84.4 48.63 84.16 48.27 84.06 47.72 83.91 47.15 84.25 47.01 84.79Z" stroke-width="0" fill="#40B4E5"/><path d="M113.24 100.22C112.71 100.22 112.18 100.05 111.72 99.71 110.62 98.87 110.41 97.3 111.25 96.21 117.25 88.36 122.43 82 127.08 76.79 128.02 75.74 128.99 74.66 129.97 73.58 134.34 68.74 141.44 60.86 142.49 57.92 138.74 56.97 126.94 67.17 118.08 77.8 117.2 78.86 115.62 79 114.56 78.12 113.5 77.24 113.36 75.66 114.24 74.6 119.65 68.11 137.93 47.47 146.25 54.36 147.05 55.02 147.53 55.97 147.6 57.05 147.87 60.77 143.35 66.23 133.68 76.94 132.71 78.02 131.74 79.09 130.81 80.14 126.24 85.25 121.14 91.51 115.22 99.26 114.73 99.9 113.98 100.24 113.23 100.24Z" stroke-width="0" fill="#065BAA"/><path d="M34.86 147.18C33.81 147.18 32.83 146.51 32.49 145.46 32.06 144.15 32.77 142.74 34.08 142.31L34.08 142.31C34.08 142.31 38.53 140.79 52.14 133.91 53.37 133.28 54.88 133.78 55.5 135.01 56.12 136.24 55.63 137.75 54.4 138.37 40.31 145.5 35.84 147 35.66 147.06 35.4 147.15 35.14 147.19 34.88 147.19Z" stroke-width="0" fill="#065BAA"/><path d="M109.18 87.19C108.64 87.19 108.09 87.01 107.63 86.65 106.55 85.79 106.36 84.22 107.22 83.14 107.46 82.84 131.13 52.89 139.3 42.8 140.84 40.9 142.36 39.11 143.71 37.53 146.82 33.88 150.69 29.34 150.4 27.84 150.37 27.67 150.04 27.4 149.56 27.15 146.92 25.77 140.94 30.23 137.73 33.68 136.79 34.69 135.21 34.75 134.2 33.81 133.19 32.87 133.13 31.29 134.07 30.28 135.15 29.12 144.8 19.03 151.88 22.72 153.82 23.73 154.97 25.13 155.31 26.89 156.06 30.75 152.66 34.74 147.52 40.77 146.13 42.4 144.69 44.09 143.19 45.94 135.03 56.01 111.38 85.94 111.15 86.24 110.66 86.86 109.92 87.19 109.19 87.19Z" stroke-width="0" fill="#065BAA"/><path d="M102.62 77.96C102 77.96 101.39 77.74 100.91 77.28 99.9 76.33 99.86 74.75 100.8 73.75 100.95 73.59 116.26 57.28 122.38 47.87 125.11 43.66 130.98 34.74 143.38 16.13L143.77 15.54C144.19 14.9 144.68 14.28 145.15 13.67 147.66 10.44 147.35 10.18 146.66 9.6 144.93 8.14 140.97 8.79 139.71 9.13 138.38 9.49 137 8.72 136.64 7.39 136.27 6.06 137.05 4.69 138.37 4.32 139.12 4.11 145.84 2.36 149.89 5.79 154.55 9.73 150.86 14.47 149.09 16.75 148.66 17.31 148.24 17.84 147.92 18.32L147.53 18.91C135.14 37.5 129.29 46.41 126.56 50.6 120.2 60.39 105.07 76.5 104.43 77.18 103.94 77.7 103.27 77.97 102.61 77.97Z" stroke-width="0" fill="#065BAA"/><path d="M80.43 144.63C75.79 144.63 71.18 143.59 66.88 141.51 59.36 137.89 53.7 131.55 50.95 123.67 48.2 115.79 48.68 107.31 52.3 99.79 59.79 84.27 78.5 77.73 94.02 85.21 109.54 92.69 116.08 111.41 108.6 126.93L108.6 126.93C104.98 134.45 98.64 140.11 90.76 142.86 87.39 144.04 83.9 144.62 80.43 144.62ZM80.49 87.11C70.72 87.11 61.32 92.58 56.8 101.96 53.76 108.28 53.35 115.4 55.67 122.02 57.99 128.64 62.74 133.96 69.05 137.01 75.37 140.05 82.49 140.46 89.11 138.15 95.73 135.84 101.05 131.09 104.1 124.77 110.39 111.73 104.89 96.01 91.86 89.72 88.2 87.95 84.32 87.12 80.5 87.12Z" stroke-width="0" fill="#065BAA"/><path d="M139.74 150.08C138.56 150.08 137.36 149.82 136.22 149.27L115.13 139.1C111.09 137.16 109.39 132.29 111.34 128.25 113.29 124.22 118.16 122.52 122.19 124.46L143.28 134.63C145.24 135.57 146.71 137.22 147.42 139.27 148.07 141.12 148.03 143.1 147.32 144.91L147.32 144.96 147.07 145.48C145.67 148.38 142.76 150.07 139.74 150.07ZM118.67 128.66C117.51 128.66 116.39 129.31 115.85 130.43 115.1 131.98 115.76 133.85 117.31 134.6L138.4 144.77C139.15 145.13 140 145.18 140.79 144.91 141.55 144.64 142.17 144.11 142.54 143.39L142.58 143.31C142.94 142.56 142.99 141.71 142.72 140.92 142.44 140.13 141.88 139.5 141.13 139.14L120.04 128.97C119.61 128.76 119.14 128.66 118.69 128.66Z" stroke-width="0" fill="#065BAA"/><rect x="107.81" y="123.63" width="5" height="8.26" stroke-width="0" fill="#065BAA" transform="matrix(0.434288 -0.900774 0.900774 0.434288 -52.68 171.65)"/><path d="M80.96 127.91C79.72 127.91 78.48 127.55 77.39 126.85 73.27 127.07 69.31 125.28 66.83 122 64.84 119.36 63.99 116.11 64.45 112.84 64.85 110.01 66.17 107.46 68.23 105.53 67.66 102.58 68.79 99.46 71.28 97.58 74.46 95.18 78.86 95.5 81.66 98.15 85.14 96.57 89.39 97.54 91.79 100.72 93.45 102.91 93.87 105.74 93.09 108.25 93.85 108.73 94.52 109.35 95.08 110.09 97.61 113.44 96.94 118.23 93.59 120.76 91.77 122.14 89.46 122.58 87.32 122.1 87.14 123.87 86.25 125.52 84.79 126.62L84.79 126.62C83.64 127.49 82.29 127.91 80.94 127.91ZM78.14 121.76C78.78 121.76 79.4 122 79.87 122.45 80.33 122.89 81.14 123.13 81.81 122.63 81.81 122.63 81.81 122.63 81.81 122.63 82.42 122.17 82.47 121.45 82.32 120.97 82.1 120.23 82.23 119.43 82.68 118.8 82.97 118.39 83.21 117.97 83.41 117.54 83.73 116.82 84.38 116.29 85.15 116.12 85.92 115.95 86.73 116.15 87.33 116.67 88.25 117.47 89.63 117.51 90.61 116.78 91.76 115.91 91.99 114.27 91.12 113.11 90.69 112.54 90.04 112.18 89.3 112.1 88.37 112 87.58 111.4 87.23 110.53 86.89 109.66 87.06 108.67 87.67 107.97 88.71 106.78 88.77 105 87.82 103.74 86.7 102.26 84.59 101.97 83.12 103.08 83.1 103.1 83.06 103.14 83.03 103.18L82.85 103.36C82.28 103.91 81.48 104.15 80.7 104.01 79.92 103.87 79.25 103.38 78.89 102.67 78.79 102.46 78.69 102.3 78.59 102.17 77.58 100.83 75.66 100.57 74.32 101.58 73.16 102.46 72.78 104.04 73.42 105.35 73.96 106.47 73.61 107.81 72.58 108.51 72.46 108.59 72.34 108.66 72.22 108.73 70.69 109.91 69.7 111.62 69.43 113.54 69.16 115.49 69.66 117.43 70.85 119 72.45 121.12 75.12 122.2 77.8 121.81 77.92 121.79 78.04 121.78 78.16 121.78Z" stroke-width="0" fill="#40B4E5"/><path d="M92.05 65.87C91.35 65.87 90.65 65.57 90.15 65 89.25 63.95 89.37 62.37 90.42 61.48 90.52 61.39 100.57 52.77 104.8 48.3 108.16 44.76 113.7 36.53 120.11 27 121.75 24.57 123.45 22.04 125.2 19.47 128.94 13.96 131.97 10.6 133.97 8.38 134.71 7.56 135.52 6.66 135.92 6.1 135.05 5.28 134.06 4.94 132.81 5.02 127.14 5.38 119 13.76 115.08 18.65 114.22 19.73 112.64 19.9 111.57 19.04 110.49 18.18 110.32 16.6 111.18 15.53 113.17 13.04 123.56 0.6 132.5 0.03 135.17-0.15 137.57 0.73 139.46 2.56 142.93 5.91 140.38 8.73 137.69 11.72 135.78 13.84 132.89 17.04 129.34 22.27 127.59 24.84 125.9 27.36 124.26 29.79 117.45 39.9 112.08 47.89 108.43 51.74 104.02 56.4 94.09 64.92 93.67 65.28 93.2 65.68 92.62 65.88 92.04 65.88Z" stroke-width="0" fill="#065BAA"/><path d="M2.5 114.93C1.74 114.93 0.98 114.58 0.49 113.92-0.33 112.81-0.11 111.25 1 110.43 1.11 110.35 3.8 108.35 12.08 103.48 17.89 100.06 21.46 97.01 22.92 95.66 22.68 90.68 22.82 71.72 36.22 49.45 51.24 24.49 64.87 9.81 65.44 9.2 65.95 8.65 66.67 8.36 67.42 8.41 67.83 8.44 71.53 8.75 73.96 11.92 75.81 14.33 76.34 17.58 75.54 21.59 74.6 26.31 71.38 32.03 67.98 38.08 64.04 45.09 59.57 53.04 58.56 59.85 58.5 60.24 58.47 60.56 58.46 60.81 60.82 59.77 65.75 55.7 69.15 52.88 73.75 49.07 78.51 45.14 82.22 43.38 85.66 41.75 92.55 36.67 105.86 21.74 106.78 20.71 108.36 20.62 109.39 21.54 110.42 22.46 110.51 24.04 109.59 25.07 98.46 37.56 89.97 45.24 84.36 47.9 81.21 49.39 76.7 53.13 72.34 56.74 63.72 63.87 59.05 67.51 55.59 65.55 52.89 64.03 53.44 60.33 53.62 59.12 54.76 51.4 59.47 43.02 63.63 35.63 66.83 29.94 69.86 24.56 70.64 20.61 71.14 18.1 70.94 16.21 70.03 15 69.49 14.28 68.75 13.88 68.15 13.66 64.8 17.44 53.01 31.25 40.51 52.03 26.11 75.95 27.96 96.19 27.98 96.39 28.05 97.11 27.81 97.83 27.31 98.36 27.14 98.54 23.08 102.81 14.61 107.79 6.64 112.48 4.01 114.42 3.99 114.44 3.54 114.77 3.02 114.93 2.5 114.93Z" stroke-width="0" fill="#065BAA"/></g></svg>