<svg viewBox="0 0 60 51.74" xmlns="http://www.w3.org/2000/svg" xmlns:xlink="http://www.w3.org/1999/xlink" id="Layer_2" overflow="hidden"><defs></defs><g id="AW"><line x1="54" y1="8.82" x2="59" y2="8.82" stroke="#B4D6F1" stroke-width="2.04082" stroke-linecap="round" stroke-linejoin="miter" stroke-miterlimit="10" stroke-opacity="1" fill="none"/><line x1="48" y1="20.61" x2="59" y2="20.61" stroke="#B4D6F1" stroke-width="2.04082" stroke-linecap="round" stroke-linejoin="miter" stroke-miterlimit="10" stroke-opacity="1" fill="none"/><line x1="42" y1="32.4" x2="59" y2="32.4" stroke="#B4D6F1" stroke-width="2.04082" stroke-linecap="round" stroke-linejoin="miter" stroke-miterlimit="10" stroke-opacity="1" fill="none"/><line x1="36" y1="44.54" x2="59" y2="44.54" stroke="#B4D6F1" stroke-width="2.04082" stroke-linecap="round" stroke-linejoin="miter" stroke-miterlimit="10" stroke-opacity="1" fill="none"/><line x1="1" y1="9.47" x2="6" y2="9.47" stroke="#065BAA" stroke-width="2.04082" stroke-linecap="round" stroke-linejoin="miter" stroke-miterlimit="10" stroke-opacity="1" fill="none"/><line x1="1" y1="21.26" x2="12" y2="21.26" stroke="#065BAA" stroke-width="2.04082" stroke-linecap="round" stroke-linejoin="miter" stroke-miterlimit="10" stroke-opacity="1" fill="none"/><line x1="1" y1="33.05" x2="18" y2="33.05" stroke="#065BAA" stroke-width="2.04082" stroke-linecap="round" stroke-linejoin="miter" stroke-miterlimit="10" stroke-opacity="1" fill="none"/><line x1="54" y1="9.47" x2="59" y2="9.47" stroke="#065BAA" stroke-width="2.04082" stroke-linecap="round" stroke-linejoin="miter" stroke-miterlimit="10" stroke-opacity="1" fill="none"/><line x1="48" y1="21.26" x2="59" y2="21.26" stroke="#065BAA" stroke-width="2.04082" stroke-linecap="round" stroke-linejoin="miter" stroke-miterlimit="10" stroke-opacity="1" fill="none"/><line x1="42" y1="33.05" x2="59" y2="33.05" stroke="#065BAA" stroke-width="2.04082" stroke-linecap="round" stroke-linejoin="miter" stroke-miterlimit="10" stroke-opacity="1" fill="none"/><line x1="1" y1="45.03" x2="23" y2="45.03" stroke="#065BAA" stroke-width="2.04082" stroke-linecap="round" stroke-linejoin="miter" stroke-miterlimit="10" stroke-opacity="1" fill="none"/><line x1="36" y1="45.18" x2="59" y2="45.18" stroke="#065BAA" stroke-width="2.04082" stroke-linecap="round" stroke-linejoin="miter" stroke-miterlimit="10" stroke-opacity="1" fill="none"/><g><circle cx="19.84" cy="2.82" r="1.82" stroke="#40B4E5" stroke-width="2.04082" stroke-linecap="round" stroke-linejoin="miter" stroke-miterlimit="10" stroke-opacity="1" fill="none"/><circle cx="14.7" cy="2.82" r="1.82" stroke="#40B4E5" stroke-width="2.04082" stroke-linecap="round" stroke-linejoin="miter" stroke-miterlimit="10" stroke-opacity="1" fill="none"/><circle cx="24.98" cy="2.82" r="1.82" stroke="#40B4E5" stroke-width="2.04082" stroke-linecap="round" stroke-linejoin="miter" stroke-miterlimit="10" stroke-opacity="1" fill="none"/><circle cx="30.12" cy="2.82" r="1.82" stroke="#40B4E5" stroke-width="2.04082" stroke-linecap="round" stroke-linejoin="miter" stroke-miterlimit="10" stroke-opacity="1" fill="none"/><circle cx="35.27" cy="2.82" r="1.82" stroke="#40B4E5" stroke-width="2.04082" stroke-linecap="round" stroke-linejoin="miter" stroke-miterlimit="10" stroke-opacity="1" fill="none"/><circle cx="9.55" cy="2.82" r="1.82" stroke="#40B4E5" stroke-width="2.04082" stroke-linecap="round" stroke-linejoin="miter" stroke-miterlimit="10" stroke-opacity="1" fill="none"/><circle cx="11.27" cy="6.66" r="1.82" stroke="#40B4E5" stroke-width="2.04082" stroke-linecap="round" stroke-linejoin="miter" stroke-miterlimit="10" stroke-opacity="1" fill="none"/><circle cx="12.98" cy="10.5" r="1.82" stroke="#40B4E5" stroke-width="2.04082" stroke-linecap="round" stroke-linejoin="miter" stroke-miterlimit="10" stroke-opacity="1" fill="none"/><circle cx="14.7" cy="14.34" r="1.82" stroke="#40B4E5" stroke-width="2.04082" stroke-linecap="round" stroke-linejoin="miter" stroke-miterlimit="10" stroke-opacity="1" fill="none"/><circle cx="16.41" cy="18.18" r="1.82" stroke="#40B4E5" stroke-width="2.04082" stroke-linecap="round" stroke-linejoin="miter" stroke-miterlimit="10" stroke-opacity="1" fill="none"/><circle cx="18.12" cy="22.02" r="1.82" stroke="#40B4E5" stroke-width="2.04082" stroke-linecap="round" stroke-linejoin="miter" stroke-miterlimit="10" stroke-opacity="1" fill="none"/><circle cx="19.84" cy="25.86" r="1.82" stroke="#40B4E5" stroke-width="2.04082" stroke-linecap="round" stroke-linejoin="miter" stroke-miterlimit="10" stroke-opacity="1" fill="none"/><circle cx="21.55" cy="29.7" r="1.82" stroke="#40B4E5" stroke-width="2.04082" stroke-linecap="round" stroke-linejoin="miter" stroke-miterlimit="10" stroke-opacity="1" fill="none"/><circle cx="23.27" cy="33.54" r="1.82" stroke="#40B4E5" stroke-width="2.04082" stroke-linecap="round" stroke-linejoin="miter" stroke-miterlimit="10" stroke-opacity="1" fill="none"/><circle cx="24.98" cy="37.38" r="1.82" stroke="#40B4E5" stroke-width="2.04082" stroke-linecap="round" stroke-linejoin="miter" stroke-miterlimit="10" stroke-opacity="1" fill="none"/><circle cx="24.98" cy="37.38" r="1.82" stroke="#40B4E5" stroke-width="2.04082" stroke-linecap="round" stroke-linejoin="miter" stroke-miterlimit="10" stroke-opacity="1" fill="none"/><circle cx="21.55" cy="29.7" r="1.82" stroke="#40B4E5" stroke-width="2.04082" stroke-linecap="round" stroke-linejoin="miter" stroke-miterlimit="10" stroke-opacity="1" fill="none"/><circle cx="24.98" cy="37.38" r="1.82" stroke="#40B4E5" stroke-width="2.04082" stroke-linecap="round" stroke-linejoin="miter" stroke-miterlimit="10" stroke-opacity="1" fill="none"/><circle cx="24.98" cy="37.38" r="1.82" stroke="#40B4E5" stroke-width="2.04082" stroke-linecap="round" stroke-linejoin="miter" stroke-miterlimit="10" stroke-opacity="1" fill="none"/><circle cx="24.96" cy="37.39" r="1.82" stroke="#40B4E5" stroke-width="2.04082" stroke-linecap="round" stroke-linejoin="miter" stroke-miterlimit="10" stroke-opacity="1" fill="none"/><circle cx="26.67" cy="41.22" r="1.82" stroke="#40B4E5" stroke-width="2.04082" stroke-linecap="round" stroke-linejoin="miter" stroke-miterlimit="10" stroke-opacity="1" fill="none"/><circle cx="24.96" cy="37.39" r="1.82" stroke="#40B4E5" stroke-width="2.04082" stroke-linecap="round" stroke-linejoin="miter" stroke-miterlimit="10" stroke-opacity="1" fill="none"/><circle cx="26.67" cy="41.22" r="1.82" stroke="#40B4E5" stroke-width="2.04082" stroke-linecap="round" stroke-linejoin="miter" stroke-miterlimit="10" stroke-opacity="1" fill="none"/><circle cx="40.41" cy="2.82" r="1.82" stroke="#40B4E5" stroke-width="2.04082" stroke-linecap="round" stroke-linejoin="miter" stroke-miterlimit="10" stroke-opacity="1" fill="none"/><circle cx="45.52" cy="2.82" r="1.82" stroke="#40B4E5" stroke-width="2.04082" stroke-linecap="round" stroke-linejoin="miter" stroke-miterlimit="10" stroke-opacity="1" fill="none"/><circle cx="35.02" cy="37.38" r="1.82" stroke="#40B4E5" stroke-width="2.04082" stroke-linecap="round" stroke-linejoin="miter" stroke-miterlimit="10" stroke-opacity="1" fill="none"/><circle cx="35.02" cy="37.38" r="1.82" stroke="#40B4E5" stroke-width="2.04082" stroke-linecap="round" stroke-linejoin="miter" stroke-miterlimit="10" stroke-opacity="1" fill="none"/><circle cx="36.73" cy="33.54" r="1.82" stroke="#40B4E5" stroke-width="2.04082" stroke-linecap="round" stroke-linejoin="miter" stroke-miterlimit="10" stroke-opacity="1" fill="none"/><circle cx="38.45" cy="29.7" r="1.82" stroke="#40B4E5" stroke-width="2.04082" stroke-linecap="round" stroke-linejoin="miter" stroke-miterlimit="10" stroke-opacity="1" fill="none"/><circle cx="40.16" cy="25.86" r="1.82" stroke="#40B4E5" stroke-width="2.04082" stroke-linecap="round" stroke-linejoin="miter" stroke-miterlimit="10" stroke-opacity="1" fill="none"/><circle cx="41.88" cy="22.02" r="1.82" stroke="#40B4E5" stroke-width="2.04082" stroke-linecap="round" stroke-linejoin="miter" stroke-miterlimit="10" stroke-opacity="1" fill="none"/><circle cx="43.59" cy="18.18" r="1.82" stroke="#40B4E5" stroke-width="2.04082" stroke-linecap="round" stroke-linejoin="miter" stroke-miterlimit="10" stroke-opacity="1" fill="none"/><circle cx="45.3" cy="14.34" r="1.82" stroke="#40B4E5" stroke-width="2.04082" stroke-linecap="round" stroke-linejoin="miter" stroke-miterlimit="10" stroke-opacity="1" fill="none"/><circle cx="48.73" cy="6.66" r="1.82" stroke="#40B4E5" stroke-width="2.04082" stroke-linecap="round" stroke-linejoin="miter" stroke-miterlimit="10" stroke-opacity="1" fill="none"/><circle cx="50.45" cy="2.82" r="1.82" stroke="#40B4E5" stroke-width="2.04082" stroke-linecap="round" stroke-linejoin="miter" stroke-miterlimit="10" stroke-opacity="1" fill="none"/><circle cx="35.02" cy="37.38" r="1.82" stroke="#40B4E5" stroke-width="2.04082" stroke-linecap="round" stroke-linejoin="miter" stroke-miterlimit="10" stroke-opacity="1" fill="none"/><circle cx="48.73" cy="6.66" r="1.82" stroke="#40B4E5" stroke-width="2.04082" stroke-linecap="round" stroke-linejoin="miter" stroke-miterlimit="10" stroke-opacity="1" fill="none"/><circle cx="50.45" cy="2.82" r="1.82" stroke="#40B4E5" stroke-width="2.04082" stroke-linecap="round" stroke-linejoin="miter" stroke-miterlimit="10" stroke-opacity="1" fill="none"/><circle cx="18.56" cy="8.46" r="1.82" stroke="#40B4E5" stroke-width="2.04082" stroke-linecap="round" stroke-linejoin="miter" stroke-miterlimit="10" stroke-opacity="1" fill="none"/><circle cx="30.06" cy="16.14" r="1.82" stroke="#40B4E5" stroke-width="2.04082" stroke-linecap="round" stroke-linejoin="miter" stroke-miterlimit="10" stroke-opacity="1" fill="none"/><circle cx="24.87" cy="9.16" r="1.82" stroke="#40B4E5" stroke-width="2.04082" stroke-linecap="round" stroke-linejoin="miter" stroke-miterlimit="10" stroke-opacity="1" fill="none"/><circle cx="21.11" cy="13.97" r="1.82" stroke="#40B4E5" stroke-width="2.04082" stroke-linecap="round" stroke-linejoin="miter" stroke-miterlimit="10" stroke-opacity="1" fill="none"/><circle cx="31.19" cy="8.58" r="1.82" stroke="#40B4E5" stroke-width="2.04082" stroke-linecap="round" stroke-linejoin="miter" stroke-miterlimit="10" stroke-opacity="1" fill="none"/><circle cx="24.22" cy="19.03" r="1.82" stroke="#40B4E5" stroke-width="2.04082" stroke-linecap="round" stroke-linejoin="miter" stroke-miterlimit="10" stroke-opacity="1" fill="none"/><circle cx="25.12" cy="25.03" r="1.82" stroke="#40B4E5" stroke-width="2.04082" stroke-linecap="round" stroke-linejoin="miter" stroke-miterlimit="10" stroke-opacity="1" fill="none"/><circle cx="29.87" cy="48.92" r="1.82" stroke="#40B4E5" stroke-width="2.04082" stroke-linecap="round" stroke-linejoin="miter" stroke-miterlimit="10" stroke-opacity="1" fill="none"/><circle cx="33.3" cy="41.24" r="1.82" stroke="#40B4E5" stroke-width="2.04082" stroke-linecap="round" stroke-linejoin="miter" stroke-miterlimit="10" stroke-opacity="1" fill="none"/><circle cx="29.18" cy="35.43" r="1.82" stroke="#40B4E5" stroke-width="2.04082" stroke-linecap="round" stroke-linejoin="miter" stroke-miterlimit="10" stroke-opacity="1" fill="none"/><circle cx="31.22" cy="29.45" r="1.82" stroke="#40B4E5" stroke-width="2.04082" stroke-linecap="round" stroke-linejoin="miter" stroke-miterlimit="10" stroke-opacity="1" fill="none"/><circle cx="32.58" cy="23.52" r="1.82" stroke="#40B4E5" stroke-width="2.04082" stroke-linecap="round" stroke-linejoin="miter" stroke-miterlimit="10" stroke-opacity="1" fill="none"/><circle cx="41.37" cy="8.48" r="1.82" stroke="#40B4E5" stroke-width="2.04082" stroke-linecap="round" stroke-linejoin="miter" stroke-miterlimit="10" stroke-opacity="1" fill="none"/><circle cx="36.36" cy="12.34" r="1.82" stroke="#40B4E5" stroke-width="2.04082" stroke-linecap="round" stroke-linejoin="miter" stroke-miterlimit="10" stroke-opacity="1" fill="none"/><circle cx="36.4" cy="18.67" r="1.82" stroke="#40B4E5" stroke-width="2.04082" stroke-linecap="round" stroke-linejoin="miter" stroke-miterlimit="10" stroke-opacity="1" fill="none"/><path d="M34.21 44.09C33.94 43.39 33.41 42.83 32.73 42.52 32.04 42.21 31.28 42.19 30.57 42.46 30.36 42.54 30.17 42.65 29.99 42.77 29.8 42.64 29.6 42.52 29.39 42.44 28.69 42.17 27.92 42.19 27.23 42.5 26.54 42.81 26.02 43.36 25.75 44.07 25.48 44.77 25.5 45.54 25.81 46.23 26.12 46.92 26.67 47.44 27.38 47.71 27.71 47.83 28.05 47.9 28.39 47.9 28.78 47.9 29.17 47.82 29.54 47.65 29.69 47.58 29.84 47.5 29.97 47.4 30.12 47.5 30.27 47.59 30.44 47.67 30.81 47.84 31.2 47.92 31.58 47.92 32.66 47.92 33.69 47.3 34.16 46.25 34.47 45.56 34.49 44.8 34.22 44.09ZM29.15 45.37C29.09 45.52 28.98 45.64 28.85 45.73 28.81 45.76 28.77 45.8 28.72 45.82 28.52 45.91 28.3 45.92 28.09 45.84 27.89 45.76 27.72 45.61 27.64 45.41 27.55 45.21 27.54 44.99 27.62 44.78 27.7 44.57 27.85 44.41 28.05 44.33 28.16 44.28 28.27 44.26 28.38 44.26 28.55 44.26 28.71 44.32 28.85 44.41 28.97 44.49 29.07 44.6 29.13 44.74 29.22 44.94 29.23 45.16 29.15 45.36ZM32.33 45.43C32.15 45.84 31.66 46.03 31.25 45.84 31.2 45.82 31.16 45.78 31.11 45.74 30.98 45.65 30.88 45.53 30.82 45.38 30.74 45.18 30.75 44.95 30.84 44.75 30.9 44.61 31.01 44.49 31.13 44.41 31.27 44.32 31.43 44.26 31.59 44.26 31.7 44.26 31.81 44.28 31.92 44.33 32.12 44.42 32.27 44.58 32.35 44.78 32.43 44.98 32.42 45.21 32.33 45.41Z" stroke-width="2.04082" stroke-linecap="round" stroke-linejoin="miter" stroke-miterlimit="10" stroke-opacity="1" fill="#40B4E5"/></g></g></svg>