<svg viewBox="0 0 59 59" xmlns="http://www.w3.org/2000/svg" xmlns:xlink="http://www.w3.org/1999/xlink" id="Layer_2" overflow="hidden"><defs></defs><g id="AW"><circle cx="35.87" cy="15.57" r="5.95" stroke="#40B4E5" stroke-width="2.18519" stroke-linejoin="miter" stroke-miterlimit="10" stroke-opacity="1" fill="none"/><line x1="26.81" y1="24.62" x2="31.33" y2="20.11" stroke="#40B4E5" stroke-width="2.18519" stroke-linecap="round" stroke-linejoin="miter" stroke-miterlimit="10" stroke-opacity="1" fill="none"/><path d="M23.78 34.51 21.77 34.02C21.65 33.64 21.49 33.27 21.31 32.92 21.61 32.42 22.25 31.36 22.25 31.36 22.37 31.16 22.34 30.9 22.17 30.73L20.72 29.28C20.55 29.11 20.3 29.08 20.09 29.2L18.53 30.14C18.18 29.95 17.81 29.8 17.43 29.68L16.94 27.67C16.88 27.44 16.68 27.28 16.44 27.28L14.38 27.28C14.14 27.28 13.94 27.44 13.88 27.67 13.88 27.67 13.54 29.07 13.39 29.68 12.99 29.81 12.6 29.97 12.22 30.18L10.6 29.21C10.4 29.09 10.14 29.12 9.97 29.29L8.52 30.74C8.35 30.91 8.32 31.17 8.44 31.37L9.44 33.04C9.28 33.36 9.14 33.69 9.04 34.03L7.03 34.53C6.8 34.59 6.64 34.79 6.64 35.03L6.64 37.09C6.64 37.33 6.8 37.53 7.03 37.59L9.04 38.08C9.16 38.47 9.32 38.84 9.51 39.2L8.61 40.7C8.49 40.9 8.52 41.16 8.69 41.33L10.14 42.78C10.31 42.95 10.56 42.98 10.77 42.86 10.77 42.86 11.78 42.26 12.27 41.96 12.63 42.15 13 42.31 13.38 42.43L13.87 44.44C13.93 44.67 14.13 44.83 14.37 44.83L16.43 44.83C16.67 44.83 16.87 44.67 16.93 44.44L17.42 42.43C17.82 42.3 18.2 42.14 18.56 41.95 19.07 42.25 20.08 42.86 20.08 42.86 20.28 42.98 20.54 42.95 20.71 42.78L22.16 41.33C22.33 41.16 22.36 40.9 22.24 40.7L21.32 39.16C21.5 38.81 21.65 38.45 21.77 38.08L23.78 37.59C24.01 37.53 24.17 37.33 24.17 37.09L24.17 35.03C24.17 34.79 24.01 34.59 23.78 34.53Z" stroke="#40B4E5" stroke-width="2.18519" stroke-linejoin="miter" stroke-miterlimit="10" stroke-opacity="1" fill="none"/><circle cx="15.4" cy="36.03" r="2.72" stroke="#40B4E5" stroke-width="2.18519" stroke-linejoin="miter" stroke-miterlimit="10" stroke-opacity="1" fill="none"/><path d="M35.6 40.24C35.17 41.29 34.96 42.41 34.96 43.53 34.96 44.65 35.17 45.77 35.6 46.82 36.03 47.87 36.67 48.86 37.52 49.72 38.37 50.58 39.36 51.22 40.42 51.64 41.48 52.06 42.59 52.28 43.71 52.28 44.83 52.28 45.95 52.07 47 51.64 48.05 51.21 49.04 50.57 49.9 49.72 50.76 48.87 51.4 47.88 51.82 46.82 52.24 45.76 52.46 44.65 52.46 43.53 52.46 42.41 52.25 41.29 51.82 40.24 51.39 39.19 50.75 38.2 49.9 37.34 49.05 36.48 48.06 35.84 47 35.42 45.94 35 44.83 34.78 43.71 34.78 42.59 34.78 41.47 34.99 40.42 35.42" stroke="#40B4E5" stroke-width="2.18519" stroke-linecap="round" stroke-linejoin="miter" stroke-miterlimit="10" stroke-opacity="1" fill="none"/><path d="M39.06 45.43C39.31 46.03 39.67 46.6 40.16 47.09 40.65 47.58 41.22 47.95 41.82 48.19 42.42 48.43 43.07 48.56 43.71 48.56 44.35 48.56 45 48.44 45.6 48.19 46.2 47.94 46.77 47.58 47.26 47.09 47.75 46.6 48.12 46.03 48.36 45.43 48.6 44.83 48.73 44.18 48.73 43.54 48.73 42.9 48.61 42.25 48.36 41.65 48.11 41.05 47.75 40.48 47.26 39.99 46.77 39.5 46.2 39.13 45.6 38.89" stroke="#40B4E5" stroke-width="2.18519" stroke-linecap="round" stroke-linejoin="miter" stroke-miterlimit="10" stroke-opacity="1" fill="none"/><line x1="42.63" y1="42.32" x2="36.32" y2="36.01" stroke="#FFFFFF" stroke-width="2.18519" stroke-linecap="round" stroke-linejoin="miter" stroke-miterlimit="10" stroke-opacity="1" fill="none"/><path d="M43.49 40.54 43.49 43.25 40.79 43.25" stroke="#FFFFFF" stroke-width="2.18519" stroke-linecap="round" stroke-linejoin="miter" stroke-miterlimit="10" stroke-opacity="1" fill="none"/><path d="M50.28 12.99C50.23 12.69 50.16 12.4 50.09 12.11 50.06 11.99 50.04 11.87 50.01 11.75 50 11.7 49.98 11.66 49.97 11.61 49.88 11.29 49.77 10.97 49.66 10.66 49.61 10.52 49.57 10.38 49.51 10.24 49.48 10.18 49.47 10.11 49.44 10.04 49.35 9.81 49.23 9.59 49.13 9.36 49.06 9.21 48.99 9.05 48.92 8.91 48.79 8.66 48.65 8.42 48.51 8.18 48.41 8 48.31 7.82 48.19 7.64 48.06 7.44 47.92 7.26 47.79 7.07 47.68 6.91 47.57 6.74 47.45 6.59 47.42 6.55 47.38 6.51 47.34 6.47 47.21 6.31 47.07 6.15 46.93 5.99 46.75 5.78 46.57 5.58 46.38 5.38 46.34 5.34 46.3 5.29 46.25 5.24 46.13 5.12 46.01 5.03 45.89 4.92 45.71 4.75 45.53 4.58 45.34 4.42 45.14 4.25 44.92 4.09 44.71 3.93 44.56 3.81 44.4 3.7 44.24 3.59 43.99 3.42 43.73 3.26 43.48 3.1 43.4 3.05 43.32 2.99 43.24 2.95 43.19 2.92 43.13 2.9 43.08 2.87 42.8 2.71 42.52 2.57 42.23 2.43 42.1 2.37 41.96 2.3 41.82 2.24 41.69 2.18 41.57 2.12 41.44 2.07 41.28 2.01 41.12 1.96 40.95 1.9 40.79 1.84 40.64 1.79 40.48 1.74 40.21 1.65 39.93 1.57 39.66 1.5 39.47 1.45 39.28 1.4 39.09 1.36 38.84 1.3 38.58 1.26 38.33 1.22 38.21 1.2 38.09 1.17 37.97 1.15 37.87 1.14 37.77 1.14 37.68 1.12 37.44 1.09 37.2 1.07 36.96 1.06 36.73 1.04 36.51 1.03 36.28 1.03 36.18 1.03 36.08 1.02 35.99 1.02 35.84 1.02 35.69 1.04 35.54 1.04 35.33 1.04 35.12 1.05 34.9 1.07 34.61 1.09 34.33 1.13 34.04 1.16 33.87 1.18 33.69 1.2 33.52 1.24 33.18 1.3 32.85 1.37 32.51 1.46 32.42 1.48 32.33 1.49 32.24 1.52 32.2 1.52 32.17 1.54 32.14 1.55 31.78 1.65 31.42 1.77 31.07 1.89 30.97 1.93 30.86 1.96 30.76 2 30.69 2.03 30.61 2.05 30.54 2.08 30.28 2.18 30.04 2.31 29.79 2.43 29.67 2.49 29.54 2.54 29.43 2.6 29.16 2.74 28.9 2.89 28.63 3.05 28.47 3.14 28.31 3.23 28.16 3.33 27.95 3.47 27.75 3.62 27.54 3.76 27.39 3.87 27.23 3.97 27.09 4.08 27.05 4.11 27.01 4.15 26.97 4.18 26.8 4.31 26.64 4.46 26.48 4.6 26.28 4.78 26.07 4.95 25.88 5.14 25.84 5.18 25.79 5.22 25.74 5.26 25.63 5.37 25.53 5.5 25.42 5.62 25.25 5.8 25.08 5.99 24.92 6.18 24.75 6.38 24.6 6.58 24.44 6.79 24.32 6.95 24.19 7.11 24.08 7.28 23.92 7.52 23.76 7.76 23.61 8.01 23.56 8.1 23.49 8.19 23.44 8.28 23.41 8.34 23.38 8.4 23.35 8.46 23.2 8.72 23.07 8.98 22.94 9.25 22.87 9.41 22.79 9.56 22.72 9.72 22.67 9.84 22.61 9.95 22.56 10.06 22.5 10.21 22.46 10.36 22.4 10.5 22.33 10.68 22.27 10.87 22.21 11.05 22.13 11.29 22.06 11.53 22 11.78 21.94 12 21.89 12.22 21.84 12.45 21.79 12.67 21.75 12.88 21.72 13.1 21.7 13.24 21.66 13.38 21.64 13.52L21.64 13.57C21.57 14.22 21.51 14.86 21.51 15.51 21.51 17.02 21.75 18.54 22.22 19.99 22.42 20.62 22.24 21.31 21.77 21.77 21.35 22.19 20.75 22.37 20.17 22.25L19.26 22.01C19.26 22.01 19.17 21.99 19.13 21.98 18.74 21.88 18.34 21.79 17.95 21.73 17.9 21.73 17.84 21.71 17.79 21.7 17.37 21.63 16.95 21.59 16.52 21.56 16.34 21.55 16.16 21.54 15.98 21.54 15.82 21.54 15.67 21.52 15.51 21.52 15.43 21.52 15.35 21.52 15.28 21.53 15.01 21.53 14.73 21.55 14.46 21.57 14.26 21.58 14.07 21.6 13.87 21.62 13.75 21.63 13.64 21.64 13.52 21.65 13.38 21.67 13.24 21.71 13.1 21.73 12.88 21.77 12.67 21.81 12.45 21.85 12.23 21.9 12 21.95 11.78 22.01 11.54 22.07 11.29 22.14 11.05 22.22 10.86 22.28 10.68 22.35 10.5 22.41 10.35 22.46 10.2 22.51 10.06 22.57 9.94 22.62 9.83 22.68 9.72 22.73 9.56 22.8 9.41 22.87 9.25 22.95 8.98 23.08 8.72 23.21 8.46 23.36 8.4 23.39 8.34 23.42 8.28 23.45 8.19 23.5 8.1 23.57 8.01 23.62 7.76 23.77 7.52 23.92 7.28 24.09 7.11 24.21 6.95 24.33 6.79 24.45 6.59 24.61 6.38 24.76 6.18 24.93 5.99 25.09 5.81 25.26 5.62 25.43 5.5 25.54 5.38 25.64 5.26 25.75 5.22 25.79 5.18 25.84 5.14 25.89 4.95 26.08 4.78 26.29 4.6 26.49 4.46 26.65 4.31 26.81 4.18 26.98 4.15 27.02 4.11 27.06 4.08 27.1 3.97 27.25 3.87 27.4 3.76 27.55 3.61 27.75 3.46 27.96 3.33 28.17 3.23 28.32 3.14 28.48 3.05 28.64 2.89 28.9 2.74 29.17 2.6 29.44 2.54 29.56 2.49 29.68 2.43 29.8 2.31 30.05 2.18 30.3 2.08 30.55 2.05 30.62 2.03 30.7 2 30.77 1.96 30.87 1.93 30.98 1.89 31.08 1.76 31.43 1.64 31.79 1.54 32.15 1.54 32.19 1.52 32.22 1.51 32.25 1.49 32.34 1.47 32.43 1.45 32.52 1.37 32.85 1.29 33.19 1.23 33.53 1.2 33.7 1.18 33.88 1.15 34.05 1.11 34.33 1.08 34.62 1.06 34.9 1.04 35.11 1.04 35.33 1.03 35.54 1.03 35.69 1.01 35.84 1.01 35.99 1.01 36.09 1.02 36.19 1.02 36.28 1.02 36.51 1.04 36.74 1.05 36.96 1.07 37.2 1.09 37.44 1.11 37.68 1.12 37.78 1.12 37.88 1.14 37.97 1.16 38.09 1.19 38.21 1.21 38.33 1.25 38.58 1.3 38.84 1.35 39.09 1.39 39.28 1.44 39.47 1.49 39.66 1.56 39.94 1.64 40.21 1.73 40.48 1.78 40.64 1.84 40.79 1.89 40.95 1.95 41.11 2 41.28 2.06 41.44 2.11 41.57 2.18 41.69 2.23 41.82 2.29 41.96 2.35 42.09 2.42 42.23 2.56 42.52 2.7 42.8 2.86 43.08 2.89 43.13 2.91 43.19 2.94 43.24 2.99 43.32 3.04 43.4 3.09 43.48 3.25 43.74 3.41 43.99 3.58 44.24 3.69 44.4 3.81 44.55 3.92 44.71 4.08 44.92 4.24 45.13 4.41 45.34 4.57 45.53 4.74 45.71 4.91 45.89 5.02 46.01 5.12 46.13 5.24 46.25 5.28 46.29 5.33 46.33 5.38 46.38 5.57 46.57 5.78 46.75 5.99 46.93 6.15 47.07 6.3 47.21 6.47 47.34 6.51 47.37 6.55 47.41 6.59 47.45 6.74 47.57 6.91 47.67 7.07 47.79 7.26 47.93 7.45 48.07 7.64 48.19 7.81 48.3 8 48.4 8.18 48.51 8.42 48.65 8.66 48.79 8.91 48.92 9.06 49 9.21 49.06 9.36 49.13 9.59 49.24 9.81 49.35 10.04 49.44 10.1 49.47 10.17 49.48 10.24 49.51 10.38 49.56 10.52 49.61 10.66 49.66 10.98 49.77 11.29 49.88 11.61 49.97 11.66 49.98 11.7 50 11.75 50.01 11.87 50.04 11.99 50.06 12.11 50.09 12.4 50.16 12.7 50.23 12.99 50.28 13.21 50.32 13.42 50.35 13.64 50.37 13.88 50.4 14.12 50.43 14.36 50.45 14.62 50.47 14.88 50.48 15.14 50.49 15.26 50.49 15.38 50.51 15.5 50.51 15.58 50.51 15.66 50.51 15.74 50.5 16.02 50.5 16.3 50.48 16.57 50.46 16.76 50.45 16.95 50.43 17.13 50.41 17.25 50.4 17.37 50.39 17.49 50.38 17.64 50.36 17.79 50.32 17.94 50.3 18.14 50.27 18.34 50.23 18.53 50.19 18.78 50.14 19.02 50.08 19.26 50.01 19.48 49.95 19.7 49.89 19.91 49.82 20.13 49.75 20.34 49.67 20.55 49.6 20.68 49.55 20.81 49.52 20.94 49.46 21.04 49.42 21.14 49.36 21.24 49.32 21.44 49.23 21.63 49.14 21.82 49.05 22.05 48.94 22.27 48.82 22.5 48.7 22.58 48.66 22.66 48.62 22.74 48.58 22.89 48.49 23.04 48.39 23.19 48.3 23.32 48.22 23.44 48.15 23.57 48.06 24.32 47.55 25.03 46.98 25.68 46.33 25.7 46.31 25.72 46.29 25.74 46.27L26.38 45.63C26.82 45.22 27.44 45.07 28.03 45.23 28.67 45.4 29.17 45.9 29.31 46.55 29.63 48.04 30.18 49.47 30.94 50.78 31.26 51.34 31.64 51.87 32.03 52.38L32.05 52.44C32.16 52.59 32.29 52.72 32.41 52.86 32.5 52.97 32.6 53.08 32.69 53.19 32.9 53.42 33.11 53.64 33.33 53.86 33.45 53.98 33.58 54.1 33.71 54.22 33.92 54.41 34.13 54.59 34.34 54.76 34.43 54.83 34.5 54.91 34.59 54.98 34.66 55.03 34.74 55.08 34.81 55.13 35.02 55.29 35.23 55.43 35.45 55.58 35.62 55.7 35.8 55.81 35.98 55.92 36.07 55.97 36.15 56.04 36.25 56.09 36.39 56.17 36.54 56.24 36.68 56.31 36.85 56.4 37.03 56.49 37.2 56.58 37.47 56.71 37.75 56.83 38.04 56.95 38.19 57.01 38.33 57.07 38.48 57.13 38.82 57.26 39.16 57.36 39.51 57.46 39.59 57.48 39.66 57.51 39.74 57.54 39.77 57.54 39.8 57.55 39.83 57.56 40.21 57.66 40.59 57.74 40.97 57.81 41.07 57.83 41.16 57.85 41.26 57.86 41.34 57.87 41.42 57.89 41.49 57.9 41.77 57.94 42.06 57.95 42.35 57.98 42.47 57.98 42.59 58.01 42.71 58.01 43.02 58.03 43.34 58.02 43.65 58.01 43.82 58.01 44 58.01 44.17 58.01 44.42 58 44.68 57.97 44.94 57.94 45.12 57.92 45.3 57.92 45.48 57.89 45.53 57.89 45.58 57.87 45.63 57.86 45.84 57.83 46.06 57.78 46.27 57.74 46.53 57.69 46.79 57.64 47.05 57.57 47.11 57.55 47.17 57.55 47.23 57.53 47.39 57.49 47.53 57.43 47.69 57.38 47.93 57.31 48.17 57.23 48.41 57.15 48.65 57.06 48.89 56.96 49.12 56.87 49.31 56.79 49.5 56.71 49.69 56.62 49.95 56.5 50.2 56.37 50.44 56.23 50.54 56.18 50.64 56.13 50.73 56.08 50.79 56.04 50.85 56 50.91 55.96 51.16 55.81 51.4 55.65 51.64 55.49 51.79 55.39 51.94 55.28 52.09 55.18 52.19 55.11 52.29 55.04 52.39 54.97 52.51 54.88 52.62 54.77 52.74 54.67 52.9 54.54 53.05 54.41 53.21 54.27 53.39 54.11 53.56 53.94 53.73 53.77 53.9 53.6 54.07 53.43 54.23 53.25 54.37 53.1 54.5 52.94 54.63 52.78 54.73 52.66 54.83 52.56 54.93 52.43 55 52.33 55.07 52.23 55.14 52.13 55.25 51.98 55.35 51.83 55.45 51.68 55.61 51.44 55.77 51.2 55.92 50.95 55.96 50.89 56 50.83 56.04 50.77 56.09 50.68 56.14 50.57 56.19 50.48 56.33 50.23 56.46 49.98 56.58 49.73 56.67 49.54 56.75 49.35 56.83 49.16 56.93 48.93 57.03 48.69 57.11 48.45 57.2 48.21 57.27 47.97 57.34 47.73 57.39 47.58 57.45 47.43 57.49 47.27 57.51 47.21 57.51 47.15 57.53 47.09 57.6 46.83 57.65 46.57 57.7 46.31 57.74 46.09 57.79 45.88 57.82 45.66 57.82 45.61 57.84 45.56 57.85 45.51 57.87 45.33 57.88 45.15 57.9 44.97 57.93 44.71 57.96 44.46 57.97 44.2 57.97 44.03 57.97 43.85 57.97 43.68 57.97 43.36 57.97 43.05 57.97 42.73 57.97 42.61 57.95 42.49 57.94 42.37 57.92 42.08 57.9 41.79 57.86 41.51 57.85 41.43 57.83 41.35 57.82 41.28 57.8 41.18 57.78 41.09 57.77 40.99 57.7 40.61 57.62 40.22 57.53 39.85 57.53 39.82 57.52 39.79 57.51 39.76 57.49 39.68 57.46 39.61 57.43 39.53 57.33 39.18 57.22 38.84 57.1 38.5 57.04 38.35 56.98 38.2 56.92 38.06 56.8 37.78 56.69 37.5 56.55 37.22 56.46 37.04 56.37 36.87 56.28 36.7 56.2 36.56 56.14 36.41 56.06 36.27 56.01 36.18 55.94 36.09 55.89 36 55.78 35.82 55.67 35.64 55.55 35.47 55.41 35.25 55.26 35.04 55.1 34.83 55.05 34.76 55 34.68 54.95 34.61 54.88 34.52 54.8 34.44 54.73 34.36 54.55 34.14 54.37 33.93 54.19 33.73 54.07 33.6 53.95 33.48 53.83 33.35 53.61 33.13 53.39 32.92 53.16 32.71 53.05 32.61 52.94 32.52 52.83 32.43 52.69 32.31 52.56 32.18 52.41 32.07 52.29 31.98 52.17 31.9 52.05 31.81 51.95 31.74 51.84 31.66 51.74 31.59 51.46 31.4 51.18 31.21 50.88 31.04 50.84 31.01 50.79 30.98 50.75 30.96 50.66 30.91 50.56 30.86 50.47 30.81 50.25 30.69 50.03 30.57 49.8 30.46 49.57 30.35 49.33 30.25 49.09 30.15 48.84 30.04 48.58 29.94 48.32 29.85 48.03 29.75 47.73 29.65 47.44 29.56 47.38 29.54 47.32 29.52 47.26 29.5L46.31 29.25C45.77 29.06 45.35 28.61 45.2 28.05 45.04 27.46 45.2 26.84 45.6 26.4L46.24 25.76C46.24 25.76 46.28 25.72 46.3 25.7 46.94 25.05 47.52 24.34 48.03 23.59 48.11 23.47 48.19 23.34 48.27 23.21 48.36 23.06 48.47 22.91 48.55 22.76 48.59 22.68 48.63 22.6 48.67 22.52 48.79 22.3 48.91 22.07 49.02 21.84 49.11 21.65 49.2 21.45 49.29 21.26 49.33 21.16 49.39 21.06 49.43 20.96 49.48 20.83 49.52 20.7 49.57 20.57 49.65 20.36 49.73 20.14 49.79 19.93 49.86 19.71 49.92 19.5 49.98 19.28 50.05 19.04 50.11 18.79 50.16 18.55 50.2 18.35 50.24 18.15 50.27 17.95 50.3 17.8 50.33 17.66 50.35 17.51 50.37 17.39 50.37 17.27 50.38 17.15" stroke="#FFFFFF" stroke-width="2.18519" stroke-linecap="round" stroke-linejoin="miter" stroke-miterlimit="10" stroke-opacity="1" fill="none"/></g></svg>