<svg viewBox="0 0 56.97 59.64" xmlns="http://www.w3.org/2000/svg" xmlns:xlink="http://www.w3.org/1999/xlink" id="Layer_2" overflow="hidden"><defs></defs><g id="AW"><rect x="22.93" y="9.41" rx="1.49" ry="1.49" width="7.64" height="3.23" stroke="#40B4E5" stroke-width="2.05405" stroke-linecap="butt" stroke-linejoin="miter" stroke-miterlimit="10" fill="none" transform="matrix(0.929326 -0.36926 0.36926 0.929326 -2.18 10.65)"/><path d="M31.4 17.68C31.4 19.5 22.89 17.94 22.22 19.52 21.55 21.1 25.86 26.28 24.67 27.48 23.48 28.68 19.06 23.14 17.48 23.81 15.9 24.48 17.16 32.99 15.34 32.99 13.52 32.99 13.55 24.32 11.97 23.66 10.39 23 22.22 24.32 22.22 13.41 22.22 12.72 31.4 15.87 31.4 17.69Z" stroke-width="2.05405" stroke-linecap="butt" stroke-linejoin="miter" fill="#B4D6F1"/><path d="M31.4 17.68C31.4 18.14 30.87 18.38 30.06 18.51 29.25 18.64 28.17 18.67 27.06 18.69 25.95 18.71 24.83 18.72 23.94 18.82 23.05 18.92 22.39 19.12 22.22 19.52 22.05 19.92 22.2 20.53 22.49 21.26 22.78 21.99 23.22 22.82 23.64 23.64 24.06 24.46 24.47 25.27 24.69 25.95 24.91 26.63 24.96 27.18 24.66 27.47 24.36 27.76 23.86 27.65 23.25 27.31 22.64 26.97 21.93 26.41 21.2 25.84 20.47 25.27 19.74 24.67 19.08 24.27 18.42 23.87 17.85 23.64 17.46 23.81 17.07 23.98 16.85 24.63 16.72 25.53 16.59 26.43 16.54 27.55 16.48 28.65 16.42 29.75 16.36 30.84 16.2 31.65 16.04 32.46 15.77 32.99 15.32 32.99 14.87 32.99 14.53 32.45 14.25 31.63 13.97 30.81 13.76 29.7 13.55 28.58 13.34 27.46 13.14 26.31 12.89 25.4 12.64 24.49 12.35 23.83 11.95 23.66 11.55 23.49 10.75 23.87 9.75 24.5 8.75 25.13 7.55 26.03 6.37 26.91 5.19 27.79 4.01 28.66 3.06 29.23 2.11 29.8 1.38 30.07 1.08 29.78 0.78 29.49 1.16 28.81 1.89 27.94 2.62 27.07 3.69 26.02 4.78 24.95 5.87 23.88 6.98 22.8 7.77 21.89 8.56 20.98 9.04 20.23 8.88 19.84 8.72 19.45 8.15 19.12 7.4 18.83 6.65 18.54 5.72 18.28 4.8 18.02 3.88 17.76 2.99 17.48 2.33 17.16 1.67 16.84 1.23 16.47 1.23 16.02 1.23 15.57 1.71 15.31 2.45 15.16 3.19 15.01 4.18 14.97 5.19 14.93 6.2 14.89 7.23 14.87 8.05 14.75 8.87 14.63 9.48 14.42 9.65 14.03 9.82 13.64 9.37 12.94 8.62 12.1 7.87 11.26 6.82 10.27 5.78 9.3 4.74 8.33 3.73 7.36 3.04 6.57 2.35 5.78 2 5.15 2.3 4.85 2.6 4.55 3.26 4.7 4.11 5.09 4.96 5.48 6 6.09 7.05 6.72 8.1 7.35 9.16 8 10.06 8.45 10.96 8.9 11.69 9.15 12.09 8.98 12.49 8.81 12.76 8.23 12.98 7.46 13.2 6.69 13.36 5.71 13.53 4.76 13.7 3.81 13.88 2.88 14.13 2.18 14.38 1.48 14.7 1.03 15.15 1.03 15.6 1.03 15.91 1.5 16.13 2.2 16.35 2.9 16.49 3.86 16.62 4.83 16.75 5.8 16.88 6.79 17.07 7.59 17.26 8.39 17.52 8.97 17.91 9.14 18.3 9.31 18.95 9.05 19.72 8.58 20.49 8.11 21.38 7.45 22.26 6.8 23.14 6.15 24.01 5.51 24.73 5.12 25.45 4.73 26.03 4.56 26.33 4.86 26.63 5.16 26.48 5.74 26.09 6.48 25.7 7.22 25.09 8.1 24.46 9 23.83 9.9 23.18 10.81 22.73 11.59 22.28 12.37 22.03 13.03 22.2 13.43 22.37 13.83 23.02 14.18 23.92 14.51 24.82 14.84 25.94 15.16 27.04 15.48 28.14 15.8 29.23 16.13 30.04 16.5 30.85 16.87 31.38 17.26 31.38 17.72Z" stroke="#065BAA" stroke-width="2.05405" stroke-linecap="butt" stroke-linejoin="miter" stroke-miterlimit="10" fill="none"/><circle cx="15.86" cy="15.92" r="3.82" stroke-width="2.05405" stroke-linecap="butt" stroke-linejoin="miter" fill="#40B4E5"/><rect x="30.37" y="8.89" rx="1.49" ry="1.49" width="9.55" height="3.23" stroke="#40B4E5" stroke-width="2.05405" stroke-linecap="butt" stroke-linejoin="miter" stroke-miterlimit="10" fill="none" transform="matrix(0.983603 0.180347 -0.180347 0.983603 2.47 -6.17)"/><rect x="39.1" y="12.76" rx="1.49" ry="1.49" width="9.55" height="3.23" stroke="#40B4E5" stroke-width="2.05405" stroke-linecap="butt" stroke-linejoin="miter" stroke-miterlimit="10" fill="none" transform="matrix(0.830887 0.556441 -0.556441 0.830887 15.42 -21.98)"/><rect x="45.5" y="19.65" rx="1.49" ry="1.49" width="9.55" height="3.23" stroke="#40B4E5" stroke-width="2.05405" stroke-linecap="butt" stroke-linejoin="miter" stroke-miterlimit="10" fill="none" transform="matrix(0.45927 0.888297 -0.888297 0.45927 46.07 -33.16)"/><rect x="47.82" y="38.64" rx="1.49" ry="1.49" width="9.55" height="3.23" stroke="#40B4E5" stroke-width="2.05405" stroke-linecap="butt" stroke-linejoin="miter" stroke-miterlimit="10" fill="none" transform="matrix(-0.399229 0.916851 -0.916851 -0.399229 110.49 8.1)"/><rect x="8.86" y="53.77" rx="1.49" ry="1.49" width="9.55" height="3.23" stroke="#40B4E5" stroke-width="2.05405" stroke-linecap="butt" stroke-linejoin="miter" stroke-miterlimit="10" fill="none" transform="matrix(0.939154 -0.343496 0.343496 0.939154 -18.19 8.05)"/><rect x="1.27" y="50.62" rx="1.49" ry="1.49" width="9.55" height="3.23" stroke="#40B4E5" stroke-width="2.05405" stroke-linecap="butt" stroke-linejoin="miter" stroke-miterlimit="10" fill="none" transform="matrix(0.540681 0.841228 -0.841228 0.540681 46.71 18.91)"/><rect x="11.52" y="45.76" rx="1.49" ry="1.49" width="9.55" height="3.23" stroke="#40B4E5" stroke-width="2.05405" stroke-linecap="butt" stroke-linejoin="miter" stroke-miterlimit="10" fill="none" transform="matrix(0.45989 0.887976 -0.887976 0.45989 50.87 11.12)"/><rect x="35.87" y="52.88" rx="1.49" ry="1.49" width="9.55" height="3.23" stroke="#40B4E5" stroke-width="2.05405" stroke-linecap="butt" stroke-linejoin="miter" stroke-miterlimit="10" fill="none" transform="matrix(-0.833018 0.553246 -0.553246 -0.833018 104.65 77.41)"/><rect x="26.74" y="55.27" rx="1.49" ry="1.49" width="9.55" height="3.23" stroke="#40B4E5" stroke-width="2.05405" stroke-linecap="butt" stroke-linejoin="miter" stroke-miterlimit="10" fill="none" transform="matrix(-0.999086 0.0427475 -0.0427475 -0.999086 65.44 112.37)"/><rect x="17.72" y="52.84" rx="1.49" ry="1.49" width="9.55" height="3.23" stroke="#40B4E5" stroke-width="2.05405" stroke-linecap="butt" stroke-linejoin="miter" stroke-miterlimit="10" fill="none" transform="matrix(-0.862249 -0.506485 0.506485 -0.862249 14.31 112.81)"/><circle cx="39.09" cy="15.2" r="1.82" stroke="#065BAA" stroke-width="2.05405" stroke-linecap="butt" stroke-linejoin="miter" stroke-miterlimit="10" fill="none"/><circle cx="43.17" cy="18.73" r="1.82" stroke="#065BAA" stroke-width="2.05405" stroke-linecap="butt" stroke-linejoin="miter" stroke-miterlimit="10" fill="none"/><circle cx="46.71" cy="22.2" r="1.82" stroke="#065BAA" stroke-width="2.05405" stroke-linecap="butt" stroke-linejoin="miter" stroke-miterlimit="10" fill="none"/><circle cx="38.5" cy="19.94" r="2.27" stroke="#065BAA" stroke-width="2.05405" stroke-linecap="butt" stroke-linejoin="miter" stroke-miterlimit="10" fill="none"/><path d="M39.08 23.34C39.17 22.63 39.53 21.95 40.14 21.48 40.75 21.01 41.5 20.83 42.21 20.92 42.92 21.01 43.6 21.37 44.07 21.98 44.54 22.59 44.72 23.34 44.63 24.05 44.54 24.76 44.18 25.44 43.57 25.91 42.96 26.38 42.21 26.56 41.5 26.47" stroke="#065BAA" stroke-width="2.05405" stroke-linecap="butt" stroke-linejoin="miter" stroke-miterlimit="10" fill="none"/><rect x="49.08" y="28.42" rx="1.49" ry="1.49" width="9.55" height="3.23" stroke="#40B4E5" stroke-width="2.05405" stroke-linecap="butt" stroke-linejoin="miter" stroke-miterlimit="10" fill="none" transform="matrix(0.153331 0.988175 -0.988175 0.153331 75.27 -27.79)"/><circle cx="50.7" cy="9.34" r="1.63" stroke="#065BAA" stroke-width="2.05405" stroke-linecap="butt" stroke-linejoin="miter" stroke-miterlimit="10" fill="none"/><circle cx="41.86" cy="9.46" r="1.63" stroke="#065BAA" stroke-width="2.05405" stroke-linecap="butt" stroke-linejoin="miter" stroke-miterlimit="10" fill="none"/><circle cx="46.78" cy="8.02" r="1.63" stroke="#065BAA" stroke-width="2.05405" stroke-linecap="butt" stroke-linejoin="miter" stroke-miterlimit="10" fill="none"/><circle cx="50.85" cy="13.86" r="2.32" stroke="#065BAA" stroke-width="2.05405" stroke-linecap="butt" stroke-linejoin="miter" stroke-miterlimit="10" fill="none"/><circle cx="52.13" cy="17.89" r="1.63" stroke="#065BAA" stroke-width="2.05405" stroke-linecap="butt" stroke-linejoin="miter" stroke-miterlimit="10" fill="none"/><circle cx="46.22" cy="12" r="1.63" stroke="#065BAA" stroke-width="2.05405" stroke-linecap="butt" stroke-linejoin="miter" stroke-miterlimit="10" fill="none"/><rect x="43.26" y="46.96" rx="1.49" ry="1.49" width="9.55" height="3.23" stroke="#40B4E5" stroke-width="2.05405" stroke-linecap="butt" stroke-linejoin="miter" stroke-miterlimit="10" fill="none" transform="matrix(-0.636886 0.770958 -0.770958 -0.636886 116.08 42.48)"/><rect x="35.49" y="46.64" rx="1.49" ry="1.49" width="9.55" height="3.23" stroke="#40B4E5" stroke-width="2.05405" stroke-linecap="butt" stroke-linejoin="miter" stroke-miterlimit="10" fill="none" transform="matrix(-0.957973 -0.286859 0.286859 -0.957973 64.99 106.03)"/></g></svg>