<svg width="64" height="64" viewBox="0 0 64 64" xmlns="http://www.w3.org/2000/svg" xmlns:xlink="http://www.w3.org/1999/xlink" fill="none" overflow="hidden"><defs><clipPath id="clip0_505_1032"><rect x="0" y="0" width="62.7" height="52.2" fill="#FFFFFF" transform="translate(1 6)"/></clipPath></defs><g clip-path="url(#clip0_505_1032)"><path d="M31.27 58.2C30.72 58.2 30.27 57.75 30.27 57.2 30.27 54.83 30.27 52.71 30.25 50.8 30.25 50.25 30.69 49.8 31.24 49.79 31.83 49.79 32.24 50.23 32.25 50.78 32.27 52.69 32.27 54.83 32.27 57.2 32.27 57.75 31.82 58.2 31.27 58.2Z" fill="#40B4E5"/><path d="M39.82 33.24C39.4 33.24 39.01 32.98 38.87 32.56 38.69 32.04 38.97 31.47 39.5 31.29 44.43 29.63 54.54 23.24 60.7 13.18 61.36 12.1 62.04 10.63 61.49 9.74 60.02 7.32 51.08 7.97 43.19 8.54 39.23 8.83 35.14 9.12 31.48 9.12 27.82 9.12 24.11 8.88 20.43 8.64 13.05 8.17 4.67997 7.63 3.21997 9.93 2.78997 10.61 2.98997 11.72 3.80997 13.2 9.63997 23.7 18.93 28.28 26.37 31.1 26.89 31.3 27.15 31.87 26.95 32.39 26.75 32.91 26.18 33.17 25.66 32.97 17.9 30.03 8.19997 25.23 2.05997 14.17 0.859971 12 0.679971 10.21 1.52997 8.86 3.61997 5.56 11.09 6.04 20.56 6.65 24.21 6.88 27.98 7.13 31.48 7.13 34.98 7.13 39.12 6.84 43.05 6.55 52.73 5.85 61.09 5.24 63.2 8.7 64.07 10.13 63.81 11.93 62.4 14.23 55.97 24.74 45.33 31.44 40.14 33.19 40.03 33.23 39.93 33.24 39.82 33.24Z" fill="#40B4E5"/><path d="M34.26 58.2C33.71 58.2 33.26 57.75 33.26 57.2 33.26 54.83 33.26 52.69 33.28 50.78 33.28 50.23 33.75 49.82 34.29 49.79 34.84 49.79 35.29 50.25 35.28 50.8 35.26 52.71 35.26 54.83 35.26 57.2 35.26 57.75 34.81 58.2 34.26 58.2Z" fill="#40B4E5"/><path d="M34.55 50.04C37.26 49.59 39.75 48.01 41.21 45.3 47.22 34.18 41.72 31.6 32.45 31.6 28.43 31.6 24.91 32.25 22.97 34.02 31.52 29.33 43.73 44.4 34.55 50.05L34.55 50.04Z" fill="#B4D6F1" fill-opacity="0.5"/><path d="M31.22 48.87C30.67 48.87 30.23 48.43 30.22 47.88 30.08 35.96 29.77 35.27 29.14 34.96L29.04 34.91C28.55 34.66 28.35 34.06 28.61 33.56 28.86 33.07 29.47 32.87 29.96 33.13L30.04 33.17C31.77 34.04 32.06 34.57 32.22 47.85 32.22 48.4 31.78 48.85 31.23 48.86L31.22 48.86 31.22 48.87Z" fill="#40B4E5"/><path d="M34.3 48.88 34.2901 48.88C33.7401 48.88 33.3 48.42 33.3 47.87 33.47 34.24 33.67 33.71 35.44 33.1 35.96 32.92 36.5601 33.18 36.7401 33.7 36.9201 34.22 36.6701 34.78 36.1501 34.97 36.0401 35.01 35.98 35.02 35.93 35.05 35.49 35.68 35.3701 41.75 35.2901 47.9 35.2901 48.45 34.8401 48.89 34.2901 48.89L34.3 48.88Z" fill="#40B4E5"/><path d="M32.89 51.17C29 51.17 25.44 49.19 23.32 45.83 20.38 41.16 19.62 37.44 21.09 34.79 22.63 32.01 26.45 30.59 32.46 30.59 36.4 30.59 41.86 30.99 43.91 34.42 45.44 36.98 44.84 40.69 42.1 45.77 40.34 49.02 37.04 51.04 33.28 51.16 33.15 51.16 33.02 51.16 32.9 51.16L32.89 51.17ZM32.46 32.59C27.31 32.59 23.98 33.68 22.84 35.75 21.76 37.71 22.49 40.74 25.02 44.75 26.83 47.62 29.9 49.24 33.22 49.15 36.26 49.05 38.93 47.42 40.35 44.8 42.7 40.46 43.32 37.31 42.2 35.43 41.06 33.51 37.87 32.58 32.47 32.58L32.46 32.59Z" fill="#065BAA"/></g></svg>