<svg width="64" height="64" viewBox="0 0 64 64" xmlns="http://www.w3.org/2000/svg" xmlns:xlink="http://www.w3.org/1999/xlink" fill="none" overflow="hidden"><defs><clipPath id="clip0_582_1078"><rect x="0" y="0" width="56" height="62" fill="#FFFFFF" transform="translate(4 1)"/></clipPath></defs><g clip-path="url(#clip0_582_1078)"><path d="M31.6 24.38C31.6 29.49 33.74 37.71 39.02 37.71 44.3 37.71 45.17 38.56 47.11 48.55 48.58 56.12 54.74 59.63 57.24 61.96L58.25 62.26C58.25 62.26 50.21 56.78 48.5 47.21 46.74 37.39 44.73 35.83 39.46 35.83 34.19 35.83 33.01 28.53 33.01 23.52 33.01 18.51 37.69 9.4 30.84 9.4 30.81 9.65 31.11 9.09 31.08 9.34 35.95 10.53 31.61 19.66 31.61 24.39L31.6 24.38Z" fill="#B4D6F1" fill-opacity="0.5"/><path d="M47.7 2.45C48.29 3.06 48.77 3.78 49.1 4.58 49.43 5.38 49.61 6.26 49.61 7.18 49.61 8.1 49.43 8.98 49.1 9.78 48.77 10.58 48.29 11.3 47.7 11.91 47.11 12.52 46.4 13 45.62 13.34 44.84 13.68 43.98 13.87 43.08 13.87 42.18 13.87 41.32 13.68 40.54 13.34 39.76 13 39.05 12.51 38.46 11.91 38.46 11.91 42.43 14.73 46.45 10.63 50.46 6.52 47.7 2.45 47.7 2.45Z" fill="#B4D6F1" fill-opacity="0.5"/><path d="M44.03 15.31C40.05 15.31 36.81 12.1 36.81 8.15001 36.81 4.20001 40.05 0.990005 44.03 0.990005 48.01 0.990005 51.25 4.20001 51.25 8.15001 51.25 12.1 48.01 15.31 44.03 15.31ZM44.03 3.01001C41.15 3.01001 38.81 5.32001 38.81 8.16001 38.81 11 41.15 13.31 44.03 13.31 46.91 13.31 49.25 11 49.25 8.16001 49.25 5.32001 46.91 3.01001 44.03 3.01001Z" fill="#065BAA"/><path d="M26.52 48.51C21.22 48.51 14.96 47.66 10.74 44.32 2.64002 37.92 4.07002 16.68 4.14002 15.78 4.18002 15.23 4.67002 14.81 5.21002 14.85 5.76002 14.89 6.17002 15.37 6.13002 15.92 6.12002 16.13 4.70002 36.99 11.98 42.75 19.67 48.83 35.9 45.66 36.06 45.63 36.6 45.52 37.13 45.87 37.24 46.42 37.35 46.96 37 47.49 36.46 47.6 36.11 47.67 31.8 48.51 26.53 48.51L26.52 48.51Z" fill="#40B4E5"/><path d="M12.91 63C12.74 63 12.58 62.96 12.42 62.87 11.94 62.6 11.77 61.98 12.04 61.5L19.82 47.66C20.09 47.18 20.7 47 21.18 47.28 21.66 47.55 21.83 48.17 21.56 48.65L13.78 62.49C13.6 62.82 13.26 63 12.91 63Z" fill="#40B4E5"/><path d="M39.37 63C39.02 63 38.68 62.82 38.5 62.49L30.72 48.65C30.45 48.17 30.62 47.55 31.1 47.28 31.58 47.01 32.19 47.18 32.46 47.66L40.24 61.5C40.51 61.98 40.34 62.6 39.86 62.87 39.7 62.96 39.54 63 39.37 63Z" fill="#40B4E5"/><path d="M59 63 47.66 63C47.19 63 46.79 62.67 46.68 62.21 44.49 52.36 41.42 43.73 39.97 43.36 39.53 43.26 37.82 43.6 36.31 43.89 31.64 44.79 24.59 46.14 18.97 44.07 14.51 42.43 13.8 34.2 15.03 27.25 16.59 18.43 21.86 8.12 31.58 8.12 33.27 8.12 34.53 8.62 35.33 9.62 36.96 11.65 36.21 15.13 35.49 18.5 35.11 20.26 34.75 21.93 34.75 23.25 34.75 25.9 35.14 34.56 40.2 34.56 46.43 34.56 48.49 37.07 50.23 46.77 51.85 55.8 59.48 61.12 59.56 61.17 59.92 61.42 60.08 61.88 59.95 62.3 59.82 62.72 59.43 63.01 59 63.01L59 63ZM48.46 60.99 56.2 60.99C53.58 58.57 49.47 53.84 48.27 47.12 46.54 37.48 44.69 36.57 40.21 36.57 35.73 36.57 32.76 31.59 32.76 23.26 32.76 21.73 33.14 19.96 33.54 18.09 34.14 15.32 34.81 12.17 33.78 10.89 33.37 10.38 32.66 10.14 31.58 10.14 23.09 10.14 18.42 19.55 16.99 27.61 15.72 34.77 16.89 41.18 19.65 42.19 24.75 44.07 31.48 42.78 35.93 41.92 38.37 41.45 39.58 41.23 40.37 41.4 43.75 42.1 47.03 54.76 48.45 60.99L48.46 60.99Z" fill="#065BAA"/><path d="M27.17 35.95C26.23 35.95 25.26 35.78 24.53 35.24 24.01 34.85 23.38 34.11 23.38 32.79 23.38 29.07 23.95 27 26.2 20.74 26.36 20.29 26.82 20.02 27.28 20.09 27.75 20.16 28.11 20.54 28.14 21.02 28.66 28.79 30.8 34.09 30.83 34.14 30.94 34.4 30.93 34.69 30.81 34.95 30.69 35.2 30.47 35.4 30.2 35.48 29.97 35.55 28.61 35.96 27.17 35.96L27.17 35.95ZM26.63 25.62C25.6 28.82 25.38 30.37 25.38 32.79 25.38 33.31 25.56 33.51 25.71 33.63 26.27 34.04 27.5 34 28.57 33.81 28.07 32.34 27.21 29.47 26.63 25.62Z" fill="#065BAA"/></g></svg>