<svg width="186" height="20" viewBox="0 0 186 20" fill="none" xmlns="http://www.w3.org/2000/svg">
<g clip-path="url(#clip0_3931_8519)">
<path fill-rule="evenodd" clip-rule="evenodd" d="M164.095 0.8L169.435 14.4606H169.49L172.296 0.8H176.262L172.104 20H167.783L162.389 6.52727H162.333L159.525 20H155.478L159.635 0.8H164.095ZM182.657 0C183.428 0 184.087 0.273333 184.635 0.820606C185.181 1.36788 185.455 2.02788 185.455 2.8C185.455 3.59576 185.175 4.26606 184.616 4.8103C184.072 5.33697 183.419 5.6 182.657 5.6C181.869 5.6 181.206 5.3303 180.668 4.79152C180.128 4.25212 179.859 3.58788 179.859 2.8C179.859 1.98182 180.15 1.30182 180.732 0.76C181.279 0.252727 181.92 0 182.657 0ZM182.657 0.478788C182.015 0.478788 181.466 0.711515 181.013 1.17818C180.568 1.63333 180.345 2.17455 180.345 2.8C180.345 3.44848 180.572 4 181.025 4.45273C181.236 4.67212 181.489 4.84576 181.77 4.96285C182.051 5.07995 182.353 5.13798 182.657 5.13333C183.292 5.13333 183.835 4.90545 184.285 4.44848C184.504 4.2336 184.676 3.97675 184.792 3.69342C184.908 3.41009 184.966 3.10617 184.961 2.8C184.961 2.17758 184.738 1.63636 184.29 1.17818C183.836 0.711515 183.292 0.478788 182.657 0.478788ZM182.295 1.25576C182.678 1.25758 182.891 1.25879 182.935 1.26182C183.18 1.27939 183.383 1.33273 183.545 1.42061C183.821 1.57333 183.959 1.82061 183.959 2.16182C183.959 2.42303 183.886 2.61091 183.741 2.72667C183.595 2.84364 183.416 2.91273 183.204 2.93515C183.399 2.97576 183.545 3.03515 183.644 3.11515C183.826 3.26242 183.917 3.49394 183.917 3.81091V4.08848C183.917 4.11879 183.919 4.14909 183.923 4.17939C183.928 4.2103 183.935 4.24 183.945 4.2703L183.974 4.35818H183.199C183.169 4.21687 183.152 4.07299 183.149 3.92848C183.139 3.74182 183.123 3.61455 183.097 3.54849C183.078 3.49606 183.048 3.44845 183.009 3.40906C182.969 3.36966 182.922 3.33946 182.869 3.32061C182.78 3.29033 182.687 3.27398 182.593 3.27212L182.415 3.26H182.243V4.35818H181.43V1.25333H181.687L182.295 1.25576ZM182.44 1.80061H182.243V2.70182H182.558C182.747 2.70182 182.896 2.66364 183.002 2.58727C183.108 2.51212 183.162 2.38909 183.162 2.21879C183.162 2.04909 183.079 1.93152 182.912 1.86545C182.8 1.82242 182.643 1.80061 182.44 1.80061ZM144.33 16.4703C148.597 16.4703 150.73 12.0855 150.73 8.47576C150.73 5.80182 149.51 3.52909 146.325 3.52909C141.865 3.52909 139.842 7.88788 139.842 11.5503C139.842 14.1715 141.172 16.4703 144.33 16.4703ZM146.298 0C151.643 0 155.078 2.83394 155.078 8.18182C155.078 14.4655 151.201 20 144.275 20C138.735 20 135.493 16.9248 135.493 11.5503C135.494 5.37333 139.621 0 146.298 0ZM121.787 9.48727H125.819C128.13 9.46 130.327 8.6 130.327 6.44849C130.327 4.37818 128.825 4.08242 127.101 4.08242H122.955L121.787 9.48727ZM119.285 0.801212H128.77C132.356 0.747879 134.695 2.11879 134.695 5.8303C134.695 8.43758 132.802 10.6164 130.133 10.9927V11.0461C131.773 11.5297 132.191 12.9291 132.191 14.4339C132.191 15.2945 132.05 16.5855 132.05 17.7679C132.05 18.6285 132.107 19.4358 132.33 20H128.075C127.961 19.5424 127.878 19.1388 127.878 18.7097C127.878 17.4188 128.1 16.1012 128.1 14.8103C128.1 12.9558 126.961 12.4976 125.235 12.4976H121.12L119.478 20H115.109L119.285 0.801212ZM101.178 0.8H115.909L115.179 4.34909H104.691L103.827 8.46303H113.53L112.828 11.7448H103.124L102.124 16.4503H112.773L112.016 20H97.1236L101.178 0.8ZM80.4976 0.8H84.957L90.297 14.46H90.3515L93.1606 0.8H97.1236L92.9667 20H88.6449L83.2509 6.52727H83.1964L80.3891 20H76.34L80.4976 0.8ZM62.8079 0.8H77.5394L76.8085 4.34909H66.3206L65.457 8.46303H75.1606L74.4576 11.7448H64.7545L63.7539 16.4503H74.4024L73.6467 20H58.7539L62.8079 0.8ZM52.2958 17.5939H52.2424C50.9673 19.3055 49.1515 20 47.3636 20C41.9412 20 38.7697 16.9255 38.7697 11.5509C38.7697 5.37333 42.8091 0 49.3406 0C53.8679 0 57.5552 2.08485 57.5552 6.76545H53.2988C53.1897 4.46424 51.7267 3.52909 49.3685 3.52909C45.0048 3.52909 43.0248 7.88667 43.0248 11.5509C43.0248 14.1709 44.3267 16.4709 47.4164 16.4709C50.6418 16.4709 52.0515 14.7861 52.7836 12.3533H48.3121L48.9891 9.22424H57.2012L54.9794 19.5455H52.2958V17.5939ZM24.0394 0.8H38.7697L38.0406 4.34909H27.5527L26.6873 8.46303H36.3909L35.6879 11.7448H25.9836L24.9842 16.4503H35.6339L34.8788 20H19.9842L24.0394 0.8ZM6.67697 9.48727H10.7109C13.0188 9.46 15.217 8.6 15.217 6.44849C15.217 4.37818 13.7145 4.08242 11.9909 4.08242H7.84545L6.67697 9.48727ZM4.17394 0.801212H13.6606C17.2467 0.747879 19.5855 2.11879 19.5855 5.8303C19.5855 8.43758 17.6939 10.6164 15.0242 10.9927V11.0461C16.6636 11.5297 17.0812 12.9291 17.0812 14.4339C17.0812 15.2945 16.9418 16.5855 16.9418 17.7679C16.9418 18.6285 16.9982 19.4358 17.2206 20H12.9648C12.8527 19.5424 12.7697 19.1388 12.7697 18.7097C12.7697 17.4188 12.9915 16.1012 12.9915 14.8103C12.9915 12.9558 11.8521 12.4976 10.1255 12.4976H6.0103L4.36727 20H0L4.17394 0.801212Z" fill="#065BAA"/>
</g>
<defs>
<clipPath id="clip0_3931_8519">
<rect width="186" height="20" fill="white"/>
</clipPath>
</defs>
</svg>
