<svg viewBox="0 0 60.04 46.03" xmlns="http://www.w3.org/2000/svg" xmlns:xlink="http://www.w3.org/1999/xlink" id="Layer_2" overflow="hidden"><defs></defs><g id="AW"><line x1="54" y1="8.82" x2="59" y2="8.82" stroke="#B4D6F1" stroke-width="2.04082" stroke-linecap="round" stroke-linejoin="miter" stroke-miterlimit="10" stroke-opacity="1" fill="none"/><line x1="48" y1="20.61" x2="59" y2="20.61" stroke="#B4D6F1" stroke-width="2.04082" stroke-linecap="round" stroke-linejoin="miter" stroke-miterlimit="10" stroke-opacity="1" fill="none"/><line x1="42" y1="32.4" x2="59" y2="32.4" stroke="#B4D6F1" stroke-width="2.04082" stroke-linecap="round" stroke-linejoin="miter" stroke-miterlimit="10" stroke-opacity="1" fill="none"/><line x1="36" y1="44.54" x2="59" y2="44.54" stroke="#B4D6F1" stroke-width="2.04082" stroke-linecap="round" stroke-linejoin="miter" stroke-miterlimit="10" stroke-opacity="1" fill="none"/><line x1="1" y1="9.47" x2="11.6" y2="9.47" stroke="#065BAA" stroke-width="2.04082" stroke-linecap="round" stroke-linejoin="miter" stroke-miterlimit="10" stroke-opacity="1" fill="none"/><line x1="1" y1="21.26" x2="16.84" y2="21.26" stroke="#065BAA" stroke-width="2.04082" stroke-linecap="round" stroke-linejoin="miter" stroke-miterlimit="10" stroke-opacity="1" fill="none"/><line x1="1" y1="33.05" x2="22.25" y2="33.05" stroke="#065BAA" stroke-width="2.04082" stroke-linecap="round" stroke-linejoin="miter" stroke-miterlimit="10" stroke-opacity="1" fill="none"/><line x1="48.44" y1="9.47" x2="59.04" y2="9.47" stroke="#065BAA" stroke-width="2.04082" stroke-linecap="round" stroke-linejoin="miter" stroke-miterlimit="10" stroke-opacity="1" fill="none"/><circle cx="24.84" cy="2.82" r="1.82" stroke="#40B4E5" stroke-width="2.04082" stroke-linecap="round" stroke-linejoin="miter" stroke-miterlimit="10" stroke-opacity="1" fill="none"/><circle cx="19.7" cy="2.82" r="1.82" stroke="#40B4E5" stroke-width="2.04082" stroke-linecap="round" stroke-linejoin="miter" stroke-miterlimit="10" stroke-opacity="1" fill="none"/><circle cx="29.98" cy="2.82" r="1.82" stroke="#40B4E5" stroke-width="2.04082" stroke-linecap="round" stroke-linejoin="miter" stroke-miterlimit="10" stroke-opacity="1" fill="none"/><circle cx="35.12" cy="2.82" r="1.82" stroke="#40B4E5" stroke-width="2.04082" stroke-linecap="round" stroke-linejoin="miter" stroke-miterlimit="10" stroke-opacity="1" fill="none"/><circle cx="40.27" cy="2.82" r="1.82" stroke="#40B4E5" stroke-width="2.04082" stroke-linecap="round" stroke-linejoin="miter" stroke-miterlimit="10" stroke-opacity="1" fill="none"/><circle cx="14.55" cy="2.82" r="1.82" stroke="#40B4E5" stroke-width="2.04082" stroke-linecap="round" stroke-linejoin="miter" stroke-miterlimit="10" stroke-opacity="1" fill="none"/><circle cx="16.27" cy="6.66" r="1.82" stroke="#40B4E5" stroke-width="2.04082" stroke-linecap="round" stroke-linejoin="miter" stroke-miterlimit="10" stroke-opacity="1" fill="none"/><circle cx="17.98" cy="10.5" r="1.82" stroke="#40B4E5" stroke-width="2.04082" stroke-linecap="round" stroke-linejoin="miter" stroke-miterlimit="10" stroke-opacity="1" fill="none"/><circle cx="19.69" cy="14.34" r="1.82" stroke="#40B4E5" stroke-width="2.04082" stroke-linecap="round" stroke-linejoin="miter" stroke-miterlimit="10" stroke-opacity="1" fill="none"/><circle cx="21.41" cy="18.18" r="1.82" stroke="#40B4E5" stroke-width="2.04082" stroke-linecap="round" stroke-linejoin="miter" stroke-miterlimit="10" stroke-opacity="1" fill="none"/><circle cx="23.12" cy="22.02" r="1.82" stroke="#40B4E5" stroke-width="2.04082" stroke-linecap="round" stroke-linejoin="miter" stroke-miterlimit="10" stroke-opacity="1" fill="none"/><circle cx="24.84" cy="25.86" r="1.82" stroke="#40B4E5" stroke-width="2.04082" stroke-linecap="round" stroke-linejoin="miter" stroke-miterlimit="10" stroke-opacity="1" fill="none"/><circle cx="26.55" cy="29.7" r="1.82" stroke="#40B4E5" stroke-width="2.04082" stroke-linecap="round" stroke-linejoin="miter" stroke-miterlimit="10" stroke-opacity="1" fill="none"/><circle cx="29.98" cy="37.38" r="1.82" stroke="#40B4E5" stroke-width="2.04082" stroke-linecap="round" stroke-linejoin="miter" stroke-miterlimit="10" stroke-opacity="1" fill="none"/><circle cx="29.98" cy="37.38" r="1.82" stroke="#40B4E5" stroke-width="2.04082" stroke-linecap="round" stroke-linejoin="miter" stroke-miterlimit="10" stroke-opacity="1" fill="none"/><circle cx="33.41" cy="29.7" r="1.82" stroke="#40B4E5" stroke-width="2.04082" stroke-linecap="round" stroke-linejoin="miter" stroke-miterlimit="10" stroke-opacity="1" fill="none"/><circle cx="35.12" cy="25.86" r="1.82" stroke="#40B4E5" stroke-width="2.04082" stroke-linecap="round" stroke-linejoin="miter" stroke-miterlimit="10" stroke-opacity="1" fill="none"/><circle cx="36.84" cy="22.02" r="1.82" stroke="#40B4E5" stroke-width="2.04082" stroke-linecap="round" stroke-linejoin="miter" stroke-miterlimit="10" stroke-opacity="1" fill="none"/><circle cx="38.55" cy="18.18" r="1.82" stroke="#40B4E5" stroke-width="2.04082" stroke-linecap="round" stroke-linejoin="miter" stroke-miterlimit="10" stroke-opacity="1" fill="none"/><circle cx="40.27" cy="14.34" r="1.82" stroke="#40B4E5" stroke-width="2.04082" stroke-linecap="round" stroke-linejoin="miter" stroke-miterlimit="10" stroke-opacity="1" fill="none"/><circle cx="43.69" cy="6.66" r="1.82" stroke="#40B4E5" stroke-width="2.04082" stroke-linecap="round" stroke-linejoin="miter" stroke-miterlimit="10" stroke-opacity="1" fill="none"/><circle cx="45.41" cy="2.82" r="1.82" stroke="#40B4E5" stroke-width="2.04082" stroke-linecap="round" stroke-linejoin="miter" stroke-miterlimit="10" stroke-opacity="1" fill="none"/><circle cx="23.56" cy="8.46" r="1.82" stroke="#40B4E5" stroke-width="2.04082" stroke-linecap="round" stroke-linejoin="miter" stroke-miterlimit="10" stroke-opacity="1" fill="none"/><circle cx="33.56" cy="14.61" r="1.82" stroke="#40B4E5" stroke-width="2.04082" stroke-linecap="round" stroke-linejoin="miter" stroke-miterlimit="10" stroke-opacity="1" fill="none"/><circle cx="29.87" cy="9.16" r="1.82" stroke="#40B4E5" stroke-width="2.04082" stroke-linecap="round" stroke-linejoin="miter" stroke-miterlimit="10" stroke-opacity="1" fill="none"/><circle cx="26.11" cy="13.97" r="1.82" stroke="#40B4E5" stroke-width="2.04082" stroke-linecap="round" stroke-linejoin="miter" stroke-miterlimit="10" stroke-opacity="1" fill="none"/><circle cx="36.19" cy="8.58" r="1.82" stroke="#40B4E5" stroke-width="2.04082" stroke-linecap="round" stroke-linejoin="miter" stroke-miterlimit="10" stroke-opacity="1" fill="none"/><circle cx="29.22" cy="19.03" r="1.82" stroke="#40B4E5" stroke-width="2.04082" stroke-linecap="round" stroke-linejoin="miter" stroke-miterlimit="10" stroke-opacity="1" fill="none"/><circle cx="30.12" cy="25.03" r="1.82" stroke="#40B4E5" stroke-width="2.04082" stroke-linecap="round" stroke-linejoin="miter" stroke-miterlimit="10" stroke-opacity="1" fill="none"/><line x1="43.2" y1="21.26" x2="59.04" y2="21.26" stroke="#065BAA" stroke-width="2.04082" stroke-linecap="round" stroke-linejoin="miter" stroke-miterlimit="10" stroke-opacity="1" fill="none"/><line x1="37.79" y1="33.05" x2="59.04" y2="33.05" stroke="#065BAA" stroke-width="2.04082" stroke-linecap="round" stroke-linejoin="miter" stroke-miterlimit="10" stroke-opacity="1" fill="none"/><line x1="1" y1="45.03" x2="59" y2="45.03" stroke="#065BAA" stroke-width="2.04082" stroke-linecap="round" stroke-linejoin="miter" stroke-miterlimit="10" stroke-opacity="1" fill="none"/><path d="M34.2 32.53C33.93 31.83 33.4 31.27 32.72 30.96 32.03 30.65 31.27 30.63 30.56 30.9 30.35 30.98 30.16 31.09 29.98 31.21 29.79 31.08 29.59 30.96 29.38 30.88 28.68 30.61 27.91 30.63 27.22 30.94 26.53 31.25 26.01 31.8 25.74 32.51 25.47 33.21 25.49 33.98 25.8 34.67 26.11 35.36 26.66 35.88 27.37 36.15 27.7 36.27 28.04 36.34 28.38 36.34 28.77 36.34 29.16 36.26 29.53 36.09 29.68 36.02 29.83 35.94 29.96 35.84 30.11 35.94 30.26 36.03 30.43 36.11 30.8 36.28 31.19 36.36 31.57 36.36 32.65 36.36 33.68 35.74 34.15 34.69 34.46 34 34.48 33.24 34.21 32.53ZM29.14 33.81C29.08 33.96 28.97 34.08 28.84 34.17 28.8 34.2 28.76 34.24 28.71 34.26 28.51 34.35 28.29 34.36 28.08 34.28 27.88 34.2 27.71 34.05 27.63 33.85 27.54 33.65 27.53 33.43 27.61 33.22 27.69 33.01 27.84 32.85 28.04 32.77 28.15 32.72 28.26 32.7 28.37 32.7 28.54 32.7 28.7 32.76 28.84 32.85 28.96 32.93 29.06 33.04 29.12 33.18 29.21 33.38 29.22 33.6 29.14 33.8ZM32.32 33.87C32.14 34.28 31.65 34.47 31.24 34.28 31.19 34.26 31.15 34.22 31.1 34.18 30.97 34.09 30.87 33.97 30.81 33.82 30.73 33.62 30.74 33.39 30.83 33.19 30.89 33.05 31 32.93 31.12 32.85 31.26 32.76 31.42 32.7 31.58 32.7 31.69 32.7 31.8 32.72 31.91 32.77 32.11 32.86 32.26 33.02 32.34 33.22 32.42 33.42 32.41 33.65 32.32 33.85Z" stroke-width="2.04082" stroke-linecap="round" stroke-linejoin="miter" stroke-miterlimit="10" stroke-opacity="1" fill="#40B4E5"/></g></svg>