<svg viewBox="0 0 60 51.43" xmlns="http://www.w3.org/2000/svg" xmlns:xlink="http://www.w3.org/1999/xlink" id="Layer_2" overflow="hidden"><defs></defs><g id="AW"><path d="M33.36 33.37C34.27 34.94 34.79 36.76 34.79 38.7 34.79 44.62 29.98 49.43 24.06 49.43 18.14 49.43 13.33 44.62 13.33 38.7 13.33 35.93 14.39 33.41 16.12 31.51 15.69 30.97 15.31 30.4 14.98 29.8 12.73 32.1 11.33 35.24 11.33 38.7 11.33 45.72 17.04 51.43 24.06 51.43 31.08 51.43 36.79 45.72 36.79 38.7 36.79 36.21 36.06 33.89 34.82 31.93 34.37 32.45 33.89 32.93 33.36 33.37Z" stroke-width="2.22222" stroke-linecap="butt" stroke-linejoin="miter" fill="#FFFFFF"/><circle cx="41.3" cy="40.77" r="5.61" stroke="#40B4E5" stroke-width="2.22222" stroke-linecap="butt" stroke-linejoin="miter" stroke-miterlimit="10" fill="none"/><circle cx="9.7" cy="34.17" r="3.32" stroke="#40B4E5" stroke-width="2.22222" stroke-linecap="butt" stroke-linejoin="miter" stroke-miterlimit="10" fill="none"/><circle cx="25.65" cy="23.97" r="11.17" stroke="#FFFFFF" stroke-width="2.22222" stroke-linecap="butt" stroke-linejoin="miter" stroke-miterlimit="10" fill="none"/><path d="M47.27 11.74C43.07 11.74 39.35 13.79 37.03 16.94 37.49 15.62 37.76 14.21 37.76 12.73 37.76 5.71 32.05 0 25.03 0 18.01 0 12.3 5.71 12.3 12.73 12.3 13.68 12.41 14.6 12.61 15.49 11.43 14.89 10.1 14.54 8.68 14.54 3.89 14.54 0 18.44 0 23.22 0 28 3.89 31.9 8.68 31.9 11.05 31.9 13.21 30.94 14.78 29.39 14.45 28.72 14.17 28.03 13.96 27.3 12.74 28.88 10.83 29.9 8.68 29.9 5 29.9 2 26.9 2 23.22 2 19.54 5 16.54 8.68 16.54 11.04 16.54 13.11 17.77 14.3 19.62 14.6 18.85 14.96 18.12 15.4 17.44 14.7 16.02 14.3 14.42 14.3 12.73 14.3 6.81 19.11 2 25.03 2 30.95 2 35.76 6.81 35.76 12.73 35.76 14 35.53 15.21 35.12 16.35 36.1 17.57 36.85 18.97 37.31 20.51 38.89 16.55 42.76 13.75 47.27 13.75 53.19 13.75 58 18.56 58 24.48 58 30.4 53.19 35.21 47.27 35.21 42.57 35.21 38.58 32.17 37.13 27.96 36.84 28.8 36.45 29.6 35.99 30.35 38.12 34.42 42.37 37.2 47.27 37.2 54.29 37.2 60 31.49 60 24.47 60 17.45 54.29 11.74 47.27 11.74Z" stroke-width="2.22222" stroke-linecap="butt" stroke-linejoin="miter" fill="#FFFFFF"/><path d="M43.91 6.65C44.7 7.44 45.19 8.53 45.19 9.73 45.19 10.93 44.7 12.02 43.91 12.81 43.12 13.6 42.03 14.09 40.83 14.09 39.63 14.09 38.54 13.6 37.75 12.81 36.96 12.02 36.47 10.93 36.47 9.73 36.47 8.53 36.96 7.44 37.75 6.65 38.54 5.86 39.63 5.37 40.83 5.37" stroke="#40B4E5" stroke-width="2.22222" stroke-linecap="butt" stroke-linejoin="miter" stroke-miterlimit="10" fill="none"/></g></svg>