<svg viewBox="0 0 58.98 60.04" xmlns="http://www.w3.org/2000/svg" xmlns:xlink="http://www.w3.org/1999/xlink" id="Layer_2" overflow="hidden"><defs></defs><g id="AW"><circle cx="50.98" cy="8" r="2" stroke-width="2.18519" stroke-linejoin="miter" fill="#40B4E5" fill-opacity="1"/><line x1="50.98" y1="4" x2="50.98" y2="1" stroke="#FFFFFF" stroke-width="2.18519" stroke-linecap="round" stroke-linejoin="miter" stroke-miterlimit="10" fill="none"/><line x1="57.98" y1="8" x2="54.98" y2="8" stroke="#FFFFFF" stroke-width="2.18519" stroke-linecap="round" stroke-linejoin="miter" stroke-miterlimit="10" fill="none"/><line x1="50.98" y1="12" x2="50.98" y2="15" stroke="#FFFFFF" stroke-width="2.18519" stroke-linecap="round" stroke-linejoin="miter" stroke-miterlimit="10" fill="none"/><line x1="43.98" y1="8" x2="46.98" y2="8" stroke="#FFFFFF" stroke-width="2.18519" stroke-linecap="round" stroke-linejoin="miter" stroke-miterlimit="10" fill="none"/><circle cx="30.98" cy="8" r="2" stroke-width="2.18519" stroke-linejoin="miter" fill="#40B4E5" fill-opacity="1"/><circle cx="8.98" cy="46" r="2" stroke-width="2.18519" stroke-linejoin="miter" fill="#40B4E5" fill-opacity="1"/><circle cx="25.98" cy="45" r="2" stroke-width="2.18519" stroke-linejoin="miter" fill="#40B4E5" fill-opacity="1"/><circle cx="38.98" cy="56" r="2" stroke-width="2.18519" stroke-linejoin="miter" fill="#40B4E5" fill-opacity="1"/><path d="M18.84 31.5C19.39 31.5 19.84 31.95 19.84 32.5L19.84 36.59C19.84 38.25 18.5 39.59 16.84 39.59L10.41 39.59C6.19 39.59 2.7 42.86 2.43 47.07L2 59.11C1.96 59.66 1.49 60.08 0.94 60.04 0.39 60-0.03 59.53 0.01 58.98L0.44 46.94C0.78 41.68 5.15 37.59 10.42 37.59L16.85 37.59C17.4 37.59 17.85 37.14 17.85 36.59L17.85 32.5C17.85 31.95 18.3 31.5 18.85 31.5Z" stroke-width="2.18519" stroke-linejoin="miter" fill="#FFFFFF" fill-rule="evenodd" fill-opacity="1"/><path d="M33.29 31.5C32.74 31.5 32.29 31.95 32.29 32.5L32.29 36.59C32.29 38.25 33.63 39.59 35.29 39.59L41.72 39.59C45.94 39.59 49.43 42.86 49.7 47.07L50.09 59.05C50.13 59.6 50.6 60.02 51.15 59.98 51.7 59.94 52.12 59.47 52.08 58.92L51.69 46.94C51.35 41.68 46.98 37.59 41.71 37.59L35.28 37.59C34.73 37.59 34.28 37.14 34.28 36.59L34.28 32.5C34.28 31.95 33.83 31.5 33.28 31.5Z" stroke-width="2.18519" stroke-linejoin="miter" fill="#FFFFFF" fill-rule="evenodd" fill-opacity="1"/><path d="M38.28 16.64C37.82 16.24 37.26 16.04 36.92 15.99L37.21 14.01C37.87 14.11 38.81 14.44 39.6 15.13 40.42 15.86 41.06 16.96 41.06 18.49 41.06 20.02 40.42 21.13 39.6 21.85 38.81 22.55 37.87 22.88 37.21 22.97L36.92 20.99C37.26 20.94 37.82 20.75 38.28 20.34 38.71 19.96 39.07 19.39 39.07 18.48 39.07 17.57 38.71 16.99 38.28 16.62Z" stroke-width="2.18519" stroke-linejoin="miter" fill="#FFFFFF" fill-rule="evenodd" fill-opacity="1"/><path d="M13.85 16.64C14.31 16.24 14.87 16.04 15.21 15.99L14.92 14.01C14.26 14.11 13.32 14.44 12.53 15.13 11.71 15.86 11.07 16.96 11.07 18.49 11.07 20.02 11.71 21.13 12.53 21.85 13.32 22.55 14.26 22.88 14.92 22.97L15.21 20.99C14.87 20.94 14.31 20.75 13.85 20.34 13.42 19.96 13.06 19.39 13.06 18.48 13.06 17.57 13.42 16.99 13.85 16.62Z" stroke-width="2.18519" stroke-linejoin="miter" fill="#FFFFFF" fill-rule="evenodd" fill-opacity="1"/><path d="M15.41 7.13C15.5 6.37 15.67 5.44 15.81 5.15 16.83 3.13 21.95 1.1 26.05 1.1 30.15 1.1 35.27 3.12 36.29 5.15 37.31 7.18 36.89 22.82 36.89 25.86 36.89 27.83 32.51 34.9 26.04 35.39 24.45 35.27 22.99 34.75 21.69 34 17.69 31.7 15.19 27.27 15.19 25.86 15.19 23.61 14.71 16.34 15 10.91" stroke="#FFFFFF" stroke-width="2.18519" stroke-linecap="round" stroke-linejoin="miter" stroke-miterlimit="10" fill="none" fill-opacity="1"/></g></svg>