<svg width="64" height="64" viewBox="0 0 64 64" xmlns="http://www.w3.org/2000/svg" xmlns:xlink="http://www.w3.org/1999/xlink" fill="none" overflow="hidden"><path d="M40.16 44.53C40.16 44.53 41.12 54 35 58.89 35 58.89 41.24 57.96 42.72 52.08 44.2 46.2 40.16 44.52 40.16 44.52L40.16 44.53Z" fill="#40B4E5" opacity="0.5"/><path d="M31.972 43 32 43C33.4463 43 34.8662 43.0089 36.1666 43.1161 36.717 43.1615 37.1264 43.6445 37.081 44.1949 37.0357 44.7453 36.5527 45.1547 36.0023 45.1094 34.7951 45.0099 33.453 45 32 45 30.5392 45 29.2056 45.0008 28.0051 45.1087 26.7754 45.2193 25.752 45.3885 24.9354 45.7034 24.1283 46.0146 23.5503 46.4393 23.1518 47.03 22.7559 47.6168 22.5 48.4467 22.5 49.7025 22.5 50.8254 22.7111 51.8948 23.097 52.8792 23.4831 53.8639 24.0464 54.7689 24.7555 55.568 25.4601 56.3622 26.3088 57.033 27.2591 57.5527 28.2111 58.0732 29.2679 58.4476 30.3936 58.6261 30.8793 58.7032 31.2369 59.122 31.2369 59.6138L31.2369 60.9102C31.2369 60.9198 31.2378 60.9241 31.2379 60.9245L31.2381 60.925C31.243 60.9359 31.2462 60.9407 31.2476 60.9427 31.249 60.9447 31.2527 60.9498 31.2622 60.9589 31.2759 60.9721 31.2865 60.9798 31.3126 60.9905 31.3223 60.9945 31.3393 61 31.3731 61L32.8619 61C32.8958 61 32.9128 60.9945 32.9225 60.9905 32.9486 60.9798 32.9592 60.9721 32.9729 60.9589 32.9824 60.9498 32.9861 60.9447 32.9875 60.9427 32.9889 60.9407 32.9921 60.9359 32.997 60.925L32.9972 60.9245C32.9972 60.9241 32.9981 60.9198 32.9981 60.9102L32.9981 59.5762C32.9981 59.0943 33.3418 58.681 33.8156 58.593 34.9195 58.3881 35.9497 58.0043 36.8712 57.4774 37.7949 56.9492 38.6266 56.2692 39.3041 55.4843 39.9894 54.6905 40.5442 53.7925 40.9208 52.818 41.2978 51.8425 41.5 50.7904 41.5 49.6931 41.5 48.4412 41.2359 47.5991 40.8466 47.0181 40.4585 46.4392 39.8723 46.0055 39.0646 45.694 38.5493 45.4953 38.2927 44.9164 38.4914 44.4012 38.6901 43.8859 39.269 43.6292 39.7842 43.8279 40.8767 44.2492 41.8381 44.9053 42.5079 45.9046 43.1764 46.902 43.5 48.1643 43.5 49.6931 43.5 51.0384 43.2517 52.3349 42.7863 53.539 42.3206 54.7441 41.6412 55.8377 40.8181 56.7912 39.9872 57.7537 38.9775 58.5769 37.8639 59.2136 36.9807 59.7186 36.0182 60.1132 34.9981 60.3778L34.9981 60.9102C34.9981 61.1949 34.9416 61.4755 34.823 61.7409 34.7121 61.989 34.5593 62.2086 34.3573 62.4023 34.1556 62.5958 33.9311 62.7383 33.6829 62.8404 33.4184 62.9491 33.1415 63 32.8619 63L31.3731 63C31.0936 63 30.8167 62.9491 30.5522 62.8404 30.304 62.7383 30.0795 62.5958 29.8778 62.4023 29.6758 62.2086 29.5229 61.989 29.4121 61.7409 29.2935 61.4755 29.2369 61.1949 29.2369 60.9102L29.2369 60.4353C28.1904 60.1885 27.2043 59.8021 26.2996 59.3075 25.1539 58.681 24.122 57.8675 23.2595 56.8954 22.4014 55.9284 21.7109 54.823 21.2351 53.6093 20.7591 52.3954 20.5 51.0786 20.5 49.7025 20.5 48.1776 20.8122 46.9218 21.4938 45.9115 22.1727 44.9052 23.1227 44.2589 24.2158 43.8373 25.2993 43.4195 26.5483 43.2316 27.826 43.1168 29.1245 43 30.543 43 31.972 43Z" fill="#065BAA" fill-rule="evenodd" clip-rule="evenodd"/><path d="M16.7268 0.472527C18.1998-0.0184711 19.7612-0.147397 21.3115 0.183198 22.8488 0.510994 24.2386 1.23534 25.3971 2.29257L25.3976 2.29304C26.2966 3.1146 27.2498 4.55592 27.4736 6.30021 27.7055 8.10764 27.1378 10.1294 25.1657 11.9719 24.7621 12.349 24.1293 12.3275 23.7523 11.9239 23.3752 11.5203 23.3967 10.8875 23.8003 10.5105 25.3281 9.08306 25.6355 7.68978 25.4899 6.55471 25.3362 5.3565 24.6594 4.32782 24.0484 3.76938 23.1469 2.94687 22.077 2.39138 20.8944 2.13922 19.7248 1.88982 18.5262 1.98089 17.3592 2.36989 16.1852 2.76123 15.0232 3.45468 13.9734 4.40321 12.9202 5.35479 11.9479 6.57605 11.1582 8.0049 10.3669 9.43686 9.75166 11.0626 9.38193 12.8354 9.01154 14.6114 8.91825 16.3513 9.0687 17.9686 9.21919 19.5864 9.61339 21.0901 10.1971 22.4057 10.7761 23.7108 11.5566 24.8004 12.4796 25.6258 13.4004 26.4492 14.4653 27.0124 15.6415 27.2632 16.8112 27.5126 18.0098 27.4215 19.1768 27.0325 19.7378 26.8455 21.0037 26.2571 21.7869 25.1305 22.5034 24.0996 22.9518 22.425 21.5886 19.6984 21.3416 19.2044 21.5418 18.6038 22.0358 18.3568 22.5298 18.1098 23.1304 18.31 23.3774 18.804 25.0141 22.0774 24.6276 24.5478 23.4291 26.272 22.2973 27.9003 20.5682 28.6769 19.8092 28.9299 18.3362 29.4209 16.7748 29.5498 15.2244 29.2192 13.6806 28.89 12.3056 28.1532 11.1464 27.1166 9.98937 26.082 9.04986 24.7516 8.36892 23.2168 7.6926 21.6924 7.2468 19.9761 7.07729 18.1538 6.90774 16.3311 7.01445 14.3911 7.42406 12.427 7.83433 10.4599 8.5191 8.64556 9.40775 7.03752 10.2981 5.42637 11.4058 4.02763 12.6326 2.91921 13.8628 1.80774 15.2608 0.961187 16.7268 0.472527Z" fill="#065BAA" fill-rule="evenodd" clip-rule="evenodd"/><path d="M16.7268 0.472527C18.1998-0.0184711 19.7612-0.147397 21.3115 0.183198 22.8488 0.510994 24.2386 1.23534 25.3971 2.29257L25.3976 2.29304C26.2966 3.1146 27.2498 4.55592 27.4736 6.30021 27.7055 8.10764 27.1378 10.1294 25.1657 11.9719 24.7621 12.349 24.1293 12.3275 23.7523 11.9239 23.3752 11.5203 23.3967 10.8875 23.8003 10.5105 25.3281 9.08306 25.6355 7.68978 25.4899 6.55471 25.3362 5.3565 24.6594 4.32782 24.0484 3.76938 23.1469 2.94687 22.077 2.39138 20.8944 2.13922 19.7248 1.88982 18.5262 1.98089 17.3592 2.36989 16.1852 2.76123 15.0232 3.45468 13.9734 4.40321 12.9202 5.35479 11.9479 6.57605 11.1582 8.0049 10.3669 9.43686 9.75166 11.0626 9.38193 12.8354 9.01154 14.6114 8.91825 16.3513 9.0687 17.9686 9.21919 19.5864 9.61339 21.0901 10.1971 22.4057 10.7761 23.7108 11.5566 24.8004 12.4796 25.6258 13.4004 26.4492 14.4653 27.0124 15.6415 27.2632 16.8112 27.5126 18.0098 27.4215 19.1768 27.0325 19.7378 26.8455 21.0037 26.2571 21.7869 25.1305 22.5034 24.0996 22.9518 22.425 21.5886 19.6984 21.3416 19.2044 21.5418 18.6038 22.0358 18.3568 22.5298 18.1098 23.1304 18.31 23.3774 18.804 25.0141 22.0774 24.6276 24.5478 23.4291 26.272 22.2973 27.9003 20.5682 28.6769 19.8092 28.9299 18.3362 29.4209 16.7748 29.5498 15.2244 29.2192 13.6806 28.89 12.3056 28.1532 11.1464 27.1166 9.98937 26.082 9.04986 24.7516 8.36892 23.2168 7.6926 21.6924 7.2468 19.9761 7.07729 18.1538 6.90774 16.3311 7.01445 14.3911 7.42406 12.427 7.83433 10.4599 8.5191 8.64556 9.40775 7.03752 10.2981 5.42637 11.4058 4.02763 12.6326 2.91921 13.8628 1.80774 15.2608 0.961187 16.7268 0.472527Z" fill="#065BAA" fill-rule="evenodd" clip-rule="evenodd"/><path d="M14.5427 9.8896C15.0241 9.61888 15.6338 9.78967 15.9045 10.2711 16.4182 11.1845 17.3354 11.8526 18.6013 12.4414 19.4534 12.8377 20.3554 13.1544 21.3127 13.4906 21.8154 13.6672 22.3334 13.8491 22.8673 14.0507 24.3435 14.608 25.8811 15.2997 27.051 16.4086 28.2655 17.5598 29.0328 19.1102 29.0528 21.2418L29.0529 21.2512 29.0529 21.2512C29.0529 25.38 26.8185 28.5508 24.7555 31.4785 24.692 31.5686 24.6287 31.6584 24.5657 31.748 22.3967 34.8302 20.4429 37.7278 20.4429 41.5812 20.4429 44.5028 21.4488 46.1246 22.4335 47.1785 22.8106 47.582 22.7892 48.2148 22.3856 48.5919 21.9821 48.969 21.3493 48.9475 20.9722 48.544 19.677 47.1578 18.4429 45.0597 18.4429 41.5812 18.4429 37.0147 20.7941 33.6323 22.9301 30.597L22.98 30.526C25.1501 27.4426 27.0512 24.7412 27.0529 21.256 27.0369 19.6652 26.492 18.6344 25.6751 17.8601 24.8128 17.0428 23.5985 16.4645 22.161 15.9218 21.7237 15.7567 21.2559 15.592 20.7766 15.4233 19.7617 15.0661 18.6953 14.6908 17.7579 14.2548 16.3441 13.5973 14.9776 12.7029 14.1613 11.2514 13.8906 10.77 14.0613 10.1603 14.5427 9.8896Z" fill="#065BAA" fill-rule="evenodd" clip-rule="evenodd"/><path d="M20.5164 5.91826C20.9765 6.22387 21.1016 6.84454 20.796 7.30456 20.1519 8.27417 20.4161 9.58363 21.3864 10.2283 21.8465 10.5339 21.9716 11.1545 21.666 11.6146 21.3604 12.0746 20.7397 12.1998 20.2797 11.8942 18.3901 10.6388 17.8743 8.08824 19.1301 6.19785 19.4357 5.73783 20.0564 5.61265 20.5164 5.91826Z" fill="#40B4E5" fill-rule="evenodd" clip-rule="evenodd"/><path d="M15.9357 16.3405C14.1502 16.2741 13.0036 17.3913 12.9621 18.4407 12.9403 18.9926 12.4752 19.4223 11.9234 19.4004 11.3715 19.3786 10.9419 18.9136 10.9637 18.3617 11.0622 15.8711 13.4957 14.2484 16.0101 14.3419 16.562 14.3625 16.9928 14.8265 16.9722 15.3784 16.9517 15.9303 16.4876 16.3611 15.9357 16.3405Z" fill="#40B4E5" fill-rule="evenodd" clip-rule="evenodd"/><path d="M20.3094 16.6737C20.6284 17.1245 20.5215 17.7486 20.0706 18.0676 18.4598 19.2071 18.2031 20.8973 18.8297 21.7841 19.1485 22.2351 19.0412 22.8591 18.5902 23.1779 18.1392 23.4966 17.5151 23.3894 17.1964 22.9383 15.7031 20.8252 16.7664 17.9553 18.9155 16.4348 19.3664 16.1159 19.9905 16.2228 20.3094 16.6737Z" fill="#40B4E5" fill-rule="evenodd" clip-rule="evenodd"/><path d="M47.3262 0.472527C45.8532-0.0184711 44.2918-0.147397 42.7414 0.183198 41.2042 0.510994 39.8143 1.23534 38.6559 2.29257L38.6554 2.29304C37.7564 3.1146 36.8031 4.55592 36.5794 6.30021 36.3475 8.10764 36.9151 10.1294 38.8873 11.9719 39.2909 12.349 39.9237 12.3275 40.3007 11.9239 40.6777 11.5203 40.6562 10.8875 40.2527 10.5105 38.7248 9.08306 38.4175 7.68978 38.5631 6.55471 38.7168 5.3565 39.3936 4.32782 40.0046 3.76938 40.906 2.94687 41.976 2.39138 43.1585 2.13922 44.3282 1.88982 45.5267 1.98089 46.6938 2.36989 47.8678 2.76123 49.0297 3.45468 50.0796 4.40321 51.1328 5.35479 52.1051 6.57605 52.8947 8.0049 53.6861 9.43686 54.3013 11.0626 54.671 12.8354 55.0414 14.6114 55.1347 16.3513 54.9843 17.9686 54.8338 19.5864 54.4396 21.0901 53.8559 22.4057 53.2768 23.7108 52.4964 24.8004 51.5734 25.6258 50.6525 26.4492 49.5876 27.0124 48.4114 27.2632 47.2418 27.5126 46.0432 27.4215 44.8762 27.0325 44.3152 26.8455 43.0493 26.2571 42.2661 25.1305 41.5496 24.0996 41.1011 22.425 42.4644 19.6984 42.7114 19.2044 42.5112 18.6038 42.0172 18.3568 41.5232 18.1098 40.9225 18.31 40.6756 18.804 39.0388 22.0774 39.4254 24.5478 40.6239 26.272 41.7557 27.9003 43.4848 28.6769 44.2438 28.9299 45.7167 29.4209 47.2782 29.5498 48.8285 29.2192 50.3723 28.89 51.7474 28.1532 52.9066 27.1166 54.0636 26.082 55.0031 24.7516 55.6841 23.2168 56.3604 21.6924 56.8062 19.9761 56.9757 18.1538 57.1452 16.3311 57.0385 14.3911 56.6289 12.427 56.2186 10.4599 55.5339 8.64556 54.6452 7.03752 53.7548 5.42637 52.6472 4.02763 51.4204 2.91921 50.1902 1.80774 48.7922 0.961187 47.3262 0.472527Z" fill="#065BAA" fill-rule="evenodd" clip-rule="evenodd"/><path d="M49.5103 10.1286C49.0289 9.85784 48.4192 10.0286 48.1485 10.51 47.6348 11.4235 46.7176 12.0916 45.4517 12.6803 44.5996 13.0766 43.6976 13.3934 42.7403 13.7296 42.2376 13.9061 41.7196 14.088 41.1856 14.2896 39.7094 14.8469 38.1719 15.5386 37.002 16.6475 35.7875 17.7987 35.0202 19.3492 35.0001 21.4808L35 21.4902 35.0001 21.4902C35.0001 25.6189 37.2344 28.7898 39.2975 31.7175 39.361 31.8075 39.4242 31.8973 39.4873 31.9869 41.6563 35.0691 43.6101 37.9667 43.6101 41.8202 43.6101 44.7417 42.6042 46.3636 41.6194 47.4174 41.2424 47.821 41.2638 48.4538 41.6673 48.8308 42.0709 49.2079 42.7037 49.1865 43.0807 48.7829 44.376 47.3968 45.6101 45.2986 45.6101 41.8202 45.6101 37.2536 43.2589 33.8712 41.1229 30.8359L41.0729 30.765C38.9029 27.6815 37.0018 24.9802 37.0001 21.4949 37.0161 19.9042 37.561 18.8734 38.3779 18.0991 39.2402 17.2817 40.4545 16.7034 41.892 16.1607 42.3293 15.9957 42.7971 15.831 43.2764 15.6623 44.2913 15.3051 45.3577 14.9297 46.2951 14.4938 47.7089 13.8363 49.0754 12.9419 49.8917 11.4904 50.1624 11.009 49.9916 10.3993 49.5103 10.1286Z" fill="#065BAA" fill-rule="evenodd" clip-rule="evenodd"/><path d="M43.5365 5.91826C43.0765 6.22387 42.9513 6.84454 43.257 7.30456 43.9011 8.27417 43.6369 9.58363 42.6665 10.2283 42.2065 10.5339 42.0813 11.1545 42.387 11.6146 42.6926 12.0746 43.3132 12.1998 43.7733 11.8942 45.6629 10.6388 46.1787 8.08824 44.9228 6.19785 44.6172 5.73783 43.9966 5.61265 43.5365 5.91826Z" fill="#40B4E5" fill-rule="evenodd" clip-rule="evenodd"/><path d="M48.1173 16.3405C49.9028 16.2741 51.0494 17.3913 51.0909 18.4407 51.1127 18.9926 51.5777 19.4223 52.1296 19.4004 52.6814 19.3786 53.1111 18.9136 53.0893 18.3617 52.9908 15.8711 50.5573 14.2484 48.0429 14.3419 47.491 14.3625 47.0602 14.8265 47.0808 15.3784 47.1013 15.9303 47.5654 16.3611 48.1173 16.3405Z" fill="#40B4E5" fill-rule="evenodd" clip-rule="evenodd"/><path d="M43.7435 16.6737C43.4246 17.1245 43.5315 17.7486 43.9824 18.0676 45.5932 19.2071 45.8499 20.8973 45.2232 21.7841 44.9045 22.2351 45.0118 22.8591 45.4628 23.1779 45.9138 23.4966 46.5378 23.3894 46.8566 22.9383 48.3499 20.8252 47.2866 17.9553 45.1374 16.4348 44.6866 16.1159 44.0625 16.2228 43.7435 16.6737Z" fill="#40B4E5" fill-rule="evenodd" clip-rule="evenodd"/></svg>