<svg width="64" height="64" viewBox="0 0 64 64" xmlns="http://www.w3.org/2000/svg" xmlns:xlink="http://www.w3.org/1999/xlink" fill="none" overflow="hidden"><defs><clipPath id="clip0_195_1080"><rect x="0" y="0" width="62.79" height="63" fill="#FFFFFF" transform="translate(1 0)"/></clipPath></defs><g clip-path="url(#clip0_195_1080)"><path d="M43.79 57.16C43.79 57.16 52.64 63.33 59.79 57.16 59.79 57.16 56.2 62.89 47.91 60.35 47.91 60.35 44.07 58.91 43.79 57.16Z" fill="#B4D6F1" fill-opacity="0.5"/><path d="M34.1344 31.8165C34.0379 31.9445 33.939 32.0737 33.8394 32.2004L33.8376 32.2027C32.8143 33.4966 31.6967 34.6217 30.5302 35.5727 31.5632 35.7655 32.8153 35.843 34.1817 35.7498L34.1841 35.7496C36.093 35.624 37.7553 35.1947 38.8947 34.6403 39.4668 34.3619 39.8608 34.0744 40.0941 33.8193 40.3254 33.5665 40.3401 33.4157 40.337 33.3614L40.3369 33.361C40.3337 33.3044 40.3027 33.1612 40.051 32.9468 39.7947 32.7284 39.3749 32.4977 38.7766 32.299 37.6181 31.9142 35.981 31.7119 34.1344 31.8165ZM42.3337 33.2467C42.2898 32.4804 41.8707 31.8697 41.3482 31.4245 40.8303 30.9832 40.1518 30.6483 39.407 30.4009 37.9122 29.9044 35.9444 29.6924 33.8439 29.8306 33.8264 29.8317 33.8089 29.8333 33.7914 29.8354 33.6649 29.8505 33.6377 29.8535 33.6046 29.8535 33.2869 29.8535 32.9881 30.0045 32.7996 30.2603 32.6259 30.496 32.4457 30.7371 32.268 30.9633 30.902 32.6901 29.3626 34.0741 27.7886 35.1071 27.486 35.3057 27.3144 35.6524 27.3398 36.0134 27.3653 36.3745 27.5838 36.6936 27.9113 36.8478 29.4789 37.5862 31.8241 37.9152 34.3167 37.7452 36.4193 37.6068 38.3463 37.1313 39.7698 36.4386 40.4793 36.0934 41.1103 35.6716 41.5699 35.1691 42.0314 34.6645 42.3773 34.0096 42.3337 33.2472" fill="#40B4E5" fill-rule="evenodd" clip-rule="evenodd"/><path d="M27.6245 15.3717C25.0248 16.0972 22.2482 17.8727 19.9601 20.5699 17.6724 23.2668 16.3671 26.3055 16.0672 29.0033 15.7664 31.7087 16.4776 33.9531 18.0519 35.2985 19.6255 36.6434 21.9404 36.99 24.5463 36.2628 27.1461 35.5373 29.9227 33.7617 32.2107 31.0646 34.4985 28.3677 35.8038 25.329 36.1037 22.6312 36.4044 19.9258 35.6933 17.6813 34.119 16.3359 32.5453 14.9911 30.2305 14.6444 27.6245 15.3717ZM27.087 13.4453C30.1155 12.6001 33.1868 12.9084 35.4184 14.8155 37.6494 16.7221 38.44 19.717 38.0915 22.8522 37.7421 25.995 36.2471 29.3981 33.7359 32.3583 31.225 35.3182 28.1187 37.3423 25.0839 38.1892 22.0554 39.0343 18.9841 38.7261 16.7525 36.8189 14.5215 34.9123 13.7309 31.9175 14.0794 28.7823 14.4288 25.6395 15.9238 22.2363 18.435 19.2761 20.9459 16.3162 24.0522 14.2921 27.087 13.4453Z" fill="#065BAA" fill-rule="evenodd" clip-rule="evenodd"/><path d="M28.3485 21.6878C27.2927 22.2703 26.0227 23.3252 24.8273 24.7361 23.6316 26.1473 22.7943 27.5769 22.3883 28.7184 22.184 29.2927 22.1074 29.7424 22.1154 30.0536 22.1192 30.2051 22.1426 30.2998 22.1629 30.3521 22.1727 30.3773 22.1812 30.3913 22.1857 30.3979 22.19 30.4041 22.1925 30.4062 22.1933 30.4069 22.1946 30.408 22.1975 30.4103 22.2047 30.4138 22.2123 30.4174 22.2278 30.4236 22.2543 30.4292 22.3094 30.4409 22.4063 30.4487 22.5556 30.4284 22.8623 30.3866 23.2915 30.2397 23.8227 29.9466 24.8785 29.3641 26.1484 28.3092 27.3438 26.8984 28.54 25.4866 29.3771 24.0597 29.783 22.9199 29.9872 22.3466 30.0637 21.8973 30.0558 21.5856 30.0519 21.4338 30.0286 21.3381 30.0077 21.2842 29.9931 21.2463 29.9807 21.231 29.9757 21.2259 29.9739 21.2246 29.9711 21.2228 29.9664 21.2207 29.9588 21.217 29.9433 21.2108 29.9169 21.2052 29.8618 21.1935 29.7649 21.1857 29.6156 21.206 29.3089 21.2478 28.8797 21.3947 28.3485 21.6878ZM29.3457 19.2243C29.9816 19.1377 30.6998 19.2171 31.2718 19.7025L31.2762 19.7063 31.2762 19.7063C31.8455 20.195 32.0388 20.8917 32.0552 21.5346 32.0716 22.1781 31.9188 22.8841 31.6671 23.5909 31.1612 25.0115 30.1803 26.6446 28.8697 28.1913 27.5584 29.7389 26.1071 30.9705 24.7888 31.6978 24.133 32.0596 23.462 32.3234 22.8254 32.4101 22.1896 32.4967 21.4714 32.4173 20.8994 31.9319 20.3255 31.4451 20.1324 30.7464 20.116 30.1046 20.0996 29.4616 20.2524 28.7553 20.504 28.0481 21.0097 26.6263 21.9905 24.9903 23.3014 23.4431 24.6128 21.8955 26.0641 20.6639 27.3823 19.9366 28.0382 19.5748 28.7092 19.311 29.3457 19.2243Z" fill="#40B4E5" fill-rule="evenodd" clip-rule="evenodd"/><path d="M35.6364 24.5338C35.7625 24.0564 36.2182 23.7425 36.7092 23.7948 39.806 24.1245 42.5961 25.1502 44.6723 26.6967 46.7506 28.2448 48.1619 30.3595 48.3227 32.829L48.3227 32.8299C48.5107 35.7597 46.8918 38.3999 44.3782 40.314 41.8581 42.233 38.3477 43.5074 34.4499 43.7481 28.4257 44.1204 22.8836 41.9183 20.4948 38.1809 20.2942 37.8671 20.2847 37.4678 20.47 37.1448 20.6553 36.8217 21.0048 36.6284 21.3769 36.6431 24.6815 36.7739 28.8276 34.8502 32.0549 31.1075 33.8601 29.012 35.0619 26.7096 35.6364 24.5338ZM37.3208 25.8905C36.5978 28.1146 35.3318 30.3679 33.5701 32.4129L33.5698 32.4132C30.6451 35.8052 26.8994 37.9813 23.3759 38.5189 25.6731 40.6557 29.6872 42.0386 34.3265 41.7519L34.3266 41.7519C37.8846 41.5322 41.0024 40.3707 43.1665 38.7228 45.3369 37.0701 46.4584 35.0127 46.3269 32.9586 46.2135 31.2187 45.2157 29.5953 43.4776 28.3007 41.9099 27.1329 39.7795 26.2689 37.3208 25.8905Z" fill="#065BAA" fill-rule="evenodd" clip-rule="evenodd"/><path d="M10.0844 10.7638C10.502 11.1253 10.5476 11.7568 10.1862 12.1744 5.70794 17.349 3 24.1086 3 31.5 3 47.7911 16.1657 61 32.39 61 36.6271 61 40.649 60.1006 44.2841 58.4861 44.7888 58.2619 45.3797 58.4894 45.6039 58.9941 45.8281 59.4988 45.6007 60.0897 45.0959 60.3139 41.211 62.0394 36.9129 63 32.39 63 15.0543 63 1 48.8889 1 31.5 1 23.6114 3.89206 16.391 8.67385 10.8656 9.03526 10.448 9.66678 10.4024 10.0844 10.7638Z" fill="#065BAA" fill-rule="evenodd" clip-rule="evenodd"/><path d="M32.39 2C25.0114 2 18.2727 4.72599 13.1075 9.23345 12.6914 9.59658 12.0597 9.55362 11.6966 9.1375 11.3334 8.72139 11.3764 8.08968 11.7925 7.72655 17.3073 2.91401 24.5087 0 32.39 0 49.7359 0 63.78 14.1114 63.78 31.5 63.78 36.0324 62.8197 40.349 61.1056 44.2521 60.8836 44.7578 60.2936 44.9877 59.7879 44.7656 59.2823 44.5435 59.0524 43.9536 59.2744 43.4479 60.8804 39.791 61.78 35.7476 61.78 31.5 61.78 15.2086 48.6241 2 32.39 2Z" fill="#065BAA" fill-rule="evenodd" clip-rule="evenodd"/><path d="M50.39 39.94C50.39 39.3877 50.8377 38.94 51.39 38.94L51.79 38.94C58.4152 38.94 63.79 44.3307 63.79 50.98 63.79 57.6299 58.4246 63.01 51.79 63.01 45.1547 63.01 39.79 57.6193 39.79 50.98 39.79 46.1055 42.6705 41.9175 46.8246 40.0204 47.3269 39.7909 47.9202 40.0122 48.1496 40.5146 48.379 41.017 48.1578 41.6102 47.6554 41.8396 44.1895 43.4225 41.79 46.9146 41.79 50.98 41.79 56.5207 46.2652 61.01 51.79 61.01 57.3153 61.01 61.79 56.5301 61.79 50.98 61.79 45.4293 57.3047 40.94 51.79 40.94L51.39 40.94C50.8377 40.94 50.39 40.4923 50.39 39.94Z" fill="#065BAA" fill-rule="evenodd" clip-rule="evenodd"/><path d="M51.79 49.99C51.2456 49.99 50.81 50.429 50.81 50.97 50.81 51.511 51.2456 51.95 51.79 51.95 52.3377 51.95 52.77 51.5177 52.77 50.97 52.77 50.429 52.3344 49.99 51.79 49.99ZM48.81 50.97C48.81 49.331 50.1344 47.99 51.79 47.99 53.4456 47.99 54.77 49.331 54.77 50.97 54.77 52.6223 53.4423 53.95 51.79 53.95 50.1344 53.95 48.81 52.609 48.81 50.97Z" fill="#40B4E5" fill-rule="evenodd" clip-rule="evenodd"/><path d="M50.0079 43.8653C50.8637 42.5816 52.7462 42.5816 53.602 43.8653L53.6041 43.8684 54.012 44.4853C54.0122 44.4856 54.0124 44.4859 54.0126 44.4862 54.0246 44.5038 54.0467 44.5284 54.1051 44.5514 54.2979 44.6199 54.4889 44.6985 54.6783 44.787 54.7474 44.8154 54.7863 44.8127 54.8027 44.8096 54.8031 44.8096 54.8035 44.8095 54.8039 44.8094L55.5362 44.6589C57.0555 44.3588 58.3667 45.707 58.071 47.2038L58.0695 47.2113 57.9195 47.9413 57.919 47.944C57.9137 47.9691 57.9165 48.0059 57.9321 48.0385L57.9348 48.0442C58.0288 48.2439 58.1143 48.4507 58.1887 48.6738 58.1986 48.7036 58.2202 48.7313 58.2439 48.7474 58.2437 48.7473 58.2442 48.7476 58.2439 48.7474L58.8647 49.1579C60.1484 50.0138 60.1484 51.9062 58.8647 52.762L58.8616 52.7641 58.2617 53.1608C58.2268 53.1878 58.2011 53.2203 58.1807 53.2699 58.1104 53.4775 58.0304 53.6711 57.943 53.8583 57.9146 53.9274 57.9173 53.9663 57.9203 53.9827 57.9204 53.9831 57.9205 53.9835 57.9206 53.9839L58.0686 54.7046C58.0688 54.7054 58.069 54.7061 58.0691 54.7069 58.3862 56.2256 57.0401 57.5581 55.5362 57.261L55.5287 57.2596 54.8039 57.1106C54.8033 57.1105 54.8028 57.1104 54.8023 57.1103 54.7636 57.1028 54.7354 57.1068 54.7057 57.1201 54.5074 57.2186 54.3005 57.3034 54.086 57.3754 54.0762 57.3791 54.0623 57.3862 54.0474 57.3978 54.0317 57.4099 54.02 57.4229 54.0125 57.4339 54.0124 57.4342 54.0127 57.4337 54.0125 57.4339L53.6041 58.0516 53.602 58.0547C52.7462 59.3384 50.8637 59.3384 50.0079 58.0547L50.0059 58.0516 49.5979 57.4347C49.5977 57.4344 49.5975 57.4341 49.5974 57.4339 49.5854 57.4162 49.5633 57.3916 49.5049 57.3686 49.3121 57.3001 49.121 57.2215 48.9317 57.133 48.8626 57.1046 48.8236 57.1073 48.8072 57.1104 48.8068 57.1104 48.8065 57.1105 48.8061 57.1106L48.0738 57.2611C46.5544 57.5612 45.2433 56.213 45.5389 54.7162L45.5404 54.7087 45.6904 53.9787 45.691 53.976C45.6962 53.9509 45.6935 53.9141 45.6778 53.8815L45.6751 53.8758C45.5812 53.6761 45.4956 53.4693 45.4213 53.2462 45.4113 53.2164 45.3897 53.1886 45.366 53.1726 45.3658 53.1724 45.3663 53.1727 45.366 53.1726L44.7484 52.7641 44.7453 52.762C43.4615 51.9062 43.4615 50.0138 44.7453 49.1579L44.7484 49.1559 45.3482 48.7592C45.3832 48.7322 45.4089 48.6997 45.4292 48.6501 45.4995 48.4425 45.5795 48.2489 45.6669 48.0617 45.6953 47.9926 45.6927 47.9537 45.6896 47.9373L45.5408 47.213C45.2237 45.6943 46.5699 44.3619 48.0738 44.659L48.0813 44.6604 48.8077 44.8097C48.8463 44.8172 48.8746 44.8132 48.9042 44.7999 49.1025 44.7014 49.3094 44.6166 49.5239 44.5446 49.5337 44.5409 49.5477 44.5338 49.5626 44.5222 49.5783 44.5101 49.59 44.497 49.5974 44.486 49.5973 44.4863 49.5976 44.4858 49.5974 44.486L50.0059 43.8684 50.0079 43.8653ZM51.6726 44.9738C51.6724 44.9741 51.6722 44.9744 51.672 44.9747L51.2641 45.5916 51.262 45.5947C51.0002 45.9875 50.6127 46.2835 50.1785 46.4345L50.1662 46.4388C50.0284 46.4847 49.9024 46.5368 49.7872 46.5944L49.7714 46.6021C49.3431 46.807 48.8725 46.8623 48.4139 46.7706L48.4087 46.7695 47.6841 46.6206C47.6307 46.6107 47.5818 46.6259 47.5413 46.6667 47.5009 46.7072 47.4879 46.7535 47.4986 46.8046L47.4995 46.8087 47.6506 47.5439C47.7473 48.0275 47.6636 48.4856 47.497 48.8687 47.4931 48.8778 47.489 48.8868 47.4848 48.8958 47.4188 49.0361 47.3643 49.1693 47.3187 49.3062 47.3148 49.3179 47.3106 49.3296 47.3063 49.3411 47.149 49.7605 46.8787 50.1241 46.5012 50.3937 46.4914 50.4007 46.4816 50.4075 46.4716 50.4141L45.8547 50.8221C45.8544 50.8222 45.8541 50.8224 45.8538 50.8226 45.7587 50.8869 45.7587 51.0331 45.8538 51.0974 45.8541 51.0976 45.8544 51.0978 45.8547 51.0979L46.4716 51.5059 46.4747 51.5079C46.8707 51.7719 47.1687 52.1639 47.3187 52.6138 47.364 52.75 47.4182 52.8825 47.4837 53.0219 47.6866 53.448 47.7433 53.9293 47.6493 54.3825 47.6492 54.383 47.6491 54.3835 47.649 54.384L47.5006 55.1059C47.4781 55.2273 47.5847 55.3176 47.6843 55.2993L48.4139 55.1494C48.8975 55.0527 49.3556 55.1364 49.7387 55.3029 49.7478 55.3069 49.7568 55.311 49.7658 55.3152 49.9067 55.3815 50.0457 55.4386 50.1828 55.487L50.2011 55.4937C50.6172 55.6497 50.9942 55.9236 51.262 56.3253L51.2641 56.3284 51.672 56.9453C51.6722 56.9456 51.6724 56.9459 51.6726 56.9462 51.7368 57.0413 51.8731 57.0413 51.9373 56.9462 51.9375 56.9459 51.9377 56.9456 51.9379 56.9453L52.3459 56.3284 52.3479 56.3253C52.6098 55.9325 52.9973 55.6365 53.4314 55.4855L53.4437 55.4812C53.5815 55.4353 53.7076 55.3832 53.8228 55.3256L53.8385 55.3179C54.2669 55.113 54.7374 55.0577 55.1961 55.1494L55.2012 55.1504 55.9259 55.2994C55.9792 55.3093 56.0281 55.2941 56.0687 55.2533 56.109 55.2128 56.122 55.1665 56.1113 55.1154L56.1104 55.1113 55.9594 54.3761C55.8626 53.8925 55.9463 53.4344 56.1129 53.0513 56.1168 53.0422 56.1209 53.0332 56.1252 53.0242 56.1912 52.8839 56.2456 52.7507 56.2913 52.6138 56.2952 52.6021 56.2993 52.5904 56.3036 52.5789 56.4609 52.1595 56.7313 51.7959 57.1087 51.5263 57.1185 51.5193 57.1284 51.5125 57.1384 51.5059L57.7553 51.0979C57.7556 51.0978 57.7558 51.0976 57.7561 51.0974 57.8513 51.0331 57.8513 50.8869 57.7561 50.8226 57.7558 50.8224 57.7556 50.8222 57.7553 50.8221L57.1384 50.4141 57.1353 50.4121C56.7393 50.1481 56.4412 49.7561 56.2913 49.3062 56.2459 49.17 56.1918 49.0375 56.1262 48.8981 55.9235 48.4722 55.8666 47.9911 55.9606 47.538 55.9607 47.5373 55.9609 47.5367 55.961 47.536L56.1093 46.8141C56.1319 46.6927 56.0252 46.6025 55.9257 46.6207L55.1961 46.7706C54.7124 46.8673 54.2544 46.7836 53.8712 46.6171 53.8622 46.6131 53.8531 46.609 53.8442 46.6048 53.7032 46.5385 53.5642 46.4814 53.4271 46.433L53.4088 46.4263C52.9927 46.2703 52.6157 45.9964 52.3479 45.5947L52.3458 45.5916 51.9379 44.9747C51.9377 44.9744 51.9375 44.9741 51.9373 44.9738 51.8731 44.8787 51.7368 44.8787 51.6726 44.9738Z" fill="#065BAA" fill-rule="evenodd" clip-rule="evenodd"/></g></svg>