<svg width="64" height="64" viewBox="0 0 64 64" xmlns="http://www.w3.org/2000/svg" xmlns:xlink="http://www.w3.org/1999/xlink" fill="none" overflow="hidden"><path d="M19.5 9C19.5 6.83333 19 2.5 17 2.5L12.6623 2.5C11.371 2.5 10.2246 3.32629 9.81623 4.55132L8.75 7.75 5.36271 8.48637C3.98364 8.78616 3 10.0066 3 11.4179L3 15.5C3 17.5 7.33333 18 9.5 18L42.5 49C43.1667 52.3333 44 60 46 60 48.5 60 55 58 55 54 59 54 61.5 48 61.5 45.5 61.5 43.5 54.3333 42.1667 51 41.5L22.5 13" stroke="#1543B6" stroke-width="2" stroke-linecap="round"/><path d="M26 41 26 50.5" stroke="#40B4E5" stroke-width="2" stroke-linecap="round"/><path d="M21.1763 38 12 40.4588" stroke="#40B4E5" stroke-width="2" stroke-linecap="round"/><path d="M23.75 39 19 47.2272" stroke="#40B4E5" stroke-width="2" stroke-linecap="round"/></svg>