<svg width="64" height="64" viewBox="0 0 64 64" xmlns="http://www.w3.org/2000/svg" xmlns:xlink="http://www.w3.org/1999/xlink" fill="none" overflow="hidden"><path d="M54 36 54 26 56 26 56 36C56 37.6569 54.6569 39 53 39L38 39 38 37 53 37C53.5523 37 54 36.5523 54 36Z" fill="#B4D6F1" fill-rule="evenodd" fill-opacity="0.5" clip-rule="evenodd"/><path d="M6 23 6 41 23 41 23 58 35 58C35.5523 58 36 58.4477 36 59 36 59.5523 35.5523 60 35 60L23 60C21.8954 60 21 59.1046 21 58L21 43 6 43C4.89543 43 4 42.1046 4 41L4 23C4 21.8954 4.89543 21 6 21L21 21 21 6C21 4.89543 21.8954 4 23 4L41 4C42.1046 4 43 4.89543 43 6L43 21 58 21C59.1046 21 60 21.8954 60 23L60 41C60 42.1046 59.1046 43 58 43L43 43 43 58C43 59.1046 42.1046 60 41 60L39.5 60C38.9477 60 38.5 59.5523 38.5 59 38.5 58.4477 38.9477 58 39.5 58L41 58 41 41 58 41 58 23 41 23 41 6 23 6 23 23 6 23Z" fill="#065BAA"/><path d="M39.0357 9C38.4834 9 38.0357 9.44772 38.0357 10L38.0357 25.875 54 25.875C54.5523 25.875 55 26.3227 55 26.875L55 37.125C55 37.6773 54.5523 38.125 54 38.125L38.0357 38.125 38.0357 54C38.0357 54.5523 37.588 55 37.0357 55L26.9643 55C26.412 55 25.9643 54.5523 25.9643 54L25.9643 38.125 10 38.125C9.44772 38.125 9 37.6773 9 37.125L9 26.875C9 26.3227 9.44772 25.875 10 25.875L23.9643 25.875 23.9643 23.875 10 23.875C8.34314 23.875 7 25.2181 7 26.875L7 37.125C7 38.7819 8.34315 40.125 10 40.125L23.9643 40.125 23.9643 54C23.9643 55.6569 25.3074 57 26.9643 57L37.0357 57C38.6926 57 40.0357 55.6569 40.0357 54L40.0357 40.125 54 40.125C55.6569 40.125 57 38.7818 57 37.125L57 26.875C57 25.2181 55.6569 23.875 54 23.875L40.0357 23.875 40.0357 10C40.0357 9.44772 39.588 9 39.0357 9Z" fill="#40B4E5" fill-rule="evenodd" clip-rule="evenodd"/></svg>