<svg width="64" height="64" viewBox="0 0 64 64" xmlns="http://www.w3.org/2000/svg" xmlns:xlink="http://www.w3.org/1999/xlink" fill="none" overflow="hidden"><defs><clipPath id="clip0_237_222"><rect x="0" y="0" width="63.73" height="60.52" fill="#FFFFFF" transform="matrix(1 0 0 1 0 2)"/></clipPath></defs><g clip-path="url(#clip0_237_222)"><path d="M5.16 61.52C4.56 56.49 4.07 47.32 3.93 45.17 3.68 41.31 1 41.05 1 39.53 1 38.01 1.59 38.64 1.6 36.42 1.6 34.2 3.52 32.35 3.87 33.58 4.22 34.81 7.05 35.09 7.97 33.7 6.24 38.3 3.83 37.29 5.49 41.28 7.15 45.27 7.07 61.53 7.07 61.53L5.16 61.53 5.16 61.52Z" fill="#B4D6F1" fill-opacity="0.5"/><path d="M58.57 61.52C59.17 56.49 59.66 47.32 59.8 45.17 60.05 41.31 62.73 41.05 62.73 39.53 62.73 38.01 62.14 38.64 62.13 36.42 62.12 34.2 60.21 32.35 59.86 33.58 59.51 34.81 56.68 35.09 55.76 33.7 57.49 38.3 59.9 37.29 58.24 41.28 56.58 45.27 56.66 61.53 56.66 61.53L58.57 61.53 58.57 61.52Z" fill="#B4D6F1" fill-opacity="0.5"/><path d="M52.02 28.98C53.76 29.75 54.56 31.87 55.76 33.7 56.68 35.1 59.51 34.81 59.86 33.58 60.21 32.35 62.12 34.2 62.13 36.42 62.13 38.64 62.74 38.01 62.73 39.53 62.72 41.05 60.05 41.31 59.8 45.17 59.66 47.32 59.18 56.49 58.57 61.52" stroke="#065BAA" stroke-width="2" stroke-linecap="round" stroke-linejoin="round"/><path d="M53.65 61.52C53.7 58.04 53.58 50.45 53.37 49.08 52.74 44.97 52.12 47.28 50.99 43.8 49.86 40.32 53.61 41.77 52.22 38.12 51.16 35.35 49.44 37.57 47.64 36.4" stroke="#065BAA" stroke-width="2" stroke-linecap="round" stroke-linejoin="round"/><path d="M11.53 29.06C9.91 29.9 9.13 31.93 7.97 33.7 7.05 35.1 4.22 34.81 3.87 33.58 3.52 32.35 1.61 34.2 1.6 36.42 1.59 38.64 0.990002 38.01 1 39.53 1.01 41.05 3.68 41.31 3.93 45.17 4.07 47.32 4.55 56.49 5.16 61.52" stroke="#065BAA" stroke-width="2" stroke-linecap="round" stroke-linejoin="round"/><path d="M10.08 61.52C10.03 58.04 10.15 50.45 10.36 49.08 10.99 44.97 11.61 47.28 12.74 43.8 13.87 40.32 10.12 41.77 11.51 38.12 12.57 35.35 14.29 37.57 16.09 36.4" stroke="#065BAA" stroke-width="2" stroke-linecap="round" stroke-linejoin="round"/><path d="M30.43 35.91C30.43 35.91 30.02 35.59 28.66 35.91 27.3 36.23 26.52 36.3 24.44 32.84 24.17 32.39 23.74 31.35 23.74 31.35 23.69 30.88 23.98 30.57 24.73 30.18 26.06 29.49 22.99 28.82 21.49 25.93 21.27 25.5 20 22.74 22.79 21.91M26.44 10.36C27.11 10.24 24.85 8.59 24.53 6.95 24.21 5.3 22.53 2.91 19.03 3 15.53 3.09 13.1 3.12 9.16001 6.21 5.22001 9.3 5.29001 15.37 6.38001 19.48 7.28001 22.86 9.16001 21.19 10.37 23.18 11.59 25.18 11.94 26.09 11.76 27.96 11.61 29.53 13.14 28.53 15.2 30.94 16.42 32.36 16.73 33.84 16.36 35.26 15.98 36.68 18.47 38.17 18.13 41.07 17.78 43.96 18.13 44.05 20.24 45.5 22.35 46.95 24.52 47.58 25.3 46.19 26.08 44.8 26.79 46.12 27.5 45.09 28.87 43.09 29.99 41.47 30.86 41.29" stroke="#065BAA" stroke-width="2" stroke-linecap="round" stroke-linejoin="round"/><path d="M32.86 41.29C33.73 41.46 34.84 43.09 36.22 45.09 36.93 46.12 37.64 44.8 38.42 46.19 39.2 47.58 41.37 46.94 43.48 45.5 45.59 44.05 45.94 43.97 45.59 41.07 45.24 38.18 47.73 36.68 47.36 35.26 46.98 33.84 47.3 32.36 48.52 30.94 50.58 28.54 52.11 29.53 51.96 27.96 51.78 26.09 52.13 25.18 53.35 23.18 54.57 21.18 56.45 22.86 57.34 19.48 58.43 15.37 58.5 9.3 54.56 6.21 50.62 3.12 48.19 3.08 44.69 3 41.19 2.91 39.51 5.31 39.19 6.95 38.87 8.6 36.61 10.25 37.28 10.36M40.93 21.91C43.72 22.75 42.46 25.5 42.23 25.93 40.73 28.82 37.66 29.49 38.99 30.18 39.74 30.57 40.03 30.88 39.98 31.35 39.98 31.35 39.56 32.39 39.28 32.84 37.19 36.3 36.42 36.23 35.06 35.91 33.7 35.59 33.29 35.91 33.29 35.91" stroke="#065BAA" stroke-width="2" stroke-linecap="round" stroke-linejoin="round"/><path d="M41.67 13.31C41.81 11.95 41.67 10.07 39.96 9.4 38.25 8.73 37.94 10.44 37.27 10.35 34.87 10.05 33.92 10.74 31.85 10.74 29.78 10.74 28.84 10.05 26.43 10.35 25.76 10.43 25.45 8.73 23.74 9.4 22.03 10.07 21.89 11.95 22.03 13.31 22.17 14.67 20.86 16.33 21.74 19.01 22.49 21.3 23.3 21.61 24.81 21.59 26.31 21.56 25.65 22.26 25.59 23.15 25.53 24.04 26.34 23.35 26.2 25.09 26.06 26.83 26.34 27.59 27.3 28.27 28.4 29.05 28.46 28.96 28.08 29.57 27.7 30.18 27.56 30.06 28.17 30.7 28.78 31.34 29.24 31.54 29.88 31.54 30.52 31.54 30.29 31.95 29.88 32 29.47 32.05 29.62 32.52 29.74 32.9 29.86 33.28 30.26 33.39 30.58 33.42 30.81 33.44 30.63 33.61 30.41 33.61 30.19 33.61 30.21 34.07 30.5 34.07 30.79 34.07 31.07 34.13 31.11 34.55 31.15 34.98 31.19 35.05 31.44 35.06 31.69 35.07 31.54 35.47 31.84 35.47 32.14 35.47 31.99 35.08 32.24 35.06 32.49 35.06 32.53 34.97 32.57 34.55 32.61 34.12 32.89 34.06 33.18 34.07 33.48 34.07 33.49 33.61 33.27 33.61 33.05 33.61 32.87 33.44 33.1 33.42 33.42 33.39 33.82 33.28 33.94 32.9 34.06 32.52 34.2 32.06 33.8 32 33.39 31.94 33.16 31.54 33.8 31.54 34.44 31.54 34.9 31.34 35.51 30.7 36.12 30.06 35.97 30.18 35.6 29.57 35.22 28.96 35.28 29.05 36.38 28.27 37.34 27.59 37.62 26.82 37.48 25.09 37.34 23.35 38.15 24.05 38.09 23.15 38.03 22.25 37.37 21.56 38.87 21.59 40.37 21.62 41.18 21.3 41.94 19.01 42.82 16.33 41.51 14.67 41.65 13.31L41.67 13.31Z" stroke="#40B4E5" stroke-width="2" stroke-linecap="round" stroke-linejoin="round"/><path d="M31.26 41C31.41 40.22 31.14 39.61 30.47 39.19 29.79 38.77 30.15 36.31 30.57 35.88 31.14 35.31 32.74 35.36 33.15 35.88 33.53 36.35 33.93 38.77 33.25 39.19 32.57 39.61 32.32 40.21 32.46 41 32.58 41.71 31.13 41.68 31.26 41Z" stroke="#065BAA" stroke-width="2" stroke-linecap="round" stroke-linejoin="round"/><path d="M27.84 23.77C27.77 23.32 28.36 22.9 28.62 22.74 29.28 22.33 29.69 22.41 30.27 23.05 30.53 23.33 30.59 23.64 30.43 23.91 30.24 24.23 29.76 24.42 29.21 24.42 29.01 24.42 28.81 24.4 28.6 24.35 28.14 24.24 27.88 24.05 27.84 23.78L27.84 23.77Z" stroke="#40B4E5" stroke-linecap="round" stroke-linejoin="round"/><path d="M30.65 27.59C30.58 27.78 30.05 27.95 30 27.95 29.67 27.95 29.26 27.8 29.01 27.48 28.7 27.07 28.85 26.71 29.07 26.54 29.38 26.28 29.95 26.27 30.32 26.69 30.7 27.12 30.71 27.42 30.64 27.59L30.65 27.59Z" stroke="#40B4E5" stroke-linecap="round" stroke-linejoin="round"/><path d="M35.05 27.49C34.81 27.81 34.4 27.96 34.06 27.96 34.01 27.96 33.48 27.78 33.41 27.6 33.35 27.43 33.35 27.13 33.73 26.7 34.1 26.28 34.67 26.29 34.98 26.55 35.2 26.73 35.35 27.08 35.04 27.49L35.05 27.49Z" stroke="#40B4E5" stroke-linecap="round" stroke-linejoin="round"/><path d="M35.46 24.33C35.25 24.38 35.05 24.4 34.85 24.4 34.3 24.4 33.82 24.21 33.63 23.89 33.48 23.63 33.53 23.32 33.79 23.03 34.37 22.39 34.79 22.31 35.44 22.72 35.7 22.88 36.29 23.3 36.22 23.75 36.18 24.02 35.92 24.21 35.46 24.32L35.46 24.33Z" stroke="#40B4E5" stroke-linecap="round" stroke-linejoin="round"/><path d="M36.08 20.94C35.73 20.81 35.59 21.46 34.63 21.46 34.15 21.46 33.52 20.84 33.34 20.92 32.53 21.27 31.57 21.27 30.76 20.92 30.45 20.84 30.24 21.46 29.18 21.46 28.74 21.46 28.32 20.83 28.04 20.93 27.83 21.01 27.61 21.02 27.4 21 27.83 20.99 28.2 20.8 28.43 20.43 29.04 19.62 30.17 20.37 30.86 20.63 31.61 20.92 32.47 20.92 33.21 20.63 33.59 20.49 33.96 20.27 34.4 20.16 34.82 20.03 35.39 20.01 35.65 20.44 35.88 20.81 36.25 21 36.68 21.01 36.47 21.04 36.26 21.01 36.07 20.94L36.08 20.94Z" stroke="#40B4E5" stroke-linecap="round" stroke-linejoin="round"/><path d="M37.46 19.01C37.18 18.79 35.84 19.41 35.07 19.09 34.74 18.97 33.4 18.45 33.12 18.53 32.46 18.73 31.74 18.76 31.06 18.57 30.74 18.48 30.04 18.46 29.93 18.59 29.13 19.52 27.01 18.7 26.72 18.94 26.5 19.12 26.27 19.3 26.02 19.44 25.74 19.6 25.41 19.68 25.1 19.66 25.42 19.64 25.72 19.53 25.98 19.36 26.51 19.01 26.9 18.33 27.44 17.98 28.27 17.42 29.38 17.38 30.29 17.75 30.59 17.88 30.86 18.18 31.15 18.26 31.72 18.4 32.37 18.4 32.94 18.26 33.23 18.18 33.5 17.88 33.8 17.75 34.42 17.49 35.1 17.45 35.75 17.59 37.08 17.8 37.65 19.55 38.99 19.65 38.39 19.69 37.91 19.37 37.46 19L37.46 19.01Z" stroke="#40B4E5" stroke-linecap="round" stroke-linejoin="round"/><path d="M24.67 42.92C24.67 42.92 23.26 43.45 22.92 43.45 22.29 43.45 21.16 41.7 21.16 41.7 20.11 40.04 21.02 36.73 22.18 36.76 24.11 36.67 25.79 37.63 26.95 39.1 27.33 39.57 25.47 42.6 24.66 42.92L24.67 42.92Z" stroke="#40B4E5" stroke-width="2" stroke-linecap="round" stroke-linejoin="round"/><path d="M36.76 39.1C37.92 37.63 39.6 36.67 41.53 36.76 42.69 36.72 43.6 40.04 42.55 41.7 42.55 41.7 41.42 43.45 40.79 43.45 40.45 43.45 39.04 42.92 39.04 42.92 38.23 42.6 36.37 39.57 36.75 39.1L36.76 39.1Z" stroke="#40B4E5" stroke-width="2" stroke-linecap="round" stroke-linejoin="round"/></g></svg>