<svg width="64" height="64" viewBox="0 0 64 64" xmlns="http://www.w3.org/2000/svg" xmlns:xlink="http://www.w3.org/1999/xlink" fill="none" overflow="hidden"><path d="M42 2 22 2 22 8 42 8 42 2ZM20 0 20 10 44 10 44 0 20 0Z" fill="#FFFFFF" fill-rule="evenodd" clip-rule="evenodd"/><path d="M32.5 21C33.0001 21 34 20.3721 34 18.7941 34 18.6379 33.9193 18.2328 33.6225 17.558 33.3466 16.9309 32.9619 16.2425 32.5512 15.5816 32.5342 15.5541 32.5171 15.5267 32.5 15.4994 32.4829 15.5267 32.4658 15.5541 32.4488 15.5816 32.0381 16.2425 31.6534 16.9309 31.3775 17.558 31.0807 18.2328 31 18.6379 31 18.7941 31 20.3721 31.9999 21 32.5 21ZM31.2796 13.7051C30.2697 15.2165 29 17.395 29 18.7941 29 21.117 30.567 23 32.5 23 34.433 23 36 21.117 36 18.7941 36 17.395 34.7303 15.2165 33.7203 13.7051 33.0535 12.7072 32.5 12 32.5 12 32.5 12 31.9465 12.7072 31.2796 13.7051Z" fill="#40B4E5" fill-rule="evenodd" clip-rule="evenodd"/><path d="M25.5 8.5 25.5 1 26.5 1 26.5 8.5 25.5 8.5Z" fill="#FFFFFF" fill-rule="evenodd" clip-rule="evenodd"/><path d="M37.5 8.5 37.5 1 38.5 1 38.5 8.5 37.5 8.5Z" fill="#FFFFFF" fill-rule="evenodd" clip-rule="evenodd"/><path d="M31.5 8.5 31.5 1 32.5 1 32.5 8.5 31.5 8.5Z" fill="#FFFFFF" fill-rule="evenodd" clip-rule="evenodd"/><path d="M36 38 26 38 26 36 36 36 36 38Z" fill="#40B4E5" fill-rule="evenodd" clip-rule="evenodd"/><path d="M39 25 37 25 37 50 39 50 39 25ZM35 23 35 52 41 52 41 23 35 23Z" fill="#FFFFFF" fill-rule="evenodd" clip-rule="evenodd"/><path d="M26 10 39 10 39 55.5C39 59.0898 36.0899 62 32.5 62 28.9101 62 26 59.0899 26 55.5L26 21C26 20.4477 25.5523 20 25 20L25 20C24.4477 20 24 20.4477 24 21L24 55.5C24 60.1944 27.8056 64 32.5 64 37.1944 64 41 60.1944 41 55.5L41 8 24 8 24 14C24 14.5523 24.4477 15 25 15L25 15C25.5523 15 26 14.5523 26 14L26 10Z" fill="#FFFFFF"/></svg>