<svg width="64" height="64" viewBox="0 0 64 64" xmlns="http://www.w3.org/2000/svg" xmlns:xlink="http://www.w3.org/1999/xlink" fill="none" overflow="hidden"><defs><clipPath id="clip0_479_1455"><rect x="0" y="0" width="64" height="59.43" fill="#FFFFFF" transform="matrix(1 0 0 1 0 2)"/></clipPath></defs><g clip-path="url(#clip0_479_1455)"><path d="M31.78 11.02C32.3323 11.02 32.78 11.4677 32.78 12.02L32.78 17.64C32.78 18.6162 32.113 19.4414 31.2007 19.6855 29.3565 20.1905 28 21.8827 28 23.89L28 55.07C28 57.4777 29.9523 59.43 32.36 59.43L57.64 59.43C60.0477 59.43 62 57.4777 62 55.07L62 35.72C62 35.1677 62.4477 34.72 63 34.72 63.5523 34.72 64 35.1677 64 35.72L64 55.07C64 58.5823 61.1523 61.43 57.64 61.43L32.36 61.43C28.8477 61.43 26 58.5823 26 55.07L26 23.89C26 20.9584 27.9822 18.4913 30.6765 17.7554L30.6836 17.7534 30.6836 17.7535C30.7491 17.7361 30.78 17.6823 30.78 17.64L30.78 12.02C30.78 11.4677 31.2277 11.02 31.78 11.02Z" fill="#FFFFFF" fill-rule="evenodd" clip-rule="evenodd"/><path d="M58.22 11.01C58.7723 11.01 59.22 11.4577 59.22 12.01L59.22 17.63C59.22 17.6723 59.2509 17.7261 59.3164 17.7434L59.3235 17.7453 59.3234 17.7453C62.0178 18.4813 64 20.9484 64 23.88L64 30.7C64 31.2523 63.5523 31.7 63 31.7 62.4477 31.7 62 31.2523 62 30.7L62 23.88C62 21.8726 60.6435 20.1805 58.7993 19.6754 57.887 19.4314 57.22 18.6062 57.22 17.63L57.22 12.01C57.22 11.4577 57.6677 11.01 58.22 11.01Z" fill="#FFFFFF" fill-rule="evenodd" clip-rule="evenodd"/><path d="M26 5.08C26 3.37772 27.3777 2 29.08 2L60.92 2C62.6223 2 64 3.37771 64 5.08L64 9.93C64 11.6323 62.6223 13.01 60.92 13.01L29.08 13.01C27.3777 13.01 26 11.6323 26 9.93L26 5.08ZM29.08 4C28.4823 4 28 4.48228 28 5.08L28 9.93C28 10.5277 28.4823 11.01 29.08 11.01L60.92 11.01C61.5177 11.01 62 10.5277 62 9.93L62 5.08C62 4.48229 61.5177 4 60.92 4L29.08 4Z" fill="#FFFFFF" fill-rule="evenodd" clip-rule="evenodd"/><path d="M49 32C49 30.8954 49.8954 30 51 30L54 30C55.1046 30 56 30.8954 56 32L56 35.5 59.5 35.5C60.6046 35.5 61.5 36.3954 61.5 37.5L61.5 40.5C61.5 41.6046 60.6046 42.5 59.5 42.5L56 42.5 56 46C56 47.1046 55.1046 48 54 48L51 48C49.8954 48 49 47.1046 49 46L49 42.5 45.5 42.5C44.3954 42.5 43.5 41.6046 43.5 40.5L43.5 37.5C43.5 36.3954 44.3954 35.5 45.5 35.5L49 35.5 49 32ZM54 32 51 32 51 37.5 45.5 37.5 45.5 40.5 51 40.5 51 46 54 46 54 40.5 59.5 40.5 59.5 37.5 54 37.5 54 32Z" fill="#40B4E5" fill-rule="evenodd" clip-rule="evenodd"/><path d="M44.17 28.11C41.4423 28.11 39.23 30.3223 39.23 33.05L39.23 45.91C39.23 48.6377 41.4423 50.85 44.17 50.85L63 50.85C63.5523 50.85 64 51.2977 64 51.85 64 52.4023 63.5523 52.85 63 52.85L44.17 52.85C40.3377 52.85 37.23 49.7423 37.23 45.91L37.23 33.05C37.23 29.2177 40.3377 26.11 44.17 26.11L63 26.11C63.5523 26.11 64 26.5577 64 27.11 64 27.6623 63.5523 28.11 63 28.11L44.17 28.11Z" fill="#FFFFFF" fill-rule="evenodd" clip-rule="evenodd"/><path d="M10.0001 39.2287C10.0063 38.6764 10.4591 38.2338 11.0113 38.2401L14.5413 38.2801C15.0936 38.2863 15.5362 38.7391 15.5299 39.2913 15.5237 39.8436 15.0709 40.2862 14.5187 40.2799L10.9887 40.2399C10.4364 40.2337 9.99381 39.7809 10.0001 39.2287Z" fill="#40B4E5" fill-rule="evenodd" clip-rule="evenodd"/><path d="M10.0701 33.9286C10.0764 33.3764 10.5292 32.9337 11.0814 32.94L14.6114 32.98C15.1636 32.9863 15.6063 33.439 15.6 33.9913 15.5937 34.5435 15.141 34.9861 14.5887 34.9799L11.0587 34.9399C10.5065 34.9336 10.0639 34.4809 10.0701 33.9286Z" fill="#40B4E5" fill-rule="evenodd" clip-rule="evenodd"/><path d="M5 48 5 45 7 45 7 48C7 48.5523 7.44772 49 8 49L11 49C11.5523 49 12 48.5523 12 48L12 45 14 45 14 48C14 49.6569 12.6569 51 11 51L8 51C6.34315 51 5 49.6569 5 48Z" fill="#FFFFFF" fill-rule="evenodd" clip-rule="evenodd"/><path d="M10.5 50 10.5 59C10.5 59.5523 10.0523 60 9.5 60 8.94772 60 8.5 59.5523 8.5 59L8.5 50 10.5 50Z" fill="#FFFFFF" fill-rule="evenodd" clip-rule="evenodd"/><path d="M14 23 5 23 5 44 14 44 14 23ZM3 21 3 46 16 46 16 21 3 21Z" fill="#FFFFFF" fill-rule="evenodd" clip-rule="evenodd"/><path d="M16 19 3 19 3 21 16 21 16 19ZM1 17 1 23 18 23 18 17 1 17Z" fill="#FFFFFF" fill-rule="evenodd" clip-rule="evenodd"/><path d="M11 9 8 9 8 17 11 17 11 9ZM6 7 6 19 13 19 13 7 6 7Z" fill="#FFFFFF" fill-rule="evenodd" clip-rule="evenodd"/><path d="M15 4 4 4 4 7 15 7 15 4ZM4 2C2.89543 2 2 2.89543 2 4L2 7C2 8.10457 2.89543 9 4 9L15 9C16.1046 9 17 8.10457 17 7L17 4C17 2.89543 16.1046 2 15 2L4 2Z" fill="#FFFFFF" fill-rule="evenodd" clip-rule="evenodd"/><path d="M4 28 15 28 15 30 4 30 4 28Z" fill="#FFFFFF"/><path d="M31.78 11.02C32.3323 11.02 32.78 11.4677 32.78 12.02L32.78 17.64C32.78 18.6162 32.113 19.4414 31.2007 19.6855 29.3565 20.1905 28 21.8827 28 23.89L28 55.07C28 57.4777 29.9523 59.43 32.36 59.43L57.64 59.43C60.0477 59.43 62 57.4777 62 55.07L62 35.72C62 35.1677 62.4477 34.72 63 34.72 63.5523 34.72 64 35.1677 64 35.72L64 55.07C64 58.5823 61.1523 61.43 57.64 61.43L32.36 61.43C28.8477 61.43 26 58.5823 26 55.07L26 23.89C26 20.9584 27.9822 18.4913 30.6765 17.7554L30.6836 17.7534 30.6836 17.7535C30.7491 17.7361 30.78 17.6823 30.78 17.64L30.78 12.02C30.78 11.4677 31.2277 11.02 31.78 11.02Z" fill="#FFFFFF" fill-rule="evenodd" clip-rule="evenodd"/><path d="M58.22 11.01C58.7723 11.01 59.22 11.4577 59.22 12.01L59.22 17.63C59.22 17.6723 59.2509 17.7261 59.3164 17.7434L59.3235 17.7453 59.3234 17.7453C62.0178 18.4813 64 20.9484 64 23.88L64 30.7C64 31.2523 63.5523 31.7 63 31.7 62.4477 31.7 62 31.2523 62 30.7L62 23.88C62 21.8726 60.6435 20.1805 58.7993 19.6754 57.887 19.4314 57.22 18.6062 57.22 17.63L57.22 12.01C57.22 11.4577 57.6677 11.01 58.22 11.01Z" fill="#FFFFFF" fill-rule="evenodd" clip-rule="evenodd"/><path d="M26 5.08C26 3.37772 27.3777 2 29.08 2L60.92 2C62.6223 2 64 3.37771 64 5.08L64 9.93C64 11.6323 62.6223 13.01 60.92 13.01L29.08 13.01C27.3777 13.01 26 11.6323 26 9.93L26 5.08ZM29.08 4C28.4823 4 28 4.48228 28 5.08L28 9.93C28 10.5277 28.4823 11.01 29.08 11.01L60.92 11.01C61.5177 11.01 62 10.5277 62 9.93L62 5.08C62 4.48229 61.5177 4 60.92 4L29.08 4Z" fill="#FFFFFF" fill-rule="evenodd" clip-rule="evenodd"/><path d="M49 32C49 30.8954 49.8954 30 51 30L54 30C55.1046 30 56 30.8954 56 32L56 35.5 59.5 35.5C60.6046 35.5 61.5 36.3954 61.5 37.5L61.5 40.5C61.5 41.6046 60.6046 42.5 59.5 42.5L56 42.5 56 46C56 47.1046 55.1046 48 54 48L51 48C49.8954 48 49 47.1046 49 46L49 42.5 45.5 42.5C44.3954 42.5 43.5 41.6046 43.5 40.5L43.5 37.5C43.5 36.3954 44.3954 35.5 45.5 35.5L49 35.5 49 32ZM54 32 51 32 51 37.5 45.5 37.5 45.5 40.5 51 40.5 51 46 54 46 54 40.5 59.5 40.5 59.5 37.5 54 37.5 54 32Z" fill="#40B4E5" fill-rule="evenodd" clip-rule="evenodd"/><path d="M44.17 28.11C41.4423 28.11 39.23 30.3223 39.23 33.05L39.23 45.91C39.23 48.6377 41.4423 50.85 44.17 50.85L63 50.85C63.5523 50.85 64 51.2977 64 51.85 64 52.4023 63.5523 52.85 63 52.85L44.17 52.85C40.3377 52.85 37.23 49.7423 37.23 45.91L37.23 33.05C37.23 29.2177 40.3377 26.11 44.17 26.11L63 26.11C63.5523 26.11 64 26.5577 64 27.11 64 27.6623 63.5523 28.11 63 28.11L44.17 28.11Z" fill="#FFFFFF" fill-rule="evenodd" clip-rule="evenodd"/><path d="M10.0001 39.2287C10.0063 38.6764 10.4591 38.2338 11.0113 38.2401L14.5413 38.2801C15.0936 38.2863 15.5362 38.7391 15.5299 39.2913 15.5237 39.8436 15.0709 40.2862 14.5187 40.2799L10.9887 40.2399C10.4364 40.2337 9.99381 39.7809 10.0001 39.2287Z" fill="#40B4E5" fill-rule="evenodd" clip-rule="evenodd"/><path d="M10.0701 33.9286C10.0764 33.3764 10.5292 32.9337 11.0814 32.94L14.6114 32.98C15.1636 32.9863 15.6063 33.439 15.6 33.9913 15.5937 34.5435 15.141 34.9861 14.5887 34.9799L11.0587 34.9399C10.5065 34.9336 10.0639 34.4809 10.0701 33.9286Z" fill="#40B4E5" fill-rule="evenodd" clip-rule="evenodd"/><path d="M5 48 5 45 7 45 7 48C7 48.5523 7.44772 49 8 49L11 49C11.5523 49 12 48.5523 12 48L12 45 14 45 14 48C14 49.6569 12.6569 51 11 51L8 51C6.34315 51 5 49.6569 5 48Z" fill="#FFFFFF" fill-rule="evenodd" clip-rule="evenodd"/><path d="M10.5 50 10.5 59C10.5 59.5523 10.0523 60 9.5 60 8.94772 60 8.5 59.5523 8.5 59L8.5 50 10.5 50Z" fill="#FFFFFF" fill-rule="evenodd" clip-rule="evenodd"/><path d="M14 23 5 23 5 44 14 44 14 23ZM3 21 3 46 16 46 16 21 3 21Z" fill="#FFFFFF" fill-rule="evenodd" clip-rule="evenodd"/><path d="M16 19 3 19 3 21 16 21 16 19ZM1 17 1 23 18 23 18 17 1 17Z" fill="#FFFFFF" fill-rule="evenodd" clip-rule="evenodd"/><path d="M11 9 8 9 8 17 11 17 11 9ZM6 7 6 19 13 19 13 7 6 7Z" fill="#FFFFFF" fill-rule="evenodd" clip-rule="evenodd"/><path d="M15 4 4 4 4 7 15 7 15 4ZM4 2C2.89543 2 2 2.89543 2 4L2 7C2 8.10457 2.89543 9 4 9L15 9C16.1046 9 17 8.10457 17 7L17 4C17 2.89543 16.1046 2 15 2L4 2Z" fill="#FFFFFF" fill-rule="evenodd" clip-rule="evenodd"/><path d="M4 28 15 28 15 30 4 30 4 28Z" fill="#FFFFFF"/></g></svg>