<svg width="82" height="106" viewBox="0 0 82 106" xmlns="http://www.w3.org/2000/svg" xmlns:xlink="http://www.w3.org/1999/xlink" fill="none" overflow="hidden"><defs><linearGradient x1="41" y1="70" x2="41" y2="34" gradientUnits="userSpaceOnUse" id="paint0_linear_1_29"><stop offset="0" stop-color="#FFFFFF" stop-opacity="0"/><stop offset="1" stop-color="#FFFFFF"/></linearGradient><linearGradient x1="41" y1="34" x2="41" y2="70" gradientUnits="userSpaceOnUse" id="paint1_linear_1_29"><stop offset="0" stop-color="#FFFFFF"/><stop offset="1" stop-color="#FFFFFF" stop-opacity="0"/></linearGradient></defs><rect x="0" y="0" width="82" height="106" fill="#2069E7"/><path d="M39.5742 90.5781 39.5742 93.3086 29.1562 93.3086 29.0039 91.1641 34.8047 79.9375 37.4062 79.9375 34.7461 84.9297 32.2148 90.5781 39.5742 90.5781ZM38.1211 79.9375 38.1211 97 34.8281 97 34.8281 79.9375 38.1211 79.9375ZM41.5547 84.1211 41.5547 83.2188C41.5547 82.5703 41.6719 81.9805 41.9062 81.4492 42.1484 80.918 42.5039 80.4922 42.9727 80.1719 43.4492 79.8516 44.0391 79.6914 44.7422 79.6914 45.4531 79.6914 46.0469 79.8516 46.5234 80.1719 47 80.4922 47.3516 80.918 47.5781 81.4492 47.8125 81.9805 47.9297 82.5703 47.9297 83.2188L47.9297 84.1211C47.9297 84.7539 47.8125 85.3359 47.5781 85.8672 47.3438 86.3984 46.9883 86.8242 46.5117 87.1445 46.043 87.4648 45.457 87.625 44.7539 87.625 44.0508 87.625 43.4609 87.4648 42.9844 87.1445 42.5078 86.8242 42.1484 86.3984 41.9062 85.8672 41.6719 85.3359 41.5547 84.7539 41.5547 84.1211ZM43.6992 83.2188 43.6992 84.1211C43.6992 84.3867 43.7383 84.6406 43.8164 84.8828 43.8945 85.1172 44.0117 85.3086 44.168 85.457 44.3242 85.5977 44.5195 85.668 44.7539 85.668 44.9883 85.668 45.1797 85.5977 45.3281 85.457 45.4766 85.3086 45.5859 85.1172 45.6562 84.8828 45.7344 84.6406 45.7734 84.3867 45.7734 84.1211L45.7734 83.2188C45.7734 82.9375 45.7344 82.6797 45.6562 82.4453 45.5859 82.2031 45.4727 82.0117 45.3164 81.8711 45.1602 81.7227 44.9648 81.6484 44.7305 81.6484 44.4961 81.6484 44.3008 81.7227 44.1445 81.8711 43.9961 82.0117 43.8828 82.2031 43.8047 82.4453 43.7344 82.6797 43.6992 82.9375 43.6992 83.2188ZM48.293 93.7305 48.293 92.8164C48.293 92.1758 48.4141 91.5898 48.6562 91.0586 48.8984 90.5273 49.2539 90.1016 49.7227 89.7812 50.1992 89.4609 50.7852 89.3008 51.4805 89.3008 52.1992 89.3008 52.793 89.4609 53.2617 89.7812 53.7305 90.1016 54.082 90.5273 54.3164 91.0586 54.5586 91.5898 54.6797 92.1758 54.6797 92.8164L54.6797 93.7305C54.6797 94.3711 54.5625 94.957 54.3281 95.4883 54.0938 96.0117 53.7383 96.4336 53.2617 96.7539 52.793 97.0742 52.207 97.2344 51.5039 97.2344 50.8008 97.2344 50.207 97.0742 49.7227 96.7539 49.2461 96.4336 48.8867 96.0078 48.6445 95.4766 48.4102 94.9453 48.293 94.3633 48.293 93.7305ZM50.4375 92.8164 50.4375 93.7188C50.4375 93.9922 50.4844 94.25 50.5781 94.4922 50.6719 94.7266 50.7969 94.918 50.9531 95.0664 51.1172 95.207 51.3008 95.2773 51.5039 95.2773 51.7852 95.2773 52 95.207 52.1484 95.0664 52.2969 94.918 52.3945 94.7266 52.4414 94.4922 52.4961 94.25 52.5234 93.9922 52.5234 93.7188L52.5234 92.8281C52.5234 92.5469 52.4844 92.2891 52.4062 92.0547 52.3359 91.8125 52.2227 91.6211 52.0664 91.4805 51.918 91.332 51.7266 91.2578 51.4922 91.2578 51.25 91.2578 51.0508 91.332 50.8945 91.4805 50.7383 91.6211 50.6211 91.8125 50.543 92.0547 50.4727 92.2891 50.4375 92.543 50.4375 92.8164ZM52.3477 82.3867 45.3516 95.7227 43.7812 94.832 50.7773 81.4961 52.3477 82.3867Z" fill="#FFFFFF"/><path d="M37.7969 25.75C37.7969 27.1875 37.5156 28.3958 36.9531 29.375 36.401 30.3438 35.6302 31.0781 34.6406 31.5781 33.6615 32.0677 32.5469 32.3125 31.2969 32.3125 30.0469 32.3125 28.9271 32.0677 27.9375 31.5781 26.9479 31.0781 26.1667 30.3438 25.5938 29.375 25.0208 28.3958 24.7344 27.1875 24.7344 25.75 24.7344 24.7917 24.8958 23.9219 25.2188 23.1406 25.5417 22.3594 25.9948 21.6927 26.5781 21.1406 27.1719 20.5781 27.8646 20.151 28.6562 19.8594 29.4583 19.5573 30.3281 19.4062 31.2656 19.4062 32.526 19.4062 33.6458 19.6719 34.625 20.2031 35.6146 20.724 36.3906 21.4583 36.9531 22.4062 37.5156 23.3542 37.7969 24.4688 37.7969 25.75ZM33.4062 25.4375C33.4062 24.7604 33.3177 24.1771 33.1406 23.6875 32.974 23.1979 32.7292 22.8229 32.4062 22.5625 32.0938 22.2917 31.7135 22.1562 31.2656 22.1562 30.8281 22.1562 30.4479 22.2917 30.125 22.5625 29.8021 22.8229 29.5521 23.1979 29.375 23.6875 29.2083 24.1771 29.125 24.7604 29.125 25.4375 29.125 26.1042 29.2083 26.6771 29.375 27.1562 29.5521 27.6354 29.8021 28.0104 30.125 28.2812 30.4479 28.5417 30.8385 28.6719 31.2969 28.6719 31.7448 28.6719 32.125 28.5417 32.4375 28.2812 32.7604 28.0104 33 27.6354 33.1562 27.1562 33.3229 26.6771 33.4062 26.1042 33.4062 25.4375ZM37.4219 15.2969C37.4219 16.4635 37.1615 17.4896 36.6406 18.375 36.1198 19.2604 35.3958 19.9531 34.4688 20.4531 33.5521 20.9531 32.4948 21.2031 31.2969 21.2031 30.0885 21.2031 29.0208 20.9531 28.0938 20.4531 27.1667 19.9531 26.4375 19.2604 25.9062 18.375 25.3854 17.4792 25.125 16.4531 25.125 15.2969 25.125 13.9219 25.3854 12.7604 25.9062 11.8125 26.4375 10.8646 27.1667 10.1458 28.0938 9.65625 29.0208 9.16667 30.0833 8.92188 31.2812 8.92188 32.4896 8.92188 33.5521 9.16667 34.4688 9.65625 35.3958 10.1458 36.1198 10.8646 36.6406 11.8125 37.1615 12.7604 37.4219 13.9219 37.4219 15.2969ZM33.0469 15.5156C33.0469 14.9219 32.9792 14.4062 32.8438 13.9688 32.7188 13.5312 32.526 13.1875 32.2656 12.9375 32.0052 12.6875 31.6771 12.5625 31.2812 12.5625 30.9062 12.5625 30.5833 12.6823 30.3125 12.9219 30.0521 13.1615 29.8542 13.5 29.7188 13.9375 29.5833 14.375 29.5156 14.901 29.5156 15.5156 29.5156 16.1198 29.5781 16.6458 29.7031 17.0938 29.8385 17.5417 30.0417 17.8906 30.3125 18.1406 30.5833 18.3906 30.9115 18.5156 31.2969 18.5156 31.6927 18.5156 32.0156 18.3906 32.2656 18.1406 32.526 17.8802 32.7188 17.526 32.8438 17.0781 32.9792 16.6302 33.0469 16.1094 33.0469 15.5156ZM40.9062 14.8281 40.9062 13.625C40.9062 12.7604 41.0625 11.974 41.375 11.2656 41.6979 10.5573 42.1719 9.98958 42.7969 9.5625 43.4323 9.13542 44.2188 8.92188 45.1562 8.92188 46.1042 8.92188 46.8958 9.13542 47.5312 9.5625 48.1667 9.98958 48.6354 10.5573 48.9375 11.2656 49.25 11.974 49.4062 12.7604 49.4062 13.625L49.4062 14.8281C49.4062 15.6719 49.25 16.4479 48.9375 17.1562 48.625 17.8646 48.151 18.4323 47.5156 18.8594 46.8906 19.2865 46.1094 19.5 45.1719 19.5 44.2344 19.5 43.4479 19.2865 42.8125 18.8594 42.1771 18.4323 41.6979 17.8646 41.375 17.1562 41.0625 16.4479 40.9062 15.6719 40.9062 14.8281ZM43.7656 13.625 43.7656 14.8281C43.7656 15.1823 43.8177 15.5208 43.9219 15.8438 44.026 16.1562 44.1823 16.4115 44.3906 16.6094 44.599 16.7969 44.8594 16.8906 45.1719 16.8906 45.4844 16.8906 45.7396 16.7969 45.9375 16.6094 46.1354 16.4115 46.2812 16.1562 46.375 15.8438 46.4792 15.5208 46.5312 15.1823 46.5312 14.8281L46.5312 13.625C46.5312 13.25 46.4792 12.9062 46.375 12.5938 46.2812 12.2708 46.1302 12.0156 45.9219 11.8281 45.7135 11.6302 45.4531 11.5312 45.1406 11.5312 44.8281 11.5312 44.5677 11.6302 44.3594 11.8281 44.1615 12.0156 44.0104 12.2708 43.9062 12.5938 43.8125 12.9062 43.7656 13.25 43.7656 13.625ZM49.8906 27.6406 49.8906 26.4219C49.8906 25.5677 50.0521 24.7865 50.375 24.0781 50.6979 23.3698 51.1719 22.8021 51.7969 22.375 52.4323 21.9479 53.2135 21.7344 54.1406 21.7344 55.099 21.7344 55.8906 21.9479 56.5156 22.375 57.1406 22.8021 57.6094 23.3698 57.9219 24.0781 58.2448 24.7865 58.4062 25.5677 58.4062 26.4219L58.4062 27.6406C58.4062 28.4948 58.25 29.276 57.9375 29.9844 57.625 30.6823 57.151 31.2448 56.5156 31.6719 55.8906 32.099 55.1094 32.3125 54.1719 32.3125 53.2344 32.3125 52.4427 32.099 51.7969 31.6719 51.1615 31.2448 50.6823 30.6771 50.3594 29.9688 50.0469 29.2604 49.8906 28.4844 49.8906 27.6406ZM52.75 26.4219 52.75 27.625C52.75 27.9896 52.8125 28.3333 52.9375 28.6562 53.0625 28.9688 53.2292 29.224 53.4375 29.4219 53.6562 29.6094 53.901 29.7031 54.1719 29.7031 54.5469 29.7031 54.8333 29.6094 55.0312 29.4219 55.2292 29.224 55.3594 28.9688 55.4219 28.6562 55.4948 28.3333 55.5312 27.9896 55.5312 27.625L55.5312 26.4375C55.5312 26.0625 55.4792 25.7188 55.375 25.4062 55.2812 25.0833 55.1302 24.8281 54.9219 24.6406 54.724 24.4427 54.4688 24.3438 54.1562 24.3438 53.8333 24.3438 53.5677 24.4427 53.3594 24.6406 53.151 24.8281 52.9948 25.0833 52.8906 25.4062 52.7969 25.7188 52.75 26.0573 52.75 26.4219ZM55.2969 12.5156 45.9688 30.2969 43.875 29.1094 53.2031 11.3281 55.2969 12.5156Z" fill="#FFFFFF"/><path d="M52.7779 46.3429 52.7779 70 29.2221 70 29.2221 46.3429 24 46.3429 41 34 58 46.3429 52.7779 46.3429Z" stroke="url(#paint1_linear_1_29)" stroke-width="0.5" fill="url(#paint0_linear_1_29)" fill-rule="evenodd" clip-rule="evenodd"/></svg>