<svg width="82" height="106" viewBox="0 0 82 106" xmlns="http://www.w3.org/2000/svg" xmlns:xlink="http://www.w3.org/1999/xlink" fill="none" overflow="hidden"><defs><linearGradient x1="13.5" y1="23" x2="13.5" y2="59.3135" gradientUnits="userSpaceOnUse" id="paint0_linear_1_39"><stop offset="0" stop-color="#FFFFFF"/><stop offset="1" stop-color="#FFFFFF" stop-opacity="0.31"/></linearGradient><linearGradient x1="13.5" y1="63" x2="13.5" y2="99.3135" gradientUnits="userSpaceOnUse" id="paint1_linear_1_39"><stop offset="0" stop-color="#FFFFFF"/><stop offset="1" stop-color="#FFFFFF" stop-opacity="0.31"/></linearGradient><linearGradient x1="27.5" y1="23" x2="27.5" y2="59.3135" gradientUnits="userSpaceOnUse" id="paint2_linear_1_39"><stop offset="0" stop-color="#FFFFFF"/><stop offset="1" stop-color="#FFFFFF" stop-opacity="0.31"/></linearGradient><linearGradient x1="27.5" y1="63" x2="27.5" y2="99.3135" gradientUnits="userSpaceOnUse" id="paint3_linear_1_39"><stop offset="0" stop-color="#FFFFFF"/><stop offset="1" stop-color="#FFFFFF" stop-opacity="0.31"/></linearGradient><linearGradient x1="41.5" y1="63" x2="41.5" y2="99.3135" gradientUnits="userSpaceOnUse" id="paint4_linear_1_39"><stop offset="0" stop-color="#FFFFFF"/><stop offset="1" stop-color="#FFFFFF" stop-opacity="0.31"/></linearGradient><clipPath id="clip0_1_39"><rect x="0" y="0" width="82" height="106" fill="#FFFFFF"/></clipPath></defs><g clip-path="url(#clip0_1_39)"><rect x="0" y="0" width="82" height="106" fill="#2069E7"/><path d="M13.5616 23C13.5612 23 13.5609 23 13.5606 23 13.5602 23 13.56 23 13.5597 23 12.6377 23 12.1255 23.5792 11.9598 24.0019 11.9092 24.1318 11.877 24.2829 11.8571 24.4379 11.8567 24.4459 11.8562 24.4539 11.8556 24.4618L11.8082 24.6712C11.7782 24.862 11.7688 25.0449 11.7688 25.0449 11.7703 25.1616 11.7765 25.2636 11.7827 25.3365L11.7947 25.4505 11.7784 25.4558 11.7603 25.4478C11.7391 25.4425 11.711 25.4452 11.6836 25.473 11.5704 25.587 11.7926 26.0508 11.8213 26.137 11.8499 26.2245 11.8098 26.5677 12.0095 26.5823 12.012 26.5916 12.0156 26.6008 12.0185 26.6101 12.0975 27.0435 12.1884 27.3549 12.3398 27.5709L12.4844 27.726 12.4731 27.84C12.4576 27.9314 12.4361 28.007 12.4067 28.0587 12.3616 28.1369 12.1585 28.2376 11.8809 28.3449L11.5969 28.4496 11.589 28.4549C11.5539 28.4722 11.5095 28.4881 11.5817 28.4549L11.5969 28.4496 11.6188 28.4364C11.3971 28.5053 10.5823 28.7518 10.2671 28.8618 9.95198 28.9718 9.8873 29.0023 9.7276 29.0937L9.3988 29.3376 8.80533 30.3183C8.33736 32.9689 7.84541 38.5431 8.04606 41.4495 8.13287 42.7045 8.58149 43.1644 8.90632 43.391 9.1238 43.5448 9.34207 43.5209 9.26441 43.3367 9.44054 43.4387 9.58858 43.2399 9.3059 43.0067 9.01446 42.7655 9.07012 42.0604 9.16965 42.0326 9.26892 42.0034 9.30126 42.1638 9.36076 42.4501 9.42133 42.7416 9.67393 42.674 9.67764 42.3719 9.68109 42.1055 9.53583 41.4203 9.43869 41.0227 9.30072 40.4157 10.008 36.1271 10.3049 34.1312L10.3614 33.7323 10.3856 33.9682C10.4529 34.6149 10.5807 35.8064 10.5807 36.31 10.5807 36.5843 10.5428 36.8573 10.484 37.1621L10.2734 38.1561 10.2621 38.1534C10.0986 38.946 9.92043 39.9969 9.85576 41.5648 9.7773 43.4692 10.3757 55.5877 10.4142 57.0244 10.4286 57.5611 8.89346 58.4557 8.79949 58.6651 8.77789 58.7141 8.82322 58.8029 8.88855 58.791 8.84429 58.8771 8.95959 58.9394 9.01367 58.9129 8.98239 58.9831 9.10233 59.0706 9.1829 58.9885 9.13453 59.1117 9.2998 59.2018 9.41271 59.0786 9.31199 59.3131 9.68745 59.3688 9.95821 59.2601 10.5718 59.0123 11.3744 58.6465 11.7027 58.3828 12.0577 58.0978 11.9878 57.9733 12.0168 57.3544 12.0703 56.2093 12.5449 50.8061 12.6687 49.168 12.7725 47.7963 13.2072 43.7966 13.2654 42.1718 13.3421 42.2009 13.658 42.2009 13.7348 42.1718 13.793 43.7966 14.2277 47.7963 14.3314 49.168 14.4551 50.8061 14.9297 56.2093 14.9833 57.3544 15.0122 57.9733 14.9424 58.0978 15.2974 58.3828 15.6257 58.6465 16.4314 59.0348 17.0419 59.2601 17.3159 59.3609 17.6881 59.3131 17.5873 59.0786 17.7002 59.2018 17.8656 59.1117 17.8172 58.9885 17.8978 59.0706 18.0177 58.9831 17.9865 58.9129 18.0405 58.9394 18.1558 58.8771 18.1116 58.791 18.1769 58.8029 18.2222 58.7141 18.2006 58.6651 18.1067 58.4557 16.5714 57.5611 16.5859 57.0244 16.6244 55.5877 17.2374 43.4692 17.1589 41.5648 17.0933 39.9731 16.9071 38.9142 16.7379 38.1177L16.7264 38.1216 16.5158 37.1489C16.4572 36.8494 16.4194 36.5803 16.4194 36.31 16.4194 35.8064 16.5472 34.6149 16.6145 33.9682L16.6386 33.7323 16.6952 34.1312C16.9921 36.1271 17.6994 40.4157 17.5614 41.0227 17.4642 41.4203 17.3018 42.0286 17.2794 42.3003 17.2545 42.6011 17.523 42.7403 17.606 42.4554 17.6892 42.1678 17.7312 42.0034 17.8305 42.0326 17.9895 42.0777 17.9957 42.8887 17.6909 43.069 17.4065 43.2386 17.5019 43.4586 17.6989 43.395 17.6798 43.5832 17.8701 43.5527 18.1419 43.3937 18.4722 43.2002 18.8673 42.7045 18.9539 41.4495 19.1546 38.5431 18.6628 32.9689 18.1948 30.3183 18.1303 29.9525 17.9476 29.5907 17.6358 29.2925L17.2734 29.0937C17.1135 29.0023 16.9336 28.9228 16.733 28.8618L16.131 28.6762 15.5319 28.4801 14.6764 28.0587 14.5881 27.6478 14.6605 27.5709C14.736 27.4623 14.7966 27.3311 14.8482 27.172L14.8688 27.0846 15.0037 26.5743 15.1002 26.5187C15.125 26.4829 15.1396 26.4365 15.1489 26.3875 15.1503 26.3742 15.1518 26.3623 15.1532 26.3504L15.1584 26.3477C15.1832 26.3119 15.1978 26.2642 15.207 26.2152L15.2328 26.0005 15.3009 25.8149 15.3087 25.7805 15.3591 25.644C15.404 25.5022 15.4312 25.359 15.3746 25.3007 15.3197 25.2464 15.2623 25.2914 15.2623 25.2914 15.2623 25.2914 15.2623 25.2914 15.2624 25.2914 15.2626 25.2914 15.2626 25.2914 15.2627 25.2914 15.2626 25.2914 15.2626 25.2901 15.2624 25.2901 15.2632 25.2848 15.2693 25.2384 15.2754 25.1655 15.2785 25.1019 15.2814 25.0396 15.2844 24.9773 15.2862 24.9999 15.2878 25.0224 15.2893 25.0449 15.288 25.0171 15.2866 24.9893 15.2852 24.9614L15.2895 24.8726C15.2895 24.8726 15.2871 24.8276 15.281 24.7573L15.2707 24.6725C15.2695 24.6473 15.2681 24.6222 15.2669 24.597L15.2563 24.5519 15.25 24.4989C15.235 24.4035 15.2149 24.3054 15.1881 24.2272L15.174 24.2047 15.1581 24.1384C14.9925 23.7157 14.4834 23 13.5616 23Z" fill="url(#paint0_linear_1_39)" fill-rule="evenodd" clip-rule="evenodd"/><path d="M13.5616 63C13.5612 63 13.5609 63 13.5606 63 13.5602 63 13.56 63 13.5597 63 12.6377 63 12.1255 63.5792 11.9598 64.0019 11.9092 64.1318 11.877 64.2829 11.8571 64.4379 11.8567 64.4459 11.8562 64.4539 11.8556 64.4618L11.8082 64.6712C11.7782 64.862 11.7688 65.0449 11.7688 65.0449 11.7703 65.1616 11.7765 65.2636 11.7827 65.3365L11.7947 65.4505 11.7784 65.4558 11.7603 65.4478C11.7391 65.4425 11.711 65.4452 11.6836 65.473 11.5704 65.587 11.7926 66.0508 11.8213 66.137 11.8499 66.2245 11.8098 66.5677 12.0095 66.5823 12.012 66.5916 12.0156 66.6008 12.0185 66.6101 12.0975 67.0435 12.1884 67.3549 12.3398 67.5709L12.4844 67.726 12.4731 67.84C12.4576 67.9314 12.4361 68.007 12.4067 68.0587 12.3616 68.1369 12.1585 68.2376 11.8809 68.3449L11.5969 68.4496 11.589 68.4549C11.5539 68.4722 11.5095 68.4881 11.5817 68.4549L11.5969 68.4496 11.6188 68.4364C11.3971 68.5053 10.5823 68.7518 10.2671 68.8618 9.95198 68.9718 9.8873 69.0023 9.7276 69.0937L9.3988 69.3376 8.80533 70.3183C8.33736 72.9689 7.84541 78.5431 8.04606 81.4495 8.13287 82.7045 8.58149 83.1644 8.90632 83.391 9.1238 83.5448 9.34207 83.5209 9.26441 83.3367 9.44054 83.4387 9.58858 83.2399 9.3059 83.0067 9.01446 82.7655 9.07012 82.0604 9.16965 82.0326 9.26892 82.0034 9.30126 82.1638 9.36076 82.4501 9.42133 82.7416 9.67393 82.674 9.67764 82.3719 9.68109 82.1055 9.53583 81.4203 9.43869 81.0227 9.30072 80.4157 10.008 76.1271 10.3049 74.1312L10.3614 73.7323 10.3856 73.9682C10.4529 74.6149 10.5807 75.8064 10.5807 76.31 10.5807 76.5843 10.5428 76.8573 10.484 77.1621L10.2734 78.1561 10.2621 78.1534C10.0986 78.946 9.92043 79.9969 9.85576 81.5648 9.7773 83.4692 10.3757 95.5877 10.4142 97.0244 10.4286 97.5611 8.89346 98.4557 8.79949 98.6651 8.77789 98.7141 8.82322 98.8029 8.88855 98.791 8.84429 98.8771 8.95959 98.9394 9.01367 98.9129 8.98239 98.9831 9.10233 99.0706 9.1829 98.9885 9.13453 99.1117 9.2998 99.2018 9.41271 99.0786 9.31199 99.3131 9.68745 99.3688 9.95821 99.2601 10.5718 99.0123 11.3744 98.6465 11.7027 98.3828 12.0577 98.0978 11.9878 97.9733 12.0168 97.3544 12.0703 96.2093 12.5449 90.8061 12.6687 89.168 12.7725 87.7963 13.2072 83.7966 13.2654 82.1718 13.3421 82.2009 13.658 82.2009 13.7348 82.1718 13.793 83.7966 14.2277 87.7963 14.3314 89.168 14.4551 90.8061 14.9297 96.2093 14.9833 97.3544 15.0122 97.9733 14.9424 98.0978 15.2974 98.3828 15.6257 98.6465 16.4314 99.0348 17.0419 99.2601 17.3159 99.3609 17.6881 99.3131 17.5873 99.0786 17.7002 99.2018 17.8656 99.1117 17.8172 98.9885 17.8978 99.0706 18.0177 98.9831 17.9865 98.9129 18.0405 98.9394 18.1558 98.8771 18.1116 98.791 18.1769 98.8029 18.2222 98.7141 18.2006 98.6651 18.1067 98.4557 16.5714 97.5611 16.5859 97.0244 16.6244 95.5877 17.2374 83.4692 17.1589 81.5648 17.0933 79.9731 16.9071 78.9142 16.7379 78.1177L16.7264 78.1216 16.5158 77.1489C16.4572 76.8494 16.4194 76.5803 16.4194 76.31 16.4194 75.8064 16.5472 74.6149 16.6145 73.9682L16.6386 73.7323 16.6952 74.1312C16.9921 76.1271 17.6994 80.4157 17.5614 81.0227 17.4642 81.4203 17.3018 82.0286 17.2794 82.3003 17.2545 82.6011 17.523 82.7403 17.606 82.4554 17.6892 82.1678 17.7312 82.0034 17.8305 82.0326 17.9895 82.0777 17.9957 82.8887 17.6909 83.069 17.4065 83.2386 17.5019 83.4586 17.6989 83.395 17.6798 83.5832 17.8701 83.5527 18.1419 83.3937 18.4722 83.2002 18.8673 82.7045 18.9539 81.4495 19.1546 78.5431 18.6628 72.9689 18.1948 70.3183 18.1303 69.9525 17.9476 69.5907 17.6358 69.2925L17.2734 69.0937C17.1135 69.0023 16.9336 68.9228 16.733 68.8618L16.131 68.6762 15.5319 68.4801 14.6764 68.0587 14.5881 67.6478 14.6605 67.5709C14.736 67.4623 14.7966 67.3311 14.8482 67.172L14.8688 67.0846 15.0037 66.5743 15.1002 66.5187C15.125 66.4829 15.1396 66.4365 15.1489 66.3875 15.1503 66.3742 15.1518 66.3623 15.1532 66.3504L15.1584 66.3477C15.1832 66.3119 15.1978 66.2642 15.207 66.2152L15.2328 66.0005 15.3009 65.8149 15.3087 65.7805 15.3591 65.644C15.404 65.5022 15.4312 65.359 15.3746 65.3007 15.3197 65.2464 15.2623 65.2914 15.2623 65.2914 15.2623 65.2914 15.2623 65.2914 15.2624 65.2914 15.2626 65.2914 15.2626 65.2914 15.2627 65.2914 15.2626 65.2914 15.2626 65.2901 15.2624 65.2901 15.2632 65.2848 15.2693 65.2384 15.2754 65.1655 15.2785 65.1019 15.2814 65.0396 15.2844 64.9773 15.2862 64.9999 15.2878 65.0224 15.2893 65.0449 15.288 65.0171 15.2866 64.9893 15.2852 64.9614L15.2895 64.8726C15.2895 64.8726 15.2871 64.8276 15.281 64.7573L15.2707 64.6725C15.2695 64.6473 15.2681 64.6222 15.2669 64.597L15.2563 64.5519 15.25 64.4989C15.235 64.4035 15.2149 64.3054 15.1881 64.2272L15.174 64.2047 15.1581 64.1384C14.9925 63.7157 14.4834 63 13.5616 63Z" fill="url(#paint1_linear_1_39)" fill-rule="evenodd" clip-rule="evenodd"/><path d="M27.5616 23C27.5612 23 27.5609 23 27.5606 23 27.5602 23 27.56 23 27.5597 23 26.6377 23 26.1255 23.5792 25.9598 24.0019 25.9092 24.1318 25.877 24.2829 25.8571 24.4379 25.8567 24.4459 25.8562 24.4539 25.8556 24.4618L25.8082 24.6712C25.7782 24.862 25.7688 25.0449 25.7688 25.0449 25.7703 25.1616 25.7765 25.2636 25.7827 25.3365L25.7947 25.4505 25.7784 25.4558 25.7603 25.4478C25.7391 25.4425 25.711 25.4452 25.6836 25.473 25.5704 25.587 25.7926 26.0508 25.8213 26.137 25.8499 26.2245 25.8098 26.5677 26.0095 26.5823 26.012 26.5916 26.0156 26.6008 26.0185 26.6101 26.0975 27.0435 26.1884 27.3549 26.3398 27.5709L26.4844 27.726 26.4731 27.84C26.4576 27.9314 26.4361 28.007 26.4067 28.0587 26.3616 28.1369 26.1585 28.2376 25.8809 28.3449L25.5969 28.4496 25.589 28.4549C25.5539 28.4722 25.5095 28.4881 25.5817 28.4549L25.5969 28.4496 25.6188 28.4364C25.3971 28.5053 24.5823 28.7518 24.2671 28.8618 23.952 28.9718 23.8873 29.0023 23.7276 29.0937L23.3988 29.3376 22.8053 30.3183C22.3374 32.9689 21.8454 38.5431 22.0461 41.4495 22.1329 42.7045 22.5815 43.1644 22.9063 43.391 23.1238 43.5448 23.3421 43.5209 23.2644 43.3367 23.4405 43.4387 23.5886 43.2399 23.3059 43.0067 23.0145 42.7655 23.0701 42.0604 23.1697 42.0326 23.2689 42.0034 23.3013 42.1638 23.3608 42.4501 23.4213 42.7416 23.6739 42.674 23.6776 42.3719 23.6811 42.1055 23.5358 41.4203 23.4387 41.0227 23.3007 40.4157 24.008 36.1271 24.3049 34.1312L24.3614 33.7323 24.3856 33.9682C24.4529 34.6149 24.5807 35.8064 24.5807 36.31 24.5807 36.5843 24.5428 36.8573 24.484 37.1621L24.2734 38.1561 24.2621 38.1534C24.0986 38.946 23.9204 39.9969 23.8558 41.5648 23.7773 43.4692 24.3757 55.5877 24.4142 57.0244 24.4286 57.5611 22.8935 58.4557 22.7995 58.6651 22.7779 58.7141 22.8232 58.8029 22.8886 58.791 22.8443 58.8771 22.9596 58.9394 23.0137 58.9129 22.9824 58.9831 23.1023 59.0706 23.1829 58.9885 23.1345 59.1117 23.2998 59.2018 23.4127 59.0786 23.312 59.3131 23.6874 59.3688 23.9582 59.2601 24.5718 59.0123 25.3744 58.6465 25.7027 58.3828 26.0577 58.0978 25.9878 57.9733 26.0168 57.3544 26.0703 56.2093 26.5449 50.8061 26.6687 49.168 26.7725 47.7963 27.2072 43.7966 27.2654 42.1718 27.3421 42.2009 27.658 42.2009 27.7348 42.1718 27.793 43.7966 28.2277 47.7963 28.3314 49.168 28.4551 50.8061 28.9297 56.2093 28.9833 57.3544 29.0122 57.9733 28.9424 58.0978 29.2974 58.3828 29.6257 58.6465 30.4314 59.0348 31.0419 59.2601 31.3159 59.3609 31.6881 59.3131 31.5873 59.0786 31.7002 59.2018 31.8656 59.1117 31.8172 58.9885 31.8978 59.0706 32.0177 58.9831 31.9865 58.9129 32.0405 58.9394 32.1558 58.8771 32.1116 58.791 32.1769 58.8029 32.2222 58.7141 32.2006 58.6651 32.1067 58.4557 30.5714 57.5611 30.5859 57.0244 30.6244 55.5877 31.2374 43.4692 31.1589 41.5648 31.0933 39.9731 30.9071 38.9142 30.7379 38.1177L30.7264 38.1216 30.5158 37.1489C30.4572 36.8494 30.4194 36.5803 30.4194 36.31 30.4194 35.8064 30.5472 34.6149 30.6145 33.9682L30.6386 33.7323 30.6952 34.1312C30.9921 36.1271 31.6994 40.4157 31.5614 41.0227 31.4642 41.4203 31.3018 42.0286 31.2794 42.3003 31.2545 42.6011 31.523 42.7403 31.606 42.4554 31.6892 42.1678 31.7312 42.0034 31.8305 42.0326 31.9895 42.0777 31.9957 42.8887 31.6909 43.069 31.4065 43.2386 31.5019 43.4586 31.6989 43.395 31.6798 43.5832 31.8701 43.5527 32.1419 43.3937 32.4722 43.2002 32.8673 42.7045 32.9539 41.4495 33.1546 38.5431 32.6628 32.9689 32.1948 30.3183 32.1303 29.9525 31.9476 29.5907 31.6358 29.2925L31.2734 29.0937C31.1135 29.0023 30.9336 28.9228 30.733 28.8618L30.131 28.6762 29.5319 28.4801 28.6764 28.0587 28.5881 27.6478 28.6605 27.5709C28.736 27.4623 28.7966 27.3311 28.8482 27.172L28.8688 27.0846 29.0037 26.5743 29.1002 26.5187C29.125 26.4829 29.1396 26.4365 29.1489 26.3875 29.1503 26.3742 29.1518 26.3623 29.1532 26.3504L29.1584 26.3477C29.1832 26.3119 29.1978 26.2642 29.207 26.2152L29.2328 26.0005 29.3009 25.8149 29.3087 25.7805 29.3591 25.644C29.404 25.5022 29.4312 25.359 29.3746 25.3007 29.3197 25.2464 29.2623 25.2914 29.2623 25.2914 29.2623 25.2914 29.2623 25.2914 29.2624 25.2914 29.2626 25.2914 29.2626 25.2914 29.2627 25.2914 29.2626 25.2914 29.2626 25.2901 29.2624 25.2901 29.2632 25.2848 29.2693 25.2384 29.2754 25.1655 29.2785 25.1019 29.2814 25.0396 29.2844 24.9773 29.2862 24.9999 29.2878 25.0224 29.2893 25.0449 29.288 25.0171 29.2866 24.9893 29.2852 24.9614L29.2895 24.8726C29.2895 24.8726 29.2871 24.8276 29.281 24.7573L29.2707 24.6725C29.2695 24.6473 29.2681 24.6222 29.2669 24.597L29.2563 24.5519 29.25 24.4989C29.235 24.4035 29.2149 24.3054 29.1881 24.2272L29.174 24.2047 29.1581 24.1384C28.9925 23.7157 28.4834 23 27.5616 23Z" fill="url(#paint2_linear_1_39)" fill-rule="evenodd" clip-rule="evenodd"/><path d="M27.5616 63C27.5612 63 27.5609 63 27.5606 63 27.5602 63 27.56 63 27.5597 63 26.6377 63 26.1255 63.5792 25.9598 64.0019 25.9092 64.1318 25.877 64.2829 25.8571 64.4379 25.8567 64.4459 25.8562 64.4539 25.8556 64.4618L25.8082 64.6712C25.7782 64.862 25.7688 65.0449 25.7688 65.0449 25.7703 65.1616 25.7765 65.2636 25.7827 65.3365L25.7947 65.4505 25.7784 65.4558 25.7603 65.4478C25.7391 65.4425 25.711 65.4452 25.6836 65.473 25.5704 65.587 25.7926 66.0508 25.8213 66.137 25.8499 66.2245 25.8098 66.5677 26.0095 66.5823 26.012 66.5916 26.0156 66.6008 26.0185 66.6101 26.0975 67.0435 26.1884 67.3549 26.3398 67.5709L26.4844 67.726 26.4731 67.84C26.4576 67.9314 26.4361 68.007 26.4067 68.0587 26.3616 68.1369 26.1585 68.2376 25.8809 68.3449L25.5969 68.4496 25.589 68.4549C25.5539 68.4722 25.5095 68.4881 25.5817 68.4549L25.5969 68.4496 25.6188 68.4364C25.3971 68.5053 24.5823 68.7518 24.2671 68.8618 23.952 68.9718 23.8873 69.0023 23.7276 69.0937L23.3988 69.3376 22.8053 70.3183C22.3374 72.9689 21.8454 78.5431 22.0461 81.4495 22.1329 82.7045 22.5815 83.1644 22.9063 83.391 23.1238 83.5448 23.3421 83.5209 23.2644 83.3367 23.4405 83.4387 23.5886 83.2399 23.3059 83.0067 23.0145 82.7655 23.0701 82.0604 23.1697 82.0326 23.2689 82.0034 23.3013 82.1638 23.3608 82.4501 23.4213 82.7416 23.6739 82.674 23.6776 82.3719 23.6811 82.1055 23.5358 81.4203 23.4387 81.0227 23.3007 80.4157 24.008 76.1271 24.3049 74.1312L24.3614 73.7323 24.3856 73.9682C24.4529 74.6149 24.5807 75.8064 24.5807 76.31 24.5807 76.5843 24.5428 76.8573 24.484 77.1621L24.2734 78.1561 24.2621 78.1534C24.0986 78.946 23.9204 79.9969 23.8558 81.5648 23.7773 83.4692 24.3757 95.5877 24.4142 97.0244 24.4286 97.5611 22.8935 98.4557 22.7995 98.6651 22.7779 98.7141 22.8232 98.8029 22.8886 98.791 22.8443 98.8771 22.9596 98.9394 23.0137 98.9129 22.9824 98.9831 23.1023 99.0706 23.1829 98.9885 23.1345 99.1117 23.2998 99.2018 23.4127 99.0786 23.312 99.3131 23.6874 99.3688 23.9582 99.2601 24.5718 99.0123 25.3744 98.6465 25.7027 98.3828 26.0577 98.0978 25.9878 97.9733 26.0168 97.3544 26.0703 96.2093 26.5449 90.8061 26.6687 89.168 26.7725 87.7963 27.2072 83.7966 27.2654 82.1718 27.3421 82.2009 27.658 82.2009 27.7348 82.1718 27.793 83.7966 28.2277 87.7963 28.3314 89.168 28.4551 90.8061 28.9297 96.2093 28.9833 97.3544 29.0122 97.9733 28.9424 98.0978 29.2974 98.3828 29.6257 98.6465 30.4314 99.0348 31.0419 99.2601 31.3159 99.3609 31.6881 99.3131 31.5873 99.0786 31.7002 99.2018 31.8656 99.1117 31.8172 98.9885 31.8978 99.0706 32.0177 98.9831 31.9865 98.9129 32.0405 98.9394 32.1558 98.8771 32.1116 98.791 32.1769 98.8029 32.2222 98.7141 32.2006 98.6651 32.1067 98.4557 30.5714 97.5611 30.5859 97.0244 30.6244 95.5877 31.2374 83.4692 31.1589 81.5648 31.0933 79.9731 30.9071 78.9142 30.7379 78.1177L30.7264 78.1216 30.5158 77.1489C30.4572 76.8494 30.4194 76.5803 30.4194 76.31 30.4194 75.8064 30.5472 74.6149 30.6145 73.9682L30.6386 73.7323 30.6952 74.1312C30.9921 76.1271 31.6994 80.4157 31.5614 81.0227 31.4642 81.4203 31.3018 82.0286 31.2794 82.3003 31.2545 82.6011 31.523 82.7403 31.606 82.4554 31.6892 82.1678 31.7312 82.0034 31.8305 82.0326 31.9895 82.0777 31.9957 82.8887 31.6909 83.069 31.4065 83.2386 31.5019 83.4586 31.6989 83.395 31.6798 83.5832 31.8701 83.5527 32.1419 83.3937 32.4722 83.2002 32.8673 82.7045 32.9539 81.4495 33.1546 78.5431 32.6628 72.9689 32.1948 70.3183 32.1303 69.9525 31.9476 69.5907 31.6358 69.2925L31.2734 69.0937C31.1135 69.0023 30.9336 68.9228 30.733 68.8618L30.131 68.6762 29.5319 68.4801 28.6764 68.0587 28.5881 67.6478 28.6605 67.5709C28.736 67.4623 28.7966 67.3311 28.8482 67.172L28.8688 67.0846 29.0037 66.5743 29.1002 66.5187C29.125 66.4829 29.1396 66.4365 29.1489 66.3875 29.1503 66.3742 29.1518 66.3623 29.1532 66.3504L29.1584 66.3477C29.1832 66.3119 29.1978 66.2642 29.207 66.2152L29.2328 66.0005 29.3009 65.8149 29.3087 65.7805 29.3591 65.644C29.404 65.5022 29.4312 65.359 29.3746 65.3007 29.3197 65.2464 29.2623 65.2914 29.2623 65.2914 29.2623 65.2914 29.2623 65.2914 29.2624 65.2914 29.2626 65.2914 29.2626 65.2914 29.2627 65.2914 29.2626 65.2914 29.2626 65.2901 29.2624 65.2901 29.2632 65.2848 29.2693 65.2384 29.2754 65.1655 29.2785 65.1019 29.2814 65.0396 29.2844 64.9773 29.2862 64.9999 29.2878 65.0224 29.2893 65.0449 29.288 65.0171 29.2866 64.9893 29.2852 64.9614L29.2895 64.8726C29.2895 64.8726 29.2871 64.8276 29.281 64.7573L29.2707 64.6725C29.2695 64.6473 29.2681 64.6222 29.2669 64.597L29.2563 64.5519 29.25 64.4989C29.235 64.4035 29.2149 64.3054 29.1881 64.2272L29.174 64.2047 29.1581 64.1384C28.9925 63.7157 28.4834 63 27.5616 63Z" fill="url(#paint3_linear_1_39)" fill-rule="evenodd" clip-rule="evenodd"/><path d="M41.5616 23C41.5612 23 41.5609 23 41.5606 23 41.5602 23 41.56 23 41.5597 23 40.6377 23 40.1255 23.5792 39.9598 24.0019 39.9092 24.1318 39.877 24.2829 39.8571 24.4379 39.8567 24.4459 39.8562 24.4539 39.8556 24.4618L39.8082 24.6712C39.7782 24.862 39.7688 25.0449 39.7688 25.0449 39.7703 25.1616 39.7765 25.2636 39.7827 25.3365L39.7947 25.4505 39.7784 25.4558 39.7603 25.4478C39.7391 25.4425 39.711 25.4452 39.6836 25.473 39.5704 25.587 39.7926 26.0508 39.8213 26.137 39.8499 26.2245 39.8098 26.5677 40.0095 26.5823 40.012 26.5916 40.0156 26.6008 40.0185 26.6101 40.0975 27.0435 40.1884 27.3549 40.3398 27.5709L40.4844 27.726 40.4731 27.84C40.4576 27.9314 40.4361 28.007 40.4067 28.0587 40.3616 28.1369 40.1585 28.2376 39.8809 28.3449L39.5969 28.4496 39.589 28.4549C39.5539 28.4722 39.5095 28.4881 39.5817 28.4549L39.5969 28.4496 39.6188 28.4364C39.3971 28.5053 38.5823 28.7518 38.2671 28.8618 37.952 28.9718 37.8873 29.0023 37.7276 29.0937L37.3988 29.3376 36.8053 30.3183C36.3374 32.9689 35.8454 38.5431 36.0461 41.4495 36.1329 42.7045 36.5815 43.1644 36.9063 43.391 37.1238 43.5448 37.3421 43.5209 37.2644 43.3367 37.4405 43.4387 37.5886 43.2399 37.3059 43.0067 37.0145 42.7655 37.0701 42.0604 37.1697 42.0326 37.2689 42.0034 37.3013 42.1638 37.3608 42.4501 37.4213 42.7416 37.6739 42.674 37.6776 42.3719 37.6811 42.1055 37.5358 41.4203 37.4387 41.0227 37.3007 40.4157 38.008 36.1271 38.3049 34.1312L38.3614 33.7323 38.3856 33.9682C38.4529 34.6149 38.5807 35.8064 38.5807 36.31 38.5807 36.5843 38.5428 36.8573 38.484 37.1621L38.2734 38.1561 38.2621 38.1534C38.0986 38.946 37.9204 39.9969 37.8558 41.5648 37.7773 43.4692 38.3757 55.5877 38.4142 57.0244 38.4286 57.5611 36.8935 58.4557 36.7995 58.6651 36.7779 58.7141 36.8232 58.8029 36.8886 58.791 36.8443 58.8771 36.9596 58.9394 37.0137 58.9129 36.9824 58.9831 37.1023 59.0706 37.1829 58.9885 37.1345 59.1117 37.2998 59.2018 37.4127 59.0786 37.312 59.3131 37.6874 59.3688 37.9582 59.2601 38.5718 59.0123 39.3744 58.6465 39.7027 58.3828 40.0577 58.0978 39.9878 57.9733 40.0168 57.3544 40.0703 56.2093 40.5449 50.8061 40.6687 49.168 40.7725 47.7963 41.2072 43.7966 41.2654 42.1718 41.3421 42.2009 41.658 42.2009 41.7348 42.1718 41.793 43.7966 42.2277 47.7963 42.3314 49.168 42.4551 50.8061 42.9297 56.2093 42.9833 57.3544 43.0122 57.9733 42.9424 58.0978 43.2974 58.3828 43.6257 58.6465 44.4314 59.0348 45.0419 59.2601 45.3159 59.3609 45.6881 59.3131 45.5873 59.0786 45.7002 59.2018 45.8656 59.1117 45.8172 58.9885 45.8978 59.0706 46.0177 58.9831 45.9865 58.9129 46.0405 58.9394 46.1558 58.8771 46.1116 58.791 46.1769 58.8029 46.2222 58.7141 46.2006 58.6651 46.1067 58.4557 44.5714 57.5611 44.5859 57.0244 44.6244 55.5877 45.2374 43.4692 45.1589 41.5648 45.0933 39.9731 44.9071 38.9142 44.7379 38.1177L44.7264 38.1216 44.5158 37.1489C44.4572 36.8494 44.4194 36.5803 44.4194 36.31 44.4194 35.8064 44.5472 34.6149 44.6145 33.9682L44.6386 33.7323 44.6952 34.1312C44.9921 36.1271 45.6994 40.4157 45.5614 41.0227 45.4642 41.4203 45.3018 42.0286 45.2794 42.3003 45.2545 42.6011 45.523 42.7403 45.606 42.4554 45.6892 42.1678 45.7312 42.0034 45.8305 42.0326 45.9895 42.0777 45.9957 42.8887 45.6909 43.069 45.4065 43.2386 45.5019 43.4586 45.6989 43.395 45.6798 43.5832 45.8701 43.5527 46.1419 43.3937 46.4722 43.2002 46.8673 42.7045 46.9539 41.4495 47.1546 38.5431 46.6628 32.9689 46.1948 30.3183 46.1303 29.9525 45.9476 29.5907 45.6358 29.2925L45.2734 29.0937C45.1135 29.0023 44.9336 28.9228 44.733 28.8618L44.131 28.6762 43.5319 28.4801 42.6764 28.0587 42.5881 27.6478 42.6605 27.5709C42.736 27.4623 42.7966 27.3311 42.8482 27.172L42.8688 27.0846 43.0037 26.5743 43.1002 26.5187C43.125 26.4829 43.1396 26.4365 43.1489 26.3875 43.1503 26.3742 43.1518 26.3623 43.1532 26.3504L43.1584 26.3477C43.1832 26.3119 43.1978 26.2642 43.207 26.2152L43.2328 26.0005 43.3009 25.8149 43.3087 25.7805 43.3591 25.644C43.404 25.5022 43.4312 25.359 43.3746 25.3007 43.3197 25.2464 43.2623 25.2914 43.2623 25.2914 43.2623 25.2914 43.2623 25.2914 43.2624 25.2914 43.2626 25.2914 43.2626 25.2914 43.2627 25.2914 43.2626 25.2914 43.2626 25.2901 43.2624 25.2901 43.2632 25.2848 43.2693 25.2384 43.2754 25.1655 43.2785 25.1019 43.2814 25.0396 43.2844 24.9773 43.2862 24.9999 43.2878 25.0224 43.2893 25.0449 43.288 25.0171 43.2866 24.9893 43.2852 24.9614L43.2895 24.8726C43.2895 24.8726 43.2871 24.8276 43.281 24.7573L43.2707 24.6725C43.2695 24.6473 43.2681 24.6222 43.2669 24.597L43.2563 24.5519 43.25 24.4989C43.235 24.4035 43.2149 24.3054 43.1881 24.2272L43.174 24.2047 43.1581 24.1384C42.9925 23.7157 42.4834 23 41.5616 23Z" fill="#002273" fill-rule="evenodd" clip-rule="evenodd"/><path d="M41.5616 63C41.5612 63 41.5609 63 41.5606 63 41.5602 63 41.56 63 41.5597 63 40.6377 63 40.1255 63.5792 39.9598 64.0019 39.9092 64.1318 39.877 64.2829 39.8571 64.4379 39.8567 64.4459 39.8562 64.4539 39.8556 64.4618L39.8082 64.6712C39.7782 64.862 39.7688 65.0449 39.7688 65.0449 39.7703 65.1616 39.7765 65.2636 39.7827 65.3365L39.7947 65.4505 39.7784 65.4558 39.7603 65.4478C39.7391 65.4425 39.711 65.4452 39.6836 65.473 39.5704 65.587 39.7926 66.0508 39.8213 66.137 39.8499 66.2245 39.8098 66.5677 40.0095 66.5823 40.012 66.5916 40.0156 66.6008 40.0185 66.6101 40.0975 67.0435 40.1884 67.3549 40.3398 67.5709L40.4844 67.726 40.4731 67.84C40.4576 67.9314 40.4361 68.007 40.4067 68.0587 40.3616 68.1369 40.1585 68.2376 39.8809 68.3449L39.5969 68.4496 39.589 68.4549C39.5539 68.4722 39.5095 68.4881 39.5817 68.4549L39.5969 68.4496 39.6188 68.4364C39.3971 68.5053 38.5823 68.7518 38.2671 68.8618 37.952 68.9718 37.8873 69.0023 37.7276 69.0937L37.3988 69.3376 36.8053 70.3183C36.3374 72.9689 35.8454 78.5431 36.0461 81.4495 36.1329 82.7045 36.5815 83.1644 36.9063 83.391 37.1238 83.5448 37.3421 83.5209 37.2644 83.3367 37.4405 83.4387 37.5886 83.2399 37.3059 83.0067 37.0145 82.7655 37.0701 82.0604 37.1697 82.0326 37.2689 82.0034 37.3013 82.1638 37.3608 82.4501 37.4213 82.7416 37.6739 82.674 37.6776 82.3719 37.6811 82.1055 37.5358 81.4203 37.4387 81.0227 37.3007 80.4157 38.008 76.1271 38.3049 74.1312L38.3614 73.7323 38.3856 73.9682C38.4529 74.6149 38.5807 75.8064 38.5807 76.31 38.5807 76.5843 38.5428 76.8573 38.484 77.1621L38.2734 78.1561 38.2621 78.1534C38.0986 78.946 37.9204 79.9969 37.8558 81.5648 37.7773 83.4692 38.3757 95.5877 38.4142 97.0244 38.4286 97.5611 36.8935 98.4557 36.7995 98.6651 36.7779 98.7141 36.8232 98.8029 36.8886 98.791 36.8443 98.8771 36.9596 98.9394 37.0137 98.9129 36.9824 98.9831 37.1023 99.0706 37.1829 98.9885 37.1345 99.1117 37.2998 99.2018 37.4127 99.0786 37.312 99.3131 37.6874 99.3688 37.9582 99.2601 38.5718 99.0123 39.3744 98.6465 39.7027 98.3828 40.0577 98.0978 39.9878 97.9733 40.0168 97.3544 40.0703 96.2093 40.5449 90.8061 40.6687 89.168 40.7725 87.7963 41.2072 83.7966 41.2654 82.1718 41.3421 82.2009 41.658 82.2009 41.7348 82.1718 41.793 83.7966 42.2277 87.7963 42.3314 89.168 42.4551 90.8061 42.9297 96.2093 42.9833 97.3544 43.0122 97.9733 42.9424 98.0978 43.2974 98.3828 43.6257 98.6465 44.4314 99.0348 45.0419 99.2601 45.3159 99.3609 45.6881 99.3131 45.5873 99.0786 45.7002 99.2018 45.8656 99.1117 45.8172 98.9885 45.8978 99.0706 46.0177 98.9831 45.9865 98.9129 46.0405 98.9394 46.1558 98.8771 46.1116 98.791 46.1769 98.8029 46.2222 98.7141 46.2006 98.6651 46.1067 98.4557 44.5714 97.5611 44.5859 97.0244 44.6244 95.5877 45.2374 83.4692 45.1589 81.5648 45.0933 79.9731 44.9071 78.9142 44.7379 78.1177L44.7264 78.1216 44.5158 77.1489C44.4572 76.8494 44.4194 76.5803 44.4194 76.31 44.4194 75.8064 44.5472 74.6149 44.6145 73.9682L44.6386 73.7323 44.6952 74.1312C44.9921 76.1271 45.6994 80.4157 45.5614 81.0227 45.4642 81.4203 45.3018 82.0286 45.2794 82.3003 45.2545 82.6011 45.523 82.7403 45.606 82.4554 45.6892 82.1678 45.7312 82.0034 45.8305 82.0326 45.9895 82.0777 45.9957 82.8887 45.6909 83.069 45.4065 83.2386 45.5019 83.4586 45.6989 83.395 45.6798 83.5832 45.8701 83.5527 46.1419 83.3937 46.4722 83.2002 46.8673 82.7045 46.9539 81.4495 47.1546 78.5431 46.6628 72.9689 46.1948 70.3183 46.1303 69.9525 45.9476 69.5907 45.6358 69.2925L45.2734 69.0937C45.1135 69.0023 44.9336 68.9228 44.733 68.8618L44.131 68.6762 43.5319 68.4801 42.6764 68.0587 42.5881 67.6478 42.6605 67.5709C42.736 67.4623 42.7966 67.3311 42.8482 67.172L42.8688 67.0846 43.0037 66.5743 43.1002 66.5187C43.125 66.4829 43.1396 66.4365 43.1489 66.3875 43.1503 66.3742 43.1518 66.3623 43.1532 66.3504L43.1584 66.3477C43.1832 66.3119 43.1978 66.2642 43.207 66.2152L43.2328 66.0005 43.3009 65.8149 43.3087 65.7805 43.3591 65.644C43.404 65.5022 43.4312 65.359 43.3746 65.3007 43.3197 65.2464 43.2623 65.2914 43.2623 65.2914 43.2623 65.2914 43.2623 65.2914 43.2624 65.2914 43.2626 65.2914 43.2626 65.2914 43.2627 65.2914 43.2626 65.2914 43.2626 65.2901 43.2624 65.2901 43.2632 65.2848 43.2693 65.2384 43.2754 65.1655 43.2785 65.1019 43.2814 65.0396 43.2844 64.9773 43.2862 64.9999 43.2878 65.0224 43.2893 65.0449 43.288 65.0171 43.2866 64.9893 43.2852 64.9614L43.2895 64.8726C43.2895 64.8726 43.2871 64.8276 43.281 64.7573L43.2707 64.6725C43.2695 64.6473 43.2681 64.6222 43.2669 64.597L43.2563 64.5519 43.25 64.4989C43.235 64.4035 43.2149 64.3054 43.1881 64.2272L43.174 64.2047 43.1581 64.1384C42.9925 63.7157 42.4834 63 41.5616 63Z" fill="url(#paint4_linear_1_39)" fill-rule="evenodd" clip-rule="evenodd"/><path d="M55.5616 23C55.5612 23 55.5609 23 55.5606 23 55.5602 23 55.56 23 55.5597 23 54.6377 23 54.1255 23.5792 53.9598 24.0019 53.9092 24.1318 53.877 24.2829 53.8571 24.4379 53.8567 24.4459 53.8562 24.4539 53.8556 24.4618L53.8082 24.6712C53.7782 24.862 53.7688 25.0449 53.7688 25.0449 53.7703 25.1616 53.7765 25.2636 53.7827 25.3365L53.7947 25.4505 53.7784 25.4558 53.7603 25.4478C53.7391 25.4425 53.711 25.4452 53.6836 25.473 53.5704 25.587 53.7926 26.0508 53.8213 26.137 53.8499 26.2245 53.8098 26.5677 54.0095 26.5823 54.012 26.5916 54.0156 26.6008 54.0185 26.6101 54.0975 27.0435 54.1884 27.3549 54.3398 27.5709L54.4844 27.726 54.4731 27.84C54.4576 27.9314 54.4361 28.007 54.4067 28.0587 54.3616 28.1369 54.1585 28.2376 53.8809 28.3449L53.5969 28.4496 53.589 28.4549C53.5539 28.4722 53.5095 28.4881 53.5817 28.4549L53.5969 28.4496 53.6188 28.4364C53.3971 28.5053 52.5823 28.7518 52.2671 28.8618 51.952 28.9718 51.8873 29.0023 51.7276 29.0937L51.3988 29.3376 50.8053 30.3183C50.3374 32.9689 49.8454 38.5431 50.0461 41.4495 50.1329 42.7045 50.5815 43.1644 50.9063 43.391 51.1238 43.5448 51.3421 43.5209 51.2644 43.3367 51.4405 43.4387 51.5886 43.2399 51.3059 43.0067 51.0145 42.7655 51.0701 42.0604 51.1697 42.0326 51.2689 42.0034 51.3013 42.1638 51.3608 42.4501 51.4213 42.7416 51.6739 42.674 51.6776 42.3719 51.6811 42.1055 51.5358 41.4203 51.4387 41.0227 51.3007 40.4157 52.008 36.1271 52.3049 34.1312L52.3614 33.7323 52.3856 33.9682C52.4529 34.6149 52.5807 35.8064 52.5807 36.31 52.5807 36.5843 52.5428 36.8573 52.484 37.1621L52.2734 38.1561 52.2621 38.1534C52.0986 38.946 51.9204 39.9969 51.8558 41.5648 51.7773 43.4692 52.3757 55.5877 52.4142 57.0244 52.4286 57.5611 50.8935 58.4557 50.7995 58.6651 50.7779 58.7141 50.8232 58.8029 50.8886 58.791 50.8443 58.8771 50.9596 58.9394 51.0137 58.9129 50.9824 58.9831 51.1023 59.0706 51.1829 58.9885 51.1345 59.1117 51.2998 59.2018 51.4127 59.0786 51.312 59.3131 51.6874 59.3688 51.9582 59.2601 52.5718 59.0123 53.3744 58.6465 53.7027 58.3828 54.0577 58.0978 53.9878 57.9733 54.0168 57.3544 54.0703 56.2093 54.5449 50.8061 54.6687 49.168 54.7725 47.7963 55.2072 43.7966 55.2654 42.1718 55.3421 42.2009 55.658 42.2009 55.7348 42.1718 55.793 43.7966 56.2277 47.7963 56.3314 49.168 56.4551 50.8061 56.9297 56.2093 56.9833 57.3544 57.0122 57.9733 56.9424 58.0978 57.2974 58.3828 57.6257 58.6465 58.4314 59.0348 59.0419 59.2601 59.3159 59.3609 59.6881 59.3131 59.5873 59.0786 59.7002 59.2018 59.8656 59.1117 59.8172 58.9885 59.8978 59.0706 60.0177 58.9831 59.9865 58.9129 60.0405 58.9394 60.1558 58.8771 60.1116 58.791 60.1769 58.8029 60.2222 58.7141 60.2006 58.6651 60.1067 58.4557 58.5714 57.5611 58.5859 57.0244 58.6244 55.5877 59.2374 43.4692 59.1589 41.5648 59.0933 39.9731 58.9071 38.9142 58.7379 38.1177L58.7264 38.1216 58.5158 37.1489C58.4572 36.8494 58.4194 36.5803 58.4194 36.31 58.4194 35.8064 58.5472 34.6149 58.6145 33.9682L58.6386 33.7323 58.6952 34.1312C58.9921 36.1271 59.6994 40.4157 59.5614 41.0227 59.4642 41.4203 59.3018 42.0286 59.2794 42.3003 59.2545 42.6011 59.523 42.7403 59.606 42.4554 59.6892 42.1678 59.7312 42.0034 59.8305 42.0326 59.9895 42.0777 59.9957 42.8887 59.6909 43.069 59.4065 43.2386 59.5019 43.4586 59.6989 43.395 59.6798 43.5832 59.8701 43.5527 60.1419 43.3937 60.4722 43.2002 60.8673 42.7045 60.9539 41.4495 61.1546 38.5431 60.6628 32.9689 60.1948 30.3183 60.1303 29.9525 59.9476 29.5907 59.6358 29.2925L59.2734 29.0937C59.1135 29.0023 58.9336 28.9228 58.733 28.8618L58.131 28.6762 57.5319 28.4801 56.6764 28.0587 56.5881 27.6478 56.6605 27.5709C56.736 27.4623 56.7966 27.3311 56.8482 27.172L56.8688 27.0846 57.0037 26.5743 57.1002 26.5187C57.125 26.4829 57.1396 26.4365 57.1489 26.3875 57.1503 26.3742 57.1518 26.3623 57.1532 26.3504L57.1584 26.3477C57.1832 26.3119 57.1978 26.2642 57.207 26.2152L57.2328 26.0005 57.3009 25.8149 57.3087 25.7805 57.3591 25.644C57.404 25.5022 57.4312 25.359 57.3746 25.3007 57.3197 25.2464 57.2623 25.2914 57.2623 25.2914 57.2623 25.2914 57.2623 25.2914 57.2624 25.2914 57.2626 25.2914 57.2626 25.2914 57.2627 25.2914 57.2626 25.2914 57.2626 25.2901 57.2624 25.2901 57.2632 25.2848 57.2693 25.2384 57.2754 25.1655 57.2785 25.1019 57.2814 25.0396 57.2844 24.9773 57.2862 24.9999 57.2878 25.0224 57.2893 25.0449 57.288 25.0171 57.2866 24.9893 57.2852 24.9614L57.2895 24.8726C57.2895 24.8726 57.2871 24.8276 57.281 24.7573L57.2707 24.6725C57.2695 24.6473 57.2681 24.6222 57.2669 24.597L57.2563 24.5519 57.25 24.4989C57.235 24.4035 57.2149 24.3054 57.1881 24.2272L57.174 24.2047 57.1581 24.1384C56.9925 23.7157 56.4834 23 55.5616 23Z" fill="#002273" fill-rule="evenodd" clip-rule="evenodd"/><path d="M55.5616 63C55.5612 63 55.5609 63 55.5606 63 55.5602 63 55.56 63 55.5597 63 54.6377 63 54.1255 63.5792 53.9598 64.0019 53.9092 64.1318 53.877 64.2829 53.8571 64.4379 53.8567 64.4459 53.8562 64.4539 53.8556 64.4618L53.8082 64.6712C53.7782 64.862 53.7688 65.0449 53.7688 65.0449 53.7703 65.1616 53.7765 65.2636 53.7827 65.3365L53.7947 65.4505 53.7784 65.4558 53.7603 65.4478C53.7391 65.4425 53.711 65.4452 53.6836 65.473 53.5704 65.587 53.7926 66.0508 53.8213 66.137 53.8499 66.2245 53.8098 66.5677 54.0095 66.5823 54.012 66.5916 54.0156 66.6008 54.0185 66.6101 54.0975 67.0435 54.1884 67.3549 54.3398 67.5709L54.4844 67.726 54.4731 67.84C54.4576 67.9314 54.4361 68.007 54.4067 68.0587 54.3616 68.1369 54.1585 68.2376 53.8809 68.3449L53.5969 68.4496 53.589 68.4549C53.5539 68.4722 53.5095 68.4881 53.5817 68.4549L53.5969 68.4496 53.6188 68.4364C53.3971 68.5053 52.5823 68.7518 52.2671 68.8618 51.952 68.9718 51.8873 69.0023 51.7276 69.0937L51.3988 69.3376 50.8053 70.3183C50.3374 72.9689 49.8454 78.5431 50.0461 81.4495 50.1329 82.7045 50.5815 83.1644 50.9063 83.391 51.1238 83.5448 51.3421 83.5209 51.2644 83.3367 51.4405 83.4387 51.5886 83.2399 51.3059 83.0067 51.0145 82.7655 51.0701 82.0604 51.1697 82.0326 51.2689 82.0034 51.3013 82.1638 51.3608 82.4501 51.4213 82.7416 51.6739 82.674 51.6776 82.3719 51.6811 82.1055 51.5358 81.4203 51.4387 81.0227 51.3007 80.4157 52.008 76.1271 52.3049 74.1312L52.3614 73.7323 52.3856 73.9682C52.4529 74.6149 52.5807 75.8064 52.5807 76.31 52.5807 76.5843 52.5428 76.8573 52.484 77.1621L52.2734 78.1561 52.2621 78.1534C52.0986 78.946 51.9204 79.9969 51.8558 81.5648 51.7773 83.4692 52.3757 95.5877 52.4142 97.0244 52.4286 97.5611 50.8935 98.4557 50.7995 98.6651 50.7779 98.7141 50.8232 98.8029 50.8886 98.791 50.8443 98.8771 50.9596 98.9394 51.0137 98.9129 50.9824 98.9831 51.1023 99.0706 51.1829 98.9885 51.1345 99.1117 51.2998 99.2018 51.4127 99.0786 51.312 99.3131 51.6874 99.3688 51.9582 99.2601 52.5718 99.0123 53.3744 98.6465 53.7027 98.3828 54.0577 98.0978 53.9878 97.9733 54.0168 97.3544 54.0703 96.2093 54.5449 90.8061 54.6687 89.168 54.7725 87.7963 55.2072 83.7966 55.2654 82.1718 55.3421 82.2009 55.658 82.2009 55.7348 82.1718 55.793 83.7966 56.2277 87.7963 56.3314 89.168 56.4551 90.8061 56.9297 96.2093 56.9833 97.3544 57.0122 97.9733 56.9424 98.0978 57.2974 98.3828 57.6257 98.6465 58.4314 99.0348 59.0419 99.2601 59.3159 99.3609 59.6881 99.3131 59.5873 99.0786 59.7002 99.2018 59.8656 99.1117 59.8172 98.9885 59.8978 99.0706 60.0177 98.9831 59.9865 98.9129 60.0405 98.9394 60.1558 98.8771 60.1116 98.791 60.1769 98.8029 60.2222 98.7141 60.2006 98.6651 60.1067 98.4557 58.5714 97.5611 58.5859 97.0244 58.6244 95.5877 59.2374 83.4692 59.1589 81.5648 59.0933 79.9731 58.9071 78.9142 58.7379 78.1177L58.7264 78.1216 58.5158 77.1489C58.4572 76.8494 58.4194 76.5803 58.4194 76.31 58.4194 75.8064 58.5472 74.6149 58.6145 73.9682L58.6386 73.7323 58.6952 74.1312C58.9921 76.1271 59.6994 80.4157 59.5614 81.0227 59.4642 81.4203 59.3018 82.0286 59.2794 82.3003 59.2545 82.6011 59.523 82.7403 59.606 82.4554 59.6892 82.1678 59.7312 82.0034 59.8305 82.0326 59.9895 82.0777 59.9957 82.8887 59.6909 83.069 59.4065 83.2386 59.5019 83.4586 59.6989 83.395 59.6798 83.5832 59.8701 83.5527 60.1419 83.3937 60.4722 83.2002 60.8673 82.7045 60.9539 81.4495 61.1546 78.5431 60.6628 72.9689 60.1948 70.3183 60.1303 69.9525 59.9476 69.5907 59.6358 69.2925L59.2734 69.0937C59.1135 69.0023 58.9336 68.9228 58.733 68.8618L58.131 68.6762 57.5319 68.4801 56.6764 68.0587 56.5881 67.6478 56.6605 67.5709C56.736 67.4623 56.7966 67.3311 56.8482 67.172L56.8688 67.0846 57.0037 66.5743 57.1002 66.5187C57.125 66.4829 57.1396 66.4365 57.1489 66.3875 57.1503 66.3742 57.1518 66.3623 57.1532 66.3504L57.1584 66.3477C57.1832 66.3119 57.1978 66.2642 57.207 66.2152L57.2328 66.0005 57.3009 65.8149 57.3087 65.7805 57.3591 65.644C57.404 65.5022 57.4312 65.359 57.3746 65.3007 57.3197 65.2464 57.2623 65.2914 57.2623 65.2914 57.2623 65.2914 57.2623 65.2914 57.2624 65.2914 57.2626 65.2914 57.2626 65.2914 57.2627 65.2914 57.2626 65.2914 57.2626 65.2901 57.2624 65.2901 57.2632 65.2848 57.2693 65.2384 57.2754 65.1655 57.2785 65.1019 57.2814 65.0396 57.2844 64.9773 57.2862 64.9999 57.2878 65.0224 57.2893 65.0449 57.288 65.0171 57.2866 64.9893 57.2852 64.9614L57.2895 64.8726C57.2895 64.8726 57.2871 64.8276 57.281 64.7573L57.2707 64.6725C57.2695 64.6473 57.2681 64.6222 57.2669 64.597L57.2563 64.5519 57.25 64.4989C57.235 64.4035 57.2149 64.3054 57.1881 64.2272L57.174 64.2047 57.1581 64.1384C56.9925 63.7157 56.4834 63 55.5616 63Z" fill="#002273" fill-rule="evenodd" clip-rule="evenodd"/><path d="M69.5616 23C69.5612 23 69.5609 23 69.5606 23 69.5602 23 69.56 23 69.5597 23 68.6377 23 68.1255 23.5792 67.9598 24.0019 67.9092 24.1318 67.877 24.2829 67.8571 24.4379 67.8567 24.4459 67.8562 24.4539 67.8556 24.4618L67.8082 24.6712C67.7782 24.862 67.7688 25.0449 67.7688 25.0449 67.7703 25.1616 67.7765 25.2636 67.7827 25.3365L67.7947 25.4505 67.7784 25.4558 67.7603 25.4478C67.7391 25.4425 67.711 25.4452 67.6836 25.473 67.5704 25.587 67.7926 26.0508 67.8213 26.137 67.8499 26.2245 67.8098 26.5677 68.0095 26.5823 68.012 26.5916 68.0156 26.6008 68.0185 26.6101 68.0975 27.0435 68.1884 27.3549 68.3398 27.5709L68.4844 27.726 68.4731 27.84C68.4576 27.9314 68.4361 28.007 68.4067 28.0587 68.3616 28.1369 68.1585 28.2376 67.8809 28.3449L67.5969 28.4496 67.589 28.4549C67.5539 28.4722 67.5095 28.4881 67.5817 28.4549L67.5969 28.4496 67.6188 28.4364C67.3971 28.5053 66.5823 28.7518 66.2671 28.8618 65.952 28.9718 65.8873 29.0023 65.7276 29.0937L65.3988 29.3376 64.8053 30.3183C64.3374 32.9689 63.8454 38.5431 64.0461 41.4495 64.1329 42.7045 64.5815 43.1644 64.9063 43.391 65.1238 43.5448 65.3421 43.5209 65.2644 43.3367 65.4405 43.4387 65.5886 43.2399 65.3059 43.0067 65.0145 42.7655 65.0701 42.0604 65.1697 42.0326 65.2689 42.0034 65.3013 42.1638 65.3608 42.4501 65.4213 42.7416 65.6739 42.674 65.6776 42.3719 65.6811 42.1055 65.5358 41.4203 65.4387 41.0227 65.3007 40.4157 66.008 36.1271 66.3049 34.1312L66.3614 33.7323 66.3856 33.9682C66.4529 34.6149 66.5807 35.8064 66.5807 36.31 66.5807 36.5843 66.5428 36.8573 66.484 37.1621L66.2734 38.1561 66.2621 38.1534C66.0986 38.946 65.9204 39.9969 65.8558 41.5648 65.7773 43.4692 66.3757 55.5877 66.4142 57.0244 66.4286 57.5611 64.8935 58.4557 64.7995 58.6651 64.7779 58.7141 64.8232 58.8029 64.8886 58.791 64.8443 58.8771 64.9596 58.9394 65.0137 58.9129 64.9824 58.9831 65.1023 59.0706 65.1829 58.9885 65.1345 59.1117 65.2998 59.2018 65.4127 59.0786 65.312 59.3131 65.6874 59.3688 65.9582 59.2601 66.5718 59.0123 67.3744 58.6465 67.7027 58.3828 68.0577 58.0978 67.9878 57.9733 68.0168 57.3544 68.0703 56.2093 68.5449 50.8061 68.6687 49.168 68.7725 47.7963 69.2072 43.7966 69.2654 42.1718 69.3421 42.2009 69.658 42.2009 69.7348 42.1718 69.793 43.7966 70.2277 47.7963 70.3314 49.168 70.4551 50.8061 70.9297 56.2093 70.9833 57.3544 71.0122 57.9733 70.9424 58.0978 71.2974 58.3828 71.6257 58.6465 72.4314 59.0348 73.0419 59.2601 73.3159 59.3609 73.6881 59.3131 73.5873 59.0786 73.7002 59.2018 73.8656 59.1117 73.8172 58.9885 73.8978 59.0706 74.0177 58.9831 73.9865 58.9129 74.0405 58.9394 74.1558 58.8771 74.1116 58.791 74.1769 58.8029 74.2222 58.7141 74.2006 58.6651 74.1067 58.4557 72.5714 57.5611 72.5859 57.0244 72.6244 55.5877 73.2374 43.4692 73.1589 41.5648 73.0933 39.9731 72.9071 38.9142 72.7379 38.1177L72.7264 38.1216 72.5158 37.1489C72.4572 36.8494 72.4194 36.5803 72.4194 36.31 72.4194 35.8064 72.5472 34.6149 72.6145 33.9682L72.6386 33.7323 72.6952 34.1312C72.9921 36.1271 73.6994 40.4157 73.5614 41.0227 73.4642 41.4203 73.3018 42.0286 73.2794 42.3003 73.2545 42.6011 73.523 42.7403 73.606 42.4554 73.6892 42.1678 73.7312 42.0034 73.8305 42.0326 73.9895 42.0777 73.9957 42.8887 73.6909 43.069 73.4065 43.2386 73.5019 43.4586 73.6989 43.395 73.6798 43.5832 73.8701 43.5527 74.1419 43.3937 74.4722 43.2002 74.8673 42.7045 74.9539 41.4495 75.1546 38.5431 74.6628 32.9689 74.1948 30.3183 74.1303 29.9525 73.9476 29.5907 73.6358 29.2925L73.2734 29.0937C73.1135 29.0023 72.9336 28.9228 72.733 28.8618L72.131 28.6762 71.5319 28.4801 70.6764 28.0587 70.5881 27.6478 70.6605 27.5709C70.736 27.4623 70.7966 27.3311 70.8482 27.172L70.8688 27.0846 71.0037 26.5743 71.1002 26.5187C71.125 26.4829 71.1396 26.4365 71.1489 26.3875 71.1503 26.3742 71.1518 26.3623 71.1532 26.3504L71.1584 26.3477C71.1832 26.3119 71.1978 26.2642 71.207 26.2152L71.2328 26.0005 71.3009 25.8149 71.3087 25.7805 71.3591 25.644C71.404 25.5022 71.4312 25.359 71.3746 25.3007 71.3197 25.2464 71.2623 25.2914 71.2623 25.2914 71.2623 25.2914 71.2623 25.2914 71.2624 25.2914 71.2626 25.2914 71.2626 25.2914 71.2627 25.2914 71.2626 25.2914 71.2626 25.2901 71.2624 25.2901 71.2632 25.2848 71.2693 25.2384 71.2754 25.1655 71.2785 25.1019 71.2814 25.0396 71.2844 24.9773 71.2862 24.9999 71.2878 25.0224 71.2893 25.0449 71.288 25.0171 71.2866 24.9893 71.2852 24.9614L71.2895 24.8726C71.2895 24.8726 71.2871 24.8276 71.281 24.7573L71.2707 24.6725C71.2695 24.6473 71.2681 24.6222 71.2669 24.597L71.2563 24.5519 71.25 24.4989C71.235 24.4035 71.2149 24.3054 71.1881 24.2272L71.174 24.2047 71.1581 24.1384C70.9925 23.7157 70.4834 23 69.5616 23Z" fill="#002273" fill-rule="evenodd" clip-rule="evenodd"/><path d="M69.5616 63C69.5612 63 69.5609 63 69.5606 63 69.5602 63 69.56 63 69.5597 63 68.6377 63 68.1255 63.5792 67.9598 64.0019 67.9092 64.1318 67.877 64.2829 67.8571 64.4379 67.8567 64.4459 67.8562 64.4539 67.8556 64.4618L67.8082 64.6712C67.7782 64.862 67.7688 65.0449 67.7688 65.0449 67.7703 65.1616 67.7765 65.2636 67.7827 65.3365L67.7947 65.4505 67.7784 65.4558 67.7603 65.4478C67.7391 65.4425 67.711 65.4452 67.6836 65.473 67.5704 65.587 67.7926 66.0508 67.8213 66.137 67.8499 66.2245 67.8098 66.5677 68.0095 66.5823 68.012 66.5916 68.0156 66.6008 68.0185 66.6101 68.0975 67.0435 68.1884 67.3549 68.3398 67.5709L68.4844 67.726 68.4731 67.84C68.4576 67.9314 68.4361 68.007 68.4067 68.0587 68.3616 68.1369 68.1585 68.2376 67.8809 68.3449L67.5969 68.4496 67.589 68.4549C67.5539 68.4722 67.5095 68.4881 67.5817 68.4549L67.5969 68.4496 67.6188 68.4364C67.3971 68.5053 66.5823 68.7518 66.2671 68.8618 65.952 68.9718 65.8873 69.0023 65.7276 69.0937L65.3988 69.3376 64.8053 70.3183C64.3374 72.9689 63.8454 78.5431 64.0461 81.4495 64.1329 82.7045 64.5815 83.1644 64.9063 83.391 65.1238 83.5448 65.3421 83.5209 65.2644 83.3367 65.4405 83.4387 65.5886 83.2399 65.3059 83.0067 65.0145 82.7655 65.0701 82.0604 65.1697 82.0326 65.2689 82.0034 65.3013 82.1638 65.3608 82.4501 65.4213 82.7416 65.6739 82.674 65.6776 82.3719 65.6811 82.1055 65.5358 81.4203 65.4387 81.0227 65.3007 80.4157 66.008 76.1271 66.3049 74.1312L66.3614 73.7323 66.3856 73.9682C66.4529 74.6149 66.5807 75.8064 66.5807 76.31 66.5807 76.5843 66.5428 76.8573 66.484 77.1621L66.2734 78.1561 66.2621 78.1534C66.0986 78.946 65.9204 79.9969 65.8558 81.5648 65.7773 83.4692 66.3757 95.5877 66.4142 97.0244 66.4286 97.5611 64.8935 98.4557 64.7995 98.6651 64.7779 98.7141 64.8232 98.8029 64.8886 98.791 64.8443 98.8771 64.9596 98.9394 65.0137 98.9129 64.9824 98.9831 65.1023 99.0706 65.1829 98.9885 65.1345 99.1117 65.2998 99.2018 65.4127 99.0786 65.312 99.3131 65.6874 99.3688 65.9582 99.2601 66.5718 99.0123 67.3744 98.6465 67.7027 98.3828 68.0577 98.0978 67.9878 97.9733 68.0168 97.3544 68.0703 96.2093 68.5449 90.8061 68.6687 89.168 68.7725 87.7963 69.2072 83.7966 69.2654 82.1718 69.3421 82.2009 69.658 82.2009 69.7348 82.1718 69.793 83.7966 70.2277 87.7963 70.3314 89.168 70.4551 90.8061 70.9297 96.2093 70.9833 97.3544 71.0122 97.9733 70.9424 98.0978 71.2974 98.3828 71.6257 98.6465 72.4314 99.0348 73.0419 99.2601 73.3159 99.3609 73.6881 99.3131 73.5873 99.0786 73.7002 99.2018 73.8656 99.1117 73.8172 98.9885 73.8978 99.0706 74.0177 98.9831 73.9865 98.9129 74.0405 98.9394 74.1558 98.8771 74.1116 98.791 74.1769 98.8029 74.2222 98.7141 74.2006 98.6651 74.1067 98.4557 72.5714 97.5611 72.5859 97.0244 72.6244 95.5877 73.2374 83.4692 73.1589 81.5648 73.0933 79.9731 72.9071 78.9142 72.7379 78.1177L72.7264 78.1216 72.5158 77.1489C72.4572 76.8494 72.4194 76.5803 72.4194 76.31 72.4194 75.8064 72.5472 74.6149 72.6145 73.9682L72.6386 73.7323 72.6952 74.1312C72.9921 76.1271 73.6994 80.4157 73.5614 81.0227 73.4642 81.4203 73.3018 82.0286 73.2794 82.3003 73.2545 82.6011 73.523 82.7403 73.606 82.4554 73.6892 82.1678 73.7312 82.0034 73.8305 82.0326 73.9895 82.0777 73.9957 82.8887 73.6909 83.069 73.4065 83.2386 73.5019 83.4586 73.6989 83.395 73.6798 83.5832 73.8701 83.5527 74.1419 83.3937 74.4722 83.2002 74.8673 82.7045 74.9539 81.4495 75.1546 78.5431 74.6628 72.9689 74.1948 70.3183 74.1303 69.9525 73.9476 69.5907 73.6358 69.2925L73.2734 69.0937C73.1135 69.0023 72.9336 68.9228 72.733 68.8618L72.131 68.6762 71.5319 68.4801 70.6764 68.0587 70.5881 67.6478 70.6605 67.5709C70.736 67.4623 70.7966 67.3311 70.8482 67.172L70.8688 67.0846 71.0037 66.5743 71.1002 66.5187C71.125 66.4829 71.1396 66.4365 71.1489 66.3875 71.1503 66.3742 71.1518 66.3623 71.1532 66.3504L71.1584 66.3477C71.1832 66.3119 71.1978 66.2642 71.207 66.2152L71.2328 66.0005 71.3009 65.8149 71.3087 65.7805 71.3591 65.644C71.404 65.5022 71.4312 65.359 71.3746 65.3007 71.3197 65.2464 71.2623 65.2914 71.2623 65.2914 71.2623 65.2914 71.2623 65.2914 71.2624 65.2914 71.2626 65.2914 71.2626 65.2914 71.2627 65.2914 71.2626 65.2914 71.2626 65.2901 71.2624 65.2901 71.2632 65.2848 71.2693 65.2384 71.2754 65.1655 71.2785 65.1019 71.2814 65.0396 71.2844 64.9773 71.2862 64.9999 71.2878 65.0224 71.2893 65.0449 71.288 65.0171 71.2866 64.9893 71.2852 64.9614L71.2895 64.8726C71.2895 64.8726 71.2871 64.8276 71.281 64.7573L71.2707 64.6725C71.2695 64.6473 71.2681 64.6222 71.2669 64.597L71.2563 64.5519 71.25 64.4989C71.235 64.4035 71.2149 64.3054 71.1881 64.2272L71.174 64.2047 71.1581 64.1384C70.9925 63.7157 70.4834 63 69.5616 63Z" fill="#002273" fill-rule="evenodd" clip-rule="evenodd"/><path d="M20.5742 15.4072 20.5742 17 14.709 17 14.709 15.6396 17.4023 12.2148C17.6621 11.8548 17.8649 11.5404 18.0107 11.2715 18.1566 10.998 18.2614 10.7542 18.3252 10.54 18.389 10.3213 18.4209 10.1162 18.4209 9.9248 18.4209 9.62858 18.3867 9.37565 18.3184 9.16602 18.25 8.95182 18.1475 8.78776 18.0107 8.67383 17.8786 8.55534 17.7145 8.49609 17.5186 8.49609 17.2816 8.49609 17.0856 8.56901 16.9307 8.71484 16.7757 8.86068 16.6595 9.0612 16.582 9.31641 16.5091 9.56706 16.4727 9.85189 16.4727 10.1709L14.5518 10.1709C14.5518 9.57389 14.6725 9.02702 14.9141 8.53027 15.1602 8.03353 15.5042 7.63932 15.9463 7.34766 16.3929 7.05143 16.9284 6.90332 17.5527 6.90332 18.1634 6.90332 18.6738 7.01725 19.084 7.24512 19.4987 7.47298 19.8109 7.79883 20.0205 8.22266 20.2347 8.64193 20.3418 9.14323 20.3418 9.72656 20.3418 10.0592 20.2985 10.3828 20.2119 10.6973 20.1253 11.0072 20.0023 11.3171 19.8428 11.627 19.6833 11.9323 19.4873 12.2445 19.2549 12.5635 19.0225 12.8825 18.7604 13.2129 18.4688 13.5547L17.1699 15.4072 20.5742 15.4072ZM27.5674 11.1484 27.5674 12.8779C27.5674 13.6253 27.4967 14.2679 27.3555 14.8057 27.2142 15.3434 27.016 15.7855 26.7607 16.1318 26.5055 16.4736 26.2025 16.7266 25.8516 16.8906 25.5007 17.0547 25.1133 17.1367 24.6895 17.1367 24.3522 17.1367 24.0355 17.0843 23.7393 16.9795 23.443 16.8747 23.1742 16.7152 22.9326 16.501 22.6956 16.2822 22.4906 16.0065 22.3174 15.6738 22.1488 15.3366 22.0189 14.9378 21.9277 14.4775 21.8366 14.0127 21.791 13.4795 21.791 12.8779L21.791 11.1484C21.791 10.401 21.8617 9.76074 22.0029 9.22754 22.1488 8.68978 22.3493 8.25 22.6045 7.9082 22.8597 7.56641 23.1628 7.31576 23.5137 7.15625 23.8691 6.99219 24.2588 6.91016 24.6826 6.91016 25.0153 6.91016 25.3298 6.96257 25.626 7.06738 25.9268 7.16764 26.1934 7.32487 26.4258 7.53906 26.6628 7.75326 26.8656 8.02897 27.0342 8.36621 27.2074 8.69889 27.3395 9.09766 27.4307 9.5625 27.5218 10.0228 27.5674 10.5514 27.5674 11.1484ZM25.6465 13.1445 25.6465 10.8682C25.6465 10.5173 25.6305 10.2096 25.5986 9.94531 25.5713 9.68099 25.5326 9.45768 25.4824 9.27539 25.4323 9.0931 25.3662 8.94499 25.2842 8.83105 25.2021 8.71712 25.111 8.63509 25.0107 8.58496 24.9105 8.53027 24.7988 8.50293 24.6758 8.50293 24.5299 8.50293 24.3978 8.54395 24.2793 8.62598 24.1608 8.70801 24.0583 8.84245 23.9717 9.0293 23.8851 9.21159 23.819 9.4554 23.7734 9.76074 23.7324 10.0615 23.7119 10.4307 23.7119 10.8682L23.7119 13.1445C23.7119 13.4954 23.7256 13.8053 23.7529 14.0742 23.7848 14.3431 23.8281 14.5732 23.8828 14.7646 23.9421 14.9515 24.0081 15.1019 24.0811 15.2158 24.1585 15.3298 24.2474 15.4141 24.3477 15.4688 24.4525 15.5189 24.5664 15.5439 24.6895 15.5439 24.8353 15.5439 24.9674 15.5029 25.0859 15.4209 25.209 15.3343 25.3115 15.1976 25.3936 15.0107 25.4756 14.8239 25.5371 14.5778 25.5781 14.2725 25.6237 13.9626 25.6465 13.5866 25.6465 13.1445ZM28.8936 9.4873 28.8936 8.96094C28.8936 8.58268 28.9619 8.23861 29.0986 7.92871 29.2399 7.61882 29.4473 7.37044 29.7207 7.18359 29.9987 6.99674 30.3428 6.90332 30.7529 6.90332 31.1676 6.90332 31.514 6.99674 31.792 7.18359 32.07 7.37044 32.2751 7.61882 32.4072 7.92871 32.5439 8.23861 32.6123 8.58268 32.6123 8.96094L32.6123 9.4873C32.6123 9.85645 32.5439 10.196 32.4072 10.5059 32.2705 10.8158 32.0632 11.0641 31.7852 11.251 31.5117 11.4378 31.1699 11.5312 30.7598 11.5312 30.3496 11.5312 30.0055 11.4378 29.7275 11.251 29.4495 11.0641 29.2399 10.8158 29.0986 10.5059 28.9619 10.196 28.8936 9.85645 28.8936 9.4873ZM30.1445 8.96094 30.1445 9.4873C30.1445 9.64225 30.1673 9.79036 30.2129 9.93164 30.2585 10.0684 30.3268 10.18 30.418 10.2666 30.5091 10.3486 30.623 10.3896 30.7598 10.3896 30.8965 10.3896 31.0081 10.3486 31.0947 10.2666 31.1813 10.18 31.2451 10.0684 31.2861 9.93164 31.3317 9.79036 31.3545 9.64225 31.3545 9.4873L31.3545 8.96094C31.3545 8.79688 31.3317 8.64648 31.2861 8.50977 31.2451 8.36849 31.179 8.25684 31.0879 8.1748 30.9967 8.08822 30.8828 8.04492 30.7461 8.04492 30.6094 8.04492 30.4954 8.08822 30.4043 8.1748 30.3177 8.25684 30.2516 8.36849 30.2061 8.50977 30.165 8.64648 30.1445 8.79688 30.1445 8.96094ZM32.8242 15.0928 32.8242 14.5596C32.8242 14.1859 32.8949 13.8441 33.0361 13.5342 33.1774 13.2243 33.3848 12.9759 33.6582 12.7891 33.9362 12.6022 34.278 12.5088 34.6836 12.5088 35.1029 12.5088 35.4492 12.6022 35.7227 12.7891 35.9961 12.9759 36.2012 13.2243 36.3379 13.5342 36.4792 13.8441 36.5498 14.1859 36.5498 14.5596L36.5498 15.0928C36.5498 15.4665 36.4814 15.8083 36.3447 16.1182 36.208 16.4235 36.0007 16.6696 35.7227 16.8564 35.4492 17.0433 35.1074 17.1367 34.6973 17.1367 34.2871 17.1367 33.9408 17.0433 33.6582 16.8564 33.3802 16.6696 33.1706 16.4212 33.0293 16.1113 32.8926 15.8014 32.8242 15.4619 32.8242 15.0928ZM34.0752 14.5596 34.0752 15.0859C34.0752 15.2454 34.1025 15.3958 34.1572 15.5371 34.2119 15.6738 34.2848 15.7855 34.376 15.8721 34.4717 15.9541 34.5788 15.9951 34.6973 15.9951 34.8613 15.9951 34.9867 15.9541 35.0732 15.8721 35.1598 15.7855 35.2168 15.6738 35.2441 15.5371 35.276 15.3958 35.292 15.2454 35.292 15.0859L35.292 14.5664C35.292 14.4023 35.2692 14.252 35.2236 14.1152 35.1826 13.974 35.1165 13.8623 35.0254 13.7803 34.9388 13.6937 34.8271 13.6504 34.6904 13.6504 34.5492 13.6504 34.4329 13.6937 34.3418 13.7803 34.2507 13.8623 34.1823 13.974 34.1367 14.1152 34.0957 14.252 34.0752 14.4001 34.0752 14.5596ZM35.1895 8.47559 31.1084 16.2549 30.1924 15.7354 34.2734 7.95605 35.1895 8.47559ZM44.1787 11.3125 44.1787 12.9189 38.1904 12.9189 38.1904 11.3125 44.1787 11.3125ZM47.2207 12.4883 45.6895 12.1055 46.1885 7.04688 50.9941 7.04688 50.9941 8.6875 47.7607 8.6875 47.5762 10.8271C47.681 10.7542 47.8359 10.6745 48.041 10.5879 48.2507 10.5013 48.4831 10.458 48.7383 10.458 49.1484 10.458 49.513 10.5332 49.832 10.6836 50.151 10.834 50.4199 11.0527 50.6387 11.3398 50.8574 11.627 51.0238 11.9779 51.1377 12.3926 51.2516 12.8073 51.3086 13.2767 51.3086 13.8008 51.3086 14.2428 51.2471 14.6644 51.124 15.0654 51.0055 15.4665 50.8255 15.8219 50.584 16.1318 50.3424 16.4417 50.0394 16.6878 49.6748 16.8701 49.3102 17.0479 48.8841 17.1367 48.3965 17.1367 48.0273 17.1367 47.6696 17.0729 47.3232 16.9453 46.9814 16.8177 46.6738 16.6286 46.4004 16.3779 46.127 16.1227 45.9082 15.8174 45.7441 15.4619 45.5801 15.1019 45.498 14.6917 45.498 14.2314L47.3916 14.2314C47.4098 14.5003 47.4622 14.735 47.5488 14.9355 47.64 15.1315 47.7539 15.2819 47.8906 15.3867 48.0319 15.4915 48.196 15.5439 48.3828 15.5439 48.5651 15.5439 48.7223 15.4984 48.8545 15.4072 48.9867 15.3115 49.0915 15.1794 49.1689 15.0107 49.2464 14.8421 49.3034 14.6462 49.3398 14.4229 49.3763 14.195 49.3945 13.9512 49.3945 13.6914 49.3945 13.4271 49.3695 13.1878 49.3193 12.9736 49.2738 12.7594 49.2008 12.5771 49.1006 12.4268 49.0049 12.2718 48.8818 12.1533 48.7314 12.0713 48.5811 11.9847 48.4033 11.9414 48.1982 11.9414 47.9202 11.9414 47.7106 12.0007 47.5693 12.1191 47.4326 12.2331 47.3164 12.3561 47.2207 12.4883ZM58.3428 11.1484 58.3428 12.8779C58.3428 13.6253 58.2721 14.2679 58.1309 14.8057 57.9896 15.3434 57.7913 15.7855 57.5361 16.1318 57.2809 16.4736 56.9779 16.7266 56.627 16.8906 56.276 17.0547 55.8887 17.1367 55.4648 17.1367 55.1276 17.1367 54.8109 17.0843 54.5146 16.9795 54.2184 16.8747 53.9495 16.7152 53.708 16.501 53.471 16.2822 53.266 16.0065 53.0928 15.6738 52.9242 15.3366 52.7943 14.9378 52.7031 14.4775 52.612 14.0127 52.5664 13.4795 52.5664 12.8779L52.5664 11.1484C52.5664 10.401 52.637 9.76074 52.7783 9.22754 52.9242 8.68978 53.1247 8.25 53.3799 7.9082 53.6351 7.56641 53.9382 7.31576 54.2891 7.15625 54.6445 6.99219 55.0342 6.91016 55.458 6.91016 55.7907 6.91016 56.1051 6.96257 56.4014 7.06738 56.7021 7.16764 56.9688 7.32487 57.2012 7.53906 57.4382 7.75326 57.641 8.02897 57.8096 8.36621 57.9827 8.69889 58.1149 9.09766 58.2061 9.5625 58.2972 10.0228 58.3428 10.5514 58.3428 11.1484ZM56.4219 13.1445 56.4219 10.8682C56.4219 10.5173 56.4059 10.2096 56.374 9.94531 56.3467 9.68099 56.3079 9.45768 56.2578 9.27539 56.2077 9.0931 56.1416 8.94499 56.0596 8.83105 55.9775 8.71712 55.8864 8.63509 55.7861 8.58496 55.6859 8.53027 55.5742 8.50293 55.4512 8.50293 55.3053 8.50293 55.1732 8.54395 55.0547 8.62598 54.9362 8.70801 54.8337 8.84245 54.7471 9.0293 54.6605 9.21159 54.5944 9.4554 54.5488 9.76074 54.5078 10.0615 54.4873 10.4307 54.4873 10.8682L54.4873 13.1445C54.4873 13.4954 54.501 13.8053 54.5283 14.0742 54.5602 14.3431 54.6035 14.5732 54.6582 14.7646 54.7174 14.9515 54.7835 15.1019 54.8564 15.2158 54.9339 15.3298 55.0228 15.4141 55.123 15.4688 55.2279 15.5189 55.3418 15.5439 55.4648 15.5439 55.6107 15.5439 55.7428 15.5029 55.8613 15.4209 55.9844 15.3343 56.0869 15.1976 56.1689 15.0107 56.251 14.8239 56.3125 14.5778 56.3535 14.2725 56.3991 13.9626 56.4219 13.5866 56.4219 13.1445ZM59.6689 9.4873 59.6689 8.96094C59.6689 8.58268 59.7373 8.23861 59.874 7.92871 60.0153 7.61882 60.2227 7.37044 60.4961 7.18359 60.7741 6.99674 61.1182 6.90332 61.5283 6.90332 61.943 6.90332 62.2894 6.99674 62.5674 7.18359 62.8454 7.37044 63.0505 7.61882 63.1826 7.92871 63.3193 8.23861 63.3877 8.58268 63.3877 8.96094L63.3877 9.4873C63.3877 9.85645 63.3193 10.196 63.1826 10.5059 63.0459 10.8158 62.8385 11.0641 62.5605 11.251 62.2871 11.4378 61.9453 11.5312 61.5352 11.5312 61.125 11.5312 60.7809 11.4378 60.5029 11.251 60.2249 11.0641 60.0153 10.8158 59.874 10.5059 59.7373 10.196 59.6689 9.85645 59.6689 9.4873ZM60.9199 8.96094 60.9199 9.4873C60.9199 9.64225 60.9427 9.79036 60.9883 9.93164 61.0339 10.0684 61.1022 10.18 61.1934 10.2666 61.2845 10.3486 61.3984 10.3896 61.5352 10.3896 61.6719 10.3896 61.7835 10.3486 61.8701 10.2666 61.9567 10.18 62.0205 10.0684 62.0615 9.93164 62.1071 9.79036 62.1299 9.64225 62.1299 9.4873L62.1299 8.96094C62.1299 8.79688 62.1071 8.64648 62.0615 8.50977 62.0205 8.36849 61.9544 8.25684 61.8633 8.1748 61.7721 8.08822 61.6582 8.04492 61.5215 8.04492 61.3848 8.04492 61.2708 8.08822 61.1797 8.1748 61.0931 8.25684 61.027 8.36849 60.9814 8.50977 60.9404 8.64648 60.9199 8.79688 60.9199 8.96094ZM63.5996 15.0928 63.5996 14.5596C63.5996 14.1859 63.6702 13.8441 63.8115 13.5342 63.9528 13.2243 64.1602 12.9759 64.4336 12.7891 64.7116 12.6022 65.0534 12.5088 65.459 12.5088 65.8783 12.5088 66.2246 12.6022 66.498 12.7891 66.7715 12.9759 66.9766 13.2243 67.1133 13.5342 67.2546 13.8441 67.3252 14.1859 67.3252 14.5596L67.3252 15.0928C67.3252 15.4665 67.2568 15.8083 67.1201 16.1182 66.9834 16.4235 66.776 16.6696 66.498 16.8564 66.2246 17.0433 65.8828 17.1367 65.4727 17.1367 65.0625 17.1367 64.7161 17.0433 64.4336 16.8564 64.1556 16.6696 63.946 16.4212 63.8047 16.1113 63.668 15.8014 63.5996 15.4619 63.5996 15.0928ZM64.8506 14.5596 64.8506 15.0859C64.8506 15.2454 64.8779 15.3958 64.9326 15.5371 64.9873 15.6738 65.0602 15.7855 65.1514 15.8721 65.2471 15.9541 65.3542 15.9951 65.4727 15.9951 65.6367 15.9951 65.762 15.9541 65.8486 15.8721 65.9352 15.7855 65.9922 15.6738 66.0195 15.5371 66.0514 15.3958 66.0674 15.2454 66.0674 15.0859L66.0674 14.5664C66.0674 14.4023 66.0446 14.252 65.999 14.1152 65.958 13.974 65.8919 13.8623 65.8008 13.7803 65.7142 13.6937 65.6025 13.6504 65.4658 13.6504 65.3245 13.6504 65.2083 13.6937 65.1172 13.7803 65.026 13.8623 64.9577 13.974 64.9121 14.1152 64.8711 14.252 64.8506 14.4001 64.8506 14.5596ZM65.9648 8.47559 61.8838 16.2549 60.9678 15.7354 65.0488 7.95605 65.9648 8.47559Z" fill="#FFFFFF"/></g></svg>