<svg width="82" height="106" viewBox="0 0 82 106" xmlns="http://www.w3.org/2000/svg" xmlns:xlink="http://www.w3.org/1999/xlink" fill="none" overflow="hidden"><defs><linearGradient x1="40.9908" y1="17.6333" x2="40.9908" y2="38.7167" gradientUnits="userSpaceOnUse" id="paint0_linear_1_22"><stop offset="0" stop-color="#FFFFFF"/><stop offset="1" stop-color="#FFFFFF" stop-opacity="0"/></linearGradient><linearGradient x1="41.45" y1="24.5472" x2="60.1213" y2="24.5472" gradientUnits="userSpaceOnUse" id="paint1_linear_1_22"><stop offset="0" stop-color="#9F24E2"/><stop offset="1" stop-color="#CB0094"/></linearGradient><linearGradient x1="64.45" y1="7.28332" x2="47.2" y2="39.8667" gradientUnits="userSpaceOnUse" id="paint2_linear_1_22"><stop offset="0" stop-color="#9F24E2"/><stop offset="1" stop-color="#CB0094"/></linearGradient><clipPath id="clip0_1_22"><rect x="0" y="0" width="82" height="106" fill="#FFFFFF"/></clipPath><clipPath id="clip1_1_22"><rect x="0" y="0" width="37.5667" height="37.5667" fill="#FFFFFF" transform="translate(22.6667 0)"/></clipPath></defs><g clip-path="url(#clip0_1_22)"><rect x="0" y="0" width="82" height="106" fill="#2069E7"/><path d="M19.6328 56.2883 25.5742 58.9133 25.5742 62.1945 17.043 57.9172 17.043 55.5734 19.6328 56.2883ZM25.5742 54.1437 19.6328 56.8156 17.043 57.4836 17.043 55.1516 25.5742 50.8742 25.5742 54.1437ZM31.1289 53.757 32.7227 53.757C33.1367 53.757 33.4766 53.6633 33.7422 53.4758 34.0078 53.2805 34.2031 53.007 34.3281 52.6555 34.4531 52.3039 34.5156 51.8937 34.5156 51.425 34.5156 50.9875 34.457 50.6047 34.3398 50.2766 34.2227 49.9484 34.043 49.6906 33.8008 49.5031 33.5586 49.3156 33.2539 49.2219 32.8867 49.2219 32.6055 49.2219 32.3438 49.3 32.1016 49.4562 31.8594 49.6125 31.6641 49.8351 31.5156 50.1242 31.375 50.4055 31.3047 50.7453 31.3047 51.1437L28 51.1437C28 50.2062 28.2148 49.3898 28.6445 48.6945 29.0742 47.9992 29.6523 47.4562 30.3789 47.0656 31.1055 46.675 31.9102 46.4797 32.793 46.4797 33.7852 46.4797 34.6562 46.6672 35.4062 47.0422 36.1562 47.4094 36.7422 47.9562 37.1641 48.6828 37.5859 49.4016 37.7969 50.2922 37.7969 51.3547 37.7969 51.9016 37.6914 52.4289 37.4805 52.9367 37.2773 53.4445 36.9805 53.9016 36.5898 54.3078 36.1992 54.7062 35.7227 55.0226 35.1602 55.257 34.6055 55.4914 33.9727 55.6086 33.2617 55.6086L31.1289 55.6086 31.1289 53.757ZM31.1289 56.4172 31.1289 54.6242 33.2617 54.6242C34.0586 54.6242 34.7539 54.7297 35.3477 54.9406 35.9492 55.1437 36.4453 55.4406 36.8359 55.8312 37.2344 56.2219 37.5312 56.6867 37.7266 57.2258 37.9219 57.7648 38.0195 58.3586 38.0195 59.007 38.0195 59.8039 37.8867 60.5148 37.6211 61.1398 37.3555 61.7648 36.9844 62.2922 36.5078 62.7219 36.0312 63.1516 35.4766 63.4797 34.8438 63.7062 34.2109 63.925 33.5234 64.0344 32.7812 64.0344 32.1641 64.0344 31.5586 63.9367 30.9648 63.7414 30.3789 63.5461 29.8516 63.2453 29.3828 62.8391 28.9141 62.4328 28.543 61.9211 28.2695 61.3039 27.9961 60.6867 27.8594 59.9562 27.8594 59.1125L31.1406 59.1125C31.1406 59.5344 31.2148 59.9133 31.3633 60.2492 31.5117 60.5773 31.7148 60.8351 31.9727 61.0226 32.2383 61.2101 32.5352 61.3039 32.8633 61.3039 33.2461 61.3039 33.5781 61.2062 33.8594 61.0109 34.1406 60.8156 34.3555 60.5422 34.5039 60.1906 34.6523 59.8391 34.7266 59.4289 34.7266 58.9601 34.7266 58.3586 34.6484 57.8742 34.4922 57.507 34.3359 57.132 34.1094 56.8586 33.8125 56.6867 33.5156 56.507 33.1562 56.4172 32.7344 56.4172L31.1289 56.4172ZM43.2695 53.757 44.8633 53.757C45.2773 53.757 45.6172 53.6633 45.8828 53.4758 46.1484 53.2805 46.3438 53.007 46.4688 52.6555 46.5938 52.3039 46.6562 51.8937 46.6562 51.425 46.6562 50.9875 46.5977 50.6047 46.4805 50.2766 46.3633 49.9484 46.1836 49.6906 45.9414 49.5031 45.6992 49.3156 45.3945 49.2219 45.0273 49.2219 44.7461 49.2219 44.4844 49.3 44.2422 49.4562 44 49.6125 43.8047 49.8351 43.6562 50.1242 43.5156 50.4055 43.4453 50.7453 43.4453 51.1437L40.1406 51.1437C40.1406 50.2062 40.3555 49.3898 40.7852 48.6945 41.2148 47.9992 41.793 47.4562 42.5195 47.0656 43.2461 46.675 44.0508 46.4797 44.9336 46.4797 45.9258 46.4797 46.7969 46.6672 47.5469 47.0422 48.2969 47.4094 48.8828 47.9562 49.3047 48.6828 49.7266 49.4016 49.9375 50.2922 49.9375 51.3547 49.9375 51.9016 49.832 52.4289 49.6211 52.9367 49.418 53.4445 49.1211 53.9016 48.7305 54.3078 48.3398 54.7062 47.8633 55.0226 47.3008 55.257 46.7461 55.4914 46.1133 55.6086 45.4023 55.6086L43.2695 55.6086 43.2695 53.757ZM43.2695 56.4172 43.2695 54.6242 45.4023 54.6242C46.1992 54.6242 46.8945 54.7297 47.4883 54.9406 48.0898 55.1437 48.5859 55.4406 48.9766 55.8312 49.375 56.2219 49.6719 56.6867 49.8672 57.2258 50.0625 57.7648 50.1602 58.3586 50.1602 59.007 50.1602 59.8039 50.0273 60.5148 49.7617 61.1398 49.4961 61.7648 49.125 62.2922 48.6484 62.7219 48.1719 63.1516 47.6172 63.4797 46.9844 63.7062 46.3516 63.925 45.6641 64.0344 44.9219 64.0344 44.3047 64.0344 43.6992 63.9367 43.1055 63.7414 42.5195 63.5461 41.9922 63.2453 41.5234 62.8391 41.0547 62.4328 40.6836 61.9211 40.4102 61.3039 40.1367 60.6867 40 59.9562 40 59.1125L43.2812 59.1125C43.2812 59.5344 43.3555 59.9133 43.5039 60.2492 43.6523 60.5773 43.8555 60.8351 44.1133 61.0226 44.3789 61.2101 44.6758 61.3039 45.0039 61.3039 45.3867 61.3039 45.7188 61.2062 46 61.0109 46.2812 60.8156 46.4961 60.5422 46.6445 60.1906 46.793 59.8391 46.8672 59.4289 46.8672 58.9601 46.8672 58.3586 46.7891 57.8742 46.6328 57.507 46.4766 57.132 46.25 56.8586 45.9531 56.6867 45.6562 56.507 45.2969 56.4172 44.875 56.4172L43.2695 56.4172ZM52.4922 50.9211 52.4922 50.0187C52.4922 49.3703 52.6094 48.7805 52.8438 48.2492 53.0859 47.718 53.4414 47.2922 53.9102 46.9719 54.3867 46.6516 54.9766 46.4914 55.6797 46.4914 56.3906 46.4914 56.9844 46.6516 57.4609 46.9719 57.9375 47.2922 58.2891 47.718 58.5156 48.2492 58.75 48.7805 58.8672 49.3703 58.8672 50.0187L58.8672 50.9211C58.8672 51.5539 58.75 52.1359 58.5156 52.6672 58.2812 53.1984 57.9258 53.6242 57.4492 53.9445 56.9805 54.2648 56.3945 54.425 55.6914 54.425 54.9883 54.425 54.3984 54.2648 53.9219 53.9445 53.4453 53.6242 53.0859 53.1984 52.8438 52.6672 52.6094 52.1359 52.4922 51.5539 52.4922 50.9211ZM54.6367 50.0187 54.6367 50.9211C54.6367 51.1867 54.6758 51.4406 54.7539 51.6828 54.832 51.9172 54.9492 52.1086 55.1055 52.257 55.2617 52.3976 55.457 52.468 55.6914 52.468 55.9258 52.468 56.1172 52.3976 56.2656 52.257 56.4141 52.1086 56.5234 51.9172 56.5938 51.6828 56.6719 51.4406 56.7109 51.1867 56.7109 50.9211L56.7109 50.0187C56.7109 49.7375 56.6719 49.4797 56.5938 49.2453 56.5234 49.0031 56.4102 48.8117 56.2539 48.6711 56.0977 48.5226 55.9023 48.4484 55.668 48.4484 55.4336 48.4484 55.2383 48.5226 55.082 48.6711 54.9336 48.8117 54.8203 49.0031 54.7422 49.2453 54.6719 49.4797 54.6367 49.7375 54.6367 50.0187ZM59.2305 60.5305 59.2305 59.6164C59.2305 58.9758 59.3516 58.3898 59.5938 57.8586 59.8359 57.3273 60.1914 56.9016 60.6602 56.5812 61.1367 56.2609 61.7227 56.1008 62.418 56.1008 63.1367 56.1008 63.7305 56.2609 64.1992 56.5812 64.668 56.9016 65.0195 57.3273 65.2539 57.8586 65.4961 58.3898 65.6172 58.9758 65.6172 59.6164L65.6172 60.5305C65.6172 61.1711 65.5 61.757 65.2656 62.2883 65.0312 62.8117 64.6758 63.2336 64.1992 63.5539 63.7305 63.8742 63.1445 64.0344 62.4414 64.0344 61.7383 64.0344 61.1445 63.8742 60.6602 63.5539 60.1836 63.2336 59.8242 62.8078 59.582 62.2766 59.3477 61.7453 59.2305 61.1633 59.2305 60.5305ZM61.375 59.6164 61.375 60.5187C61.375 60.7922 61.4219 61.05 61.5156 61.2922 61.6094 61.5266 61.7344 61.718 61.8906 61.8664 62.0547 62.007 62.2383 62.0773 62.4414 62.0773 62.7227 62.0773 62.9375 62.007 63.0859 61.8664 63.2344 61.718 63.332 61.5266 63.3789 61.2922 63.4336 61.05 63.4609 60.7922 63.4609 60.5187L63.4609 59.6281C63.4609 59.3469 63.4219 59.0891 63.3438 58.8547 63.2734 58.6125 63.1602 58.4211 63.0039 58.2805 62.8555 58.132 62.6641 58.0578 62.4297 58.0578 62.1875 58.0578 61.9883 58.132 61.832 58.2805 61.6758 58.4211 61.5586 58.6125 61.4805 58.8547 61.4102 59.0891 61.375 59.343 61.375 59.6164ZM63.2852 49.1867 56.2891 62.5226 54.7188 61.632 61.7148 48.2961 63.2852 49.1867Z" fill="#FFFFFF"/><g clip-path="url(#clip1_1_22)"><path d="M23.875 13.0701C26.3817 5.36366 33.1784 0.378 41.2584 0.300345L41.2584 18.779 41.2584 18.9183 41.3908 18.9613 58.9649 24.67C55.7412 34.2612 45.3829 39.4874 35.7367 36.354 26.0341 33.2009 20.7218 22.7771 23.875 13.0701ZM23.875 13.0701 23.6927 13.0108M23.875 13.0701 23.6927 13.0108M23.6927 13.0108C26.2251 5.2255 33.0953 0.186371 41.2584 0.108669L23.6927 13.0108Z" stroke="#FFFFFF" stroke-width="0.383333" fill="url(#paint0_linear_1_22)"/><path d="M59.0835 24.3055 41.6417 18.6397 41.6417 0.300398C51.7596 0.403203 59.9296 8.63674 59.9296 18.779 59.9296 20.7555 59.6737 22.4368 59.0835 24.3055Z" stroke="url(#paint2_linear_1_22)" stroke-width="0.383333" fill="url(#paint1_linear_1_22)"/></g><path d="M9.35425 74.6008 8.17505 74.3188 8.60059 70.5352 12.7944 70.5352 12.7944 71.7297 9.81567 71.7297 9.6311 73.3857C9.73022 73.3276 9.88062 73.2661 10.0823 73.2012 10.2839 73.1328 10.5095 73.0986 10.759 73.0986 11.1213 73.0986 11.4426 73.155 11.7229 73.2678 12.0032 73.3806 12.2407 73.5447 12.4355 73.76 12.6338 73.9753 12.7842 74.2385 12.8867 74.5496 12.9893 74.8606 13.0405 75.2126 13.0405 75.6057 13.0405 75.9373 12.9893 76.2534 12.8867 76.5542 12.7842 76.8516 12.6287 77.1182 12.4202 77.354 12.2117 77.5864 11.9502 77.7693 11.6357 77.9026 11.3213 78.0359 10.9487 78.1025 10.5181 78.1025 10.1968 78.1025 9.88574 78.0547 9.58496 77.959 9.2876 77.8633 9.01929 77.7214 8.78003 77.5334 8.54419 77.3455 8.35449 77.1182 8.21094 76.8516 8.0708 76.5815 7.99731 76.2739 7.99048 75.9287L9.45679 75.9287C9.47729 76.1406 9.53198 76.3235 9.62085 76.4773 9.71313 76.6277 9.83447 76.7439 9.98486 76.8259 10.1353 76.908 10.3113 76.949 10.5129 76.949 10.7009 76.949 10.8616 76.9131 10.9949 76.8413 11.1282 76.7695 11.2358 76.6704 11.3179 76.5439 11.3999 76.4141 11.4597 76.2637 11.4973 76.0928 11.5383 75.9185 11.5588 75.7305 11.5588 75.5288 11.5588 75.3271 11.5349 75.1443 11.4871 74.9802 11.4392 74.8162 11.3657 74.6743 11.2666 74.5547 11.1675 74.4351 11.041 74.3428 10.8872 74.2778 10.7368 74.2129 10.5608 74.1804 10.3591 74.1804 10.0857 74.1804 9.87378 74.2231 9.72339 74.3086 9.57642 74.394 9.45337 74.4915 9.35425 74.6008ZM16.9678 74.2163 16.9678 75.375 14.071 75.375 14.071 74.2163 16.9678 74.2163ZM19.844 77.3745 21.3154 72.4526 22.8997 72.4526 20.6694 78.8357C20.6216 78.9758 20.5566 79.1262 20.4746 79.2869 20.396 79.4475 20.2883 79.5996 20.1516 79.7432 20.0183 79.8901 19.8491 80.0098 19.644 80.1021 19.4424 80.1943 19.1946 80.2405 18.9006 80.2405 18.7605 80.2405 18.646 80.2319 18.5571 80.2148 18.4683 80.1978 18.3623 80.1738 18.2393 80.1431L18.2393 79.0613C18.2769 79.0613 18.3162 79.0613 18.3572 79.0613 18.3982 79.0647 18.4375 79.0664 18.4751 79.0664 18.6699 79.0664 18.8289 79.0442 18.9519 78.9998 19.075 78.9553 19.1741 78.887 19.2493 78.7947 19.3245 78.7058 19.3843 78.5896 19.4287 78.446L19.844 77.3745ZM19.2288 72.4526 20.4336 76.4722 20.6438 78.0359 19.6389 78.1436 17.6445 72.4526 19.2288 72.4526ZM25.9707 78.1025C25.54 78.1025 25.1538 78.0342 24.812 77.8975 24.4702 77.7573 24.1797 77.5642 23.9404 77.3181 23.7046 77.072 23.5234 76.7866 23.397 76.4619 23.2705 76.1338 23.2073 75.7852 23.2073 75.416L23.2073 75.2109C23.2073 74.7905 23.2671 74.406 23.3867 74.0574 23.5063 73.7087 23.6772 73.4062 23.8994 73.1499 24.125 72.8936 24.3984 72.697 24.7197 72.5603 25.041 72.4202 25.4033 72.3501 25.8066 72.3501 26.1997 72.3501 26.5483 72.415 26.8525 72.5449 27.1567 72.6748 27.4114 72.8594 27.6165 73.0986 27.825 73.3379 27.9822 73.625 28.0881 73.96 28.1941 74.2915 28.2471 74.6606 28.2471 75.0674L28.2471 75.6826 23.8379 75.6826 23.8379 74.6982 26.7961 74.6982 26.7961 74.5854C26.7961 74.3804 26.7585 74.1975 26.6833 74.0369 26.6116 73.8728 26.5022 73.7429 26.3552 73.6472 26.2083 73.5515 26.0203 73.5037 25.7913 73.5037 25.5964 73.5037 25.429 73.5464 25.2888 73.6318 25.1487 73.7173 25.0342 73.8369 24.9453 73.9907 24.8599 74.1445 24.7949 74.3257 24.7505 74.5342 24.7095 74.7393 24.689 74.9648 24.689 75.2109L24.689 75.416C24.689 75.6382 24.7197 75.8433 24.7812 76.0312 24.8462 76.2192 24.9368 76.3816 25.053 76.5183 25.1726 76.655 25.3162 76.761 25.4836 76.8362 25.6545 76.9114 25.8477 76.949 26.063 76.949 26.3296 76.949 26.5774 76.8977 26.8064 76.7952 27.0388 76.6892 27.2388 76.5303 27.4062 76.3184L28.124 77.0977C28.0078 77.2651 27.8489 77.4258 27.6472 77.5796 27.449 77.7334 27.2097 77.8599 26.9294 77.959 26.6492 78.0547 26.3296 78.1025 25.9707 78.1025ZM32.082 76.749 32.082 74.2778C32.082 74.1001 32.053 73.948 31.9949 73.8215 31.9368 73.6917 31.8462 73.5908 31.7231 73.519 31.6035 73.4473 31.448 73.4114 31.2566 73.4114 31.0925 73.4114 30.9507 73.4404 30.8311 73.4985 30.7114 73.5532 30.6191 73.6335 30.5542 73.7395 30.4893 73.842 30.4568 73.9634 30.4568 74.1035L28.9802 74.1035C28.9802 73.8677 29.0349 73.6438 29.1443 73.4319 29.2537 73.22 29.4126 73.0337 29.6211 72.873 29.8296 72.709 30.0774 72.5808 30.3645 72.4885 30.655 72.3962 30.9797 72.3501 31.3386 72.3501 31.7693 72.3501 32.1521 72.4219 32.4871 72.5654 32.822 72.709 33.0852 72.9243 33.2766 73.2114 33.4714 73.4985 33.5688 73.8574 33.5688 74.2881L33.5688 76.6619C33.5688 76.9661 33.5876 77.2156 33.6252 77.4104 33.6628 77.6018 33.7175 77.7693 33.7893 77.9128L33.7893 78 32.2974 78C32.2256 77.8496 32.1709 77.6616 32.1333 77.436 32.0991 77.207 32.082 76.978 32.082 76.749ZM32.2769 74.6213 32.2871 75.457 31.4617 75.457C31.2668 75.457 31.0977 75.4792 30.9541 75.5237 30.8105 75.5681 30.6926 75.6313 30.6003 75.7134 30.5081 75.792 30.4397 75.8843 30.3953 75.9902 30.3542 76.0962 30.3337 76.2124 30.3337 76.3389 30.3337 76.4653 30.3628 76.5798 30.4209 76.6824 30.479 76.7815 30.5627 76.8601 30.6721 76.9182 30.7815 76.9729 30.9097 77.0002 31.0566 77.0002 31.2788 77.0002 31.4719 76.9558 31.636 76.8669 31.8 76.7781 31.9265 76.6687 32.0154 76.5388 32.1077 76.4089 32.1555 76.2859 32.1589 76.1697L32.5486 76.7952C32.4939 76.9353 32.4187 77.0806 32.323 77.231 32.2307 77.3813 32.1128 77.5232 31.9692 77.6565 31.8257 77.7864 31.6531 77.894 31.4514 77.9795 31.2498 78.0615 31.0105 78.1025 30.7336 78.1025 30.3816 78.1025 30.062 78.0325 29.7749 77.8923 29.4912 77.7488 29.2656 77.5522 29.0981 77.3027 28.9341 77.0498 28.8521 76.7627 28.8521 76.4414 28.8521 76.1509 28.9067 75.8928 29.0161 75.6672 29.1255 75.4417 29.2861 75.252 29.498 75.0981 29.7134 74.9409 29.9817 74.823 30.303 74.7444 30.6243 74.6624 30.9968 74.6213 31.4207 74.6213L32.2769 74.6213ZM36.1836 73.6626 36.1836 78 34.707 78 34.707 72.4526 36.0964 72.4526 36.1836 73.6626ZM37.855 72.4167 37.8293 73.7856C37.7576 73.7754 37.6704 73.7668 37.5679 73.76 37.4688 73.7498 37.3782 73.7446 37.2961 73.7446 37.0876 73.7446 36.9065 73.772 36.7527 73.8267 36.6023 73.8779 36.4758 73.9548 36.3733 74.0574 36.2742 74.1599 36.199 74.2847 36.1477 74.4316 36.0999 74.5786 36.0725 74.7461 36.0657 74.9341L35.7683 74.8418C35.7683 74.4829 35.8042 74.1531 35.876 73.8523 35.9478 73.5481 36.052 73.2832 36.1887 73.0576 36.3289 72.832 36.4998 72.6577 36.7014 72.5347 36.9031 72.4116 37.1338 72.3501 37.3936 72.3501 37.4756 72.3501 37.5593 72.3569 37.6448 72.3706 37.7302 72.3809 37.8003 72.3962 37.855 72.4167ZM44.1663 76.467C44.1663 76.3611 44.1355 76.2654 44.074 76.1799 44.0125 76.0945 43.8979 76.0159 43.7305 75.9441 43.5664 75.8689 43.3289 75.8005 43.0178 75.739 42.7375 75.6775 42.4761 75.6006 42.2334 75.5083 41.9941 75.4126 41.7856 75.2981 41.6079 75.1648 41.4336 75.0315 41.2969 74.8743 41.1978 74.6931 41.0986 74.5085 41.0491 74.2983 41.0491 74.0625 41.0491 73.8301 41.0986 73.6113 41.1978 73.4062 41.3003 73.2012 41.4456 73.02 41.6335 72.8628 41.825 72.7021 42.0574 72.5774 42.3308 72.4885 42.6077 72.3962 42.9187 72.3501 43.2639 72.3501 43.7458 72.3501 44.1594 72.427 44.5046 72.5808 44.8533 72.7346 45.1199 72.9465 45.3044 73.2166 45.4924 73.4832 45.5864 73.7874 45.5864 74.1292L44.1099 74.1292C44.1099 73.9856 44.0791 73.8574 44.0176 73.7446 43.9595 73.6284 43.8672 73.5378 43.7407 73.4729 43.6177 73.4045 43.457 73.3704 43.2588 73.3704 43.0947 73.3704 42.9529 73.3994 42.8333 73.4575 42.7136 73.5122 42.6213 73.5874 42.5564 73.6831 42.4949 73.7754 42.4641 73.8779 42.4641 73.9907 42.4641 74.0762 42.4812 74.1531 42.5154 74.2214 42.553 74.2864 42.6128 74.3462 42.6948 74.4009 42.7769 74.4556 42.8828 74.5068 43.0127 74.5547 43.146 74.5991 43.3101 74.6401 43.5049 74.6777 43.9048 74.7598 44.262 74.8674 44.5764 75.0007 44.8909 75.1306 45.1404 75.3083 45.325 75.5339 45.5095 75.7561 45.6018 76.0483 45.6018 76.4106 45.6018 76.6567 45.5471 76.8823 45.4377 77.0874 45.3284 77.2925 45.1711 77.4719 44.9661 77.6257 44.761 77.7761 44.5149 77.894 44.2278 77.9795 43.9441 78.0615 43.6245 78.1025 43.269 78.1025 42.7529 78.1025 42.3154 78.0103 41.9565 77.8257 41.6011 77.6411 41.3311 77.407 41.1465 77.1233 40.9653 76.8362 40.8748 76.5422 40.8748 76.2415L42.2744 76.2415C42.2812 76.4431 42.3325 76.6055 42.4282 76.7285 42.5273 76.8516 42.6521 76.9404 42.8025 76.9951 42.9563 77.0498 43.1221 77.0771 43.2998 77.0771 43.4912 77.0771 43.6501 77.0515 43.7766 77.0002 43.9031 76.9456 43.9988 76.8738 44.0637 76.7849 44.1321 76.6926 44.1663 76.5867 44.1663 76.467ZM49.8418 76.6721 49.8418 72.4526 51.3184 72.4526 51.3184 78 49.929 78 49.8418 76.6721ZM50.0059 75.5339 50.4417 75.5237C50.4417 75.8928 50.3989 76.2363 50.3135 76.5542 50.228 76.8687 50.0999 77.1421 49.929 77.3745 49.7581 77.6035 49.5427 77.783 49.283 77.9128 49.0232 78.0393 48.7173 78.1025 48.3652 78.1025 48.0952 78.1025 47.8457 78.0649 47.6167 77.9897 47.3911 77.9111 47.1963 77.7898 47.0322 77.6257 46.8716 77.4583 46.7451 77.2446 46.6528 76.9849 46.564 76.7217 46.5195 76.4055 46.5195 76.0364L46.5195 72.4526 47.9961 72.4526 47.9961 76.0466C47.9961 76.2107 48.0149 76.3491 48.0525 76.4619 48.0935 76.5747 48.1499 76.667 48.2217 76.7388 48.2935 76.8105 48.3772 76.8618 48.4729 76.8926 48.572 76.9233 48.6814 76.9387 48.801 76.9387 49.1052 76.9387 49.3445 76.8772 49.5188 76.7542 49.6965 76.6311 49.8213 76.4636 49.8931 76.2517 49.9683 76.0364 50.0059 75.7971 50.0059 75.5339ZM53.9229 73.6626 53.9229 78 52.4463 78 52.4463 72.4526 53.8357 72.4526 53.9229 73.6626ZM55.5942 72.4167 55.5686 73.7856C55.4968 73.7754 55.4097 73.7668 55.3071 73.76 55.208 73.7498 55.1174 73.7446 55.0354 73.7446 54.8269 73.7446 54.6458 73.772 54.4919 73.8267 54.3416 73.8779 54.2151 73.9548 54.1125 74.0574 54.0134 74.1599 53.9382 74.2847 53.887 74.4316 53.8391 74.5786 53.8118 74.7461 53.8049 74.9341L53.5076 74.8418C53.5076 74.4829 53.5435 74.1531 53.6152 73.8523 53.687 73.5481 53.7913 73.2832 53.928 73.0576 54.0681 72.832 54.239 72.6577 54.4407 72.5347 54.6423 72.4116 54.873 72.3501 55.1328 72.3501 55.2148 72.3501 55.2986 72.3569 55.384 72.3706 55.4695 72.3809 55.5396 72.3962 55.5942 72.4167ZM58.2705 76.9233 59.501 72.4526 61.0442 72.4526 59.1729 78 58.2397 78 58.2705 76.9233ZM57.4246 72.4526 58.6602 76.9285 58.6858 78 57.7476 78 55.8762 72.4526 57.4246 72.4526ZM63.2642 72.4526 63.2642 78 61.7825 78 61.7825 72.4526 63.2642 72.4526ZM61.6902 71.0068C61.6902 70.7915 61.7654 70.6138 61.9158 70.4736 62.0662 70.3335 62.2678 70.2634 62.5208 70.2634 62.7703 70.2634 62.9702 70.3335 63.1206 70.4736 63.2744 70.6138 63.3513 70.7915 63.3513 71.0068 63.3513 71.2222 63.2744 71.3999 63.1206 71.54 62.9702 71.6802 62.7703 71.7502 62.5208 71.7502 62.2678 71.7502 62.0662 71.6802 61.9158 71.54 61.7654 71.3999 61.6902 71.2222 61.6902 71.0068ZM66.3711 76.9233 67.6016 72.4526 69.1448 72.4526 67.2734 78 66.3403 78 66.3711 76.9233ZM65.5251 72.4526 66.7607 76.9285 66.7864 78 65.8481 78 63.9768 72.4526 65.5251 72.4526ZM72.7183 76.749 72.7183 74.2778C72.7183 74.1001 72.6892 73.948 72.6311 73.8215 72.573 73.6917 72.4824 73.5908 72.3594 73.519 72.2397 73.4473 72.0842 73.4114 71.8928 73.4114 71.7288 73.4114 71.5869 73.4404 71.4673 73.4985 71.3477 73.5532 71.2554 73.6335 71.1904 73.7395 71.1255 73.842 71.093 73.9634 71.093 74.1035L69.6165 74.1035C69.6165 73.8677 69.6711 73.6438 69.7805 73.4319 69.8899 73.22 70.0488 73.0337 70.2573 72.873 70.4658 72.709 70.7136 72.5808 71.0007 72.4885 71.2913 72.3962 71.616 72.3501 71.9749 72.3501 72.4055 72.3501 72.7883 72.4219 73.1233 72.5654 73.4583 72.709 73.7214 72.9243 73.9128 73.2114 74.1077 73.4985 74.2051 73.8574 74.2051 74.2881L74.2051 76.6619C74.2051 76.9661 74.2239 77.2156 74.2615 77.4104 74.2991 77.6018 74.3538 77.7693 74.4255 77.9128L74.4255 78 72.9336 78C72.8618 77.8496 72.8071 77.6616 72.7695 77.436 72.7354 77.207 72.7183 76.978 72.7183 76.749ZM72.9131 74.6213 72.9233 75.457 72.0979 75.457C71.9031 75.457 71.7339 75.4792 71.5903 75.5237 71.4468 75.5681 71.3289 75.6313 71.2366 75.7134 71.1443 75.792 71.0759 75.8843 71.0315 75.9902 70.9905 76.0962 70.97 76.2124 70.97 76.3389 70.97 76.4653 70.999 76.5798 71.0571 76.6824 71.1152 76.7815 71.199 76.8601 71.3083 76.9182 71.4177 76.9729 71.5459 77.0002 71.6929 77.0002 71.915 77.0002 72.1082 76.9558 72.2722 76.8669 72.4363 76.7781 72.5627 76.6687 72.6516 76.5388 72.7439 76.4089 72.7917 76.2859 72.7952 76.1697L73.1848 76.7952C73.1301 76.9353 73.0549 77.0806 72.9592 77.231 72.8669 77.3813 72.749 77.5232 72.6055 77.6565 72.4619 77.7864 72.2893 77.894 72.0876 77.9795 71.886 78.0615 71.6467 78.1025 71.3699 78.1025 71.0178 78.1025 70.6982 78.0325 70.4111 77.8923 70.1274 77.7488 69.9019 77.5522 69.7344 77.3027 69.5703 77.0498 69.4883 76.7627 69.4883 76.4414 69.4883 76.1509 69.543 75.8928 69.6523 75.6672 69.7617 75.4417 69.9224 75.252 70.1343 75.0981 70.3496 74.9409 70.6179 74.823 70.9392 74.7444 71.2605 74.6624 71.6331 74.6213 72.0569 74.6213L72.9131 74.6213ZM76.9019 70.125 76.9019 78 75.4202 78 75.4202 70.125 76.9019 70.125ZM22.7561 85.6626 22.7561 90 21.2795 90 21.2795 84.4526 22.6689 84.4526 22.7561 85.6626ZM24.4275 84.4167 24.4019 85.7856C24.3301 85.7754 24.2429 85.7668 24.1404 85.76 24.0413 85.7498 23.9507 85.7446 23.8687 85.7446 23.6602 85.7446 23.479 85.772 23.3252 85.8267 23.1748 85.8779 23.0483 85.9548 22.9458 86.0574 22.8467 86.1599 22.7715 86.2847 22.7202 86.4316 22.6724 86.5786 22.645 86.7461 22.6382 86.9341L22.3408 86.8418C22.3408 86.4829 22.3767 86.1531 22.4485 85.8523 22.5203 85.5481 22.6245 85.2832 22.7612 85.0576 22.9014 84.832 23.0723 84.6577 23.2739 84.5347 23.4756 84.4116 23.7063 84.3501 23.9661 84.3501 24.0481 84.3501 24.1318 84.3569 24.2173 84.3706 24.3027 84.3809 24.3728 84.3962 24.4275 84.4167ZM27.9446 88.749 27.9446 86.2778C27.9446 86.1001 27.9155 85.948 27.8574 85.8215 27.7993 85.6917 27.7087 85.5908 27.5857 85.519 27.4661 85.4473 27.3105 85.4114 27.1191 85.4114 26.9551 85.4114 26.8132 85.4404 26.6936 85.4985 26.574 85.5532 26.4817 85.6335 26.4167 85.7395 26.3518 85.842 26.3193 85.9634 26.3193 86.1035L24.8428 86.1035C24.8428 85.8677 24.8975 85.6438 25.0068 85.4319 25.1162 85.22 25.2751 85.0337 25.4836 84.873 25.6921 84.709 25.9399 84.5808 26.2271 84.4885 26.5176 84.3962 26.8423 84.3501 27.2012 84.3501 27.6318 84.3501 28.0146 84.4219 28.3496 84.5654 28.6846 84.709 28.9478 84.9243 29.1392 85.2114 29.334 85.4985 29.4314 85.8574 29.4314 86.2881L29.4314 88.6619C29.4314 88.9661 29.4502 89.2156 29.4878 89.4104 29.5254 89.6018 29.5801 89.7693 29.6519 89.9128L29.6519 90 28.1599 90C28.0881 89.8496 28.0334 89.6616 27.9958 89.436 27.9617 89.207 27.9446 88.978 27.9446 88.749ZM28.1394 86.6213 28.1497 87.457 27.3242 87.457C27.1294 87.457 26.9602 87.4792 26.8167 87.5237 26.6731 87.5681 26.5552 87.6313 26.4629 87.7134 26.3706 87.792 26.3022 87.8843 26.2578 87.9902 26.2168 88.0962 26.1963 88.2124 26.1963 88.3389 26.1963 88.4653 26.2253 88.5798 26.2834 88.6824 26.3416 88.7815 26.4253 88.8601 26.5347 88.9182 26.644 88.9729 26.7722 89.0002 26.9192 89.0002 27.1414 89.0002 27.3345 88.9558 27.4985 88.8669 27.6626 88.7781 27.7891 88.6687 27.8779 88.5388 27.9702 88.4089 28.0181 88.2859 28.0215 88.1697L28.4111 88.7952C28.3564 88.9353 28.2812 89.0806 28.1855 89.231 28.0933 89.3813 27.9753 89.5232 27.8318 89.6565 27.6882 89.7864 27.5156 89.894 27.314 89.9795 27.1123 90.0615 26.873 90.1025 26.5962 90.1025 26.2441 90.1025 25.9246 90.0325 25.6375 89.8923 25.3538 89.7488 25.1282 89.5522 24.9607 89.3027 24.7966 89.0498 24.7146 88.7627 24.7146 88.4414 24.7146 88.1509 24.7693 87.8928 24.8787 87.6672 24.988 87.4417 25.1487 87.252 25.3606 87.0981 25.5759 86.9409 25.8442 86.823 26.1655 86.7444 26.4868 86.6624 26.8594 86.6213 27.2832 86.6213L28.1394 86.6213ZM33.2869 84.4526 33.2869 85.4985 30.0569 85.4985 30.0569 84.4526 33.2869 84.4526ZM30.8567 83.0837 32.3333 83.0837 32.3333 88.3286C32.3333 88.4893 32.3538 88.6123 32.3948 88.6978 32.4392 88.7832 32.5042 88.843 32.5896 88.8772 32.675 88.908 32.7827 88.9233 32.9126 88.9233 33.0049 88.9233 33.0869 88.9199 33.1587 88.9131 33.2339 88.9028 33.2971 88.8926 33.3484 88.8823L33.3535 89.9692C33.2271 90.0103 33.0903 90.0427 32.9434 90.0667 32.7964 90.0906 32.634 90.1025 32.4563 90.1025 32.1316 90.1025 31.8479 90.0496 31.6052 89.9436 31.366 89.8342 31.1814 89.6599 31.0515 89.4207 30.9216 89.1814 30.8567 88.8669 30.8567 88.4773L30.8567 83.0837ZM36.6809 90.1025C36.2502 90.1025 35.864 90.0342 35.5222 89.8975 35.1804 89.7573 34.8899 89.5642 34.6506 89.3181 34.4148 89.072 34.2336 88.7866 34.1072 88.4619 33.9807 88.1338 33.9175 87.7852 33.9175 87.416L33.9175 87.2109C33.9175 86.7905 33.9773 86.406 34.0969 86.0574 34.2166 85.7087 34.3875 85.4062 34.6096 85.1499 34.8352 84.8936 35.1086 84.697 35.4299 84.5603 35.7512 84.4202 36.1135 84.3501 36.5168 84.3501 36.9099 84.3501 37.2585 84.415 37.5627 84.5449 37.8669 84.6748 38.1216 84.8594 38.3267 85.0986 38.5352 85.3379 38.6924 85.625 38.7983 85.96 38.9043 86.2915 38.9573 86.6606 38.9573 87.0674L38.9573 87.6826 34.5481 87.6826 34.5481 86.6982 37.5063 86.6982 37.5063 86.5854C37.5063 86.3804 37.4688 86.1975 37.3936 86.0369 37.3218 85.8728 37.2124 85.7429 37.0654 85.6472 36.9185 85.5515 36.7305 85.5037 36.5015 85.5037 36.3066 85.5037 36.1392 85.5464 35.999 85.6318 35.8589 85.7173 35.7444 85.8369 35.6555 85.9907 35.5701 86.1445 35.5051 86.3257 35.4607 86.5342 35.4197 86.7393 35.3992 86.9648 35.3992 87.2109L35.3992 87.416C35.3992 87.6382 35.4299 87.8433 35.4915 88.0312 35.5564 88.2192 35.647 88.3816 35.7632 88.5183 35.8828 88.655 36.0264 88.761 36.1938 88.8362 36.3647 88.9114 36.5579 88.949 36.7732 88.949 37.0398 88.949 37.2876 88.8977 37.5166 88.7952 37.749 88.6892 37.949 88.5303 38.1165 88.3184L38.8342 89.0977C38.718 89.2651 38.5591 89.4258 38.3574 89.5796 38.1592 89.7334 37.9199 89.8599 37.6396 89.959 37.3594 90.0547 37.0398 90.1025 36.6809 90.1025ZM45.407 88.749 45.407 86.2778C45.407 86.1001 45.3779 85.948 45.3198 85.8215 45.2617 85.6917 45.1711 85.5908 45.0481 85.519 44.9285 85.4473 44.7729 85.4114 44.5815 85.4114 44.4175 85.4114 44.2756 85.4404 44.156 85.4985 44.0364 85.5532 43.9441 85.6335 43.8792 85.7395 43.8142 85.842 43.7817 85.9634 43.7817 86.1035L42.3052 86.1035C42.3052 85.8677 42.3599 85.6438 42.4692 85.4319 42.5786 85.22 42.7375 85.0337 42.946 84.873 43.1545 84.709 43.4023 84.5808 43.6895 84.4885 43.98 84.3962 44.3047 84.3501 44.6636 84.3501 45.0942 84.3501 45.4771 84.4219 45.812 84.5654 46.147 84.709 46.4102 84.9243 46.6016 85.2114 46.7964 85.4985 46.8938 85.8574 46.8938 86.2881L46.8938 88.6619C46.8938 88.9661 46.9126 89.2156 46.9502 89.4104 46.9878 89.6018 47.0425 89.7693 47.1143 89.9128L47.1143 90 45.6223 90C45.5505 89.8496 45.4958 89.6616 45.4583 89.436 45.4241 89.207 45.407 88.978 45.407 88.749ZM45.6018 86.6213 45.6121 87.457 44.7866 87.457C44.5918 87.457 44.4226 87.4792 44.2791 87.5237 44.1355 87.5681 44.0176 87.6313 43.9253 87.7134 43.833 87.792 43.7646 87.8843 43.7202 87.9902 43.6792 88.0962 43.6587 88.2124 43.6587 88.3389 43.6587 88.4653 43.6877 88.5798 43.7458 88.6824 43.804 88.7815 43.8877 88.8601 43.9971 88.9182 44.1064 88.9729 44.2346 89.0002 44.3816 89.0002 44.6038 89.0002 44.7969 88.9558 44.9609 88.8669 45.125 88.7781 45.2515 88.6687 45.3403 88.5388 45.4326 88.4089 45.4805 88.2859 45.4839 88.1697L45.8735 88.7952C45.8188 88.9353 45.7437 89.0806 45.6479 89.231 45.5557 89.3813 45.4377 89.5232 45.2942 89.6565 45.1506 89.7864 44.978 89.894 44.7764 89.9795 44.5747 90.0615 44.3354 90.1025 44.0586 90.1025 43.7065 90.1025 43.387 90.0325 43.0999 89.8923 42.8162 89.7488 42.5906 89.5522 42.4231 89.3027 42.259 89.0498 42.177 88.7627 42.177 88.4414 42.177 88.1509 42.2317 87.8928 42.3411 87.6672 42.4504 87.4417 42.6111 87.252 42.823 87.0981 43.0383 86.9409 43.3066 86.823 43.6279 86.7444 43.9492 86.6624 44.3218 86.6213 44.7456 86.6213L45.6018 86.6213ZM49.9136 90 48.4268 90 48.4268 83.9604C48.4268 83.54 48.5088 83.1863 48.6729 82.8992 48.8403 82.6086 49.0745 82.3899 49.3752 82.2429 49.6794 82.0925 50.04 82.0173 50.457 82.0173 50.5938 82.0173 50.7253 82.0276 50.8518 82.0481 50.9783 82.0652 51.1013 82.0874 51.2209 82.1147L51.2056 83.2273C51.1406 83.2102 51.0723 83.1982 51.0005 83.1914 50.9287 83.1846 50.845 83.1812 50.7493 83.1812 50.5715 83.1812 50.4194 83.2119 50.293 83.2734 50.1699 83.3315 50.0759 83.4187 50.011 83.5349 49.946 83.6511 49.9136 83.793 49.9136 83.9604L49.9136 90ZM51.021 84.4526 51.021 85.4985 47.6013 85.4985 47.6013 84.4526 51.021 84.4526ZM54.5125 84.4526 54.5125 85.4985 51.2825 85.4985 51.2825 84.4526 54.5125 84.4526ZM52.0823 83.0837 53.5588 83.0837 53.5588 88.3286C53.5588 88.4893 53.5793 88.6123 53.6204 88.6978 53.6648 88.7832 53.7297 88.843 53.8152 88.8772 53.9006 88.908 54.0083 88.9233 54.1382 88.9233 54.2305 88.9233 54.3125 88.9199 54.3843 88.9131 54.4595 88.9028 54.5227 88.8926 54.574 88.8823L54.5791 89.9692C54.4526 90.0103 54.3159 90.0427 54.1689 90.0667 54.022 90.0906 53.8596 90.1025 53.6819 90.1025 53.3572 90.1025 53.0735 90.0496 52.8308 89.9436 52.5916 89.8342 52.407 89.6599 52.2771 89.4207 52.1472 89.1814 52.0823 88.8669 52.0823 88.4773L52.0823 83.0837ZM57.9065 90.1025C57.4758 90.1025 57.0896 90.0342 56.7478 89.8975 56.406 89.7573 56.1155 89.5642 55.8762 89.3181 55.6404 89.072 55.4592 88.7866 55.3328 88.4619 55.2063 88.1338 55.1431 87.7852 55.1431 87.416L55.1431 87.2109C55.1431 86.7905 55.2029 86.406 55.3225 86.0574 55.4421 85.7087 55.613 85.4062 55.8352 85.1499 56.0608 84.8936 56.3342 84.697 56.6555 84.5603 56.9768 84.4202 57.3391 84.3501 57.7424 84.3501 58.1355 84.3501 58.4841 84.415 58.7883 84.5449 59.0925 84.6748 59.3472 84.8594 59.5522 85.0986 59.7607 85.3379 59.918 85.625 60.0239 85.96 60.1299 86.2915 60.1829 86.6606 60.1829 87.0674L60.1829 87.6826 55.7737 87.6826 55.7737 86.6982 58.7319 86.6982 58.7319 86.5854C58.7319 86.3804 58.6943 86.1975 58.6191 86.0369 58.5474 85.8728 58.438 85.7429 58.291 85.6472 58.144 85.5515 57.9561 85.5037 57.7271 85.5037 57.5322 85.5037 57.3647 85.5464 57.2246 85.6318 57.0845 85.7173 56.97 85.8369 56.8811 85.9907 56.7957 86.1445 56.7307 86.3257 56.6863 86.5342 56.6453 86.7393 56.6248 86.9648 56.6248 87.2109L56.6248 87.416C56.6248 87.6382 56.6555 87.8433 56.717 88.0312 56.782 88.2192 56.8726 88.3816 56.9888 88.5183 57.1084 88.655 57.252 88.761 57.4194 88.8362 57.5903 88.9114 57.7834 88.949 57.9988 88.949 58.2654 88.949 58.5132 88.8977 58.7422 88.7952 58.9746 88.6892 59.1746 88.5303 59.342 88.3184L60.0598 89.0977C59.9436 89.2651 59.7847 89.4258 59.583 89.5796 59.3848 89.7334 59.1455 89.8599 58.8652 89.959 58.585 90.0547 58.2654 90.1025 57.9065 90.1025ZM62.5002 85.6626 62.5002 90 61.0237 90 61.0237 84.4526 62.4131 84.4526 62.5002 85.6626ZM64.1716 84.4167 64.146 85.7856C64.0742 85.7754 63.9871 85.7668 63.8845 85.76 63.7854 85.7498 63.6948 85.7446 63.6128 85.7446 63.4043 85.7446 63.2231 85.772 63.0693 85.8267 62.9189 85.8779 62.7925 85.9548 62.6899 86.0574 62.5908 86.1599 62.5156 86.2847 62.4644 86.4316 62.4165 86.5786 62.3892 86.7461 62.3823 86.9341L62.085 86.8418C62.085 86.4829 62.1208 86.1531 62.1926 85.8523 62.2644 85.5481 62.3687 85.2832 62.5054 85.0576 62.6455 84.832 62.8164 84.6577 63.0181 84.5347 63.2197 84.4116 63.4504 84.3501 63.7102 84.3501 63.7922 84.3501 63.876 84.3569 63.9614 84.3706 64.0469 84.3809 64.1169 84.3962 64.1716 84.4167ZM23.5046 100.79 23.5046 94.125 24.9915 94.125 24.9915 102 23.6533 102 23.5046 100.79ZM19.9978 99.293 19.9978 99.1853C19.9978 98.7615 20.0457 98.377 20.1414 98.0317 20.2371 97.6831 20.3772 97.384 20.5618 97.1345 20.7463 96.885 20.9736 96.6919 21.2437 96.5552 21.5137 96.4185 21.8213 96.3501 22.1665 96.3501 22.4912 96.3501 22.7749 96.4185 23.0176 96.5552 23.2637 96.6919 23.4722 96.8867 23.6431 97.1396 23.8174 97.3892 23.9575 97.6848 24.0635 98.0266 24.1694 98.365 24.2463 98.7358 24.2942 99.1392L24.2942 99.375C24.2463 99.7612 24.1694 100.12 24.0635 100.452 23.9575 100.783 23.8174 101.074 23.6431 101.323 23.4722 101.569 23.2637 101.761 23.0176 101.897 22.7715 102.034 22.4844 102.103 22.1562 102.103 21.811 102.103 21.5034 102.032 21.2334 101.892 20.9668 101.752 20.7412 101.556 20.5566 101.303 20.3755 101.05 20.2371 100.752 20.1414 100.411 20.0457 100.069 19.9978 99.6963 19.9978 99.293ZM21.4744 99.1853 21.4744 99.293C21.4744 99.522 21.4915 99.7356 21.5256 99.9338 21.5632 100.132 21.623 100.308 21.7051 100.462 21.7905 100.612 21.8999 100.73 22.0332 100.816 22.1699 100.898 22.3357 100.939 22.5305 100.939 22.7834 100.939 22.9919 100.882 23.156 100.77 23.3201 100.653 23.4448 100.494 23.5303 100.293 23.6191 100.091 23.6704 99.8586 23.6841 99.5955L23.6841 98.9238C23.6738 98.7085 23.6431 98.5154 23.5918 98.3445 23.5439 98.1702 23.4722 98.0215 23.3765 97.8984 23.2842 97.7754 23.168 97.6797 23.0278 97.6113 22.8911 97.543 22.7288 97.5088 22.5408 97.5088 22.3494 97.5088 22.1853 97.5532 22.0486 97.6421 21.9119 97.7275 21.8008 97.8455 21.7153 97.9958 21.6333 98.1462 21.5718 98.324 21.5308 98.5291 21.4932 98.7307 21.4744 98.9495 21.4744 99.1853ZM27.7036 96.4526 27.7036 102 26.2219 102 26.2219 96.4526 27.7036 96.4526ZM26.1296 95.0068C26.1296 94.7915 26.2048 94.6138 26.3552 94.4736 26.5056 94.3335 26.7073 94.2634 26.9602 94.2634 27.2097 94.2634 27.4097 94.3335 27.5601 94.4736 27.7139 94.6138 27.7908 94.7915 27.7908 95.0068 27.7908 95.2222 27.7139 95.3999 27.5601 95.54 27.4097 95.6802 27.2097 95.7502 26.9602 95.7502 26.7073 95.7502 26.5056 95.6802 26.3552 95.54 26.2048 95.3999 26.1296 95.2222 26.1296 95.0068ZM31.918 100.749 31.918 98.2778C31.918 98.1001 31.8889 97.948 31.8308 97.8215 31.7727 97.6917 31.6821 97.5908 31.5591 97.519 31.4395 97.4473 31.2839 97.4114 31.0925 97.4114 30.9285 97.4114 30.7866 97.4404 30.667 97.4985 30.5474 97.5532 30.4551 97.6335 30.3901 97.7395 30.3252 97.842 30.2927 97.9634 30.2927 98.1035L28.8162 98.1035C28.8162 97.8677 28.8708 97.6438 28.9802 97.4319 29.0896 97.22 29.2485 97.0337 29.457 96.873 29.6655 96.709 29.9133 96.5808 30.2004 96.4885 30.491 96.3962 30.8157 96.3501 31.1746 96.3501 31.6052 96.3501 31.988 96.4219 32.323 96.5654 32.658 96.709 32.9211 96.9243 33.1125 97.2114 33.3074 97.4985 33.4048 97.8574 33.4048 98.2881L33.4048 100.662C33.4048 100.966 33.4236 101.216 33.4612 101.41 33.4988 101.602 33.5535 101.769 33.6252 101.913L33.6252 102 32.1333 102C32.0615 101.85 32.0068 101.662 31.9692 101.436 31.9351 101.207 31.918 100.978 31.918 100.749ZM32.1128 98.6213 32.123 99.457 31.2976 99.457C31.1028 99.457 30.9336 99.4792 30.79 99.5237 30.6465 99.5681 30.5286 99.6313 30.4363 99.7134 30.344 99.792 30.2756 99.8843 30.2312 99.9902 30.1902 100.096 30.1697 100.212 30.1697 100.339 30.1697 100.465 30.1987 100.58 30.2568 100.682 30.3149 100.781 30.3987 100.86 30.5081 100.918 30.6174 100.973 30.7456 101 30.8926 101 31.1147 101 31.3079 100.956 31.4719 100.867 31.636 100.778 31.7625 100.669 31.8513 100.539 31.9436 100.409 31.9915 100.286 31.9949 100.17L32.3845 100.795C32.3298 100.935 32.2546 101.081 32.1589 101.231 32.0667 101.381 31.9487 101.523 31.8052 101.656 31.6616 101.786 31.489 101.894 31.2874 101.979 31.0857 102.062 30.8464 102.103 30.5696 102.103 30.2175 102.103 29.8979 102.032 29.6108 101.892 29.3271 101.749 29.1016 101.552 28.9341 101.303 28.77 101.05 28.688 100.763 28.688 100.441 28.688 100.151 28.7427 99.8928 28.8521 99.6672 28.9614 99.4417 29.1221 99.252 29.334 99.0981 29.5493 98.9409 29.8176 98.823 30.1389 98.7444 30.4602 98.6624 30.8328 98.6213 31.2566 98.6213L32.1128 98.6213ZM38.0549 96.4526 39.3931 96.4526 39.3931 101.815C39.3931 102.321 39.2803 102.75 39.0547 103.102 38.8325 103.458 38.5215 103.726 38.1216 103.907 37.7217 104.092 37.2568 104.184 36.7271 104.184 36.4946 104.184 36.2485 104.153 35.9888 104.092 35.7324 104.03 35.4863 103.935 35.2505 103.805 35.0181 103.675 34.8232 103.511 34.666 103.312L35.3171 102.441C35.488 102.639 35.6863 102.793 35.9119 102.902 36.1375 103.015 36.387 103.072 36.6604 103.072 36.927 103.072 37.1526 103.022 37.3372 102.923 37.5217 102.827 37.6636 102.685 37.7627 102.497 37.8618 102.313 37.9114 102.089 37.9114 101.826L37.9114 97.7344 38.0549 96.4526ZM34.3225 99.293 34.3225 99.1853C34.3225 98.7615 34.3738 98.377 34.4763 98.0317 34.5823 97.6831 34.731 97.384 34.9224 97.1345 35.1172 96.885 35.353 96.6919 35.6299 96.5552 35.9067 96.4185 36.2195 96.3501 36.5681 96.3501 36.9373 96.3501 37.2466 96.4185 37.4961 96.5552 37.7456 96.6919 37.9507 96.8867 38.1113 97.1396 38.272 97.3892 38.3967 97.6848 38.4856 98.0266 38.5779 98.365 38.6497 98.7358 38.7009 99.1392L38.7009 99.375C38.6497 99.7612 38.5728 100.12 38.4702 100.452 38.3677 100.783 38.2327 101.074 38.0652 101.323 37.8977 101.569 37.6892 101.761 37.4397 101.897 37.1936 102.034 36.8997 102.103 36.5579 102.103 36.2161 102.103 35.9067 102.032 35.6299 101.892 35.3564 101.752 35.1223 101.556 34.9275 101.303 34.7327 101.05 34.5823 100.752 34.4763 100.411 34.3738 100.069 34.3225 99.6963 34.3225 99.293ZM35.7991 99.1853 35.7991 99.293C35.7991 99.522 35.8213 99.7356 35.8657 99.9338 35.9102 100.132 35.9785 100.308 36.0708 100.462 36.1665 100.612 36.2844 100.73 36.4246 100.816 36.5681 100.898 36.7373 100.939 36.9321 100.939 37.2021 100.939 37.4226 100.882 37.5935 100.77 37.7644 100.653 37.8926 100.494 37.978 100.293 38.0635 100.091 38.113 99.8586 38.1267 99.5955L38.1267 98.9238C38.1199 98.7085 38.0908 98.5154 38.0396 98.3445 37.9883 98.1702 37.9165 98.0215 37.8242 97.8984 37.7319 97.7754 37.6123 97.6797 37.4653 97.6113 37.3184 97.543 37.144 97.5088 36.9424 97.5088 36.7476 97.5088 36.5784 97.5532 36.4348 97.6421 36.2947 97.7275 36.1768 97.8455 36.0811 97.9958 35.9888 98.1462 35.9187 98.324 35.8708 98.5291 35.823 98.7307 35.7991 98.9495 35.7991 99.1853ZM41.9873 97.637 41.9873 102 40.5107 102 40.5107 96.4526 41.895 96.4526 41.9873 97.637ZM41.772 99.0315 41.3721 99.0315C41.3721 98.6213 41.425 98.2522 41.531 97.9241 41.637 97.5925 41.7856 97.3105 41.9771 97.0781 42.1685 96.8423 42.3958 96.6628 42.6589 96.5398 42.9255 96.4133 43.2229 96.3501 43.551 96.3501 43.8108 96.3501 44.0483 96.3877 44.2637 96.4629 44.479 96.5381 44.6636 96.6577 44.8174 96.8218 44.9746 96.9858 45.0942 97.2029 45.1763 97.4729 45.2617 97.7429 45.3044 98.0728 45.3044 98.4624L45.3044 102 43.8176 102 43.8176 98.4573C43.8176 98.2112 43.7834 98.0198 43.7151 97.8831 43.6467 97.7463 43.5459 97.6506 43.4126 97.5959 43.2827 97.5378 43.1221 97.5088 42.9307 97.5088 42.7324 97.5088 42.5598 97.5481 42.4128 97.6267 42.2693 97.7053 42.1497 97.8147 42.054 97.9548 41.9617 98.0916 41.8916 98.2522 41.8438 98.4368 41.7959 98.6213 41.772 98.8196 41.772 99.0315ZM46.1914 99.2827 46.1914 99.175C46.1914 98.7683 46.2495 98.394 46.3657 98.0522 46.4819 97.707 46.6511 97.408 46.8733 97.155 47.0955 96.9021 47.3689 96.7056 47.6936 96.5654 48.0183 96.4219 48.3909 96.3501 48.8113 96.3501 49.2317 96.3501 49.606 96.4219 49.9341 96.5654 50.2622 96.7056 50.5374 96.9021 50.7595 97.155 50.9851 97.408 51.156 97.707 51.2722 98.0522 51.3884 98.394 51.4465 98.7683 51.4465 99.175L51.4465 99.2827C51.4465 99.686 51.3884 100.06 51.2722 100.406 51.156 100.747 50.9851 101.046 50.7595 101.303 50.5374 101.556 50.2639 101.752 49.9392 101.892 49.6145 102.032 49.2419 102.103 48.8215 102.103 48.4011 102.103 48.0269 102.032 47.6987 101.892 47.374 101.752 47.0989 101.556 46.8733 101.303 46.6511 101.046 46.4819 100.747 46.3657 100.406 46.2495 100.06 46.1914 99.686 46.1914 99.2827ZM47.668 99.175 47.668 99.2827C47.668 99.5151 47.6885 99.7322 47.7295 99.9338 47.7705 100.135 47.8354 100.313 47.9243 100.467 48.0166 100.617 48.1362 100.735 48.2832 100.821 48.4302 100.906 48.6096 100.949 48.8215 100.949 49.0266 100.949 49.2026 100.906 49.3496 100.821 49.4966 100.735 49.6145 100.617 49.7034 100.467 49.7922 100.313 49.8572 100.135 49.8982 99.9338 49.9426 99.7322 49.9648 99.5151 49.9648 99.2827L49.9648 99.175C49.9648 98.9495 49.9426 98.7375 49.8982 98.5393 49.8572 98.3376 49.7905 98.1599 49.6982 98.0061 49.6094 97.8489 49.4915 97.7258 49.3445 97.637 49.1975 97.5481 49.0198 97.5037 48.8113 97.5037 48.6028 97.5037 48.425 97.5481 48.2781 97.637 48.1345 97.7258 48.0166 97.8489 47.9243 98.0061 47.8354 98.1599 47.7705 98.3376 47.7295 98.5393 47.6885 98.7375 47.668 98.9495 47.668 99.175ZM55.3533 100.467C55.3533 100.361 55.3225 100.265 55.261 100.18 55.1995 100.094 55.085 100.016 54.9175 99.9441 54.7534 99.8689 54.5159 99.8005 54.2048 99.739 53.9246 99.6775 53.6631 99.6006 53.4204 99.5083 53.1812 99.4126 52.9727 99.2981 52.7949 99.1648 52.6206 99.0315 52.4839 98.8743 52.3848 98.6931 52.2856 98.5085 52.2361 98.2983 52.2361 98.0625 52.2361 97.8301 52.2856 97.6113 52.3848 97.4062 52.4873 97.2012 52.6326 97.02 52.8206 96.8628 53.012 96.7021 53.2444 96.5774 53.5178 96.4885 53.7947 96.3962 54.1057 96.3501 54.4509 96.3501 54.9329 96.3501 55.3464 96.427 55.6917 96.5808 56.0403 96.7346 56.3069 96.9465 56.4915 97.2166 56.6794 97.4832 56.7734 97.7874 56.7734 98.1292L55.2969 98.1292C55.2969 97.9856 55.2661 97.8574 55.2046 97.7446 55.1465 97.6284 55.0542 97.5378 54.9277 97.4729 54.8047 97.4045 54.644 97.3704 54.4458 97.3704 54.2817 97.3704 54.1399 97.3994 54.0203 97.4575 53.9006 97.5122 53.8083 97.5874 53.7434 97.6831 53.6819 97.7754 53.6511 97.8779 53.6511 97.9907 53.6511 98.0762 53.6682 98.1531 53.7024 98.2214 53.74 98.2864 53.7998 98.3462 53.8818 98.4009 53.9639 98.4556 54.0698 98.5068 54.1997 98.5547 54.333 98.5991 54.4971 98.6401 54.6919 98.6777 55.0918 98.7598 55.449 98.8674 55.7634 99.0007 56.0779 99.1306 56.3274 99.3083 56.512 99.5339 56.6965 99.7561 56.7888 100.048 56.7888 100.411 56.7888 100.657 56.7341 100.882 56.6248 101.087 56.5154 101.292 56.3582 101.472 56.1531 101.626 55.948 101.776 55.7019 101.894 55.4148 101.979 55.1311 102.062 54.8115 102.103 54.4561 102.103 53.9399 102.103 53.5024 102.01 53.1436 101.826 52.7881 101.641 52.5181 101.407 52.3335 101.123 52.1523 100.836 52.0618 100.542 52.0618 100.241L53.4614 100.241C53.4683 100.443 53.5195 100.605 53.6152 100.729 53.7144 100.852 53.8391 100.94 53.9895 100.995 54.1433 101.05 54.3091 101.077 54.4868 101.077 54.6782 101.077 54.8372 101.052 54.9636 101 55.0901 100.946 55.1858 100.874 55.2507 100.785 55.3191 100.693 55.3533 100.587 55.3533 100.467ZM59.3062 96.4526 59.3062 102 57.8245 102 57.8245 96.4526 59.3062 96.4526ZM57.7322 95.0068C57.7322 94.7915 57.8074 94.6138 57.9578 94.4736 58.1082 94.3335 58.3098 94.2634 58.5627 94.2634 58.8123 94.2634 59.0122 94.3335 59.1626 94.4736 59.3164 94.6138 59.3933 94.7915 59.3933 95.0068 59.3933 95.2222 59.3164 95.3999 59.1626 95.54 59.0122 95.6802 58.8123 95.7502 58.5627 95.7502 58.3098 95.7502 58.1082 95.6802 57.9578 95.54 57.8074 95.3999 57.7322 95.2222 57.7322 95.0068ZM63.5256 100.467C63.5256 100.361 63.4949 100.265 63.4333 100.18 63.3718 100.094 63.2573 100.016 63.0898 99.9441 62.9258 99.8689 62.6882 99.8005 62.3772 99.739 62.0969 99.6775 61.8354 99.6006 61.5928 99.5083 61.3535 99.4126 61.145 99.2981 60.9673 99.1648 60.793 99.0315 60.6562 98.8743 60.5571 98.6931 60.458 98.5085 60.4084 98.2983 60.4084 98.0625 60.4084 97.8301 60.458 97.6113 60.5571 97.4062 60.6597 97.2012 60.8049 97.02 60.9929 96.8628 61.1843 96.7021 61.4167 96.5774 61.6902 96.4885 61.967 96.3962 62.2781 96.3501 62.6233 96.3501 63.1052 96.3501 63.5188 96.427 63.864 96.5808 64.2126 96.7346 64.4792 96.9465 64.6638 97.2166 64.8518 97.4832 64.9458 97.7874 64.9458 98.1292L63.4692 98.1292C63.4692 97.9856 63.4385 97.8574 63.377 97.7446 63.3188 97.6284 63.2266 97.5378 63.1001 97.4729 62.9771 97.4045 62.8164 97.3704 62.6182 97.3704 62.4541 97.3704 62.3123 97.3994 62.1926 97.4575 62.073 97.5122 61.9807 97.5874 61.9158 97.6831 61.8542 97.7754 61.8235 97.8779 61.8235 97.9907 61.8235 98.0762 61.8406 98.1531 61.8748 98.2214 61.9124 98.2864 61.9722 98.3462 62.0542 98.4009 62.1362 98.4556 62.2422 98.5068 62.3721 98.5547 62.5054 98.5991 62.6694 98.6401 62.8643 98.6777 63.2642 98.7598 63.6213 98.8674 63.9358 99.0007 64.2502 99.1306 64.4998 99.3083 64.6843 99.5339 64.8689 99.7561 64.9612 100.048 64.9612 100.411 64.9612 100.657 64.9065 100.882 64.7971 101.087 64.6877 101.292 64.5305 101.472 64.3254 101.626 64.1204 101.776 63.8743 101.894 63.5872 101.979 63.3035 102.062 62.9839 102.103 62.6284 102.103 62.1123 102.103 61.6748 102.01 61.3159 101.826 60.9604 101.641 60.6904 101.407 60.5059 101.123 60.3247 100.836 60.2341 100.542 60.2341 100.241L61.6338 100.241C61.6406 100.443 61.6919 100.605 61.7876 100.729 61.8867 100.852 62.0115 100.94 62.1619 100.995 62.3157 101.05 62.4814 101.077 62.6592 101.077 62.8506 101.077 63.0095 101.052 63.136 101 63.2625 100.946 63.3582 100.874 63.4231 100.785 63.4915 100.693 63.5256 100.587 63.5256 100.467Z" fill="#FFFFFF"/></g></svg>