<svg width="65" height="64" viewBox="0 0 65 64" xmlns="http://www.w3.org/2000/svg" xmlns:xlink="http://www.w3.org/1999/xlink" fill="none" overflow="hidden"><path d="M62.3496 61 18.6504 61C17.8993 61 17.4163 60.2029 17.764 59.5371L39.6136 17.6974C39.9876 16.9812 41.0124 16.9812 41.3864 17.6974L63.236 59.5371C63.5837 60.2029 63.1007 61 62.3496 61Z" stroke="#FFFFFF" stroke-width="2"/><path d="M40.5 46 39 46C38.4477 46 38 45.5523 38 45L38 33C38 32.4477 38.4477 32 39 32L42 32C42.5523 32 43 32.4477 43 33L43 45" stroke="#40B4E5" stroke-width="2" stroke-linecap="round"/><circle cx="40.5" cy="52" r="2" stroke="#40B4E5" stroke-width="2"/><rect x="27.9448" y="5.36603" rx="5" width="10" height="33" stroke="#FFFFFF" stroke-width="2" transform="matrix(0.5 0.866025 -0.866025 0.5 18.6195 -21.5179)"/><path d="M16.2222 31.866 21.2222 40.5262" stroke="#FFFFFF" stroke-width="2"/><path d="M13.2222 13.866 18.2222 22.5262" stroke="#FFFFFF" stroke-width="2"/><path d="M32.4666 25.2182C30.6252 23.9803 28.1657 23.8159 26.1147 25L6.19607 36.5C3.32631 38.1569 2.34306 41.8264 3.99992 44.6962 5.65677 47.5659 9.32631 48.5492 12.1961 46.8923L25.0572 39.467 26.7733 36.1668 11.1961 45.1603C9.2829 46.2649 6.83654 45.6094 5.73197 43.6962 4.6274 41.783 5.2829 39.3367 7.19607 38.2321L27.1147 26.7321C28.5521 25.9022 30.2906 26.0659 31.5348 27.0101L32.4666 25.2182Z" fill="#FFFFFF" fill-rule="evenodd" clip-rule="evenodd"/><circle cx="32" cy="26.1" r="1" fill="#FFFFFF"/><path d="M27.5145 37.8575C27.9881 37.5733 28.1416 36.9591 27.8575 36.4855 27.5733 36.0119 26.9591 35.8584 26.4855 36.1425L27.5145 37.8575ZM22.5145 40.8575 27.5145 37.8575 26.4855 36.1425 21.4855 39.1425 22.5145 40.8575Z" fill="#FFFFFF"/></svg>