<svg width="64" height="64" viewBox="0 0 64 64" xmlns="http://www.w3.org/2000/svg" xmlns:xlink="http://www.w3.org/1999/xlink" fill="none" overflow="hidden"><path d="M44 9.00002C42.4 14.6 32.3333 16.6667 27.5 17 29.6667 17.6667 34.8 18.8 38 18 42 17 44 15.5 46.5 10.5 49 5.50002 43 2.00002 43 2.50002 43 3.00002 46 2.00002 44 9.00002Z" fill="#40B4E5" opacity="0.5"/><path d="M45.6936 6.29291 45.6915 6.28426C45.635 6.05532 45.2801 5.32891 44.5389 4.55507 43.8251 3.80996 42.9956 3.27836 42.2091 3.11476 39.9165 2.63779 38.0266 3.65839 37.5526 4.76418 37.4035 5.11195 37.3125 5.4986 37.2335 6.0066 37.2135 6.13496 37.1909 6.3013 37.1655 6.48784 37.1103 6.89347 37.0421 7.39465 36.9601 7.80861 36.6631 9.30667 36.0088 10.9076 34.1405 12.3355 32.1821 13.8322 29.6896 14.3615 27.4249 14.594 25.9982 14.7405 24.4066 14.7822 22.9764 14.8196 22.2069 14.8397 21.4841 14.8586 20.8588 14.892 19.7988 14.9485 19 15.5705 18.5985 16.8018 18.2778 17.7855 18.2471 19.1335 18.7033 20.6376L21.0174 20.0591C20.93 19.6497 20.8626 19.1824 20.8749 18.7103 20.8952 17.9343 21.1497 16.8501 22.174 16.1182 23.096 15.4595 24.2265 15.4001 25.224 15.5126 26.7667 15.6865 28.0121 16.0212 29.1932 16.3386 31.8175 17.0439 34.1244 17.6638 38.6688 16.2453 41.7008 15.2989 43.7292 13.9003 44.8528 12.2924 45.9354 10.7431 46.3313 8.78476 45.6958 6.30155L45.6936 6.29291ZM22.9593 19.5736C22.7109 18.3461 22.8911 17.2623 25 17.5 26.1347 17.6279 27.195 17.9088 28.289 18.1986 31.1073 18.9452 34.1497 19.7511 39.2647 18.1545 45.8582 16.0964 49.1549 11.7514 47.6334 5.80571 47.2952 4.43362 45.2432 1.70313 42.6165 1.15668 39.7628 0.563003 36.6945 1.68944 35.7144 3.97626 35.3797 4.75704 35.2736 5.54545 35.1679 6.33009 34.9642 7.84356 34.7623 9.34298 32.926 10.7464 30.464 12.6281 26.5985 12.726 23.0674 12.8154 22.2721 12.8356 21.4937 12.8553 20.7522 12.8948 16.7183 13.1101 15.0564 18.0766 17.5 23L23.5 21.5C23.4448 21.2908 23.3741 21.0618 23.3004 20.8224 23.1763 20.4201 23.0433 19.9886 22.9593 19.5736Z" fill="#FFFFFF" fill-rule="evenodd" clip-rule="evenodd"/><path d="M28.7255 41.2182C29.2389 41.4217 29.4901 42.0029 29.2866 42.5163 29.2034 42.7264 29.2281 42.8249 29.2417 42.8649 29.2613 42.9224 29.317 43.0167 29.4674 43.1338 29.7912 43.3859 30.3192 43.5604 30.7305 43.6234L30.5791 45.6119C30.216 45.6119 29.791 45.7734 29.4265 46.0564 29.1411 46.2779 28.9823 46.5018 28.9108 46.6544 28.9295 46.6695 28.9515 46.686 28.977 46.7037 29.193 46.8529 29.5048 46.9753 29.7239 47.0333 30.2578 47.1746 30.576 47.7219 30.4348 48.2558 30.2935 48.7897 29.7461 49.108 29.2122 48.9667 28.8493 48.8707 28.304 48.6696 27.8402 48.3492 27.4296 48.0655 26.7266 47.4266 26.8953 46.4447 27.0227 45.7026 27.517 45.0449 28.0762 44.5765 27.777 44.3098 27.5013 43.9589 27.3483 43.5089 27.1618 42.9608 27.1932 42.3701 27.4274 41.7794 27.6309 41.2659 28.2121 41.0147 28.7255 41.2182Z" fill="#FFFFFF" fill-rule="evenodd" clip-rule="evenodd"/><path d="M40.5455 40.1073C40.9897 40.6501 41.1734 41.3473 41.1202 42.1419 41.065 42.9656 40.6305 43.5873 40.0897 44.0206 39.5677 44.4388 38.9169 44.7108 38.289 44.8935 37.0299 45.2599 35.5872 45.3447 34.6419 45.318 34.0898 45.3024 33.6549 44.8422 33.6705 44.2902 33.6861 43.7381 34.1463 43.3032 34.6984 43.3188 35.5171 43.342 36.7363 43.2623 37.7303 42.9731 38.2289 42.828 38.6024 42.6495 38.8392 42.4598 39.0571 42.2852 39.1157 42.1416 39.1246 42.0082 39.1516 41.6063 39.0546 41.4436 38.9978 41.3741 38.9269 41.2875 38.7863 41.1888 38.5109 41.1181 37.9225 40.9672 37.145 41.0449 36.5662 41.122 36.3348 41.1529 35.8859 41.342 35.3205 41.6738 34.7943 41.9825 34.293 42.3385 34.0009 42.5655 33.5648 42.9044 32.9366 42.8257 32.5977 42.3896 32.2588 41.9535 32.3375 41.3253 32.7736 40.9864 33.123 40.7148 33.6961 40.308 34.3084 39.9488 34.8816 39.6125 35.6354 39.2284 36.302 39.1396 36.8458 39.0671 37.9925 38.9205 39.0078 39.1808 39.5341 39.3158 40.1152 39.5817 40.5455 40.1073Z" fill="#FFFFFF" fill-rule="evenodd" clip-rule="evenodd"/><path d="M32.4791 38.5775C33.2957 39.4767 33.6638 40.6067 33.7659 41.3892 33.8373 41.9369 33.4512 42.4387 32.9036 42.5102 32.3559 42.5816 31.8541 42.1955 31.7826 41.6479 31.7197 41.1652 31.4772 40.4492 30.9985 39.9222 30.5645 39.4443 29.9004 39.0722 28.7901 39.2305 26.7559 39.5206 25.6832 41.119 25.2942 42.1849 25.3908 42.3357 25.4729 42.4808 25.5376 42.5952 25.5667 42.6468 25.5923 42.6921 25.6142 42.7289 25.7786 43.0059 25.906 43.1658 26.0699 43.2755 26.3781 43.4818 26.7024 43.5343 27.1601 43.4998 27.3898 43.4824 27.6243 43.4458 27.9071 43.4016 27.9227 43.3992 27.9385 43.3967 27.9544 43.3943 28.2421 43.3494 28.5811 43.2976 28.9292 43.2803 29.4808 43.2528 29.9503 43.6777 29.9777 44.2293 30.0052 44.7809 29.5803 45.2503 29.0287 45.2778 28.7992 45.2892 28.5571 45.3244 28.2627 45.3704 28.2414 45.3737 28.2197 45.3771 28.1978 45.3805 27.9334 45.4219 27.6235 45.4705 27.3107 45.4941 26.606 45.5473 25.7753 45.4849 24.9575 44.9375 24.4164 44.5753 24.1038 44.1026 23.8944 43.7499 23.8199 43.6245 23.7624 43.5242 23.7153 43.4421 23.6051 43.2498 23.5518 43.1569 23.4709 43.0724L23.0991 42.6837 23.2186 42.1592C23.5405 40.7453 25.0237 37.7473 28.5078 37.2506 30.3017 36.9948 31.6177 37.6292 32.4791 38.5775Z" fill="#FFFFFF" fill-rule="evenodd" clip-rule="evenodd"/><path d="M27.8543 35.0576C27.2439 35.2393 27.0223 35.4919 26.9477 35.7132 26.7714 36.2366 26.2042 36.518 25.6808 36.3417 25.1574 36.1654 24.8761 35.5982 25.0523 35.0748 25.4175 33.9905 26.3505 33.4185 27.2835 33.1407 28.2185 32.8623 29.3207 32.8202 30.3815 32.9024 31.4545 32.9856 32.5535 33.2014 33.5147 33.4889 34.1871 33.6901 34.8337 33.9386 35.3687 34.2249 35.8304 33.9788 36.4044 33.7414 37.0134 33.6158 37.9021 33.4324 39.0798 33.4527 39.9856 34.3334 40.8499 35.1738 41.2425 36.1231 41.1016 37.0477 41.0238 37.5585 40.7916 37.992 40.4807 38.3242 40.518 38.3682 40.5541 38.4141 40.5891 38.4618 40.9072 38.897 41.0738 39.4293 41.0738 40.0322 41.0738 40.5845 40.626 41.0322 40.0738 41.0322 39.5215 41.0322 39.0738 40.5845 39.0738 40.0322 39.0738 39.8105 39.0179 39.7015 38.9744 39.6421 38.9242 39.5734 38.8355 39.4981 38.6797 39.4315 38.4647 39.3396 38.1956 39.2964 37.9416 39.2882 37.7188 39.3078 37.531 39.3143 37.4039 39.3143L37.2763 37.3225C37.4457 37.3007 37.644 37.2866 37.86 37.2869 37.9363 37.279 38.0174 37.2689 38.1011 37.2565 38.4068 37.2111 38.6885 37.1418 38.8877 37.0546 39.0003 37.0054 39.103 36.8874 39.1244 36.7465 39.1406 36.6404 39.1406 36.3013 38.5914 35.7673 38.3665 35.5487 37.9999 35.4544 37.4176 35.5745 36.8429 35.6931 36.2658 35.9876 35.9267 36.2195L35.3437 36.6181 34.7731 36.202C34.4356 35.9558 33.7948 35.6603 32.9415 35.4051 32.108 35.1557 31.1491 34.9679 30.227 34.8964 29.2928 34.824 28.4627 34.8764 27.8543 35.0576Z" fill="#FFFFFF" fill-rule="evenodd" clip-rule="evenodd"/><path d="M25.1753 28.0303C25.7109 27.8954 26.2543 28.2203 26.3892 28.7559 26.534 29.3313 26.8804 30.2732 27.4271 31.1405 27.9832 32.0227 28.6628 32.6966 29.4219 32.9575 29.9442 33.1371 30.2221 33.706 30.0425 34.2283 29.863 34.7506 29.2941 35.0284 28.7718 34.8489 27.3913 34.3744 26.3994 33.2607 25.7352 32.207 25.0617 31.1386 24.6391 29.9966 24.4497 29.2441 24.3149 28.7086 24.6397 28.1651 25.1753 28.0303Z" fill="#FFFFFF" fill-rule="evenodd" clip-rule="evenodd"/><path d="M22.4661 25.8459C22.8626 26.1456 22.9411 26.71 22.6414 27.1066 22.2536 27.6198 22.3765 28.245 22.9605 28.6034 23.3841 28.8634 23.5168 29.4176 23.2568 29.8412 22.9968 30.2649 22.4426 30.3975 22.019 30.1376 20.6138 29.2752 20.1183 27.4597 21.2054 26.0213 21.5051 25.6248 22.0695 25.5462 22.4661 25.8459Z" fill="#40B4E5" fill-rule="evenodd" clip-rule="evenodd"/><path d="M39.9965 51.5701C40.3892 51.8756 41.2331 51.8583 41.7772 51.2374 42.1048 50.8635 42.6734 50.8261 43.0472 51.1537 43.4211 51.4813 43.4585 52.0499 43.1309 52.4237 42.061 53.6446 40.1531 53.9727 38.891 52.9906 38.4988 52.6854 38.4282 52.1199 38.7335 51.7276 39.0388 51.3353 39.6042 51.2648 39.9965 51.5701Z" fill="#40B4E5" fill-rule="evenodd" clip-rule="evenodd"/><path d="M37.5693 27.6903C37.2414 28.0639 36.6727 28.1009 36.2992 27.7731 35.6637 27.2153 35.2477 26.4561 35.0869 25.6835 34.927 24.9158 35.0052 24.0519 35.4818 23.3433 35.7592 22.9309 36.3184 22.8214 36.7308 23.0989 37.1433 23.3763 37.2527 23.9355 36.9753 24.348 36.8326 24.5601 36.7623 24.8998 36.849 25.3165 36.9348 25.7283 37.1606 26.1342 37.4865 26.4202 37.8601 26.7481 37.8972 27.3168 37.5693 27.6903Z" fill="#40B4E5" fill-rule="evenodd" clip-rule="evenodd"/><path d="M18.242 45.5401C18.3885 45.0651 18.8922 44.7988 19.3672 44.9453 20.0563 45.1577 20.5929 44.7786 20.7008 44.339 20.8193 43.8562 21.3067 43.5609 21.7894 43.6794 22.2721 43.7979 22.5674 44.2853 22.4489 44.768 22.0587 46.3583 20.3666 47.1371 18.8368 46.6653 18.3618 46.5189 18.0955 46.0151 18.242 45.5401Z" fill="#40B4E5" fill-rule="evenodd" clip-rule="evenodd"/><path d="M27.7638 24.8847C28.2186 24.6841 28.7499 24.8901 28.9505 25.3448 29.3246 26.1928 30.1112 26.4548 30.6312 26.2523 31.0943 26.072 31.616 26.3013 31.7964 26.7645 31.9767 27.2277 31.7474 27.7493 31.2842 27.9297 29.6816 28.5536 27.9811 27.6067 27.3037 26.0714 27.1031 25.6166 27.3091 25.0853 27.7638 24.8847Z" fill="#40B4E5" fill-rule="evenodd" clip-rule="evenodd"/><path d="M44.312 32.0419C44.1739 31.5644 44.4491 31.0654 44.9265 30.9274 45.796 30.676 46.7014 30.9279 47.436 31.373 48.1838 31.826 48.8566 32.5342 49.3187 33.3937 49.5541 33.8315 49.39 34.3772 48.9522 34.6126 48.5144 34.848 47.9687 34.6839 47.7333 34.2461 47.415 33.6541 46.9612 33.1899 46.5034 32.9125 46.0324 32.6272 45.6533 32.591 45.4265 32.6565 44.949 32.7946 44.45 32.5194 44.312 32.0419Z" fill="#40B4E5" fill-rule="evenodd" clip-rule="evenodd"/><path d="M17.531 38.6538C17.8206 38.2498 18.3828 38.1569 18.7868 38.4465 19.7188 39.1143 20.8018 38.9772 21.2591 38.4999 21.6029 38.1409 22.1726 38.1287 22.5316 38.4725 22.8905 38.8163 22.9028 39.3861 22.559 39.745 21.3199 41.0385 19.1898 40.9497 17.7383 39.9096 17.3343 39.62 17.2415 39.0578 17.531 38.6538Z" fill="#40B4E5" fill-rule="evenodd" clip-rule="evenodd"/><path d="M44.5276 38.5834C44.821 38.1822 45.3841 38.0949 45.7853 38.3883 46.4125 38.847 46.8742 39.5017 47.1229 40.1959 47.3701 40.8857 47.4311 41.6877 47.1457 42.4206 46.9653 42.8838 46.4436 43.1131 45.9804 42.9327 45.5172 42.7524 45.288 42.2307 45.4683 41.7675 45.5605 41.5309 45.5664 41.1881 45.4284 40.8031 45.292 40.4223 45.0385 40.0722 44.7227 39.8412 44.3215 39.5477 44.2341 38.9846 44.5276 38.5834Z" fill="#40B4E5" fill-rule="evenodd" clip-rule="evenodd"/><path d="M31.9653 20.1357C30.8763 20.3695 29.9626 20.9208 29.4837 21.3303 29.1492 21.6164 28.667 21.6501 28.2959 21.4133 27.4681 20.8852 26.6572 20.8665 25.9383 21.0646 25.1884 21.2712 24.5661 21.7112 24.2487 22.0278 23.9694 22.3064 23.5525 22.3948 23.1842 22.2535 20.9379 21.3915 19.4903 22.5044 19.1003 23.0231 18.8647 23.3365 18.4676 23.4833 18.0847 23.3985 17.4453 23.2568 16.3265 23.3586 15.3699 24.631 14.967 25.1669 14.8495 25.8548 14.9529 26.5847 15.0578 27.3252 15.3778 27.9984 15.6943 28.389 15.9989 28.7648 15.9908 29.3049 15.675 29.6714 14.9417 30.5224 14.8398 31.4808 15.0481 32.4217 15.2634 33.3944 15.8032 34.2761 16.2241 34.7683 16.5287 35.1246 16.5451 35.6446 16.2634 36.0192 15.8763 36.5341 15.7974 37.1642 15.9167 37.8382 16.0379 38.5229 16.3498 39.1469 16.5838 39.4858 16.8124 39.8169 16.8204 40.2527 16.604 40.5919 15.5287 42.2772 16.3365 44.0544 16.923 44.7517 17.2711 45.1656 17.2271 45.7813 16.8236 46.1414 16.399 46.5204 16.2427 47.1102 16.3342 47.8963 16.4255 48.6804 16.7504 49.4683 17.019 49.936 17.2779 50.387 17.148 50.9613 16.72 51.2568 16.7206 51.2564 16.7205 51.2565 16.7197 51.2571 16.7137 51.2621 16.6712 51.2976 16.6142 51.3795 16.5529 51.4677 16.4833 51.5978 16.4295 51.7747 16.3243 52.1206 16.2705 52.6772 16.5035 53.4798 16.6999 54.1559 17.1819 54.6999 17.7878 55.1181 18.3964 55.5381 19.0527 55.7757 19.434 55.8602 19.841 55.9504 20.1494 56.2835 20.2078 56.6962 20.2356 56.8921 20.4716 57.8092 21.1902 59.0607 21.324 59.2937 21.4459 59.4134 21.5295 59.4748 21.5739 59.5074 21.6135 59.528 21.6483 59.5411 21.672 58.1147 21.1079 57.0693 20.8602 56.7636 20.5712 56.4072 20.562 55.8998 20.8377 55.533 21.1883 55.0668 21.2948 54.695 21.3103 54.3958 21.3266 54.0827 21.2477 53.7566 21.083 53.3784 20.9544 53.0833 20.8028 52.8154 20.63 52.51 20.5672 52.3991 20.5017 52.2833 20.4335 52.1594 20.2068 51.748 19.9299 51.2122 19.8474 50.6301 19.8048 50.3293 19.9013 50.0255 20.1095 49.8043 20.7725 49.1002 21.2454 48.1977 21.4155 47.3324 21.5852 46.4688 21.4412 45.7391 21.025 45.2256 20.7539 44.8912 20.7273 44.4209 20.9588 44.058 21.5368 43.1521 21.7236 42.16 21.6944 41.2729 21.6645 40.3638 21.4112 39.6494 21.2128 39.3321 21.0082 39.005 21.01 38.5893 21.2176 38.264 22.3366 36.5101 21.6642 34.6601 21.1937 33.9788 20.9994 33.6975 20.9624 33.3364 21.0954 33.0214 21.6158 31.7895 21.3963 30.2932 21.2189 29.7314 21.0958 29.3417 21.2223 28.9163 21.5383 28.6571 21.8543 28.3979 22.2962 28.3571 22.6543 28.5541 22.8603 28.6673 23.2412 28.6817 23.8452 28.4116 24.414 28.1571 24.9543 27.7451 25.2632 27.451 25.6423 27.09 26.2355 27.0824 26.6237 27.4335 27.0838 27.8498 27.7783 27.94 28.6939 27.7011 29.594 27.4662 30.477 26.9628 30.9997 26.5736 31.3288 26.3285 31.7741 26.3094 32.1231 26.5252 32.7728 26.9272 33.493 26.9519 34.2035 26.7675 34.929 26.5793 35.5594 26.1904 35.8919 25.9108 36.2894 25.5764 36.8766 25.6021 37.2435 25.9698 37.5145 26.2414 38.0331 26.4485 38.7354 26.5442 39.4081 26.6359 40.083 26.6029 40.4755 26.5473 40.8322 26.4968 41.1885 26.642 41.4083 26.9276 41.628 27.2131 41.6771 27.5947 41.5369 27.9266 41.3401 28.3924 41.3711 28.9215 41.5566 29.463 41.7436 30.0088 42.0571 30.4698 42.2642 30.7019 42.5625 31.0361 42.6022 31.528 42.3612 31.9057 41.1875 33.7452 41.7067 35.4307 42.0143 35.9374 42.2265 36.2869 42.2045 36.7304 41.9588 37.0573 40.5517 38.9288 41.0315 40.8376 41.3758 41.4686 41.5636 41.8128 41.5329 42.2351 41.2973 42.5485 40.746 43.2817 40.5743 44.1423 40.6092 44.973 40.6445 45.8145 40.8907 46.5545 41.0842 46.9426 41.2911 47.3577 41.1855 47.8606 40.8291 48.1573 40.4726 48.4541 39.959 48.4668 39.5883 48.1881 39.5889 48.1885 39.5887 48.1885 39.5878 48.1879 39.5821 48.1841 39.5464 48.1607 39.4751 48.1284 39.3971 48.093 39.2904 48.0532 39.1579 48.0196 38.8941 47.9528 38.5384 47.913 38.113 47.9732 38.0278 47.9853 37.8456 48.0477 37.5613 48.2187 37.2925 48.3804 37.0002 48.5973 36.7061 48.8369 36.4139 49.075 36.1391 49.3195 35.8987 49.5341 35.8817 49.5493 35.8643 49.5648 35.8468 49.5805 35.6499 49.7565 35.4241 49.9584 35.2633 50.0694 35.0212 50.2366 34.7178 50.2887 34.4339 50.2119 33.4391 49.9428 32.392 50.1592 31.5747 50.8888 30.7551 51.6203 30.0704 52.961 30.0449 55.0966 30.0269 56.6002 30.7106 57.6555 31.6473 58.4724 32.5046 59.2202 33.5122 59.7179 34.3483 60.131 34.4608 60.1865 34.5702 60.2406 34.6757 60.2935 34.8479 60.3798 34.9915 60.5141 35.0893 60.6802L35.8618 61.9928C36.1419 62.4688 35.9831 63.0817 35.5072 63.3618 35.0312 63.642 34.4183 63.4832 34.1381 63.0072L33.5168 61.9514C33.5041 61.9452 33.4913 61.9389 33.4783 61.9325 32.6566 61.5288 31.402 60.9123 30.3327 59.9797 29.0865 58.8928 28.0182 57.3177 28.045 55.0727 28.0755 52.5224 28.9061 50.5899 30.2428 49.3967 31.4373 48.3305 32.9589 47.9292 34.4267 48.167 34.4659 48.1322 34.5079 48.0947 34.5529 48.0545L34.5669 48.042C34.8056 47.8289 35.1113 47.5564 35.4428 47.2864 35.7724 47.0178 36.147 46.7354 36.5304 46.5049 36.8982 46.2836 37.3533 46.0609 37.8325 45.993 38.1388 45.9496 38.4305 45.9367 38.7044 45.9469 38.6569 45.6631 38.6239 45.3647 38.611 45.0569 38.5692 44.0612 38.7375 42.9157 39.3633 41.8497 38.9074 40.5983 38.6888 38.4732 40.0087 36.3662 39.5696 35.2435 39.3343 33.3984 40.3238 31.445 40.0796 31.0747 39.8385 30.6191 39.6646 30.1113 39.5111 29.6632 39.401 29.1468 39.4027 28.599 39.1021 28.5919 38.7849 28.5695 38.4653 28.5259 37.8581 28.4431 37.1492 28.2717 36.5256 27.9125 36.0296 28.2225 35.4034 28.5224 34.7058 28.7034 33.8054 28.937 32.7289 28.9841 31.6701 28.5363 31.0103 28.9536 30.1336 29.3923 29.1989 29.6363 28.2377 29.8871 27.0596 29.9657 26.0158 29.4269 25.6309 29.7165 25.1647 30.0123 24.6618 30.2373 24.2989 30.3996 23.8619 30.5485 23.3943 30.6063 23.4579 31.4014 23.4176 32.3639 23.1186 33.3082 23.7406 34.4919 24.3129 36.6497 23.196 38.8303 23.4709 39.4752 23.6638 40.3093 23.6933 41.2071 23.7272 42.2391 23.5478 43.4175 22.9742 44.5553 23.5121 45.5385 23.5838 46.6702 23.3779 47.718 23.1666 48.7935 22.6543 49.8505 21.9506 50.7314 22.007 50.859 22.0839 51.0104 22.1851 51.1942 22.2294 51.2746 22.2793 51.3626 22.3326 51.4566 22.5171 51.7822 22.7422 52.1794 22.9165 52.5796 23.1517 53.1193 23.3457 53.7666 23.3077 54.4994 23.2794 55.0446 23.1253 55.5898 22.8271 56.1332 23.3378 57.0645 23.8358 58.6063 23.58 60.4542 23.5415 60.7319 23.3883 60.9807 23.1577 61.1399 22.7749 61.4043 22.1489 61.6443 21.4341 61.5396 20.6642 61.427 19.9635 60.9409 19.4558 60.0566 18.8998 59.0884 18.5625 58.2384 18.3822 57.6358 17.8561 57.4548 17.2393 57.1697 16.6517 56.7641 15.8084 56.182 14.9486 55.2969 14.5829 54.0375 14.0953 52.3583 14.4092 51.0654 14.9501 50.2673 14.6843 49.6669 14.4392 48.9143 14.3476 48.1276 14.2458 47.2525 14.3258 46.2163 14.9026 45.3324 14.2073 44.1375 13.5907 42.1336 14.6052 40.0709 14.3334 39.5595 14.0743 38.9041 13.9473 38.1867 13.8022 37.3669 13.8213 36.4004 14.2592 35.4845 13.7912 34.8011 13.3228 33.8814 13.0954 32.854 12.8311 31.6603 12.8878 30.2736 13.6959 28.9914 13.3492 28.3814 13.0825 27.6404 12.9727 26.8652 12.8179 25.7725 12.9631 24.5042 13.7713 23.4291 15.0299 21.7551 16.6372 21.2744 17.916 21.3602 18.8976 20.4241 20.8085 19.4597 23.3188 20.1899 23.8485 19.7795 24.5684 19.3675 25.4071 19.1364 26.3949 18.8643 27.5644 18.8421 28.7447 19.3844 29.4522 18.9029 30.4261 18.4206 31.5453 18.1802 32.8858 17.8924 34.4635 17.9486 36.01 18.7986 36.7966 18.4852 37.8748 18.2022 39.0621 18.1524 40.4274 18.0951 41.9954 18.3453 43.4219 19.2747 44.0676 19.1871 44.892 19.2137 45.714 19.5069 46.7997 19.8942 47.8388 20.7354 48.4101 22.2561 49.1676 24.2721 49.045 25.8559 48.6011 26.8545 48.9518 27.3944 49.272 28.1707 49.4135 29.1699 49.5974 30.4676 49.2816 31.7184 48.9662 32.5195 49.3043 33.0476 49.6284 33.7437 49.7846 34.5312 49.9873 35.5527 49.909 36.7567 49.1846 37.9009 49.1858 37.9148 49.1869 37.9289 49.1881 37.9432 49.24 38.5838 49.3165 39.5275 49.1548 40.4109 48.975 41.3934 48.4978 42.3832 47.4555 43.084 47.5686 43.8452 47.623 44.8021 47.4323 45.7537 47.2035 46.8951 46.61 48.055 45.3721 48.8121 45.4315 49.2883 45.4601 49.9178 45.2953 50.5268 45.1452 51.0819 44.8423 51.6339 44.3106 52.1057 43.9111 52.4601 43.4079 52.7468 42.7943 52.9645 42.5299 53.9413 42.0718 54.7485 41.3235 55.3225 40.6993 55.8013 39.9523 56.0558 39.1266 56.1703 39.1291 56.6311 39.0969 57.1455 39.0074 57.6628 38.8818 58.3885 38.6247 59.226 38.1005 59.9145L38.8999 61.5639C39.1407 62.0609 38.9331 62.6591 38.4361 62.8999 37.9391 63.1408 37.3409 62.9331 37.1001 62.4361L35.9997 60.1654C35.7971 59.7474 35.9091 59.245 36.2699 58.9525 36.6383 58.6539 36.9046 58.0855 37.0367 57.3218 37.1646 56.5823 37.1363 55.8294 37.0736 55.3867 37.0334 55.1027 37.1171 54.8151 37.3034 54.597 37.4896 54.3789 37.7606 54.2512 38.0474 54.2466 39.1023 54.2293 39.7192 54.0325 40.1063 53.7356 40.4738 53.4536 40.7867 52.9629 40.9634 51.9975 41.0336 51.6138 41.3205 51.3059 41.6983 51.2089 42.3684 51.0368 42.7567 50.8106 42.9834 50.6095 43.2008 50.4166 43.3082 50.2133 43.3647 50.0045 43.4745 49.5989 43.4104 49.2078 43.3353 48.7488 43.3165 48.634 43.297 48.515 43.2793 48.3904 43.215 47.9361 43.4681 47.4963 43.8932 47.3236 44.8745 46.9252 45.3017 46.2066 45.4713 45.3606 45.6507 44.4658 45.5212 43.4791 45.3655 42.7748 45.263 42.3109 45.5011 41.8389 45.9351 41.6456 46.7615 41.2775 47.0658 40.716 47.1875 40.0508 47.2968 39.4539 47.2505 38.8549 47.2019 38.2273 47.1881 38.0478 47.174 37.8658 47.1633 37.681 47.1497 37.4449 47.2202 37.2115 47.3624 37.0225 47.8851 36.3272 47.9574 35.5987 47.8228 34.9204 47.6824 34.2126 47.3193 33.5992 47.0496 33.2786 46.7836 32.9623 46.7395 32.5151 46.9386 32.153 47.1602 31.7501 47.593 30.5779 47.4333 29.4504 47.349 28.8555 47.1869 28.4239 47.0362 28.1371 46.9029 27.8833 46.7921 27.7673 46.7693 27.7434 46.7646 27.7384 46.7636 27.7374 46.7672 27.7401 46.5355 27.5659 46.3908 27.2997 46.3706 27.0105 46.3503 26.7213 46.4566 26.4376 46.6619 26.2328 46.6615 26.2332 46.6616 26.233 46.6622 26.2323 46.6679 26.2256 46.7168 26.1673 46.7752 26.0333 46.8363 25.8932 46.8992 25.6891 46.9328 25.4167 46.9998 24.8755 46.9514 24.0601 46.5379 22.9595 46.185 22.0202 45.6049 21.5914 45.042 21.3906 44.4354 21.1743 43.8034 21.2113 43.4427 21.3039 43.1484 21.3795 42.8358 21.3172 42.593 21.1346 41.5376 20.3411 40.3076 20.1019 39.146 20.1506 37.9736 20.1998 36.9412 20.5414 36.3851 20.8187 36.065 20.9782 35.684 20.9547 35.3859 20.7569 34.2235 19.9855 33.0287 19.9073 31.9653 20.1357Z" fill="#FFFFFF" fill-rule="evenodd" clip-rule="evenodd"/></svg>