<svg width="64" height="64" viewBox="0 0 64 64" xmlns="http://www.w3.org/2000/svg" xmlns:xlink="http://www.w3.org/1999/xlink" fill="none" overflow="hidden"><circle cx="51.9601" cy="35.9386" r="7.36923" stroke="#FFFFFF" stroke-width="2"/><circle cx="51.9601" cy="35.9386" r="3.43077" stroke="#FFFFFF" stroke-width="2"/><path d="M7 34 8.95507 34.7331C18.0105 38.1289 27.9895 38.1289 37.0449 34.7331L39 34" stroke="#40B4E5" stroke-width="2"/><path d="M7.89154 10.86C8.38552 10.613 8.58575 10.0123 8.33876 9.51832 8.09177 9.02434 7.49109 8.82412 6.99712 9.07111L7.89154 10.86ZM2.50679 21.8858 3.45547 21.5696 2.50679 21.8858ZM8.66411 40.3578 7.71543 40.674 8.66411 40.3578ZM16.8319 47.0202 16.7127 48.0131 16.8319 47.0202ZM22.9448 47.7538 22.8257 48.7466 22.9448 48.7609 23.064 48.7466 22.9448 47.7538ZM38.4453 9.96553 38.8925 9.07111 38.4453 9.96553ZM43.3828 21.8858 42.4342 21.5696 43.3828 21.8858ZM37.2255 40.3578 38.1742 40.674 37.2255 40.3578ZM29.0578 47.0202 29.1769 48.0131 29.1769 48.0131 29.0578 47.0202ZM1.5581 22.2021 7.71543 40.674 9.6128 40.0416 3.45547 21.5696 1.5581 22.2021ZM16.7127 48.0131 22.8257 48.7466 23.064 46.7609 16.951 46.0273 16.7127 48.0131ZM7.71543 40.674C9.04237 44.6549 12.5465 47.5131 16.7127 48.0131L16.951 46.0273C13.553 45.6196 10.6951 43.2883 9.6128 40.0416L7.71543 40.674ZM6.99712 9.07111C2.16936 11.485-0.148765 17.0814 1.5581 22.2021L3.45547 21.5696C2.06334 17.3932 3.95401 12.8287 7.89154 10.86L6.99712 9.07111ZM32.8361 8.27895 37.9981 10.86 38.8925 9.07111 33.7305 6.49009 32.8361 8.27895ZM42.4342 21.5696 36.2768 40.0416 38.1742 40.674 44.3315 22.2021 42.4342 21.5696ZM28.9386 46.0273 22.8257 46.7609 23.064 48.7466 29.1769 48.0131 28.9386 46.0273ZM36.2768 40.0416C35.1946 43.2883 32.3366 45.6196 28.9386 46.0273L29.1769 48.0131C33.3432 47.5131 36.8473 44.6549 38.1742 40.674L36.2768 40.0416ZM37.9981 10.86C41.9356 12.8287 43.8263 17.3932 42.4342 21.5696L44.3315 22.2021C46.0384 17.0814 43.7203 11.485 38.8925 9.07111L37.9981 10.86Z" fill="#FFFFFF"/><path d="M23.3516 50.5001C23.5188 51.3023 23.7499 52.1458 24.0559 53.0001 25.7856 57.8284 29.9084 63.0001 38.4036 63.0001 48.4391 63.0001 51.4951 53.5958 51.9401 46.6343" stroke="#FFFFFF" stroke-width="2" stroke-linecap="round"/><circle cx="15.0678" cy="4.92308" r="3.92308" stroke="#FFFFFF" stroke-width="2"/><circle cx="29.837" cy="4.92308" r="3.92308" stroke="#FFFFFF" stroke-width="2"/><circle cx="29.837" cy="4.92308" r="3.92308" stroke="#FFFFFF" stroke-width="2"/></svg>