<svg viewBox="0 0 60.04 55.96" xmlns="http://www.w3.org/2000/svg" xmlns:xlink="http://www.w3.org/1999/xlink" id="Layer_2" overflow="hidden"><defs></defs><g id="AW"><circle cx="12" cy="12" r="5" stroke="#FFFFFF" stroke-width="1.95122" stroke-linejoin="miter" stroke-miterlimit="10" stroke-opacity="1" fill="none"/><line x1="23" y1="12" x2="20" y2="12" stroke="#40B4E5" stroke-width="1.95122" stroke-linecap="round" stroke-linejoin="miter" stroke-miterlimit="10" stroke-opacity="1" fill="none"/><line x1="4" y1="12" x2="1" y2="12" stroke="#40B4E5" stroke-width="1.95122" stroke-linecap="round" stroke-linejoin="miter" stroke-miterlimit="10" stroke-opacity="1" fill="none"/><line x1="19.78" y1="19.78" x2="17.66" y2="17.66" stroke="#40B4E5" stroke-width="1.95122" stroke-linecap="round" stroke-linejoin="miter" stroke-miterlimit="10" stroke-opacity="1" fill="none"/><line x1="6.34" y1="6.34" x2="4.22" y2="4.22" stroke="#40B4E5" stroke-width="1.95122" stroke-linecap="round" stroke-linejoin="miter" stroke-miterlimit="10" stroke-opacity="1" fill="none"/><line x1="12" y1="23" x2="12" y2="20" stroke="#40B4E5" stroke-width="1.95122" stroke-linecap="round" stroke-linejoin="miter" stroke-miterlimit="10" stroke-opacity="1" fill="none"/><line x1="12" y1="4" x2="12" y2="1" stroke="#40B4E5" stroke-width="1.95122" stroke-linecap="round" stroke-linejoin="miter" stroke-miterlimit="10" stroke-opacity="1" fill="none"/><line x1="4.22" y1="19.78" x2="6.34" y2="17.66" stroke="#40B4E5" stroke-width="1.95122" stroke-linecap="round" stroke-linejoin="miter" stroke-miterlimit="10" stroke-opacity="1" fill="none"/><line x1="17.66" y1="6.34" x2="19.78" y2="4.22" stroke="#40B4E5" stroke-width="1.95122" stroke-linecap="round" stroke-linejoin="miter" stroke-miterlimit="10" stroke-opacity="1" fill="none"/><line x1="4.22" y1="19.78" x2="6.34" y2="17.66" stroke="#40B4E5" stroke-width="1.95122" stroke-linecap="round" stroke-linejoin="miter" stroke-miterlimit="10" stroke-opacity="1" fill="none"/><line x1="17.66" y1="6.34" x2="19.78" y2="4.22" stroke="#40B4E5" stroke-width="1.95122" stroke-linecap="round" stroke-linejoin="miter" stroke-miterlimit="10" stroke-opacity="1" fill="none"/><path d="M37.21 41.96 37.21 38.96C37.21 38.96 37.21 36.96 35.2 36.96 33.19 36.96 34.2 36.96 34.2 36.96" stroke="#FFFFFF" stroke-width="1.95122" stroke-linecap="round" stroke-linejoin="miter" stroke-miterlimit="10" stroke-opacity="1" fill="none"/><path d="M8.09 41.96 8.09 38.96C8.09 38.96 8.09 36.96 10.1 36.96 12.11 36.96 30.18 36.96 30.18 36.96" stroke="#FFFFFF" stroke-width="1.95122" stroke-linecap="round" stroke-linejoin="miter" stroke-miterlimit="10" stroke-opacity="1" fill="none"/><path d="M2.06 42.94 41.21 42.94C41.21 42.94 53.64 23.06 53.64 23.06 53.93 22.59 54.55 22.45 55.02 22.74L58.56 24.94C59.03 25.23 59.17 25.85 58.88 26.32L44.63 49.1 38.73 49.1C38.73 49.1 39.89 53.72 39.89 53.72 40.05 54.35 39.57 54.96 38.92 54.96L36.97 54.96C36.51 54.96 36.11 54.65 36 54.2L34.72 49.1 10.64 49.1C10.64 49.1 9.36 54.2 9.36 54.2 9.25 54.65 8.85 54.96 8.39 54.96L6.44 54.96C5.79 54.96 5.31 54.35 5.47 53.72L6.63 49.1 2.06 49.1C1.51 49.1 1.06 48.65 1.06 48.1L1.06 43.94C1.06 43.39 1.51 42.94 2.06 42.94Z" stroke="#FFFFFF" stroke-width="1.95122" stroke-linecap="round" stroke-linejoin="miter" stroke-miterlimit="10" stroke-opacity="1" fill="none"/></g></svg>