<svg width="48" height="48" viewBox="0 0 48 48" fill="none" xmlns="http://www.w3.org/2000/svg">
<circle cx="24" cy="24" r="23.25" transform="matrix(-1 0 0 1 48 0)" stroke="white" stroke-width="1.5"/>
<path fill-rule="evenodd" clip-rule="evenodd" d="M28.5018 16.6895C28.8114 16.4143 29.2854 16.4421 29.5606 16.7517L35.5606 23.5017C35.8132 23.7859 35.8132 24.2141 35.5606 24.4983L29.5606 31.2483C29.2854 31.5579 28.8114 31.5858 28.5018 31.3106C28.1922 31.0354 28.1643 30.5613 28.4395 30.2517L33.9966 24L28.4395 17.7483C28.1643 17.4387 28.1922 16.9646 28.5018 16.6895ZM30.75 24.75L12.75 24.75C12.3358 24.75 12 24.4142 12 24C12 23.5858 12.3358 23.25 12.75 23.25L30.75 23.25C31.1642 23.25 31.5 23.5858 31.5 24C31.5 24.4142 31.1642 24.75 30.75 24.75Z" fill="white"/>
</svg>
