<svg width="24" height="24" viewBox="0 0 24 24" fill="none" xmlns="http://www.w3.org/2000/svg">
<g clip-path="url(#clip0_3931_7053)">
<path fill-rule="evenodd" clip-rule="evenodd" d="M7.49823 19.3106C7.18865 19.5857 6.71459 19.5579 6.4394 19.2483L0.439403 12.4983C0.186811 12.2141 0.186811 11.7859 0.439403 11.5017L6.4394 4.75172C6.71459 4.44213 7.18865 4.41425 7.49823 4.68944C7.80782 4.96462 7.83571 5.43868 7.56052 5.74827L2.00342 12L7.56052 18.2517C7.8357 18.5613 7.80782 19.0354 7.49823 19.3106ZM5.25 11.25L23.25 11.25C23.6642 11.25 24 11.5858 24 12C24 12.4142 23.6642 12.75 23.25 12.75L5.25 12.75C4.83579 12.75 4.5 12.4142 4.5 12C4.5 11.5858 4.83579 11.25 5.25 11.25Z" fill="#EFF7FC"/>
</g>
<defs>
<clipPath id="clip0_3931_7053">
<rect width="24" height="24" fill="white" transform="translate(24 24) rotate(180)"/>
</clipPath>
</defs>
</svg>
