<svg width="64" height="64" viewBox="0 0 64 64" fill="none" xmlns="http://www.w3.org/2000/svg">
<path fill-rule="evenodd" clip-rule="evenodd" d="M8.44434 29.323C9.27296 29.0433 10.0356 28.6197 10.7026 28.0819C12.6077 30.5644 15.6014 32.1644 18.9679 32.1644C23.1954 32.1644 26.8349 29.6415 28.4693 26.0161C33.7442 25.8538 37.9707 21.5172 37.9707 16.1911C37.9707 14.485 37.5369 12.8804 36.774 11.482C37.8249 10.4609 38.596 9.15222 38.961 7.68262C39.1136 8.10731 39.1967 8.5651 39.1967 9.04231C39.1967 9.20771 39.1867 9.37078 39.1673 9.53095C41.5444 10.5086 43.2179 12.8472 43.2179 15.5768C43.2179 17.4179 42.4565 19.0812 41.2314 20.269C41.857 21.4131 42.2126 22.726 42.2126 24.1219C42.2126 28.4796 38.7469 32.0278 34.4215 32.1605C33.0813 35.1268 30.0969 37.1909 26.6304 37.1909C23.8698 37.1909 21.415 35.8819 19.8528 33.8507C18.8189 34.6825 17.5049 35.1803 16.0747 35.1803C12.9851 35.1803 10.4381 32.8574 10.0847 29.8629C9.51881 29.7271 8.97066 29.5458 8.44434 29.323Z" fill="#B4D6F1" fill-opacity="0.5"/>
<path fill-rule="evenodd" clip-rule="evenodd" d="M30.3018 2C29.2168 2 28.2456 2.50529 27.6063 3.30588C27.3154 3.67004 26.8117 3.78505 26.3916 3.58317C25.621 3.21278 24.7592 3.00531 23.847 3.00531C22.0178 3.00531 20.3792 3.84156 19.2842 5.16622C19.0052 5.50383 18.5389 5.62054 18.1337 5.45419C17.4458 5.1718 16.6933 5.01592 15.9027 5.01592C14.6398 5.01592 13.4707 5.41383 12.5073 6.09414C11.6605 6.69211 10.9732 7.50807 10.5256 8.46195C10.2909 8.96193 9.69544 9.17704 9.19547 8.94243C8.69549 8.70781 8.48038 8.11231 8.71499 7.61234C9.31028 6.34376 10.2243 5.25787 11.3536 4.4604C12.6421 3.55056 14.2117 3.01592 15.9027 3.01592C16.708 3.01592 17.4866 3.13725 18.2209 3.36314C19.6577 1.90903 21.6472 1.00531 23.847 1.00531C24.8015 1.00531 25.7181 1.17572 26.5676 1.48835C27.543 0.567342 28.856 0 30.3018 0C32.8385 0 34.9588 1.73976 35.5836 4.08788C37.9095 4.47354 39.68 6.48638 39.7411 8.91282C42.1072 10.1777 43.7149 12.6899 43.7149 15.5769C43.7149 17.4307 43.0514 19.1308 41.9508 20.4442C42.4467 21.569 42.7219 22.8142 42.7219 24.122C42.7219 28.801 39.2011 32.6659 34.6711 33.1199C33.0878 36.1311 29.9509 38.191 26.3296 38.191C23.6196 38.191 21.1788 37.0361 19.4598 35.1932C18.4193 35.8197 17.2022 36.1804 15.9027 36.1804C12.5637 36.1804 9.78789 33.8088 9.10526 30.6578C4.40818 29.217 1 24.8057 1 19.5982C1 17.1472 1.75567 14.8709 3.04549 12.999C3.81823 11.8774 4.78281 10.9008 5.89189 10.1176C6.34304 9.79903 6.96701 9.90651 7.28558 10.3577C7.60415 10.8088 7.49668 11.4328 7.04553 11.7513C6.12983 12.398 5.33199 13.2055 4.69241 14.1337C3.6261 15.6813 3 17.5637 3 19.5982C3 24.1127 6.08637 27.8869 10.2217 28.8912C10.6284 28.99 10.9306 29.3315 10.979 29.7472C11.2711 32.2533 13.3738 34.1804 15.9027 34.1804C17.076 34.1804 18.1529 33.768 19.0033 33.0754C19.2134 32.9043 19.4841 32.8257 19.7533 32.8579C20.0224 32.89 20.267 33.03 20.431 33.2459C21.795 35.0412 23.9314 36.191 26.3296 36.191C29.3397 36.191 31.9414 34.3771 33.1126 31.7531C33.2688 31.403 33.6115 31.173 33.9947 31.1611C37.7181 31.0454 40.7219 27.9489 40.7219 24.122C40.7219 22.8957 40.4136 21.7457 39.8727 20.7443C39.6609 20.3523 39.7341 19.8675 40.0521 19.5554C41.0772 18.5493 41.7149 17.1406 41.7149 15.5769C41.7149 13.2595 40.3123 11.2799 38.3293 10.4543C37.9162 10.2822 37.6676 9.85667 37.7208 9.4123C37.7352 9.29146 37.7427 9.16806 37.7427 9.04245C37.7427 7.36283 36.4014 6.02212 34.7722 6.02123C34.7716 6.02123 34.7711 6.02123 34.7705 6.02123L34.7468 6.02132C34.2352 6.02311 33.8047 5.63845 33.7492 5.12985C33.5559 3.35978 32.0764 2 30.3018 2Z" fill="white"/>
<path fill-rule="evenodd" clip-rule="evenodd" d="M28.0122 31.7982C29.4061 31.7982 30.536 30.6683 30.536 29.2744C30.536 27.8805 29.4061 26.7505 28.0122 26.7505C26.6183 26.7505 25.4883 27.8805 25.4883 29.2744C25.4883 30.6683 26.6183 31.7982 28.0122 31.7982ZM28.0122 33.7982C30.5106 33.7982 32.536 31.7728 32.536 29.2744C32.536 26.7759 30.5106 24.7505 28.0122 24.7505C25.5137 24.7505 23.4883 26.7759 23.4883 29.2744C23.4883 31.7728 25.5137 33.7982 28.0122 33.7982Z" fill="#40B4E5"/>
<path fill-rule="evenodd" clip-rule="evenodd" d="M8.7856 21.6195C10.1795 21.6195 11.3095 20.4896 11.3095 19.0957C11.3095 17.7018 10.1795 16.5718 8.7856 16.5718C7.3917 16.5718 6.26172 17.7018 6.26172 19.0957C6.26172 20.4896 7.3917 21.6195 8.7856 21.6195ZM8.7856 23.6195C11.2841 23.6195 13.3095 21.5941 13.3095 19.0957C13.3095 16.5972 11.2841 14.5718 8.7856 14.5718C6.28713 14.5718 4.26172 16.5972 4.26172 19.0957C4.26172 21.5941 6.28713 23.6195 8.7856 23.6195Z" fill="#40B4E5"/>
<path fill-rule="evenodd" clip-rule="evenodd" d="M21.227 20.4882C22.6209 20.4882 23.7509 19.3582 23.7509 17.9643C23.7509 16.5704 22.6209 15.4404 21.227 15.4404C19.8331 15.4404 18.7031 16.5704 18.7031 17.9643C18.7031 19.3582 19.8331 20.4882 21.227 20.4882ZM21.227 22.4882C23.7255 22.4882 25.7509 20.4628 25.7509 17.9643C25.7509 15.4658 23.7255 13.4404 21.227 13.4404C18.7285 13.4404 16.7031 15.4658 16.7031 17.9643C16.7031 20.4628 18.7285 22.4882 21.227 22.4882Z" fill="#40B4E5"/>
<path fill-rule="evenodd" clip-rule="evenodd" d="M30.2739 12.5717C31.6678 12.5717 32.7978 11.4417 32.7978 10.0478C32.7978 8.6539 31.6678 7.52393 30.2739 7.52393C28.88 7.52393 27.75 8.6539 27.75 10.0478C27.75 11.4417 28.88 12.5717 30.2739 12.5717ZM30.2739 14.5717C32.7723 14.5717 34.7978 12.5463 34.7978 10.0478C34.7978 7.54934 32.7723 5.52393 30.2739 5.52393C27.7754 5.52393 25.75 7.54934 25.75 10.0478C25.75 12.5463 27.7754 14.5717 30.2739 14.5717Z" fill="#40B4E5"/>
<path fill-rule="evenodd" clip-rule="evenodd" d="M34.7983 23.8813C36.1922 23.8813 37.3222 22.7513 37.3222 21.3574C37.3222 19.9635 36.1922 18.8335 34.7983 18.8335C33.4044 18.8335 32.2744 19.9635 32.2744 21.3574C32.2744 22.7513 33.4044 23.8813 34.7983 23.8813ZM34.7983 25.8813C37.2968 25.8813 39.3222 23.8558 39.3222 21.3574C39.3222 18.8589 37.2968 16.8335 34.7983 16.8335C32.2998 16.8335 30.2744 18.8589 30.2744 21.3574C30.2744 23.8558 32.2998 25.8813 34.7983 25.8813Z" fill="#40B4E5"/>
<path fill-rule="evenodd" clip-rule="evenodd" d="M34.417 56.4659C35.0742 56.2441 35.6791 55.9081 36.2082 55.4815C37.7193 57.4507 40.0939 58.7197 42.7642 58.7197C46.1174 58.7197 49.0043 56.7186 50.3007 53.8429C54.4848 53.7142 57.8372 50.2744 57.8372 46.0498C57.8372 44.6965 57.4932 43.4237 56.888 42.3145C57.7216 41.5046 58.3333 40.4665 58.6228 39.3008C58.7438 39.6377 58.8098 40.0008 58.8098 40.3794C58.8098 40.5106 58.8018 40.64 58.7865 40.767C60.6719 41.5424 61.9994 43.3975 61.9994 45.5625C61.9994 47.0229 61.3954 48.3422 60.4236 49.2843C60.9199 50.1919 61.202 51.2332 61.202 52.3405C61.202 55.7969 58.453 58.6113 55.0221 58.7167C53.959 61.0695 51.5918 62.7067 48.8422 62.7067C46.6525 62.7067 44.7054 61.6684 43.4662 60.0573C42.6461 60.7171 41.6039 61.1119 40.4694 61.1119C38.0188 61.1119 35.9984 59.2694 35.7182 56.8942C35.2693 56.7865 34.8345 56.6427 34.417 56.4659Z" fill="#B4D6F1" fill-opacity="0.5"/>
<path fill-rule="evenodd" clip-rule="evenodd" d="M51.7547 35C50.9601 35 50.248 35.3696 49.7781 35.9581C49.4873 36.3222 48.9835 36.4372 48.5635 36.2354C47.9796 35.9547 47.3265 35.7974 46.6347 35.7974C45.2486 35.7974 44.0062 36.4308 43.1749 37.4364C42.8958 37.774 42.4296 37.8907 42.0244 37.7244C41.5032 37.5104 40.933 37.3922 40.3332 37.3922C39.3758 37.3922 38.4899 37.6937 37.7593 38.2096C37.1168 38.6633 36.5951 39.2826 36.2553 40.0067C36.0207 40.5066 35.4252 40.7218 34.9253 40.4871C34.4253 40.2525 34.2102 39.657 34.4448 39.1571C34.9322 38.1183 35.6807 37.229 36.6057 36.5759C37.6613 35.8304 38.9477 35.3922 40.3332 35.3922C40.9495 35.3922 41.5468 35.479 42.1134 35.6413C43.2827 34.502 44.8765 33.7974 46.6347 33.7974C47.3722 33.7974 48.0823 33.9216 48.7447 34.1507C49.5445 33.4366 50.5983 33 51.7547 33C53.8181 33 55.548 34.3839 56.1082 36.269C57.9484 36.6352 59.3414 38.2271 59.4439 40.1513C61.3289 41.2069 62.6007 43.2369 62.6007 45.5624C62.6007 47.0369 62.0888 48.3934 61.2343 49.457C61.6071 50.3439 61.813 51.3189 61.813 52.3404C61.813 56.1189 58.9976 59.2498 55.3512 59.6714C54.0453 62.0712 51.5177 63.7067 48.6039 63.7067C46.4535 63.7067 44.5114 62.8146 43.1177 61.3829C42.2938 61.8468 41.3437 62.1119 40.3332 62.1119C37.6256 62.1119 35.3705 60.2184 34.7663 57.6863C31.014 56.4811 28.3057 52.9321 28.3057 48.7521C28.3057 46.7649 28.9185 44.9186 29.9647 43.4002C30.5914 42.4907 31.3737 41.6985 32.2734 41.0631C32.7246 40.7446 33.3485 40.8521 33.6671 41.3032C33.9857 41.7543 33.8782 42.3783 33.4271 42.6969C32.7207 43.1957 32.1051 43.8187 31.6116 44.535C30.7889 45.729 30.3057 47.1814 30.3057 48.7521C30.3057 52.237 32.6879 55.1481 35.8759 55.9223C36.2826 56.0211 36.5848 56.3627 36.6332 56.7783C36.8531 58.6651 38.4355 60.1119 40.3332 60.1119C41.2144 60.1119 42.0229 59.8024 42.662 59.2819C42.8722 59.1107 43.1429 59.0322 43.4121 59.0643C43.6812 59.0964 43.9258 59.2365 44.0898 59.4523C45.1347 60.8276 46.7696 61.7067 48.6039 61.7067C50.9059 61.7067 52.8979 60.3197 53.7953 58.309C53.9515 57.9589 54.2942 57.729 54.6774 57.7171C57.5172 57.6288 59.813 55.2661 59.813 52.3404C59.813 51.4027 59.5774 50.5243 59.1643 49.7595C58.9526 49.3674 59.0257 48.8826 59.3437 48.5705C60.1186 47.8101 60.6007 46.7453 60.6007 45.5624C60.6007 43.8094 59.54 42.3135 58.0426 41.69C57.6294 41.518 57.3809 41.0924 57.434 40.6481C57.4445 40.5603 57.45 40.4707 57.45 40.3793C57.45 39.1589 56.4764 38.1905 55.3008 38.1896C55.3003 38.1896 55.2998 38.1896 55.2992 38.1896L55.2811 38.1897C54.7695 38.1915 54.339 37.8068 54.2835 37.2982C54.1413 35.9959 53.0536 35 51.7547 35Z" fill="white"/>
<path fill-rule="evenodd" clip-rule="evenodd" d="M49.5 57C50.3284 57 51 56.3284 51 55.5C51 54.6716 50.3284 54 49.5 54C48.6716 54 48 54.6716 48 55.5C48 56.3284 48.6716 57 49.5 57ZM49.5 59C51.433 59 53 57.433 53 55.5C53 53.567 51.433 52 49.5 52C47.567 52 46 53.567 46 55.5C46 57.433 47.567 59 49.5 59Z" fill="#40B4E5"/>
<path fill-rule="evenodd" clip-rule="evenodd" d="M35 50C35.5523 50 36 49.5523 36 49C36 48.4477 35.5523 48 35 48C34.4477 48 34 48.4477 34 49C34 49.5523 34.4477 50 35 50ZM35 52C36.6569 52 38 50.6569 38 49C38 47.3431 36.6569 46 35 46C33.3431 46 32 47.3431 32 49C32 50.6569 33.3431 52 35 52Z" fill="#40B4E5"/>
<path fill-rule="evenodd" clip-rule="evenodd" d="M45 49C45.5523 49 46 48.5523 46 48C46 47.4477 45.5523 47 45 47C44.4477 47 44 47.4477 44 48C44 48.5523 44.4477 49 45 49ZM45 51C46.6569 51 48 49.6569 48 48C48 46.3431 46.6569 45 45 45C43.3431 45 42 46.3431 42 48C42 49.6569 43.3431 51 45 51Z" fill="#40B4E5"/>
<path fill-rule="evenodd" clip-rule="evenodd" d="M52 43C52.5523 43 53 42.5523 53 42C53 41.4477 52.5523 41 52 41C51.4477 41 51 41.4477 51 42C51 42.5523 51.4477 43 52 43ZM52 45C53.6569 45 55 43.6569 55 42C55 40.3431 53.6569 39 52 39C50.3431 39 49 40.3431 49 42C49 43.6569 50.3431 45 52 45Z" fill="#40B4E5"/>
<path fill-rule="evenodd" clip-rule="evenodd" d="M56 52C56.5523 52 57 51.5523 57 51C57 50.4477 56.5523 50 56 50C55.4477 50 55 50.4477 55 51C55 51.5523 55.4477 52 56 52ZM56 54C57.6569 54 59 52.6569 59 51C59 49.3431 57.6569 48 56 48C54.3431 48 53 49.3431 53 51C53 52.6569 54.3431 54 56 54Z" fill="#40B4E5"/>
</svg>
