<svg width="24" height="25" viewBox="0 0 24 25" fill="none" xmlns="http://www.w3.org/2000/svg">
<path fill-rule="evenodd" clip-rule="evenodd" d="M16.5018 5.18945C16.8114 4.91426 17.2854 4.94215 17.5606 5.25174L23.5606 12.0017C23.8132 12.2859 23.8132 12.7141 23.5606 12.9983L17.5606 19.7483C17.2854 20.0579 16.8114 20.0858 16.5018 19.8106C16.1922 19.5354 16.1643 19.0613 16.4395 18.7517L21.9966 12.5L16.4395 6.24828C16.1643 5.93869 16.1922 5.46464 16.5018 5.18945ZM18.75 13.25L0.75 13.25C0.335786 13.25 0 12.9142 0 12.5C0 12.0858 0.335786 11.75 0.75 11.75L18.75 11.75C19.1642 11.75 19.5 12.0858 19.5 12.5C19.5 12.9142 19.1642 13.25 18.75 13.25Z" fill="white"/>
</svg>
