<svg width="79" height="66" viewBox="0 0 79 66" fill="none" xmlns="http://www.w3.org/2000/svg">
<g id="New" clip-path="url(#clip0_5510_10309)">
<path id="Vector" d="M38.0875 65.7498C37.4 65.7498 36.8375 65.1873 36.8375 64.4998C36.8375 61.5373 36.8375 58.8873 36.8125 56.4998C36.8125 55.8123 37.3625 55.2498 38.05 55.2373C38.7875 55.2373 39.3 55.7873 39.3125 56.4748C39.3375 58.8623 39.3375 61.5373 39.3375 64.4998C39.3375 65.1873 38.775 65.7498 38.0875 65.7498Z" fill="#40B4E5"/>
<path id="Vector_2" d="M48.7749 34.5499C48.2499 34.5499 47.7624 34.2249 47.5874 33.6999C47.3624 33.0499 47.7124 32.3374 48.3749 32.1124C54.5374 30.0374 67.1749 22.0499 74.8749 9.47491C75.6999 8.12491 76.5499 6.28741 75.8624 5.17491C74.0249 2.14991 62.8499 2.96241 52.9874 3.67491C48.0374 4.03741 42.9249 4.39991 38.3499 4.39991C33.7749 4.39991 29.1374 4.09991 24.5374 3.79991C15.3124 3.21241 4.8499 2.53741 3.0249 5.41241C2.4874 6.26241 2.7374 7.64991 3.7624 9.49991C11.0499 22.6249 22.6624 28.3499 31.9624 31.8749C32.6124 32.1249 32.9374 32.8374 32.6874 33.4874C32.4374 34.1374 31.7249 34.4624 31.0749 34.2124C21.3749 30.5374 9.2499 24.5374 1.5749 10.7124C0.0749023 7.99991 -0.150098 5.76241 0.912402 4.07491C3.5249 -0.0500913 12.8624 0.549909 24.6999 1.31241C29.2624 1.59991 33.9749 1.91241 38.3499 1.91241C42.7249 1.91241 47.8999 1.54991 52.8124 1.18741C64.9124 0.312409 75.3624 -0.450091 77.9999 3.87491C79.0874 5.66241 78.7624 7.91241 76.9999 10.7874C68.9624 23.9249 55.6624 32.2999 49.1749 34.4874C49.0374 34.5374 48.9124 34.5499 48.7749 34.5499Z" fill="#40B4E5"/>
<path id="Vector_3" d="M41.825 65.7498C41.1375 65.7498 40.575 65.1873 40.575 64.4998C40.575 61.5373 40.575 58.8623 40.6 56.4748C40.6 55.7873 41.1875 55.2748 41.8625 55.2373C42.55 55.2373 43.1125 55.8123 43.1 56.4998C43.075 58.8873 43.0749 61.5373 43.0749 64.4998C43.0749 65.1873 42.5125 65.7498 41.825 65.7498Z" fill="#40B4E5"/>
<path id="Vector_4" d="M38.0251 54.0875C37.3376 54.0875 36.7876 53.5375 36.7751 52.85C36.6001 37.95 36.2126 37.0875 35.4251 36.7L35.3001 36.6375C34.6876 36.325 34.4376 35.575 34.7626 34.95C35.0751 34.3375 35.8376 34.0875 36.4501 34.4125L36.5501 34.4625C38.7126 35.55 39.0751 36.2125 39.2751 52.8125C39.2751 53.5 38.7251 54.0625 38.0376 54.075H38.0251V54.0875Z" fill="#40B4E5"/>
<path id="Vector_5" d="M41.875 54.0998H41.8625C41.175 54.0998 40.625 53.5248 40.625 52.8373C40.8375 35.7998 41.0875 35.1373 43.3 34.3748C43.95 34.1498 44.7 34.4748 44.925 35.1248C45.15 35.7748 44.8375 36.4748 44.1875 36.7123C44.05 36.7623 43.975 36.7748 43.9125 36.8123C43.3625 37.5998 43.2125 45.1873 43.1125 52.8748C43.1125 53.5623 42.55 54.1123 41.8625 54.1123L41.875 54.0998Z" fill="#40B4E5"/>
<path id="Vector_6" d="M40.1126 56.9623C35.2501 56.9623 30.8001 54.4873 28.1501 50.2873C24.4751 44.4498 23.5251 39.7998 25.3626 36.4873C27.2876 33.0123 32.0626 31.2373 39.5751 31.2373C44.5001 31.2373 51.3251 31.7373 53.8876 36.0248C55.8001 39.2248 55.0501 43.8623 51.6251 50.2123C49.4251 54.2748 45.3001 56.7998 40.6001 56.9498C40.4376 56.9498 40.2751 56.9498 40.1251 56.9498L40.1126 56.9623ZM39.5751 33.7373C33.1376 33.7373 28.9751 35.0998 27.5501 37.6873C26.2001 40.1373 27.1126 43.9248 30.2751 48.9373C32.5376 52.5248 36.3751 54.5498 40.5251 54.4373C44.3251 54.3123 47.6626 52.2748 49.4376 48.9998C52.3751 43.5748 53.1501 39.6373 51.7501 37.2873C50.3251 34.8873 46.3376 33.7248 39.5876 33.7248L39.5751 33.7373Z" fill="white"/>
</g>
<defs>
<clipPath id="clip0_5510_10309">
<rect width="78.375" height="65.25" fill="white" transform="translate(0.25 0.5)"/>
</clipPath>
</defs>
</svg>
