<svg width="48" height="48" viewBox="0 0 48 48" fill="none" xmlns="http://www.w3.org/2000/svg">
<g clip-path="url(#clip0_4934_40336)">
<path d="M25.9197 44.7223C26.5572 44.3548 27.1647 43.0348 27.6597 38.9698C28.2597 34.0498 27.5322 32.9848 27.5322 31.9348C27.5322 30.8848 28.7397 26.5948 31.1247 24.1273C31.4022 23.8348 31.6572 23.5498 31.8822 23.2723C32.4747 22.4473 33.0297 21.6073 33.5097 20.6998C34.2297 19.4473 35.1447 18.5398 36.7797 18.2923C39.8097 17.8348 40.6422 14.3923 41.2872 9.3223C41.6172 6.7273 42.5322 6.3673 42.7722 6.3673C43.3722 6.3673 42.7497 8.2948 42.7497 9.3073C42.7497 9.3073 43.1772 8.8423 44.4072 9.1573C45.6972 9.4798 47.1672 11.5273 47.1672 11.5273C46.4322 10.2973 46.4322 4.3498 43.3422 3.8173C39.9822 3.2398 39.0597 7.1773 38.0922 13.1473C37.7022 15.5248 37.0647 16.6123 34.4322 16.4173C31.8147 16.2223 30.6147 11.8423 23.9622 11.8423C17.3097 11.8423 16.1097 16.2223 13.4922 16.4173C16.6872 16.9948 21.1947 11.5948 26.7297 15.7873C33.8547 21.1873 24.1347 27.8773 25.0872 32.6023C26.3172 38.6848 25.9197 42.9673 25.9197 44.7223Z" fill="#B4D6F1" fill-opacity="0.5"/>
<path d="M37.1849 23.3925C35.7299 23.3925 34.4024 22.98 33.6374 22.74C33.4049 22.665 33.2324 22.605 33.1274 22.59C32.7149 22.53 32.4374 22.1475 32.4974 21.735C32.5574 21.3225 32.9399 21.045 33.3524 21.105C33.5399 21.135 33.7724 21.2025 34.0874 21.3075C36.5849 22.0875 39.3524 22.5075 40.9874 19.695C41.8499 18.21 43.3874 16.965 44.3024 16.2225C44.5049 16.0575 44.6774 15.9225 44.8049 15.81C45.9074 14.8425 46.0574 13.425 45.8324 12.42C45.6674 11.7 45.2999 11.145 44.9099 11.0325C44.1299 10.8075 43.4699 11.265 43.0574 11.685C42.2174 12.54 41.7299 13.98 41.9924 14.82C42.4949 16.485 40.9424 18.585 40.2524 19.41C38.8349 21.0975 38.0324 21.285 34.9049 20.6775C34.4999 20.595 34.2299 20.205 34.3124 19.8C34.3949 19.395 34.7849 19.1325 35.1899 19.2075C38.0024 19.755 38.1674 19.5525 39.0974 18.45C40.1624 17.1825 40.7474 15.9 40.5524 15.2625C40.1249 13.89 40.7399 11.9025 41.9774 10.635C42.9524 9.64503 44.1674 9.26253 45.3149 9.59253C46.2599 9.86253 46.9949 10.8 47.2799 12.0975C47.6024 13.515 47.3699 15.5325 45.7799 16.9425C45.6374 17.0625 45.4499 17.22 45.2324 17.4C44.3924 18.0825 42.9899 19.215 42.2624 20.4675C40.9049 22.7925 38.9399 23.415 37.1624 23.415L37.1849 23.3925Z" fill="#40B4E5"/>
<path d="M10.7104 23.3926C8.93286 23.3926 6.96036 22.7701 5.61036 20.4451C4.88286 19.2001 3.48036 18.0601 2.64036 17.3776C2.42286 17.1976 2.22786 17.0476 2.09286 16.9201C0.502856 15.5176 0.277856 13.5001 0.592856 12.0751C0.885356 10.7776 1.62036 9.84757 2.55786 9.57007C3.70536 9.24007 4.92036 9.62257 5.89536 10.6126C7.13286 11.8801 7.74786 13.8676 7.32036 15.2401C7.12536 15.8701 7.71036 17.1526 8.77536 18.4201C9.88536 19.7326 10.4779 19.6126 12.2554 19.2601L12.6829 19.1776C13.0879 19.0951 13.4854 19.3651 13.5604 19.7701C13.6354 20.1751 13.3729 20.5726 12.9679 20.6476L12.5479 20.7301C10.6654 21.1051 9.30786 21.3751 7.62786 19.3801C6.93786 18.5551 5.37786 16.4551 5.88786 14.7901C6.15036 13.9426 5.66286 12.5026 4.82286 11.6476C4.41036 11.2276 3.75036 10.7701 2.97036 10.9951C2.58036 11.1076 2.21286 11.6626 2.05536 12.3826C1.83036 13.3801 1.98036 14.7976 3.08286 15.7726C3.21036 15.8851 3.38286 16.0276 3.58536 16.1851C4.50036 16.9276 6.03786 18.1726 6.90036 19.6576C8.54286 22.4701 11.3104 22.0501 13.8004 21.2701C14.1229 21.1726 14.3554 21.0976 14.5429 21.0676C14.9479 21.0076 15.3379 21.2851 15.3979 21.6976C15.4579 22.1101 15.1804 22.4926 14.7679 22.5526C14.6629 22.5676 14.4829 22.6276 14.2504 22.7026C13.4929 22.9426 12.1579 23.3551 10.7029 23.3551L10.7104 23.3926Z" fill="#40B4E5"/>
<path d="M45.6301 11.8874C45.5326 11.8874 45.4351 11.8649 45.3376 11.8274C44.7151 11.5649 44.6101 10.4699 44.6326 9.59242C44.6401 9.18742 44.9776 8.85742 45.3826 8.85742H45.3976C45.8101 8.86492 46.1401 9.20992 46.1326 9.62242C46.1251 10.0349 46.1851 10.4924 46.2301 10.6799C46.3876 10.8824 46.4251 11.1674 46.3201 11.4224C46.2001 11.7074 45.9226 11.8799 45.6301 11.8799V11.8874Z" fill="#065BAA"/>
<path d="M44.2426 11.7452C43.9576 11.7452 43.6951 11.5877 43.5601 11.3177C43.3051 10.7852 43.3201 10.2452 43.3201 9.84767C43.3201 9.71267 43.3201 9.50267 43.3051 9.44267C43.1176 9.07517 43.2601 8.63267 43.6276 8.44517C43.9951 8.25767 44.4526 8.40767 44.6401 8.77517C44.8276 9.13517 44.8201 9.51017 44.8126 9.87767C44.8126 10.1777 44.8051 10.4627 44.9026 10.6802C45.0826 11.0552 44.9176 11.5052 44.5426 11.6777C44.4376 11.7302 44.3326 11.7527 44.2201 11.7527L44.2426 11.7452Z" fill="#065BAA"/>
<path d="M25.9199 45.4725C25.6574 45.4725 25.4099 45.3375 25.2674 45.0975C25.0574 44.7375 25.1849 44.28 25.5449 44.07C25.7849 43.935 26.3924 43.1475 26.9174 38.88C27.3449 35.37 27.0824 33.93 26.9174 32.97C26.8499 32.595 26.7899 32.28 26.7899 31.935C26.7899 30.6225 28.0874 26.205 30.5924 23.61C30.8474 23.34 31.0949 23.07 31.3049 22.8075C31.9499 21.9075 32.4524 21.12 32.8499 20.355C33.5099 19.2075 34.5224 17.88 36.6674 17.5575C39.0824 17.19 39.8924 14.3475 40.5449 9.2325C40.9799 5.7975 42.4799 5.625 42.7724 5.625C43.0874 5.625 43.3649 5.7525 43.5599 5.985C43.9724 6.4875 43.8374 7.2225 43.6574 8.145C43.5749 8.565 43.4924 9 43.4924 9.3075C43.4924 9.72 43.1549 10.0575 42.7424 10.0575C42.3899 10.0575 42.0974 9.8175 42.0149 9.4875C41.3924 14.385 40.5599 18.48 36.8849 19.035C35.6699 19.2225 34.8824 19.8075 34.1549 21.075C33.7349 21.8775 33.1949 22.7175 32.4899 23.7075C32.2274 24.0375 31.9574 24.33 31.6649 24.645C29.4749 26.91 28.2749 30.99 28.2749 31.935C28.2749 32.145 28.3199 32.3775 28.3799 32.7075C28.5599 33.69 28.8524 35.325 28.4024 39.0675C27.8474 43.6125 27.1574 44.88 26.2949 45.3825C26.1749 45.45 26.0474 45.48 25.9199 45.48V45.4725Z" fill="#065BAA"/>
<path d="M21.2922 26.9252C21.2922 26.9252 21.2247 26.9252 21.1872 26.9252C17.6697 26.4377 16.3572 24.9977 15.1197 23.2952C14.8722 22.9577 14.9472 22.4927 15.2847 22.2452C15.6222 21.9977 16.0872 22.0727 16.3347 22.4102C17.4447 23.9252 18.4572 25.0352 21.3972 25.4402C21.8097 25.5002 22.0947 25.8752 22.0347 26.2877C21.9822 26.6627 21.6597 26.9327 21.2922 26.9327V26.9252Z" fill="#065BAA"/>
<path d="M34.9878 17.1751C34.7928 17.1751 34.5828 17.1676 34.3728 17.1526C33.1503 17.0626 32.2203 16.2751 31.2378 15.4501C29.7228 14.1751 27.8403 12.5851 23.9553 12.5851C20.0703 12.5851 18.1878 14.1751 16.6728 15.4501C15.6903 16.2826 14.7603 17.0626 13.5378 17.1526C10.3878 17.3851 9.51775 15.9001 9.08275 13.2526C8.46025 9.41259 7.77775 5.88759 6.31525 4.83759C5.87275 4.52259 5.36275 4.42509 4.70275 4.53759C3.00775 4.83009 2.41525 7.7401 2.02525 9.66759C1.82275 10.6501 1.66525 11.4301 1.38775 11.8951C1.17775 12.2476 0.712753 12.3676 0.360253 12.1576C0.00775348 11.9476 -0.112247 11.4826 0.0977535 11.1301C0.240253 10.8826 0.405253 10.0801 0.547754 9.37509C1.02775 7.0501 1.74025 3.53259 4.44775 3.06759C5.49775 2.88759 6.42025 3.06759 7.18525 3.62259C9.12775 5.01009 9.84025 8.54259 10.5603 13.0126C10.9203 15.1951 11.3403 15.8101 13.4253 15.6526C14.1603 15.6001 14.8428 15.0226 15.7053 14.2951C17.3178 12.9376 19.5153 11.0701 23.9553 11.0701C28.3953 11.0701 30.5928 12.9301 32.2052 14.2876C33.0678 15.0151 33.7428 15.5851 34.4853 15.6451C36.5778 15.8026 36.9902 15.1876 37.3503 12.9976C38.0703 8.52759 38.7827 5.00259 40.7253 3.60759C41.4902 3.06009 42.4128 2.86509 43.4628 3.04509C46.1777 3.51009 46.8903 7.03509 47.3628 9.36759C47.5053 10.0726 47.6628 10.8676 47.8128 11.1151C48.0228 11.4751 47.9028 11.9326 47.5428 12.1426C47.1828 12.3526 46.7253 12.2326 46.5153 11.8726C46.2453 11.4076 46.0877 10.6426 45.8927 9.6601C45.5028 7.72509 44.9103 4.80759 43.2153 4.51509C42.5553 4.40259 42.0452 4.5001 41.5952 4.81509C40.1253 5.86509 39.4503 9.39009 38.8278 13.2226C38.4228 15.6901 37.6428 17.1451 34.9878 17.1451V17.1751Z" fill="#065BAA"/>
<path d="M2.27262 11.8873C1.98012 11.8873 1.70262 11.7148 1.58262 11.4298C1.47762 11.1748 1.52262 10.8973 1.67262 10.6873C1.71762 10.5073 1.78512 10.0423 1.77012 9.62983C1.76262 9.21733 2.08512 8.87233 2.49762 8.86483C2.92511 8.84233 3.25512 9.17983 3.26262 9.59233C3.28512 10.4698 3.18012 11.5648 2.55762 11.8273C2.46012 11.8648 2.36262 11.8873 2.26512 11.8873H2.27262Z" fill="#065BAA"/>
<path d="M3.65267 11.7448C3.54767 11.7448 3.43517 11.7223 3.33017 11.6698C2.95517 11.4898 2.79767 11.0473 2.97017 10.6723C3.07517 10.4548 3.06767 10.1698 3.06017 9.86979C3.06017 9.50229 3.04517 9.12729 3.23267 8.76729C3.42017 8.39979 3.87767 8.25729 4.24517 8.44479C4.60517 8.63229 4.75517 9.07479 4.57517 9.44229C4.56017 9.50979 4.56017 9.71229 4.56017 9.84729C4.56017 10.2448 4.57517 10.7848 4.32017 11.3173C4.19267 11.5873 3.92267 11.7448 3.64517 11.7448H3.65267Z" fill="#065BAA"/>
<path d="M21.9901 45.4724C21.8626 45.4724 21.7351 45.4424 21.6151 45.3749C20.8651 44.9399 20.0926 43.8824 19.5076 39.0599C19.0501 35.3249 19.3501 33.6824 19.5301 32.6999C19.5901 32.3774 19.6351 32.1374 19.6351 31.9274C19.6351 30.9824 18.4351 26.8949 16.2526 24.6374C15.9526 24.3224 15.6901 24.0224 15.4501 23.7299C14.7151 22.7024 14.1751 21.8624 13.7401 21.0374C13.0276 19.7924 12.2326 19.2074 11.0176 19.0199C7.41013 18.4724 6.54763 14.5274 5.92513 9.74986C5.81263 10.0274 5.54263 10.2149 5.22763 10.2149C4.81513 10.2149 4.47763 9.87736 4.47763 9.46486C4.47763 8.92486 4.37263 8.34736 4.27513 7.84486C4.11763 7.00486 4.00513 6.40486 4.38013 5.95486C4.56763 5.72986 4.83763 5.60986 5.13763 5.60986C5.43763 5.60986 6.93013 5.78236 7.36513 9.21736C8.01763 14.3324 8.82763 17.1749 11.2426 17.5424C13.3876 17.8649 14.4076 19.1999 15.0526 20.3174C15.4651 21.1049 15.9676 21.8924 16.6351 22.8224C16.8226 23.0549 17.0626 23.3249 17.3251 23.6024C19.8301 26.1974 21.1201 30.6149 21.1201 31.9274C21.1201 32.2724 21.0601 32.5949 20.9926 32.9624C20.8201 33.9149 20.5576 35.3549 20.9926 38.8724C21.5101 43.1474 22.1251 43.9274 22.3651 44.0624C22.7251 44.2724 22.8451 44.7299 22.6426 45.0899C22.5001 45.3299 22.2526 45.4649 21.9901 45.4649V45.4724Z" fill="#065BAA"/>
</g>
<defs>
<clipPath id="clip0_4934_40336">
<rect width="47.91" height="42.4725" fill="white" transform="translate(0 3)"/>
</clipPath>
</defs>
</svg>
