<svg width="48" height="68" viewBox="0 0 48 68" fill="none" xmlns="http://www.w3.org/2000/svg">
<g clip-path="url(#clip0_4934_40301)">
<path d="M41.7895 29.028C42.4288 29.1021 42.8767 29.2905 42.6883 29.5901C42.4999 29.8897 37.7743 35.0662 37.0979 35.9681C36.4215 36.8669 33.4225 40.4311 34.4355 41.0705C35.4486 41.7098 40.0599 34.5072 40.0599 34.5072L44.6742 29.1794L44.597 27.8667L41.7833 29.0311L41.7895 29.028Z" fill="#B4D6F1" fill-opacity="0.5"/>
<path d="M44.1924 19.3147C44.1924 19.3147 45.2054 19.1664 45.3938 19.5772C45.5792 19.988 43.9298 21.9029 43.9298 21.9029C43.9298 21.9029 39.6429 27.2277 38.778 28.2778C37.9163 29.3279 33.5027 35.3291 33.2031 35.743C32.9035 36.1538 32.7151 36.8672 33.0147 37.2039C33.3143 37.5405 38.6792 30.4151 38.6792 30.4151L44.3437 23.6264L47.1945 19.7625C47.1945 19.7625 48.0531 18.5981 46.5551 18.4499C45.0572 18.3016 44.1955 19.3147 44.1955 19.3147" fill="#B4D6F1" fill-opacity="0.5"/>
<path d="M31.2752 34.5815C31.2752 34.5815 35.7877 29.2753 37.7366 26.2732C39.6886 23.2741 43.7377 17.1958 44.34 16.297C44.9392 15.3951 46.4711 14.1905 45.3932 13.2763C44.4172 12.4517 42.354 13.4277 42.354 13.4277C42.354 13.4277 44.1918 13.4277 44.0435 14.3264C43.8922 15.2252 37.9929 23.6664 36.8409 25.467C35.6888 27.2677 31.5779 32.1817 31.0775 32.9322C30.5772 33.6827 31.2783 34.5815 31.2783 34.5815" fill="#B4D6F1" fill-opacity="0.5"/>
<path d="M38.277 13.0258C39.2777 12.8251 40.0777 12.7263 39.9789 13.4274C39.88 14.1285 36.2787 18.9282 36.2787 18.9282C36.2787 18.9282 33.3939 23.1101 32.0782 24.7811C30.7779 26.4304 26.9789 29.3337 27.7758 30.4332C28.5757 31.5328 30.2775 28.5337 30.2775 28.5337L35.9791 22.233L39.9819 16.0311L42.9532 12.8313L41.2792 11.4321L38.2801 13.032L38.277 13.0258Z" fill="#B4D6F1" fill-opacity="0.5"/>
<path d="M18.8718 16.2261C18.8718 16.2261 20.1721 16.328 19.8725 18.0267C19.5729 19.7285 16.6727 25.0286 16.6727 25.0286C16.6727 25.0286 14.5725 29.3279 16.6727 30.5294C18.773 31.7308 17.5746 28.1295 17.5746 28.1295L19.576 23.4287L22.1766 18.629L22.4762 15.3273L20.7805 14.1196L18.8749 16.2291L18.8718 16.2261Z" fill="#B4D6F1" fill-opacity="0.5"/>
<path d="M30.9424 39.6499C34.1483 43.2296 33.8457 48.7304 30.266 51.9395C26.6863 55.1454 21.1855 54.8427 17.9795 51.2631C17.9795 51.2631 23.5699 55.5192 29.2158 50.4662C34.5437 45.6943 30.9455 39.653 30.9455 39.653" fill="#B4D6F1" fill-opacity="0.5"/>
<path d="M23.5321 35.4124C23.2819 35.4124 23.0287 35.3784 22.7785 35.3136C21.2126 34.9028 20.2767 33.2936 20.6875 31.7277C20.8883 30.971 21.3701 30.3347 22.0465 29.9394C22.7229 29.5441 23.5136 29.436 24.2734 29.6367C25.0301 29.8375 25.6663 30.3193 26.0617 30.9957C26.457 31.6721 26.5651 32.4628 26.3644 33.2226C26.1636 33.9824 25.6818 34.6155 25.0054 35.0109C24.5514 35.2765 24.0448 35.4124 23.5321 35.4124ZM23.5229 31.0853C23.2789 31.0853 23.041 31.1501 22.8248 31.2737C22.5036 31.4621 22.2751 31.7617 22.1793 32.1199C21.9847 32.8612 22.4295 33.6241 23.1707 33.8187C23.529 33.9144 23.9058 33.8619 24.2271 33.6766C24.5483 33.4882 24.7768 33.1886 24.8726 32.8303C24.9683 32.472 24.9158 32.0952 24.7305 31.774C24.5421 31.4528 24.2425 31.2243 23.8842 31.1285C23.7669 31.0976 23.6464 31.0822 23.529 31.0822L23.5229 31.0853Z" fill="#40B4E5"/>
<path d="M14.8318 38.8839C14.6712 38.8839 14.5106 38.8623 14.3531 38.8221C13.8713 38.6955 13.4697 38.3897 13.2196 37.9604C12.9694 37.5311 12.9014 37.0276 13.0281 36.5458C13.2906 35.5513 14.3098 34.9552 15.3044 35.2177C15.7862 35.3444 16.1877 35.6501 16.441 36.0794C16.6911 36.5088 16.7591 37.0122 16.6325 37.494C16.5058 37.9758 16.2001 38.3804 15.7677 38.6306C15.4804 38.7974 15.1592 38.8839 14.8318 38.8839ZM14.5199 36.9412C14.489 37.0524 14.5291 37.1419 14.5538 37.1821C14.5785 37.2253 14.6372 37.2994 14.7484 37.3303C14.8596 37.3581 14.9492 37.3241 14.9893 37.2963C15.0326 37.2716 15.1067 37.213 15.1376 37.1018C15.1654 36.9906 15.1283 36.9041 15.1036 36.8609C15.0789 36.8176 15.0202 36.7435 14.909 36.7126C14.7391 36.6663 14.5631 36.7713 14.5199 36.9381V36.9412Z" fill="#40B4E5"/>
<path d="M34.9758 41.7038C34.8121 41.7038 34.6484 41.6513 34.5063 41.5463C34.1665 41.2869 34.1017 40.8019 34.3611 40.4653C36.2143 38.0407 37.8142 36.0764 39.2504 34.4672C39.5407 34.1429 39.8403 33.8094 40.143 33.4758C41.4927 31.9809 43.6856 29.5471 44.0099 28.639C42.8517 28.3456 39.2072 31.496 36.4706 34.7792C36.1989 35.1066 35.7109 35.1498 35.3835 34.878C35.0561 34.6062 35.0128 34.1182 35.2846 33.7908C36.9556 31.7863 42.6015 25.4114 45.1712 27.5395C45.4183 27.7433 45.5666 28.0367 45.5882 28.3703C45.6716 29.5193 44.2755 31.2057 41.2889 34.5136C40.9893 34.8471 40.6897 35.1776 40.4024 35.5019C38.9909 37.0802 37.4158 39.0136 35.5873 41.4073C35.436 41.605 35.2043 41.71 34.9727 41.71L34.9758 41.7038Z" fill="#065BAA"/>
<path d="M10.7669 56.2077C10.4426 56.2077 10.1399 56.0008 10.0349 55.6765C9.90206 55.2719 10.1213 54.8364 10.526 54.7036C10.526 54.7036 11.9004 54.2341 16.104 52.1092C16.4839 51.9146 16.9503 52.069 17.1417 52.4489C17.3332 52.8288 17.1819 53.2952 16.802 53.4867C12.4502 55.6889 11.0695 56.1521 11.014 56.1707C10.9336 56.1985 10.8533 56.2108 10.773 56.2108L10.7669 56.2077Z" fill="#065BAA"/>
<path d="M33.7213 37.6792C33.5545 37.6792 33.3847 37.6236 33.2426 37.5124C32.909 37.2468 32.8503 36.7618 33.1159 36.4283C33.1901 36.3356 40.5008 27.0852 43.0242 23.9688C43.4998 23.382 43.9693 22.8292 44.3863 22.3412C45.3468 21.2138 46.5421 19.8116 46.4525 19.3483C46.4433 19.2958 46.3414 19.2124 46.1931 19.1352C45.3777 18.709 43.5307 20.0865 42.5393 21.152C42.2489 21.464 41.761 21.4825 41.449 21.1922C41.1371 20.9019 41.1185 20.4139 41.4089 20.1019C41.7424 19.7436 44.7229 16.6272 46.9097 17.7669C47.5088 18.0789 47.864 18.5113 47.969 19.0549C48.2007 20.2471 47.1506 21.4794 45.563 23.3419C45.1337 23.8453 44.6889 24.3673 44.2257 24.9387C41.7054 28.0489 34.4008 37.2931 34.3298 37.3857C34.1784 37.5772 33.9499 37.6792 33.7244 37.6792H33.7213Z" fill="#065BAA"/>
<path d="M31.6961 34.8283C31.5046 34.8283 31.3162 34.7604 31.168 34.6183C30.856 34.3249 30.8437 33.8369 31.134 33.528C31.1803 33.4786 35.909 28.4411 37.7992 25.5347C38.6424 24.2344 40.4554 21.4794 44.2853 15.7315L44.4057 15.5493C44.5355 15.3516 44.6868 15.1601 44.832 14.9717C45.6072 13.9741 45.5115 13.8938 45.2983 13.7146C44.764 13.2637 43.5409 13.4645 43.1518 13.5695C42.741 13.6807 42.3148 13.4428 42.2036 13.0321C42.0893 12.6213 42.3302 12.1981 42.7379 12.0839C42.9695 12.019 45.0451 11.4785 46.296 12.5379C47.7353 13.7548 46.5956 15.2188 46.0489 15.923C45.9161 16.096 45.7863 16.2597 45.6875 16.4079L45.5671 16.5901C41.7403 22.3319 39.9334 25.0838 39.0902 26.3779C37.1259 29.4017 32.4528 34.3774 32.2552 34.5874C32.1038 34.748 31.8969 34.8314 31.693 34.8314L31.6961 34.8283Z" fill="#065BAA"/>
<path d="M24.8421 55.4202C23.409 55.4202 21.9852 55.0989 20.6571 54.4565C18.3344 53.3384 16.5863 51.3803 15.7369 48.9464C14.8875 46.5126 15.0358 43.8935 16.1539 41.5709C18.4672 36.7773 24.246 34.7574 29.0395 37.0677C33.833 39.3779 35.853 45.1598 33.5427 49.9533C32.4246 52.276 30.4665 54.0241 28.0326 54.8735C26.9918 55.2379 25.9139 55.4171 24.8421 55.4171V55.4202ZM24.8606 37.6545C21.8431 37.6545 18.9398 39.344 17.5437 42.2411C16.6048 44.1931 16.4782 46.3922 17.1947 48.4368C17.9113 50.4815 19.3784 52.1246 21.3273 53.0666C23.2793 54.0056 25.4784 54.1322 27.523 53.4187C29.5677 52.7053 31.2108 51.2382 32.1528 49.2862C34.0956 45.2587 32.3968 40.4034 28.3724 38.4606C27.242 37.914 26.0436 37.6576 24.8637 37.6576L24.8606 37.6545Z" fill="#065BAA"/>
<path d="M43.1609 57.1037C42.7965 57.1037 42.4258 57.0233 42.0737 56.8535L35.5599 53.7124C34.3121 53.1132 33.787 51.609 34.3893 50.3612C34.9916 49.1165 36.4957 48.5915 37.7404 49.1906L44.2543 52.3318C44.8597 52.6221 45.3137 53.1317 45.533 53.7649C45.7337 54.3363 45.7214 54.9478 45.5021 55.5068V55.5223L45.4249 55.6829C44.9925 56.5786 44.0937 57.1006 43.1609 57.1006V57.1037ZM36.6532 50.4879C36.295 50.4879 35.949 50.6886 35.7823 51.0345C35.5506 51.5133 35.7545 52.0909 36.2332 52.3225L42.7471 55.4636C42.9787 55.5748 43.2412 55.5902 43.4852 55.5068C43.72 55.4235 43.9115 55.2598 44.0257 55.0374L44.0381 55.0127C44.1493 54.781 44.1647 54.5185 44.0813 54.2745C43.9949 54.0305 43.8219 53.8359 43.5903 53.7247L37.0764 50.5836C36.9436 50.5187 36.7984 50.4879 36.6594 50.4879H36.6532Z" fill="#065BAA"/>
<path d="M33.2566 48.9634L32.5859 50.3545L34.884 51.4624L35.5547 50.0714L33.2566 48.9634Z" fill="#065BAA"/>
<path d="M25.0061 50.2564C24.6231 50.2564 24.2402 50.1452 23.9035 49.929C22.631 49.9969 21.4079 49.444 20.6419 48.431C20.0273 47.6156 19.7648 46.6118 19.9068 45.6018C20.0304 44.7278 20.4381 43.9402 21.0743 43.3441C20.8983 42.4329 21.2473 41.4693 22.0164 40.8886C22.9985 40.1474 24.3575 40.2462 25.2223 41.0647C26.2972 40.5767 27.6098 40.8763 28.3511 41.8584C28.8638 42.5348 28.9935 43.4089 28.7526 44.1842C28.9873 44.3324 29.1943 44.5239 29.3672 44.7525C30.1487 45.7871 29.9417 47.2666 28.907 48.048C28.3449 48.4742 27.6314 48.6101 26.9705 48.4619C26.9149 49.0086 26.64 49.5182 26.1891 49.8579C25.8339 50.1266 25.4169 50.2564 25 50.2564H25.0061ZM24.1351 48.3569C24.3328 48.3569 24.5243 48.431 24.6695 48.57C24.8116 48.7059 25.0617 48.78 25.2687 48.6256C25.4571 48.4835 25.4725 48.2611 25.4262 48.1129C25.3582 47.8843 25.3984 47.6372 25.5374 47.4426C25.6269 47.316 25.7011 47.1863 25.7628 47.0535C25.8617 46.8311 26.0624 46.6674 26.3003 46.6149C26.5381 46.5624 26.7883 46.6242 26.9736 46.7848C27.2577 47.0318 27.684 47.0442 27.9866 46.8187C28.3418 46.55 28.4129 46.0435 28.1442 45.6852C28.0113 45.5092 27.8106 45.398 27.582 45.3733C27.2948 45.3424 27.0508 45.1571 26.9427 44.8884C26.8377 44.6196 26.8902 44.3139 27.0786 44.0977C27.3998 43.7301 27.4183 43.1804 27.1249 42.7912C26.779 42.3341 26.1273 42.2445 25.6733 42.5873C25.6671 42.5935 25.6547 42.6059 25.6455 42.6182L25.5899 42.6738C25.4138 42.8437 25.1667 42.9178 24.9258 42.8746C24.6849 42.8313 24.478 42.68 24.3668 42.4607C24.3359 42.3959 24.305 42.3464 24.2741 42.3063C23.9622 41.8924 23.3692 41.8121 22.9553 42.1241C22.597 42.3959 22.4797 42.8839 22.6773 43.2885C22.8441 43.6344 22.736 44.0483 22.4179 44.2645C22.3808 44.2892 22.3438 44.3108 22.3067 44.3324C21.8341 44.6969 21.5284 45.225 21.445 45.818C21.3616 46.4203 21.516 47.0195 21.8836 47.5044C22.3777 48.1592 23.2024 48.4928 24.0301 48.3723C24.0672 48.3661 24.1043 48.363 24.1413 48.363L24.1351 48.3569Z" fill="#40B4E5"/>
<path d="M28.4315 31.0944C28.2152 31.0944 27.999 31.0018 27.8446 30.8257C27.5666 30.5014 27.6037 30.0134 27.928 29.7385C27.9589 29.7107 31.0629 27.0484 32.3694 25.6677C33.4072 24.5744 35.1183 22.0325 37.0981 19.089C37.6046 18.3385 38.1297 17.5571 38.6702 16.7633C39.8253 15.0615 40.7612 14.0237 41.3789 13.338C41.6074 13.0848 41.8576 12.8068 41.9812 12.6338C41.7125 12.3806 41.4067 12.2756 41.0206 12.3003C39.2694 12.4115 36.7552 14.9997 35.5445 16.51C35.2789 16.8436 34.7909 16.8961 34.4604 16.6305C34.1268 16.3649 34.0743 15.8769 34.34 15.5464C34.9546 14.7773 38.1636 10.9351 40.9249 10.7591C41.7495 10.7035 42.4908 10.9753 43.0745 11.5405C44.1463 12.5752 43.3587 13.4461 42.5278 14.3696C41.9379 15.0244 41.0453 16.0128 39.9489 17.6281C39.4084 18.4219 38.8864 19.2002 38.3798 19.9507C36.2765 23.0733 34.6179 25.5411 33.4906 26.7302C32.1285 28.1695 29.0615 30.801 28.9318 30.9122C28.7866 31.0357 28.6075 31.0975 28.4284 31.0975L28.4315 31.0944Z" fill="#065BAA"/>
<path d="M0.772567 46.2472C0.537834 46.2472 0.3031 46.1391 0.151758 45.9353C-0.101507 45.5924 -0.0335582 45.1106 0.309277 44.8574C0.343252 44.8326 1.17409 44.2149 3.73145 42.7108C5.52593 41.6545 6.62856 40.7125 7.0795 40.2955C7.00537 38.7574 7.04861 32.9014 11.1873 26.023C15.8264 18.3139 20.0362 13.7798 20.2122 13.5914C20.3698 13.4215 20.5921 13.332 20.8238 13.3474C20.9504 13.3567 22.0932 13.4524 22.8437 14.4315C23.4151 15.1759 23.5788 16.1797 23.3317 17.4182C23.0414 18.876 22.0469 20.6427 20.9967 22.5113C19.7798 24.6764 18.3992 27.1319 18.0873 29.2352C18.0687 29.3557 18.0595 29.4545 18.0564 29.5317C18.7853 29.2105 20.308 27.9534 21.3581 27.0824C22.7789 25.9057 24.249 24.6919 25.3949 24.1483C26.4574 23.6448 28.5854 22.0758 32.6964 17.4645C32.9805 17.1464 33.4685 17.1186 33.7867 17.4028C34.1048 17.6869 34.1326 18.1749 33.8484 18.493C30.4108 22.3507 27.7886 24.7227 26.0559 25.5443C25.083 26.0045 23.69 27.1597 22.3434 28.2746C19.681 30.4768 18.2386 31.6011 17.17 30.9957C16.336 30.5262 16.5059 29.3834 16.5615 29.0097C16.9136 26.6253 18.3683 24.0371 19.6532 21.7546C20.6416 19.9972 21.5774 18.3355 21.8183 17.1155C21.9727 16.3403 21.911 15.7565 21.6299 15.3828C21.4631 15.1604 21.2346 15.0369 21.0493 14.9689C20.0146 16.1364 16.3731 20.4018 12.5124 26.8199C8.06476 34.2078 8.63615 40.4592 8.64233 40.521C8.66395 40.7433 8.58982 40.9657 8.43539 41.1294C8.38289 41.185 7.12891 42.5038 4.51287 44.042C2.05125 45.4905 1.23895 46.0897 1.23277 46.0959C1.09378 46.1978 0.933175 46.2472 0.772567 46.2472Z" fill="#065BAA"/>
</g>
<defs>
<clipPath id="clip0_4934_40301">
<rect width="48" height="48" fill="white" transform="translate(0 10)"/>
</clipPath>
</defs>
</svg>
