<svg width="64" height="134" viewBox="0 0 64 134" fill="none" xmlns="http://www.w3.org/2000/svg">
<g clip-path="url(#clip0_2906_30067)">
<path d="M55.718 25.3712C56.5705 25.47 57.1676 25.7212 56.9164 26.1207C56.6652 26.5201 50.3644 33.4221 49.4626 34.6246C48.5607 35.823 44.562 40.5753 45.9127 41.4278C47.2635 42.2803 53.4119 32.6768 53.4119 32.6768L59.5644 25.573L59.4614 23.8228L55.7098 25.3753L55.718 25.3712Z" fill="#B4D6F1" fill-opacity="0.5"/>
<path d="M58.9219 12.4194C58.9219 12.4194 60.2726 12.2217 60.5238 12.7695C60.7709 13.3172 58.5718 15.8704 58.5718 15.8704C58.5718 15.8704 52.8558 22.9701 51.7028 24.3703C50.5538 25.7704 44.669 33.772 44.2695 34.3238C43.8701 34.8715 43.6188 35.8228 44.0183 36.2717C44.4178 36.7206 51.571 27.22 51.571 27.22L59.1236 18.1683L62.9247 13.0165C62.9247 13.0165 64.0695 11.464 62.0722 11.2663C60.0749 11.0687 58.926 12.4194 58.926 12.4194" fill="#B4D6F1" fill-opacity="0.5"/>
<path d="M41.7 32.7755C41.7 32.7755 47.7166 25.7006 50.3151 21.6977C52.9178 17.699 58.3166 9.59451 59.1197 8.39613C59.9186 7.19364 61.9612 5.58756 60.524 4.36859C59.2226 3.26905 56.4717 4.57038 56.4717 4.57038C56.4717 4.57038 58.922 4.57038 58.7243 5.76876C58.5226 6.96714 50.6569 18.222 49.1208 20.6229C47.5848 23.0238 42.1035 29.5757 41.4364 30.5764C40.7693 31.5771 41.7041 32.7755 41.7041 32.7755" fill="#B4D6F1" fill-opacity="0.5"/>
<path d="M51.0364 4.03512C52.3706 3.76744 53.4372 3.63566 53.3055 4.57047C53.1737 5.50529 48.3719 11.9049 48.3719 11.9049C48.3719 11.9049 44.5256 17.4808 42.7713 19.7088C41.0375 21.9078 35.9722 25.7789 37.0347 27.2449C38.1013 28.711 40.3704 24.7123 40.3704 24.7123L47.9725 16.3113L53.3096 8.04207L57.2712 3.77567L55.0392 1.91016L51.0405 4.04335L51.0364 4.03512Z" fill="#B4D6F1" fill-opacity="0.5"/>
<path d="M25.1621 8.30173C25.1621 8.30173 26.8958 8.43763 26.4963 10.7026C26.0969 12.9717 22.2299 20.0384 22.2299 20.0384C22.2299 20.0384 19.4296 25.7709 22.2299 27.3728C25.0303 28.9748 23.4324 24.173 23.4324 24.173L26.101 17.9052L29.5685 11.5056L29.9679 7.10336L27.7071 5.49316L25.1662 8.30585L25.1621 8.30173Z" fill="#B4D6F1" fill-opacity="0.5"/>
<path d="M41.2555 39.5337C45.5301 44.3066 45.1266 51.641 40.3536 55.9198C35.5807 60.1944 28.2463 59.7908 23.9717 55.0179C23.9717 55.0179 31.4255 60.6927 38.9535 53.9554C46.0573 47.5929 41.2596 39.5378 41.2596 39.5378" fill="#B4D6F1" fill-opacity="0.5"/>
<path d="M31.3758 33.8832C31.0423 33.8832 30.7046 33.8379 30.371 33.7514C28.2831 33.2037 27.0353 31.0582 27.583 28.9703C27.8507 27.9613 28.4931 27.113 29.395 26.5859C30.2969 26.0587 31.3511 25.9146 32.3642 26.1823C33.3731 26.45 34.2215 27.0924 34.7486 27.9943C35.2757 28.8961 35.4198 29.9504 35.1522 30.9634C34.8845 31.9765 34.2421 32.8207 33.3402 33.3478C32.7348 33.702 32.0594 33.8832 31.3758 33.8832ZM31.3635 28.1137C31.0381 28.1137 30.721 28.2002 30.4328 28.3649C30.0045 28.6161 29.6997 29.0156 29.5721 29.4933C29.3126 30.4816 29.9057 31.4988 30.894 31.7582C31.3717 31.8859 31.8741 31.8159 32.3024 31.5688C32.7307 31.3176 33.0354 30.9181 33.1631 30.4404C33.2908 29.9627 33.2208 29.4603 32.9737 29.032C32.7225 28.6037 32.323 28.299 31.8453 28.1713C31.6888 28.1302 31.5282 28.1096 31.3717 28.1096L31.3635 28.1137Z" fill="#40B4E5"/>
<path d="M19.7751 38.5123C19.5609 38.5123 19.3468 38.4835 19.1368 38.43C18.4944 38.2611 17.959 37.8534 17.6254 37.281C17.2919 36.7086 17.2013 36.0373 17.3701 35.3949C17.7201 34.0689 19.0791 33.2741 20.4052 33.6241C21.0476 33.793 21.583 34.2007 21.9206 34.7731C22.2542 35.3455 22.3448 36.0168 22.176 36.6592C22.0071 37.3016 21.5994 37.8411 21.0229 38.1747C20.6399 38.397 20.2116 38.5123 19.7751 38.5123ZM19.3592 35.922C19.318 36.0703 19.3715 36.1897 19.4045 36.2433C19.4374 36.3009 19.5156 36.3997 19.6639 36.4409C19.8122 36.478 19.9316 36.4327 19.9851 36.3956C20.0428 36.3627 20.1416 36.2844 20.1828 36.1362C20.2198 35.9879 20.1704 35.8726 20.1375 35.815C20.1045 35.7573 20.0263 35.6585 19.878 35.6173C19.6515 35.5555 19.4168 35.6955 19.3592 35.9179V35.922Z" fill="#40B4E5"/>
<path d="M46.634 42.2719C46.4158 42.2719 46.1975 42.2019 46.0081 42.0619C45.5551 41.716 45.4686 41.0694 45.8145 40.6206C48.2854 37.3878 50.4186 34.7687 52.3335 32.6231C52.7206 32.1907 53.1201 31.746 53.5237 31.3012C55.3233 29.308 58.2472 26.0629 58.6796 24.8522C57.1353 24.461 52.2759 28.6615 48.6272 33.0391C48.2648 33.4756 47.6141 33.5332 47.1776 33.1708C46.7411 32.8084 46.6834 32.1578 47.0458 31.7213C49.2738 29.0486 56.8017 20.5487 60.228 23.3861C60.5575 23.6579 60.7551 24.0492 60.784 24.4939C60.8951 26.0259 59.0337 28.2744 55.0515 32.6849C54.652 33.1297 54.2526 33.5703 53.8696 34.0027C51.9876 36.1071 49.8874 38.685 47.4494 41.8766C47.2476 42.1401 46.9388 42.2802 46.6299 42.2802L46.634 42.2719Z" fill="white"/>
<path d="M14.3558 61.6108C13.9234 61.6108 13.5198 61.3349 13.3798 60.9025C13.2027 60.363 13.4951 59.7824 14.0346 59.6053C14.0346 59.6053 15.8672 58.9793 21.472 56.146C21.9785 55.8866 22.6003 56.0925 22.8557 56.599C23.111 57.1056 22.9092 57.7274 22.4027 57.9827C16.6002 60.919 14.7594 61.5367 14.6853 61.5614C14.5782 61.5985 14.4711 61.6149 14.3641 61.6149L14.3558 61.6108Z" fill="white"/>
<path d="M44.9621 36.906C44.7397 36.906 44.5132 36.8319 44.3238 36.6837C43.879 36.3295 43.8008 35.6829 44.1549 35.2382C44.2538 35.1146 54.0014 22.7808 57.3659 18.6256C58.0001 17.8432 58.6261 17.106 59.182 16.4554C60.4628 14.9522 62.0565 13.0826 61.937 12.4649C61.9247 12.3949 61.7888 12.2837 61.5911 12.1807C60.5039 11.6124 58.0413 13.4491 56.7194 14.8699C56.3323 15.2858 55.6816 15.3105 55.2657 14.9234C54.8497 14.5363 54.825 13.8856 55.2121 13.4697C55.6569 12.992 59.6309 8.8368 62.5465 10.3564C63.3455 10.7723 63.819 11.3489 63.9591 12.0737C64.2679 13.6633 62.8678 15.3064 60.751 17.7896C60.1786 18.4609 59.5856 19.1569 58.9679 19.9187C55.6075 24.0657 45.8681 36.3913 45.7734 36.5148C45.5716 36.7701 45.2668 36.906 44.9662 36.906H44.9621Z" fill="white"/>
<path d="M42.2599 33.1053C42.0046 33.1053 41.7534 33.0147 41.5557 32.8252C41.1397 32.434 41.1233 31.7833 41.5104 31.3715C41.5722 31.3056 47.877 24.589 50.3973 20.7138C51.5216 18.9801 53.9389 15.3067 59.0454 7.64282L59.206 7.39985C59.379 7.13629 59.5808 6.88096 59.7743 6.62976C60.808 5.2996 60.6803 5.19253 60.3962 4.95368C59.6837 4.35243 58.0529 4.62011 57.5341 4.76012C56.9863 4.90838 56.418 4.59128 56.2698 4.04357C56.1174 3.49585 56.4386 2.93167 56.9822 2.7793C57.2911 2.69282 60.0585 1.97214 61.7263 3.38466C63.6454 5.00721 62.1258 6.95921 61.3969 7.89815C61.2198 8.12876 61.0468 8.34702 60.915 8.54469L60.7544 8.78766C55.6521 16.4433 53.243 20.1125 52.1187 21.838C49.4996 25.8697 43.2688 32.504 43.0053 32.7841C42.8035 32.9982 42.5276 33.1094 42.2558 33.1094L42.2599 33.1053Z" fill="white"/>
<path d="M33.1222 60.5605C31.2113 60.5605 29.3129 60.1323 27.5421 59.2757C24.4452 57.7849 22.1144 55.174 20.9819 51.9289C19.8494 48.6838 20.0471 45.1916 21.5378 42.0948C24.6223 35.7035 32.3274 33.0102 38.7187 36.0906C45.1101 39.1709 47.8033 46.8801 44.723 53.2714C43.2322 56.3683 40.6213 58.6991 37.3762 59.8316C35.9884 60.3176 34.5512 60.5564 33.1222 60.5564V60.5605ZM33.1469 36.873C29.1234 36.873 25.2524 39.1256 23.391 42.9884C22.1391 45.5911 21.9702 48.5232 22.9256 51.2494C23.8811 53.9756 25.8372 56.1665 28.4357 57.4225C31.0384 58.6744 33.9705 58.8433 36.6967 57.892C39.4229 56.9407 41.6138 54.9846 42.8698 52.3819C45.4601 47.0119 43.1951 40.5381 37.8292 37.9478C36.322 37.2189 34.7241 36.8771 33.151 36.8771L33.1469 36.873Z" fill="white"/>
<path d="M57.5469 62.8049C57.061 62.8049 56.5668 62.6978 56.0974 62.4713L47.4122 58.2832C45.7485 57.4842 45.0484 55.4787 45.8514 53.815C46.6545 52.1554 48.66 51.4553 50.3196 52.2542L59.0048 56.4423C59.8119 56.8295 60.4173 57.5089 60.7097 58.3532C60.9773 59.115 60.9609 59.9304 60.6685 60.6758V60.6964L60.5655 60.9105C59.989 62.1048 58.7906 62.8008 57.5469 62.8008V62.8049ZM48.87 53.9838C48.3923 53.9838 47.9311 54.2515 47.7087 54.7127C47.3998 55.351 47.6716 56.1211 48.31 56.43L56.9951 60.6181C57.304 60.7664 57.654 60.787 57.9793 60.6758C58.2923 60.5646 58.5476 60.3463 58.7 60.0498L58.7165 60.0169C58.8647 59.708 58.8853 59.358 58.7741 59.0327C58.6588 58.7073 58.4282 58.4479 58.1194 58.2996L49.4342 54.1115C49.2571 54.025 49.0636 53.9838 48.8783 53.9838H48.87Z" fill="white"/>
<path d="M44.3415 51.9514L43.4473 53.8062L46.5113 55.2834L47.4056 53.4287L44.3415 51.9514Z" fill="white"/>
<path d="M33.3405 53.675C32.8299 53.675 32.3192 53.5267 31.8704 53.2385C30.1737 53.3291 28.5429 52.5919 27.5216 51.2412C26.7021 50.154 26.3521 48.8156 26.5415 47.4689C26.7062 46.3035 27.2498 45.2534 28.0981 44.4586C27.8634 43.2437 28.3288 41.9589 29.3542 41.1847C30.6637 40.1963 32.4757 40.3281 33.6288 41.4194C35.0619 40.7687 36.8121 41.1682 37.8005 42.4778C38.4841 43.3796 38.6571 44.5451 38.3358 45.5787C38.6488 45.7764 38.9247 46.0317 39.1553 46.3365C40.1972 47.716 39.9213 49.6886 38.5417 50.7305C37.7922 51.2988 36.841 51.48 35.9597 51.2823C35.8855 52.0112 35.519 52.6907 34.9178 53.1437C34.4442 53.502 33.8882 53.675 33.3323 53.675H33.3405ZM32.1792 51.1423C32.4428 51.1423 32.6981 51.2412 32.8917 51.4265C33.0811 51.6077 33.4147 51.7065 33.6906 51.5006C33.9418 51.3112 33.9624 51.0147 33.9006 50.817C33.81 50.5122 33.8635 50.1828 34.0489 49.9234C34.1683 49.7545 34.2671 49.5815 34.3495 49.4045C34.4813 49.108 34.7489 48.8897 35.066 48.8197C35.3831 48.7497 35.7167 48.832 35.9638 49.0462C36.3427 49.3756 36.911 49.3921 37.3145 49.0915C37.7881 48.7332 37.8828 48.0578 37.5246 47.5801C37.3475 47.3454 37.0798 47.1971 36.7751 47.1642C36.3921 47.123 36.0667 46.8759 35.9226 46.5176C35.7826 46.1594 35.8526 45.7517 36.1038 45.4634C36.5321 44.9733 36.5568 44.2403 36.1656 43.7214C35.7043 43.1119 34.8354 42.9925 34.2301 43.4496C34.2218 43.4579 34.2053 43.4743 34.193 43.4908L34.1189 43.5649C33.8841 43.7914 33.5547 43.8903 33.2335 43.8326C32.9122 43.775 32.6363 43.5732 32.4881 43.2808C32.4469 43.1943 32.4057 43.1284 32.3645 43.0749C31.9486 42.5231 31.1579 42.416 30.6061 42.8319C30.1284 43.1943 29.9719 43.845 30.2355 44.3845C30.4578 44.8457 30.3137 45.3975 29.8895 45.6858C29.8401 45.7187 29.7907 45.7476 29.7413 45.7764C29.1112 46.2623 28.7035 46.9665 28.5923 47.7572C28.4811 48.5602 28.687 49.3592 29.1771 50.0057C29.836 50.8788 30.9355 51.3235 32.0392 51.1629C32.0886 51.1547 32.138 51.1506 32.1875 51.1506L32.1792 51.1423Z" fill="#40B4E5"/>
<path d="M37.907 28.1262C37.6187 28.1262 37.3304 28.0027 37.1245 27.7679C36.7539 27.3355 36.8033 26.6849 37.2357 26.3184C37.2769 26.2813 41.4156 22.7315 43.1576 20.8907C44.5413 19.4328 46.8227 16.0436 49.4625 12.119C50.1378 11.1183 50.8379 10.0764 51.5586 9.01806C53.0988 6.74897 54.3466 5.36527 55.1702 4.45104C55.475 4.11336 55.8085 3.74272 55.9732 3.51211C55.615 3.17442 55.2073 3.0344 54.6925 3.06735C52.3575 3.2156 49.0054 6.6666 47.391 8.68037C47.0369 9.12513 46.3862 9.19514 45.9456 8.84098C45.5008 8.48682 45.4308 7.83615 45.785 7.39551C46.6045 6.3701 50.8832 1.24713 54.5648 1.0124C55.6644 0.938272 56.6527 1.30067 57.4311 2.05429C58.8601 3.43386 57.8099 4.59518 56.7022 5.8265C55.9156 6.69955 54.7255 8.01735 53.2635 10.1711C52.5428 11.2295 51.8469 12.2673 51.1715 13.268C48.367 17.4314 46.1556 20.7218 44.6525 22.3073C42.8364 24.2263 38.7471 27.735 38.5741 27.8833C38.3806 28.048 38.1417 28.1303 37.9029 28.1303L37.907 28.1262Z" fill="white"/>
<path d="M1.02944 48.3296C0.71646 48.3296 0.403482 48.1855 0.201693 47.9137C-0.135994 47.4566 -0.0453953 46.8142 0.411718 46.4765C0.457018 46.4435 1.5648 45.6199 4.97462 43.6144C7.36725 42.206 8.83743 40.9499 9.43868 40.394C9.33984 38.3432 9.3975 30.5352 14.9158 21.3641C21.1012 11.0852 26.7143 5.03976 26.949 4.78855C27.159 4.56206 27.4555 4.44263 27.7644 4.46322C27.9332 4.47558 29.457 4.60324 30.4577 5.90869C31.2195 6.90116 31.4378 8.23956 31.1083 9.89093C30.7212 11.8347 29.3952 14.1903 27.995 16.6817C26.3725 19.5686 24.5317 22.8425 24.1157 25.6469C24.091 25.8075 24.0787 25.9393 24.0745 26.0423C25.0464 25.614 27.0767 23.9379 28.4768 22.7766C30.3712 21.2076 32.3314 19.5891 33.8592 18.8644C35.2759 18.1931 38.1133 16.1011 43.5945 9.9527C43.9734 9.52853 44.6241 9.49147 45.0482 9.87034C45.4724 10.2492 45.5095 10.8999 45.1306 11.324C40.5471 16.4676 37.0508 19.6303 34.7405 20.7258C33.4433 21.3394 31.586 22.8795 29.7905 24.3662C26.2407 27.3024 24.3175 28.8014 22.8926 27.9943C21.7807 27.3683 22.0072 25.8446 22.0814 25.3463C22.5508 22.1671 24.4905 18.7161 26.2036 15.6728C27.5214 13.3296 28.7692 11.114 29.0904 9.48735C29.2963 8.4537 29.214 7.67537 28.8392 7.17708C28.6168 6.88057 28.3121 6.71584 28.065 6.62524C26.6854 8.1819 21.8302 13.8691 16.6825 22.4265C10.7524 32.2771 11.5142 40.6122 11.5225 40.6946C11.5513 40.9911 11.4524 41.2876 11.2465 41.5059C11.1765 41.58 9.50457 43.3385 6.0165 45.3893C2.73435 47.3207 1.65128 48.1196 1.64304 48.1278C1.45773 48.2637 1.24358 48.3296 1.02944 48.3296Z" fill="white"/>
</g>
<defs>
<clipPath id="clip0_2906_30067">
<rect width="64" height="64" fill="white"/>
</clipPath>
</defs>
</svg>
