<svg width="64" height="62" viewBox="0 0 64 62" fill="none" xmlns="http://www.w3.org/2000/svg">
<path d="M55.718 24.3717C56.5705 24.4705 57.1676 24.7217 56.9164 25.1212C56.6652 25.5206 50.3644 32.4226 49.4626 33.6251C48.5607 34.8235 44.562 39.5758 45.9127 40.4283C47.2635 41.2807 53.4119 31.6772 53.4119 31.6772L59.5644 24.5735L59.4614 22.8232L55.7098 24.3758L55.718 24.3717Z" fill="#B4D6F1" fill-opacity="0.5"/>
<path d="M58.9219 11.4199C58.9219 11.4199 60.2726 11.2222 60.5238 11.7699C60.7709 12.3177 58.5718 14.8709 58.5718 14.8709C58.5718 14.8709 52.8558 21.9706 51.7028 23.3707C50.5538 24.7709 44.669 32.7725 44.2695 33.3243C43.8701 33.872 43.6188 34.8233 44.0183 35.2722C44.4178 35.721 51.571 26.2205 51.571 26.2205L59.1236 17.1688L62.9247 12.017C62.9247 12.017 64.0695 10.4645 62.0722 10.2668C60.0749 10.0692 58.926 11.4199 58.926 11.4199" fill="#B4D6F1" fill-opacity="0.5"/>
<path d="M41.7 31.776C41.7 31.776 47.7166 24.701 50.3151 20.6982C52.9178 16.6995 58.3166 8.595 59.1197 7.39662C59.9186 6.19412 61.9612 4.58805 60.524 3.36908C59.2226 2.26954 56.4717 3.57087 56.4717 3.57087C56.4717 3.57087 58.922 3.57087 58.7243 4.76925C58.5226 5.96763 50.6569 17.2225 49.1208 19.6234C47.5848 22.0243 42.1035 28.5762 41.4364 29.5769C40.7693 30.5776 41.7041 31.776 41.7041 31.776" fill="#B4D6F1" fill-opacity="0.5"/>
<path d="M51.0364 3.03512C52.3706 2.76744 53.4372 2.63566 53.3055 3.57047C53.1737 4.50529 48.3719 10.9049 48.3719 10.9049C48.3719 10.9049 44.5256 16.4808 42.7713 18.7088C41.0375 20.9078 35.9722 24.7789 37.0347 26.2449C38.1013 27.711 40.3704 23.7123 40.3704 23.7123L47.9725 15.3113L53.3096 7.04207L57.2712 2.77567L55.0392 0.910156L51.0405 3.04335L51.0364 3.03512Z" fill="#B4D6F1" fill-opacity="0.5"/>
<path d="M25.1621 7.30173C25.1621 7.30173 26.8958 7.43763 26.4963 9.70261C26.0969 11.9717 22.2299 19.0384 22.2299 19.0384C22.2299 19.0384 19.4296 24.7709 22.2299 26.3728C25.0303 27.9748 23.4324 23.173 23.4324 23.173L26.101 16.9052L29.5685 10.5056L29.9679 6.10336L27.7071 4.49316L25.1662 7.30585L25.1621 7.30173Z" fill="#B4D6F1" fill-opacity="0.5"/>
<path d="M41.2555 38.5332C45.5301 43.3061 45.1266 50.6405 40.3536 54.9193C35.5807 59.1939 28.2463 58.7903 23.9717 54.0174C23.9717 54.0174 31.4255 59.6922 38.9535 52.9549C46.0573 46.5924 41.2596 38.5373 41.2596 38.5373" fill="#B4D6F1" fill-opacity="0.5"/>
<path d="M31.3758 32.8832C31.0423 32.8832 30.7046 32.8379 30.371 32.7514C28.2831 32.2037 27.0353 30.0582 27.583 27.9703C27.8507 26.9613 28.4931 26.113 29.395 25.5859C30.2969 25.0587 31.3511 24.9146 32.3642 25.1823C33.3731 25.45 34.2215 26.0924 34.7486 26.9943C35.2757 27.8961 35.4198 28.9504 35.1522 29.9634C34.8845 30.9765 34.2421 31.8207 33.3402 32.3478C32.7348 32.702 32.0594 32.8832 31.3758 32.8832ZM31.3635 27.1137C31.0381 27.1137 30.721 27.2002 30.4328 27.3649C30.0045 27.6161 29.6997 28.0156 29.5721 28.4933C29.3126 29.4816 29.9057 30.4988 30.894 30.7582C31.3717 30.8859 31.8741 30.8159 32.3024 30.5688C32.7307 30.3176 33.0354 29.9181 33.1631 29.4404C33.2908 28.9627 33.2208 28.4603 32.9737 28.032C32.7225 27.6037 32.323 27.299 31.8453 27.1713C31.6888 27.1302 31.5282 27.1096 31.3717 27.1096L31.3635 27.1137Z" fill="#40B4E5"/>
<path d="M19.7751 37.5119C19.5609 37.5119 19.3468 37.483 19.1368 37.4295C18.4944 37.2606 17.959 36.853 17.6254 36.2805C17.2919 35.7081 17.2013 35.0369 17.3701 34.3944C17.7201 33.0684 19.0791 32.2736 20.4052 32.6236C21.0476 32.7925 21.583 33.2002 21.9206 33.7726C22.2542 34.345 22.3448 35.0163 22.176 35.6587C22.0071 36.3011 21.5994 36.8406 21.0229 37.1742C20.6399 37.3965 20.2116 37.5119 19.7751 37.5119ZM19.3592 34.9215C19.318 35.0698 19.3715 35.1892 19.4045 35.2428C19.4374 35.3004 19.5156 35.3992 19.6639 35.4404C19.8122 35.4775 19.9316 35.4322 19.9851 35.3951C20.0428 35.3622 20.1416 35.2839 20.1828 35.1357C20.2198 34.9874 20.1704 34.8721 20.1375 34.8145C20.1045 34.7568 20.0263 34.658 19.878 34.6168C19.6515 34.555 19.4168 34.695 19.3592 34.9174V34.9215Z" fill="#40B4E5"/>
<path d="M46.634 41.2724C46.4158 41.2724 46.1975 41.2024 46.0081 41.0624C45.5551 40.7165 45.4686 40.0699 45.8145 39.621C48.2854 36.3883 50.4186 33.7692 52.3335 31.6236C52.7206 31.1912 53.1201 30.7465 53.5237 30.3017C55.3233 28.3085 58.2472 25.0634 58.6796 23.8527C57.1353 23.4615 52.2759 27.662 48.6272 32.0395C48.2648 32.4761 47.6141 32.5337 47.1776 32.1713C46.7411 31.8089 46.6834 31.1583 47.0458 30.7217C49.2738 28.0491 56.8017 19.5492 60.228 22.3866C60.5575 22.6584 60.7551 23.0496 60.784 23.4944C60.8951 25.0264 59.0337 27.2749 55.0515 31.6854C54.652 32.1301 54.2526 32.5708 53.8696 33.0032C51.9876 35.1076 49.8874 37.6855 47.4494 40.8771C47.2476 41.1406 46.9388 41.2806 46.6299 41.2806L46.634 41.2724Z" fill="white"/>
<path d="M14.3558 60.6113C13.9234 60.6113 13.5198 60.3354 13.3798 59.903C13.2027 59.3635 13.4951 58.7828 14.0346 58.6058C14.0346 58.6058 15.8672 57.9798 21.472 55.1465C21.9785 54.8871 22.6003 55.093 22.8557 55.5995C23.111 56.106 22.9092 56.7279 22.4027 56.9832C16.6002 59.9194 14.7594 60.5372 14.6853 60.5619C14.5782 60.5989 14.4711 60.6154 14.3641 60.6154L14.3558 60.6113Z" fill="white"/>
<path d="M44.9621 35.9065C44.7397 35.9065 44.5132 35.8324 44.3238 35.6841C43.879 35.33 43.8008 34.6834 44.1549 34.2387C44.2538 34.1151 54.0014 21.7813 57.3659 17.6261C58.0001 16.8437 58.6261 16.1065 59.182 15.4558C60.4628 13.9527 62.0565 12.0831 61.937 11.4654C61.9247 11.3954 61.7888 11.2842 61.5911 11.1812C60.5039 10.6129 58.0413 12.4496 56.7194 13.8704C56.3323 14.2863 55.6816 14.311 55.2657 13.9239C54.8497 13.5368 54.825 12.8861 55.2121 12.4702C55.6569 11.9925 59.6309 7.83729 62.5465 9.35688C63.3455 9.77281 63.819 10.3494 63.9591 11.0741C64.2679 12.6637 62.8678 14.3069 60.751 16.7901C60.1786 17.4614 59.5856 18.1573 58.9679 18.9192C55.6075 23.0662 45.8681 35.3918 45.7734 35.5153C45.5716 35.7706 45.2668 35.9065 44.9662 35.9065H44.9621Z" fill="white"/>
<path d="M42.2599 32.1048C42.0046 32.1048 41.7534 32.0142 41.5557 31.8248C41.1397 31.4335 41.1233 30.7829 41.5104 30.371C41.5722 30.3052 47.877 23.5885 50.3973 19.7133C51.5216 17.9796 53.9389 14.3062 59.0454 6.64233L59.206 6.39936C59.379 6.1358 59.5808 5.88048 59.7743 5.62927C60.808 4.29911 60.6803 4.19204 60.3962 3.95319C59.6837 3.35194 58.0529 3.61962 57.5341 3.75963C56.9863 3.90789 56.418 3.59079 56.2698 3.04308C56.1174 2.49537 56.4386 1.93118 56.9822 1.77881C57.2911 1.69233 60.0585 0.971655 61.7263 2.38418C63.6454 4.00672 62.1258 5.95872 61.3969 6.89766C61.2198 7.12827 61.0468 7.34653 60.915 7.5442L60.7544 7.78717C55.6521 15.4428 53.243 19.1121 52.1187 20.8376C49.4996 24.8692 43.2688 31.5035 43.0053 31.7836C42.8035 31.9977 42.5276 32.1089 42.2558 32.1089L42.2599 32.1048Z" fill="white"/>
<path d="M33.1222 59.5605C31.2113 59.5605 29.3129 59.1323 27.5421 58.2757C24.4452 56.7849 22.1144 54.174 20.9819 50.9289C19.8494 47.6838 20.0471 44.1916 21.5378 41.0948C24.6223 34.7035 32.3274 32.0102 38.7187 35.0906C45.1101 38.1709 47.8033 45.8801 44.723 52.2714C43.2322 55.3683 40.6213 57.6991 37.3762 58.8316C35.9884 59.3176 34.5512 59.5564 33.1222 59.5564V59.5605ZM33.1469 35.873C29.1234 35.873 25.2524 38.1256 23.391 41.9884C22.1391 44.5911 21.9702 47.5232 22.9256 50.2494C23.8811 52.9756 25.8372 55.1665 28.4357 56.4225C31.0384 57.6744 33.9705 57.8433 36.6967 56.892C39.4229 55.9407 41.6138 53.9846 42.8698 51.3819C45.4601 46.0119 43.1951 39.5381 37.8292 36.9478C36.322 36.2189 34.7241 35.8771 33.151 35.8771L33.1469 35.873Z" fill="white"/>
<path d="M57.5469 61.8049C57.061 61.8049 56.5668 61.6978 56.0974 61.4713L47.4122 57.2832C45.7485 56.4842 45.0484 54.4787 45.8514 52.815C46.6545 51.1554 48.66 50.4553 50.3196 51.2542L59.0048 55.4423C59.8119 55.8295 60.4173 56.5089 60.7097 57.3532C60.9773 58.115 60.9609 58.9304 60.6685 59.6758V59.6964L60.5655 59.9105C59.989 61.1048 58.7906 61.8008 57.5469 61.8008V61.8049ZM48.87 52.9838C48.3923 52.9838 47.9311 53.2515 47.7087 53.7127C47.3998 54.351 47.6716 55.1211 48.31 55.43L56.9951 59.6181C57.304 59.7664 57.654 59.787 57.9793 59.6758C58.2923 59.5646 58.5476 59.3463 58.7 59.0498L58.7165 59.0169C58.8647 58.708 58.8853 58.358 58.7741 58.0327C58.6588 57.7073 58.4282 57.4479 58.1194 57.2996L49.4342 53.1115C49.2571 53.025 49.0636 52.9838 48.8783 52.9838H48.87Z" fill="white"/>
<path d="M44.3415 50.9519L43.4473 52.8066L46.5113 54.2839L47.4056 52.4292L44.3415 50.9519Z" fill="white"/>
<path d="M33.3405 52.6755C32.8299 52.6755 32.3192 52.5272 31.8704 52.2389C30.1737 52.3295 28.5429 51.5924 27.5216 50.2416C26.7021 49.1545 26.3521 47.8161 26.5415 46.4694C26.7062 45.304 27.2498 44.2539 28.0981 43.4591C27.8634 42.2442 28.3288 40.9594 29.3542 40.1851C30.6637 39.1968 32.4757 39.3286 33.6288 40.4199C35.0619 39.7692 36.8121 40.1687 37.8005 41.4782C38.4841 42.3801 38.6571 43.5455 38.3358 44.5792C38.6488 44.7769 38.9247 45.0322 39.1553 45.3369C40.1972 46.7165 39.9213 48.6891 38.5417 49.731C37.7922 50.2993 36.841 50.4805 35.9597 50.2828C35.8855 51.0117 35.519 51.6912 34.9178 52.1442C34.4442 52.5025 33.8882 52.6755 33.3323 52.6755H33.3405ZM32.1792 50.1428C32.4428 50.1428 32.6981 50.2416 32.8917 50.427C33.0811 50.6082 33.4147 50.707 33.6906 50.5011C33.9418 50.3117 33.9624 50.0151 33.9006 49.8175C33.81 49.5127 33.8635 49.1833 34.0489 48.9238C34.1683 48.755 34.2671 48.582 34.3495 48.405C34.4813 48.1084 34.7489 47.8902 35.066 47.8202C35.3831 47.7502 35.7167 47.8325 35.9638 48.0467C36.3427 48.3761 36.911 48.3926 37.3145 48.092C37.7881 47.7337 37.8828 47.0583 37.5246 46.5806C37.3475 46.3459 37.0798 46.1976 36.7751 46.1647C36.3921 46.1235 36.0667 45.8764 35.9226 45.5181C35.7826 45.1599 35.8526 44.7522 36.1038 44.4639C36.5321 43.9738 36.5568 43.2408 36.1656 42.7219C35.7043 42.1124 34.8354 41.993 34.2301 42.4501C34.2218 42.4584 34.2053 42.4748 34.193 42.4913L34.1189 42.5654C33.8841 42.7919 33.5547 42.8908 33.2335 42.8331C32.9122 42.7755 32.6363 42.5737 32.4881 42.2813C32.4469 42.1948 32.4057 42.1289 32.3645 42.0754C31.9486 41.5235 31.1579 41.4165 30.6061 41.8324C30.1284 42.1948 29.9719 42.8455 30.2355 43.3849C30.4578 43.8462 30.3137 44.398 29.8895 44.6863C29.8401 44.7192 29.7907 44.748 29.7413 44.7769C29.1112 45.2628 28.7035 45.967 28.5923 46.7577C28.4811 47.5607 28.687 48.3597 29.1771 49.0062C29.836 49.8792 30.9355 50.324 32.0392 50.1634C32.0886 50.1552 32.138 50.151 32.1875 50.151L32.1792 50.1428Z" fill="#40B4E5"/>
<path d="M37.907 27.1262C37.6187 27.1262 37.3304 27.0027 37.1245 26.7679C36.7539 26.3355 36.8033 25.6849 37.2357 25.3184C37.2769 25.2813 41.4156 21.7315 43.1576 19.8907C44.5413 18.4328 46.8227 15.0436 49.4625 11.119C50.1378 10.1183 50.8379 9.07642 51.5586 8.01806C53.0988 5.74897 54.3466 4.36527 55.1702 3.45104C55.475 3.11336 55.8085 2.74272 55.9732 2.51211C55.615 2.17442 55.2073 2.0344 54.6925 2.06735C52.3575 2.2156 49.0054 5.6666 47.391 7.68037C47.0369 8.12513 46.3862 8.19514 45.9456 7.84098C45.5008 7.48682 45.4308 6.83615 45.785 6.39551C46.6045 5.3701 50.8832 0.247132 54.5648 0.0123982C55.6644 -0.0617283 56.6527 0.300668 57.4311 1.05429C58.8601 2.43386 57.8099 3.59518 56.7022 4.8265C55.9156 5.69955 54.7255 7.01735 53.2635 9.17114C52.5428 10.2295 51.8469 11.2673 51.1715 12.268C48.367 16.4314 46.1556 19.7218 44.6525 21.3073C42.8364 23.2263 38.7471 26.735 38.5741 26.8833C38.3806 27.048 38.1417 27.1303 37.9029 27.1303L37.907 27.1262Z" fill="white"/>
<path d="M1.02944 47.3296C0.71646 47.3296 0.403482 47.1855 0.201693 46.9137C-0.135994 46.4566 -0.0453953 45.8142 0.411718 45.4765C0.457018 45.4435 1.5648 44.6199 4.97462 42.6144C7.36725 41.206 8.83743 39.9499 9.43868 39.394C9.33984 37.3432 9.3975 29.5352 14.9158 20.3641C21.1012 10.0852 26.7143 4.03976 26.949 3.78855C27.159 3.56206 27.4555 3.44263 27.7644 3.46322C27.9332 3.47558 29.457 3.60324 30.4577 4.90869C31.2195 5.90116 31.4378 7.23956 31.1083 8.89093C30.7212 10.8347 29.3952 13.1903 27.995 15.6817C26.3725 18.5686 24.5317 21.8425 24.1157 24.6469C24.091 24.8075 24.0787 24.9393 24.0745 25.0423C25.0464 24.614 27.0767 22.9379 28.4768 21.7766C30.3712 20.2076 32.3314 18.5891 33.8592 17.8644C35.2759 17.1931 38.1133 15.1011 43.5945 8.9527C43.9734 8.52853 44.6241 8.49147 45.0482 8.87034C45.4724 9.24921 45.5095 9.89987 45.1306 10.324C40.5471 15.4676 37.0508 18.6303 34.7405 19.7258C33.4433 20.3394 31.586 21.8795 29.7905 23.3662C26.2407 26.3024 24.3175 27.8014 22.8926 26.9943C21.7807 26.3683 22.0072 24.8446 22.0814 24.3463C22.5508 21.1671 24.4905 17.7161 26.2036 14.6728C27.5214 12.3296 28.7692 10.114 29.0904 8.48735C29.2963 7.4537 29.214 6.67537 28.8392 6.17708C28.6168 5.88057 28.3121 5.71584 28.065 5.62524C26.6854 7.1819 21.8302 12.8691 16.6825 21.4265C10.7524 31.2771 11.5142 39.6122 11.5225 39.6946C11.5513 39.9911 11.4524 40.2876 11.2465 40.5059C11.1765 40.58 9.50457 42.3385 6.0165 44.3893C2.73435 46.3207 1.65128 47.1196 1.64304 47.1278C1.45773 47.2637 1.24358 47.3296 1.02944 47.3296Z" fill="white"/>
</svg>
