<svg width="64" height="63" viewBox="0 0 64 63" fill="none" xmlns="http://www.w3.org/2000/svg">
<g clip-path="url(#clip0_441_198)">
<path d="M55.7185 25.3712C56.571 25.47 57.1681 25.7212 56.9169 26.1207C56.6657 26.5201 50.3649 33.4221 49.463 34.6246C48.5612 35.823 44.5625 40.5753 45.9132 41.4278C47.264 42.2803 53.4123 32.6768 53.4123 32.6768L59.5648 25.573L59.4619 23.8228L55.7103 25.3753L55.7185 25.3712Z" fill="#B4D6F1" fill-opacity="0.5"/>
<path d="M58.9223 12.4196C58.9223 12.4196 60.2731 12.2219 60.5243 12.7696C60.7714 13.3174 58.5723 15.8706 58.5723 15.8706C58.5723 15.8706 52.8563 22.9703 51.7032 24.3704C50.5543 25.7706 44.6695 33.7722 44.27 34.324C43.8705 34.8717 43.6193 35.823 44.0188 36.2719C44.4183 36.7207 51.5715 27.2202 51.5715 27.2202L59.1241 18.1685L62.9252 13.0167C62.9252 13.0167 64.07 11.4642 62.0727 11.2665C60.0754 11.0689 58.9265 12.4196 58.9265 12.4196" fill="#B4D6F1" fill-opacity="0.5"/>
<path d="M41.7003 32.7756C41.7003 32.7756 47.7169 25.7006 50.3155 21.6978C52.9181 17.6991 58.317 9.59457 59.12 8.39619C59.919 7.1937 61.9616 5.58762 60.5243 4.36865C59.223 3.26911 56.4721 4.57044 56.4721 4.57044C56.4721 4.57044 58.9224 4.57044 58.7247 5.76882C58.5229 6.9672 50.6573 18.2221 49.1212 20.6229C47.5851 23.0238 42.1039 29.5758 41.4368 30.5765C40.7696 31.5772 41.7044 32.7756 41.7044 32.7756" fill="#B4D6F1" fill-opacity="0.5"/>
<path d="M51.0361 4.03509C52.3704 3.76741 53.437 3.63563 53.3052 4.57044C53.1734 5.50526 48.3717 11.9048 48.3717 11.9048C48.3717 11.9048 44.5253 17.4808 42.771 19.7087C41.0373 21.9078 35.972 25.7789 37.0345 27.2449C38.101 28.711 40.3701 24.7123 40.3701 24.7123L47.9722 16.3113L53.3093 8.04203L57.271 3.77564L55.039 1.91013L51.0402 4.04332L51.0361 4.03509Z" fill="#B4D6F1" fill-opacity="0.5"/>
<path d="M25.1618 8.30146C25.1618 8.30146 26.8956 8.43736 26.4961 10.7023C26.0966 12.9714 22.2297 20.0382 22.2297 20.0382C22.2297 20.0382 19.4294 25.7706 22.2297 27.3726C25.03 28.9745 23.4322 24.1728 23.4322 24.1728L26.1008 17.905L29.5682 11.5054L29.9677 7.10308L27.7068 5.49289L25.1659 8.30558L25.1618 8.30146Z" fill="#B4D6F1" fill-opacity="0.5"/>
<path d="M41.2555 39.5334C45.5301 44.3064 45.1266 51.6408 40.3536 55.9195C35.5807 60.1942 28.2463 59.7906 23.9717 55.0176C23.9717 55.0176 31.4255 60.6924 38.9535 53.9552C46.0573 47.5926 41.2596 39.5376 41.2596 39.5376" fill="#B4D6F1" fill-opacity="0.5"/>
<path d="M31.3761 33.8834C31.0425 33.8834 30.7048 33.8381 30.3712 33.7516C28.2834 33.2039 27.0356 31.0583 27.5833 28.9704C27.8509 27.9615 28.4934 27.1131 29.3952 26.586C30.2971 26.0589 31.3514 25.9148 32.3644 26.1824C33.3734 26.4501 34.2217 27.0925 34.7488 27.9944C35.2759 28.8963 35.4201 29.9505 35.1524 30.9636C34.8847 31.9767 34.2423 32.8209 33.3404 33.348C32.7351 33.7022 32.0597 33.8834 31.3761 33.8834ZM31.3637 28.1138C31.0384 28.1138 30.7213 28.2003 30.433 28.365C30.0047 28.6163 29.7 29.0157 29.5723 29.4934C29.3129 30.4818 29.9059 31.499 30.8942 31.7584C31.372 31.8861 31.8744 31.816 32.3027 31.569C32.7309 31.3178 33.0357 30.9183 33.1633 30.4406C33.291 29.9629 33.221 29.4605 32.9739 29.0322C32.7227 28.6039 32.3232 28.2992 31.8455 28.1715C31.6891 28.1303 31.5284 28.1097 31.372 28.1097L31.3637 28.1138Z" fill="#40B4E5"/>
<path d="M19.7753 38.5121C19.5612 38.5121 19.347 38.4833 19.137 38.4298C18.4946 38.2609 17.9592 37.8532 17.6257 37.2808C17.2921 36.7084 17.2015 36.0371 17.3703 35.3947C17.7204 34.0687 19.0794 33.2739 20.4054 33.6239C21.0478 33.7927 21.5832 34.2004 21.9209 34.7729C22.2545 35.3453 22.3451 36.0165 22.1762 36.659C22.0074 37.3014 21.5997 37.8409 21.0231 38.1744C20.6401 38.3968 20.2119 38.5121 19.7753 38.5121ZM19.3594 35.9218C19.3182 36.0701 19.3718 36.1895 19.4047 36.243C19.4376 36.3007 19.5159 36.3995 19.6641 36.4407C19.8124 36.4778 19.9318 36.4325 19.9854 36.3954C20.043 36.3625 20.1418 36.2842 20.183 36.136C20.2201 35.9877 20.1707 35.8724 20.1377 35.8147C20.1048 35.7571 20.0265 35.6583 19.8783 35.6171C19.6518 35.5553 19.4171 35.6953 19.3594 35.9177V35.9218Z" fill="#40B4E5"/>
<path d="M46.6338 42.272C46.4155 42.272 46.1973 42.202 46.0078 42.062C45.5548 41.716 45.4683 41.0695 45.8143 40.6206C48.2852 37.3879 50.4184 34.7687 52.3333 32.6232C52.7204 32.1908 53.1199 31.746 53.5234 31.3013C55.3231 29.3081 58.2469 26.063 58.6793 24.8523C57.135 24.461 52.2756 28.6615 48.627 33.0391C48.2646 33.4756 47.6139 33.5333 47.1774 33.1709C46.7409 32.8085 46.6832 32.1578 47.0456 31.7213C49.2735 29.0486 56.8015 20.5488 60.2278 23.3862C60.5572 23.658 60.7549 24.0492 60.7837 24.494C60.8949 26.0259 59.0335 28.2744 55.0513 32.685C54.6518 33.1297 54.2523 33.5704 53.8694 34.0028C51.9874 36.1071 49.8871 38.6851 47.4492 41.8766C47.2474 42.1402 46.9385 42.2802 46.6297 42.2802L46.6338 42.272Z" fill="#065BAA"/>
<path d="M14.3558 61.6108C13.9234 61.6108 13.5198 61.3349 13.3798 60.9025C13.2027 60.363 13.4951 59.7823 14.0346 59.6052C14.0346 59.6052 15.8672 58.9793 21.472 56.146C21.9785 55.8866 22.6003 56.0925 22.8557 56.599C23.111 57.1055 22.9092 57.7274 22.4027 57.9827C16.6002 60.9189 14.7594 61.5366 14.6853 61.5614C14.5782 61.5984 14.4711 61.6149 14.3641 61.6149L14.3558 61.6108Z" fill="#065BAA"/>
<path d="M44.9618 36.9061C44.7395 36.9061 44.513 36.8319 44.3235 36.6837C43.8788 36.3295 43.8005 35.683 44.1547 35.2382C44.2535 35.1147 54.0012 22.7808 57.3657 18.6256C57.9999 17.8432 58.6258 17.1061 59.1818 16.4554C60.4625 14.9523 62.0562 13.0826 61.9368 12.4649C61.9244 12.3949 61.7886 12.2837 61.5909 12.1808C60.5037 11.6125 58.041 13.4491 56.7191 14.8699C56.332 15.2858 55.6814 15.3105 55.2654 14.9234C54.8495 14.5363 54.8248 13.8857 55.2119 13.4697C55.6566 12.992 59.6306 8.83683 62.5463 10.3564C63.3452 10.7724 63.8188 11.3489 63.9588 12.0737C64.2677 13.6633 62.8675 15.3064 60.7508 17.7897C60.1784 18.4609 59.5853 19.1569 58.9676 19.9187C55.6072 24.0657 45.8678 36.3913 45.7731 36.5148C45.5713 36.7702 45.2666 36.9061 44.966 36.9061H44.9618Z" fill="#065BAA"/>
<path d="M42.2604 33.105C42.005 33.105 41.7538 33.0144 41.5562 32.825C41.1402 32.4338 41.1238 31.7831 41.5109 31.3713C41.5726 31.3054 47.8775 24.5887 50.3978 20.7135C51.5221 18.9798 53.9394 15.3064 59.0459 7.64258L59.2065 7.39961C59.3795 7.13604 59.5813 6.88072 59.7748 6.62951C60.8085 5.29936 60.6808 5.19228 60.3967 4.95343C59.6842 4.35218 58.0534 4.61986 57.5345 4.75988C56.9868 4.90813 56.4185 4.59104 56.2703 4.04332C56.1179 3.49561 56.4391 2.93143 56.9827 2.77905C57.2916 2.69257 60.059 1.9719 61.7268 3.38442C63.6459 5.00697 62.1263 6.95897 61.3974 7.8979C61.2203 8.12852 61.0473 8.34678 60.9155 8.54445L60.7549 8.78742C55.6526 16.443 53.2434 20.1123 52.1192 21.8378C49.5001 25.8695 43.2693 32.5038 43.0058 32.7838C42.804 32.998 42.528 33.1091 42.2563 33.1091L42.2604 33.105Z" fill="#065BAA"/>
<path d="M33.1222 60.5607C31.2113 60.5607 29.3129 60.1324 27.5421 59.2758C24.4452 57.785 22.1144 55.1741 20.9819 51.929C19.8494 48.6839 20.0471 45.1918 21.5378 42.0949C24.6223 35.7036 32.3274 33.0103 38.7187 36.0907C45.1101 39.171 47.8033 46.8802 44.723 53.2716C43.2322 56.3684 40.6213 58.6993 37.3762 59.8318C35.9884 60.3177 34.5512 60.5565 33.1222 60.5565V60.5607ZM33.1469 36.8731C29.1234 36.8731 25.2524 39.1257 23.391 42.9886C22.1391 45.5912 21.9702 48.5233 22.9256 51.2495C23.8811 53.9758 25.8372 56.1666 28.4357 57.4226C31.0384 58.6746 33.9705 58.8434 36.6967 57.8921C39.4229 56.9408 41.6138 54.9847 42.8698 52.382C45.4601 47.012 43.1951 40.5383 37.8292 37.948C36.322 37.2191 34.7241 36.8772 33.151 36.8772L33.1469 36.8731Z" fill="#065BAA"/>
<path d="M57.5469 62.8051C57.061 62.8051 56.5668 62.698 56.0974 62.4715L47.4122 58.2833C45.7485 57.4844 45.0484 55.4789 45.8514 53.8152C46.6545 52.1555 48.66 51.4555 50.3196 52.2544L59.0048 56.4425C59.8119 56.8296 60.4173 57.5091 60.7097 58.3533C60.9773 59.1152 60.9609 59.9306 60.6685 60.676V60.6966L60.5655 60.9107C59.989 62.105 58.7906 62.8009 57.5469 62.8009V62.8051ZM48.87 53.984C48.3923 53.984 47.9311 54.2517 47.7087 54.7129C47.3998 55.3512 47.6716 56.1213 48.31 56.4302L56.9951 60.6183C57.304 60.7666 57.654 60.7872 57.9793 60.676C58.2923 60.5648 58.5476 60.3465 58.7 60.05L58.7165 60.0171C58.8647 59.7082 58.8853 59.3582 58.7741 59.0328C58.6588 58.7075 58.4282 58.4481 58.1194 58.2998L49.4342 54.1117C49.2571 54.0252 49.0636 53.984 48.8783 53.984H48.87Z" fill="#065BAA"/>
<path d="M44.342 51.9516L43.4478 53.8063L46.5118 55.2836L47.406 53.4288L44.342 51.9516Z" fill="#065BAA"/>
<path d="M33.3405 53.6751C32.8299 53.6751 32.3192 53.5269 31.8704 53.2386C30.1737 53.3292 28.5429 52.5921 27.5216 51.2413C26.7021 50.1541 26.3521 48.8157 26.5415 47.4691C26.7062 46.3037 27.2498 45.2535 28.0981 44.4587C27.8634 43.2439 28.3288 41.959 29.3542 41.1848C30.6637 40.1965 32.4757 40.3282 33.6288 41.4195C35.0619 40.7689 36.8121 41.1683 37.8005 42.4779C38.4841 43.3798 38.6571 44.5452 38.3358 45.5789C38.6488 45.7765 38.9247 46.0319 39.1553 46.3366C40.1972 47.7162 39.9213 49.6888 38.5417 50.7307C37.7922 51.299 36.841 51.4802 35.9597 51.2825C35.8855 52.0114 35.519 52.6909 34.9178 53.1439C34.4442 53.5022 33.8882 53.6751 33.3323 53.6751H33.3405ZM32.1792 51.1425C32.4428 51.1425 32.6981 51.2413 32.8917 51.4266C33.0811 51.6078 33.4147 51.7067 33.6906 51.5007C33.9418 51.3113 33.9624 51.0148 33.9006 50.8171C33.81 50.5124 33.8635 50.1829 34.0489 49.9235C34.1683 49.7547 34.2671 49.5817 34.3495 49.4046C34.4813 49.1081 34.7489 48.8899 35.066 48.8198C35.3831 48.7498 35.7167 48.8322 35.9638 49.0463C36.3427 49.3758 36.911 49.3923 37.3145 49.0916C37.7881 48.7334 37.8828 48.058 37.5246 47.5803C37.3475 47.3455 37.0798 47.1973 36.7751 47.1644C36.3921 47.1232 36.0667 46.8761 35.9226 46.5178C35.7826 46.1595 35.8526 45.7518 36.1038 45.4636C36.5321 44.9735 36.5568 44.2405 36.1656 43.7216C35.7043 43.1121 34.8354 42.9927 34.2301 43.4498C34.2218 43.458 34.2053 43.4745 34.193 43.491L34.1189 43.5651C33.8841 43.7916 33.5547 43.8904 33.2335 43.8328C32.9122 43.7751 32.6363 43.5733 32.4881 43.2809C32.4469 43.1945 32.4057 43.1286 32.3645 43.075C31.9486 42.5232 31.1579 42.4161 30.6061 42.8321C30.1284 43.1945 29.9719 43.8451 30.2355 44.3846C30.4578 44.8458 30.3137 45.3977 29.8895 45.6859C29.8401 45.7189 29.7907 45.7477 29.7413 45.7765C29.1112 46.2625 28.7035 46.9667 28.5923 47.7574C28.4811 48.5604 28.687 49.3593 29.1771 50.0059C29.836 50.8789 30.9355 51.3237 32.0392 51.1631C32.0886 51.1548 32.138 51.1507 32.1875 51.1507L32.1792 51.1425Z" fill="#40B4E5"/>
<path d="M37.9075 28.1262C37.6192 28.1262 37.3309 28.0026 37.125 27.7679C36.7544 27.3355 36.8038 26.6848 37.2362 26.3183C37.2774 26.2813 41.4161 22.7314 43.1581 20.8906C44.5418 19.4328 46.8232 16.0436 49.463 12.119C50.1383 11.1183 50.8384 10.0764 51.5591 9.01803C53.0993 6.74893 54.3471 5.36524 55.1707 4.45101C55.4754 4.11333 55.809 3.74269 55.9737 3.51208C55.6155 3.17439 55.2078 3.03437 54.693 3.06732C52.358 3.21557 49.0058 6.66657 47.3915 8.68034C47.0374 9.1251 46.3867 9.19511 45.9461 8.84095C45.5013 8.48679 45.4313 7.83612 45.7855 7.39548C46.605 6.37007 50.8837 1.2471 54.5653 1.01237C55.6649 0.938241 56.6532 1.30064 57.4316 2.05426C58.8606 3.43383 57.8104 4.59515 56.7027 5.82647C55.9161 6.69952 54.7259 8.01732 53.264 10.1711C52.5433 11.2295 51.8474 12.2672 51.172 13.2679C48.3675 17.4314 46.1561 20.7218 44.653 22.3073C42.8369 24.2263 38.7476 27.735 38.5746 27.8832C38.381 28.0479 38.1422 28.1303 37.9033 28.1303L37.9075 28.1262Z" fill="#065BAA"/>
<path d="M1.02956 48.3298C0.716582 48.3298 0.403604 48.1857 0.201815 47.9139C-0.135872 47.4567 -0.0452732 46.8143 0.41184 46.4766C0.45714 46.4437 1.56492 45.6201 4.97474 43.6145C7.36738 42.2061 8.83755 40.9501 9.4388 40.3941C9.33997 38.3433 9.39762 30.5353 14.9159 21.3642C21.1014 11.0853 26.7144 5.03991 26.9491 4.78871C27.1592 4.56221 27.4557 4.44278 27.7645 4.46337C27.9334 4.47573 29.4571 4.60339 30.4578 5.90884C31.2196 6.90131 31.4379 8.23971 31.1084 9.89108C30.7213 11.8348 29.3953 14.1904 27.9951 16.6819C26.3726 19.5687 24.5318 22.8426 24.1158 25.6471C24.0911 25.8077 24.0788 25.9395 24.0747 26.0424C25.0465 25.6141 27.0768 23.9381 28.477 22.7767C30.3713 21.2077 32.3315 19.5893 33.8594 18.8645C35.276 18.1932 38.1134 16.1012 43.5946 9.95285C43.9735 9.52869 44.6242 9.49162 45.0483 9.87049C45.4725 10.2494 45.5096 10.9 45.1307 11.3242C40.5472 16.4677 37.0509 19.6305 34.7406 20.7259C33.4434 21.3395 31.5861 22.8797 29.7906 24.3663C26.2408 27.3026 24.3176 28.8016 22.8928 27.9944C21.7809 27.3685 22.0074 25.8448 22.0815 25.3465C22.551 22.1673 24.4906 18.7163 26.2037 15.6729C27.5215 13.3297 28.7693 11.1142 29.0906 9.4875C29.2965 8.45385 29.2141 7.67552 28.8394 7.17723C28.617 6.88072 28.3122 6.716 28.0651 6.6254C26.6856 8.18205 21.8303 13.8692 16.6826 22.4267C10.7525 32.2773 11.5143 40.6124 11.5226 40.6948C11.5514 40.9913 11.4526 41.2878 11.2467 41.506C11.1767 41.5802 9.50469 43.3386 6.01663 45.3894C2.73447 47.3208 1.6514 48.1198 1.64316 48.128C1.45785 48.2639 1.2437 48.3298 1.02956 48.3298Z" fill="#065BAA"/>
</g>
<defs>
<clipPath id="clip0_441_198">
<rect width="64" height="64" fill="white"/>
</clipPath>
</defs>
</svg>
