<svg width="64" height="64" viewBox="0 0 64 64" fill="none" xmlns="http://www.w3.org/2000/svg">
<g clip-path="url(#clip0_3931_6743)">
<path d="M43.7891 57.1602C43.7891 57.1602 52.6391 63.3302 59.7891 57.1602C59.7891 57.1602 56.1991 62.8902 47.9091 60.3502C47.9091 60.3502 44.0691 58.9102 43.7891 57.1602Z" fill="#B4D6F1" fill-opacity="0.5"/>
<path fill-rule="evenodd" clip-rule="evenodd" d="M34.133 31.8164C34.0365 31.9444 33.9376 32.0737 33.838 32.2003L33.8362 32.2026C32.8129 33.4965 31.6953 34.6217 30.5288 35.5726C31.5618 35.7655 32.8139 35.843 34.1803 35.7497L34.1827 35.7495C36.0916 35.6239 37.7539 35.1946 38.8933 34.6402C39.4654 34.3618 39.8594 34.0743 40.0927 33.8192C40.3239 33.5664 40.3387 33.4156 40.3356 33.3614L40.3355 33.3609C40.3323 33.3043 40.3013 33.1611 40.0496 32.9467C39.7933 32.7283 39.3735 32.4976 38.7752 32.2989C37.6167 31.9141 35.9796 31.7118 34.133 31.8164ZM42.3323 33.2467C42.2884 32.4803 41.8693 31.8696 41.3468 31.4244C40.8289 30.9831 40.1504 30.6482 39.4056 30.4008C37.9108 29.9043 35.943 29.6923 33.8425 29.8305C33.825 29.8316 33.8075 29.8332 33.79 29.8353C33.6635 29.8504 33.6363 29.8534 33.6032 29.8534C33.2855 29.8534 32.9866 30.0044 32.7982 30.2602C32.6244 30.4959 32.4443 30.737 32.2666 30.9632C30.9006 32.69 29.3612 34.074 27.7872 35.1071C27.4846 35.3057 27.313 35.6523 27.3384 36.0133C27.3639 36.3744 27.5824 36.6935 27.9099 36.8477C29.4775 37.5861 31.8227 37.9151 34.3152 37.7451C36.4179 37.6067 38.3449 37.1312 39.7684 36.4385C40.4779 36.0933 41.1089 35.6715 41.5685 35.169C42.03 34.6645 42.3759 34.0095 42.3323 33.2471" fill="#40B4E5"/>
<path fill-rule="evenodd" clip-rule="evenodd" d="M27.624 15.3715C25.0243 16.097 22.2477 17.8725 19.9596 20.5697C17.6719 23.2666 16.3666 26.3053 16.0667 29.0031C15.7659 31.7085 16.4771 33.9529 18.0514 35.2983C19.6251 36.6432 21.9399 36.9898 24.5459 36.2626C27.1456 35.5371 29.9222 33.7616 32.2103 31.0644C34.498 28.3675 35.8033 25.3288 36.1032 22.631C36.404 19.9256 35.6928 17.6811 34.1185 16.3357C32.5448 14.9909 30.23 14.6442 27.624 15.3715ZM27.0865 13.4451C30.115 12.5999 33.1863 12.9082 35.4179 14.8153C37.6489 16.7219 38.4395 19.7168 38.091 22.852C37.7416 25.9948 36.2466 29.3979 33.7354 32.3581C31.2245 35.3181 28.1182 37.3421 25.0834 38.189C22.0549 39.0341 18.9836 38.7259 16.752 36.8187C14.521 34.9121 13.7304 31.9173 14.0789 28.7821C14.4283 25.6393 15.9233 22.2361 18.4345 19.2759C20.9454 16.316 24.0517 14.2919 27.0865 13.4451Z" fill="#065BAA"/>
<path fill-rule="evenodd" clip-rule="evenodd" d="M28.347 21.6878C27.2912 22.2703 26.0212 23.3253 24.8258 24.7361C23.63 26.1473 22.7928 27.577 22.3868 28.7184C22.1825 29.2928 22.1059 29.7425 22.1138 30.0536C22.1177 30.2051 22.141 30.2998 22.1614 30.3522C22.1712 30.3773 22.1797 30.3913 22.1842 30.3979C22.1885 30.4042 22.191 30.4063 22.1918 30.407C22.1931 30.408 22.196 30.4104 22.2032 30.4138C22.2108 30.4174 22.2263 30.4236 22.2528 30.4292C22.3078 30.441 22.4048 30.4488 22.5541 30.4285C22.8607 30.3867 23.2899 30.2398 23.8211 29.9467C24.877 29.3642 26.1469 28.3092 27.3423 26.8984C28.5385 25.4867 29.3756 24.0598 29.7814 22.92C29.9856 22.3466 30.0622 21.8973 30.0543 21.5856C30.0504 21.4339 30.027 21.3381 30.0062 21.2843C29.9915 21.2464 29.9792 21.231 29.9742 21.2259C29.9724 21.2246 29.9695 21.2229 29.9649 21.2207C29.9573 21.2171 29.9418 21.2109 29.9153 21.2053C29.8603 21.1936 29.7633 21.1857 29.6141 21.2061C29.3074 21.2478 28.8782 21.3947 28.347 21.6878ZM29.3442 19.2243C29.98 19.1378 30.6983 19.2172 31.2703 19.7025L31.2747 19.7063L31.2747 19.7063C31.844 20.1951 32.0372 20.8917 32.0536 21.5347C32.07 22.1782 31.9173 22.8841 31.6655 23.591C31.1596 25.0116 30.1787 26.6447 28.8682 28.1913C27.5569 29.7389 26.1055 30.9705 24.7873 31.6978C24.1315 32.0597 23.4604 32.3235 22.8239 32.4102C22.1881 32.4967 21.4698 32.4173 20.8978 31.932C20.324 31.4451 20.1309 30.7464 20.1145 30.1046C20.0981 29.4617 20.2509 28.7554 20.5025 28.0481C21.0082 26.6264 21.9889 24.9903 23.2999 23.4432C24.6112 21.8956 26.0626 20.664 27.3808 19.9367C28.0367 19.5748 28.7077 19.311 29.3442 19.2243Z" fill="#40B4E5"/>
<path fill-rule="evenodd" clip-rule="evenodd" d="M35.635 24.5338C35.761 24.0564 36.2167 23.7424 36.7077 23.7947C39.8045 24.1245 42.5946 25.1501 44.6709 26.6967C46.7491 28.2448 48.1605 30.3595 48.3212 32.829L48.3213 32.8299C48.5092 35.7597 46.8904 38.3999 44.3767 40.314C41.8566 42.233 38.3463 43.5074 34.4484 43.748C28.4242 44.1204 22.8821 41.9183 20.4933 38.1809C20.2928 37.8671 20.2832 37.4678 20.4685 37.1447C20.6538 36.8217 21.0033 36.6284 21.3755 36.6431C24.68 36.7739 28.8262 34.8502 32.0534 31.1075C33.8586 29.0119 35.0604 26.7096 35.635 24.5338ZM37.3194 25.8905C36.5963 28.1146 35.3303 30.3679 33.5687 32.4128L33.5684 32.4132C30.6436 35.8052 26.898 37.9813 23.3744 38.5189C25.6717 40.6557 29.6857 42.0386 34.325 41.7519L34.3251 41.7519C37.8832 41.5322 41.0009 40.3707 43.1651 38.7228C45.3354 37.0701 46.4569 35.0127 46.3254 32.9586C46.212 31.2187 45.2142 29.5953 43.4761 28.3006C41.9084 27.1329 39.778 26.2689 37.3194 25.8905Z" fill="#065BAA"/>
<path fill-rule="evenodd" clip-rule="evenodd" d="M10.0844 10.7639C10.502 11.1253 10.5476 11.7568 10.1862 12.1744C5.70794 17.349 3 24.1086 3 31.5C3 47.7912 16.1657 61 32.39 61C36.6271 61 40.649 60.1006 44.2841 58.4861C44.7888 58.2619 45.3797 58.4894 45.6039 58.9941C45.8281 59.4989 45.6007 60.0898 45.0959 60.3139C41.211 62.0394 36.9129 63 32.39 63C15.0543 63 1 48.8889 1 31.5C1 23.6114 3.89206 16.391 8.67385 10.8656C9.03526 10.448 9.66678 10.4025 10.0844 10.7639Z" fill="#065BAA"/>
<path fill-rule="evenodd" clip-rule="evenodd" d="M32.3892 2C25.0106 2 18.2719 4.72599 13.1067 9.23345C12.6906 9.59658 12.0589 9.55362 11.6958 9.1375C11.3327 8.72139 11.3756 8.08968 11.7917 7.72655C17.3065 2.91401 24.5079 0 32.3892 0C49.7352 0 63.7792 14.1114 63.7792 31.5C63.7792 36.0324 62.8189 40.349 61.1048 44.2521C60.8828 44.7578 60.2928 44.9877 59.7871 44.7656C59.2815 44.5435 59.0516 43.9536 59.2736 43.4479C60.8796 39.791 61.7792 35.7476 61.7792 31.5C61.7792 15.2086 48.6233 2 32.3892 2Z" fill="#065BAA"/>
<path fill-rule="evenodd" clip-rule="evenodd" d="M50.3891 39.9399C50.3891 39.3877 50.8368 38.9399 51.3891 38.9399H51.7891C58.4143 38.9399 63.7891 44.3306 63.7891 50.9799C63.7891 57.6299 58.4237 63.0099 51.7891 63.0099C45.1538 63.0099 39.7891 57.6193 39.7891 50.9799C39.7891 46.1054 42.6695 41.9175 46.8236 40.0203C47.326 39.7909 47.9193 40.0121 48.1487 40.5145C48.3781 41.0169 48.1569 41.6101 47.6545 41.8396C44.1886 43.4224 41.7891 46.9145 41.7891 50.9799C41.7891 56.5206 46.2643 61.0099 51.7891 61.0099C57.3144 61.0099 61.7891 56.53 61.7891 50.9799C61.7891 45.4293 57.3038 40.9399 51.7891 40.9399H51.3891C50.8368 40.9399 50.3891 40.4922 50.3891 39.9399Z" fill="#065BAA"/>
<path fill-rule="evenodd" clip-rule="evenodd" d="M51.7886 49.9902C51.2442 49.9902 50.8086 50.4292 50.8086 50.9702C50.8086 51.5112 51.2442 51.9502 51.7886 51.9502C52.3363 51.9502 52.7686 51.5179 52.7686 50.9702C52.7686 50.4292 52.333 49.9902 51.7886 49.9902ZM48.8086 50.9702C48.8086 49.3312 50.133 47.9902 51.7886 47.9902C53.4442 47.9902 54.7686 49.3312 54.7686 50.9702C54.7686 52.6225 53.4409 53.9502 51.7886 53.9502C50.133 53.9502 48.8086 52.6092 48.8086 50.9702Z" fill="#40B4E5"/>
<path fill-rule="evenodd" clip-rule="evenodd" d="M50.0067 43.8651C50.8625 42.5814 52.745 42.5814 53.6008 43.8651L53.6029 43.8683L54.0108 44.4851C54.011 44.4854 54.0112 44.4857 54.0114 44.486C54.0233 44.5037 54.0455 44.5283 54.1038 44.5512C54.2966 44.6197 54.4877 44.6984 54.677 44.7868C54.7462 44.8152 54.7851 44.8125 54.8015 44.8095C54.8019 44.8094 54.8023 44.8093 54.8026 44.8093L55.535 44.6588C57.0543 44.3587 58.3654 45.7069 58.0698 47.2036L58.0683 47.2111L57.9183 47.9411L57.9177 47.9438C57.9125 47.9689 57.9153 48.0057 57.9309 48.0384L57.9336 48.044C58.0276 48.2438 58.1131 48.4505 58.1874 48.6736C58.1974 48.7034 58.219 48.7312 58.2427 48.7473C58.2424 48.7471 58.2429 48.7475 58.2427 48.7473L58.8635 49.1578C60.1472 50.0136 60.1472 51.9061 58.8635 52.7619L58.8603 52.764L58.2605 53.1607C58.2255 53.1877 58.1998 53.2201 58.1795 53.2697C58.1092 53.4773 58.0292 53.6709 57.9418 53.8581C57.9134 53.9273 57.9161 53.9662 57.9191 53.9826C57.9192 53.983 57.9193 53.9834 57.9193 53.9837L58.0674 54.7044C58.0676 54.7052 58.0677 54.706 58.0679 54.7067C58.385 56.2255 57.0389 57.558 55.535 57.2609L55.5275 57.2594L54.8026 57.1104C54.8021 57.1103 54.8016 57.1102 54.8011 57.1101C54.7624 57.1026 54.7341 57.1066 54.7045 57.12C54.5062 57.2184 54.2993 57.3033 54.0848 57.3753C54.075 57.379 54.0611 57.3861 54.0462 57.3976C54.0305 57.4097 54.0188 57.4228 54.0113 57.4338C54.0111 57.434 54.0115 57.4335 54.0113 57.4338L53.6029 58.0514L53.6008 58.0545C52.745 59.3383 50.8625 59.3383 50.0067 58.0545L50.0046 58.0514L49.5967 57.4345C49.5965 57.4343 49.5963 57.434 49.5961 57.4337C49.5842 57.416 49.5621 57.3914 49.5037 57.3685C49.3109 57.3 49.1198 57.2213 48.9305 57.1329C48.8613 57.1045 48.8224 57.1071 48.806 57.1102C48.8056 57.1103 48.8052 57.1104 48.8049 57.1104L48.0725 57.2609C46.5532 57.561 45.2421 56.2128 45.5377 54.7161L45.5392 54.7086L45.6892 53.9786L45.6898 53.9759C45.695 53.9508 45.6922 53.914 45.6766 53.8813L45.6739 53.8757C45.5799 53.6759 45.4944 53.4692 45.4201 53.2461C45.4101 53.2163 45.3885 53.1885 45.3648 53.1724C45.3646 53.1722 45.3651 53.1726 45.3648 53.1724L44.7472 52.764L44.744 52.7619C43.4603 51.9061 43.4603 50.0136 44.744 49.1578L44.7472 49.1557L45.347 48.759C45.382 48.732 45.4077 48.6996 45.428 48.65C45.4983 48.4424 45.5783 48.2488 45.6657 48.0616C45.6941 47.9924 45.6914 47.9535 45.6884 47.9371L45.5396 47.2129C45.2225 45.6942 46.5687 44.3617 48.0725 44.6588L48.08 44.6603L48.8065 44.8096C48.8451 44.817 48.8734 44.8131 48.903 44.7997C49.1013 44.7013 49.3082 44.6164 49.5227 44.5444C49.5325 44.5407 49.5464 44.5336 49.5613 44.5221C49.5771 44.51 49.5887 44.4969 49.5962 44.4859C49.596 44.4861 49.5964 44.4856 49.5962 44.4859L50.0046 43.8683L50.0067 43.8651ZM51.6714 44.9737C51.6712 44.974 51.671 44.9743 51.6708 44.9745L51.2629 45.5914L51.2608 45.5945C50.999 45.9873 50.6115 46.2833 50.1773 46.4343L50.165 46.4386C50.0272 46.4845 49.9012 46.5367 49.786 46.5943L49.7702 46.602C49.3418 46.8069 48.8713 46.8622 48.4126 46.7704L48.4075 46.7694L47.6828 46.6205C47.6295 46.6106 47.5806 46.6258 47.5401 46.6665C47.4997 46.707 47.4867 46.7533 47.4974 46.8044L47.4983 46.8086L47.6493 47.5437C47.7461 48.0274 47.6624 48.4854 47.4958 48.8686C47.4919 48.8777 47.4878 48.8867 47.4836 48.8956C47.4176 49.0359 47.3631 49.1692 47.3174 49.3061C47.3135 49.3178 47.3094 49.3294 47.3051 49.341C47.1478 49.7603 46.8774 50.124 46.5 50.3936C46.4902 50.4006 46.4803 50.4073 46.4703 50.414L45.8535 50.8219C45.8532 50.8221 45.8529 50.8223 45.8526 50.8225C45.7575 50.8868 45.7575 51.0329 45.8526 51.0972C45.8529 51.0974 45.8532 51.0976 45.8535 51.0978L46.4703 51.5057L46.4734 51.5078C46.8694 51.7718 47.1675 52.1637 47.3174 52.6136C47.3628 52.7498 47.417 52.8823 47.4825 53.0218C47.6853 53.4478 47.7421 53.9291 47.648 54.3823C47.6479 54.3828 47.6478 54.3833 47.6477 54.3838L47.4994 55.1058C47.4769 55.2272 47.5835 55.3174 47.683 55.2992L48.4126 55.1493C48.8963 55.0525 49.3543 55.1362 49.7375 55.3028C49.7466 55.3067 49.7556 55.3108 49.7645 55.315C49.9055 55.3814 50.0445 55.4385 50.1816 55.4869L50.1999 55.4935C50.616 55.6496 50.993 55.9235 51.2608 56.3251L51.2629 56.3283L51.6708 56.9451C51.671 56.9454 51.6712 56.9457 51.6714 56.946C51.7356 57.0411 51.8719 57.0411 51.9361 56.946C51.9363 56.9457 51.9365 56.9454 51.9367 56.9451L52.3446 56.3283L52.3467 56.3251C52.6085 55.9324 52.996 55.6364 53.4302 55.4853L53.4425 55.4811C53.5803 55.4351 53.7063 55.383 53.8215 55.3254L53.8373 55.3177C54.2657 55.1128 54.7362 55.0575 55.1949 55.1493L55.2 55.1503L55.9246 55.2992C55.978 55.3091 56.0269 55.2939 56.0675 55.2532C56.1078 55.2126 56.1208 55.1664 56.1101 55.1152L56.1092 55.1111L55.9582 54.376C55.8614 53.8923 55.9451 53.4342 56.1117 53.0511C56.1156 53.042 56.1197 53.033 56.1239 53.024C56.1899 52.8838 56.2444 52.7505 56.2901 52.6136C56.294 52.6019 56.2981 52.5903 56.3024 52.5787C56.4597 52.1594 56.7301 51.7957 57.1075 51.5261C57.1173 51.5191 57.1272 51.5123 57.1372 51.5057L57.7541 51.0978C57.7543 51.0976 57.7546 51.0974 57.7549 51.0972C57.85 51.0329 57.85 50.8868 57.7549 50.8225C57.7546 50.8223 57.7543 50.8221 57.7541 50.8219L57.1372 50.414L57.134 50.4119C56.7381 50.1479 56.44 49.7559 56.2901 49.3061C56.2447 49.1699 56.1905 49.0374 56.125 48.8979C55.9222 48.472 55.8654 47.9909 55.9594 47.5378C55.9595 47.5372 55.9596 47.5365 55.9598 47.5359L56.1081 46.8139C56.1306 46.6925 56.024 46.6023 55.9245 46.6205L55.1949 46.7704C54.7112 46.8672 54.2532 46.7835 53.87 46.6169C53.8609 46.613 53.8519 46.6089 53.843 46.6047C53.702 46.5383 53.563 46.4812 53.4259 46.4328L53.4076 46.4262C52.9915 46.2701 52.6145 45.9962 52.3467 45.5945L52.3446 45.5914L51.9367 44.9745C51.9365 44.9743 51.9363 44.974 51.9361 44.9737C51.8719 44.8786 51.7356 44.8786 51.6714 44.9737Z" fill="#065BAA"/>
</g>
<defs>
<clipPath id="clip0_3931_6743">
<rect width="62.79" height="63" fill="white" transform="translate(1)"/>
</clipPath>
</defs>
</svg>
