<svg width="64" height="65" viewBox="0 0 64 65" fill="none" xmlns="http://www.w3.org/2000/svg">
<g clip-path="url(#clip0_4919_36754)">
<path fill-rule="evenodd" clip-rule="evenodd" d="M34.134 32.3164C34.0375 32.4444 33.9385 32.5737 33.839 32.7003L33.8371 32.7026C32.8139 33.9965 31.6962 35.1217 30.5298 36.0726C31.5628 36.2655 32.8149 36.343 34.1812 36.2497L34.1837 36.2495C36.0926 36.1239 37.7548 35.6946 38.8943 35.1402C39.4663 34.8618 39.8604 34.5743 40.0936 34.3192C40.3249 34.0664 40.3397 33.9156 40.3365 33.8614L40.3365 33.8609C40.3333 33.8043 40.3023 33.6611 40.0506 33.4467C39.7943 33.2283 39.3745 32.9976 38.7761 32.7989C37.6177 32.4141 35.9805 32.2118 34.134 32.3164ZM42.3332 33.7467C42.2894 32.9803 41.8703 32.3696 41.3478 31.9244C40.8299 31.4831 40.1514 31.1482 39.4065 30.9008C37.9117 30.4043 35.944 30.1923 33.8435 30.3305C33.826 30.3316 33.8084 30.3332 33.791 30.3353C33.6645 30.3504 33.6373 30.3534 33.6041 30.3534C33.2864 30.3534 32.9876 30.5044 32.7991 30.7602C32.6254 30.9959 32.4453 31.237 32.2675 31.4632C30.9016 33.19 29.3621 34.574 27.7882 35.6071C27.4856 35.8057 27.314 36.1523 27.3394 36.5133C27.3648 36.8744 27.5834 37.1935 27.9108 37.3477C29.4785 38.0861 31.8236 38.4151 34.3162 38.2451C36.4189 38.1067 38.3458 37.6312 39.7694 36.9385C40.4789 36.5933 41.1099 36.1715 41.5695 35.669C42.031 35.1645 42.3769 34.5095 42.3333 33.7471" fill="#40B4E5"/>
<path fill-rule="evenodd" clip-rule="evenodd" d="M27.624 15.8717C25.0243 16.5972 22.2477 18.3728 19.9596 21.07C17.6719 23.7668 16.3666 26.8056 16.0667 29.5033C15.7659 32.2087 16.4771 34.4532 18.0514 35.7986C19.6251 37.1434 21.9399 37.4901 24.5459 36.7628C27.1456 36.0374 29.9222 34.2618 32.2103 31.5646C34.498 28.8677 35.8033 25.829 36.1032 23.1312C36.404 20.4258 35.6928 18.1814 34.1185 16.836C32.5448 15.4911 30.23 15.1445 27.624 15.8717ZM27.0865 13.9453C30.115 13.1002 33.1863 13.4084 35.4179 15.3156C37.6489 17.2222 38.4395 20.217 38.091 23.3522C37.7416 26.495 36.2466 29.8982 33.7354 32.8584C31.2245 35.8183 28.1182 37.8424 25.0834 38.6892C22.0549 39.5344 18.9836 39.2261 16.752 37.319C14.521 35.4124 13.7304 32.4175 14.0789 29.2823C14.4283 26.1395 15.9233 22.7364 18.4345 19.7762C20.9454 16.8163 24.0517 14.7922 27.0865 13.9453Z" fill="white"/>
<path fill-rule="evenodd" clip-rule="evenodd" d="M28.3489 22.1878C27.2931 22.7703 26.0232 23.8253 24.8278 25.2361C23.632 26.6473 22.7948 28.077 22.3887 29.2184C22.1844 29.7928 22.1078 30.2425 22.1158 30.5536C22.1197 30.7051 22.143 30.7998 22.1633 30.8522C22.1731 30.8773 22.1816 30.8913 22.1862 30.8979C22.1905 30.9042 22.1929 30.9063 22.1938 30.907C22.195 30.908 22.1979 30.9104 22.2051 30.9138C22.2128 30.9174 22.2283 30.9236 22.2547 30.9292C22.3098 30.941 22.4067 30.9488 22.556 30.9285C22.8627 30.8867 23.2919 30.7398 23.8231 30.4467C24.8789 29.8642 26.1488 28.8092 27.3443 27.3984C28.5405 25.9867 29.3775 24.5598 29.7834 23.42C29.9876 22.8466 30.0642 22.3973 30.0562 22.0856C30.0524 21.9339 30.029 21.8381 30.0082 21.7843C29.9935 21.7464 29.9811 21.731 29.9761 21.7259C29.9744 21.7246 29.9715 21.7229 29.9669 21.7207C29.9592 21.7171 29.9438 21.7109 29.9173 21.7053C29.8622 21.6936 29.7653 21.6857 29.616 21.7061C29.3093 21.7478 28.8801 21.8947 28.3489 22.1878ZM29.3461 19.7243C29.982 19.6378 30.7002 19.7172 31.2722 20.2025L31.2767 20.2063L31.2767 20.2063C31.8459 20.6951 32.0392 21.3917 32.0556 22.0347C32.072 22.6782 31.9192 23.3841 31.6675 24.091C31.1616 25.5116 30.1807 27.1447 28.8702 28.6913C27.5588 30.2389 26.1075 31.4705 24.7892 32.1978C24.1334 32.5597 23.4624 32.8235 22.8259 32.9102C22.19 32.9967 21.4718 32.9173 20.8998 32.432C20.326 31.9451 20.1328 31.2464 20.1164 30.6046C20.1 29.9617 20.2528 29.2554 20.5044 28.5481C21.0102 27.1264 21.9909 25.4903 23.3019 23.9432C24.6132 22.3956 26.0645 21.164 27.3828 20.4367C28.0386 20.0748 28.7096 19.811 29.3461 19.7243Z" fill="#40B4E5"/>
<path fill-rule="evenodd" clip-rule="evenodd" d="M35.6359 25.0338C35.762 24.5564 36.2177 24.2424 36.7087 24.2947C39.8055 24.6245 42.5956 25.6501 44.6718 27.1967C46.7501 28.7448 48.1614 30.8595 48.3222 33.329L48.3223 33.3299C48.5102 36.2597 46.8914 38.8999 44.3777 40.814C41.8576 42.733 38.3472 44.0074 34.4494 44.248C28.4252 44.6204 22.8831 42.4183 20.4943 38.6809C20.2937 38.3671 20.2842 37.9678 20.4695 37.6447C20.6548 37.3217 21.0043 37.1284 21.3765 37.1431C24.681 37.2739 28.8271 35.3502 32.0544 31.6075C33.8596 29.5119 35.0614 27.2096 35.6359 25.0338ZM37.3204 26.3905C36.5973 28.6146 35.3313 30.8679 33.5697 32.9128L33.5694 32.9132C30.6446 36.3052 26.899 38.4813 23.3754 39.0189C25.6726 41.1557 29.6867 42.5386 34.326 42.2519L34.3261 42.2519C37.8842 42.0322 41.0019 40.8707 43.1661 39.2228C45.3364 37.5701 46.4579 35.5127 46.3264 33.4586C46.213 31.7187 45.2152 30.0953 43.4771 28.8006C41.9094 27.6329 39.779 26.7689 37.3204 26.3905Z" fill="white"/>
<path fill-rule="evenodd" clip-rule="evenodd" d="M10.0844 11.2639C10.502 11.6253 10.5476 12.2568 10.1862 12.6744C5.70794 17.849 3 24.6086 3 32C3 48.2912 16.1657 61.5 32.39 61.5C36.6271 61.5 40.649 60.6006 44.2841 58.9861C44.7888 58.7619 45.3797 58.9894 45.6039 59.4941C45.8281 59.9989 45.6007 60.5898 45.0959 60.8139C41.211 62.5394 36.9129 63.5 32.39 63.5C15.0543 63.5 1 49.3889 1 32C1 24.1114 3.89206 16.891 8.67385 11.3656C9.03526 10.948 9.66678 10.9025 10.0844 11.2639Z" fill="white"/>
<path fill-rule="evenodd" clip-rule="evenodd" d="M32.3902 2.5C25.0116 2.5 18.2729 5.22599 13.1077 9.73345C12.6916 10.0966 12.0599 10.0536 11.6968 9.6375C11.3336 9.22139 11.3766 8.58968 11.7927 8.22655C17.3075 3.41401 24.5088 0.5 32.3902 0.5C49.7361 0.5 63.7802 14.6114 63.7802 32C63.7802 36.5324 62.8199 40.849 61.1058 44.7521C60.8837 45.2578 60.2938 45.4877 59.7881 45.2656C59.2824 45.0435 59.0525 44.4536 59.2746 43.9479C60.8806 40.291 61.7802 36.2476 61.7802 32C61.7802 15.7086 48.6243 2.5 32.3902 2.5Z" fill="white"/>
<path fill-rule="evenodd" clip-rule="evenodd" d="M50.39 40.4399C50.39 39.8877 50.8378 39.4399 51.39 39.4399H51.79C58.4153 39.4399 63.79 44.8306 63.79 51.4799C63.79 58.1299 58.4247 63.5099 51.79 63.5099C45.1548 63.5099 39.79 58.1193 39.79 51.4799C39.79 46.6054 42.6705 42.4175 46.8246 40.5203C47.327 40.2909 47.9202 40.5121 48.1497 41.0145C48.3791 41.5169 48.1578 42.1101 47.6555 42.3396C44.1896 43.9224 41.79 47.4145 41.79 51.4799C41.79 57.0206 46.2653 61.5099 51.79 61.5099C57.3154 61.5099 61.79 57.03 61.79 51.4799C61.79 45.9293 57.3048 41.4399 51.79 41.4399H51.39C50.8378 41.4399 50.39 40.9922 50.39 40.4399Z" fill="white"/>
<path fill-rule="evenodd" clip-rule="evenodd" d="M51.7896 50.49C51.2451 50.49 50.8096 50.929 50.8096 51.47C50.8096 52.011 51.2451 52.45 51.7896 52.45C52.3373 52.45 52.7696 52.0177 52.7696 51.47C52.7696 50.929 52.334 50.49 51.7896 50.49ZM48.8096 51.47C48.8096 49.831 50.134 48.49 51.7896 48.49C53.4451 48.49 54.7696 49.831 54.7696 51.47C54.7696 53.1223 53.4419 54.45 51.7896 54.45C50.134 54.45 48.8096 53.109 48.8096 51.47Z" fill="#40B4E5"/>
<path fill-rule="evenodd" clip-rule="evenodd" d="M50.0077 44.3654C50.8635 43.0817 52.746 43.0817 53.6018 44.3654L53.6038 44.3685L54.0118 44.9854C54.012 44.9857 54.0122 44.986 54.0124 44.9862C54.0243 45.0039 54.0464 45.0285 54.1048 45.0514C54.2976 45.1199 54.4887 45.1986 54.678 45.2871C54.7471 45.3154 54.7861 45.3128 54.8025 45.3097C54.8029 45.3097 54.8032 45.3096 54.8036 45.3095L55.5359 45.159C57.0553 44.8589 58.3664 46.2071 58.0708 47.7039L58.0693 47.7114L57.9193 48.4414L57.9187 48.444C57.9135 48.4692 57.9162 48.506 57.9319 48.5386L57.9346 48.5443C58.0285 48.744 58.1141 48.9508 58.1884 49.1739C58.1984 49.2037 58.22 49.2314 58.2437 49.2475C58.2434 49.2474 58.2439 49.2477 58.2437 49.2475L58.8644 49.658C60.1482 50.5139 60.1482 52.4063 58.8644 53.2621L58.8613 53.2642L58.2614 53.6609C58.2265 53.6879 58.2008 53.7204 58.1805 53.77C58.1102 53.9776 58.0302 54.1712 57.9428 54.3584C57.9144 54.4275 57.917 54.4664 57.9201 54.4828C57.9202 54.4832 57.9202 54.4836 57.9203 54.484L58.0684 55.2047C58.0686 55.2055 58.0687 55.2062 58.0689 55.207C58.386 56.7257 57.0398 58.0582 55.5359 57.7611L55.5284 57.7597L54.8036 57.6107C54.8031 57.6106 54.8026 57.6105 54.802 57.6104C54.7634 57.6029 54.7351 57.6069 54.7055 57.6202C54.5072 57.7187 54.3003 57.8035 54.0858 57.8755C54.076 57.8792 54.062 57.8863 54.0471 57.8978C54.0314 57.91 54.0197 57.923 54.0123 57.934C54.0121 57.9343 54.0124 57.9338 54.0123 57.934L53.6038 58.5517L53.6018 58.5548C52.746 59.8385 50.8635 59.8385 50.0077 58.5548L50.0056 58.5517L49.5977 57.9348C49.5975 57.9345 49.5973 57.9342 49.5971 57.934C49.5852 57.9163 49.563 57.8917 49.5046 57.8687C49.3118 57.8002 49.1208 57.7216 48.9314 57.6331C48.8623 57.6047 48.8234 57.6074 48.807 57.6104C48.8066 57.6105 48.8062 57.6106 48.8058 57.6107L48.0735 57.7612C46.5542 58.0613 45.243 56.713 45.5387 55.2163L45.5402 55.2088L45.6902 54.4788L45.6907 54.4761C45.696 54.451 45.6932 54.4142 45.6776 54.3815L45.6749 54.3759C45.5809 54.1762 45.4954 53.9694 45.421 53.7463C45.4111 53.7165 45.3895 53.6887 45.3658 53.6726C45.3655 53.6725 45.366 53.6728 45.3658 53.6726L44.7481 53.2642L44.745 53.2621C43.4613 52.4063 43.4613 50.5139 44.745 49.658L44.7481 49.656L45.348 49.2593C45.383 49.2323 45.4087 49.1998 45.429 49.1502C45.4993 48.9426 45.5793 48.749 45.6667 48.5618C45.6951 48.4927 45.6924 48.4538 45.6894 48.4374L45.5406 47.7131C45.2235 46.1944 46.5696 44.862 48.0735 45.159L48.081 45.1605L48.8074 45.3098C48.8461 45.3173 48.8744 45.3133 48.904 45.2999C49.1023 45.2015 49.3091 45.1167 49.5237 45.0447C49.5335 45.041 49.5474 45.0338 49.5623 45.0223C49.578 45.0102 49.5897 44.9971 49.5972 44.9861C49.597 44.9864 49.5973 44.9859 49.5972 44.9861L50.0056 44.3685L50.0077 44.3654ZM51.6724 45.4739C51.6722 45.4742 51.672 45.4745 51.6718 45.4748L51.2638 46.0917L51.2618 46.0948C50.9999 46.4876 50.6124 46.7836 50.1782 46.9346L50.166 46.9389C50.0282 46.9848 49.9022 47.0369 49.7869 47.0945L49.7712 47.1022C49.3428 47.3071 48.8723 47.3624 48.4136 47.2707L48.4084 47.2696L47.6838 47.1207C47.6305 47.1108 47.5815 47.126 47.541 47.1667C47.5007 47.2073 47.4877 47.2535 47.4984 47.3047L47.4993 47.3088L47.6503 48.044C47.747 48.5276 47.6634 48.9857 47.4968 49.3688C47.4928 49.3779 47.4888 49.3869 47.4845 49.3959C47.4185 49.5362 47.3641 49.6694 47.3184 49.8063C47.3145 49.818 47.3104 49.8297 47.3061 49.8412C47.1488 50.2606 46.8784 50.6242 46.501 50.8938C46.4912 50.9008 46.4813 50.9076 46.4713 50.9142L45.8544 51.3221C45.8541 51.3223 45.8539 51.3225 45.8536 51.3227C45.7584 51.387 45.7584 51.5332 45.8536 51.5975C45.8539 51.5977 45.8541 51.5978 45.8544 51.598L46.4713 52.006L46.4744 52.008C46.8704 52.272 47.1685 52.664 47.3184 53.1139C47.3638 53.25 47.4179 53.3826 47.4835 53.522C47.6863 53.9481 47.7431 54.4294 47.649 54.8826C47.6489 54.8831 47.6488 54.8836 47.6487 54.884L47.5004 55.606C47.4778 55.7274 47.5845 55.8176 47.684 55.7994L48.4136 55.6495C48.8973 55.5528 49.3553 55.6364 49.7385 55.803C49.7475 55.807 49.7566 55.8111 49.7655 55.8153C49.9065 55.8816 50.0455 55.9387 50.1825 55.9871L50.2008 55.9938C50.617 56.1498 50.994 56.4237 51.2618 56.8254L51.2638 56.8285L51.6718 57.4454C51.672 57.4457 51.6722 57.446 51.6724 57.4463C51.7366 57.5414 51.8729 57.5414 51.9371 57.4463C51.9373 57.446 51.9375 57.4457 51.9377 57.4454L52.3456 56.8285L52.3477 56.8254C52.6095 56.4326 52.997 56.1366 53.4312 55.9856L53.4435 55.9813C53.5813 55.9354 53.7073 55.8833 53.8225 55.8257L53.8383 55.818C54.2666 55.6131 54.7372 55.5578 55.1958 55.6495L55.201 55.6505L55.9256 55.7994C55.9789 55.8093 56.0279 55.7941 56.0684 55.7534C56.1088 55.7129 56.1218 55.6666 56.111 55.6155L56.1102 55.6114L55.9591 54.8762C55.8624 54.3926 55.9461 53.9345 56.1127 53.5514C56.1166 53.5423 56.1207 53.5333 56.1249 53.5243C56.1909 53.384 56.2454 53.2508 56.291 53.1139C56.2949 53.1022 56.2991 53.0905 56.3034 53.079C56.4606 52.6596 56.731 52.296 57.1085 52.0264C57.1182 52.0194 57.1281 52.0126 57.1381 52.006L57.755 51.598C57.7553 51.5978 57.7556 51.5977 57.7559 51.5975C57.851 51.5332 57.851 51.387 57.7559 51.3227C57.7556 51.3225 57.7553 51.3223 57.755 51.3221L57.1381 50.9142L57.135 50.9121C56.739 50.6481 56.441 50.2562 56.291 49.8063C56.2457 49.6701 56.1915 49.5376 56.126 49.3981C55.9232 48.9723 55.8664 48.4912 55.9603 48.0381C55.9605 48.0374 55.9606 48.0368 55.9607 48.0361L56.1091 47.3141C56.1316 47.1928 56.025 47.1025 55.9255 47.1208L55.1958 47.2707C54.7122 47.3674 54.2541 47.2837 53.871 47.1172C53.8619 47.1132 53.8529 47.1091 53.8439 47.1049C53.703 47.0386 53.564 46.9815 53.4269 46.9331L53.4086 46.9264C52.9925 46.7704 52.6155 46.4965 52.3477 46.0948L52.3456 46.0917L51.9377 45.4748C51.9375 45.4745 51.9373 45.4742 51.9371 45.4739C51.8729 45.3788 51.7366 45.3788 51.6724 45.4739Z" fill="white"/>
</g>
<defs>
<clipPath id="clip0_4919_36754">
<rect width="62.79" height="63" fill="white" transform="translate(1 0.5)"/>
</clipPath>
</defs>
</svg>
