<svg width="48" height="48" viewBox="0 0 48 48" fill="none" xmlns="http://www.w3.org/2000/svg">
<path fill-rule="evenodd" clip-rule="evenodd" d="M27.4749 35.5179L27.41 35.8447C27.1642 37.0842 27.7213 38.3448 28.8034 38.9974L38.2641 44.703C39.313 45.3355 40.6412 45.2669 41.6193 44.5295L44.9762 41.999C45.9061 41.2979 46.3463 40.122 46.1053 38.9826L44.679 32.239C43.4067 26.2235 40.9152 20.5326 37.3581 15.5174L35.7604 13.2648C35.0698 12.2911 33.8776 12.1023 32.9577 12.5331C33.7322 12.4291 34.5625 12.7236 35.0766 13.493L36.5418 15.6851C39.4285 20.0044 41.2556 24.9438 41.8746 30.102L42.0228 31.3377C42.4752 35.1071 40.947 38.8427 37.9824 41.2143C37.3909 41.6876 36.5688 41.7471 35.9152 41.3641L28.82 37.2064C28.1627 36.8212 27.6935 36.2127 27.4749 35.5179Z" fill="#B4D6F1" fill-opacity="0.5"/>
<path fill-rule="evenodd" clip-rule="evenodd" d="M11.6283 12.8309C13.1518 10.683 16.5056 11.3997 17.018 13.9827L21.3261 35.6987C21.6335 37.2481 20.937 38.824 19.5844 39.6397L10.1237 45.3452C8.81255 46.1359 7.15236 46.0501 5.92972 45.1285L2.57285 42.5979C1.4104 41.7216 0.860146 40.2517 1.16138 38.8274L2.5877 32.0838C3.88122 25.9681 6.4143 20.1823 10.0306 15.0835L11.6283 12.8309ZM15.5467 14.2746C15.2905 12.9831 13.6135 12.6247 12.8518 13.6987L11.2541 15.9513C7.75637 20.8829 5.30634 26.479 4.05524 32.3942L2.62892 39.1378C2.44817 39.9924 2.77833 40.8743 3.4758 41.4001L6.83266 43.9307C7.56625 44.4837 8.56236 44.5352 9.34905 44.0607L18.8098 38.3552C19.6213 37.8658 20.0392 36.9202 19.8548 35.9906L15.5467 14.2746Z" fill="#065BAA"/>
<path fill-rule="evenodd" clip-rule="evenodd" d="M13.865 26.7948C11.715 29.6513 10.534 33.0989 10.1127 35.3859C10.0377 35.7932 9.64662 36.0626 9.23926 35.9876C8.8319 35.9125 8.5625 35.5215 8.63754 35.1141C9.09125 32.6511 10.3477 28.9737 12.6665 25.8927C14.9959 22.7977 18.4465 20.25 23.2501 20.25C23.6643 20.25 24.0001 20.5858 24.0001 21C24.0001 21.4142 23.6643 21.75 23.2501 21.75C19.0538 21.75 16.0043 23.9523 13.865 26.7948Z" fill="#40B4E5"/>
<path fill-rule="evenodd" clip-rule="evenodd" d="M10.9456 29.3148C11.3241 29.1466 11.7673 29.3171 11.9355 29.6956L13.4355 33.0706C13.6038 33.4491 13.4333 33.8923 13.0548 34.0605C12.6763 34.2288 12.2331 34.0583 12.0648 33.6798L10.5648 30.3048C10.3966 29.9263 10.5671 29.4831 10.9456 29.3148Z" fill="#40B4E5"/>
<path fill-rule="evenodd" clip-rule="evenodd" d="M10.5937 31.7782C10.8542 32.1003 10.8042 32.5725 10.4822 32.833L7.61039 35.1554C7.28832 35.4159 6.81608 35.3659 6.55561 35.0439C6.29515 34.7218 6.3451 34.2495 6.66717 33.9891L9.53894 31.6667C9.86102 31.4062 10.3333 31.4562 10.5937 31.7782Z" fill="#40B4E5"/>
<path fill-rule="evenodd" clip-rule="evenodd" d="M13.9571 25.6305C14.1216 26.0106 13.9467 26.4521 13.5665 26.6166L10.1768 28.0829C9.79659 28.2474 9.35508 28.0725 9.19063 27.6923C9.02618 27.3122 9.20105 26.8707 9.58122 26.7062L12.971 25.2399C13.3512 25.0754 13.7927 25.2503 13.9571 25.6305Z" fill="#40B4E5"/>
<path fill-rule="evenodd" clip-rule="evenodd" d="M21.7501 0C22.1643 0 22.5001 0.335786 22.5001 0.75V4.03125C22.5001 4.44546 22.1643 4.78125 21.7501 4.78125C21.3359 4.78125 21.0001 4.44546 21.0001 4.03125V0.75C21.0001 0.335786 21.3359 0 21.7501 0ZM21.7501 6.84375C22.1643 6.84375 22.5001 7.17954 22.5001 7.59375V11.5905C22.5001 13.2826 21.37 14.74 19.7832 15.2368C19.319 15.3821 18.853 15.5349 18.4574 15.678C18.0463 15.8266 17.7594 15.9478 17.6222 16.0262C17.2626 16.2317 16.8045 16.1067 16.5989 15.7471C16.3934 15.3875 16.5184 14.9293 16.878 14.7238C17.14 14.5741 17.5383 14.4152 17.9474 14.2673C18.3718 14.1139 18.8608 13.9537 19.3351 13.8053C20.3242 13.4956 21.0001 12.5977 21.0001 11.5905V7.59375C21.0001 7.17954 21.3359 6.84375 21.7501 6.84375Z" fill="#065BAA"/>
<path fill-rule="evenodd" clip-rule="evenodd" d="M36.3717 12.8309C34.8483 10.683 31.4944 11.3997 30.982 13.9827L26.6739 35.6987C26.3665 37.2481 27.063 38.824 28.4156 39.6397L37.8763 45.3452C39.1874 46.1359 40.8476 46.0501 42.0703 45.1285L45.4271 42.5979C46.5896 41.7216 47.1399 40.2517 46.8386 38.8274L45.4123 32.0838C44.1188 25.9681 41.5857 20.1823 37.9694 15.0835L36.3717 12.8309ZM32.4533 14.2746C32.7096 12.9831 34.3865 12.6247 35.1482 13.6987L36.7459 15.9513C40.2436 20.8829 42.6937 26.479 43.9448 32.3942L45.3711 39.1378C45.5518 39.9924 45.2217 40.8743 44.5242 41.4001L41.1673 43.9307C40.4337 44.4837 39.4376 44.5352 38.6509 44.0607L29.1902 38.3552C28.3787 37.8658 27.9608 36.9202 28.1452 35.9906L32.4533 14.2746Z" fill="#065BAA"/>
<path fill-rule="evenodd" clip-rule="evenodd" d="M34.135 26.7948C36.285 29.6513 37.466 33.0989 37.8873 35.3859C37.9623 35.7932 38.3534 36.0626 38.7607 35.9876C39.1681 35.9125 39.4375 35.5215 39.3625 35.1141C38.9087 32.6511 37.6523 28.9737 35.3335 25.8927C33.0041 22.7977 29.5535 20.25 24.7499 20.25C24.3357 20.25 23.9999 20.5858 23.9999 21C23.9999 21.4142 24.3357 21.75 24.7499 21.75C28.9462 21.75 31.9957 23.9523 34.135 26.7948Z" fill="#40B4E5"/>
<path fill-rule="evenodd" clip-rule="evenodd" d="M37.0544 29.3148C36.6759 29.1466 36.2327 29.3171 36.0645 29.6956L34.5645 33.0706C34.3962 33.4491 34.5667 33.8923 34.9452 34.0605C35.3237 34.2288 35.7669 34.0583 35.9352 33.6798L37.4352 30.3048C37.6034 29.9263 37.4329 29.4831 37.0544 29.3148Z" fill="#40B4E5"/>
<path fill-rule="evenodd" clip-rule="evenodd" d="M37.4073 31.7782C37.1468 32.1003 37.1967 32.5725 37.5188 32.833L40.3906 35.1554C40.7127 35.4159 41.1849 35.3659 41.4454 35.0439C41.7058 34.7218 41.6559 34.2495 41.3338 33.9891L38.462 31.6667C38.14 31.4062 37.6677 31.4562 37.4073 31.7782Z" fill="#40B4E5"/>
<path fill-rule="evenodd" clip-rule="evenodd" d="M34.0429 25.6305C33.8784 26.0106 34.0533 26.4521 34.4335 26.6166L37.8232 28.0829C38.2034 28.2474 38.6449 28.0725 38.8094 27.6923C38.9738 27.3122 38.799 26.8707 38.4188 26.7062L35.029 25.2399C34.6488 25.0754 34.2073 25.2503 34.0429 25.6305Z" fill="#40B4E5"/>
<path fill-rule="evenodd" clip-rule="evenodd" d="M26.2499 0C25.8357 0 25.4999 0.335786 25.4999 0.75V11.5905C25.4999 13.2826 26.63 14.74 28.2168 15.2368C28.681 15.3821 29.147 15.5349 29.5426 15.678C29.9537 15.8266 30.2406 15.9478 30.3778 16.0262C30.7374 16.2317 31.1955 16.1067 31.4011 15.7471C31.6066 15.3875 31.4816 14.9293 31.122 14.7238C30.86 14.5741 30.4617 14.4152 30.0526 14.2673C29.6282 14.1139 29.1392 13.9537 28.6649 13.8053C27.6758 13.4956 26.9999 12.5977 26.9999 11.5905V0.75C26.9999 0.335786 26.6641 0 26.2499 0Z" fill="#065BAA"/>
<path fill-rule="evenodd" clip-rule="evenodd" d="M21.75 8.25C21.75 7.83579 22.0858 7.5 22.5 7.5H26.25C26.6642 7.5 27 7.83579 27 8.25C27 8.66421 26.6642 9 26.25 9H22.5C22.0858 9 21.75 8.66421 21.75 8.25Z" fill="#065BAA"/>
<path fill-rule="evenodd" clip-rule="evenodd" d="M25.125 21.75H22.875V20.25H25.125V21.75Z" fill="#40B4E5"/>
</svg>
