<svg width="80" height="80" viewBox="0 0 80 80" fill="none" xmlns="http://www.w3.org/2000/svg">
<path fill-rule="evenodd" clip-rule="evenodd" d="M45.7918 59.1965L45.6837 59.7411C45.2739 61.8069 46.2025 63.9081 48.006 64.9957L63.7739 74.5049C65.5221 75.5592 67.7356 75.4448 69.3658 74.2159L74.9606 69.9983C76.5105 68.8299 77.2442 66.87 76.8426 64.9711L74.4654 53.7317C72.3449 43.7059 68.1923 34.221 62.2638 25.8623L59.601 22.108C58.45 20.4851 56.4631 20.1705 54.9298 20.8885C56.2206 20.7152 57.6045 21.2061 58.4614 22.4883L60.9033 26.1419C65.7145 33.3407 68.7596 41.573 69.7913 50.1699L70.0384 52.2294C70.7923 58.5119 68.2454 64.7378 63.3044 68.6905C62.3185 69.4793 60.9483 69.5786 59.8589 68.9402L48.0337 62.0106C46.9382 61.3687 46.1562 60.3544 45.7918 59.1965Z" fill="#B4D6F1" fill-opacity="0.5"/>
<path fill-rule="evenodd" clip-rule="evenodd" d="M19.3812 21.3847C21.9202 17.8048 27.5099 18.9993 28.364 23.3043L35.5442 59.4977C36.0565 62.08 34.8957 64.7064 32.6413 66.066L16.8735 75.5752C14.6882 76.8931 11.9213 76.7501 9.88351 75.2139L4.28874 70.9963C2.35132 69.5358 1.43423 67.086 1.93629 64.7123L4.31349 53.4728C6.46934 43.28 10.6911 33.637 16.7184 25.1391L19.3812 21.3847ZM25.9118 23.7908C25.4847 21.6383 22.6899 21.041 21.4204 22.831L18.7575 26.5854C12.9279 34.8047 8.84455 44.1315 6.75938 53.9902L4.38218 65.2296C4.08094 66.6538 4.6312 68.1237 5.79365 69L11.3884 73.2176C12.6111 74.1393 14.2713 74.2251 15.5824 73.4344L31.3503 63.9252C32.7029 63.1094 33.3993 61.5336 33.092 59.9842L25.9118 23.7908Z" fill="white"/>
<path fill-rule="evenodd" clip-rule="evenodd" d="M23.1083 44.6579C19.5251 49.4189 17.5567 55.1648 16.8545 58.9765C16.7295 59.6554 16.0777 60.1044 15.3988 59.9793C14.7198 59.8543 14.2708 59.2025 14.3959 58.5236C15.1521 54.4185 17.2462 48.2894 21.1109 43.1546C24.9932 37.9962 30.7441 33.75 38.7502 33.75C39.4406 33.75 40.0002 34.3096 40.0002 35C40.0002 35.6904 39.4406 36.25 38.7502 36.25C31.7563 36.25 26.6739 39.9205 23.1083 44.6579Z" fill="#40B4E5"/>
<path fill-rule="evenodd" clip-rule="evenodd" d="M18.2426 48.8576C18.8735 48.5772 19.6122 48.8613 19.8926 49.4922L22.3926 55.1171C22.673 55.748 22.3888 56.4867 21.758 56.7671C21.1271 57.0475 20.3884 56.7633 20.108 56.1325L17.608 50.5075C17.3277 49.8766 17.6118 49.1379 18.2426 48.8576Z" fill="#40B4E5"/>
<path fill-rule="evenodd" clip-rule="evenodd" d="M17.6562 52.964C18.0903 53.5008 18.0071 54.2879 17.4703 54.722L12.684 58.5927C12.1472 59.0268 11.3601 58.9435 10.926 58.4068C10.4919 57.87 10.5752 57.0829 11.112 56.6488L15.8982 52.7781C16.435 52.344 17.2221 52.4273 17.6562 52.964Z" fill="#40B4E5"/>
<path fill-rule="evenodd" clip-rule="evenodd" d="M23.2635 42.7171C23.5376 43.3507 23.2461 44.0866 22.6125 44.3607L16.9629 46.8045C16.3293 47.0786 15.5934 46.7872 15.3193 46.1536C15.0453 45.5199 15.3367 44.7841 15.9703 44.51L21.6199 42.0661C22.2535 41.792 22.9894 42.0835 23.2635 42.7171Z" fill="#40B4E5"/>
<path fill-rule="evenodd" clip-rule="evenodd" d="M36.2502 0C36.9406 0 37.5002 0.559644 37.5002 1.25V6.71875C37.5002 7.40911 36.9406 7.96875 36.2502 7.96875C35.5599 7.96875 35.0002 7.40911 35.0002 6.71875V1.25C35.0002 0.559644 35.5599 0 36.2502 0ZM36.2502 11.4062C36.9406 11.4062 37.5002 11.9659 37.5002 12.6562V19.3175C37.5002 22.1376 35.6167 24.5667 32.972 25.3946C32.1983 25.6368 31.4217 25.8915 30.7623 26.1299C30.0772 26.3777 29.599 26.5797 29.3704 26.7103C28.771 27.0528 28.0074 26.8446 27.6649 26.2452C27.3224 25.6458 27.5306 24.8822 28.13 24.5397C28.5667 24.2902 29.2306 24.0254 29.9123 23.7789C30.6197 23.5231 31.4347 23.2562 32.2251 23.0088C33.8737 22.4927 35.0002 20.9962 35.0002 19.3175V12.6562C35.0002 11.9659 35.5599 11.4062 36.2502 11.4062Z" fill="white"/>
<path fill-rule="evenodd" clip-rule="evenodd" d="M60.6208 21.3847C58.0817 17.8048 52.492 18.9993 51.638 23.3043L44.4578 59.4977C43.9455 62.08 45.1062 64.7064 47.3606 66.066L63.1285 75.5752C65.3137 76.8931 68.0807 76.7501 70.1184 75.2139L75.7132 70.9963C77.6506 69.5358 78.5677 67.086 78.0657 64.7123L75.6885 53.4728C73.5326 43.28 69.3108 33.637 63.2836 25.1391L60.6208 21.3847ZM54.0902 23.7908C54.5172 21.6383 57.3121 21.041 58.5816 22.831L61.2444 26.5854C67.074 34.8047 71.1574 44.1315 73.2426 53.9902L75.6198 65.2296C75.921 66.6538 75.3708 68.1237 74.2083 69L68.6135 73.2176C67.3909 74.1393 65.7307 74.2251 64.4195 73.4344L48.6517 63.9252C47.2991 63.1094 46.6026 61.5336 46.91 59.9842L54.0902 23.7908Z" fill="white"/>
<path fill-rule="evenodd" clip-rule="evenodd" d="M56.8936 44.6579C60.4769 49.4189 62.4453 55.1648 63.1474 58.9765C63.2725 59.6554 63.9243 60.1044 64.6032 59.9793C65.2821 59.8543 65.7311 59.2025 65.606 58.5236C64.8499 54.4185 62.7558 48.2894 58.8911 43.1546C55.0087 37.9962 49.2579 33.75 41.2517 33.75C40.5614 33.75 40.0017 34.3096 40.0017 35C40.0017 35.6904 40.5614 36.25 41.2517 36.25C48.2456 36.25 53.3281 39.9205 56.8936 44.6579Z" fill="#40B4E5"/>
<path fill-rule="evenodd" clip-rule="evenodd" d="M61.7593 48.8576C61.1285 48.5772 60.3898 48.8613 60.1094 49.4922L57.6094 55.1171C57.329 55.748 57.6131 56.4867 58.244 56.7671C58.8748 57.0475 59.6135 56.7633 59.8939 56.1325L62.3939 50.5075C62.6743 49.8766 62.3902 49.1379 61.7593 48.8576Z" fill="#40B4E5"/>
<path fill-rule="evenodd" clip-rule="evenodd" d="M62.3458 52.964C61.9116 53.5008 61.9949 54.2879 62.5317 54.722L67.318 58.5927C67.8548 59.0268 68.6418 58.9435 69.0759 58.4068C69.51 57.87 69.4268 57.0829 68.89 56.6488L64.1037 52.7781C63.5669 52.344 62.7799 52.4273 62.3458 52.964Z" fill="#40B4E5"/>
<path fill-rule="evenodd" clip-rule="evenodd" d="M56.7385 42.7171C56.4644 43.3507 56.7558 44.0866 57.3895 44.3607L63.0391 46.8045C63.6727 47.0786 64.4085 46.7872 64.6826 46.1536C64.9567 45.5199 64.6652 44.7841 64.0316 44.51L58.382 42.0661C57.7484 41.792 57.0126 42.0835 56.7385 42.7171Z" fill="#40B4E5"/>
<path fill-rule="evenodd" clip-rule="evenodd" d="M43.7517 0C43.0614 0 42.5017 0.559644 42.5017 1.25V19.3175C42.5017 22.1376 44.3853 24.5667 47.03 25.3946C47.8036 25.6368 48.5803 25.8915 49.2396 26.1299C49.9248 26.3777 50.403 26.5797 50.6316 26.7103C51.231 27.0528 51.9945 26.8446 52.337 26.2452C52.6796 25.6458 52.4713 24.8822 51.8719 24.5397C51.4353 24.2902 50.7714 24.0254 50.0897 23.7789C49.3822 23.5231 48.5673 23.2562 47.7768 23.0088C46.1283 22.4927 45.0017 20.9962 45.0017 19.3175V1.25C45.0017 0.559644 44.4421 0 43.7517 0Z" fill="white"/>
<path fill-rule="evenodd" clip-rule="evenodd" d="M36.25 13.75C36.25 13.0596 36.8096 12.5 37.5 12.5H43.75C44.4404 12.5 45 13.0596 45 13.75C45 14.4404 44.4404 15 43.75 15H37.5C36.8096 15 36.25 14.4404 36.25 13.75Z" fill="white"/>
<path fill-rule="evenodd" clip-rule="evenodd" d="M41.875 36.25H38.125V33.75H41.875V36.25Z" fill="#40B4E5"/>
</svg>
