<svg width="80" height="80" viewBox="0 0 80 80" fill="none" xmlns="http://www.w3.org/2000/svg">
<g clip-path="url(#clip0_4992_66179)">
<path fill-rule="evenodd" clip-rule="evenodd" d="M45.8369 1.29419C47.992 2.08288 50.0117 3.10266 51.5429 3.95783C53.7856 5.21036 55 7.59582 55 10.0601V32.5392C55 33.597 54.6645 34.6276 54.0417 35.4828L50.9121 39.7799C45.2326 47.5781 33.4978 47.2556 28.2551 39.1573L25.8028 35.3693C25.2788 34.5599 25 33.6163 25 32.6521V9.97121C25 7.56601 26.1571 5.22793 28.3188 3.95513C29.6771 3.1554 31.4316 2.21431 33.3033 1.45256C35.1611 0.696498 37.2112 0.0850115 39.1417 0.00849868C41.3342 -0.0784017 43.6987 0.5117 45.8369 1.29419ZM44.9777 3.64191C42.9719 2.90787 40.9624 2.4383 39.2407 2.50654C37.7245 2.56663 35.9821 3.06149 34.2457 3.76814C32.5233 4.4691 30.882 5.3471 29.5873 6.10944C28.2756 6.88171 27.5 8.3457 27.5 9.97121V32.6521C27.5 33.1342 27.6394 33.606 27.9014 34.0107L30.3537 37.7987C34.6432 44.4246 44.2444 44.6884 48.8912 38.3081L52.0208 34.011C52.3322 33.5834 52.5 33.0681 52.5 32.5392V10.0601C52.5 8.39487 51.6866 6.90154 50.3239 6.1405C48.8608 5.32336 46.9665 4.36975 44.9777 3.64191Z" fill="white"/>
<path fill-rule="evenodd" clip-rule="evenodd" d="M30.966 39.375C31.6563 39.375 32.216 39.9346 32.216 40.625V45.7323C32.216 47.8033 30.537 49.4823 28.466 49.4823H20.4295C15.1582 49.4823 10.7921 53.574 10.4505 58.8342L8.12242 94.6833C8.07768 95.3722 7.48294 95.8944 6.79404 95.8496C6.10513 95.8049 5.58293 95.2102 5.62767 94.5213L7.95579 58.6722C8.38279 52.097 13.8404 46.9823 20.4295 46.9823H28.466C29.1563 46.9823 29.716 46.4226 29.716 45.7323V40.625C29.716 39.9346 30.2756 39.375 30.966 39.375Z" fill="white"/>
<path fill-rule="evenodd" clip-rule="evenodd" d="M49.034 39.375C48.3437 39.375 47.784 39.9346 47.784 40.625V45.7323C47.784 47.8033 49.463 49.4823 51.534 49.4823H59.5705C64.8418 49.4823 69.2079 53.574 69.5495 58.8342L71.8776 94.6833C71.9223 95.3722 72.5171 95.8944 73.206 95.8496C73.8949 95.8049 74.4171 95.2102 74.3723 94.5213L72.0442 58.6722C71.6172 52.097 66.1596 46.9823 59.5705 46.9823H51.534C50.8437 46.9823 50.284 46.4226 50.284 45.7323V40.625C50.284 39.9346 49.7244 39.375 49.034 39.375Z" fill="white"/>
<path d="M57.5 58.125C57.5 60.8864 56.5114 60.625 53.75 60.625C50.9886 60.625 50 61.5114 50 58.75C50 55.9886 52.2386 53.75 55 53.75C57.7614 53.75 57.5 55.3636 57.5 58.125Z" fill="white"/>
<path fill-rule="evenodd" clip-rule="evenodd" d="M40.3764 6.65112L41.4924 7.16131C45.2771 8.89144 49.3897 9.78691 53.5511 9.78691V12.2869C49.031 12.2869 44.5639 11.3143 40.453 9.43499L40.3764 9.39996L40.2997 9.43499C36.1889 11.3143 31.7217 12.2869 27.2017 12.2869V9.78691C31.363 9.78691 35.4757 8.89144 39.2603 7.16131L40.3764 6.65112Z" fill="white"/>
<path fill-rule="evenodd" clip-rule="evenodd" d="M16.6621 69.2612C17.3525 69.2612 17.9121 69.8209 17.9121 70.5112V94.6021C17.9121 95.2925 17.3525 95.8521 16.6621 95.8521C15.9718 95.8521 15.4121 95.2925 15.4121 94.6021V70.5112C15.4121 69.8209 15.9718 69.2612 16.6621 69.2612Z" fill="white"/>
<path fill-rule="evenodd" clip-rule="evenodd" d="M62.5854 69.2612C63.2758 69.2612 63.8354 69.8209 63.8354 70.5112V94.6021C63.8354 95.2925 63.2758 95.8521 62.5854 95.8521C61.8951 95.8521 61.3354 95.2925 61.3354 94.6021V70.5112C61.3354 69.8209 61.8951 69.2612 62.5854 69.2612Z" fill="white"/>
<path fill-rule="evenodd" clip-rule="evenodd" d="M55.2677 20.7955C54.6948 20.2908 53.9926 20.0487 53.5698 19.987L53.9306 17.5132C54.7578 17.6338 55.9307 18.0479 56.9202 18.9195C57.9491 19.8258 58.7502 21.2069 58.7502 23.1251C58.7502 25.0433 57.9491 26.4244 56.9202 27.3307C55.9307 28.2023 54.7578 28.6164 53.9306 28.737L53.5698 26.2632C53.9926 26.2015 54.6948 25.9594 55.2677 25.4547C55.8013 24.9847 56.2502 24.2694 56.2502 23.1251C56.2502 21.9808 55.8013 21.2655 55.2677 20.7955Z" fill="white"/>
<path fill-rule="evenodd" clip-rule="evenodd" d="M24.7328 20.7955C25.3057 20.2908 26.0078 20.0487 26.4307 19.987L26.0699 17.5132C25.2427 17.6338 24.0698 18.0479 23.0803 18.9195C22.0514 19.8258 21.2503 21.2069 21.2503 23.1251C21.2503 25.0433 22.0514 26.4244 23.0803 27.3307C24.0698 28.2023 25.2427 28.6164 26.0699 28.737L26.4307 26.2632C26.0078 26.2015 25.3057 25.9594 24.7328 25.4547C24.1992 24.9847 23.7503 24.2694 23.7503 23.1251C23.7503 21.9808 24.1992 21.2655 24.7328 20.7955Z" fill="white"/>
<path fill-rule="evenodd" clip-rule="evenodd" d="M40 53.75C41.3807 53.75 42.5 52.6307 42.5 51.25C42.5 49.8693 41.3807 48.75 40 48.75C38.6193 48.75 37.5 49.8693 37.5 51.25C37.5 52.6307 38.6193 53.75 40 53.75ZM40 56.25C42.7614 56.25 45 54.0114 45 51.25C45 48.4886 42.7614 46.25 40 46.25C37.2386 46.25 35 48.4886 35 51.25C35 54.0114 37.2386 56.25 40 56.25Z" fill="#40B4E5"/>
<path fill-rule="evenodd" clip-rule="evenodd" d="M55 75C56.3807 75 57.5 73.8807 57.5 72.5C57.5 71.1193 56.3807 70 55 70C53.6193 70 52.5 71.1193 52.5 72.5C52.5 73.8807 53.6193 75 55 75ZM55 77.5C57.7614 77.5 60 75.2614 60 72.5C60 69.7386 57.7614 67.5 55 67.5C52.2386 67.5 50 69.7386 50 72.5C50 75.2614 52.2386 77.5 55 77.5Z" fill="#40B4E5"/>
<path fill-rule="evenodd" clip-rule="evenodd" d="M52.6374 58.3578L42.5928 53.6309L43.6573 51.3689L54.8626 56.642L57.0247 68.338L54.5663 68.7925L52.6374 58.3578Z" fill="#40B4E5"/>
<path d="M58.75 57.5C58.75 60.2614 56.5114 62.5 53.75 62.5C50.9886 62.5 48.75 60.2614 48.75 57.5C48.75 54.7386 50.9886 52.5 53.75 52.5C56.5114 52.5 58.75 54.7386 58.75 57.5Z" fill="white"/>
<path fill-rule="evenodd" clip-rule="evenodd" d="M53.75 60C55.1307 60 56.25 58.8807 56.25 57.5C56.25 56.1193 55.1307 55 53.75 55C52.3693 55 51.25 56.1193 51.25 57.5C51.25 58.8807 52.3693 60 53.75 60ZM53.75 62.5C56.5114 62.5 58.75 60.2614 58.75 57.5C58.75 54.7386 56.5114 52.5 53.75 52.5C50.9886 52.5 48.75 54.7386 48.75 57.5C48.75 60.2614 50.9886 62.5 53.75 62.5Z" fill="#40B4E5"/>
</g>
<defs>
<clipPath id="clip0_4992_66179">
<rect width="80" height="80" fill="white"/>
</clipPath>
</defs>
</svg>
