<svg width="64" height="64" viewBox="0 0 64 64" fill="none" xmlns="http://www.w3.org/2000/svg">
<g clip-path="url(#clip0_3931_3327)">
<path d="M39.2273 36.5859V31.1138L37 33.5001L34.4091 34.5001C34.4091 38.1984 38.1487 40.8277 41.7767 41.5451C48.4058 42.8558 53.7492 48.6117 53.8951 55.9942L54.2841 75.682H58.5L56.6375 47.0027C56.3301 42.2685 52.4006 38.5859 47.6564 38.5859H41.2273C40.1227 38.5859 39.2273 37.6905 39.2273 36.5859Z" fill="#B4D6F1" fill-opacity="0.5"/>
<path fill-rule="evenodd" clip-rule="evenodd" d="M36.6695 1.03535C38.3936 1.66631 40.0094 2.48213 41.2343 3.16626C43.0285 4.16828 44 6.07666 44 8.0481V26.0313C44 26.8776 43.7316 27.7021 43.2334 28.3862L40.7297 31.8239C36.1861 38.0625 26.7982 37.8045 22.604 31.3259L20.6422 28.2955C20.223 27.6479 20 26.893 20 26.1217V7.97697C20 6.0528 20.9257 4.18235 22.6551 3.1641C23.7417 2.52432 25.1453 1.77145 26.6427 1.16205C28.1289 0.557198 29.769 0.0680092 31.3133 0.00679894C33.0674 -0.0627213 34.959 0.40936 36.6695 1.03535ZM35.9822 2.91353C34.3775 2.3263 32.7699 1.95064 31.3925 2.00523C30.1796 2.0533 28.7856 2.44919 27.3966 3.01451C26.0187 3.57528 24.7056 4.27768 23.6698 4.88756C22.6205 5.50537 22 6.67656 22 7.97697V26.1217C22 26.5074 22.1115 26.8848 22.3211 27.2086L24.2829 30.239C27.7145 35.5397 35.3955 35.7507 39.113 30.6464L41.6167 27.2088C41.8658 26.8667 42 26.4545 42 26.0313V8.0481C42 6.71589 41.3493 5.52123 40.2591 4.9124C39.0887 4.25869 37.5732 3.4958 35.9822 2.91353Z" fill="#065BAA"/>
<path fill-rule="evenodd" clip-rule="evenodd" d="M24.7728 31.5C25.325 31.5 25.7728 31.9477 25.7728 32.5V36.5858C25.7728 38.2427 24.4296 39.5858 22.7728 39.5858H16.3436C12.1266 39.5858 8.63371 42.8592 8.36042 47.0674L6.49793 75.7466C6.46214 76.2977 5.98635 76.7155 5.43523 76.6797C4.88411 76.6439 4.46635 76.1681 4.50214 75.617L6.36463 46.9377C6.70623 41.6776 11.0723 37.5858 16.3436 37.5858H22.7728C23.325 37.5858 23.7728 37.1381 23.7728 36.5858V32.5C23.7728 31.9477 24.2205 31.5 24.7728 31.5Z" fill="#065BAA"/>
<path fill-rule="evenodd" clip-rule="evenodd" d="M39.2272 31.5C38.675 31.5 38.2272 31.9477 38.2272 32.5V36.5858C38.2272 38.2427 39.5704 39.5858 41.2272 39.5858H47.6564C51.8734 39.5858 55.3663 42.8592 55.6396 47.0674L57.5021 75.7466C57.5379 76.2977 58.0136 76.7155 58.5648 76.6797C59.1159 76.6439 59.5337 76.1681 59.4979 75.617L57.6354 46.9377C57.2938 41.6776 52.9277 37.5858 47.6564 37.5858H41.2272C40.675 37.5858 40.2272 37.1381 40.2272 36.5858V32.5C40.2272 31.9477 39.7795 31.5 39.2272 31.5Z" fill="#065BAA"/>
<path d="M48 47C48 49.2091 46.2091 51 44 51C41.7909 51 40 49.2091 40 47C40 44.7909 41.7909 43 44 43C46.2091 43 48 44.7909 48 47Z" fill="white"/>
<path fill-rule="evenodd" clip-rule="evenodd" d="M32.3015 5.3208L33.1943 5.72895C36.222 7.11305 39.5122 7.82943 42.8413 7.82943V9.82943C39.2252 9.82943 35.6515 9.05131 32.3628 7.5479L32.3015 7.51987L32.2402 7.5479C28.9515 9.05131 25.3778 9.82943 21.7617 9.82943V7.82943C25.0908 7.82943 28.3809 7.11305 31.4087 5.72895L32.3015 5.3208Z" fill="#065BAA"/>
<path fill-rule="evenodd" clip-rule="evenodd" d="M13.3281 55.4092C13.8804 55.4092 14.3281 55.8569 14.3281 56.4092V75.6819C14.3281 76.2342 13.8804 76.6819 13.3281 76.6819C12.7758 76.6819 12.3281 76.2342 12.3281 75.6819V56.4092C12.3281 55.8569 12.7758 55.4092 13.3281 55.4092Z" fill="#065BAA"/>
<path fill-rule="evenodd" clip-rule="evenodd" d="M50.0664 55.4092C50.6187 55.4092 51.0664 55.8569 51.0664 56.4092V75.6819C51.0664 76.2342 50.6187 76.6819 50.0664 76.6819C49.5141 76.6819 49.0664 76.2342 49.0664 75.6819V56.4092C49.0664 55.8569 49.5141 55.4092 50.0664 55.4092Z" fill="#065BAA"/>
<path fill-rule="evenodd" clip-rule="evenodd" d="M44.2138 16.6361C43.7554 16.2324 43.1937 16.0386 42.8555 15.9893L43.1441 14.0103C43.8058 14.1068 44.7441 14.438 45.5358 15.1353C46.3589 15.8604 46.9998 16.9652 46.9998 18.4998C46.9998 20.0344 46.3589 21.1392 45.5358 21.8643C44.7441 22.5615 43.8058 22.8928 43.1441 22.9893L42.8555 21.0103C43.1937 20.9609 43.7554 20.7672 44.2138 20.3634C44.6407 19.9875 44.9998 19.4152 44.9998 18.4998C44.9998 17.5844 44.6407 17.0121 44.2138 16.6361Z" fill="#065BAA"/>
<path fill-rule="evenodd" clip-rule="evenodd" d="M19.7862 16.6361C20.2446 16.2324 20.8063 16.0386 21.1445 15.9893L20.8559 14.0103C20.1942 14.1068 19.2559 14.438 18.4642 15.1353C17.6411 15.8604 17.0002 16.9652 17.0002 18.4998C17.0002 20.0344 17.6411 21.1392 18.4642 21.8643C19.2559 22.5615 20.1942 22.8928 20.8559 22.9893L21.1445 21.0103C20.8063 20.9609 20.2446 20.7672 19.7862 20.3634C19.3593 19.9875 19.0002 19.4152 19.0002 18.4998C19.0002 17.5844 19.3593 17.0121 19.7862 16.6361Z" fill="#065BAA"/>
<path fill-rule="evenodd" clip-rule="evenodd" d="M32 43C33.1046 43 34 42.1046 34 41C34 39.8954 33.1046 39 32 39C30.8954 39 30 39.8954 30 41C30 42.1046 30.8954 43 32 43ZM32 45C34.2091 45 36 43.2091 36 41C36 38.7909 34.2091 37 32 37C29.7909 37 28 38.7909 28 41C28 43.2091 29.7909 45 32 45Z" fill="#40B4E5"/>
<path fill-rule="evenodd" clip-rule="evenodd" d="M44 60C45.1046 60 46 59.1046 46 58C46 56.8954 45.1046 56 44 56C42.8954 56 42 56.8954 42 58C42 59.1046 42.8954 60 44 60ZM44 62C46.2091 62 48 60.2091 48 58C48 55.7909 46.2091 54 44 54C41.7909 54 40 55.7909 40 58C40 60.2091 41.7909 62 44 62Z" fill="#40B4E5"/>
<path fill-rule="evenodd" clip-rule="evenodd" d="M42.1099 46.6864L34.0742 42.9049L34.9258 41.0952L43.8901 45.3137L45.6197 54.6705L43.653 55.0341L42.1099 46.6864Z" fill="#40B4E5"/>
<path d="M47 46C47 48.2091 45.2091 50 43 50C40.7909 50 39 48.2091 39 46C39 43.7909 40.7909 42 43 42C45.2091 42 47 43.7909 47 46Z" fill="white"/>
<path fill-rule="evenodd" clip-rule="evenodd" d="M43 48C44.1046 48 45 47.1046 45 46C45 44.8954 44.1046 44 43 44C41.8954 44 41 44.8954 41 46C41 47.1046 41.8954 48 43 48ZM43 50C45.2091 50 47 48.2091 47 46C47 43.7909 45.2091 42 43 42C40.7909 42 39 43.7909 39 46C39 48.2091 40.7909 50 43 50Z" fill="#40B4E5"/>
</g>
<defs>
<clipPath id="clip0_3931_3327">
<rect width="64" height="64" fill="white"/>
</clipPath>
</defs>
</svg>
