<svg width="42" height="49" viewBox="0 0 42 49" fill="none" xmlns="http://www.w3.org/2000/svg">
<path fill-rule="evenodd" clip-rule="evenodd" d="M24.5021 1.27651C25.7952 1.74973 27.007 2.3616 27.9258 2.8747C29.2714 3.62621 30 5.05749 30 6.53607V20.0235C30 20.6582 29.7987 21.2766 29.425 21.7897L27.5473 24.3679C24.1396 29.0468 17.0987 28.8534 13.953 23.9944L12.4817 21.7216C12.1673 21.236 12 20.6698 12 20.0913V6.48273C12 5.0396 12.6943 3.63676 13.9913 2.87308C14.8063 2.39324 15.8589 1.82859 16.982 1.37154C18.0967 0.917899 19.3267 0.551007 20.485 0.505099C21.8005 0.452959 23.2192 0.80702 24.5021 1.27651ZM23.9866 2.68515C22.7831 2.24472 21.5774 1.96298 20.5444 2.00392C19.6347 2.03998 18.5892 2.33689 17.5474 2.76089C16.514 3.18146 15.5292 3.70826 14.7524 4.16567C13.9654 4.62903 13.5 5.50742 13.5 6.48273V20.0913C13.5 20.3805 13.5836 20.6636 13.7408 20.9064L15.2122 23.1792C17.7859 27.1548 23.5466 27.3131 26.3347 23.4848L28.2125 20.9066C28.3993 20.65 28.5 20.3409 28.5 20.0235V6.53607C28.5 5.53692 28.012 4.64092 27.1944 4.1843C26.3165 3.69402 25.1799 3.12185 23.9866 2.68515Z" fill="#065BAA"/>
<path fill-rule="evenodd" clip-rule="evenodd" d="M15.5796 24.125C15.9938 24.125 16.3296 24.4608 16.3296 24.875V27.9394C16.3296 29.182 15.3222 30.1894 14.0796 30.1894H9.2577C6.09495 30.1894 3.47528 32.6444 3.27032 35.8005L1.87345 57.31C1.84661 57.7233 1.48977 58.0366 1.07642 58.0098C0.66308 57.9829 0.34976 57.6261 0.376604 57.2128L1.77347 35.7033C2.02968 31.7582 5.30426 28.6894 9.2577 28.6894H14.0796C14.4938 28.6894 14.8296 28.3536 14.8296 27.9394V24.875C14.8296 24.4608 15.1654 24.125 15.5796 24.125Z" fill="#065BAA"/>
<path fill-rule="evenodd" clip-rule="evenodd" d="M26.4204 24.125C26.0062 24.125 25.6704 24.4608 25.6704 24.875V27.9394C25.6704 29.182 26.6778 30.1894 27.9204 30.1894H32.7423C35.9051 30.1894 38.5247 32.6444 38.7297 35.8005L40.1265 57.31C40.1534 57.7233 40.5102 58.0366 40.9236 58.0098C41.3369 57.9829 41.6502 57.6261 41.6234 57.2128L40.2265 35.7033C39.9703 31.7582 36.6957 28.6894 32.7423 28.6894H27.9204C27.5062 28.6894 27.1704 28.3536 27.1704 27.9394V24.875C27.1704 24.4608 26.8346 24.125 26.4204 24.125Z" fill="#065BAA"/>
<path d="M31.5 35.375C31.5 37.0319 30.9069 36.875 29.25 36.875C27.5931 36.875 27 37.4069 27 35.75C27 34.0931 28.3431 32.75 30 32.75C31.6569 32.75 31.5 33.7181 31.5 35.375Z" fill="white"/>
<path fill-rule="evenodd" clip-rule="evenodd" d="M21.2261 4.49072L21.8957 4.79683C24.1665 5.83491 26.6341 6.37219 29.1309 6.37219V7.87219C26.4189 7.87219 23.7386 7.2886 21.2721 6.16104L21.2261 6.14003L21.1801 6.16104C18.7136 7.2886 16.0333 7.87219 13.3213 7.87219V6.37219C15.8181 6.37219 18.2857 5.83491 20.5565 4.79683L21.2261 4.49072Z" fill="#065BAA"/>
<path fill-rule="evenodd" clip-rule="evenodd" d="M6.99707 42.0569C7.41128 42.0569 7.74707 42.3927 7.74707 42.8069V57.2614C7.74707 57.6756 7.41128 58.0114 6.99707 58.0114C6.58286 58.0114 6.24707 57.6756 6.24707 57.2614V42.8069C6.24707 42.3927 6.58286 42.0569 6.99707 42.0569Z" fill="#065BAA"/>
<path fill-rule="evenodd" clip-rule="evenodd" d="M34.5508 42.0569C34.965 42.0569 35.3008 42.3927 35.3008 42.8069V57.2614C35.3008 57.6756 34.965 58.0114 34.5508 58.0114C34.1366 58.0114 33.8008 57.6756 33.8008 57.2614V42.8069C33.8008 42.3927 34.1366 42.0569 34.5508 42.0569Z" fill="#065BAA"/>
<path fill-rule="evenodd" clip-rule="evenodd" d="M30.1603 12.9772C29.8166 12.6744 29.3953 12.5291 29.1416 12.4921L29.3581 11.0078C29.8544 11.0802 30.5581 11.3287 31.1518 11.8516C31.7692 12.3954 32.2498 13.224 32.2498 14.375C32.2498 15.5259 31.7692 16.3545 31.1518 16.8983C30.5581 17.4213 29.8544 17.6697 29.3581 17.7421L29.1416 16.2578C29.3953 16.2208 29.8166 16.0755 30.1603 15.7727C30.4805 15.4907 30.7498 15.0615 30.7498 14.375C30.7498 13.6884 30.4805 13.2592 30.1603 12.9772Z" fill="#065BAA"/>
<path fill-rule="evenodd" clip-rule="evenodd" d="M11.8397 12.9772C12.1834 12.6744 12.6047 12.5291 12.8584 12.4921L12.6419 11.0078C12.1456 11.0802 11.4419 11.3287 10.8482 11.8516C10.2308 12.3954 9.75017 13.224 9.75017 14.375C9.75017 15.5259 10.2308 16.3545 10.8482 16.8983C11.4419 17.4213 12.1456 17.6697 12.6419 17.7421L12.8584 16.2578C12.6047 16.2208 12.1834 16.0755 11.8397 15.7727C11.5195 15.4907 11.2502 15.0615 11.2502 14.375C11.2502 13.6884 11.5195 13.2592 11.8397 12.9772Z" fill="#065BAA"/>
<path fill-rule="evenodd" clip-rule="evenodd" d="M21 32.75C21.8284 32.75 22.5 32.0784 22.5 31.25C22.5 30.4216 21.8284 29.75 21 29.75C20.1716 29.75 19.5 30.4216 19.5 31.25C19.5 32.0784 20.1716 32.75 21 32.75ZM21 34.25C22.6569 34.25 24 32.9069 24 31.25C24 29.5931 22.6569 28.25 21 28.25C19.3431 28.25 18 29.5931 18 31.25C18 32.9069 19.3431 34.25 21 34.25Z" fill="#40B4E5"/>
<path fill-rule="evenodd" clip-rule="evenodd" d="M30 45.5C30.8284 45.5 31.5 44.8284 31.5 44C31.5 43.1716 30.8284 42.5 30 42.5C29.1716 42.5 28.5 43.1716 28.5 44C28.5 44.8284 29.1716 45.5 30 45.5ZM30 47C31.6569 47 33 45.6569 33 44C33 42.3431 31.6569 41 30 41C28.3431 41 27 42.3431 27 44C27 45.6569 28.3431 47 30 47Z" fill="#40B4E5"/>
<path fill-rule="evenodd" clip-rule="evenodd" d="M28.5825 35.5147L22.5557 32.6785L23.1944 31.3213L29.9176 34.4851L31.2148 41.5028L29.7398 41.7754L28.5825 35.5147Z" fill="#40B4E5"/>
<path d="M32.25 35C32.25 36.6569 30.9069 38 29.25 38C27.5931 38 26.25 36.6569 26.25 35C26.25 33.3431 27.5931 32 29.25 32C30.9069 32 32.25 33.3431 32.25 35Z" fill="white"/>
<path fill-rule="evenodd" clip-rule="evenodd" d="M29.25 36.5C30.0784 36.5 30.75 35.8284 30.75 35C30.75 34.1716 30.0784 33.5 29.25 33.5C28.4216 33.5 27.75 34.1716 27.75 35C27.75 35.8284 28.4216 36.5 29.25 36.5ZM29.25 38C30.9069 38 32.25 36.6569 32.25 35C32.25 33.3431 30.9069 32 29.25 32C27.5931 32 26.25 33.3431 26.25 35C26.25 36.6569 27.5931 38 29.25 38Z" fill="#40B4E5"/>
</svg>
