<svg width="195" height="72" viewBox="0 0 195 72" fill="none" xmlns="http://www.w3.org/2000/svg">
<path d="M-21 0H175C186.046 0 195 8.95431 195 20V72H-21V0Z" fill="url(#paint0_linear_5110_63828)"/>
<path d="M65 47H57.381V39.5H52.6191V47H45V33.5L55 25L65 33.5V43.3695" stroke="white" stroke-width="1.5" stroke-linecap="round" stroke-linejoin="round"/>
<path d="M81.4075 30.625L83.5559 38.8516L85.6966 30.625H88.6966V42H86.3919V38.9219L86.6028 34.1797L84.3294 42H82.7669L80.4934 34.1797L80.7044 38.9219V42H78.4075V30.625H81.4075ZM96.2978 39.6719H93.165L92.5556 42H90.1259L93.6806 30.625H95.7822L99.3603 42H96.9072L96.2978 39.6719ZM93.665 37.7578H95.79L94.7275 33.7031L93.665 37.7578ZM103.149 42H100.852V30.625H103.149V42ZM113.352 42H111.055L107.696 34.5391V42H105.399V30.625H107.696L111.063 38.0938V30.625H113.352V42ZM122.523 30.625L124.672 38.8516L126.812 30.625H129.812V42H127.507V38.9219L127.718 34.1797L125.445 42H123.882L121.609 34.1797L121.82 38.9219V42H119.523V30.625H122.523ZM137.859 37.0781H134.281V40.0938H138.515V42H131.984V30.625H138.499V32.5391H134.281V35.2266H137.859V37.0781ZM148.116 42H145.819L142.46 34.5391V42H140.163V30.625H142.46L145.827 38.0938V30.625H148.116V42ZM157.678 30.625V38.5C157.668 39.6823 157.342 40.5885 156.702 41.2188C156.061 41.8438 155.142 42.1562 153.944 42.1562C152.725 42.1562 151.793 41.8385 151.147 41.2031C150.507 40.5677 150.186 39.6484 150.186 38.4453V30.625H152.499V38.4531C152.499 39.099 152.603 39.5599 152.811 39.8359C153.02 40.112 153.397 40.25 153.944 40.25C154.491 40.25 154.866 40.1146 155.069 39.8438C155.272 39.5677 155.376 39.1172 155.382 38.4922V30.625H157.678Z" fill="white"/>
<defs>
<linearGradient id="paint0_linear_5110_63828" x1="-21" y1="72" x2="195" y2="72" gradientUnits="userSpaceOnUse">
<stop stop-color="#9F24E2"/>
<stop offset="1" stop-color="#3F00C5"/>
</linearGradient>
</defs>
</svg>
