<svg width="48" height="48" viewBox="0 0 48 48" fill="none" xmlns="http://www.w3.org/2000/svg">
<path fill-rule="evenodd" clip-rule="evenodd" d="M6.33301 21.9925C6.95448 21.7827 7.52644 21.465 8.02671 21.0616C9.45555 22.9236 11.7008 24.1235 14.2257 24.1235C17.3963 24.1235 20.1259 22.2314 21.3517 19.5123C25.3079 19.3906 28.4778 16.1381 28.4778 12.1436C28.4778 10.864 28.1525 9.66052 27.5802 8.61172C28.3684 7.84591 28.9468 6.86441 29.2205 5.76221C29.335 6.08072 29.3973 6.42407 29.3973 6.78198C29.3973 6.90603 29.3898 7.02833 29.3753 7.14846C31.158 7.88167 32.4132 9.63568 32.4132 11.6828C32.4132 13.0637 31.8421 14.3112 30.9233 15.202C31.3925 16.0601 31.6592 17.0447 31.6592 18.0917C31.6592 21.3599 29.06 24.0211 25.8159 24.1206C24.8107 26.3453 22.5724 27.8934 19.9725 27.8934C17.9021 27.8934 16.061 26.9117 14.8894 25.3883C14.1139 26.0121 13.1285 26.3855 12.0558 26.3855C9.73858 26.3855 7.8283 24.6433 7.56328 22.3974C7.13887 22.2956 6.72775 22.1596 6.33301 21.9925Z" fill="#B4D6F1" fill-opacity="0.5"/>
<path fill-rule="evenodd" clip-rule="evenodd" d="M22.7264 1.5C21.9126 1.5 21.1842 1.87897 20.7047 2.47941C20.4866 2.75253 20.1087 2.83879 19.7937 2.68738C19.2158 2.40958 18.5694 2.25398 17.8853 2.25398C16.5134 2.25398 15.2844 2.88117 14.4632 3.87467C14.2539 4.12787 13.9042 4.2154 13.6003 4.09064C13.0844 3.87885 12.52 3.76194 11.927 3.76194C10.9799 3.76194 10.103 4.06037 9.38047 4.5706C8.74535 5.01908 8.22988 5.63106 7.89417 6.34647C7.71821 6.72145 7.27158 6.88278 6.8966 6.70682C6.52162 6.53086 6.36028 6.08423 6.53624 5.70925C6.98271 4.75782 7.66822 3.9434 8.51524 3.3453C9.48159 2.66292 10.6588 2.26194 11.927 2.26194C12.531 2.26194 13.115 2.35294 13.6656 2.52235C14.7433 1.43177 16.2354 0.75398 17.8853 0.75398C18.6011 0.75398 19.2886 0.881787 19.9257 1.11626C20.6572 0.425506 21.642 0 22.7264 0C24.6289 0 26.2191 1.30482 26.6877 3.06591C28.4321 3.35515 29.76 4.86479 29.8058 6.68461C31.5804 7.63325 32.7862 9.5174 32.7862 11.6827C32.7862 13.073 32.2886 14.3481 31.4631 15.3332C31.835 16.1768 32.0414 17.1107 32.0414 18.0915C32.0414 21.6008 29.4008 24.4994 26.0033 24.8399C24.8159 27.0983 22.4632 28.6433 19.7472 28.6433C17.7147 28.6433 15.8841 27.777 14.5949 26.3949C13.8145 26.8647 12.9017 27.1353 11.927 27.1353C9.42274 27.1353 7.34092 25.3566 6.82895 22.9934C3.30613 21.9127 0.75 18.6043 0.75 14.6986C0.75 12.8604 1.31675 11.1532 2.28412 9.74922C2.86367 8.90808 3.58711 8.17557 4.41892 7.5882C4.75728 7.34928 5.22526 7.42988 5.46419 7.76824C5.70311 8.1066 5.62251 8.57458 5.28415 8.81351C4.59737 9.29846 3.99899 9.90409 3.5193 10.6003C2.71957 11.761 2.25 13.1728 2.25 14.6986C2.25 18.0845 4.56478 20.9152 7.66629 21.6684C7.97129 21.7425 8.19791 21.9986 8.23425 22.3104C8.45333 24.19 10.0303 25.6353 11.927 25.6353C12.807 25.6353 13.6147 25.326 14.2524 24.8066C14.4101 24.6782 14.6131 24.6193 14.815 24.6434C15.0168 24.6675 15.2003 24.7725 15.3233 24.9344C16.3463 26.2809 17.9485 27.1433 19.7472 27.1433C22.0048 27.1433 23.9561 25.7828 24.8344 23.8148C24.9516 23.5522 25.2086 23.3798 25.496 23.3708C28.2886 23.2841 30.5414 20.9617 30.5414 18.0915C30.5414 17.1718 30.3102 16.3093 29.9045 15.5583C29.7457 15.2642 29.8006 14.9006 30.0391 14.6665C30.8079 13.912 31.2862 12.8555 31.2862 11.6827C31.2862 9.9446 30.2342 8.45992 28.747 7.8407C28.4371 7.71169 28.2507 7.3925 28.2906 7.05923C28.3014 6.9686 28.307 6.87604 28.307 6.78184C28.307 5.52212 27.3011 4.51659 26.0791 4.51592C26.0787 4.51592 26.0783 4.51592 26.0779 4.51592L26.0601 4.51599C25.6764 4.51734 25.3535 4.22884 25.3119 3.84739C25.167 2.51984 24.0573 1.5 22.7264 1.5Z" fill="#065BAA"/>
<path fill-rule="evenodd" clip-rule="evenodd" d="M21.0091 23.8488C22.0545 23.8488 22.902 23.0013 22.902 21.9559C22.902 20.9105 22.0545 20.063 21.0091 20.063C19.9637 20.063 19.1162 20.9105 19.1162 21.9559C19.1162 23.0013 19.9637 23.8488 21.0091 23.8488ZM21.0091 25.3488C22.883 25.3488 24.402 23.8297 24.402 21.9559C24.402 20.082 22.883 18.563 21.0091 18.563C19.1353 18.563 17.6162 20.082 17.6162 21.9559C17.6162 23.8297 19.1353 25.3488 21.0091 25.3488Z" fill="#40B4E5"/>
<path fill-rule="evenodd" clip-rule="evenodd" d="M6.5892 16.2145C7.63462 16.2145 8.48211 15.367 8.48211 14.3216C8.48211 13.2762 7.63462 12.4287 6.5892 12.4287C5.54377 12.4287 4.69629 13.2762 4.69629 14.3216C4.69629 15.367 5.54377 16.2145 6.5892 16.2145ZM6.5892 17.7145C8.46305 17.7145 9.98211 16.1955 9.98211 14.3216C9.98211 12.4478 8.46305 10.9287 6.5892 10.9287C4.71535 10.9287 3.19629 12.4478 3.19629 14.3216C3.19629 16.1955 4.71535 17.7145 6.5892 17.7145Z" fill="#40B4E5"/>
<path fill-rule="evenodd" clip-rule="evenodd" d="M15.9203 15.3664C16.9657 15.3664 17.8132 14.5189 17.8132 13.4735C17.8132 12.4281 16.9657 11.5806 15.9203 11.5806C14.8748 11.5806 14.0273 12.4281 14.0273 13.4735C14.0273 14.5189 14.8748 15.3664 15.9203 15.3664ZM15.9203 16.8664C17.7941 16.8664 19.3132 15.3473 19.3132 13.4735C19.3132 11.5996 17.7941 10.0806 15.9203 10.0806C14.0464 10.0806 12.5273 11.5996 12.5273 13.4735C12.5273 15.3473 14.0464 16.8664 15.9203 16.8664Z" fill="#40B4E5"/>
<path fill-rule="evenodd" clip-rule="evenodd" d="M22.7054 9.42888C23.7508 9.42888 24.5983 8.5814 24.5983 7.53598C24.5983 6.49055 23.7508 5.64307 22.7054 5.64307C21.66 5.64307 20.8125 6.49055 20.8125 7.53598C20.8125 8.5814 21.66 9.42888 22.7054 9.42888ZM22.7054 10.9289C24.5793 10.9289 26.0983 9.40983 26.0983 7.53598C26.0983 5.66212 24.5793 4.14307 22.7054 4.14307C20.8316 4.14307 19.3125 5.66212 19.3125 7.53598C19.3125 9.40983 20.8316 10.9289 22.7054 10.9289Z" fill="#40B4E5"/>
<path fill-rule="evenodd" clip-rule="evenodd" d="M26.099 17.9108C27.1444 17.9108 27.9919 17.0633 27.9919 16.0179C27.9919 14.9725 27.1444 14.125 26.099 14.125C25.0535 14.125 24.2061 14.9725 24.2061 16.0179C24.2061 17.0633 25.0535 17.9108 26.099 17.9108ZM26.099 19.4108C27.9728 19.4108 29.4919 17.8918 29.4919 16.0179C29.4919 14.1441 27.9728 12.625 26.099 12.625C24.2251 12.625 22.7061 14.1441 22.7061 16.0179C22.7061 17.8918 24.2251 19.4108 26.099 19.4108Z" fill="#40B4E5"/>
<path fill-rule="evenodd" clip-rule="evenodd" d="M25.8125 42.3494C26.3054 42.183 26.7591 41.9311 27.1559 41.6111C28.2893 43.088 30.0702 44.0398 32.0729 44.0398C34.5878 44.0398 36.753 42.5389 37.7253 40.3822C40.8633 40.2857 43.3776 37.7058 43.3776 34.5374C43.3776 33.5224 43.1196 32.5678 42.6657 31.7359C43.291 31.1284 43.7497 30.3499 43.9668 29.4756C44.0576 29.7283 44.1071 30.0006 44.1071 30.2846C44.1071 30.383 44.1011 30.48 44.0896 30.5753C45.5037 31.1568 46.4993 32.5481 46.4993 34.1719C46.4993 35.2672 46.0463 36.2567 45.3175 36.9632C45.6897 37.6439 45.9013 38.4249 45.9013 39.2554C45.9013 41.8477 43.8395 43.9585 41.2663 44.0375C40.469 45.8021 38.6936 47.0301 36.6314 47.0301C34.9891 47.0301 33.5288 46.2513 32.5994 45.043C31.9844 45.5378 31.2027 45.8339 30.3518 45.8339C28.5138 45.8339 26.9986 44.4521 26.7884 42.6706C26.4517 42.5899 26.1256 42.482 25.8125 42.3494Z" fill="#B4D6F1" fill-opacity="0.5"/>
<path fill-rule="evenodd" clip-rule="evenodd" d="M38.8162 26.25C38.2203 26.25 37.6863 26.5272 37.3338 26.9686C37.1157 27.2417 36.7379 27.3279 36.4229 27.1765C35.9849 26.966 35.4951 26.8481 34.9763 26.8481C33.9367 26.8481 33.0049 27.3231 32.3814 28.0773C32.1721 28.3305 31.8224 28.418 31.5185 28.2933C31.1276 28.1328 30.7 28.0442 30.2502 28.0442C29.5321 28.0442 28.8677 28.2703 28.3197 28.6572C27.8379 28.9975 27.4466 29.4619 27.1918 30.005C27.0158 30.38 26.5692 30.5413 26.1942 30.3654C25.8192 30.1894 25.6579 29.7428 25.8338 29.3678C26.1994 28.5887 26.7607 27.9218 27.4545 27.4319C28.2462 26.8728 29.211 26.5442 30.2502 26.5442C30.7124 26.5442 31.1604 26.6092 31.5853 26.731C32.4622 25.8765 33.6576 25.3481 34.9763 25.3481C35.5294 25.3481 36.0619 25.4412 36.5588 25.613C37.1586 25.0774 37.949 24.75 38.8162 24.75C40.3638 24.75 41.6612 25.7879 42.0814 27.2017C43.4616 27.4764 44.5063 28.6703 44.5832 30.1135C45.997 30.9052 46.9508 32.4277 46.9508 34.1718C46.9508 35.2777 46.5669 36.295 45.926 37.0928C46.2056 37.7579 46.36 38.4892 46.36 39.2553C46.36 42.0892 44.2484 44.4373 41.5136 44.7536C40.5342 46.5534 38.6385 47.78 36.4532 47.78C34.8403 47.78 33.3838 47.111 32.3385 46.0372C31.7206 46.3851 31.008 46.5839 30.2502 46.5839C28.2195 46.5839 26.5281 45.1638 26.075 43.2647C23.2607 42.3608 21.2295 39.6991 21.2295 36.564C21.2295 35.0737 21.6891 33.689 22.4737 32.5502C22.9438 31.868 23.5305 31.2739 24.2053 30.7974C24.5437 30.5584 25.0117 30.639 25.2506 30.9774C25.4895 31.3158 25.4089 31.7837 25.0705 32.0227C24.5408 32.3967 24.0791 32.864 23.7089 33.4012C23.0919 34.2967 22.7295 35.386 22.7295 36.564C22.7295 39.1777 24.5162 41.3611 26.9072 41.9418C27.2122 42.0158 27.4388 42.272 27.4752 42.5837C27.6401 43.9988 28.8269 45.0839 30.2502 45.0839C30.911 45.0839 31.5174 44.8518 31.9968 44.4614C32.1544 44.333 32.3574 44.2741 32.5593 44.2982C32.7612 44.3223 32.9446 44.4273 33.0676 44.5892C33.8512 45.6207 35.0774 46.28 36.4532 46.28C38.1797 46.28 39.6737 45.2398 40.3467 43.7318C40.4639 43.4692 40.7209 43.2968 41.0083 43.2878C43.1382 43.2216 44.86 41.4496 44.86 39.2553C44.86 38.552 44.6833 37.8932 44.3735 37.3196C44.2147 37.0256 44.2695 36.662 44.508 36.4279C45.0892 35.8576 45.4508 35.059 45.4508 34.1718C45.4508 32.8571 44.6552 31.7351 43.5322 31.2675C43.2223 31.1385 43.0359 30.8193 43.0758 30.486C43.0836 30.4203 43.0877 30.353 43.0877 30.2845C43.0877 29.3692 42.3575 28.6429 41.4759 28.6422C41.4755 28.6422 41.4751 28.6422 41.4747 28.6422L41.4611 28.6423C41.0774 28.6436 40.7545 28.3551 40.7129 27.9737C40.6062 26.997 39.7904 26.25 38.8162 26.25Z" fill="#065BAA"/>
<path fill-rule="evenodd" clip-rule="evenodd" d="M37.125 42.75C37.7463 42.75 38.25 42.2463 38.25 41.625C38.25 41.0037 37.7463 40.5 37.125 40.5C36.5037 40.5 36 41.0037 36 41.625C36 42.2463 36.5037 42.75 37.125 42.75ZM37.125 44.25C38.5747 44.25 39.75 43.0747 39.75 41.625C39.75 40.1753 38.5747 39 37.125 39C35.6753 39 34.5 40.1753 34.5 41.625C34.5 43.0747 35.6753 44.25 37.125 44.25Z" fill="#40B4E5"/>
<path fill-rule="evenodd" clip-rule="evenodd" d="M26.25 37.5C26.6642 37.5 27 37.1642 27 36.75C27 36.3358 26.6642 36 26.25 36C25.8358 36 25.5 36.3358 25.5 36.75C25.5 37.1642 25.8358 37.5 26.25 37.5ZM26.25 39C27.4926 39 28.5 37.9926 28.5 36.75C28.5 35.5074 27.4926 34.5 26.25 34.5C25.0074 34.5 24 35.5074 24 36.75C24 37.9926 25.0074 39 26.25 39Z" fill="#40B4E5"/>
<path fill-rule="evenodd" clip-rule="evenodd" d="M33.75 36.75C34.1642 36.75 34.5 36.4142 34.5 36C34.5 35.5858 34.1642 35.25 33.75 35.25C33.3358 35.25 33 35.5858 33 36C33 36.4142 33.3358 36.75 33.75 36.75ZM33.75 38.25C34.9926 38.25 36 37.2426 36 36C36 34.7574 34.9926 33.75 33.75 33.75C32.5074 33.75 31.5 34.7574 31.5 36C31.5 37.2426 32.5074 38.25 33.75 38.25Z" fill="#40B4E5"/>
<path fill-rule="evenodd" clip-rule="evenodd" d="M39 32.25C39.4142 32.25 39.75 31.9142 39.75 31.5C39.75 31.0858 39.4142 30.75 39 30.75C38.5858 30.75 38.25 31.0858 38.25 31.5C38.25 31.9142 38.5858 32.25 39 32.25ZM39 33.75C40.2426 33.75 41.25 32.7426 41.25 31.5C41.25 30.2574 40.2426 29.25 39 29.25C37.7574 29.25 36.75 30.2574 36.75 31.5C36.75 32.7426 37.7574 33.75 39 33.75Z" fill="#40B4E5"/>
<path fill-rule="evenodd" clip-rule="evenodd" d="M42 39C42.4142 39 42.75 38.6642 42.75 38.25C42.75 37.8358 42.4142 37.5 42 37.5C41.5858 37.5 41.25 37.8358 41.25 38.25C41.25 38.6642 41.5858 39 42 39ZM42 40.5C43.2426 40.5 44.25 39.4926 44.25 38.25C44.25 37.0074 43.2426 36 42 36C40.7574 36 39.75 37.0074 39.75 38.25C39.75 39.4926 40.7574 40.5 42 40.5Z" fill="#40B4E5"/>
</svg>
