<svg width="80" height="80" viewBox="0 0 80 80" fill="none" xmlns="http://www.w3.org/2000/svg">
<path fill-rule="evenodd" clip-rule="evenodd" d="M37.8773 2.5C36.521 2.5 35.307 3.13161 34.5078 4.13235C34.1443 4.58755 33.5146 4.73131 32.9895 4.47896C32.0263 4.01597 30.949 3.75663 29.8088 3.75663C27.5223 3.75663 25.474 4.80194 24.1053 6.45778C23.7565 6.87979 23.1736 7.02568 22.6671 6.81774C21.8073 6.46475 20.8667 6.2699 19.8783 6.2699C18.2998 6.2699 16.8384 6.76729 15.6341 7.61767C14.5756 8.36513 13.7165 9.38509 13.1569 10.5774C12.8637 11.2024 12.1193 11.4713 11.4943 11.178C10.8694 10.8848 10.6005 10.1404 10.8937 9.51542C11.6378 7.9297 12.7804 6.57234 14.1921 5.57549C15.8026 4.4382 17.7646 3.7699 19.8783 3.7699C20.885 3.7699 21.8583 3.92156 22.7761 4.20392C24.5721 2.38629 27.059 1.25663 29.8088 1.25663C31.0019 1.25663 32.1476 1.46965 33.2095 1.86044C34.4287 0.709177 36.07 0 37.8773 0C41.0481 0 43.6985 2.1747 44.4795 5.10985C47.3869 5.59192 49.6 8.10798 49.6764 11.141C52.634 12.7221 54.6436 15.8623 54.6436 19.4712C54.6436 21.7884 53.8143 23.9135 52.4385 25.5553C53.0583 26.9613 53.4023 28.5178 53.4023 30.1526C53.4023 36.0013 49.0014 40.8324 43.3389 41.3999C41.3598 45.1639 37.4386 47.7388 32.9121 47.7388C29.5246 47.7388 26.4735 46.2951 24.3248 43.9915C23.0241 44.7746 21.5028 45.2255 19.8783 45.2255C15.7046 45.2255 12.2349 42.261 11.3816 38.3223C5.51022 36.5212 1.25 31.0071 1.25 24.4977C1.25 21.434 2.19459 18.5887 3.80686 16.2487C4.77279 14.8468 5.97852 13.6259 7.36486 12.647C7.92879 12.2488 8.70877 12.3831 9.10698 12.9471C9.50519 13.511 9.37084 14.291 8.80691 14.6892C7.66229 15.4974 6.66499 16.5068 5.86551 17.6671C4.53262 19.6016 3.75 21.9546 3.75 24.4977C3.75 30.1408 7.60797 34.8587 12.7772 36.114C13.2855 36.2375 13.6632 36.6644 13.7238 37.184C14.0889 40.3166 16.7172 42.7255 19.8783 42.7255C21.345 42.7255 22.6911 42.21 23.7541 41.3443C24.0168 41.1303 24.3551 41.0322 24.6916 41.0723C25.028 41.1125 25.3338 41.2875 25.5388 41.5573C27.2437 43.8015 29.9142 45.2388 32.9121 45.2388C36.6747 45.2388 39.9268 42.9714 41.3907 39.6913C41.586 39.2537 42.0144 38.9663 42.4934 38.9514C47.1476 38.8068 50.9023 34.9361 50.9023 30.1526C50.9023 28.6196 50.517 27.1822 49.8409 25.9304C49.5762 25.4404 49.6676 24.8343 50.0651 24.4442C51.3465 23.1866 52.1436 21.4258 52.1436 19.4712C52.1436 16.5743 50.3904 14.0999 47.9117 13.0678C47.3952 12.8528 47.0845 12.3208 47.151 11.7654C47.1691 11.6143 47.1784 11.4601 47.1784 11.3031C47.1784 9.20354 45.5018 7.52765 43.4652 7.52653C43.4645 7.52653 43.4639 7.52653 43.4632 7.52653L43.4335 7.52664C42.794 7.52889 42.2559 7.04807 42.1865 6.41231C41.9449 4.19973 40.0956 2.5 37.8773 2.5Z" fill="white"/>
<path fill-rule="evenodd" clip-rule="evenodd" d="M35.0153 39.7477C36.7577 39.7477 38.1701 38.3352 38.1701 36.5928C38.1701 34.8505 36.7577 33.438 35.0153 33.438C33.2729 33.438 31.8604 34.8505 31.8604 36.5928C31.8604 38.3352 33.2729 39.7477 35.0153 39.7477ZM35.0153 42.2477C38.1384 42.2477 40.6701 39.7159 40.6701 36.5928C40.6701 33.4698 38.1384 30.938 35.0153 30.938C31.8922 30.938 29.3604 33.4698 29.3604 36.5928C29.3604 39.7159 31.8922 42.2477 35.0153 42.2477Z" fill="#40B4E5"/>
<path fill-rule="evenodd" clip-rule="evenodd" d="M10.982 27.0241C12.7244 27.0241 14.1369 25.6116 14.1369 23.8692C14.1369 22.1268 12.7244 20.7144 10.982 20.7144C9.23967 20.7144 7.82719 22.1268 7.82719 23.8692C7.82719 25.6116 9.23967 27.0241 10.982 27.0241ZM10.982 29.5241C14.1051 29.5241 16.6369 26.9923 16.6369 23.8692C16.6369 20.7461 14.1051 18.2144 10.982 18.2144C7.85896 18.2144 5.32719 20.7461 5.32719 23.8692C5.32719 26.9923 7.85896 29.5241 10.982 29.5241Z" fill="#40B4E5"/>
<path fill-rule="evenodd" clip-rule="evenodd" d="M26.5334 25.6105C28.2758 25.6105 29.6883 24.198 29.6883 22.4556C29.6883 20.7133 28.2758 19.3008 26.5334 19.3008C24.791 19.3008 23.3786 20.7133 23.3786 22.4556C23.3786 24.198 24.791 25.6105 26.5334 25.6105ZM26.5334 28.1105C29.6565 28.1105 32.1883 25.5787 32.1883 22.4556C32.1883 19.3325 29.6565 16.8008 26.5334 16.8008C23.4103 16.8008 20.8786 19.3325 20.8786 22.4556C20.8786 25.5787 23.4103 28.1105 26.5334 28.1105Z" fill="#40B4E5"/>
<path fill-rule="evenodd" clip-rule="evenodd" d="M37.8428 15.7145C39.5852 15.7145 40.9976 14.302 40.9976 12.5596C40.9976 10.8173 39.5852 9.40479 37.8428 9.40479C36.1004 9.40479 34.6879 10.8173 34.6879 12.5596C34.6879 14.302 36.1004 15.7145 37.8428 15.7145ZM37.8428 18.2145C40.9659 18.2145 43.4976 15.6827 43.4976 12.5596C43.4976 9.43655 40.9659 6.90479 37.8428 6.90479C34.7197 6.90479 32.1879 9.43655 32.1879 12.5596C32.1879 15.6827 34.7197 18.2145 37.8428 18.2145Z" fill="#40B4E5"/>
<path fill-rule="evenodd" clip-rule="evenodd" d="M43.4975 29.8517C45.2398 29.8517 46.6523 28.4392 46.6523 26.6968C46.6523 24.9545 45.2398 23.542 43.4975 23.542C41.7551 23.542 40.3426 24.9545 40.3426 26.6968C40.3426 28.4392 41.7551 29.8517 43.4975 29.8517ZM43.4975 32.3517C46.6206 32.3517 49.1523 29.8199 49.1523 26.6968C49.1523 23.5738 46.6206 21.042 43.4975 21.042C40.3744 21.042 37.8426 23.5738 37.8426 26.6968C37.8426 29.8199 40.3744 32.3517 43.4975 32.3517Z" fill="#40B4E5"/>
<path fill-rule="evenodd" clip-rule="evenodd" d="M64.6939 43.75C63.7007 43.75 62.8106 44.212 62.2232 44.9476C61.8597 45.4028 61.2299 45.5465 60.7049 45.2942C59.975 44.9434 59.1586 44.7468 58.2939 44.7468C56.5613 44.7468 55.0082 45.5384 53.9692 46.7955C53.6203 47.2175 53.0375 47.3634 52.531 47.1555C51.8795 46.888 51.1667 46.7403 50.4171 46.7403C49.2203 46.7403 48.1129 47.1171 47.1997 47.762C46.3966 48.3291 45.7444 49.1032 45.3197 50.0083C45.0264 50.6333 44.2821 50.9022 43.6571 50.6089C43.0321 50.3157 42.7632 49.5713 43.0565 48.9463C43.6658 47.6479 44.6014 46.5363 45.7576 45.7198C47.0772 44.7881 48.6852 44.2403 50.4171 44.2403C51.1874 44.2403 51.9341 44.3487 52.6422 44.5516C54.1039 43.1275 56.0962 42.2468 58.2939 42.2468C59.2157 42.2468 60.1034 42.402 60.9314 42.6884C61.9311 41.7957 63.2484 41.25 64.6939 41.25C67.2732 41.25 69.4355 42.9799 70.1358 45.3362C72.4361 45.794 74.1772 47.7838 74.3054 50.1891C76.6617 51.5087 78.2514 54.0461 78.2514 56.953C78.2514 58.7961 77.6116 60.4917 76.5434 61.8213C77.0095 62.9299 77.2668 64.1487 77.2668 65.4255C77.2668 70.1487 73.7475 74.0622 69.1895 74.5893C67.5572 77.5891 64.3976 79.6334 60.7554 79.6334C58.0674 79.6334 55.6397 78.5183 53.8977 76.7286C52.8678 77.3085 51.6802 77.6399 50.4171 77.6399C47.0326 77.6399 44.2136 75.273 43.4584 72.1079C38.768 70.6013 35.3826 66.1651 35.3826 60.9401C35.3826 58.4561 36.1486 56.1483 37.4564 54.2503C38.2397 53.1133 39.2177 52.1231 40.3423 51.3289C40.9062 50.9307 41.6862 51.0651 42.0844 51.629C42.4826 52.1929 42.3483 52.9729 41.7844 53.3711C40.9014 53.9946 40.1319 54.7733 39.515 55.6687C38.4866 57.1612 37.8826 58.9767 37.8826 60.9401C37.8826 65.2962 40.8604 68.9352 44.8455 69.9029C45.3538 70.0264 45.7315 70.4533 45.7921 70.9729C46.067 73.3314 48.0449 75.1399 50.4171 75.1399C51.5185 75.1399 52.5291 74.753 53.3281 74.1023C53.5908 73.8884 53.9292 73.7902 54.2656 73.8304C54.6021 73.8705 54.9078 74.0456 55.1128 74.3154C56.4189 76.0345 58.4625 77.1334 60.7554 77.1334C63.6329 77.1334 66.1229 75.3996 67.2447 72.8863C67.44 72.4487 67.8683 72.1612 68.3473 72.1464C71.8971 72.0361 74.7668 69.0826 74.7668 65.4255C74.7668 64.2534 74.4723 63.1553 73.9559 62.1993C73.6912 61.7093 73.7827 61.1033 74.1802 60.7132C75.1488 59.7626 75.7514 58.4317 75.7514 56.953C75.7514 54.7618 74.4255 52.8919 72.5538 52.1125C72.0373 51.8975 71.7266 51.3655 71.7931 50.8101C71.8062 50.7004 71.813 50.5883 71.813 50.4741C71.813 48.9486 70.596 47.7381 69.1266 47.737C69.1259 47.737 69.1252 47.737 69.1246 47.737L69.1019 47.7371C68.4624 47.7394 67.9243 47.2586 67.8549 46.6228C67.6772 44.9949 66.3175 43.75 64.6939 43.75Z" fill="white"/>
<path fill-rule="evenodd" clip-rule="evenodd" d="M61.8749 71.25C62.9105 71.25 63.7499 70.4105 63.7499 69.375C63.7499 68.3395 62.9105 67.5 61.8749 67.5C60.8394 67.5 59.9999 68.3395 59.9999 69.375C59.9999 70.4105 60.8394 71.25 61.8749 71.25ZM61.8749 73.75C64.2912 73.75 66.2499 71.7912 66.2499 69.375C66.2499 66.9588 64.2912 65 61.8749 65C59.4587 65 57.4999 66.9588 57.4999 69.375C57.4999 71.7912 59.4587 73.75 61.8749 73.75Z" fill="#40B4E5"/>
<path fill-rule="evenodd" clip-rule="evenodd" d="M43.7499 62.5C44.4403 62.5 44.9999 61.9404 44.9999 61.25C44.9999 60.5596 44.4403 60 43.7499 60C43.0596 60 42.4999 60.5596 42.4999 61.25C42.4999 61.9404 43.0596 62.5 43.7499 62.5ZM43.7499 65C45.821 65 47.4999 63.3211 47.4999 61.25C47.4999 59.1789 45.821 57.5 43.7499 57.5C41.6789 57.5 39.9999 59.1789 39.9999 61.25C39.9999 63.3211 41.6789 65 43.7499 65Z" fill="#40B4E5"/>
<path fill-rule="evenodd" clip-rule="evenodd" d="M56.2499 61.25C56.9403 61.25 57.4999 60.6904 57.4999 60C57.4999 59.3096 56.9403 58.75 56.2499 58.75C55.5596 58.75 54.9999 59.3096 54.9999 60C54.9999 60.6904 55.5596 61.25 56.2499 61.25ZM56.2499 63.75C58.321 63.75 59.9999 62.0711 59.9999 60C59.9999 57.9289 58.321 56.25 56.2499 56.25C54.1789 56.25 52.4999 57.9289 52.4999 60C52.4999 62.0711 54.1789 63.75 56.2499 63.75Z" fill="#40B4E5"/>
<path fill-rule="evenodd" clip-rule="evenodd" d="M64.9999 53.75C65.6903 53.75 66.2499 53.1904 66.2499 52.5C66.2499 51.8096 65.6903 51.25 64.9999 51.25C64.3096 51.25 63.7499 51.8096 63.7499 52.5C63.7499 53.1904 64.3096 53.75 64.9999 53.75ZM64.9999 56.25C67.071 56.25 68.7499 54.5711 68.7499 52.5C68.7499 50.4289 67.071 48.75 64.9999 48.75C62.9289 48.75 61.2499 50.4289 61.2499 52.5C61.2499 54.5711 62.9289 56.25 64.9999 56.25Z" fill="#40B4E5"/>
<path fill-rule="evenodd" clip-rule="evenodd" d="M69.9999 65C70.6903 65 71.2499 64.4404 71.2499 63.75C71.2499 63.0596 70.6903 62.5 69.9999 62.5C69.3096 62.5 68.7499 63.0596 68.7499 63.75C68.7499 64.4404 69.3096 65 69.9999 65ZM69.9999 67.5C72.071 67.5 73.7499 65.8211 73.7499 63.75C73.7499 61.6789 72.071 60 69.9999 60C67.9289 60 66.2499 61.6789 66.2499 63.75C66.2499 65.8211 67.9289 67.5 69.9999 67.5Z" fill="#40B4E5"/>
</svg>
