<svg width="80" height="77" viewBox="0 0 80 77" fill="none" xmlns="http://www.w3.org/2000/svg">
<g id="Updated" clip-path="url(#clip0_5510_7773)">
<path id="M_L_Femur-3" d="M65.0249 34.2251C67.1999 35.1876 68.1999 37.8376 69.6999 40.1251C70.8499 41.8751 74.3874 41.5126 74.8249 39.9751C75.2624 38.4376 77.6499 40.7501 77.6624 43.5251C77.6624 46.3001 78.4249 45.5126 78.4124 47.4126C78.3999 49.3126 75.0624 49.6376 74.7499 54.4626C74.5749 57.1501 73.9749 68.6126 73.2124 74.9001" stroke="white" stroke-width="2" stroke-linecap="round" stroke-linejoin="round"/>
<path id="M_L_Femur-4" d="M67.0623 74.9C67.1248 70.55 66.9748 61.0625 66.7123 59.35C65.9248 54.2125 65.1498 57.1 63.7373 52.75C62.3248 48.4 67.0123 50.2125 65.2748 45.65C63.9498 42.1875 61.7998 44.9625 59.5498 43.5" stroke="white" stroke-width="2" stroke-linecap="round" stroke-linejoin="round"/>
<path id="M_R_Femur" d="M14.4127 34.325C12.3877 35.375 11.4127 37.9125 9.96265 40.125C8.81265 41.875 5.27515 41.5125 4.83765 39.975C4.40015 38.4375 2.01265 40.7499 2.00015 43.5249C1.98765 46.2999 1.23765 45.5125 1.25015 47.4125C1.26265 49.3125 4.60015 49.6374 4.91265 54.4624C5.08765 57.1499 5.68765 68.6124 6.45015 74.9" stroke="white" stroke-width="2" stroke-linecap="round" stroke-linejoin="round"/>
<path id="M_R_Femur-2" d="M12.6001 74.9C12.5376 70.55 12.6876 61.0625 12.9501 59.35C13.7376 54.2125 14.5126 57.1 15.9251 52.75C17.3376 48.4 12.6501 50.2125 14.3876 45.65C15.7126 42.1875 17.8626 44.9625 20.1126 43.5" stroke="white" stroke-width="2" stroke-linecap="round" stroke-linejoin="round"/>
<path id="Vector" d="M38.0377 42.8874C38.0377 42.8874 37.5252 42.4874 35.8252 42.8874C34.1252 43.2874 33.1502 43.3749 30.5502 39.0499C30.2127 38.4874 29.6752 37.1874 29.6752 37.1874C29.6127 36.5999 29.9752 36.2124 30.9127 35.7249C32.5752 34.8624 28.7377 34.0249 26.8627 30.4124C26.5877 29.8749 25.0002 26.4249 28.4877 25.3874M33.0502 10.9499C33.8877 10.7999 31.0627 8.73741 30.6627 6.68741C30.2627 4.62491 28.1627 1.63741 23.7877 1.74991C19.4127 1.86241 16.3752 1.89991 11.4502 5.76241C6.5252 9.62491 6.6127 17.2124 7.9752 22.3499C9.1002 26.5749 11.4502 24.4874 12.9627 26.9749C14.4877 29.4749 14.9252 30.6124 14.7002 32.9499C14.5127 34.9124 16.4252 33.6624 19.0002 36.6749C20.5252 38.4499 20.9127 40.2999 20.4502 42.0749C19.9752 43.8499 23.0877 45.7124 22.6627 49.3374C22.2252 52.9499 22.6627 53.0624 25.3002 54.8749C27.9377 56.6874 30.6502 57.4749 31.6252 55.7374C32.6002 53.9999 33.4877 55.6499 34.3752 54.3624C36.0877 51.8624 37.4877 49.8374 38.5752 49.6124" stroke="white" stroke-width="2" stroke-linecap="round" stroke-linejoin="round"/>
<path id="Vector_2" d="M41.0752 49.6124C42.1627 49.8249 43.5502 51.8624 45.2752 54.3624C46.1627 55.6499 47.0502 53.9999 48.0252 55.7374C49.0002 57.4749 51.7127 56.6749 54.3502 54.8749C56.9877 53.0624 57.4252 52.9624 56.9877 49.3374C56.5502 45.7249 59.6627 43.8499 59.2002 42.0749C58.7252 40.2999 59.1252 38.4499 60.6502 36.6749C63.2252 33.6749 65.1377 34.9124 64.9502 32.9499C64.7252 30.6124 65.1627 29.4749 66.6877 26.9749C68.2127 24.4749 70.5627 26.5749 71.6752 22.3499C73.0377 17.2124 73.1252 9.6249 68.2002 5.7624C63.2752 1.8999 60.2377 1.8499 55.8627 1.7499C51.4877 1.6374 49.3877 4.6374 48.9877 6.6874C48.5877 8.7499 45.7627 10.8124 46.6002 10.9499M51.1627 25.3874C54.6502 26.4374 53.0752 29.8749 52.7877 30.4124C50.9127 34.0249 47.0752 34.8624 48.7377 35.7249C49.6752 36.2124 50.0377 36.5999 49.9752 37.1874C49.9752 37.1874 49.4502 38.4874 49.1002 39.0499C46.4877 43.3749 45.5252 43.2874 43.8252 42.8874C42.1252 42.4874 41.6127 42.8874 41.6127 42.8874" stroke="white" stroke-width="2" stroke-linecap="round" stroke-linejoin="round"/>
<path id="M_Sacrum" d="M52.0874 14.6376C52.2624 12.9376 52.0874 10.5876 49.9499 9.7501C47.8124 8.9126 47.4249 11.0501 46.5874 10.9376C43.5874 10.5626 42.3999 11.4251 39.8124 11.4251C37.2249 11.4251 36.0499 10.5626 33.0374 10.9376C32.1999 11.0376 31.8124 8.9126 29.6749 9.7501C27.5374 10.5876 27.3624 12.9376 27.5374 14.6376C27.7124 16.3376 26.0749 18.4126 27.1749 21.7626C28.1124 24.6251 29.1249 25.0126 31.0124 24.9876C32.8874 24.9501 32.0624 25.8251 31.9874 26.9376C31.9124 28.0501 32.9249 27.1876 32.7499 29.3626C32.5749 31.5376 32.9249 32.4876 34.1249 33.3376C35.4999 34.3126 35.5749 34.2001 35.0999 34.9626C34.6249 35.7251 34.4499 35.5751 35.2124 36.3751C35.9749 37.1751 36.5499 37.4251 37.3499 37.4251C38.1499 37.4251 37.8624 37.9376 37.3499 38.0001C36.8374 38.0626 37.0249 38.6501 37.1749 39.1251C37.3249 39.6001 37.8249 39.7376 38.2249 39.7751C38.5124 39.8001 38.2874 40.0126 38.0124 40.0126C37.7374 40.0126 37.7624 40.5876 38.1249 40.5876C38.4874 40.5876 38.8374 40.6626 38.8874 41.1876C38.9374 41.7251 38.9874 41.8126 39.2999 41.8251C39.6124 41.8376 39.4249 42.3376 39.7999 42.3376C40.1749 42.3376 39.9874 41.8501 40.2999 41.8251C40.6124 41.8251 40.6624 41.7126 40.7124 41.1876C40.7624 40.6501 41.1124 40.5751 41.4749 40.5876C41.8499 40.5876 41.8624 40.0126 41.5874 40.0126C41.3124 40.0126 41.0874 39.8001 41.3749 39.7751C41.7749 39.7376 42.2749 39.6001 42.4249 39.1251C42.5749 38.6501 42.7499 38.0751 42.2499 38.0001C41.7374 37.9251 41.4499 37.4251 42.2499 37.4251C43.0499 37.4251 43.6249 37.1751 44.3874 36.3751C45.1499 35.5751 44.9624 35.7251 44.4999 34.9626C44.0249 34.2001 44.0999 34.3126 45.4749 33.3376C46.6749 32.4876 47.0249 31.5251 46.8499 29.3626C46.6749 27.1876 47.6874 28.0626 47.6124 26.9376C47.5374 25.8126 46.7124 24.9501 48.5874 24.9876C50.4624 25.0251 51.4749 24.6251 52.4249 21.7626C53.5249 18.4126 51.8874 16.3376 52.0624 14.6376H52.0874Z" stroke="#40B4E5" stroke-width="2" stroke-linecap="round" stroke-linejoin="round"/>
<path id="Vector_3" d="M39.0752 49.2501C39.2627 48.2751 38.9252 47.5126 38.0877 46.9876C37.2377 46.4626 37.6877 43.3876 38.2127 42.8501C38.9252 42.1376 40.9252 42.2001 41.4377 42.8501C41.9127 43.4376 42.4127 46.4626 41.5627 46.9876C40.7127 47.5126 40.4002 48.2626 40.5752 49.2501C40.7252 50.1376 38.9127 50.1001 39.0752 49.2501Z" stroke="white" stroke-width="2" stroke-linecap="round" stroke-linejoin="round"/>
<path id="Vector_4" d="M34.8001 27.7126C34.7126 27.1501 35.4501 26.6251 35.7751 26.4251C36.6001 25.9126 37.1126 26.0126 37.8376 26.8126C38.1626 27.1626 38.2376 27.5501 38.0376 27.8876C37.8001 28.2876 37.2001 28.5251 36.5126 28.5251C36.2626 28.5251 36.0126 28.5001 35.7501 28.4376C35.1751 28.3001 34.8501 28.0626 34.8001 27.7251V27.7126Z" stroke="#40B4E5" stroke-linecap="round" stroke-linejoin="round"/>
<path id="Vector_5" d="M38.3127 32.4874C38.2252 32.7249 37.5627 32.9374 37.5002 32.9374C37.0877 32.9374 36.5752 32.7499 36.2627 32.3499C35.8752 31.8374 36.0627 31.3874 36.3377 31.1749C36.7252 30.8499 37.4377 30.8374 37.9002 31.3624C38.3752 31.8999 38.3877 32.2749 38.3002 32.4874H38.3127Z" stroke="#40B4E5" stroke-linecap="round" stroke-linejoin="round"/>
<path id="Vector_6" d="M43.8127 32.3624C43.5127 32.7624 43.0002 32.9499 42.5752 32.9499C42.5127 32.9499 41.8502 32.7249 41.7627 32.4999C41.6877 32.2874 41.6877 31.9124 42.1627 31.3749C42.6252 30.8499 43.3377 30.8624 43.7252 31.1874C44.0002 31.4124 44.1877 31.8499 43.8002 32.3624H43.8127Z" stroke="#40B4E5" stroke-linecap="round" stroke-linejoin="round"/>
<path id="Vector_7" d="M44.3249 28.4125C44.0624 28.475 43.8124 28.5 43.5624 28.5C42.8749 28.5 42.2749 28.2625 42.0374 27.8625C41.8499 27.5375 41.9124 27.15 42.2374 26.7875C42.9624 25.9875 43.4874 25.8875 44.2999 26.4C44.6249 26.6 45.3624 27.125 45.2749 27.6875C45.2249 28.025 44.8999 28.2625 44.3249 28.4V28.4125Z" stroke="#40B4E5" stroke-linecap="round" stroke-linejoin="round"/>
<path id="Vector_8" d="M45.1 24.175C44.6625 24.0125 44.4875 24.825 43.2875 24.825C42.6875 24.825 41.9 24.05 41.675 24.15C40.6625 24.5875 39.4625 24.5875 38.45 24.15C38.0625 24.05 37.8 24.825 36.475 24.825C35.925 24.825 35.4 24.0375 35.05 24.1625C34.7875 24.2625 34.5125 24.275 34.25 24.25C34.7875 24.2375 35.25 24 35.5375 23.5375C36.3 22.525 37.7125 23.4625 38.575 23.7875C39.5125 24.15 40.5875 24.15 41.5125 23.7875C41.9875 23.6125 42.45 23.3375 43 23.2C43.525 23.0375 44.2375 23.0125 44.5625 23.55C44.85 24.0125 45.3125 24.25 45.85 24.2625C45.5875 24.3 45.325 24.2625 45.0875 24.175H45.1Z" stroke="#40B4E5" stroke-linecap="round" stroke-linejoin="round"/>
<path id="Vector_9" d="M46.825 21.7624C46.475 21.4874 44.8 22.2624 43.8375 21.8624C43.425 21.7124 41.75 21.0624 41.4 21.1624C40.575 21.4124 39.675 21.4499 38.825 21.2124C38.425 21.0999 37.55 21.0749 37.4125 21.2374C36.4125 22.3999 33.7625 21.3749 33.4 21.6749C33.125 21.8999 32.8375 22.1249 32.525 22.2999C32.175 22.4999 31.7625 22.5999 31.375 22.5749C31.775 22.5499 32.15 22.4124 32.475 22.1999C33.1375 21.7624 33.625 20.9124 34.3 20.4749C35.3375 19.7749 36.725 19.7249 37.8625 20.1874C38.2375 20.3499 38.575 20.7249 38.9375 20.8249C39.65 20.9999 40.4625 20.9999 41.175 20.8249C41.5375 20.7249 41.875 20.3499 42.25 20.1874C43.025 19.8624 43.875 19.8124 44.6875 19.9874C46.35 20.2499 47.0625 22.4374 48.7375 22.5624C47.9875 22.6124 47.3875 22.2124 46.825 21.7499V21.7624Z" stroke="#40B4E5" stroke-linecap="round" stroke-linejoin="round"/>
<path id="Vector_10" d="M30.8375 51.6499C30.8375 51.6499 29.075 52.3124 28.65 52.3124C27.8625 52.3124 26.45 50.1249 26.45 50.1249C25.1375 48.0499 26.275 43.9124 27.725 43.9499C30.1375 43.8374 32.2375 45.0374 33.6875 46.8749C34.1625 47.4624 31.8375 51.2499 30.825 51.6499H30.8375Z" stroke="#40B4E5" stroke-width="2" stroke-linecap="round" stroke-linejoin="round"/>
<path id="Vector_11" d="M45.9502 46.8749C47.4002 45.0374 49.5002 43.8374 51.9127 43.9499C53.3627 43.8999 54.5002 48.0499 53.1877 50.1249C53.1877 50.1249 51.7752 52.3124 50.9877 52.3124C50.5627 52.3124 48.8002 51.6499 48.8002 51.6499C47.7877 51.2499 45.4627 47.4624 45.9377 46.8749H45.9502Z" stroke="#40B4E5" stroke-width="2" stroke-linecap="round" stroke-linejoin="round"/>
</g>
<defs>
<clipPath id="clip0_5510_7773">
<rect width="79.6625" height="75.65" fill="white" transform="translate(0 0.5)"/>
</clipPath>
</defs>
</svg>
