<svg width="48" height="46" viewBox="0 0 48 46" fill="none" xmlns="http://www.w3.org/2000/svg">
<g clip-path="url(#clip0_5494_5412)">
<path d="M39.0146 20.2351C40.3196 20.8126 40.9196 22.4026 41.8196 23.7751C42.5096 24.8251 44.6321 24.6076 44.8946 23.6851C45.1572 22.7626 46.5897 24.1501 46.5972 25.8151C46.5972 27.4801 47.0546 27.0076 47.0471 28.1476C47.0396 29.2876 45.0371 29.4826 44.8496 32.3776C44.7446 33.9901 44.3846 40.8676 43.9271 44.6401" stroke="#065BAA" stroke-width="2" stroke-linecap="round" stroke-linejoin="round"/>
<path d="M40.238 44.64C40.2755 42.03 40.1855 36.3375 40.028 35.31C39.5555 32.2275 39.0905 33.96 38.243 31.35C37.3955 28.74 40.208 29.8275 39.1655 27.09C38.3705 25.0125 37.0805 26.6775 35.7305 25.8" stroke="#065BAA" stroke-width="2" stroke-linecap="round" stroke-linejoin="round"/>
<path d="M8.64759 20.2949C7.43259 20.9249 6.84759 22.4474 5.97759 23.7749C5.28759 24.8249 3.16509 24.6074 2.90259 23.6849C2.64009 22.7624 1.20759 24.1499 1.20009 25.8149C1.19259 27.4799 0.742593 27.0074 0.750093 28.1474C0.757593 29.2874 2.76009 29.4824 2.94759 32.3774C3.05259 33.9899 3.41259 40.8674 3.87009 44.6399" stroke="#065BAA" stroke-width="2" stroke-linecap="round" stroke-linejoin="round"/>
<path d="M7.56023 44.64C7.52273 42.03 7.61273 36.3375 7.77023 35.31C8.24273 32.2275 8.70773 33.96 9.55523 31.35C10.4027 28.74 7.59023 29.8275 8.63273 27.09C9.42773 25.0125 10.7177 26.6775 12.0677 25.8" stroke="#065BAA" stroke-width="2" stroke-linecap="round" stroke-linejoin="round"/>
<path d="M22.8223 25.4324C22.8223 25.4324 22.5148 25.1924 21.4948 25.4324C20.4748 25.6724 19.8898 25.7249 18.3298 23.1299C18.1273 22.7924 17.8048 22.0124 17.8048 22.0124C17.7673 21.6599 17.9848 21.4274 18.5473 21.1349C19.5448 20.6174 17.2423 20.1149 16.1173 17.9474C15.9523 17.6249 14.9998 15.5549 17.0923 14.9324M19.8298 6.2699C20.3323 6.1799 18.6373 4.9424 18.3973 3.7124C18.1573 2.4749 16.8973 0.682399 14.2723 0.749899C11.6473 0.817399 9.82483 0.839899 6.86983 3.1574C3.91483 5.4749 3.96733 10.0274 4.78483 13.1099C5.45983 15.6449 6.86983 14.3924 7.77733 15.8849C8.69233 17.3849 8.95483 18.0674 8.81983 19.4699C8.70733 20.6474 9.85483 19.8974 11.3998 21.7049C12.3148 22.7699 12.5473 23.8799 12.2698 24.9449C11.9848 26.0099 13.8523 27.1274 13.5973 29.3024C13.3348 31.4699 13.5973 31.5374 15.1798 32.6249C16.7623 33.7124 18.3898 34.1849 18.9748 33.1424C19.5598 32.0999 20.0923 33.0899 20.6248 32.3174C21.6523 30.8174 22.4923 29.6024 23.1448 29.4674" stroke="#065BAA" stroke-width="2" stroke-linecap="round" stroke-linejoin="round"/>
<path d="M24.6445 29.4674C25.297 29.5949 26.1295 30.8174 27.1645 32.3174C27.697 33.0899 28.2295 32.0999 28.8145 33.1424C29.3995 34.1849 31.027 33.7049 32.6095 32.6249C34.192 31.5374 34.4545 31.4774 34.192 29.3024C33.9295 27.1349 35.797 26.0099 35.5195 24.9449C35.2345 23.8799 35.4745 22.7699 36.3895 21.7049C37.9345 19.9049 39.082 20.6474 38.9695 19.4699C38.8345 18.0674 39.097 17.3849 40.012 15.8849C40.927 14.3849 42.337 15.6449 43.0045 13.1099C43.822 10.0274 43.8745 5.47489 40.9195 3.15739C37.9645 0.839891 36.142 0.809891 33.517 0.749891C30.892 0.682391 29.632 2.48239 29.392 3.71239C29.152 4.94989 27.457 6.18739 27.9595 6.26989M30.697 14.9324C32.7895 15.5624 31.8445 17.6249 31.672 17.9474C30.547 20.1149 28.2445 20.6174 29.242 21.1349C29.8045 21.4274 30.022 21.6599 29.9845 22.0124C29.9845 22.0124 29.6695 22.7924 29.4595 23.1299C27.892 25.7249 27.3145 25.6724 26.2945 25.4324C25.2745 25.1924 24.967 25.4324 24.967 25.4324" stroke="#065BAA" stroke-width="2" stroke-linecap="round" stroke-linejoin="round"/>
<path d="M31.2524 8.48242C31.3574 7.46242 31.2525 6.05242 29.97 5.54992C28.6875 5.04742 28.455 6.32992 27.9525 6.26242C26.1525 6.03742 25.44 6.55491 23.8875 6.55491C22.335 6.55491 21.63 6.03742 19.8225 6.26242C19.32 6.32242 19.0875 5.04742 17.805 5.54992C16.5225 6.05242 16.4175 7.46242 16.5225 8.48242C16.6275 9.50242 15.645 10.7474 16.305 12.7574C16.8675 14.4749 17.475 14.7074 18.6075 14.6924C19.7325 14.6699 19.2375 15.1949 19.1925 15.8624C19.1475 16.5299 19.755 16.0124 19.65 17.3174C19.545 18.6224 19.755 19.1924 20.475 19.7024C21.3 20.2874 21.345 20.2199 21.06 20.6774C20.775 21.1349 20.67 21.0449 21.1275 21.5249C21.585 22.0049 21.93 22.1549 22.41 22.1549C22.89 22.1549 22.7175 22.4624 22.41 22.4999C22.1025 22.5374 22.215 22.8899 22.305 23.1749C22.395 23.4599 22.695 23.5424 22.935 23.5649C23.1075 23.5799 22.9725 23.7074 22.8075 23.7074C22.6425 23.7074 22.6575 24.0524 22.875 24.0524C23.0925 24.0524 23.3025 24.0974 23.3325 24.4124C23.3625 24.7349 23.3925 24.7874 23.58 24.7949C23.7675 24.8024 23.655 25.1024 23.88 25.1024C24.105 25.1024 23.9925 24.8099 24.18 24.7949C24.3675 24.7949 24.3975 24.7274 24.4275 24.4124C24.4575 24.0899 24.6675 24.0449 24.885 24.0524C25.11 24.0524 25.1175 23.7074 24.9525 23.7074C24.7875 23.7074 24.6525 23.5799 24.825 23.5649C25.065 23.5424 25.365 23.4599 25.455 23.1749C25.545 22.8899 25.65 22.5449 25.35 22.4999C25.0425 22.4549 24.87 22.1549 25.35 22.1549C25.83 22.1549 26.175 22.0049 26.6325 21.5249C27.09 21.0449 26.9775 21.1349 26.7 20.6774C26.415 20.2199 26.46 20.2874 27.285 19.7024C28.005 19.1924 28.215 18.6149 28.11 17.3174C28.005 16.0124 28.6125 16.5374 28.5675 15.8624C28.5225 15.1874 28.0275 14.6699 29.1525 14.6924C30.2775 14.7149 30.885 14.4749 31.455 12.7574C32.115 10.7474 31.1325 9.50242 31.2375 8.48242H31.2524Z" stroke="#40B4E5" stroke-width="2" stroke-linecap="round" stroke-linejoin="round"/>
<path d="M23.4445 29.25C23.557 28.665 23.3545 28.2075 22.852 27.8925C22.342 27.5775 22.612 25.7325 22.927 25.41C23.3545 24.9825 24.5545 25.02 24.862 25.41C25.147 25.7625 25.447 27.5775 24.937 27.8925C24.427 28.2075 24.2395 28.6575 24.3445 29.25C24.4345 29.7825 23.347 29.76 23.4445 29.25Z" stroke="#065BAA" stroke-width="2" stroke-linecap="round" stroke-linejoin="round"/>
<path d="M20.8803 16.3275C20.8278 15.99 21.2703 15.675 21.4653 15.555C21.9603 15.2475 22.2678 15.3075 22.7028 15.7875C22.8978 15.9975 22.9428 16.23 22.8228 16.4325C22.6803 16.6725 22.3203 16.815 21.9078 16.815C21.7578 16.815 21.6078 16.8 21.4503 16.7625C21.1053 16.68 20.9103 16.5375 20.8803 16.335V16.3275Z" stroke="#40B4E5" stroke-linecap="round" stroke-linejoin="round"/>
<path d="M22.9872 19.1926C22.9347 19.3351 22.5372 19.4626 22.4997 19.4626C22.2522 19.4626 21.9447 19.3501 21.7572 19.1101C21.5247 18.8026 21.6372 18.5326 21.8022 18.4051C22.0347 18.2101 22.4622 18.2026 22.7397 18.5176C23.0247 18.8401 23.0322 19.0651 22.9797 19.1926H22.9872Z" stroke="#40B4E5" stroke-linecap="round" stroke-linejoin="round"/>
<path d="M26.2871 19.1174C26.1071 19.3574 25.7996 19.4699 25.5446 19.4699C25.5071 19.4699 25.1096 19.3349 25.0571 19.1999C25.0121 19.0724 25.0121 18.8474 25.2971 18.5249C25.5746 18.2099 26.0021 18.2174 26.2346 18.4124C26.3996 18.5474 26.5121 18.8099 26.2796 19.1174H26.2871Z" stroke="#40B4E5" stroke-linecap="round" stroke-linejoin="round"/>
<path d="M26.5946 16.7476C26.4371 16.7851 26.2871 16.8001 26.1371 16.8001C25.7246 16.8001 25.3646 16.6576 25.2221 16.4176C25.1096 16.2226 25.1471 15.9901 25.3421 15.7726C25.7771 15.2926 26.0921 15.2326 26.5796 15.5401C26.7746 15.6601 27.2171 15.9751 27.1646 16.3126C27.1346 16.5151 26.9396 16.6576 26.5946 16.7401V16.7476Z" stroke="#40B4E5" stroke-linecap="round" stroke-linejoin="round"/>
<path d="M27.0598 14.205C26.7973 14.1075 26.6923 14.595 25.9723 14.595C25.6123 14.595 25.1398 14.13 25.0048 14.19C24.3973 14.4525 23.6773 14.4525 23.0698 14.19C22.8373 14.13 22.6798 14.595 21.8848 14.595C21.5548 14.595 21.2398 14.1225 21.0298 14.1975C20.8723 14.2575 20.7073 14.265 20.5498 14.25C20.8723 14.2425 21.1498 14.1 21.3223 13.8225C21.7798 13.215 22.6273 13.7775 23.1448 13.9725C23.7073 14.19 24.3523 14.19 24.9073 13.9725C25.1923 13.8675 25.4698 13.7025 25.7998 13.62C26.1148 13.5225 26.5423 13.5075 26.7373 13.83C26.9098 14.1075 27.1873 14.25 27.5098 14.2575C27.3523 14.28 27.1948 14.2575 27.0523 14.205H27.0598Z" stroke="#40B4E5" stroke-linecap="round" stroke-linejoin="round"/>
<path d="M28.0952 12.7574C27.8852 12.5924 26.8802 13.0574 26.3027 12.8174C26.0552 12.7274 25.0502 12.3374 24.8402 12.3974C24.3452 12.5474 23.8052 12.5699 23.2952 12.4274C23.0552 12.3599 22.5302 12.3449 22.4477 12.4424C21.8477 13.1399 20.2577 12.5249 20.0402 12.7049C19.8752 12.8399 19.7027 12.9749 19.5152 13.0799C19.3052 13.1999 19.0577 13.2599 18.8252 13.2449C19.0652 13.2299 19.2902 13.1474 19.4852 13.0199C19.8827 12.7574 20.1752 12.2474 20.5802 11.9849C21.2027 11.5649 22.0352 11.5349 22.7177 11.8124C22.9427 11.9099 23.1452 12.1349 23.3627 12.1949C23.7902 12.2999 24.2777 12.2999 24.7052 12.1949C24.9227 12.1349 25.1252 11.9099 25.3502 11.8124C25.8152 11.6174 26.3252 11.5874 26.8127 11.6924C27.8102 11.8499 28.2377 13.1624 29.2427 13.2374C28.7927 13.2674 28.4327 13.0274 28.0952 12.7499V12.7574Z" stroke="#40B4E5" stroke-linecap="round" stroke-linejoin="round"/>
<path d="M18.5027 30.69C18.5027 30.69 17.4452 31.0875 17.1902 31.0875C16.7177 31.0875 15.8702 29.775 15.8702 29.775C15.0827 28.53 15.7652 26.0475 16.6352 26.07C18.0827 26.0025 19.3427 26.7225 20.2127 27.825C20.4977 28.1775 19.1027 30.45 18.4952 30.69H18.5027Z" stroke="#40B4E5" stroke-width="2" stroke-linecap="round" stroke-linejoin="round"/>
<path d="M27.5698 27.825C28.4398 26.7225 29.6998 26.0025 31.1473 26.07C32.0173 26.04 32.6998 28.53 31.9123 29.775C31.9123 29.775 31.0648 31.0875 30.5923 31.0875C30.3373 31.0875 29.2798 30.69 29.2798 30.69C28.6723 30.45 27.2773 28.1775 27.5623 27.825H27.5698Z" stroke="#40B4E5" stroke-width="2" stroke-linecap="round" stroke-linejoin="round"/>
</g>
<defs>
<clipPath id="clip0_5494_5412">
<rect width="47.7975" height="45.39" fill="white"/>
</clipPath>
</defs>
</svg>
