<svg width="65" height="64" viewBox="0 0 65 64" fill="none" xmlns="http://www.w3.org/2000/svg">
<path d="M57 42L54 63.5L56.5 63L58.5 49L60 42L63 38C62.8333 37.1667 62.4 35.2 62 34C61.6 32.8 59.5 32.1667 58.5 32L56 34L57 36.5V42Z" fill="#B4D6F1" fill-opacity="0.5"/>
<path fill-rule="evenodd" clip-rule="evenodd" d="M27.3341 0.448243C27.6389 0.908811 27.5126 1.52925 27.0521 1.83404C26.7394 2.04098 26.5484 2.22261 26.3956 2.38221C26.3766 2.40203 26.3532 2.42751 26.326 2.45707C26.198 2.59623 25.987 2.82564 25.7674 2.97887C25.405 3.23179 25.0046 3.33091 24.5437 3.32541C24.1367 3.32056 23.6476 3.23357 23.0464 3.09178C23.0388 3.10293 23.0302 3.11813 23.0222 3.13778C23.0081 3.17299 23.0002 3.21255 23.0002 3.25101C23.0002 3.38547 23.0611 3.67335 23.2277 3.99607C23.3925 4.31537 23.5956 4.54202 23.7683 4.64818C24.2388 4.93738 24.3858 5.55326 24.0966 6.02376C23.8074 6.49427 23.1915 6.64125 22.721 6.35204C22.1382 5.99378 21.719 5.43365 21.4505 4.91337C21.1837 4.39654 21.0002 3.79207 21.0002 3.25101C21.0002 2.66287 21.2287 2.07617 21.6496 1.65639C22.0916 1.21547 22.7492 0.965622 23.4757 1.13815C24.0705 1.27939 24.3883 1.32342 24.5675 1.32556C24.6025 1.32597 24.6261 1.32483 24.6411 1.32352C24.6413 1.32331 24.6415 1.3231 24.6418 1.32288C24.6561 1.31001 24.6758 1.29109 24.7044 1.26153C24.7338 1.23119 24.7656 1.19704 24.8082 1.15115L24.8126 1.1464C24.8523 1.10371 24.8995 1.05276 24.9512 0.998876C25.1767 0.763407 25.4803 0.47592 25.9483 0.166177C26.4089 -0.13861 27.0294 -0.0123255 27.3341 0.448243ZM24.6627 1.32044C24.6628 1.32051 24.6613 1.32095 24.6577 1.32154C24.6607 1.32067 24.6625 1.32037 24.6627 1.32044ZM21.5426 18.6586C22.0337 18.4059 22.6366 18.5991 22.8894 19.0902C23.1985 19.6908 23.4836 20.2853 23.7629 20.8674C24.4752 22.3525 25.1489 23.757 26.0831 24.9773C26.3596 25.3384 26.7334 25.6203 27.1771 25.8771C27.3989 26.0055 27.6264 26.1212 27.864 26.24C27.8902 26.2531 27.9168 26.2664 27.9437 26.2798C28.1496 26.3825 28.3717 26.4933 28.5729 26.6064C28.9677 26.8284 29.6226 27.2318 29.8328 27.9773C29.9933 28.5467 29.8418 29.0865 29.5677 29.5703C29.581 29.5791 29.5948 29.5881 29.609 29.5972C29.8026 29.7216 30.0194 29.8362 30.199 29.9172C30.2875 29.957 30.3551 29.9834 30.3975 29.9977C30.8881 30.0617 31.2669 30.4813 31.2669 30.9893C31.2669 31.5415 30.8192 31.9893 30.2669 31.9893C30.0483 31.9893 29.8456 31.9221 29.7626 31.8943C29.6402 31.8531 29.5081 31.7995 29.3775 31.7406C29.1161 31.6229 28.8114 31.4621 28.5277 31.2798C28.2608 31.1082 27.9386 30.8712 27.706 30.586C27.591 30.4449 27.4392 30.2218 27.3763 29.9294C27.3034 29.5904 27.3644 29.2097 27.6153 28.8919C27.755 28.715 27.8261 28.5949 27.862 28.5213C27.8115 28.483 27.7276 28.4256 27.5925 28.3496C27.4376 28.2625 27.2631 28.1754 27.0496 28.0688C27.0236 28.0558 26.997 28.0426 26.9697 28.0289C26.7296 27.9089 26.4543 27.7697 26.1751 27.608C25.6166 27.2847 24.9948 26.8457 24.4951 26.193C23.425 24.7954 22.6146 23.1052 21.8728 21.5582C21.6132 21.0168 21.362 20.493 21.1111 20.0054C20.8583 19.5143 21.0515 18.9113 21.5426 18.6586ZM27.8974 28.4286C27.8975 28.4285 27.8974 28.4296 27.8969 28.4317C27.8972 28.4296 27.8974 28.4286 27.8974 28.4286ZM29.2561 29.3221C29.2516 29.3166 29.2526 29.317 29.257 29.3233C29.2567 29.3229 29.2564 29.3225 29.2561 29.3221Z" fill="#40B4E5"/>
<path fill-rule="evenodd" clip-rule="evenodd" d="M36.6659 0.448243C36.3611 0.908811 36.4874 1.52925 36.9479 1.83404C37.2606 2.04098 37.4516 2.22261 37.6044 2.38221C37.6234 2.40203 37.6468 2.42751 37.674 2.45707C37.802 2.59623 38.013 2.82564 38.2326 2.97887C38.595 3.23179 38.9954 3.33091 39.4563 3.32541C39.8633 3.32056 40.3524 3.23357 40.9536 3.09178C40.9612 3.10293 40.9698 3.11813 40.9778 3.13778C40.9919 3.17299 40.9998 3.21255 40.9998 3.25101C40.9998 3.38547 40.9389 3.67335 40.7723 3.99607C40.6075 4.31537 40.4044 4.54202 40.2317 4.64818C39.7612 4.93738 39.6142 5.55326 39.9034 6.02376C40.1926 6.49427 40.8085 6.64125 41.279 6.35204C41.8618 5.99378 42.281 5.43365 42.5495 4.91337C42.8163 4.39654 42.9998 3.79207 42.9998 3.25101C42.9998 2.66287 42.7713 2.07617 42.3504 1.65639C41.9084 1.21547 41.2508 0.965622 40.5243 1.13815C39.9295 1.27939 39.6117 1.32342 39.4325 1.32556C39.3975 1.32597 39.3739 1.32483 39.3589 1.32352C39.3587 1.32331 39.3585 1.3231 39.3582 1.32288C39.3439 1.31001 39.3242 1.29109 39.2956 1.26153C39.2662 1.23119 39.2344 1.19704 39.1918 1.15115L39.1874 1.1464C39.1477 1.10371 39.1005 1.05276 39.0488 0.998876C38.8233 0.763407 38.5197 0.47592 38.0517 0.166177C37.5911 -0.13861 36.9706 -0.0123255 36.6659 0.448243ZM39.3373 1.32044C39.3372 1.32051 39.3387 1.32095 39.3423 1.32154C39.3393 1.32067 39.3375 1.32037 39.3373 1.32044ZM42.4574 18.6586C41.9663 18.4059 41.3634 18.5991 41.1106 19.0902C40.8015 19.6908 40.5164 20.2853 40.2371 20.8674C39.5248 22.3525 38.8511 23.757 37.9169 24.9773C37.6404 25.3384 37.2666 25.6203 36.8229 25.8771C36.6011 26.0055 36.3736 26.1212 36.136 26.24C36.1098 26.2531 36.0832 26.2664 36.0563 26.2798C35.8504 26.3825 35.6283 26.4933 35.4271 26.6064C35.0323 26.8284 34.3774 27.2318 34.1672 27.9773C34.0067 28.5467 34.1582 29.0865 34.4323 29.5703C34.419 29.5791 34.4052 29.5881 34.391 29.5972C34.1974 29.7216 33.9806 29.8362 33.801 29.9172C33.7125 29.957 33.6449 29.9834 33.6025 29.9977C33.1119 30.0617 32.7331 30.4813 32.7331 30.9893C32.7331 31.5415 33.1808 31.9893 33.7331 31.9893C33.9517 31.9893 34.1544 31.9221 34.2374 31.8943C34.3598 31.8531 34.4919 31.7995 34.6225 31.7406C34.8839 31.6229 35.1886 31.4621 35.4723 31.2798C35.7392 31.1082 36.0614 30.8712 36.294 30.586C36.409 30.4449 36.5608 30.2218 36.6237 29.9294C36.6966 29.5904 36.6356 29.2097 36.3847 28.8919C36.245 28.715 36.1739 28.5949 36.138 28.5213C36.1885 28.483 36.2724 28.4256 36.4075 28.3496C36.5624 28.2625 36.7369 28.1754 36.9504 28.0688C36.9764 28.0558 37.003 28.0426 37.0303 28.0289C37.2704 27.9089 37.5457 27.7697 37.8249 27.608C38.3834 27.2847 39.0052 26.8457 39.5049 26.193C40.575 24.7954 41.3854 23.1052 42.1272 21.5582C42.3868 21.0168 42.638 20.493 42.8889 20.0054C43.1417 19.5143 42.9485 18.9113 42.4574 18.6586ZM36.1026 28.4286C36.1025 28.4285 36.1026 28.4296 36.1031 28.4317C36.1028 28.4296 36.1026 28.4286 36.1026 28.4286ZM34.7439 29.3221C34.7484 29.3166 34.7474 29.317 34.743 29.3233C34.7433 29.3229 34.7436 29.3225 34.7439 29.3221Z" fill="#40B4E5"/>
<path fill-rule="evenodd" clip-rule="evenodd" d="M54.0386 4.94685C54.4604 5.26178 54.9332 5.61471 55.4754 6.00918C57.5055 7.48595 59.0779 10.1868 59.0012 13.4083C58.9651 14.9234 58.4924 16.4529 57.8091 17.7243C57.1145 19.0164 56.2661 19.9265 55.5768 20.3108C55.1439 20.5521 54.7132 21.0204 54.3695 21.4356C53.9941 21.889 53.605 22.4271 53.257 22.9417C52.9079 23.4581 52.5897 23.9661 52.3561 24.3658C52.24 24.5643 52.1393 24.7454 52.0647 24.8924C52.0282 24.9643 51.991 25.0416 51.9604 25.1156C51.9454 25.152 51.9261 25.2016 51.9091 25.2579L51.9089 25.2586C51.898 25.2946 51.8599 25.4205 51.8599 25.5798C51.8599 25.9879 51.9363 26.3327 52.0048 26.5937C52.0345 26.7068 52.0578 26.7902 52.0763 26.8564C52.107 26.9658 52.1245 27.0283 52.1357 27.1004C52.1046 27.1315 52.0433 27.1847 51.9306 27.2576C50.3717 28.2662 49.4515 30.0333 48.8571 31.746C48.2788 33.4123 47.9506 35.2072 47.6996 36.5797C47.6892 36.6366 47.6789 36.6927 47.6688 36.748L47.6468 36.8681L47.6543 36.99C47.682 37.4362 47.6681 38.2446 47.5236 39.1309C47.3777 40.0257 47.1119 40.917 46.6875 41.5889C46.2125 42.341 45.1821 42.9637 44.007 43.4043C42.9182 43.8126 41.9438 43.9784 41.6411 43.998C41.6157 43.9907 41.5579 43.9736 41.4598 43.9361C41.2795 43.8673 41.0354 43.7585 40.7393 43.6093C40.1492 43.3121 39.3996 42.8783 38.6171 42.3487C37.0173 41.2659 35.436 39.8864 34.7053 38.5628C33.797 36.9173 33.9293 35.2062 34.211 34.1731C35.3473 34.3512 36.9774 34.5716 37.9215 34.5716C38.6054 34.5716 39.2686 34.1851 39.7466 33.8488C40.2752 33.4769 40.8081 32.9959 41.2733 32.53C41.7419 32.0606 42.1651 31.5833 42.4753 31.202C42.6294 31.0125 42.7638 30.8367 42.8647 30.6908C42.9138 30.6198 42.9658 30.5403 43.0097 30.4611C43.0311 30.4224 43.0604 30.3664 43.087 30.3004L43.0876 30.2988C43.096 30.278 43.1163 30.2277 43.1343 30.1566C43.1427 30.1387 43.1541 30.115 43.1693 30.0845C43.2285 29.9653 43.3179 29.7963 43.4332 29.5831C43.5226 29.4176 43.6307 29.2202 43.7479 29.006C43.9167 28.6975 44.1046 28.3542 44.2836 28.0213C44.5942 27.4435 44.9144 26.8305 45.1588 26.3047C45.2806 26.0428 45.3911 25.7864 45.4731 25.5575C45.5422 25.3648 45.638 25.0697 45.638 24.7806C45.638 23.1192 44.847 21.9337 44.2084 21.0652C44.1236 20.95 44.0441 20.8435 43.9694 20.7436C43.7436 20.4413 43.5619 20.1982 43.4126 19.9476C43.2256 19.6338 43.1675 19.4281 43.1675 19.2662C43.1675 17.1328 42.4473 15.7756 41.7338 14.6514C41.6329 14.4924 41.5353 14.3418 41.4417 14.1972C40.8667 13.3096 40.4399 12.6507 40.3008 11.6904C40.3008 11.6907 40.3009 11.6909 40.3009 11.6909C40.3009 11.6909 40.298 11.6642 40.3047 11.603C40.3116 11.5385 40.3274 11.4516 40.3565 11.3403C40.4153 11.1155 40.5172 10.8346 40.6624 10.5033C40.9527 9.84123 41.3796 9.06071 41.8579 8.26151C42.6866 6.87703 43.6223 5.51426 44.1641 4.72519C44.247 4.60446 44.3207 4.49716 44.3834 4.40527C44.4377 4.32558 44.6565 4.13701 45.1993 3.92317C45.7023 3.72503 46.3413 3.55921 47.0334 3.42504C48.4133 3.1575 49.8685 3.04096 50.5611 3.0022C50.9532 2.98027 51.4058 3.11799 52.2078 3.63396C52.7301 3.96993 53.308 4.4014 54.0386 4.94685ZM53.2899 1.95197C52.3839 1.36905 51.4855 0.947348 50.4494 1.00533C49.7138 1.04649 48.1582 1.16972 46.6527 1.4616C45.902 1.60715 45.1298 1.80097 44.4662 2.06236C43.8426 2.30804 43.1398 2.67891 42.731 3.27853C42.6717 3.36545 42.6007 3.46878 42.5199 3.58645C41.9814 4.37042 41.006 5.79063 40.1418 7.23434C39.6456 8.06348 39.1701 8.92629 38.8308 9.70021C38.6612 10.087 38.5163 10.4723 38.4216 10.834C38.3311 11.1801 38.2645 11.5844 38.3215 11.9772C38.5283 13.4044 39.2151 14.4524 39.7902 15.3299C39.8785 15.4648 39.9642 15.5956 40.0452 15.7231C40.6598 16.6916 41.1675 17.669 41.1675 19.2662C41.1675 19.9377 41.4183 20.5078 41.6945 20.9713C41.9027 21.3208 42.1711 21.6794 42.4108 21.9997C42.4756 22.0863 42.5383 22.17 42.5971 22.25C43.1843 23.0486 43.6239 23.7763 43.6376 24.7341C43.6328 24.7526 43.6202 24.7996 43.5905 24.8825C43.5375 25.0304 43.455 25.2254 43.3452 25.4617C43.1264 25.9324 42.829 26.5032 42.522 27.0743C42.3399 27.4129 42.1665 27.7297 42.0052 28.0244C41.8879 28.2386 41.777 28.4411 41.6739 28.6318C41.5576 28.8468 41.454 29.0419 41.3782 29.1946C41.341 29.2695 41.3033 29.3483 41.2729 29.421C41.2596 29.4528 41.2426 29.4952 41.2268 29.5429C41.2245 29.5462 41.2221 29.5498 41.2195 29.5535C41.1587 29.6415 41.0592 29.7735 40.9238 29.9399C40.6549 30.2704 40.2771 30.6971 39.858 31.1168C39.4354 31.5401 38.9936 31.9332 38.5957 32.2131C38.3971 32.3529 38.2287 32.4507 38.0946 32.5107C37.9721 32.5655 37.9172 32.5711 37.9172 32.5716C37.9173 32.5717 37.9187 32.5716 37.9215 32.5716C36.9111 32.5716 34.7374 32.2429 33.7318 32.0671L32.9919 31.9378L32.6615 32.6124C32.0873 33.7853 31.3941 36.7027 32.9544 39.5293C33.9222 41.2826 35.8341 42.8801 37.4961 44.005C38.3445 44.5793 39.1678 45.0571 39.8395 45.3955C40.1743 45.5641 40.4832 45.7041 40.7465 45.8046C40.9606 45.8863 41.286 46 41.5885 46C42.1384 46 43.4216 45.7598 44.7092 45.277C45.9853 44.7985 47.5411 43.9827 48.3785 42.6569C49.004 41.6665 49.3301 40.48 49.4975 39.4527C49.6548 38.4877 49.6837 37.5904 49.6572 36.9929C49.6579 36.9891 49.6586 36.9853 49.6593 36.9815C49.9155 35.5815 50.2197 33.9196 50.7465 32.4018C51.2971 30.8153 52.0295 29.5757 53.0171 28.9368C53.4047 28.686 53.7399 28.3819 53.9434 27.981C54.1589 27.5563 54.164 27.1477 54.1163 26.8214C54.0853 26.6099 54.0166 26.3642 53.9703 26.1986C53.958 26.1547 53.9473 26.1164 53.9393 26.086C53.907 25.963 53.8836 25.8559 53.8709 25.7533C53.9207 25.6584 53.9917 25.5306 54.0826 25.3752C54.2928 25.0157 54.5875 24.5447 54.9138 24.062C55.2413 23.5777 55.5905 23.0969 55.9099 22.7111C56.0697 22.5181 56.2134 22.3594 56.3361 22.2398C56.3969 22.1805 56.4476 22.1356 56.4879 22.1033C56.5078 22.0874 56.5233 22.0759 56.5347 22.068C56.5454 22.0607 56.5507 22.0577 56.5507 22.0577L56.5506 22.0577C57.6956 21.4195 58.7754 20.1508 59.5707 18.6711C60.3772 17.1706 60.9559 15.3354 61.0006 13.4559C61.0936 9.5526 59.1922 6.23969 56.652 4.39184C56.1757 4.04537 55.732 3.71443 55.3188 3.40619C54.5392 2.8246 53.8679 2.32382 53.2899 1.95197Z" fill="#065BAA"/>
<path fill-rule="evenodd" clip-rule="evenodd" d="M52.1527 27.5629C51.635 27.7553 51.3713 28.3309 51.5637 28.8486L52.5011 28.5002C51.5637 28.8486 51.5636 28.8483 51.5637 28.8486L51.5647 28.8511L51.5663 28.8555L51.5716 28.8694L51.5901 28.9176C51.6059 28.9583 51.6287 29.016 51.6582 29.0883C51.7172 29.2326 51.8032 29.4355 51.9137 29.6766C52.1333 30.1557 52.4566 30.8003 52.8653 31.4395C53.2679 32.0692 53.7865 32.7467 54.4118 33.2468C55.0394 33.7487 55.8799 34.1507 56.8574 33.9833C57.6837 33.8417 58.1959 33.337 58.4956 33.0417C58.5104 33.0271 58.5247 33.013 58.5385 32.9995C58.8671 32.6776 58.9706 32.6118 59.1277 32.5905C60.1289 32.4544 60.8867 32.9258 61.6791 34.0697C61.952 34.4636 62.0838 35.2142 62.0932 36.053C62.0975 36.4398 62.0759 36.7925 62.053 37.049C62.0474 37.1114 62.0418 37.1677 62.0365 37.217L60.1055 39.9269C60.0511 40.0032 60.0077 40.0867 59.9766 40.1751L60.9198 40.5072C59.9766 40.1751 59.9767 40.175 59.9766 40.1751L59.9724 40.1872L59.9607 40.2206L59.9167 40.3473C59.8787 40.4574 59.8239 40.6171 59.7564 40.817C59.6214 41.2168 59.4351 41.7785 59.2298 42.4274C58.8211 43.7186 58.3284 45.3808 58.0163 46.804C57.7632 47.9579 57.322 51.1585 56.881 54.424C56.82 54.8752 56.759 55.3286 56.6983 55.7794C56.3141 58.6322 55.9439 61.3815 55.7021 62.8362C55.6115 63.381 55.9797 63.8961 56.5245 63.9867C57.0694 64.0772 57.5844 63.709 57.675 63.1642C57.9224 61.6759 58.2978 58.888 58.6809 56.0429C58.7415 55.5923 58.8024 55.1402 58.863 54.6917C59.3117 51.3695 59.7394 48.2834 59.9699 47.2324C60.2622 45.8994 60.7329 44.3061 61.1365 43.0309C61.3373 42.3966 61.5194 41.8473 61.6512 41.4569C61.7171 41.2618 61.7704 41.1066 61.807 41.0005L61.8173 40.971L63.8121 38.1716C63.9032 38.0438 63.9629 37.8964 63.9864 37.7412L62.9977 37.5913C63.9864 37.7412 63.9864 37.7415 63.9864 37.7412L63.9867 37.7392L63.9872 37.7361L63.9885 37.727L63.9928 37.697C63.9962 37.6719 64.0009 37.6368 64.0064 37.5926C64.0173 37.5044 64.0314 37.3798 64.045 37.2271C64.0722 36.9232 64.0983 36.5012 64.0931 36.0306C64.0833 35.1546 63.9668 33.8597 63.3231 32.9307C62.3409 31.513 60.9452 30.3252 58.8585 30.6087C57.9999 30.7253 57.4756 31.2401 57.1678 31.5424C57.158 31.5521 57.1484 31.5615 57.139 31.5707C56.7995 31.9032 56.69 31.9828 56.5197 32.012C56.3145 32.0471 56.0403 31.9882 55.661 31.6849C55.2793 31.3797 54.8989 30.9074 54.5503 30.3622C54.2078 29.8264 53.9277 29.2706 53.7318 28.8432C53.6345 28.631 53.5596 28.4541 53.5097 28.3319C53.4848 28.2708 53.4661 28.2236 53.4541 28.1928L53.4412 28.1591L53.4385 28.152C53.2459 27.6346 52.6702 27.3705 52.1527 27.5629Z" fill="#065BAA"/>
<path fill-rule="evenodd" clip-rule="evenodd" d="M48.6041 37.4189C48.1146 37.2095 47.8727 36.6494 48.0626 36.1465C48.2577 35.6298 48.8347 35.3692 49.3514 35.5643C49.5972 35.6571 49.8066 35.8121 49.9618 35.9442C50.13 36.0873 50.2998 36.2603 50.4666 36.4499C50.8008 36.83 51.1638 37.3242 51.5245 37.8963C51.8567 38.4231 52.3862 39.4211 52.8174 40.2638C53.0367 40.6924 53.2377 41.0948 53.3849 41.3972C53.458 41.5476 53.5202 41.6779 53.5652 41.7761C53.5871 41.824 53.6087 41.8723 53.6263 41.9147C53.6345 41.9346 53.6468 41.9649 53.6586 41.9988C53.6643 42.0151 53.6743 42.0446 53.684 42.0812L53.6846 42.0831C53.6898 42.1022 53.7188 42.2088 53.7188 42.3442C53.7188 42.696 53.5408 42.9259 53.4724 43.0053C53.3927 43.0977 53.3136 43.1555 53.2798 43.1793C53.2109 43.2279 53.1444 43.2622 53.123 43.2733L53.1213 43.2742C53.0695 43.301 53.0547 43.308 53.0428 43.3136C53.0308 43.3193 53.0218 43.3236 52.9807 43.3454C52.9024 43.3869 52.8253 43.4356 52.7557 43.5019C52.6568 43.5962 52.4745 43.8108 52.4924 44.3603C52.5127 44.4117 52.5464 44.4869 52.5956 44.586C52.6967 44.7897 52.8356 45.0394 52.9821 45.2907C53.127 45.5392 53.2721 45.7769 53.3815 45.9533C53.436 46.0412 53.4813 46.1133 53.5128 46.163L53.5489 46.22L53.558 46.2344L53.5602 46.2378C53.6805 46.4255 53.7351 46.6489 53.7144 46.8709L52.2033 63.0925C52.152 63.6424 51.6647 64.0467 51.1148 63.9955C50.5649 63.9442 50.1607 63.4569 50.2119 62.907L51.6916 47.0231C51.6884 47.018 51.6852 47.0128 51.6819 47.0075C51.5665 46.8215 51.4113 46.5673 51.2543 46.2981C51.099 46.0316 50.9343 45.7376 50.8041 45.4752C50.7394 45.3448 50.6761 45.2082 50.6258 45.0784C50.5858 44.9755 50.5137 44.7787 50.5001 44.5627C50.425 43.3717 50.8409 42.5638 51.3762 42.0539C51.3998 42.0313 51.4235 42.0096 51.4471 41.9886C51.3281 41.7484 51.1874 41.4688 51.0369 41.1748C50.6004 40.3217 50.1098 39.4023 49.8328 38.963C49.5135 38.4567 49.2125 38.0525 48.9646 37.7705C48.8403 37.6292 48.7395 37.5302 48.6658 37.4675C48.6348 37.4411 48.6144 37.4261 48.6041 37.4189Z" fill="#065BAA"/>
<path d="M57 42L54 63.5L56.5 63L58.5 49L60 42L63 38C62.8333 37.1667 62.4 35.2 62 34C61.6 32.8 59.5 32.1667 58.5 32L56 34L57 36.5V42Z" fill="#B4D6F1" fill-opacity="0.5"/>
<path fill-rule="evenodd" clip-rule="evenodd" d="M54.0386 4.94685C54.4604 5.26178 54.9332 5.61471 55.4754 6.00918C57.5055 7.48595 59.0779 10.1868 59.0012 13.4083C58.9651 14.9234 58.4924 16.4529 57.8091 17.7243C57.1145 19.0164 56.2661 19.9265 55.5768 20.3108C55.1439 20.5521 54.7132 21.0204 54.3695 21.4356C53.9941 21.889 53.605 22.4271 53.257 22.9417C52.9079 23.4581 52.5897 23.9661 52.3561 24.3658C52.24 24.5643 52.1393 24.7454 52.0647 24.8924C52.0282 24.9643 51.991 25.0416 51.9604 25.1156C51.9454 25.152 51.9261 25.2016 51.9091 25.2579L51.9089 25.2586C51.898 25.2946 51.8599 25.4205 51.8599 25.5798C51.8599 25.9879 51.9363 26.3327 52.0048 26.5937C52.0345 26.7068 52.0578 26.7902 52.0763 26.8564C52.107 26.9658 52.1245 27.0283 52.1357 27.1004C52.1046 27.1315 52.0433 27.1847 51.9306 27.2576C50.3717 28.2662 49.4515 30.0333 48.8571 31.746C48.2788 33.4123 47.9506 35.2072 47.6996 36.5797C47.6892 36.6366 47.6789 36.6927 47.6688 36.748L47.6468 36.8681L47.6543 36.99C47.682 37.4362 47.6681 38.2446 47.5236 39.1309C47.3777 40.0257 47.1119 40.917 46.6875 41.5889C46.2125 42.341 45.1821 42.9637 44.007 43.4043C42.9182 43.8126 41.9438 43.9784 41.6411 43.998C41.6157 43.9907 41.5579 43.9736 41.4598 43.9361C41.2795 43.8673 41.0354 43.7585 40.7393 43.6093C40.1492 43.3121 39.3996 42.8783 38.6171 42.3487C37.0173 41.2659 35.436 39.8864 34.7053 38.5628C33.797 36.9173 33.9293 35.2062 34.211 34.1731C35.3473 34.3512 36.9774 34.5716 37.9215 34.5716C38.6054 34.5716 39.2686 34.1851 39.7466 33.8488C40.2752 33.4769 40.8081 32.9959 41.2733 32.53C41.7419 32.0606 42.1651 31.5833 42.4753 31.202C42.6294 31.0125 42.7638 30.8367 42.8647 30.6908C42.9138 30.6198 42.9658 30.5403 43.0097 30.4611C43.0311 30.4224 43.0604 30.3664 43.087 30.3004L43.0876 30.2988C43.096 30.278 43.1163 30.2277 43.1343 30.1566C43.1427 30.1387 43.1541 30.115 43.1693 30.0845C43.2285 29.9653 43.3179 29.7963 43.4332 29.5831C43.5226 29.4176 43.6307 29.2202 43.7479 29.006C43.9167 28.6975 44.1046 28.3542 44.2836 28.0213C44.5942 27.4435 44.9144 26.8305 45.1588 26.3047C45.2806 26.0428 45.3911 25.7864 45.4731 25.5575C45.5422 25.3648 45.638 25.0697 45.638 24.7806C45.638 23.1192 44.847 21.9337 44.2084 21.0652C44.1236 20.95 44.0441 20.8435 43.9694 20.7436C43.7436 20.4413 43.5619 20.1982 43.4126 19.9476C43.2256 19.6338 43.1675 19.4281 43.1675 19.2662C43.1675 17.1328 42.4473 15.7756 41.7338 14.6514C41.6329 14.4924 41.5353 14.3418 41.4417 14.1972C40.8667 13.3096 40.4399 12.6507 40.3008 11.6904C40.3008 11.6907 40.3009 11.6909 40.3009 11.6909C40.3009 11.6909 40.298 11.6642 40.3047 11.603C40.3116 11.5385 40.3274 11.4516 40.3565 11.3403C40.4153 11.1155 40.5172 10.8346 40.6624 10.5033C40.9527 9.84123 41.3796 9.06071 41.8579 8.26151C42.6866 6.87703 43.6223 5.51426 44.1641 4.72519C44.247 4.60446 44.3207 4.49716 44.3834 4.40527C44.4377 4.32558 44.6565 4.13701 45.1993 3.92317C45.7023 3.72503 46.3413 3.55921 47.0334 3.42504C48.4133 3.1575 49.8685 3.04096 50.5611 3.0022C50.9532 2.98027 51.4058 3.11799 52.2078 3.63396C52.7301 3.96993 53.308 4.4014 54.0386 4.94685ZM53.2899 1.95197C52.3839 1.36905 51.4855 0.947348 50.4494 1.00533C49.7138 1.04649 48.1582 1.16972 46.6527 1.4616C45.902 1.60715 45.1298 1.80097 44.4662 2.06236C43.8426 2.30804 43.1398 2.67891 42.731 3.27853C42.6717 3.36545 42.6007 3.46878 42.5199 3.58645C41.9814 4.37042 41.006 5.79063 40.1418 7.23434C39.6456 8.06348 39.1701 8.92629 38.8308 9.70021C38.6612 10.087 38.5163 10.4723 38.4216 10.834C38.3311 11.1801 38.2645 11.5844 38.3215 11.9772C38.5283 13.4044 39.2151 14.4524 39.7902 15.3299C39.8785 15.4648 39.9642 15.5956 40.0452 15.7231C40.6598 16.6916 41.1675 17.669 41.1675 19.2662C41.1675 19.9377 41.4183 20.5078 41.6945 20.9713C41.9027 21.3208 42.1711 21.6794 42.4108 21.9997C42.4756 22.0863 42.5383 22.17 42.5971 22.25C43.1843 23.0486 43.6239 23.7763 43.6376 24.7341C43.6328 24.7526 43.6202 24.7996 43.5905 24.8825C43.5375 25.0304 43.455 25.2254 43.3452 25.4617C43.1264 25.9324 42.829 26.5032 42.522 27.0743C42.3399 27.4129 42.1665 27.7297 42.0052 28.0244C41.8879 28.2386 41.777 28.4411 41.6739 28.6318C41.5576 28.8468 41.454 29.0419 41.3782 29.1946C41.341 29.2695 41.3033 29.3483 41.2729 29.421C41.2596 29.4528 41.2426 29.4952 41.2268 29.5429C41.2245 29.5462 41.2221 29.5498 41.2195 29.5535C41.1587 29.6415 41.0592 29.7735 40.9238 29.9399C40.6549 30.2704 40.2771 30.6971 39.858 31.1168C39.4354 31.5401 38.9936 31.9332 38.5957 32.2131C38.3971 32.3529 38.2287 32.4507 38.0946 32.5107C37.9721 32.5655 37.9172 32.5711 37.9172 32.5716C37.9173 32.5717 37.9187 32.5716 37.9215 32.5716C36.9111 32.5716 34.7374 32.2429 33.7318 32.0671L32.9919 31.9378L32.6615 32.6124C32.0873 33.7853 31.3941 36.7027 32.9544 39.5293C33.9222 41.2826 35.8341 42.8801 37.4961 44.005C38.3445 44.5793 39.1678 45.0571 39.8395 45.3955C40.1743 45.5641 40.4832 45.7041 40.7465 45.8046C40.9606 45.8863 41.286 46 41.5885 46C42.1384 46 43.4216 45.7598 44.7092 45.277C45.9853 44.7985 47.5411 43.9827 48.3785 42.6569C49.004 41.6665 49.3301 40.48 49.4975 39.4527C49.6548 38.4877 49.6837 37.5904 49.6572 36.9929C49.6579 36.9891 49.6586 36.9853 49.6593 36.9815C49.9155 35.5815 50.2197 33.9196 50.7465 32.4018C51.2971 30.8153 52.0295 29.5757 53.0171 28.9368C53.4047 28.686 53.7399 28.3819 53.9434 27.981C54.1589 27.5563 54.164 27.1477 54.1163 26.8214C54.0853 26.6099 54.0166 26.3642 53.9703 26.1986C53.958 26.1547 53.9473 26.1164 53.9393 26.086C53.907 25.963 53.8836 25.8559 53.8709 25.7533C53.9207 25.6584 53.9917 25.5306 54.0826 25.3752C54.2928 25.0157 54.5875 24.5447 54.9138 24.062C55.2413 23.5777 55.5905 23.0969 55.9099 22.7111C56.0697 22.5181 56.2134 22.3594 56.3361 22.2398C56.3969 22.1805 56.4476 22.1356 56.4879 22.1033C56.5078 22.0874 56.5233 22.0759 56.5347 22.068C56.5454 22.0607 56.5507 22.0577 56.5507 22.0577L56.5506 22.0577C57.6956 21.4195 58.7754 20.1508 59.5707 18.6711C60.3772 17.1706 60.9559 15.3354 61.0006 13.4559C61.0936 9.5526 59.1922 6.23969 56.652 4.39184C56.1757 4.04537 55.732 3.71443 55.3188 3.40619C54.5392 2.8246 53.8679 2.32382 53.2899 1.95197Z" fill="#065BAA"/>
<path fill-rule="evenodd" clip-rule="evenodd" d="M52.1527 27.5629C51.635 27.7553 51.3713 28.3309 51.5637 28.8486L52.5011 28.5002C51.5637 28.8486 51.5636 28.8483 51.5637 28.8486L51.5647 28.8511L51.5663 28.8555L51.5716 28.8694L51.5901 28.9176C51.6059 28.9583 51.6287 29.016 51.6582 29.0883C51.7172 29.2326 51.8032 29.4355 51.9137 29.6766C52.1333 30.1557 52.4566 30.8003 52.8653 31.4395C53.2679 32.0692 53.7865 32.7467 54.4118 33.2468C55.0394 33.7487 55.8799 34.1507 56.8574 33.9833C57.6837 33.8417 58.1959 33.337 58.4956 33.0417C58.5104 33.0271 58.5247 33.013 58.5385 32.9995C58.8671 32.6776 58.9706 32.6118 59.1277 32.5905C60.1289 32.4544 60.8867 32.9258 61.6791 34.0697C61.952 34.4636 62.0838 35.2142 62.0932 36.053C62.0975 36.4398 62.0759 36.7925 62.053 37.049C62.0474 37.1114 62.0418 37.1677 62.0365 37.217L60.1055 39.9269C60.0511 40.0032 60.0077 40.0867 59.9766 40.1751L60.9198 40.5072C59.9766 40.1751 59.9767 40.175 59.9766 40.1751L59.9724 40.1872L59.9607 40.2206L59.9167 40.3473C59.8787 40.4574 59.8239 40.6171 59.7564 40.817C59.6214 41.2168 59.4351 41.7785 59.2298 42.4274C58.8211 43.7186 58.3284 45.3808 58.0163 46.804C57.7632 47.9579 57.322 51.1585 56.881 54.424C56.82 54.8752 56.759 55.3286 56.6983 55.7794C56.3141 58.6322 55.9439 61.3815 55.7021 62.8362C55.6115 63.381 55.9797 63.8961 56.5245 63.9867C57.0694 64.0772 57.5844 63.709 57.675 63.1642C57.9224 61.6759 58.2978 58.888 58.6809 56.0429C58.7415 55.5923 58.8024 55.1402 58.863 54.6917C59.3117 51.3695 59.7394 48.2834 59.9699 47.2324C60.2622 45.8994 60.7329 44.3061 61.1365 43.0309C61.3373 42.3966 61.5194 41.8473 61.6512 41.4569C61.7171 41.2618 61.7704 41.1066 61.807 41.0005L61.8173 40.971L63.8121 38.1716C63.9032 38.0438 63.9629 37.8964 63.9864 37.7412L62.9977 37.5913C63.9864 37.7412 63.9864 37.7415 63.9864 37.7412L63.9867 37.7392L63.9872 37.7361L63.9885 37.727L63.9928 37.697C63.9962 37.6719 64.0009 37.6368 64.0064 37.5926C64.0173 37.5044 64.0314 37.3798 64.045 37.2271C64.0722 36.9232 64.0983 36.5012 64.0931 36.0306C64.0833 35.1546 63.9668 33.8597 63.3231 32.9307C62.3409 31.513 60.9452 30.3252 58.8585 30.6087C57.9999 30.7253 57.4756 31.2401 57.1678 31.5424C57.158 31.5521 57.1484 31.5615 57.139 31.5707C56.7995 31.9032 56.69 31.9828 56.5197 32.012C56.3145 32.0471 56.0403 31.9882 55.661 31.6849C55.2793 31.3797 54.8989 30.9074 54.5503 30.3622C54.2078 29.8264 53.9277 29.2706 53.7318 28.8432C53.6345 28.631 53.5596 28.4541 53.5097 28.3319C53.4848 28.2708 53.4661 28.2236 53.4541 28.1928L53.4412 28.1591L53.4385 28.152C53.2459 27.6346 52.6702 27.3705 52.1527 27.5629Z" fill="#065BAA"/>
<path fill-rule="evenodd" clip-rule="evenodd" d="M48.608 37.4189C48.1185 37.2095 47.8766 36.6494 48.0665 36.1465C48.2616 35.6298 48.8386 35.3692 49.3553 35.5643C49.6011 35.6571 49.8105 35.8121 49.9657 35.9442C50.1339 36.0873 50.3037 36.2603 50.4705 36.4499C50.8047 36.83 51.1677 37.3242 51.5285 37.8963C51.8606 38.4231 52.3901 39.4211 52.8213 40.2638C53.0406 40.6924 53.2416 41.0948 53.3888 41.3972C53.4619 41.5476 53.5241 41.6779 53.5691 41.7761C53.591 41.824 53.6126 41.8723 53.6302 41.9147C53.6384 41.9346 53.6507 41.9649 53.6625 41.9988C53.6682 42.0151 53.6782 42.0446 53.688 42.0812L53.6885 42.0831C53.6937 42.1022 53.7227 42.2088 53.7227 42.3442C53.7227 42.696 53.5447 42.9259 53.4763 43.0053C53.3966 43.0977 53.3175 43.1555 53.2837 43.1793C53.2148 43.2279 53.1483 43.2622 53.1269 43.2733L53.1252 43.2742C53.0734 43.301 53.0586 43.308 53.0467 43.3136C53.0347 43.3193 53.0257 43.3236 52.9846 43.3454C52.9063 43.3869 52.8292 43.4356 52.7596 43.5019C52.6607 43.5962 52.4784 43.8108 52.4963 44.3603C52.5166 44.4117 52.5503 44.4869 52.5995 44.586C52.7006 44.7897 52.8395 45.0394 52.986 45.2907C53.1309 45.5392 53.276 45.7769 53.3854 45.9533C53.44 46.0412 53.4852 46.1133 53.5167 46.163L53.5528 46.22L53.5619 46.2344L53.5641 46.2378C53.6844 46.4255 53.739 46.6489 53.7183 46.8709L52.2072 63.0925C52.1559 63.6424 51.6686 64.0467 51.1187 63.9955C50.5688 63.9442 50.1646 63.4569 50.2158 62.907L51.6955 47.0231C51.6923 47.018 51.6891 47.0128 51.6858 47.0075C51.5704 46.8215 51.4152 46.5673 51.2583 46.2981C51.1029 46.0316 50.9383 45.7376 50.808 45.4752C50.7433 45.3448 50.68 45.2082 50.6297 45.0784C50.5898 44.9755 50.5176 44.7787 50.504 44.5627C50.4289 43.3717 50.8448 42.5638 51.3801 42.0539C51.4037 42.0313 51.4274 42.0096 51.451 41.9886C51.332 41.7484 51.1913 41.4688 51.0408 41.1748C50.6043 40.3217 50.1137 39.4023 49.8367 38.963C49.5174 38.4567 49.2164 38.0525 48.9685 37.7705C48.8442 37.6292 48.7434 37.5302 48.6697 37.4675C48.6387 37.4411 48.6183 37.4261 48.608 37.4189Z" fill="#065BAA"/>
<path d="M57 42L54 63.5L56.5 63L58.5 49L60 42L63 38C62.8333 37.1667 62.4 35.2 62 34C61.6 32.8 59.5 32.1667 58.5 32L56 34L57 36.5V42Z" fill="#B4D6F1" fill-opacity="0.5"/>
<path fill-rule="evenodd" clip-rule="evenodd" d="M54.0386 4.94685C54.4604 5.26178 54.9332 5.61471 55.4754 6.00918C57.5055 7.48595 59.0779 10.1868 59.0012 13.4083C58.9651 14.9234 58.4924 16.4529 57.8091 17.7243C57.1145 19.0164 56.2661 19.9265 55.5768 20.3108C55.1439 20.5521 54.7132 21.0204 54.3695 21.4356C53.9941 21.889 53.605 22.4271 53.257 22.9417C52.9079 23.4581 52.5897 23.9661 52.3561 24.3658C52.24 24.5643 52.1393 24.7454 52.0647 24.8924C52.0282 24.9643 51.991 25.0416 51.9604 25.1156C51.9454 25.152 51.9261 25.2016 51.9091 25.2579L51.9089 25.2586C51.898 25.2946 51.8599 25.4205 51.8599 25.5798C51.8599 25.9879 51.9363 26.3327 52.0048 26.5937C52.0345 26.7068 52.0578 26.7902 52.0763 26.8564C52.107 26.9658 52.1245 27.0283 52.1357 27.1004C52.1046 27.1315 52.0433 27.1847 51.9306 27.2576C50.3717 28.2662 49.4515 30.0333 48.8571 31.746C48.2788 33.4123 47.9506 35.2072 47.6996 36.5797C47.6892 36.6366 47.6789 36.6927 47.6688 36.748L47.6468 36.8681L47.6543 36.99C47.682 37.4362 47.6681 38.2446 47.5236 39.1309C47.3777 40.0257 47.1119 40.917 46.6875 41.5889C46.2125 42.341 45.1821 42.9637 44.007 43.4043C42.9182 43.8126 41.9438 43.9784 41.6411 43.998C41.6157 43.9907 41.5579 43.9736 41.4598 43.9361C41.2795 43.8673 41.0354 43.7585 40.7393 43.6093C40.1492 43.3121 39.3996 42.8783 38.6171 42.3487C37.0173 41.2659 35.436 39.8864 34.7053 38.5628C33.797 36.9173 33.9293 35.2062 34.211 34.1731C35.3473 34.3512 36.9774 34.5716 37.9215 34.5716C38.6054 34.5716 39.2686 34.1851 39.7466 33.8488C40.2752 33.4769 40.8081 32.9959 41.2733 32.53C41.7419 32.0606 42.1651 31.5833 42.4753 31.202C42.6294 31.0125 42.7638 30.8367 42.8647 30.6908C42.9138 30.6198 42.9658 30.5403 43.0097 30.4611C43.0311 30.4224 43.0604 30.3664 43.087 30.3004L43.0876 30.2988C43.096 30.278 43.1163 30.2277 43.1343 30.1566C43.1427 30.1387 43.1541 30.115 43.1693 30.0845C43.2285 29.9653 43.3179 29.7963 43.4332 29.5831C43.5226 29.4176 43.6307 29.2202 43.7479 29.006C43.9167 28.6975 44.1046 28.3542 44.2836 28.0213C44.5942 27.4435 44.9144 26.8305 45.1588 26.3047C45.2806 26.0428 45.3911 25.7864 45.4731 25.5575C45.5422 25.3648 45.638 25.0697 45.638 24.7806C45.638 23.1192 44.847 21.9337 44.2084 21.0652C44.1236 20.95 44.0441 20.8435 43.9694 20.7436C43.7436 20.4413 43.5619 20.1982 43.4126 19.9476C43.2256 19.6338 43.1675 19.4281 43.1675 19.2662C43.1675 17.1328 42.4473 15.7756 41.7338 14.6514C41.6329 14.4924 41.5353 14.3418 41.4417 14.1972C40.8667 13.3096 40.4399 12.6507 40.3008 11.6904C40.3008 11.6907 40.3009 11.6909 40.3009 11.6909C40.3009 11.6909 40.298 11.6642 40.3047 11.603C40.3116 11.5385 40.3274 11.4516 40.3565 11.3403C40.4153 11.1155 40.5172 10.8346 40.6624 10.5033C40.9527 9.84123 41.3796 9.06071 41.8579 8.26151C42.6866 6.87703 43.6223 5.51426 44.1641 4.72519C44.247 4.60446 44.3207 4.49716 44.3834 4.40527C44.4377 4.32558 44.6565 4.13701 45.1993 3.92317C45.7023 3.72503 46.3413 3.55921 47.0334 3.42504C48.4133 3.1575 49.8685 3.04096 50.5611 3.0022C50.9532 2.98027 51.4058 3.11799 52.2078 3.63396C52.7301 3.96993 53.308 4.4014 54.0386 4.94685ZM53.2899 1.95197C52.3839 1.36905 51.4855 0.947348 50.4494 1.00533C49.7138 1.04649 48.1582 1.16972 46.6527 1.4616C45.902 1.60715 45.1298 1.80097 44.4662 2.06236C43.8426 2.30804 43.1398 2.67891 42.731 3.27853C42.6717 3.36545 42.6007 3.46878 42.5199 3.58645C41.9814 4.37042 41.006 5.79063 40.1418 7.23434C39.6456 8.06348 39.1701 8.92629 38.8308 9.70021C38.6612 10.087 38.5163 10.4723 38.4216 10.834C38.3311 11.1801 38.2645 11.5844 38.3215 11.9772C38.5283 13.4044 39.2151 14.4524 39.7902 15.3299C39.8785 15.4648 39.9642 15.5956 40.0452 15.7231C40.6598 16.6916 41.1675 17.669 41.1675 19.2662C41.1675 19.9377 41.4183 20.5078 41.6945 20.9713C41.9027 21.3208 42.1711 21.6794 42.4108 21.9997C42.4756 22.0863 42.5383 22.17 42.5971 22.25C43.1843 23.0486 43.6239 23.7763 43.6376 24.7341C43.6328 24.7526 43.6202 24.7996 43.5905 24.8825C43.5375 25.0304 43.455 25.2254 43.3452 25.4617C43.1264 25.9324 42.829 26.5032 42.522 27.0743C42.3399 27.4129 42.1665 27.7297 42.0052 28.0244C41.8879 28.2386 41.777 28.4411 41.6739 28.6318C41.5576 28.8468 41.454 29.0419 41.3782 29.1946C41.341 29.2695 41.3033 29.3483 41.2729 29.421C41.2596 29.4528 41.2426 29.4952 41.2268 29.5429C41.2245 29.5462 41.2221 29.5498 41.2195 29.5535C41.1587 29.6415 41.0592 29.7735 40.9238 29.9399C40.6549 30.2704 40.2771 30.6971 39.858 31.1168C39.4354 31.5401 38.9936 31.9332 38.5957 32.2131C38.3971 32.3529 38.2287 32.4507 38.0946 32.5107C37.9721 32.5655 37.9172 32.5711 37.9172 32.5716C37.9173 32.5717 37.9187 32.5716 37.9215 32.5716C36.9111 32.5716 34.7374 32.2429 33.7318 32.0671L32.9919 31.9378L32.6615 32.6124C32.0873 33.7853 31.3941 36.7027 32.9544 39.5293C33.9222 41.2826 35.8341 42.8801 37.4961 44.005C38.3445 44.5793 39.1678 45.0571 39.8395 45.3955C40.1743 45.5641 40.4832 45.7041 40.7465 45.8046C40.9606 45.8863 41.286 46 41.5885 46C42.1384 46 43.4216 45.7598 44.7092 45.277C45.9853 44.7985 47.5411 43.9827 48.3785 42.6569C49.004 41.6665 49.3301 40.48 49.4975 39.4527C49.6548 38.4877 49.6837 37.5904 49.6572 36.9929C49.6579 36.9891 49.6586 36.9853 49.6593 36.9815C49.9155 35.5815 50.2197 33.9196 50.7465 32.4018C51.2971 30.8153 52.0295 29.5757 53.0171 28.9368C53.4047 28.686 53.7399 28.3819 53.9434 27.981C54.1589 27.5563 54.164 27.1477 54.1163 26.8214C54.0853 26.6099 54.0166 26.3642 53.9703 26.1986C53.958 26.1547 53.9473 26.1164 53.9393 26.086C53.907 25.963 53.8836 25.8559 53.8709 25.7533C53.9207 25.6584 53.9917 25.5306 54.0826 25.3752C54.2928 25.0157 54.5875 24.5447 54.9138 24.062C55.2413 23.5777 55.5905 23.0969 55.9099 22.7111C56.0697 22.5181 56.2134 22.3594 56.3361 22.2398C56.3969 22.1805 56.4476 22.1356 56.4879 22.1033C56.5078 22.0874 56.5233 22.0759 56.5347 22.068C56.5454 22.0607 56.5507 22.0577 56.5507 22.0577L56.5506 22.0577C57.6956 21.4195 58.7754 20.1508 59.5707 18.6711C60.3772 17.1706 60.9559 15.3354 61.0006 13.4559C61.0936 9.5526 59.1922 6.23969 56.652 4.39184C56.1757 4.04537 55.732 3.71443 55.3188 3.40619C54.5392 2.8246 53.8679 2.32382 53.2899 1.95197Z" fill="#065BAA"/>
<path fill-rule="evenodd" clip-rule="evenodd" d="M52.1527 27.5629C51.635 27.7553 51.3713 28.3309 51.5637 28.8486L52.5011 28.5002C51.5637 28.8486 51.5636 28.8483 51.5637 28.8486L51.5647 28.8511L51.5663 28.8555L51.5716 28.8694L51.5901 28.9176C51.6059 28.9583 51.6287 29.016 51.6582 29.0883C51.7172 29.2326 51.8032 29.4355 51.9137 29.6766C52.1333 30.1557 52.4566 30.8003 52.8653 31.4395C53.2679 32.0692 53.7865 32.7467 54.4118 33.2468C55.0394 33.7487 55.8799 34.1507 56.8574 33.9833C57.6837 33.8417 58.1959 33.337 58.4956 33.0417C58.5104 33.0271 58.5247 33.013 58.5385 32.9995C58.8671 32.6776 58.9706 32.6118 59.1277 32.5905C60.1289 32.4544 60.8867 32.9258 61.6791 34.0697C61.952 34.4636 62.0838 35.2142 62.0932 36.053C62.0975 36.4398 62.0759 36.7925 62.053 37.049C62.0474 37.1114 62.0418 37.1677 62.0365 37.217L60.1055 39.9269C60.0511 40.0032 60.0077 40.0867 59.9766 40.1751L60.9198 40.5072C59.9766 40.1751 59.9767 40.175 59.9766 40.1751L59.9724 40.1872L59.9607 40.2206L59.9167 40.3473C59.8787 40.4574 59.8239 40.6171 59.7564 40.817C59.6214 41.2168 59.4351 41.7785 59.2298 42.4274C58.8211 43.7186 58.3284 45.3808 58.0163 46.804C57.7632 47.9579 57.322 51.1585 56.881 54.424C56.82 54.8752 56.759 55.3286 56.6983 55.7794C56.3141 58.6322 55.9439 61.3815 55.7021 62.8362C55.6115 63.381 55.9797 63.8961 56.5245 63.9867C57.0694 64.0772 57.5844 63.709 57.675 63.1642C57.9224 61.6759 58.2978 58.888 58.6809 56.0429C58.7415 55.5923 58.8024 55.1402 58.863 54.6917C59.3117 51.3695 59.7394 48.2834 59.9699 47.2324C60.2622 45.8994 60.7329 44.3061 61.1365 43.0309C61.3373 42.3966 61.5194 41.8473 61.6512 41.4569C61.7171 41.2618 61.7704 41.1066 61.807 41.0005L61.8173 40.971L63.8121 38.1716C63.9032 38.0438 63.9629 37.8964 63.9864 37.7412L62.9977 37.5913C63.9864 37.7412 63.9864 37.7415 63.9864 37.7412L63.9867 37.7392L63.9872 37.7361L63.9885 37.727L63.9928 37.697C63.9962 37.6719 64.0009 37.6368 64.0064 37.5926C64.0173 37.5044 64.0314 37.3798 64.045 37.2271C64.0722 36.9232 64.0983 36.5012 64.0931 36.0306C64.0833 35.1546 63.9668 33.8597 63.3231 32.9307C62.3409 31.513 60.9452 30.3252 58.8585 30.6087C57.9999 30.7253 57.4756 31.2401 57.1678 31.5424C57.158 31.5521 57.1484 31.5615 57.139 31.5707C56.7995 31.9032 56.69 31.9828 56.5197 32.012C56.3145 32.0471 56.0403 31.9882 55.661 31.6849C55.2793 31.3797 54.8989 30.9074 54.5503 30.3622C54.2078 29.8264 53.9277 29.2706 53.7318 28.8432C53.6345 28.631 53.5596 28.4541 53.5097 28.3319C53.4848 28.2708 53.4661 28.2236 53.4541 28.1928L53.4412 28.1591L53.4385 28.152C53.2459 27.6346 52.6702 27.3705 52.1527 27.5629Z" fill="#065BAA"/>
<path fill-rule="evenodd" clip-rule="evenodd" d="M48.608 37.4189C48.1185 37.2095 47.8766 36.6494 48.0665 36.1465C48.2616 35.6298 48.8386 35.3692 49.3553 35.5643C49.6011 35.6571 49.8105 35.8121 49.9657 35.9442C50.1339 36.0873 50.3037 36.2603 50.4705 36.4499C50.8047 36.83 51.1677 37.3242 51.5285 37.8963C51.8606 38.4231 52.3901 39.4211 52.8213 40.2638C53.0406 40.6924 53.2416 41.0948 53.3888 41.3972C53.4619 41.5476 53.5241 41.6779 53.5691 41.7761C53.591 41.824 53.6126 41.8723 53.6302 41.9147C53.6384 41.9346 53.6507 41.9649 53.6625 41.9988C53.6682 42.0151 53.6782 42.0446 53.688 42.0812L53.6885 42.0831C53.6937 42.1022 53.7227 42.2088 53.7227 42.3442C53.7227 42.696 53.5447 42.9259 53.4763 43.0053C53.3966 43.0977 53.3175 43.1555 53.2837 43.1793C53.2148 43.2279 53.1483 43.2622 53.1269 43.2733L53.1252 43.2742C53.0734 43.301 53.0586 43.308 53.0467 43.3136C53.0347 43.3193 53.0257 43.3236 52.9846 43.3454C52.9063 43.3869 52.8292 43.4356 52.7596 43.5019C52.6607 43.5962 52.4784 43.8108 52.4963 44.3603C52.5166 44.4117 52.5503 44.4869 52.5995 44.586C52.7006 44.7897 52.8395 45.0394 52.986 45.2907C53.1309 45.5392 53.276 45.7769 53.3854 45.9533C53.44 46.0412 53.4852 46.1133 53.5167 46.163L53.5528 46.22L53.5619 46.2344L53.5641 46.2378C53.6844 46.4255 53.739 46.6489 53.7183 46.8709L52.2072 63.0925C52.1559 63.6424 51.6686 64.0467 51.1187 63.9955C50.5688 63.9442 50.1646 63.4569 50.2158 62.907L51.6955 47.0231C51.6923 47.018 51.6891 47.0128 51.6858 47.0075C51.5704 46.8215 51.4152 46.5673 51.2583 46.2981C51.1029 46.0316 50.9383 45.7376 50.808 45.4752C50.7433 45.3448 50.68 45.2082 50.6297 45.0784C50.5898 44.9755 50.5176 44.7787 50.504 44.5627C50.4289 43.3717 50.8448 42.5638 51.3801 42.0539C51.4037 42.0313 51.4274 42.0096 51.451 41.9886C51.332 41.7484 51.1913 41.4688 51.0408 41.1748C50.6043 40.3217 50.1137 39.4023 49.8367 38.963C49.5174 38.4567 49.2164 38.0525 48.9685 37.7705C48.8442 37.6292 48.7434 37.5302 48.6697 37.4675C48.6387 37.4411 48.6183 37.4261 48.608 37.4189Z" fill="#065BAA"/>
<path d="M7.09375 42L10.0938 63.5L7.59375 63L5.59375 49L4.09375 42L1.09375 38C1.26042 37.1667 1.69375 35.2 2.09375 34C2.49375 32.8 4.59375 32.1667 5.59375 32L8.09375 34L7.09375 36.5V42Z" fill="#B4D6F1" fill-opacity="0.5"/>
<path fill-rule="evenodd" clip-rule="evenodd" d="M10.0552 4.94685C9.63332 5.26178 9.1606 5.61471 8.61831 6.00918C6.58823 7.48595 5.01586 10.1868 5.09254 13.4083C5.12861 14.9234 5.60136 16.4529 6.28468 17.7243C6.9792 19.0164 7.8276 19.9265 8.51694 20.3108C8.94988 20.5521 9.38052 21.0204 9.72429 21.4356C10.0997 21.889 10.4887 22.4271 10.8367 22.9417C11.1859 23.4581 11.504 23.9661 11.7377 24.3658C11.8538 24.5643 11.9545 24.7454 12.0291 24.8924C12.0656 24.9643 12.1028 25.0416 12.1333 25.1156C12.1484 25.152 12.1676 25.2016 12.1846 25.2579L12.1849 25.2586C12.1958 25.2946 12.2339 25.4205 12.2339 25.5798C12.2339 25.9879 12.1575 26.3327 12.089 26.5937C12.0593 26.7068 12.0359 26.7902 12.0174 26.8564C11.9868 26.9658 11.9693 27.0283 11.958 27.1004C11.9892 27.1315 12.0505 27.1847 12.1631 27.2576C13.722 28.2662 14.6422 30.0333 15.2367 31.746C15.815 33.4123 16.1432 35.2072 16.3942 36.5797C16.4046 36.6366 16.4148 36.6927 16.425 36.748L16.447 36.8681L16.4394 36.99C16.4118 37.4362 16.4257 38.2446 16.5702 39.1309C16.716 40.0257 16.9818 40.917 17.4062 41.5889C17.8813 42.341 18.9117 42.9637 20.0867 43.4043C21.1755 43.8126 22.1499 43.9784 22.4526 43.998C22.4781 43.9907 22.5358 43.9736 22.6339 43.9361C22.8142 43.8673 23.0584 43.7585 23.3545 43.6093C23.9445 43.3121 24.6942 42.8783 25.4766 42.3487C27.0764 41.2659 28.6578 39.8864 29.3884 38.5628C30.2967 36.9173 30.1644 35.2062 29.8828 34.1731C28.7464 34.3512 27.1164 34.5716 26.1722 34.5716C25.4884 34.5716 24.8251 34.1851 24.3471 33.8488C23.8185 33.4769 23.2857 32.9959 22.8205 32.53C22.3518 32.0606 21.9287 31.5833 21.6185 31.202C21.4644 31.0125 21.3299 30.8367 21.2291 30.6908C21.18 30.6198 21.128 30.5403 21.0841 30.4611C21.0626 30.4224 21.0333 30.3664 21.0068 30.3004L21.0061 30.2988C20.9977 30.278 20.9775 30.2277 20.9594 30.1566C20.9511 30.1387 20.9396 30.115 20.9245 30.0845C20.8652 29.9653 20.7759 29.7963 20.6606 29.5831C20.5711 29.4176 20.4631 29.2202 20.3458 29.006C20.177 28.6975 19.9892 28.3542 19.8102 28.0213C19.4996 27.4435 19.1794 26.8305 18.935 26.3047C18.8132 26.0428 18.7027 25.7864 18.6206 25.5575C18.5515 25.3648 18.4558 25.0697 18.4558 24.7806C18.4558 23.1192 19.2467 21.9337 19.8853 21.0652C19.9701 20.95 20.0496 20.8435 20.1243 20.7436C20.3501 20.4413 20.5318 20.1982 20.6811 19.9476C20.8681 19.6338 20.9262 19.4281 20.9262 19.2662C20.9262 17.1328 21.6465 15.7756 22.3599 14.6514C22.4608 14.4924 22.5584 14.3418 22.6521 14.1972C23.227 13.3096 23.6538 12.6507 23.793 11.6904C23.7929 11.6907 23.7929 11.6909 23.7929 11.6909C23.7928 11.6909 23.7957 11.6642 23.7891 11.603C23.7821 11.5385 23.7664 11.4516 23.7372 11.3403C23.6784 11.1155 23.5766 10.8346 23.4313 10.5033C23.141 9.84123 22.7142 9.06071 22.2358 8.26151C21.4071 6.87703 20.4714 5.51426 19.9296 4.72519C19.8467 4.60446 19.773 4.49716 19.7104 4.40527C19.656 4.32558 19.4372 4.13701 18.8944 3.92317C18.3915 3.72503 17.7524 3.55921 17.0604 3.42504C15.6805 3.1575 14.2252 3.04096 13.5326 3.0022C13.1406 2.98027 12.6879 3.11799 11.8859 3.63396C11.3637 3.96993 10.7858 4.4014 10.0552 4.94685ZM10.8038 1.95197C11.7099 1.36905 12.6082 0.947348 13.6444 1.00533C14.38 1.04649 15.9356 1.16972 17.4411 1.4616C18.1917 1.60715 18.964 1.80097 19.6275 2.06236C20.2511 2.30804 20.9539 2.67891 21.3628 3.27853C21.4221 3.36545 21.493 3.46878 21.5738 3.58645C22.1123 4.37042 23.0878 5.79063 23.9519 7.23434C24.4482 8.06348 24.9237 8.92629 25.263 9.70021C25.4326 10.087 25.5774 10.4723 25.6721 10.834C25.7626 11.1801 25.8292 11.5844 25.7723 11.9772C25.5655 13.4044 24.8787 14.4524 24.3036 15.3299C24.2152 15.4648 24.1295 15.5956 24.0486 15.7231C23.4339 16.6916 22.9262 17.669 22.9262 19.2662C22.9262 19.9377 22.6755 20.5078 22.3993 20.9713C22.191 21.3208 21.9226 21.6794 21.6829 21.9997C21.6181 22.0863 21.5555 22.17 21.4966 22.25C20.9095 23.0486 20.4699 23.7763 20.4561 24.7341C20.461 24.7526 20.4736 24.7996 20.5033 24.8825C20.5563 25.0304 20.6388 25.2254 20.7486 25.4617C20.9674 25.9324 21.2648 26.5032 21.5718 27.0743C21.7538 27.4129 21.9273 27.7297 22.0886 28.0244C22.2059 28.2386 22.3167 28.4411 22.4198 28.6318C22.5361 28.8468 22.6397 29.0419 22.7156 29.1946C22.7528 29.2695 22.7904 29.3483 22.8209 29.421C22.8342 29.4528 22.8511 29.4952 22.8669 29.5429C22.8692 29.5462 22.8717 29.5498 22.8742 29.5535C22.935 29.6415 23.0346 29.7735 23.17 29.9399C23.4388 30.2704 23.8166 30.6971 24.2357 31.1168C24.6583 31.5401 25.1002 31.9332 25.498 32.2131C25.6966 32.3529 25.8651 32.4507 25.9992 32.5107C26.1217 32.5655 26.1766 32.5711 26.1765 32.5716C26.1765 32.5717 26.1751 32.5716 26.1722 32.5716C27.1826 32.5716 29.3563 32.2429 30.3619 32.0671L31.1019 31.9378L31.4322 32.6124C32.0065 33.7853 32.6997 36.7027 31.1394 39.5293C30.1716 41.2826 28.2596 42.8801 26.5977 44.005C25.7492 44.5793 24.9259 45.0571 24.2542 45.3955C23.9195 45.5641 23.6105 45.7041 23.3472 45.8046C23.1332 45.8863 22.8078 46 22.5052 46C21.9554 46 20.6722 45.7598 19.3845 45.277C18.1085 44.7985 16.5526 43.9827 15.7153 42.6569C15.0897 41.6665 14.7637 40.48 14.5962 39.4527C14.4389 38.4877 14.4101 37.5904 14.4366 36.9929C14.4359 36.9891 14.4352 36.9853 14.4345 36.9815C14.1782 35.5815 13.874 33.9196 13.3472 32.4018C12.7966 30.8153 12.0642 29.5757 11.0767 28.9368C10.689 28.686 10.3538 28.3819 10.1504 27.981C9.93489 27.5563 9.92978 27.1477 9.97749 26.8214C10.0084 26.6099 10.0772 26.3642 10.1235 26.1986C10.1358 26.1547 10.1465 26.1164 10.1545 26.086C10.1868 25.963 10.2101 25.8559 10.2228 25.7533C10.1731 25.6584 10.102 25.5306 10.0111 25.3752C9.80093 25.0157 9.50628 24.5447 9.17993 24.062C8.85241 23.5777 8.50322 23.0969 8.18381 22.7111C8.02401 22.5181 7.8803 22.3594 7.75767 22.2398C7.69681 22.1805 7.64615 22.1356 7.60584 22.1033C7.586 22.0874 7.57041 22.0759 7.559 22.068C7.54831 22.0607 7.54306 22.0577 7.54306 22.0577L7.54317 22.0577C6.39815 21.4195 5.31834 20.1508 4.52303 18.6711C3.71653 17.1706 3.13784 15.3354 3.09311 13.4559C3.00019 9.5526 4.9016 6.23969 7.44179 4.39184C7.91808 4.04537 8.36171 3.71443 8.77491 3.40619C9.55453 2.8246 10.2258 2.32382 10.8038 1.95197Z" fill="#065BAA"/>
<path fill-rule="evenodd" clip-rule="evenodd" d="M11.9411 27.5629C12.4588 27.7553 12.7225 28.3309 12.53 28.8486L11.5927 28.5002C12.53 28.8486 12.5301 28.8483 12.53 28.8486L12.5291 28.8511L12.5275 28.8555L12.5222 28.8694L12.5037 28.9176C12.4878 28.9583 12.465 29.016 12.4355 29.0883C12.3766 29.2326 12.2906 29.4355 12.1801 29.6766C11.9604 30.1557 11.6371 30.8003 11.2285 31.4395C10.8259 32.0692 10.3073 32.7467 9.68196 33.2468C9.05438 33.7487 8.21381 34.1507 7.23637 33.9833C6.41004 33.8417 5.89785 33.337 5.59819 33.0417C5.58336 33.0271 5.56905 33.013 5.55525 32.9995C5.22665 32.6776 5.12313 32.6118 4.96604 32.5905C3.96485 32.4544 3.20708 32.9258 2.4146 34.0697C2.14172 34.4636 2.00993 35.2142 2.00056 36.053C1.99623 36.4398 2.01783 36.7925 2.04076 37.049C2.04634 37.1114 2.05196 37.1677 2.05724 37.217L3.98829 39.9269C4.04264 40.0032 4.08601 40.0867 4.11712 40.1751L3.1739 40.5072C4.11712 40.1751 4.1171 40.175 4.11712 40.1751L4.12139 40.1872L4.13305 40.2206L4.17706 40.3473C4.21509 40.4574 4.26987 40.6171 4.33739 40.817C4.47238 41.2168 4.65861 41.7785 4.86399 42.4274C5.27264 43.7186 5.76531 45.3808 6.07744 46.804C6.33052 47.9579 6.77174 51.1585 7.21276 54.424C7.27371 54.8752 7.33475 55.3286 7.39546 55.7794C7.7796 58.6322 8.14981 61.3815 8.39166 62.8362C8.48224 63.381 8.11401 63.8961 7.5692 63.9867C7.02439 64.0772 6.50932 63.709 6.41874 63.1642C6.17131 61.6759 5.79594 58.888 5.41288 56.0429C5.35221 55.5923 5.29134 55.1402 5.23076 54.6917C4.78207 51.3695 4.35436 48.2834 4.12387 47.2324C3.83152 45.8994 3.36081 44.3061 2.95721 43.0309C2.75646 42.3966 2.57434 41.8473 2.44251 41.4569C2.37662 41.2618 2.32337 41.1066 2.28673 41.0005L2.27649 40.971L0.281638 38.1716C0.190582 38.0438 0.130873 37.8964 0.107338 37.7412L1.09603 37.5913C0.107338 37.7412 0.107371 37.7415 0.107338 37.7412L0.107031 37.7392L0.106574 37.7361L0.105233 37.727L0.100984 37.697C0.0975095 37.6719 0.0928178 37.6368 0.0873511 37.5926C0.0764282 37.5044 0.0623497 37.3798 0.0487022 37.2271C0.0215343 36.9232 -0.0045777 36.5012 0.00067991 36.0306C0.0104672 35.1546 0.126962 33.8597 0.770612 32.9307C1.75282 31.513 3.14856 30.3252 5.23527 30.6087C6.09386 30.7253 6.61813 31.2401 6.92596 31.5424C6.93578 31.5521 6.94537 31.5615 6.95475 31.5707C7.2942 31.9032 7.40372 31.9828 7.57403 32.012C7.77927 32.0471 8.05347 31.9882 8.4328 31.6849C8.8144 31.3797 9.19483 30.9074 9.54342 30.3622C9.88597 29.8264 10.166 29.2706 10.362 28.8432C10.4592 28.631 10.5341 28.4541 10.5841 28.3319C10.609 28.2708 10.6276 28.2236 10.6396 28.1928L10.6526 28.1591L10.6553 28.152C10.8478 27.6346 11.4235 27.3705 11.9411 27.5629Z" fill="#065BAA"/>
<path fill-rule="evenodd" clip-rule="evenodd" d="M15.4857 37.4189C15.9752 37.2095 16.2172 36.6494 16.0273 36.1465C15.8322 35.6298 15.2552 35.3692 14.7385 35.5643C14.4926 35.6571 14.2832 35.8121 14.128 35.9442C13.9598 36.0873 13.79 36.2603 13.6233 36.4499C13.2891 36.83 12.9261 37.3242 12.5653 37.8963C12.2331 38.4231 11.7037 39.4211 11.2725 40.2638C11.0531 40.6924 10.8522 41.0948 10.705 41.3972C10.6318 41.5476 10.5697 41.6779 10.5247 41.7761C10.5028 41.824 10.4812 41.8723 10.4636 41.9147C10.4553 41.9346 10.443 41.9649 10.4312 41.9988C10.4255 42.0151 10.4155 42.0446 10.4058 42.0812L10.4053 42.0831C10.4001 42.1022 10.3711 42.2088 10.3711 42.3442C10.3711 42.696 10.5491 42.9259 10.6175 43.0053C10.6971 43.0977 10.7762 43.1555 10.8101 43.1793C10.8789 43.2279 10.9454 43.2622 10.9668 43.2733L10.9686 43.2742C11.0204 43.301 11.0352 43.308 11.0471 43.3136C11.0591 43.3193 11.0681 43.3236 11.1092 43.3454C11.1874 43.3869 11.2645 43.4356 11.3342 43.5019C11.4331 43.5962 11.6153 43.8108 11.5974 44.3603C11.5772 44.4117 11.5435 44.4869 11.4943 44.586C11.3932 44.7897 11.2542 45.0394 11.1077 45.2907C10.9628 45.5392 10.8178 45.7769 10.7083 45.9533C10.6538 46.0412 10.6085 46.1133 10.5771 46.163L10.541 46.22L10.5318 46.2344L10.5296 46.2378C10.4093 46.4255 10.3547 46.6489 10.3754 46.8709L11.8866 63.0925C11.9378 63.6424 12.4251 64.0467 12.975 63.9955C13.5249 63.9442 13.9292 63.4569 13.878 62.907L12.3983 47.0231C12.4015 47.018 12.4047 47.0128 12.408 47.0075C12.5233 46.8215 12.6785 46.5673 12.8355 46.2981C12.9909 46.0316 13.1555 45.7376 13.2857 45.4752C13.3504 45.3448 13.4137 45.2082 13.4641 45.0784C13.504 44.9755 13.5761 44.7787 13.5898 44.5627C13.6649 43.3717 13.249 42.5638 12.7137 42.0539C12.69 42.0313 12.6664 42.0096 12.6428 41.9886C12.7618 41.7484 12.9025 41.4688 13.0529 41.1748C13.4895 40.3217 13.9801 39.4023 14.2571 38.963C14.5764 38.4567 14.8773 38.0525 15.1252 37.7705C15.2495 37.6292 15.3503 37.5302 15.424 37.4675C15.4551 37.4411 15.4755 37.4261 15.4857 37.4189Z" fill="#065BAA"/>
<path fill-rule="evenodd" clip-rule="evenodd" d="M44.6827 36.4931C44.4007 35.5384 43.4628 34.9894 42.5271 35.1215C41.4931 35.2675 40.0355 35.4839 39.5469 35.6092C39.0813 35.7286 38.762 36.0303 38.5604 36.3102C38.3591 36.5896 38.2305 36.9054 38.1488 37.1908C37.9932 37.7343 37.9442 38.3997 38.0766 38.9092C38.1689 39.2641 38.4028 39.4899 38.5272 39.5965C38.6734 39.7218 38.8381 39.8233 38.9863 39.9037C39.2858 40.0664 39.652 40.2147 40.0103 40.3429C40.7325 40.6013 41.5624 40.8269 42.1102 40.9576C42.6796 41.0993 43.1666 40.8629 43.4494 40.6726C43.7554 40.4668 44.0162 40.189 44.2194 39.9254C44.4273 39.6558 44.6094 39.3562 44.7436 39.0678C44.8634 38.8102 45 38.4468 45 38.0799C45 37.8204 44.9449 37.5249 44.8916 37.2855C44.8337 37.0259 44.7579 36.7478 44.6827 36.4931ZM42.7782 37.1059C42.8408 37.3206 42.8979 37.5343 42.9395 37.7206C42.9617 37.8203 42.9778 37.9051 42.9881 37.9732C42.993 38.0055 42.9961 38.0312 42.9979 38.0506C42.9976 38.052 42.9972 38.0533 42.9967 38.0548C42.9859 38.0921 42.9649 38.1495 42.9303 38.224C42.8604 38.3743 42.7562 38.5477 42.6355 38.7042C42.5421 38.8254 42.4572 38.9125 42.3922 38.9677C41.8997 38.8447 41.2435 38.66 40.684 38.4598C40.3996 38.3581 40.1669 38.2617 40.0015 38.178C40.0017 38.1733 40.0019 38.1686 40.0021 38.1639C40.0091 38.0266 40.0328 37.8767 40.0715 37.7414C40.1008 37.6393 40.1325 37.5665 40.1578 37.5203C40.6199 37.4226 41.7823 37.2467 42.7782 37.1059ZM40.1909 37.4692C40.1909 37.4692 40.1906 37.4695 40.1902 37.4701L40.1909 37.4692ZM42.3036 39.0307C42.3035 39.0309 42.3068 39.0295 42.3136 39.0255C42.3071 39.0284 42.3037 39.0304 42.3036 39.0307ZM43.0035 38.0282C43.0035 38.0282 43.0034 38.0288 43.0032 38.0299L43.0035 38.0282Z" fill="#40B4E5"/>
<path fill-rule="evenodd" clip-rule="evenodd" d="M19.4111 36.4931C19.6931 35.5384 20.631 34.9894 21.5666 35.1215C22.6006 35.2675 24.0583 35.4839 24.5469 35.6092C25.0125 35.7286 25.3317 36.0303 25.5333 36.3102C25.7347 36.5896 25.8632 36.9054 25.9449 37.1908C26.1006 37.7343 26.1496 38.3997 26.0171 38.9092C25.9249 39.2641 25.691 39.4899 25.5666 39.5965C25.4203 39.7218 25.2557 39.8233 25.1075 39.9037C24.808 40.0664 24.4418 40.2147 24.0834 40.3429C23.3613 40.6013 22.5313 40.8269 21.9836 40.9576C21.4142 41.0993 20.9271 40.8629 20.6443 40.6726C20.3383 40.4668 20.0775 40.189 19.8743 39.9254C19.6665 39.6558 19.4844 39.3562 19.3502 39.0678C19.2303 38.8102 19.0938 38.4468 19.0938 38.0799C19.0938 37.8204 19.1488 37.5249 19.2022 37.2855C19.2601 37.0259 19.3358 36.7478 19.4111 36.4931ZM21.3156 37.1059C21.2529 37.3206 21.1958 37.5343 21.1543 37.7206C21.1321 37.8203 21.1159 37.9051 21.1056 37.9732C21.1008 38.0055 21.0977 38.0312 21.0958 38.0506C21.0962 38.052 21.0966 38.0533 21.097 38.0548C21.1079 38.0921 21.1288 38.1495 21.1635 38.224C21.2334 38.3743 21.3376 38.5477 21.4582 38.7042C21.5517 38.8254 21.6365 38.9125 21.7015 38.9677C22.194 38.8447 22.8502 38.66 23.4097 38.4598C23.6942 38.3581 23.9268 38.2617 24.0923 38.178C24.0921 38.1733 24.0919 38.1686 24.0916 38.1639C24.0847 38.0266 24.061 37.8767 24.0222 37.7414C23.993 37.6393 23.9612 37.5665 23.936 37.5203C23.4738 37.4226 22.3114 37.2467 21.3156 37.1059ZM23.9029 37.4692C23.9029 37.4692 23.9031 37.4695 23.9036 37.4701L23.9029 37.4692ZM21.7901 39.0307C21.7902 39.0309 21.7869 39.0295 21.7801 39.0255C21.7867 39.0284 21.7901 39.0304 21.7901 39.0307ZM21.0903 38.0282C21.0903 38.0282 21.0904 38.0288 21.0906 38.0299L21.0903 38.0282Z" fill="#40B4E5"/>
</svg>
