<svg width="80" height="78" viewBox="0 0 80 78" fill="none" xmlns="http://www.w3.org/2000/svg">
<path d="M39.22 41.354C38.8031 41.354 38.381 41.2974 37.964 41.1893C35.3541 40.5046 33.7944 37.8227 34.479 35.2128C34.8136 33.9516 35.6167 32.8912 36.744 32.2323C37.8713 31.5734 39.1891 31.3933 40.4555 31.7279C41.7167 32.0625 42.7771 32.8655 43.436 33.9928C44.0949 35.1202 44.275 36.438 43.9404 37.7043C43.6059 38.9706 42.8028 40.0259 41.6755 40.6848C40.9188 41.1275 40.0745 41.354 39.22 41.354ZM39.2046 34.1421C38.7979 34.1421 38.4016 34.2502 38.0412 34.4561C37.5059 34.7701 37.1249 35.2695 36.9653 35.8666C36.641 37.102 37.3823 38.3735 38.6178 38.6978C39.2149 38.8574 39.8429 38.7699 40.3783 38.461C40.9136 38.147 41.2945 37.6477 41.4541 37.0505C41.6137 36.4534 41.5262 35.8254 41.2173 35.29C40.9033 34.7547 40.404 34.3738 39.8069 34.2142C39.6113 34.1627 39.4105 34.137 39.2149 34.137L39.2046 34.1421Z" fill="#40B4E5"/>
<path d="M24.7189 47.1398C24.4512 47.1398 24.1835 47.1038 23.921 47.0369C23.1179 46.8258 22.4487 46.3162 22.0318 45.6007C21.6148 44.8851 21.5016 44.0461 21.7126 43.243C22.1502 41.5855 23.8489 40.592 25.5065 41.0295C26.3095 41.2406 26.9787 41.7502 27.4008 42.4657C27.8178 43.1813 27.931 44.0203 27.72 44.8234C27.5089 45.6264 26.9993 46.3007 26.2786 46.7177C25.7999 46.9957 25.2645 47.1398 24.7189 47.1398ZM24.1989 43.9019C24.1475 44.0873 24.2144 44.2365 24.2556 44.3035C24.2968 44.3755 24.3946 44.4991 24.5799 44.5505C24.7652 44.5969 24.9145 44.5402 24.9814 44.4939C25.0535 44.4527 25.177 44.3549 25.2285 44.1696C25.2748 43.9843 25.213 43.8402 25.1719 43.7681C25.1307 43.696 25.0329 43.5725 24.8476 43.521C24.5644 43.4438 24.271 43.6188 24.1989 43.8968V43.9019Z" fill="#40B4E5"/>
<path d="M58.2923 51.84C58.0195 51.84 57.7466 51.7525 57.5098 51.5775C56.9436 51.1451 56.8355 50.3369 57.2679 49.7758C60.3565 45.7349 63.023 42.461 65.4167 39.779C65.9005 39.2385 66.3999 38.6826 66.9043 38.1266C69.1539 35.6352 72.8087 31.5788 73.3492 30.0654C71.4189 29.5763 65.3446 34.827 60.7838 40.2989C60.3308 40.8446 59.5174 40.9167 58.9718 40.4637C58.4261 40.0107 58.3541 39.1973 58.8071 38.6517C61.5919 35.3109 71.0019 24.6861 75.2848 28.2328C75.6966 28.5725 75.9437 29.0616 75.9797 29.6175C76.1187 31.5325 73.7919 34.3431 68.8141 39.8562C68.3148 40.4122 67.8155 40.963 67.3367 41.5035C64.9843 44.134 62.3589 47.3564 59.3115 51.3459C59.0593 51.6753 58.6732 51.8503 58.2871 51.8503L58.2923 51.84Z" fill="white"/>
<path d="M17.9448 76.0134C17.4043 76.0134 16.8998 75.6685 16.7248 75.128C16.5034 74.4536 16.8689 73.7278 17.5433 73.5065C17.5433 73.5065 19.834 72.724 26.84 69.1824C27.4731 68.8581 28.2504 69.1155 28.5696 69.7487C28.8887 70.3818 28.6365 71.1591 28.0033 71.4783C20.7503 75.1486 18.4492 75.9207 18.3566 75.9516C18.2227 75.9979 18.0889 76.0185 17.9551 76.0185L17.9448 76.0134Z" fill="white"/>
<path d="M56.2024 45.1324C55.9244 45.1324 55.6413 45.0398 55.4045 44.8544C54.8485 44.4117 54.7507 43.6036 55.1934 43.0476C55.317 42.8932 67.5015 27.4759 71.7072 22.2819C72.4999 21.3038 73.2823 20.3824 73.9773 19.5691C75.5782 17.6902 77.5703 15.3531 77.4211 14.581C77.4056 14.4935 77.2358 14.3545 76.9887 14.2258C75.6297 13.5154 72.5514 15.8113 70.899 17.5872C70.4151 18.1071 69.6017 18.138 69.0818 17.6541C68.5619 17.1703 68.531 16.3569 69.0149 15.837C69.5709 15.2399 74.5384 10.0459 78.1829 11.9454C79.1816 12.4653 79.7736 13.186 79.9486 14.0919C80.3347 16.0789 78.5844 18.1329 75.9385 21.2369C75.223 22.076 74.4817 22.9459 73.7096 23.8983C69.5091 29.082 57.3348 44.489 57.2164 44.6434C56.9642 44.9625 56.5833 45.1324 56.2075 45.1324H56.2024Z" fill="white"/>
<path d="M52.8251 40.3812C52.5059 40.3812 52.1919 40.268 51.9448 40.0312C51.4249 39.5422 51.4043 38.7288 51.8882 38.2141C51.9654 38.1317 59.8465 29.7358 62.9969 24.8919C64.4022 22.7247 67.4239 18.133 73.807 8.55316L74.0078 8.24945C74.224 7.92 74.4762 7.60084 74.7182 7.28683C76.0102 5.62413 75.8506 5.49029 75.4955 5.19173C74.6049 4.44017 72.5664 4.77477 71.9178 4.94979C71.2332 5.1351 70.5228 4.73873 70.3375 4.05409C70.147 3.36945 70.5485 2.66422 71.228 2.47376C71.6141 2.36566 75.0733 1.46481 77.1582 3.23047C79.557 5.25865 77.6575 7.69865 76.7463 8.87232C76.525 9.16059 76.3088 9.43341 76.1441 9.6805L75.9433 9.98421C69.5653 19.5537 66.5539 24.1403 65.1486 26.2972C61.8747 31.3368 54.0863 39.6297 53.7568 39.9797C53.5046 40.2474 53.1597 40.3864 52.8199 40.3864L52.8251 40.3812Z" fill="white"/>
<path d="M41.4027 74.7004C39.0142 74.7004 36.6411 74.1651 34.4276 73.0944C30.5566 71.2309 27.643 67.9673 26.2274 63.9109C24.8118 59.8545 25.0588 55.4893 26.9223 51.6183C30.7779 43.6291 40.4092 40.2625 48.3984 44.113C56.3876 47.9634 59.7542 57.5999 55.9037 65.589C54.0402 69.4601 50.7766 72.3737 46.7203 73.7893C44.9855 74.3967 43.1889 74.6953 41.4027 74.6953V74.7004ZM41.4336 45.091C36.4043 45.091 31.5655 47.9068 29.2388 52.7353C27.6739 55.9886 27.4628 59.6538 28.6571 63.0615C29.8513 66.4693 32.2965 69.2079 35.5447 70.7779C38.798 72.3428 42.4631 72.5538 45.8709 71.3647C49.2786 70.1756 52.0172 67.7305 53.5873 64.4771C56.8251 57.7646 53.9939 49.6724 47.2865 46.4346C45.4024 45.5234 43.4052 45.0962 41.4387 45.0962L41.4336 45.091Z" fill="white"/>
<path d="M71.9334 77.5061C71.326 77.5061 70.7083 77.3722 70.1214 77.0891L59.265 71.8539C57.1853 70.8553 56.3102 68.3484 57.314 66.2687C58.3178 64.1942 60.8247 63.3191 62.8993 64.3177L73.7557 69.5529C74.7646 70.0368 75.5214 70.8862 75.8868 71.9415C76.2214 72.8938 76.2009 73.913 75.8354 74.8447V74.8705L75.7067 75.1382C74.986 76.631 73.488 77.5009 71.9334 77.5009V77.5061ZM61.0873 66.4798C60.4901 66.4798 59.9136 66.8144 59.6356 67.3909C59.2496 68.1888 59.5893 69.1514 60.3872 69.5375L71.2436 74.7727C71.6297 74.958 72.0673 74.9837 72.4739 74.8447C72.8652 74.7058 73.1843 74.4329 73.3748 74.0623L73.3954 74.0211C73.5807 73.635 73.6064 73.1975 73.4674 72.7908C73.3233 72.3842 73.035 72.0598 72.649 71.8745L61.7925 66.6394C61.5712 66.5312 61.3292 66.4798 61.0976 66.4798H61.0873Z" fill="white"/>
<path d="M55.4274 63.9394L54.3096 66.2578L58.1396 68.1044L59.2574 65.786L55.4274 63.9394Z" fill="white"/>
<path d="M41.6754 66.0936C41.0371 66.0936 40.3988 65.9083 39.8377 65.5479C37.7169 65.6612 35.6784 64.7398 34.4018 63.0513C33.3774 61.6923 32.9398 60.0193 33.1766 58.3361C33.3825 56.8793 34.062 55.5666 35.1224 54.5731C34.829 53.0545 35.4107 51.4485 36.6925 50.4807C38.3294 49.2453 40.5944 49.41 42.0358 50.7741C43.8272 49.9608 46.0149 50.4601 47.2504 52.0971C48.1049 53.2244 48.3211 54.6812 47.9195 55.9733C48.3108 56.2204 48.6557 56.5395 48.9439 56.9204C50.2463 58.6449 49.9014 61.1106 48.1769 62.413C47.2401 63.1234 46.0509 63.3499 44.9493 63.1028C44.8567 64.0139 44.3985 64.8633 43.647 65.4295C43.055 65.8774 42.3601 66.0936 41.6651 66.0936H41.6754ZM40.2238 62.9278C40.5532 62.9278 40.8724 63.0513 41.1143 63.283C41.3511 63.5095 41.7681 63.633 42.113 63.3756C42.427 63.1388 42.4527 62.7682 42.3755 62.5211C42.2623 62.1402 42.3292 61.7284 42.5608 61.4041C42.7101 61.193 42.8337 60.9768 42.9366 60.7555C43.1013 60.3848 43.4359 60.112 43.8323 60.0245C44.2287 59.937 44.6456 60.0399 44.9545 60.3076C45.4281 60.7194 46.1385 60.74 46.6429 60.3642C47.2349 59.9164 47.3533 59.0722 46.9055 58.475C46.6841 58.1816 46.3495 57.9963 45.9686 57.9551C45.4899 57.9036 45.0832 57.5948 44.903 57.1469C44.728 56.6991 44.8155 56.1895 45.1295 55.8291C45.6649 55.2166 45.6958 54.3003 45.2067 53.6517C44.6302 52.8898 43.544 52.7405 42.7873 53.3119C42.777 53.3222 42.7564 53.3428 42.741 53.3634L42.6483 53.4561C42.3549 53.7392 41.9431 53.8627 41.5416 53.7907C41.1401 53.7186 40.7952 53.4664 40.6099 53.1009C40.5584 52.9928 40.5069 52.9104 40.4554 52.8435C39.9355 52.1537 38.9472 52.0199 38.2574 52.5398C37.6602 52.9928 37.4646 53.8061 37.7941 54.4804C38.0721 55.057 37.8919 55.7468 37.3617 56.1071C37.2999 56.1483 37.2381 56.1843 37.1764 56.2204C36.3888 56.8278 35.8791 57.708 35.7402 58.6964C35.6012 59.7002 35.8586 60.6988 36.4711 61.507C37.2948 62.5983 38.6692 63.1543 40.0488 62.9535C40.1105 62.9432 40.1723 62.9381 40.2341 62.9381L40.2238 62.9278Z" fill="#40B4E5"/>
<path d="M47.3845 34.1575C47.0241 34.1575 46.6638 34.0031 46.4064 33.7097C45.9431 33.1692 46.0049 32.3559 46.5454 31.8977C46.5969 31.8514 51.7703 27.4141 53.9477 25.1131C55.6774 23.2908 58.5292 19.0543 61.8288 14.1485C62.673 12.8976 63.5481 11.5953 64.449 10.2723C66.3742 7.43596 67.934 5.70634 68.9635 4.56356C69.3444 4.14145 69.7614 3.67816 69.9673 3.38989C69.5194 2.96778 69.0098 2.79276 68.3664 2.83394C65.4476 3.01926 61.2574 7.33301 59.2395 9.85022C58.7968 10.4062 57.9835 10.4937 57.4327 10.051C56.8768 9.60828 56.7892 8.79495 57.2319 8.24415C58.2563 6.96238 63.6048 0.558671 68.2068 0.265254C69.5812 0.172596 70.8167 0.625591 71.7896 1.56762C73.5758 3.29209 72.2632 4.74373 70.8784 6.28288C69.8952 7.37419 68.4075 9.02145 66.5801 11.7137C65.6793 13.0366 64.8093 14.3338 63.9651 15.5847C60.4595 20.789 57.6952 24.902 55.8163 26.8839C53.5462 29.2827 48.4346 33.6685 48.2184 33.8538C47.9764 34.0597 47.6779 34.1627 47.3793 34.1627L47.3845 34.1575Z" fill="white"/>
<path d="M1.2868 59.412C0.895575 59.412 0.504352 59.2319 0.252116 58.8921C-0.169993 58.3207 -0.0567441 57.5177 0.514648 57.0956C0.571272 57.0544 1.956 56.0249 6.21827 53.518C9.20907 51.7575 11.0468 50.1874 11.7983 49.4925C11.6748 46.9289 11.7469 37.1689 18.6448 25.7051C26.3766 12.8565 33.3928 5.2997 33.6863 4.98569C33.9488 4.70257 34.3194 4.55329 34.7055 4.57903C34.9165 4.59447 36.8212 4.75405 38.0721 6.38586C39.0244 7.62645 39.2972 9.29944 38.8854 11.3637C38.4015 13.7934 36.744 16.7378 34.9938 19.8522C32.9656 23.4607 30.6646 27.5531 30.1447 31.0587C30.1138 31.2594 30.0983 31.4241 30.0932 31.5528C31.308 31.0175 33.8458 28.9224 35.596 27.4707C37.964 25.5095 40.4143 23.4864 42.3241 22.5804C44.0949 21.7414 47.6416 19.1264 54.4932 11.4409C54.9667 10.9107 55.7801 10.8643 56.3103 11.3379C56.8405 11.8115 56.8868 12.6248 56.4132 13.1551C50.6839 19.5845 46.3135 23.5379 43.4257 24.9072C41.8041 25.6742 39.4825 27.5994 37.2381 29.4577C32.8009 33.128 30.3969 35.0018 28.6158 33.9928C27.2259 33.2104 27.509 31.3057 27.6017 30.6829C28.1885 26.7089 30.6131 22.3951 32.7545 18.591C34.4018 15.662 35.9615 12.8925 36.363 10.8592C36.6204 9.56712 36.5175 8.59421 36.049 7.97134C35.7711 7.60071 35.3901 7.3948 35.0813 7.28156C33.3568 9.22738 27.2877 16.3363 20.8531 27.0332C13.4405 39.3464 14.3928 49.7653 14.4031 49.8683C14.4391 50.2389 14.3156 50.6095 14.0582 50.8824C13.9707 50.975 11.8807 53.1731 7.52063 55.7366C3.41794 58.1509 2.0641 59.1495 2.0538 59.1598C1.82216 59.3297 1.55448 59.412 1.2868 59.412Z" fill="white"/>
</svg>
