<svg width="80" height="80" viewBox="0 0 80 80" fill="none" xmlns="http://www.w3.org/2000/svg">
<path fill-rule="evenodd" clip-rule="evenodd" d="M19.3802 21.3847C21.9193 17.8048 27.5089 18.9993 28.363 23.3043L35.5432 59.4977C36.0555 62.08 34.8947 64.7064 32.6404 66.066L16.8725 75.5752C14.6873 76.8931 11.9203 76.7501 9.88254 75.2139L4.28776 70.9963C2.35034 69.5358 1.43325 67.086 1.93531 64.7123L4.31251 53.4728C6.46837 43.28 10.6902 33.637 16.7174 25.1391L19.3802 21.3847ZM25.9108 23.7908C25.4838 21.6383 22.6889 21.041 21.4194 22.831L18.7566 26.5854C12.927 34.8047 8.84357 44.1315 6.7584 53.9902L4.3812 65.2296C4.07997 66.6538 4.63022 68.1237 5.79267 69L11.3874 73.2176C12.6101 74.1393 14.2703 74.2251 15.5814 73.4344L31.3493 63.9252C32.7019 63.1094 33.3984 61.5336 33.091 59.9842L25.9108 23.7908Z" fill="white"/>
<path fill-rule="evenodd" clip-rule="evenodd" d="M23.1081 44.6579C19.5248 49.4189 17.5564 55.1648 16.8543 58.9765C16.7292 59.6554 16.0775 60.1044 15.3985 59.9793C14.7196 59.8543 14.2706 59.2025 14.3957 58.5236C15.1518 54.4185 17.246 48.2894 21.1106 43.1546C24.993 37.9962 30.7439 33.75 38.75 33.75C39.4403 33.75 40 34.3096 40 35C40 35.6904 39.4403 36.25 38.75 36.25C31.7561 36.25 26.6736 39.9205 23.1081 44.6579Z" fill="#40B4E5"/>
<path fill-rule="evenodd" clip-rule="evenodd" d="M18.2424 48.8576C18.8732 48.5772 19.612 48.8613 19.8923 49.4922L22.3923 55.1171C22.6727 55.748 22.3886 56.4867 21.7577 56.7671C21.1269 57.0475 20.3882 56.7633 20.1078 56.1325L17.6078 50.5075C17.3274 49.8766 17.6115 49.1379 18.2424 48.8576Z" fill="#40B4E5"/>
<path fill-rule="evenodd" clip-rule="evenodd" d="M17.6552 52.964C18.0893 53.5008 18.0061 54.2879 17.4693 54.722L12.683 58.5927C12.1462 59.0268 11.3591 58.9435 10.925 58.4068C10.4909 57.87 10.5742 57.0829 11.111 56.6488L15.8973 52.7781C16.4341 52.344 17.2211 52.4273 17.6552 52.964Z" fill="#40B4E5"/>
<path fill-rule="evenodd" clip-rule="evenodd" d="M23.262 42.7171C23.5361 43.3507 23.2446 44.0866 22.611 44.3607L16.9614 46.8045C16.3278 47.0786 15.592 46.7872 15.3179 46.1536C15.0438 45.5199 15.3352 44.7841 15.9689 44.51L21.6185 42.0661C22.2521 41.792 22.9879 42.0835 23.262 42.7171Z" fill="#40B4E5"/>
<path fill-rule="evenodd" clip-rule="evenodd" d="M36.25 0C36.9403 0 37.5 0.559644 37.5 1.25V6.71875C37.5 7.40911 36.9403 7.96875 36.25 7.96875C35.5596 7.96875 35 7.40911 35 6.71875V1.25C35 0.559644 35.5596 0 36.25 0ZM36.25 11.4062C36.9403 11.4062 37.5 11.9659 37.5 12.6562V19.3175C37.5 22.1376 35.6164 24.5667 32.9717 25.3946C32.1981 25.6368 31.4215 25.8915 30.7621 26.1299C30.0769 26.3777 29.5987 26.5797 29.3701 26.7103C28.7707 27.0528 28.0072 26.8446 27.6647 26.2452C27.3222 25.6458 27.5304 24.8822 28.1298 24.5397C28.5664 24.2902 29.2303 24.0254 29.912 23.7789C30.6195 23.5231 31.4344 23.2562 32.2249 23.0088C33.8734 22.4927 35 20.9962 35 19.3175V12.6562C35 11.9659 35.5596 11.4062 36.25 11.4062Z" fill="white"/>
<path fill-rule="evenodd" clip-rule="evenodd" d="M60.6198 21.3847C58.0807 17.8048 52.4911 18.9993 51.637 23.3043L44.4568 59.4977C43.9445 62.08 45.1053 64.7064 47.3596 66.066L63.1275 75.5752C65.3127 76.8931 68.0797 76.7501 70.1175 75.2139L75.7122 70.9963C77.6497 69.5358 78.5667 67.086 78.0647 64.7123L75.6875 53.4728C73.5316 43.28 69.3098 33.637 63.2826 25.1391L60.6198 21.3847ZM54.0892 23.7908C54.5162 21.6383 57.3111 21.041 58.5806 22.831L61.2434 26.5854C67.073 34.8047 71.1564 44.1315 73.2416 53.9902L75.6188 65.2296C75.92 66.6538 75.3698 68.1237 74.2073 69L68.6126 73.2176C67.3899 74.1393 65.7297 74.2251 64.4186 73.4344L48.6507 63.9252C47.2981 63.1094 46.6016 61.5336 46.909 59.9842L54.0892 23.7908Z" fill="white"/>
<path fill-rule="evenodd" clip-rule="evenodd" d="M56.8919 44.6579C60.4752 49.4189 62.4436 55.1648 63.1457 58.9765C63.2708 59.6554 63.9225 60.1044 64.6015 59.9793C65.2804 59.8543 65.7294 59.2025 65.6043 58.5236C64.8482 54.4185 62.754 48.2894 58.8894 43.1546C55.007 37.9962 49.2561 33.75 41.25 33.75C40.5597 33.75 40 34.3096 40 35C40 35.6904 40.5597 36.25 41.25 36.25C48.2439 36.25 53.3264 39.9205 56.8919 44.6579Z" fill="#40B4E5"/>
<path fill-rule="evenodd" clip-rule="evenodd" d="M61.7576 48.8576C61.1268 48.5772 60.388 48.8613 60.1077 49.4922L57.6077 55.1171C57.3273 55.748 57.6114 56.4867 58.2423 56.7671C58.8731 57.0475 59.6118 56.7633 59.8922 56.1325L62.3922 50.5075C62.6726 49.8766 62.3885 49.1379 61.7576 48.8576Z" fill="#40B4E5"/>
<path fill-rule="evenodd" clip-rule="evenodd" d="M62.3448 52.964C61.9107 53.5008 61.9939 54.2879 62.5307 54.722L67.317 58.5927C67.8538 59.0268 68.6408 58.9435 69.075 58.4068C69.5091 57.87 69.4258 57.0829 68.889 56.6488L64.1027 52.7781C63.5659 52.344 62.7789 52.4273 62.3448 52.964Z" fill="#40B4E5"/>
<path fill-rule="evenodd" clip-rule="evenodd" d="M56.7377 42.7171C56.4637 43.3507 56.7551 44.0866 57.3887 44.3607L63.0383 46.8045C63.672 47.0786 64.4078 46.7872 64.6819 46.1536C64.956 45.5199 64.6645 44.7841 64.0309 44.51L58.3813 42.0661C57.7477 41.792 57.0118 42.0835 56.7377 42.7171Z" fill="#40B4E5"/>
<path fill-rule="evenodd" clip-rule="evenodd" d="M43.75 0C43.0597 0 42.5 0.559644 42.5 1.25V19.3175C42.5 22.1376 44.3836 24.5667 47.0283 25.3946C47.8019 25.6368 48.5785 25.8915 49.2379 26.1299C49.9231 26.3777 50.4013 26.5797 50.6299 26.7103C51.2293 27.0528 51.9928 26.8446 52.3353 26.2452C52.6778 25.6458 52.4696 24.8822 51.8702 24.5397C51.4336 24.2902 50.7697 24.0254 50.088 23.7789C49.3805 23.5231 48.5656 23.2562 47.7751 23.0088C46.1266 22.4927 45 20.9962 45 19.3175V1.25C45 0.559644 44.4404 0 43.75 0Z" fill="white"/>
<path fill-rule="evenodd" clip-rule="evenodd" d="M36.25 13.75C36.25 13.0596 36.8096 12.5 37.5 12.5H43.75C44.4404 12.5 45 13.0596 45 13.75C45 14.4404 44.4404 15 43.75 15H37.5C36.8096 15 36.25 14.4404 36.25 13.75Z" fill="white"/>
<path fill-rule="evenodd" clip-rule="evenodd" d="M41.875 36.25H38.125V33.75H41.875V36.25Z" fill="#40B4E5"/>
</svg>
