<svg width="80" height="71" viewBox="0 0 80 71" fill="none" xmlns="http://www.w3.org/2000/svg">
<g id="New Version" clip-path="url(#clip0_5510_6747)">
<path id="Vector" d="M61.975 33.9877C59.55 33.9877 57.3375 33.3002 56.0625 32.9002C55.675 32.7752 55.3875 32.6752 55.2125 32.6502C54.525 32.5502 54.0625 31.9127 54.1625 31.2252C54.2625 30.5377 54.9 30.0752 55.5875 30.1752C55.9 30.2252 56.2875 30.3377 56.8125 30.5127C60.975 31.8127 65.5875 32.5127 68.3125 27.8252C69.75 25.3502 72.3125 23.2752 73.8375 22.0377C74.175 21.7627 74.4625 21.5377 74.675 21.3502C76.5125 19.7377 76.7625 17.3752 76.3875 15.7002C76.1125 14.5002 75.5 13.5752 74.85 13.3877C73.55 13.0127 72.45 13.7752 71.7625 14.4752C70.3625 15.9002 69.55 18.3002 69.9875 19.7002C70.825 22.4752 68.2375 25.9752 67.0875 27.3502C64.725 30.1627 63.3875 30.4752 58.175 29.4627C57.5 29.3252 57.05 28.6752 57.1875 28.0002C57.325 27.3252 57.975 26.8877 58.65 27.0127C63.3375 27.9252 63.6125 27.5877 65.1625 25.7502C66.9375 23.6377 67.9125 21.5002 67.5875 20.4377C66.875 18.1502 67.9 14.8377 69.9625 12.7252C71.5875 11.0752 73.6125 10.4377 75.525 10.9877C77.1 11.4377 78.325 13.0002 78.8 15.1627C79.3375 17.5252 78.95 20.8877 76.3 23.2377C76.0625 23.4377 75.75 23.7002 75.3875 24.0002C73.9875 25.1377 71.65 27.0252 70.4375 29.1127C68.175 32.9877 64.9 34.0252 61.9375 34.0252L61.975 33.9877Z" fill="#40B4E5"/>
<path id="Vector_2" d="M17.85 33.9876C14.8875 33.9876 11.6 32.9501 9.35002 29.0751C8.13752 27.0001 5.80002 25.1001 4.40002 23.9626C4.03752 23.6626 3.71252 23.4126 3.48752 23.2001C0.837523 20.8626 0.462523 17.5001 0.987523 15.1251C1.47502 12.9626 2.70002 11.4126 4.26252 10.9501C6.17502 10.4001 8.20002 11.0376 9.82502 12.6876C11.8875 14.8001 12.9125 18.1126 12.2 20.4001C11.875 21.4501 12.85 23.5876 14.625 25.7001C16.475 27.8876 17.4625 27.6876 20.425 27.1001L21.1375 26.9626C21.8125 26.8251 22.475 27.2751 22.6 27.9501C22.725 28.6251 22.2875 29.2876 21.6125 29.4126L20.9125 29.5501C17.775 30.1751 15.5125 30.6251 12.7125 27.3001C11.5625 25.9251 8.96252 22.4251 9.81252 19.6501C10.25 18.2376 9.43752 15.8376 8.03752 14.4126C7.35002 13.7126 6.25002 12.9501 4.95002 13.3251C4.30002 13.5126 3.68752 14.4376 3.42502 15.6376C3.05002 17.3001 3.30002 19.6626 5.13752 21.2876C5.35002 21.4751 5.63752 21.7126 5.97502 21.9751C7.50002 23.2126 10.0625 25.2876 11.5 27.7626C14.2375 32.4501 18.85 31.7501 23 30.4501C23.5375 30.2876 23.925 30.1626 24.2375 30.1126C24.9125 30.0126 25.5625 30.4751 25.6625 31.1626C25.7625 31.8501 25.3 32.4876 24.6125 32.5876C24.4375 32.6126 24.1375 32.7126 23.75 32.8376C22.4875 33.2376 20.2625 33.9251 17.8375 33.9251L17.85 33.9876Z" fill="#40B4E5"/>
<path id="Vector_3" d="M76.05 14.8127C75.8875 14.8127 75.725 14.7752 75.5625 14.7127C74.525 14.2752 74.35 12.4502 74.3875 10.9877C74.4 10.3127 74.9625 9.7627 75.6375 9.7627H75.6625C76.35 9.7752 76.9 10.3502 76.8875 11.0377C76.875 11.7252 76.975 12.4877 77.05 12.8002C77.3125 13.1377 77.375 13.6127 77.2 14.0377C77 14.5127 76.5375 14.8002 76.05 14.8002V14.8127Z" fill="white"/>
<path id="Vector_4" d="M73.7375 14.5748C73.2625 14.5748 72.825 14.3123 72.6 13.8623C72.175 12.9748 72.2 12.0748 72.2 11.4123C72.2 11.1873 72.2 10.8373 72.175 10.7373C71.8625 10.1248 72.1 9.38729 72.7125 9.07479C73.3249 8.76229 74.0875 9.01229 74.4 9.62479C74.7125 10.2248 74.6999 10.8498 74.6874 11.4623C74.6874 11.9623 74.6749 12.4373 74.8374 12.7998C75.1374 13.4248 74.8624 14.1748 74.2374 14.4623C74.0624 14.5498 73.8874 14.5873 73.7 14.5873L73.7375 14.5748Z" fill="white"/>
<path id="Vector_5" d="M43.2 70.7875C42.7625 70.7875 42.35 70.5625 42.1125 70.1625C41.7625 69.5625 41.975 68.8 42.575 68.45C42.975 68.225 43.9875 66.9125 44.8625 59.8C45.575 53.95 45.1375 51.55 44.8625 49.95C44.75 49.325 44.65 48.8 44.65 48.225C44.65 46.0375 46.8125 38.675 50.9875 34.35C51.4125 33.9 51.825 33.45 52.175 33.0125C53.25 31.5125 54.0875 30.2 54.75 28.925C55.85 27.0125 57.5375 24.8 61.1125 24.2625C65.1375 23.65 66.4875 18.9125 67.575 10.3875C68.3 4.6625 70.8 4.375 71.2875 4.375C71.8125 4.375 72.275 4.5875 72.6 4.975C73.2875 5.8125 73.0625 7.0375 72.7625 8.575C72.625 9.275 72.4875 10 72.4875 10.5125C72.4875 11.2 71.925 11.7625 71.2375 11.7625C70.65 11.7625 70.1625 11.3625 70.025 10.8125C68.9875 18.975 67.6 25.8 61.475 26.725C59.45 27.0375 58.1375 28.0125 56.925 30.125C56.225 31.4625 55.325 32.8625 54.15 34.5125C53.7125 35.0625 53.2625 35.55 52.775 36.075C49.125 39.85 47.125 46.65 47.125 48.225C47.125 48.575 47.2 48.9625 47.3 49.5125C47.6 51.15 48.0875 53.875 47.3375 60.1125C46.4125 67.6875 45.2625 69.8 43.825 70.6375C43.625 70.75 43.4125 70.8 43.2 70.8V70.7875Z" fill="white"/>
<path id="Vector_6" d="M35.4874 39.8749C35.4874 39.8749 35.3749 39.8749 35.3124 39.8749C29.4499 39.0624 27.2624 36.6624 25.1999 33.8249C24.7874 33.2624 24.9124 32.4874 25.4749 32.0749C26.0374 31.6624 26.8124 31.7874 27.2249 32.3499C29.0749 34.8749 30.7624 36.7249 35.6624 37.3999C36.3499 37.4999 36.8249 38.1249 36.7249 38.8124C36.6374 39.4374 36.0999 39.8874 35.4874 39.8874V39.8749Z" fill="white"/>
<path id="Vector_7" d="M58.3126 23.6248C57.9876 23.6248 57.6376 23.6123 57.2876 23.5873C55.2501 23.4373 53.7001 22.1248 52.0626 20.7498C49.5376 18.6248 46.4001 15.9748 39.9251 15.9748C33.4501 15.9748 30.3126 18.6248 27.7876 20.7498C26.1501 22.1373 24.6001 23.4373 22.5626 23.5873C17.3126 23.9748 15.8626 21.4998 15.1376 17.0873C14.1001 10.6873 12.9626 4.81233 10.5251 3.06233C9.78755 2.53733 8.93756 2.37483 7.83756 2.56233C5.01256 3.04983 4.02506 7.89983 3.37506 11.1123C3.03756 12.7498 2.77506 14.0498 2.31256 14.8248C1.96256 15.4123 1.18756 15.6123 0.600056 15.2623C0.0125563 14.9123 -0.187444 14.1373 0.162556 13.5498C0.400056 13.1373 0.675056 11.7998 0.912556 10.6248C1.71256 6.74983 2.90006 0.887333 7.41256 0.112333C9.16256 -0.187667 10.7001 0.112333 11.9751 1.03733C15.2126 3.34983 16.4001 9.23733 17.6001 16.6873C18.2001 20.3248 18.9001 21.3498 22.3751 21.0873C23.6001 20.9998 24.7376 20.0373 26.1751 18.8248C28.8626 16.5623 32.5251 13.4498 39.9251 13.4498C47.3251 13.4498 50.9876 16.5498 53.6751 18.8123C55.1126 20.0248 56.2376 20.9748 57.4751 21.0748C60.9626 21.3373 61.6501 20.3123 62.25 16.6623C63.4501 9.21233 64.6376 3.33733 67.8751 1.01233C69.15 0.0998327 70.6876 -0.225167 72.4376 0.0748327C76.9626 0.849833 78.1501 6.72483 78.9376 10.6123C79.175 11.7873 79.4376 13.1123 79.6876 13.5248C80.0376 14.1248 79.8375 14.8873 79.2375 15.2373C78.6376 15.5873 77.8751 15.3873 77.5251 14.7873C77.0751 14.0123 76.8125 12.7373 76.4875 11.0998C75.8375 7.87483 74.8501 3.01233 72.025 2.52483C70.925 2.33733 70.0751 2.49983 69.3251 3.02483C66.8751 4.77483 65.7501 10.6498 64.7126 17.0373C64.0376 21.1498 62.7376 23.5748 58.3126 23.5748V23.6248Z" fill="white"/>
<path id="Vector_8" d="M3.78749 14.8127C3.29999 14.8127 2.83749 14.5252 2.63749 14.0502C2.46249 13.6252 2.53749 13.1627 2.78749 12.8127C2.86249 12.5127 2.97499 11.7377 2.94999 11.0502C2.93749 10.3627 3.47499 9.78771 4.16249 9.77521C4.87499 9.73771 5.42499 10.3002 5.43749 10.9877C5.47499 12.4502 5.29999 14.2752 4.26249 14.7127C4.09999 14.7752 3.93749 14.8127 3.77499 14.8127H3.78749Z" fill="white"/>
<path id="Vector_9" d="M6.08755 14.575C5.91255 14.575 5.72505 14.5375 5.55005 14.45C4.92505 14.15 4.66255 13.4125 4.95005 12.7875C5.12505 12.425 5.11255 11.95 5.10005 11.45C5.10005 10.8375 5.07505 10.2125 5.38755 9.61248C5.70005 8.99998 6.46255 8.76248 7.07505 9.07498C7.67505 9.38748 7.92505 10.125 7.62505 10.7375C7.60005 10.85 7.60005 11.1875 7.60005 11.4125C7.60005 12.075 7.62505 12.975 7.20005 13.8625C6.98755 14.3125 6.53755 14.575 6.07505 14.575H6.08755Z" fill="white"/>
<path id="Vector_10" d="M36.65 70.7876C36.4375 70.7876 36.225 70.7376 36.025 70.6251C34.775 69.9001 33.4875 68.1376 32.5125 60.1001C31.75 53.8751 32.25 51.1376 32.55 49.5001C32.65 48.9626 32.725 48.5626 32.725 48.2126C32.725 46.6376 30.725 39.8251 27.0875 36.0626C26.5875 35.5376 26.15 35.0376 25.75 34.5501C24.525 32.8376 23.625 31.4376 22.9 30.0626C21.7125 27.9876 20.3875 27.0126 18.3625 26.7001C12.35 25.7876 10.9125 19.2126 9.87497 11.2501C9.68747 11.7126 9.23747 12.0251 8.71247 12.0251C8.02497 12.0251 7.46247 11.4626 7.46247 10.7751C7.46247 9.8751 7.28747 8.9126 7.12497 8.0751C6.86247 6.6751 6.67497 5.6751 7.29997 4.9251C7.61247 4.5501 8.06247 4.3501 8.56247 4.3501C9.06247 4.3501 11.55 4.6376 12.275 10.3626C13.3625 18.8876 14.7125 23.6251 18.7375 24.2376C22.3125 24.7751 24.0125 27.0001 25.0875 28.8626C25.775 30.1751 26.6125 31.4876 27.725 33.0376C28.0375 33.4251 28.4375 33.8751 28.875 34.3376C33.05 38.6626 35.2 46.0251 35.2 48.2126C35.2 48.7876 35.1 49.3251 34.9875 49.9376C34.7 51.5251 34.2625 53.9251 34.9875 59.7876C35.85 66.9126 36.875 68.2126 37.275 68.4376C37.875 68.7876 38.075 69.5501 37.7375 70.1501C37.5 70.5501 37.0875 70.7751 36.65 70.7751V70.7876Z" fill="white"/>
</g>
<defs>
<clipPath id="clip0_5510_6747">
<rect width="79.85" height="70.7875" fill="white"/>
</clipPath>
</defs>
</svg>
