<svg width="48" height="48" viewBox="0 0 48 48" fill="none" xmlns="http://www.w3.org/2000/svg">
<g clip-path="url(#clip0_4934_40327)">
<path d="M23.4525 43.6498C23.04 43.6498 22.7025 43.3123 22.7025 42.8998C22.7025 41.1223 22.7025 39.5323 22.6875 38.0998C22.6875 37.6873 23.0175 37.3498 23.43 37.3423C23.8725 37.3423 24.18 37.6723 24.1875 38.0848C24.2025 39.5173 24.2025 41.1223 24.2025 42.8998C24.2025 43.3123 23.865 43.6498 23.4525 43.6498Z" fill="#40B4E5"/>
<path d="M29.8645 24.9299C29.5495 24.9299 29.257 24.7349 29.1521 24.4199C29.017 24.0299 29.2271 23.6024 29.6245 23.4674C33.322 22.2224 40.9045 17.4299 45.5246 9.88494C46.0196 9.07494 46.5296 7.97245 46.1171 7.30495C45.0145 5.48995 38.3095 5.97745 32.392 6.40495C29.422 6.62245 26.3546 6.83995 23.6096 6.83995C20.8646 6.83995 18.0821 6.65995 15.3221 6.47995C9.78705 6.12745 3.50955 5.72245 2.41455 7.44745C2.09205 7.95745 2.24205 8.78995 2.85705 9.89995C7.22955 17.7749 14.1971 21.2099 19.7771 23.3249C20.1671 23.4749 20.3621 23.9024 20.2121 24.2924C20.0621 24.6824 19.6346 24.8774 19.2446 24.7274C13.4246 22.5224 6.14955 18.9224 1.54455 10.6274C0.644551 8.99995 0.509551 7.65745 1.14705 6.64495C2.71455 4.16995 8.31705 4.52995 15.4196 4.98745C18.1571 5.15995 20.9846 5.34745 23.6096 5.34745C26.2346 5.34745 29.3396 5.12995 32.287 4.91245C39.5471 4.38745 45.8171 3.92995 47.3996 6.52495C48.0521 7.59745 47.8571 8.94745 46.7996 10.6724C41.9771 18.5549 33.9971 23.5799 30.1045 24.8924C30.022 24.9224 29.9471 24.9299 29.8645 24.9299Z" fill="#40B4E5"/>
<path d="M25.6953 43.6498C25.2828 43.6498 24.9453 43.3123 24.9453 42.8998C24.9453 41.1223 24.9453 39.5173 24.9603 38.0848C24.9603 37.6723 25.3128 37.3648 25.7178 37.3423C26.1303 37.3423 26.4678 37.6873 26.4603 38.0998C26.4453 39.5323 26.4453 41.1223 26.4453 42.8998C26.4453 43.3123 26.1078 43.6498 25.6953 43.6498Z" fill="#40B4E5"/>
<path d="M25.9125 37.5302C27.945 37.1927 29.8125 36.0077 30.9075 33.9752C35.415 25.6352 31.29 23.7002 24.3375 23.7002C21.3225 23.7002 18.6825 24.1877 17.2275 25.5152C23.64 21.9977 32.7975 33.3002 25.9125 37.5377V37.5302Z" fill="#B4D6F1" fill-opacity="0.5"/>
<path d="M23.4154 36.6525C23.0029 36.6525 22.6729 36.3225 22.6654 35.91C22.5604 26.97 22.3279 26.4525 21.8554 26.22L21.7804 26.1825C21.4129 25.995 21.2629 25.545 21.4579 25.17C21.6454 24.8025 22.1029 24.6525 22.4704 24.8475L22.5304 24.8775C23.8279 25.53 24.0454 25.9275 24.1654 35.8875C24.1654 36.3 23.8354 36.6375 23.4229 36.645H23.4154V36.6525Z" fill="#40B4E5"/>
<path d="M25.7246 36.6599H25.7171C25.3046 36.6599 24.9746 36.3149 24.9746 35.9024C25.1021 25.6799 25.2521 25.2824 26.5796 24.8249C26.9696 24.6899 27.4196 24.8849 27.5546 25.2749C27.6896 25.6649 27.5021 26.0849 27.1121 26.2274C27.0296 26.2574 26.9846 26.2649 26.9471 26.2874C26.6171 26.7599 26.5271 31.3124 26.4671 35.9249C26.4671 36.3374 26.1296 36.6674 25.7171 36.6674L25.7246 36.6599Z" fill="#40B4E5"/>
<path d="M24.6679 38.3774C21.7504 38.3774 19.0804 36.8924 17.4904 34.3724C15.2854 30.8699 14.7154 28.0799 15.8179 26.0924C16.9729 24.0074 19.8379 22.9424 24.3454 22.9424C27.3004 22.9424 31.3954 23.2424 32.9329 25.8149C34.0804 27.7349 33.6304 30.5174 31.5754 34.3274C30.2554 36.7649 27.7804 38.2799 24.9604 38.3699C24.8629 38.3699 24.7654 38.3699 24.6754 38.3699L24.6679 38.3774ZM24.3454 24.4424C20.4829 24.4424 17.9854 25.2599 17.1304 26.8124C16.3204 28.2824 16.8679 30.5549 18.7654 33.5624C20.1229 35.7149 22.4254 36.9299 24.9154 36.8624C27.1954 36.7874 29.1979 35.5649 30.2629 33.5999C32.0254 30.3449 32.4904 27.9824 31.6504 26.5724C30.7954 25.1324 28.4029 24.4349 24.3529 24.4349L24.3454 24.4424Z" fill="#065BAA"/>
</g>
<defs>
<clipPath id="clip0_4934_40327">
<rect width="47.025" height="39.15" fill="white" transform="translate(0.75 4.5)"/>
</clipPath>
</defs>
</svg>
