<svg width="62" height="64" viewBox="0 0 62 64" fill="none" xmlns="http://www.w3.org/2000/svg">
<path fill-rule="evenodd" clip-rule="evenodd" d="M7.44531 29.323C8.27394 29.0433 9.03656 28.6197 9.70358 28.0819C11.6087 30.5644 14.6024 32.1644 17.9689 32.1644C22.1963 32.1644 25.8358 29.6415 27.4703 26.0161C32.7452 25.8538 36.9716 21.5172 36.9716 16.1911C36.9716 14.485 36.5379 12.8804 35.775 11.482C36.8259 10.4609 37.597 9.15222 37.962 7.68262C38.1146 8.10731 38.1977 8.5651 38.1977 9.04231C38.1977 9.20771 38.1877 9.37078 38.1683 9.53095C40.5453 10.5086 42.2189 12.8472 42.2189 15.5768C42.2189 17.4179 41.4575 19.0812 40.2323 20.269C40.858 21.4131 41.2136 22.726 41.2136 24.1219C41.2136 28.4796 37.7479 32.0278 33.4225 32.1605C32.0823 35.1268 29.0979 37.1909 25.6314 37.1909C22.8708 37.1909 20.416 35.8819 18.8538 33.8507C17.8199 34.6825 16.5059 35.1803 15.0756 35.1803C11.9861 35.1803 9.43903 32.8574 9.08567 29.8629C8.51979 29.7271 7.97164 29.5458 7.44531 29.323Z" fill="#B4D6F1" fill-opacity="0.5"/>
<path fill-rule="evenodd" clip-rule="evenodd" d="M29.3018 2C28.2168 2 27.2456 2.50529 26.6063 3.30588C26.3154 3.67004 25.8117 3.78505 25.3916 3.58317C24.621 3.21278 23.7592 3.00531 22.847 3.00531C21.0178 3.00531 19.3792 3.84156 18.2842 5.16622C18.0052 5.50383 17.5389 5.62054 17.1337 5.45419C16.4458 5.1718 15.6933 5.01592 14.9027 5.01592C13.6398 5.01592 12.4707 5.41383 11.5073 6.09414C10.6605 6.69211 9.97317 7.50807 9.52556 8.46195C9.29094 8.96193 8.69544 9.17704 8.19547 8.94243C7.69549 8.70781 7.48038 8.11231 7.71499 7.61234C8.31028 6.34376 9.22429 5.25787 10.3536 4.4604C11.6421 3.55056 13.2117 3.01592 14.9027 3.01592C15.708 3.01592 16.4866 3.13725 17.2209 3.36314C18.6577 1.90903 20.6472 1.00531 22.847 1.00531C23.8015 1.00531 24.7181 1.17572 25.5676 1.48835C26.543 0.567342 27.856 0 29.3018 0C31.8385 0 33.9588 1.73976 34.5836 4.08788C36.9095 4.47354 38.68 6.48638 38.7411 8.91282C41.1072 10.1777 42.7149 12.6899 42.7149 15.5769C42.7149 17.4307 42.0514 19.1308 40.9508 20.4442C41.4467 21.569 41.7219 22.8142 41.7219 24.122C41.7219 28.801 38.2011 32.6659 33.6711 33.1199C32.0878 36.1311 28.9509 38.191 25.3296 38.191C22.6196 38.191 20.1788 37.0361 18.4598 35.1932C17.4193 35.8197 16.2022 36.1804 14.9027 36.1804C11.5637 36.1804 8.78789 33.8088 8.10526 30.6578C3.40818 29.217 0 24.8057 0 19.5982C0 17.1472 0.755673 14.8709 2.04549 12.999C2.81823 11.8774 3.78281 10.9008 4.89189 10.1176C5.34304 9.79903 5.96701 9.90651 6.28558 10.3577C6.60415 10.8088 6.49668 11.4328 6.04553 11.7513C5.12983 12.398 4.33199 13.2055 3.69241 14.1337C2.6261 15.6813 2 17.5637 2 19.5982C2 24.1127 5.08637 27.8869 9.22172 28.8912C9.62839 28.99 9.93055 29.3315 9.979 29.7472C10.2711 32.2533 12.3738 34.1804 14.9027 34.1804C16.076 34.1804 17.1529 33.768 18.0033 33.0754C18.2134 32.9043 18.4841 32.8257 18.7533 32.8579C19.0224 32.89 19.267 33.03 19.431 33.2459C20.795 35.0412 22.9314 36.191 25.3296 36.191C28.3397 36.191 30.9414 34.3771 32.1126 31.7531C32.2688 31.403 32.6115 31.173 32.9947 31.1611C36.7181 31.0454 39.7219 27.9489 39.7219 24.122C39.7219 22.8957 39.4136 21.7457 38.8727 20.7443C38.6609 20.3523 38.7341 19.8675 39.0521 19.5554C40.0772 18.5493 40.7149 17.1406 40.7149 15.5769C40.7149 13.2595 39.3123 11.2799 37.3293 10.4543C36.9162 10.2822 36.6676 9.85667 36.7208 9.4123C36.7352 9.29146 36.7427 9.16806 36.7427 9.04245C36.7427 7.36283 35.4014 6.02212 33.7722 6.02123C33.7716 6.02123 33.7711 6.02123 33.7705 6.02123L33.7468 6.02132C33.2352 6.02311 32.8047 5.63845 32.7492 5.12985C32.5559 3.35978 31.0764 2 29.3018 2Z" fill="#065BAA"/>
<path fill-rule="evenodd" clip-rule="evenodd" d="M27.0122 31.7982C28.4061 31.7982 29.536 30.6683 29.536 29.2744C29.536 27.8805 28.4061 26.7505 27.0122 26.7505C25.6183 26.7505 24.4883 27.8805 24.4883 29.2744C24.4883 30.6683 25.6183 31.7982 27.0122 31.7982ZM27.0122 33.7982C29.5106 33.7982 31.536 31.7728 31.536 29.2744C31.536 26.7759 29.5106 24.7505 27.0122 24.7505C24.5137 24.7505 22.4883 26.7759 22.4883 29.2744C22.4883 31.7728 24.5137 33.7982 27.0122 33.7982Z" fill="#40B4E5"/>
<path fill-rule="evenodd" clip-rule="evenodd" d="M7.7856 21.6195C9.1795 21.6195 10.3095 20.4896 10.3095 19.0957C10.3095 17.7018 9.1795 16.5718 7.7856 16.5718C6.3917 16.5718 5.26172 17.7018 5.26172 19.0957C5.26172 20.4896 6.3917 21.6195 7.7856 21.6195ZM7.7856 23.6195C10.2841 23.6195 12.3095 21.5941 12.3095 19.0957C12.3095 16.5972 10.2841 14.5718 7.7856 14.5718C5.28713 14.5718 3.26172 16.5972 3.26172 19.0957C3.26172 21.5941 5.28713 23.6195 7.7856 23.6195Z" fill="#40B4E5"/>
<path fill-rule="evenodd" clip-rule="evenodd" d="M20.227 20.4882C21.6209 20.4882 22.7509 19.3582 22.7509 17.9643C22.7509 16.5704 21.6209 15.4404 20.227 15.4404C18.8331 15.4404 17.7031 16.5704 17.7031 17.9643C17.7031 19.3582 18.8331 20.4882 20.227 20.4882ZM20.227 22.4882C22.7255 22.4882 24.7509 20.4628 24.7509 17.9643C24.7509 15.4658 22.7255 13.4404 20.227 13.4404C17.7285 13.4404 15.7031 15.4658 15.7031 17.9643C15.7031 20.4628 17.7285 22.4882 20.227 22.4882Z" fill="#40B4E5"/>
<path fill-rule="evenodd" clip-rule="evenodd" d="M29.2739 12.5717C30.6678 12.5717 31.7978 11.4417 31.7978 10.0478C31.7978 8.6539 30.6678 7.52393 29.2739 7.52393C27.88 7.52393 26.75 8.6539 26.75 10.0478C26.75 11.4417 27.88 12.5717 29.2739 12.5717ZM29.2739 14.5717C31.7723 14.5717 33.7978 12.5463 33.7978 10.0478C33.7978 7.54934 31.7723 5.52393 29.2739 5.52393C26.7754 5.52393 24.75 7.54934 24.75 10.0478C24.75 12.5463 26.7754 14.5717 29.2739 14.5717Z" fill="#40B4E5"/>
<path fill-rule="evenodd" clip-rule="evenodd" d="M33.7973 23.8813C35.1912 23.8813 36.3212 22.7513 36.3212 21.3574C36.3212 19.9635 35.1912 18.8335 33.7973 18.8335C32.4034 18.8335 31.2734 19.9635 31.2734 21.3574C31.2734 22.7513 32.4034 23.8813 33.7973 23.8813ZM33.7973 25.8813C36.2958 25.8813 38.3212 23.8558 38.3212 21.3574C38.3212 18.8589 36.2958 16.8335 33.7973 16.8335C31.2988 16.8335 29.2734 18.8589 29.2734 21.3574C29.2734 23.8558 31.2988 25.8813 33.7973 25.8813Z" fill="#40B4E5"/>
<path fill-rule="evenodd" clip-rule="evenodd" d="M33.4141 56.4659C34.0713 56.2441 34.6762 55.9081 35.2053 55.4815C36.7164 57.4507 39.091 58.7197 41.7613 58.7197C45.1145 58.7197 48.0013 56.7186 49.2978 53.8429C53.4818 53.7142 56.8342 50.2744 56.8342 46.0498C56.8342 44.6965 56.4902 43.4237 55.885 42.3145C56.7187 41.5046 57.3303 40.4665 57.6198 39.3008C57.7409 39.6377 57.8068 40.0008 57.8068 40.3794C57.8068 40.5106 57.7989 40.64 57.7835 40.767C59.669 41.5424 60.9965 43.3975 60.9965 45.5625C60.9965 47.0229 60.3925 48.3422 59.4207 49.2843C59.917 50.1919 60.1991 51.2332 60.1991 52.3405C60.1991 55.7969 57.4501 58.6113 54.0191 58.7167C52.9561 61.0695 50.5889 62.7067 47.8392 62.7067C45.6496 62.7067 43.7024 61.6684 42.4633 60.0573C41.6432 60.7171 40.6009 61.1119 39.4665 61.1119C37.0158 61.1119 34.9955 59.2694 34.7152 56.8942C34.2664 56.7865 33.8316 56.6427 33.4141 56.4659Z" fill="#B4D6F1" fill-opacity="0.5"/>
<path fill-rule="evenodd" clip-rule="evenodd" d="M50.7537 35C49.9591 35 49.2471 35.3696 48.7771 35.9581C48.4863 36.3222 47.9825 36.4372 47.5625 36.2354C46.9786 35.9547 46.3255 35.7974 45.6337 35.7974C44.2476 35.7974 43.0052 36.4308 42.1739 37.4364C41.8949 37.774 41.4286 37.8907 41.0234 37.7244C40.5022 37.5104 39.932 37.3922 39.3323 37.3922C38.3748 37.3922 37.4889 37.6937 36.7583 38.2096C36.1159 38.6633 35.5941 39.2826 35.2544 40.0067C35.0198 40.5066 34.4242 40.7218 33.9243 40.4871C33.4243 40.2525 33.2092 39.657 33.4438 39.1571C33.9312 38.1183 34.6797 37.229 35.6047 36.5759C36.6603 35.8304 37.9467 35.3922 39.3323 35.3922C39.9485 35.3922 40.5459 35.479 41.1124 35.6413C42.2817 34.502 43.8755 33.7974 45.6337 33.7974C46.3712 33.7974 47.0813 33.9216 47.7437 34.1507C48.5435 33.4366 49.5973 33 50.7537 33C52.8172 33 54.547 34.3839 55.1072 36.269C56.9475 36.6352 58.3404 38.2271 58.4429 40.1513C60.328 41.2069 61.5997 43.2369 61.5997 45.5624C61.5997 47.0369 61.0879 48.3934 60.2334 49.457C60.6062 50.3439 60.812 51.3189 60.812 52.3404C60.812 56.1189 57.9966 59.2498 54.3502 59.6714C53.0444 62.0712 50.5167 63.7067 47.6029 63.7067C45.4525 63.7067 43.5104 62.8146 42.1168 61.3829C41.2928 61.8468 40.3428 62.1119 39.3323 62.1119C36.6247 62.1119 34.3695 60.2184 33.7653 57.6863C30.013 56.4811 27.3047 52.9321 27.3047 48.7521C27.3047 46.7649 27.9175 44.9186 28.9637 43.4002C29.5904 42.4907 30.3727 41.6985 31.2724 41.0631C31.7236 40.7446 32.3476 40.8521 32.6661 41.3032C32.9847 41.7543 32.8772 42.3783 32.4261 42.6969C31.7198 43.1957 31.1041 43.8187 30.6106 44.535C29.7879 45.729 29.3047 47.1814 29.3047 48.7521C29.3047 52.237 31.687 55.1481 34.875 55.9223C35.2816 56.0211 35.5838 56.3627 35.6322 56.7783C35.8522 58.6651 37.4345 60.1119 39.3323 60.1119C40.2134 60.1119 41.0219 59.8024 41.6611 59.2819C41.8712 59.1107 42.1419 59.0322 42.4111 59.0643C42.6803 59.0964 42.9248 59.2365 43.0888 59.4523C44.1337 60.8276 45.7686 61.7067 47.6029 61.7067C49.9049 61.7067 51.8969 60.3197 52.7943 58.309C52.9506 57.9589 53.2932 57.729 53.6764 57.7171C56.5163 57.6288 58.812 55.2661 58.812 52.3404C58.812 51.4027 58.5764 50.5243 58.1633 49.7595C57.9516 49.3674 58.0247 48.8826 58.3427 48.5705C59.1176 47.8101 59.5997 46.7453 59.5997 45.5624C59.5997 43.8094 58.539 42.3135 57.0416 41.69C56.6284 41.518 56.3799 41.0924 56.4331 40.6481C56.4436 40.5603 56.449 40.4707 56.449 40.3793C56.449 39.1589 55.4754 38.1905 54.2999 38.1896C54.2993 38.1896 54.2988 38.1896 54.2983 38.1896L54.2802 38.1897C53.7685 38.1915 53.3381 37.8068 53.2825 37.2982C53.1404 35.9959 52.0526 35 50.7537 35Z" fill="#065BAA"/>
<path fill-rule="evenodd" clip-rule="evenodd" d="M48.5 57C49.3284 57 50 56.3284 50 55.5C50 54.6716 49.3284 54 48.5 54C47.6716 54 47 54.6716 47 55.5C47 56.3284 47.6716 57 48.5 57ZM48.5 59C50.433 59 52 57.433 52 55.5C52 53.567 50.433 52 48.5 52C46.567 52 45 53.567 45 55.5C45 57.433 46.567 59 48.5 59Z" fill="#40B4E5"/>
<path fill-rule="evenodd" clip-rule="evenodd" d="M34 50C34.5523 50 35 49.5523 35 49C35 48.4477 34.5523 48 34 48C33.4477 48 33 48.4477 33 49C33 49.5523 33.4477 50 34 50ZM34 52C35.6569 52 37 50.6569 37 49C37 47.3431 35.6569 46 34 46C32.3431 46 31 47.3431 31 49C31 50.6569 32.3431 52 34 52Z" fill="#40B4E5"/>
<path fill-rule="evenodd" clip-rule="evenodd" d="M44 49C44.5523 49 45 48.5523 45 48C45 47.4477 44.5523 47 44 47C43.4477 47 43 47.4477 43 48C43 48.5523 43.4477 49 44 49ZM44 51C45.6569 51 47 49.6569 47 48C47 46.3431 45.6569 45 44 45C42.3431 45 41 46.3431 41 48C41 49.6569 42.3431 51 44 51Z" fill="#40B4E5"/>
<path fill-rule="evenodd" clip-rule="evenodd" d="M51 43C51.5523 43 52 42.5523 52 42C52 41.4477 51.5523 41 51 41C50.4477 41 50 41.4477 50 42C50 42.5523 50.4477 43 51 43ZM51 45C52.6569 45 54 43.6569 54 42C54 40.3431 52.6569 39 51 39C49.3431 39 48 40.3431 48 42C48 43.6569 49.3431 45 51 45Z" fill="#40B4E5"/>
<path fill-rule="evenodd" clip-rule="evenodd" d="M55 52C55.5523 52 56 51.5523 56 51C56 50.4477 55.5523 50 55 50C54.4477 50 54 50.4477 54 51C54 51.5523 54.4477 52 55 52ZM55 54C56.6569 54 58 52.6569 58 51C58 49.3431 56.6569 48 55 48C53.3431 48 52 49.3431 52 51C52 52.6569 53.3431 54 55 54Z" fill="#40B4E5"/>
</svg>
