<svg viewBox="0 0 60 59.81" xmlns="http://www.w3.org/2000/svg" xmlns:xlink="http://www.w3.org/1999/xlink" id="Layer_2" overflow="hidden"><defs></defs><g id="AW"><path d="M55.34 53.95C55.34 53.95 51.9 49.54 52.05 43.64 52.2 37.74 59 28.7 59 20.86 59 13.02 55.71 1 37.94 1 20.17 1 18.6 12.05 18 14.15 17.4 16.25 16.66 18.41 16.73 19.53 16.8 20.65 16.96 22.68 17.1 23.12 17.42 24.07 11.76 28.11 12.02 30.96 12.19 32.82 15.53 33.57 15.53 33.57 15.53 33.57 16.13 35.29 15.75 36.18 15.37 37.07 15.32 37.79 15.4 38.63 15.48 39.47 15.98 39.69 15.98 40.74 15.98 41.79 15.23 47.69 21.96 47.91 28.68 48.13 28.23 48.28 28.01 50.9 27.79 53.52 28.38 58.82 28.38 58.82" stroke="#FFFFFF" stroke-width="1.90476" stroke-linecap="round" stroke-linejoin="round" stroke-opacity="1" fill="none"/><g><path d="M24.99 30.13C25.5 30.13 26 30.1 26.49 30.04" stroke="#40B4E5" stroke-width="1.90476" stroke-linecap="round" stroke-miterlimit="10" stroke-opacity="1" fill="none"/><path d="M30.04 29.07C33.44 27.56 36.05 24.58 37.05 20.94" stroke="#40B4E5" stroke-width="1.90476" stroke-linecap="round" stroke-miterlimit="10" stroke-opacity="1" fill="none"/><path d="M37.4 19.13C37.46 18.64 37.49 18.14 37.49 17.63" stroke="#40B4E5" stroke-width="1.90476" stroke-linecap="round" stroke-miterlimit="10" stroke-opacity="1" fill="none"/></g><g><path d="M3.35 50.21 2.65 50.21C1.74 50.21 1 49.55 1 48.73L1 11.6C1 11.6 1 9.6 1 9.6 3.21 9.6 5 12.26 5 15.2L5 48.72C5 49.54 4.26 50.2 3.35 50.2Z" stroke="#40B4E5" stroke-width="1.90476" stroke-linecap="round" stroke-miterlimit="10" stroke-opacity="1" fill="none"/><line x1="2.05" y1="21.06" x2="5" y2="21.06" stroke="#40B4E5" stroke-width="1.90476" stroke-linecap="round" stroke-miterlimit="10" stroke-opacity="1" fill="none"/></g></g></svg>