<svg width="512" height="512" viewBox="0 0 512 512" xmlns="http://www.w3.org/2000/svg" xmlns:xlink="http://www.w3.org/1999/xlink" id="Capa_1" xml:space="preserve" overflow="hidden"><style>
.MsftOfcThm_Background1_Stroke_v2 {
 stroke:#FFFFFF; 
}
</style>
<g><line x1="236.071" y1="97.01" x2="256" y2="108.516" class="MsftOfcThm_Background1_Stroke_v2" stroke="#FFFFFF" stroke-width="10.449" stroke-linecap="round" stroke-linejoin="round" stroke-miterlimit="10" stroke-opacity="1" fill="none"/><line x1="256" y1="60.028" x2="256" y2="60.028" class="MsftOfcThm_Background1_Stroke_v2" stroke="#FFFFFF" stroke-width="10.449" stroke-linecap="round" stroke-linejoin="round" stroke-miterlimit="10" stroke-opacity="1" fill="none"/><line x1="231.756" y1="66.525" x2="231.756" y2="66.525" class="MsftOfcThm_Background1_Stroke_v2" stroke="#FFFFFF" stroke-width="10.449" stroke-linecap="round" stroke-linejoin="round" stroke-miterlimit="10" stroke-opacity="1" fill="none"/><line x1="214.008" y1="84.272" x2="214.008" y2="84.272" class="MsftOfcThm_Background1_Stroke_v2" stroke="#FFFFFF" stroke-width="10.449" stroke-linecap="round" stroke-linejoin="round" stroke-miterlimit="10" stroke-opacity="1" fill="none"/><line x1="280.244" y1="66.525" x2="280.244" y2="66.525" class="MsftOfcThm_Background1_Stroke_v2" stroke="#FFFFFF" stroke-width="10.449" stroke-linecap="round" stroke-linejoin="round" stroke-miterlimit="10" stroke-opacity="1" fill="none"/><line x1="297.992" y1="84.272" x2="297.992" y2="84.272" class="MsftOfcThm_Background1_Stroke_v2" stroke="#FFFFFF" stroke-width="10.449" stroke-linecap="round" stroke-linejoin="round" stroke-miterlimit="10" stroke-opacity="1" fill="none"/><path d="M240.85 363.11 240.85 392.44 226.25 377.84C220.33 371.92 210.74 371.92 204.82 377.84 201.86 380.8 200.38 384.68 200.38 388.56 200.38 392.43 201.86 396.31 204.82 399.27L245.29 439.73C251.2 445.65 260.8 445.65 266.71 439.73L307.18 399.27C313.1 393.35 313.1 383.76 307.18 377.84 301.26 371.92 291.67 371.92 285.75 377.84L271.15 392.44 271.15 302.46C271.15 294.09 264.37 287.31 256 287.31 251.82 287.31 248.03 289 245.29 291.75 242.54 294.49 240.85 298.28 240.85 302.46L240.85 328.11" class="MsftOfcThm_Background1_Stroke_v2" stroke="#FFFFFF" stroke-width="10.449" stroke-linecap="round" stroke-linejoin="round" stroke-miterlimit="10" stroke-opacity="1" fill="none"/><path d="M414.12 299.409 414.12 299.409C408.203 293.492 398.609 293.492 392.691 299.409L378.094 314.006 378.094 224.032C378.094 215.664 371.31 208.88 362.942 208.88L362.942 208.88C354.574 208.88 347.79 215.664 347.79 224.032L347.79 314.006 333.193 299.409C327.276 293.492 317.682 293.492 311.764 299.409L311.764 299.409C305.847 305.326 305.847 314.92 311.764 320.838L352.228 361.302C358.145 367.219 367.739 367.219 373.657 361.302L414.121 320.838C420.038 314.92 420.038 305.326 414.12 299.409Z" class="MsftOfcThm_Background1_Stroke_v2" stroke="#FFFFFF" stroke-width="10.449" stroke-linecap="round" stroke-linejoin="round" stroke-miterlimit="10" stroke-opacity="1" fill="none"/><path d="M97.88 299.409 97.88 299.409C103.797 293.492 113.391 293.492 119.309 299.409L133.906 314.006 133.906 224.032C133.906 215.664 140.69 208.88 149.058 208.88L149.058 208.88C157.426 208.88 164.21 215.664 164.21 224.032L164.21 314.006 178.807 299.409C184.724 293.492 194.318 293.492 200.236 299.409L200.236 299.409C206.153 305.326 206.153 314.92 200.236 320.838L159.772 361.302C153.855 367.219 144.261 367.219 138.343 361.302L97.88 320.838C91.962 314.92 91.962 305.326 97.88 299.409Z" class="MsftOfcThm_Background1_Stroke_v2" stroke="#FFFFFF" stroke-width="10.449" stroke-linecap="round" stroke-linejoin="round" stroke-miterlimit="10" stroke-opacity="1" fill="none"/><path d="M419.03 88.31 458.89 88.31C483.14 88.31 501.93 109.52 499.01 133.59L458.3 468.96C455.84 489.25 438.63 504.5 418.19 504.5L93.81 504.5C73.37 504.5 56.16 489.25 53.7 468.96L12.99 133.59C10.07 109.52 28.86 88.31 53.11 88.31L157.01 88.31C166.37 42.2 207.13 7.5 256 7.5 304.87 7.5 345.63 42.2 354.99 88.31L384.03 88.31" class="MsftOfcThm_Background1_Stroke_v2" stroke="#FFFFFF" stroke-width="10.449" stroke-linecap="round" stroke-linejoin="round" stroke-miterlimit="10" stroke-opacity="1" fill="none"/><path d="M166.56 474.2 418.19 474.2C423.29 474.2 427.61 470.38 428.22 465.31L468.92 129.94C469.4 126.01 467.58 123.29 466.45 122.02 465.33 120.75 462.85 118.62 458.89 118.62L376.94 118.62C368.06 118.62 360.2 124.62 358.11 133.26 346.96 179.29 305.41 213.57 256 213.57 206.59 213.57 165.04 179.29 153.89 133.26 151.8 124.62 143.94 118.62 135.06 118.62L53.11 118.62C49.15 118.62 46.67 120.75 45.55 122.02 44.42 123.29 42.6 126.01 43.08 129.94L83.78 465.31C84.39 470.38 88.71 474.2 93.81 474.2L131.56 474.2" class="MsftOfcThm_Background1_Stroke_v2" stroke="#FFFFFF" stroke-width="10.449" stroke-linecap="round" stroke-linejoin="round" stroke-miterlimit="10" stroke-opacity="1" fill="none"/><circle cx="256" cy="108.516" r="74.752" class="MsftOfcThm_Background1_Stroke_v2" stroke="#FFFFFF" stroke-width="10.449" stroke-linecap="round" stroke-linejoin="round" stroke-miterlimit="10" stroke-opacity="1" fill="none"/><line x1="225.695" y1="135.21" x2="286.305" y2="135.21" class="MsftOfcThm_Background1_Stroke_v2" stroke="#FFFFFF" stroke-width="10.449" stroke-linecap="round" stroke-linejoin="round" stroke-miterlimit="10" stroke-opacity="1" fill="none"/></g></svg>