<svg viewBox="0 0 64 64" xmlns="http://www.w3.org/2000/svg" xmlns:xlink="http://www.w3.org/1999/xlink" id="AW" xml:space="preserve" overflow="hidden"><g><line x1="55.3" y1="20.41" x2="43.6" y2="8.72" stroke="#40B4E5" stroke-width="2" stroke-miterlimit="10" fill="none"/><line x1="11.68" y1="56.33" x2="7.69" y2="52.33" stroke="#40B4E5" stroke-width="2" stroke-miterlimit="10" fill="none"/><path d="M41.28 21.18 42.83 22.73C43.85 23.75 43.85 25.42 42.83 26.44L34.94 34.33C33.92 35.35 32.25 35.35 31.23 34.33L29.68 32.78C28.66 31.76 28.66 30.09 29.68 29.07L37.57 21.18C38.6 20.15 40.26 20.15 41.28 21.18Z" stroke="#40B4E5" stroke-width="2" stroke-miterlimit="10" fill="none"/><path d="M40.47 11.2 43.79 7.88 47.11 4.56C47.54 4.13 48 3.76 48.48 3.44 48.96 3.12 49.47 2.85 50 2.64 50.53 2.43 51.07 2.27 51.62 2.16 52.17 2.05 52.73 2 53.28 2 53.84 2 54.4 2.05 54.95 2.16 55.5 2.27 56.04 2.43 56.57 2.64 57.1 2.85 57.6 3.12 58.09 3.44 58.58 3.76 59.03 4.13 59.46 4.56L59.46 4.56 59.46 4.56 59.46 4.56 59.46 4.56 59.46 4.56 59.46 4.56 59.46 4.56 59.46 4.56C59.89 4.99 60.26 5.45 60.58 5.93 60.9 6.41 61.17 6.92 61.38 7.45 61.59 7.98 61.75 8.52 61.86 9.07 61.97 9.62 62.02 10.18 62.02 10.74 62.02 11.3 61.97 11.86 61.86 12.41 61.75 12.96 61.59 13.5 61.38 14.03 61.17 14.56 60.9 15.06 60.58 15.55 60.26 16.03 59.89 16.49 59.46 16.92L56.14 20.24 52.82 23.56 49.5 26.88 46.18 30.2 42.86 33.52 39.54 36.84 36.22 40.16 34.5 41.88C33.45 42.93 32.17 43.74 30.76 44.23L22.94 46.97C20.85 47.93 18.93 49.22 17.25 50.8L5.99 61.47C5.01 62.24 3.61 62.16 2.73 61.28L2.73 61.28 2.73 61.28C1.85 60.4 1.77 59 2.54 58.02L13.22 46.78C14.79 45.1 16.09 43.18 17.05 41.09L19.79 33.27C20.28 31.86 21.09 30.59 22.14 29.53L23.86 27.81 27.18 24.49 30.5 21.17 33.82 17.85 37.14 14.53" stroke="#FFFFFF" stroke-width="2" stroke-linecap="round" stroke-miterlimit="10" fill="none"/></g></svg>