<svg viewBox="0 0 59.97 49.78" xmlns="http://www.w3.org/2000/svg" xmlns:xlink="http://www.w3.org/1999/xlink" id="Layer_2" overflow="hidden"><defs></defs><g id="AW"><path d="M33.56 18.46 30.03 23.15 26.5 18.46C26.36 18.28 26.12 18.21 25.91 18.29L20.66 20.28C19.35 20.88 18.51 22.2 18.51 23.64L18.51 48.79 41.57 48.79 41.57 23.64C41.57 22.2 40.73 20.88 39.42 20.28L34.17 18.29C33.96 18.21 33.72 18.28 33.58 18.46Z" stroke="#FFFFFF" stroke-width="2.22222" stroke-linecap="round" stroke-linejoin="miter" stroke-miterlimit="10" stroke-opacity="1" fill="none"/><path d="M23.29 48.52 23.29 26.18C23.29 25.1 22.77 24.12 21.97 23.67L19.13 22.08" stroke="#FFFFFF" stroke-width="2.22222" stroke-linecap="round" stroke-linejoin="miter" stroke-miterlimit="10" stroke-opacity="1" fill="none"/><path d="M30.05 27.57 30.05 25.58 30.05 23.56" stroke="#FFFFFF" stroke-width="2.22222" stroke-linecap="round" stroke-linejoin="miter" stroke-miterlimit="10" stroke-opacity="1" fill="none"/><path d="M30.05 48.56 30.05 47.14 30.05 31.56" stroke="#FFFFFF" stroke-width="2.22222" stroke-linecap="round" stroke-linejoin="miter" stroke-miterlimit="10" stroke-opacity="1" fill="none"/><path d="M36.76 48.52 36.76 46.5C36.76 46.5 36.76 44.48 36.76 44.48L36.76 28.46C36.76 28.46 36.76 26.44 36.76 26.44L36.76 26.19C36.76 25.11 37.28 24.13 38.08 23.68L40.92 22.09" stroke="#FFFFFF" stroke-width="2.22222" stroke-linecap="round" stroke-linejoin="miter" stroke-miterlimit="10" stroke-opacity="1" fill="none"/><path d="M36.16 8.81C36.16 13 33.41 16.4 30.02 16.4 26.63 16.4 23.88 13 23.88 8.81" stroke="#FFFFFF" stroke-width="2.22222" stroke-linecap="round" stroke-linejoin="miter" stroke-miterlimit="10" stroke-opacity="1" fill="none"/><path d="M26.52 8.58C25.33 9.61 24.28 8.82 23.79 8.3 23.6 8.1 23.49 7.81 23.51 7.5 23.72 3.87 26.59 1 30.1 1 33.61 1 36.26 3.66 36.65 7.1 36.71 7.59 36.46 8.06 36.06 8.21 34.7 8.7 31.35 9.4 27.84 6.32" stroke="#FFFFFF" stroke-width="2.22222" stroke-linecap="round" stroke-linejoin="miter" stroke-miterlimit="10" stroke-opacity="1" fill="none"/><line x1="26.59" y1="15.48" x2="26.59" y2="18.46" stroke="#FFFFFF" stroke-width="2.22222" stroke-linecap="round" stroke-linejoin="miter" stroke-miterlimit="10" stroke-opacity="1" fill="none"/><line x1="33.46" y1="15.48" x2="33.46" y2="18.46" stroke="#FFFFFF" stroke-width="2.22222" stroke-linecap="round" stroke-linejoin="miter" stroke-miterlimit="10" stroke-opacity="1" fill="none"/><path d="M45.47 44.78 58.97 44.78 58.97 28.74C58.97 27.57 58.29 26.5 57.22 26.01L52.96 24.4C52.79 24.33 52.59 24.4 52.48 24.54L49.61 28.35 46.74 24.54C46.63 24.39 46.43 24.34 46.26 24.4L44.49 25.15" stroke="#40B4E5" stroke-width="2.22222" stroke-linecap="round" stroke-linejoin="miter" stroke-miterlimit="10" stroke-opacity="1" fill="none"/><path d="M49.64 44.03 49.64 30.32 49.64 28.68" stroke="#40B4E5" stroke-width="2.22222" stroke-linecap="round" stroke-linejoin="miter" stroke-miterlimit="10" stroke-opacity="1" fill="none"/><path d="M55.08 44.57 55.08 42.93C55.08 42.93 55.08 41.29 55.08 41.29L55.08 32.65C55.08 32.65 55.08 31.01 55.08 31.01L55.08 30.81C55.08 29.93 55.5 29.14 56.15 28.77L58.45 27.48" stroke="#40B4E5" stroke-width="2.22222" stroke-linecap="round" stroke-linejoin="miter" stroke-miterlimit="10" stroke-opacity="1" fill="none"/><path d="M54.59 16.72C54.59 20.12 52.36 22.88 49.61 22.88 46.86 22.88 44.63 20.12 44.63 16.72" stroke="#40B4E5" stroke-width="2.22222" stroke-linecap="round" stroke-linejoin="miter" stroke-miterlimit="10" stroke-opacity="1" fill="none"/><path d="M52.55 16.53C53.39 17.08 54.36 16.72 54.76 16.3 54.91 16.14 55 15.9 54.99 15.65 54.82 12.71 52.49 10.38 49.65 10.38 46.81 10.38 44.65 12.54 44.34 15.33 44.29 15.73 44.49 16.11 44.82 16.23 45.92 16.63 48.64 17.2 51.48 14.69 51.48 14.69 51.71 15.98 52.55 16.53Z" stroke="#40B4E5" stroke-width="2.22222" stroke-linecap="round" stroke-linejoin="miter" stroke-miterlimit="10" stroke-opacity="1" fill="none"/><line x1="46.83" y1="22.13" x2="46.83" y2="24.54" stroke="#40B4E5" stroke-width="2.22222" stroke-linecap="round" stroke-linejoin="miter" stroke-miterlimit="10" stroke-opacity="1" fill="none"/><line x1="52.4" y1="22.13" x2="52.4" y2="24.54" stroke="#40B4E5" stroke-width="2.22222" stroke-linecap="round" stroke-linejoin="miter" stroke-miterlimit="10" stroke-opacity="1" fill="none"/><path d="M14.5 44.78 12.69 44.78C12.69 44.78 10.35 44.78 10.35 44.78L8.01 44.78C8.01 44.78 5.67 44.78 5.67 44.78L3.33 44.78C3.33 44.78 0.99 44.78 0.99 44.78L0.99 42.59C0.99 42.59 0.99 40.4 0.99 40.4L0.99 31.21C0.99 31.21 0.99 29.02 0.99 29.02L0.99 28.75C0.99 27.58 1.67 26.51 2.74 26.02L7 24.41C7.17 24.34 7.37 24.41 7.48 24.55L10.35 28.36 13.22 24.55C13.33 24.4 13.53 24.35 13.7 24.41L15.47 25.16" stroke="#40B4E5" stroke-width="2.22222" stroke-linecap="round" stroke-linejoin="miter" stroke-miterlimit="10" stroke-opacity="1" fill="none"/><path d="M10.33 44.03 10.33 30.32 10.33 28.68" stroke="#40B4E5" stroke-width="2.22222" stroke-linecap="round" stroke-linejoin="miter" stroke-miterlimit="10" stroke-opacity="1" fill="none"/><path d="M4.89 31.01 4.89 30.81C4.89 29.93 4.47 29.14 3.82 28.77L1.52 27.48" stroke="#40B4E5" stroke-width="2.22222" stroke-linecap="round" stroke-linejoin="miter" stroke-miterlimit="10" stroke-opacity="1" fill="none"/><path d="M4.89 44.57 4.89 42.93 4.89 35.13" stroke="#40B4E5" stroke-width="2.22222" stroke-linecap="round" stroke-linejoin="miter" stroke-miterlimit="10" stroke-opacity="1" fill="none"/><path d="M5.37 16.72C5.37 20.12 7.6 22.88 10.35 22.88 13.1 22.88 15.33 20.12 15.33 16.72" stroke="#40B4E5" stroke-width="2.22222" stroke-linecap="round" stroke-linejoin="miter" stroke-miterlimit="10" stroke-opacity="1" fill="none"/><path d="M7.41 16.53C6.57 17.08 5.6 16.72 5.2 16.3 5.05 16.14 4.96 15.9 4.97 15.65 5.14 12.71 7.47 10.38 10.31 10.38 13.15 10.38 15.31 12.54 15.62 15.33 15.67 15.73 15.47 16.11 15.14 16.23 14.04 16.63 11.32 17.2 8.48 14.69 8.48 14.69 8.25 15.98 7.41 16.53Z" stroke="#40B4E5" stroke-width="2.22222" stroke-linecap="round" stroke-linejoin="miter" stroke-miterlimit="10" stroke-opacity="1" fill="none"/><path d="M7.96 10.79C7.88 10.7 7.84 10.56 7.85 10.43 7.94 8.78 9.09 7.47 10.5 7.47 11.91 7.47 12.98 8.68 13.14 10.25 13.16 10.47 13.06 10.69 12.9 10.75" stroke="#40B4E5" stroke-width="2.22222" stroke-linecap="round" stroke-linejoin="miter" stroke-miterlimit="10" stroke-opacity="1" fill="none"/><line x1="13.13" y1="22.13" x2="13.13" y2="24.54" stroke="#40B4E5" stroke-width="2.22222" stroke-linecap="round" stroke-linejoin="miter" stroke-miterlimit="10" stroke-opacity="1" fill="none"/><line x1="7.57" y1="22.13" x2="7.57" y2="24.54" stroke="#40B4E5" stroke-width="2.22222" stroke-linecap="round" stroke-linejoin="miter" stroke-miterlimit="10" stroke-opacity="1" fill="none"/></g></svg>