<svg viewBox="0 0 48.99 59.81" xmlns="http://www.w3.org/2000/svg" xmlns:xlink="http://www.w3.org/1999/xlink" id="Layer_2" overflow="hidden"><defs></defs><g id="AW"><path d="M44.33 53.95C44.33 53.95 40.89 49.54 41.04 43.64 41.19 37.74 47.99 28.7 47.99 20.86 47.99 13.02 44.7 1 26.93 1 9.16 1 7.58 12.05 6.98 14.15 6.38 16.25 5.64 18.41 5.71 19.53 5.78 20.65 5.94 22.68 6.08 23.12 6.4 24.07 0.74 28.11 1 30.96 1.17 32.82 4.51 33.57 4.51 33.57 4.51 33.57 5.11 35.29 4.73 36.18 4.35 37.07 4.3 37.79 4.38 38.63 4.46 39.47 4.96 39.69 4.96 40.74 4.96 41.79 4.21 47.69 10.94 47.91 17.66 48.13 17.21 48.28 16.99 50.9 16.77 53.52 17.36 58.82 17.36 58.82" stroke="#FFFFFF" stroke-width="1.55556" stroke-linecap="round" stroke-linejoin="round" stroke-opacity="1" fill="none"/><g><path d="M34.42 18.18 32.41 17.69C32.29 17.31 32.13 16.94 31.95 16.59 32.25 16.09 32.89 15.03 32.89 15.03 33.01 14.83 32.98 14.57 32.81 14.4L31.36 12.95C31.19 12.78 30.94 12.75 30.73 12.87L29.17 13.81C28.82 13.62 28.45 13.47 28.07 13.35L27.58 11.34C27.52 11.11 27.32 10.95 27.08 10.95L25.02 10.95C24.78 10.95 24.58 11.11 24.52 11.34 24.52 11.34 24.18 12.74 24.03 13.35 23.63 13.48 23.24 13.64 22.86 13.85L21.24 12.88C21.04 12.76 20.78 12.79 20.61 12.96L19.16 14.41C18.99 14.58 18.96 14.84 19.08 15.04L20.08 16.71C19.92 17.03 19.78 17.36 19.68 17.7L17.67 18.2C17.44 18.26 17.28 18.46 17.28 18.7L17.28 20.76C17.28 21 17.44 21.2 17.67 21.26L19.68 21.75C19.8 22.14 19.96 22.51 20.15 22.87L19.25 24.37C19.13 24.57 19.16 24.83 19.33 25L20.78 26.45C20.95 26.62 21.2 26.65 21.41 26.53 21.41 26.53 22.42 25.93 22.91 25.63 23.27 25.82 23.64 25.98 24.02 26.1L24.51 28.11C24.57 28.34 24.77 28.5 25.01 28.5L27.07 28.5C27.31 28.5 27.51 28.34 27.57 28.11L28.06 26.1C28.46 25.97 28.84 25.81 29.2 25.62 29.71 25.92 30.72 26.53 30.72 26.53 30.92 26.65 31.18 26.62 31.35 26.45L32.8 25C32.97 24.83 33 24.57 32.88 24.37L31.96 22.83C32.14 22.48 32.29 22.12 32.41 21.75L34.42 21.26C34.65 21.2 34.81 21 34.81 20.76L34.81 18.7C34.81 18.46 34.65 18.26 34.42 18.2Z" stroke="#40B4E5" stroke-width="1.55556" stroke-miterlimit="10" stroke-opacity="1" fill="none"/><circle cx="26.04" cy="19.71" r="2.72" stroke="#40B4E5" stroke-width="1.55556" stroke-miterlimit="10" stroke-opacity="1" fill="none"/></g></g></svg>