<svg viewBox="0 0 48.99 59.81" xmlns="http://www.w3.org/2000/svg" xmlns:xlink="http://www.w3.org/1999/xlink" id="Layer_2" overflow="hidden"><defs></defs><g id="AW"><path d="M47.99 20.87C47.99 13.03 44.7 1 26.93 1 26.26 1 25.63 1.02 25 1.05 41.14 1.87 44.2 5.76 44.2 20.87 44.2 28.71 37.4 37.75 37.25 43.65 37.19 46.05 37.72 48.21 38.38 49.92 39.32 52.37 41.7 53.96 44.33 53.96 44.33 53.96 40.89 49.55 41.04 43.65 41.19 37.75 47.99 28.71 47.99 20.87Z" stroke-width="1.66667" stroke-linejoin="miter" fill="#B4D6F1"/><line x1="31.4" y1="5.1" x2="23.6" y2="12.89" stroke="#40B4E5" stroke-width="1.66667" stroke-linecap="round" stroke-linejoin="miter" stroke-miterlimit="10" fill="none"/><path d="M27.61 13.75 22.7 13.75 22.7 8.8" stroke="#40B4E5" stroke-width="1.66667" stroke-linecap="round" stroke-linejoin="miter" stroke-miterlimit="10" fill="none"/><path d="M44.33 53.95C44.33 53.95 40.89 49.54 41.04 43.64 41.19 37.74 47.99 28.7 47.99 20.86 47.99 13.02 44.7 1 26.93 1 9.16 1 7.58 12.05 6.98 14.15 6.38 16.25 5.64 18.41 5.71 19.53 5.78 20.65 5.94 22.68 6.08 23.12 6.4 24.07 0.74 28.11 1 30.96 1.17 32.82 4.51 33.57 4.51 33.57 4.51 33.57 5.11 35.29 4.73 36.18 4.35 37.07 4.3 37.79 4.38 38.63 4.46 39.47 4.96 39.69 4.96 40.74 4.96 41.79 4.21 47.69 10.94 47.91 17.66 48.13 17.21 48.28 16.99 50.9 16.77 53.52 17.36 58.82 17.36 58.82" stroke="#065BAA" stroke-width="1.66667" stroke-linecap="round" stroke-linejoin="miter" fill="none"/><path d="M25.06 22.81C25.06 22.81 26.11 21.32 27.9 21.32 29.69 21.32 32.53 22.59 32.53 25.95 32.53 28.94 28.87 34.54 26.85 34.46 25.06 34.39 24.61 32.74 24.61 32.74" stroke="#065BAA" stroke-width="1.66667" stroke-linecap="round" stroke-linejoin="miter" fill="none"/><circle cx="17.8" cy="14.12" r="2.31" stroke-width="1.66667" stroke-linejoin="miter" fill="#065BAA"/><circle cx="17.44" cy="18.49" r="2.32" stroke-width="1.66667" stroke-linejoin="miter" fill="#065BAA"/><circle cx="14.44" cy="16.23" r="1.53" stroke-width="1.66667" stroke-linejoin="miter" fill="#065BAA"/><circle cx="20.8" cy="17.8" r="1.9" stroke-width="1.66667" stroke-linejoin="miter" fill="#065BAA"/></g></svg>