<svg viewBox="0 0 60.01 60" xmlns="http://www.w3.org/2000/svg" xmlns:xlink="http://www.w3.org/1999/xlink" id="Layer_2" overflow="hidden"><defs></defs><g id="AW"><path d="M14.98 35.34C14.69 35.78 14.35 36.19 13.98 36.57 13.29 37.26 12.46 37.83 11.54 38.22 10.62 38.61 9.61 38.82 8.55 38.82 7.49 38.82 6.48 38.61 5.56 38.22 4.64 37.83 3.81 37.27 3.12 36.57 3.12 36.57 7.32 38.66 11.69 34.29 13 32.98 13.74 31.68 14.11 30.5 14.99 27.77 15.22 34.96 14.97 35.35Z" stroke-width="2.16216" stroke-linecap="butt" stroke-linejoin="miter" fill="#B4D6F1" fill-opacity="1"/><path d="M33.41 23.99C34.42 25 35.24 26.2 35.8 27.54 36.36 28.88 36.68 30.34 36.68 31.89 36.68 33.44 36.37 34.9 35.8 36.24 35.23 37.58 34.42 38.78 33.41 39.79 32.4 40.8 31.2 41.62 29.86 42.18 28.52 42.74 27.06 43.06 25.51 43.06 23.96 43.06 22.5 42.75 21.16 42.18 19.82 41.61 18.62 40.8 17.61 39.79 17.61 39.79 24.18 43.94 30.87 37.26 37.56 30.57 33.4 24 33.4 24Z" stroke-width="2.16216" stroke-linecap="butt" stroke-linejoin="miter" fill="#B4D6F1" fill-opacity="1"/><path d="M55.43 24.1C56.49 25.16 57.35 26.43 57.94 27.83 58.53 29.23 58.86 30.78 58.86 32.4 58.86 34.02 58.53 35.56 57.94 36.97 57.35 38.38 56.49 39.64 55.43 40.7 54.37 41.76 53.1 42.62 51.7 43.21 50.3 43.8 48.75 44.13 47.13 44.13 45.51 44.13 43.97 43.8 42.56 43.21 41.15 42.62 39.89 41.76 38.83 40.7 38.83 40.7 45.62 45.31 52.83 38.1 60.04 30.89 55.43 24.1 55.43 24.1Z" stroke-width="2.16216" stroke-linecap="butt" stroke-linejoin="miter" fill="#B4D6F1" fill-opacity="1"/><path d="M32.23 38.33C33.29 39.39 34.15 40.66 34.74 42.06 35.33 43.46 35.66 45.01 35.66 46.63 35.66 48.25 35.33 49.79 34.74 51.2 34.15 52.61 33.29 53.87 32.23 54.93 31.17 55.99 29.9 56.85 28.5 57.44 27.1 58.03 25.55 58.36 23.93 58.36 22.31 58.36 20.77 58.03 19.36 57.44 17.95 56.85 16.69 55.99 15.63 54.93 15.63 54.93 22.76 59.88 29.97 52.68 37.18 45.48 32.22 38.34 32.22 38.34Z" stroke-width="2.16216" stroke-linecap="butt" stroke-linejoin="miter" fill="#B4D6F1" fill-opacity="1"/><path d="M33.36 41.94C34.27 43.51 34.79 45.33 34.79 47.27 34.79 53.19 29.98 58 24.06 58 18.14 58 13.33 53.19 13.33 47.27 13.33 44.5 14.39 41.98 16.12 40.08 15.69 39.54 15.31 38.97 14.98 38.37 12.73 40.67 11.33 43.81 11.33 47.27 11.33 54.29 17.04 60 24.06 60 31.08 60 36.79 54.29 36.79 47.27 36.79 44.78 36.06 42.46 34.82 40.5 34.37 41.02 33.89 41.5 33.36 41.94Z" stroke-width="2.16216" stroke-linecap="butt" stroke-linejoin="miter" fill="#065BAA" fill-opacity="1"/><circle cx="41.3" cy="49.33" r="5.61" stroke="#40B4E5" stroke-width="2.16216" stroke-linecap="butt" stroke-linejoin="miter" stroke-miterlimit="10" fill="none" fill-opacity="1"/><circle cx="9.7" cy="42.74" r="3.32" stroke="#40B4E5" stroke-width="2.16216" stroke-linecap="butt" stroke-linejoin="miter" stroke-miterlimit="10" fill="none" fill-opacity="1"/><circle cx="25.65" cy="32.54" r="11.17" stroke="#065BAA" stroke-width="2.16216" stroke-linecap="butt" stroke-linejoin="miter" stroke-miterlimit="10" fill="none" fill-opacity="1"/><path d="M47.27 20.31C43.07 20.31 39.35 22.36 37.03 25.51 37.49 24.19 37.76 22.78 37.76 21.3 37.76 14.28 32.05 8.57 25.03 8.57 18.01 8.57 12.3 14.28 12.3 21.3 12.3 22.25 12.41 23.17 12.61 24.06 11.43 23.46 10.1 23.11 8.68 23.11 3.89 23.11-1.77636e-15 27-1.77636e-15 31.79-1.77636e-15 36.58 3.89 40.47 8.68 40.47 11.05 40.47 13.21 39.51 14.78 37.96 14.45 37.29 14.17 36.6 13.96 35.87 12.74 37.45 10.83 38.47 8.68 38.47 5 38.47 2 35.47 2 31.79 2 28.11 5 25.11 8.68 25.11 11.04 25.11 13.11 26.34 14.3 28.19 14.6 27.42 14.96 26.69 15.4 26.01 14.7 24.59 14.3 22.99 14.3 21.3 14.3 15.38 19.11 10.57 25.03 10.57 30.95 10.57 35.76 15.38 35.76 21.3 35.76 22.57 35.53 23.78 35.12 24.92 36.1 26.14 36.85 27.54 37.31 29.08 38.89 25.12 42.76 22.32 47.27 22.32 53.19 22.32 58 27.13 58 33.05 58 38.97 53.19 43.78 47.27 43.78 42.57 43.78 38.58 40.74 37.13 36.53 36.84 37.37 36.45 38.17 35.99 38.92 38.12 42.99 42.37 45.77 47.27 45.77 54.29 45.77 60 40.06 60 33.04 60 26.02 54.29 20.31 47.27 20.31Z" stroke-width="2.16216" stroke-linecap="butt" stroke-linejoin="miter" fill="#065BAA" fill-opacity="1"/><path d="M43.91 15.22C44.7 16.01 45.19 17.1 45.19 18.3 45.19 19.5 44.7 20.59 43.91 21.38 43.12 22.17 42.03 22.66 40.83 22.66 39.63 22.66 38.54 22.17 37.75 21.38 36.96 20.59 36.47 19.5 36.47 18.3 36.47 17.1 36.96 16.01 37.75 15.22 38.54 14.43 39.63 13.94 40.83 13.94" stroke="#40B4E5" stroke-width="2.16216" stroke-linecap="butt" stroke-linejoin="miter" stroke-miterlimit="10" fill="none" fill-opacity="1"/><path d="M5.42 8.06 2.42 5.05 5.46 2.01" stroke="#065BAA" stroke-width="2.16216" stroke-linecap="butt" stroke-linejoin="miter" stroke-miterlimit="10" fill="none" fill-opacity="1"/><line x1="1.01" y1="9.07" x2="1.01" y2="1" stroke="#065BAA" stroke-width="2.16216" stroke-linecap="butt" stroke-linejoin="miter" stroke-miterlimit="10" fill="none"/><line x1="3.5" y1="5" x2="56.52" y2="5" stroke="#065BAA" stroke-width="2.16216" stroke-linecap="butt" stroke-linejoin="miter" stroke-miterlimit="10" fill="none"/><path d="M54.6 2.02 57.6 5.02 54.56 8.06" stroke="#065BAA" stroke-width="2.16216" stroke-linecap="butt" stroke-linejoin="miter" stroke-miterlimit="10" fill="none" fill-opacity="1"/><line x1="59.01" y1="1" x2="59.01" y2="9.07" stroke="#065BAA" stroke-width="2.16216" stroke-linecap="butt" stroke-linejoin="miter" stroke-miterlimit="10" fill="none"/></g></svg>