<svg viewBox="0 0 60 60" xmlns="http://www.w3.org/2000/svg" xmlns:xlink="http://www.w3.org/1999/xlink" id="Layer_2" overflow="hidden"><defs></defs><g id="AW"><path d="M48.3 7.43C52.74 12.53 55.44 19.18 55.44 26.47 55.44 29.78 54.88 32.97 53.86 35.93 53.27 37.63 53.34 40.14 52.47 41.68 51.82 42.83 50.28 43.04 49.48 44.08 44.18 51 35.83 55.46 26.44 55.46 19.15 55.46 12.49 52.76 7.4 48.32 12.72 54.42 20.54 58.28 29.26 58.28 45.28 58.28 58.26 45.3 58.26 29.28 58.26 20.55 54.4 12.74 48.3 7.42Z" stroke-width="2.16216" stroke-linecap="butt" stroke-linejoin="miter" fill="#B4D6F1" fill-opacity="1"/><path d="M34.18 17.06C33.74 14.29 31.49 12.04 28.72 11.6 25.22 11.04 22.13 13.22 21.24 16.32 21.14 16.66 21.26 17.02 21.51 17.26L28.52 24.27C28.77 24.52 29.13 24.63 29.46 24.54 32.56 23.65 34.74 20.56 34.18 17.06ZM26.95 21.36 26.95 16.03 25.02 16.03 25.02 14.96 30.23 14.96 30.23 16.03 28.27 16.03 28.27 21.36 26.95 21.36Z" stroke-width="2.16216" stroke-linecap="butt" stroke-linejoin="miter" fill="#40B4E5" fill-opacity="1"/><path d="M29.96 6.38C34.8 7.3 38.64 11.25 39.45 16.1 40.26 20.95 37.97 25.72 34.15 28.21 33.62 28.56 33.54 29.3 33.99 29.75L33.99 29.75C34.32 30.08 34.83 30.15 35.22 29.9 39.5 27.12 42.18 22.07 41.52 16.46 40.78 10.22 35.8 5.14 29.57 4.29 23.86 3.52 18.71 6.21 15.89 10.56 15.64 10.95 15.71 11.47 16.04 11.79L16.04 11.79C16.49 12.24 17.23 12.16 17.58 11.63 20.11 7.74 24.82 5.4 29.97 6.38Z" stroke-width="2.16216" stroke-linecap="butt" stroke-linejoin="miter" fill="#065BAA" fill-opacity="1"/><path d="M49.57 36.15C49.26 34.17 47.65 32.56 45.67 32.25 43.27 31.88 41.14 33.32 40.45 35.42 40.33 35.78 40.42 36.19 40.69 36.46L45.35 41.12C45.62 41.39 46.02 41.48 46.39 41.36 48.49 40.67 49.94 38.55 49.56 36.14ZM44.45 39.17 44.45 35.39 43.08 35.39 43.08 34.63 46.78 34.63 46.78 35.39 45.39 35.39 45.39 39.17 44.45 39.17Z" stroke-width="2.16216" stroke-linecap="butt" stroke-linejoin="miter" fill="#40B4E5" fill-opacity="1"/><path d="M46.19 28.78C49.69 29.31 52.52 32.14 53.05 35.64 53.55 38.95 52.05 41.95 49.59 43.65 49.07 44.01 48.99 44.74 49.43 45.19L49.43 45.19C49.78 45.54 50.32 45.58 50.73 45.3 53.84 43.14 55.71 39.31 54.99 35.11 54.27 30.91 50.9 27.55 46.72 26.83 42.54 26.11 38.69 27.98 36.53 31.09 36.25 31.49 36.29 32.04 36.64 32.39L36.64 32.39C37.09 32.84 37.82 32.75 38.18 32.23 39.88 29.77 42.89 28.27 46.2 28.77Z" stroke-width="2.16216" stroke-linecap="butt" stroke-linejoin="miter" fill="#065BAA" fill-opacity="1"/><path d="M23.63 33.33C17.99 33.33 13.41 37.91 13.41 43.55 13.41 49.19 17.99 53.77 23.63 53.77 29.27 53.77 33.85 49.19 33.85 43.55 33.85 37.91 29.27 33.33 23.63 33.33ZM23.63 51.77C19.1 51.77 15.41 48.08 15.41 43.55 15.41 39.02 19.1 35.33 23.63 35.33 28.16 35.33 31.85 39.02 31.85 43.55 31.85 48.08 28.16 51.77 23.63 51.77Z" stroke-width="2.16216" stroke-linecap="butt" stroke-linejoin="miter" fill="#065BAA" fill-opacity="1"/><path d="M23.63 38.84C21.03 38.84 18.92 40.95 18.92 43.55 18.92 46.15 21.03 48.26 23.63 48.26 26.23 48.26 28.34 46.15 28.34 43.55 28.34 40.95 26.23 38.84 23.63 38.84ZM25.48 42.04 24.09 42.04 24.09 45.82 23.15 45.82 23.15 42.04 21.78 42.04 21.78 41.28 25.48 41.28 25.48 42.04Z" stroke-width="2.16216" stroke-linecap="butt" stroke-linejoin="miter" fill="#40B4E5" fill-opacity="1"/><line x1="9.84" y1="9.84" x2="50.16" y2="50.16" stroke="#065BAA" stroke-width="2.16216" stroke-linecap="butt" stroke-linejoin="miter" stroke-miterlimit="10" fill="none"/><path d="M14.68 19.38C15.24 25.39 19.89 30.21 25.81 31.04" stroke="#065BAA" stroke-width="2.16216" stroke-linecap="butt" stroke-linejoin="miter" stroke-miterlimit="10" fill="none" fill-opacity="1"/><path d="M36.63 40.93C37.47 42.66 38.84 44.09 40.53 45.01" stroke="#065BAA" stroke-width="2.16216" stroke-linecap="butt" stroke-linejoin="miter" stroke-miterlimit="10" fill="none" fill-opacity="1"/><path d="M47.34 6.75C42.5 3.14 36.5 1 30 1 13.98 1 1 13.98 1 30 1 46.02 13.98 59 30 59 46.02 59 59 46.02 59 30 59 21.78 55.58 14.35 50.08 9.08" stroke="#065BAA" stroke-width="2.16216" stroke-linecap="butt" stroke-linejoin="miter" stroke-miterlimit="10" fill="none" fill-opacity="1"/></g></svg>