<svg viewBox="0 0 59.99 58.28" xmlns="http://www.w3.org/2000/svg" xmlns:xlink="http://www.w3.org/1999/xlink" id="Layer_2" overflow="hidden"><defs></defs><g id="AW"><path d="M48.99 6.28 55.96 6.28C57.62 6.28 58.96 7.62 58.96 9.28L58.96 34.28" stroke="#FFFFFF" stroke-width="2.22222" stroke-linecap="round" stroke-miterlimit="10" stroke-opacity="1" fill="none"/><line x1="32.99" y1="6.28" x2="42.99" y2="6.28" stroke="#FFFFFF" stroke-width="2.22222" stroke-linecap="round" stroke-miterlimit="10" stroke-opacity="1" fill="none"/><line x1="16.99" y1="6.28" x2="26.99" y2="6.28" stroke="#FFFFFF" stroke-width="2.22222" stroke-linecap="round" stroke-miterlimit="10" stroke-opacity="1" fill="none"/><path d="M31.99 52.28 4 52.28C2.34 52.28 1 50.94 1 49.28L1 9.28C1 7.62 2.34 6.28 4 6.28L9.99 6.28" stroke="#FFFFFF" stroke-width="2.22222" stroke-linecap="round" stroke-miterlimit="10" stroke-opacity="1" fill="none"/><line x1="1.99" y1="17.28" x2="6.99" y2="17.28" stroke="#FFFFFF" stroke-width="2.22222" stroke-linecap="round" stroke-miterlimit="10" stroke-opacity="1" fill="none"/><line x1="10.99" y1="17.28" x2="57.99" y2="17.28" stroke="#FFFFFF" stroke-width="2.22222" stroke-linecap="round" stroke-miterlimit="10" stroke-opacity="1" fill="none"/><rect x="10.99" y="1" rx="3" ry="3" width="6" height="10.28" stroke="#FFFFFF" stroke-width="2.22222" stroke-miterlimit="10" stroke-opacity="1" fill="none"/><rect x="26.99" y="1" rx="3" ry="3" width="6" height="10.28" stroke="#FFFFFF" stroke-width="2.22222" stroke-miterlimit="10" stroke-opacity="1" fill="none"/><rect x="42.99" y="1" rx="3" ry="3" width="6" height="10.28" stroke="#FFFFFF" stroke-width="2.22222" stroke-miterlimit="10" stroke-opacity="1" fill="none"/><path d="M40.33 44.93 43.53 48.13C43.75 48.35 44.12 48.35 44.34 48.13L51.98 40.49" stroke="#40B4E5" stroke-width="2.22222" stroke-linecap="round" stroke-linejoin="round" stroke-opacity="1" fill="none"/><circle cx="46.49" cy="44.78" r="12.5" stroke="#FFFFFF" stroke-width="2.22222" stroke-miterlimit="10" stroke-opacity="1" fill="none"/><rect x="8.99" y="24.28" width="6" height="4" stroke="#40B4E5" stroke-width="2.22222" stroke-linecap="round" stroke-miterlimit="10" stroke-opacity="1" fill="none"/><rect x="20.99" y="24.28" width="6" height="4" stroke="#40B4E5" stroke-width="2.22222" stroke-linecap="round" stroke-miterlimit="10" stroke-opacity="1" fill="none"/><rect x="32.99" y="24.28" width="6" height="4" stroke="#40B4E5" stroke-width="2.22222" stroke-linecap="round" stroke-miterlimit="10" stroke-opacity="1" fill="none"/><rect x="44.99" y="24.28" width="6" height="4" stroke="#40B4E5" stroke-width="2.22222" stroke-linecap="round" stroke-miterlimit="10" stroke-opacity="1" fill="none"/><rect x="8.99" y="33.28" width="6" height="4" stroke="#40B4E5" stroke-width="2.22222" stroke-linecap="round" stroke-miterlimit="10" stroke-opacity="1" fill="none"/><rect x="20.99" y="33.28" width="6" height="4" stroke="#40B4E5" stroke-width="2.22222" stroke-linecap="round" stroke-miterlimit="10" stroke-opacity="1" fill="none"/><path d="M32.99 36.28 32.99 33.28 35.99 33.28" stroke="#40B4E5" stroke-width="2.22222" stroke-linecap="round" stroke-miterlimit="10" stroke-opacity="1" fill="none"/><rect x="8.99" y="42.28" width="6" height="4" stroke="#40B4E5" stroke-width="2.22222" stroke-linecap="round" stroke-miterlimit="10" stroke-opacity="1" fill="none"/><rect x="20.99" y="42.28" width="6" height="4" stroke="#40B4E5" stroke-width="2.22222" stroke-linecap="round" stroke-miterlimit="10" stroke-opacity="1" fill="none"/></g></svg>