<svg viewBox="0 0 60 60" xmlns="http://www.w3.org/2000/svg" xmlns:xlink="http://www.w3.org/1999/xlink" id="Layer_2" overflow="hidden"><defs></defs><g id="AW"><path d="M48.79 8.55C52.65 13.4 54.98 19.54 54.98 26.22 54.98 41.91 42.26 54.62 26.58 54.62 19.9 54.62 13.76 52.3 8.91 48.43 14.11 54.96 22.12 59.16 31.13 59.16 46.82 59.16 59.53 46.44 59.53 30.76 59.53 21.76 55.33 13.75 48.8 8.54Z" stroke-width="2.04082" stroke-miterlimit="4" fill="#B4D6F1"/><path d="M5.7 45.02C5.7 45.02 6.21 44.92 7.51 44.79 8.81 44.66 10.52 44.74 10.52 44.74" stroke="#40B4E5" stroke-width="2.04082" stroke-linecap="round" stroke-linejoin="round" stroke-miterlimit="4" fill="none"/><circle cx="56.53" cy="39.13" r="1.37" stroke-width="2.04082" stroke-miterlimit="4" fill="#40B4E5"/><circle cx="56.55" cy="22.06" r="1.37" stroke-width="2.04082" stroke-miterlimit="4" fill="#40B4E5"/><circle cx="3.48" cy="39.07" r="1.37" stroke-width="2.04082" stroke-miterlimit="4" fill="#40B4E5"/><circle cx="3.52" cy="22.45" r="1.37" stroke-width="2.04082" stroke-miterlimit="4" fill="#40B4E5"/><path d="M47.34 6.75C42.5 3.14 36.5 1 30 1 13.98 1 1 13.98 1 30 1 46.02 13.98 59 30 59 46.02 59 59 46.02 59 30 59 21.78 55.58 14.35 50.08 9.08" stroke="#065BAA" stroke-width="2.04082" stroke-linecap="round" stroke-miterlimit="4" fill="none"/><path d="M4.73 16.26 6.28 17.88C6.28 17.88 7.7 16.58 9.13 16.58 10.56 16.58 10.3 16.19 11.72 16.97 13.14 17.75 13.4 16.84 14.44 16.58 15.48 16.32 15.22 15.93 16.25 16.19 17.28 16.45 18.06 17.1 18.45 17.23 18.84 17.36 19.1 18.01 20.13 16.71 21.16 15.41 20.26 15.03 22.2 14.51 24.14 13.99 25.28 14.57 25.28 14.57 25.28 14.57 27.42 12.92 29.75 13.02 32.08 13.12 32.39 14.43 33.83 14.09 35.48 13.7 38.01 14.77 38.53 15.29 39.05 15.81 40.73 17.23 40.73 17.23 40.73 17.23 42.67 16.58 44.1 16.58 45.53 16.58 46.04 16.71 46.43 17.1 46.82 17.49 46.3 17.1 46.82 17.49 47.34 17.88 49.25 17.2 50.16 17.2 51.07 17.2 50.35 17.01 52.39 17.23 52.85 17.28 51.97 17.26 53.65 17.39 55.33 17.52 55.76 16.84 55.76 16.84" stroke="#065BAA" stroke-width="2.04082" stroke-linejoin="round" stroke-miterlimit="4" fill="none"/><path d="M1.36 25.52 3.04 27.07 6.28 23.96 9.52 27.07 12.63 23.96 16 27.2 19.37 24.09 22.87 26.16 27.92 23.44 29.47 25.38C29.47 25.38 29.79 25.44 30.38 24.99 31.85 23.84 32.19 23.31 32.58 23.57 32.97 23.83 35.56 25.25 35.56 25.25L36.56 25.25 38.41 24.86 39.96 24.34 43.59 26.93 47.09 24.47 50.2 27.06 53.44 24.47 56.29 26.93 58.1 25.89" stroke="#065BAA" stroke-width="2.04082" stroke-linejoin="round" stroke-miterlimit="4" fill="none"/><path d="M4.08 42.37 12.5 42.37C13.02 42.37 18.33 42.63 18.98 42.63 19.63 42.63 23.45 44.25 25.85 44.31 28.25 44.37 30.12 44.31 31.42 44.31 32.91 44.31 34.92 43.92 35.69 43.92 36.46 43.92 40.22 43.14 40.61 42.75 41 42.36 43.72 41.84 45.27 41.97 46.82 42.1 49.41 42.52 52.27 42.62 56.16 42.75 55.12 42.75 55.12 42.75" stroke="#065BAA" stroke-width="2.04082" stroke-linejoin="round" stroke-miterlimit="4" fill="none"/><path d="M7.03 47.42C9.62 47.16 10.82 47.23 12.76 47.23 14.7 47.23 18.75 47.68 19.66 47.81 20.57 47.94 23.9 48.59 25.2 48.72 26.5 48.85 30.11 49.11 31.16 49.11 32.39 49.11 33.88 49.05 35.31 48.79 36.74 48.53 40.49 47.69 41.66 47.56 42.83 47.43 46.19 47.11 48.53 47.11 50.87 47.11 53.71 47.05 53.71 47.05" stroke="#065BAA" stroke-width="2.04082" stroke-linejoin="round" stroke-miterlimit="4" fill="none"/><path d="M1.49 34.59C1.88 33.94 3.17 33.17 3.17 33.17L6.15 36.02 9.65 33.56 12.76 36.41 16.13 33.43C16.13 33.43 18.59 36.28 19.37 36.15 20.15 36.02 22.87 33.95 22.87 33.95L26.89 38.22 29.74 34.2C29.74 34.2 30 33.71 31.04 34.1 32.08 34.49 33.76 35.49 33.76 35.49L36.74 32.38 40.37 35.23 43.61 33.42 46.72 35.75 50.22 33.03 53.2 36.14 56.44 33.42 58.25 34.46" stroke="#065BAA" stroke-width="2.04082" stroke-linejoin="round" stroke-miterlimit="4" fill="none"/><line x1="12.57" y1="24.62" x2="13.09" y2="17.23" stroke="#065BAA" stroke-width="2.04082" stroke-linejoin="round" stroke-miterlimit="4" fill="none"/><line x1="19.56" y1="24.68" x2="19.37" y2="17.62" stroke="#065BAA" stroke-width="2.04082" stroke-linejoin="round" stroke-miterlimit="4" fill="none"/><path d="M25.39 14.13C25.39 14.13 26.17 18.15 26.23 18.34 26.29 18.53 27.91 23.46 27.91 23.46" stroke="#065BAA" stroke-width="2.04082" stroke-linejoin="round" stroke-miterlimit="4" fill="none"/><path d="M33.88 13.35C33.88 13.35 34.33 15.94 34.07 16.85 33.81 17.76 33.23 18.4 33.23 18.4 33.23 18.4 32.71 22.74 33.17 24.04" stroke="#065BAA" stroke-width="2.04082" stroke-linejoin="round" stroke-miterlimit="4" fill="none"/><line x1="6.48" y1="17.75" x2="6.28" y2="23.97" stroke="#065BAA" stroke-width="2.04082" stroke-linejoin="round" stroke-miterlimit="4" fill="none"/><line x1="40.55" y1="24.16" x2="40.81" y2="17.17" stroke="#065BAA" stroke-width="2.04082" stroke-linejoin="round" stroke-miterlimit="4" fill="none"/><line x1="47.09" y1="24.49" x2="46.83" y2="17.49" stroke="#065BAA" stroke-width="2.04082" stroke-linejoin="round" stroke-miterlimit="4" fill="none"/><line x1="53.44" y1="17.75" x2="53.44" y2="24.49" stroke="#065BAA" stroke-width="2.04082" stroke-linejoin="round" stroke-miterlimit="4" fill="none"/><line x1="3.05" y1="27.08" x2="3.18" y2="33.17" stroke="#065BAA" stroke-width="2.04082" stroke-linejoin="round" stroke-miterlimit="4" fill="none"/><line x1="9.52" y1="27.08" x2="9.65" y2="33.56" stroke="#065BAA" stroke-width="2.04082" stroke-linejoin="round" stroke-miterlimit="4" fill="none"/><line x1="16" y1="27.21" x2="16.13" y2="33.43" stroke="#065BAA" stroke-width="2.04082" stroke-linejoin="round" stroke-miterlimit="4" fill="none"/><path d="M22.87 26.17C22.87 26.17 22.35 28.18 22.29 30.25 22.23 32.32 22.87 33.94 22.87 33.94" stroke="#065BAA" stroke-width="2.04082" stroke-linejoin="round" stroke-miterlimit="4" fill="none"/><path d="M29.64 25.4C29.64 25.4 29.03 27.86 28.98 29.87 28.93 31.88 30.24 33.76 30.24 33.76" stroke="#065BAA" stroke-width="2.04082" stroke-linejoin="round" stroke-miterlimit="4" fill="none"/><path d="M36.01 25.4C36.01 25.4 37.33 27.34 37.24 28.96 37.15 30.58 36.51 32.39 36.51 32.39" stroke="#065BAA" stroke-width="2.04082" stroke-linejoin="round" stroke-miterlimit="4" fill="none"/><line x1="43.59" y1="26.95" x2="43.59" y2="33.43" stroke="#065BAA" stroke-width="2.04082" stroke-linejoin="round" stroke-miterlimit="4" fill="none"/><path d="M50.2 27.08C50.2 27.08 50.26 32.13 50.2 33.04" stroke="#065BAA" stroke-width="2.04082" stroke-linejoin="round" stroke-miterlimit="4" fill="none"/><path d="M56.29 26.95C56.29 26.95 56.94 32.26 56.42 33.43" stroke="#065BAA" stroke-width="2.04082" stroke-linejoin="round" stroke-miterlimit="4" fill="none"/><path d="M12.76 36.41C12.76 36.41 13.28 46.09 13.15 46.94" stroke="#065BAA" stroke-width="2.04082" stroke-linejoin="round" stroke-miterlimit="4" fill="none"/><line x1="19.37" y1="36.6" x2="19.37" y2="42.11" stroke="#065BAA" stroke-width="2.04082" stroke-linejoin="round" stroke-miterlimit="4" fill="none"/><line x1="6.15" y1="36.02" x2="6.35" y2="42.04" stroke="#065BAA" stroke-width="2.04082" stroke-linejoin="round" stroke-miterlimit="4" fill="none"/><path d="M26.88 38.22C26.88 38.22 27.59 40.23 27.07 41.33 26.55 42.43 25.84 44.31 25.84 44.31L25.78 48.26" stroke="#065BAA" stroke-width="2.04082" stroke-linejoin="round" stroke-miterlimit="4" fill="none"/><path d="M33.84 34.93C33.84 34.93 33.1 37.31 33.68 39.58 34.26 41.85 34.59 43.4 34.59 43.4" stroke="#065BAA" stroke-width="2.04082" stroke-linejoin="round" stroke-miterlimit="4" fill="none"/><path d="M40.35 35.24 40.61 42.75C40.61 42.75 41 46.64 40.8 47.28" stroke="#065BAA" stroke-width="2.04082" stroke-linejoin="round" stroke-miterlimit="4" fill="none"/><path d="M46.7 35.76C46.7 35.76 46.83 40.94 46.64 41.65" stroke="#065BAA" stroke-width="2.04082" stroke-linejoin="round" stroke-miterlimit="4" fill="none"/><line x1="53.18" y1="36.15" x2="53.18" y2="42.17" stroke="#065BAA" stroke-width="2.04082" stroke-linejoin="round" stroke-miterlimit="4" fill="none"/><line x1="52.27" y1="43.08" x2="51.82" y2="46.32" stroke="#065BAA" stroke-width="2.04082" stroke-linejoin="round" stroke-miterlimit="4" fill="none"/><circle cx="43.85" cy="21.28" r="1.37" stroke-width="2.04082" stroke-miterlimit="4" fill="#40B4E5"/><circle cx="50.36" cy="21.38" r="1.37" stroke-width="2.04082" stroke-miterlimit="4" fill="#40B4E5"/><circle cx="16.06" cy="21.09" r="1.37" stroke-width="2.04082" stroke-miterlimit="4" fill="#40B4E5"/><circle cx="9.46" cy="21.09" r="1.37" stroke-width="2.04082" stroke-miterlimit="4" fill="#40B4E5"/><circle cx="6.45" cy="30.03" r="1.37" stroke-width="2.04082" stroke-miterlimit="4" fill="#40B4E5"/><circle cx="12.56" cy="30.24" r="1.37" stroke-width="2.04082" stroke-miterlimit="4" fill="#40B4E5"/><circle cx="46.83" cy="30.51" r="1.37" stroke-width="2.04082" stroke-miterlimit="4" fill="#40B4E5"/><circle cx="53.51" cy="30.45" r="1.37" stroke-width="2.04082" stroke-miterlimit="4" fill="#40B4E5"/><circle cx="9.65" cy="38.8" r="1.37" stroke-width="2.04082" stroke-miterlimit="4" fill="#40B4E5"/><circle cx="16.06" cy="38.77" r="1.37" stroke-width="2.04082" stroke-miterlimit="4" fill="#40B4E5"/><circle cx="43.77" cy="38.38" r="1.37" stroke-width="2.04082" stroke-miterlimit="4" fill="#40B4E5"/><circle cx="50.1" cy="38.21" r="1.37" stroke-width="2.04082" stroke-miterlimit="4" fill="#40B4E5"/><path d="M43.32 44.7C43.32 44.7 44.55 44.55 45.46 44.55 46.37 44.55 49.05 44.74 49.05 44.74" stroke="#40B4E5" stroke-width="2.04082" stroke-linecap="round" stroke-linejoin="round" stroke-miterlimit="4" fill="none"/><path d="M29.81 46.69C29.81 46.69 31.77 46.77 33.06 46.58 34.35 46.39 36.1 46.26 36.1 46.26" stroke="#40B4E5" stroke-width="2.04082" stroke-linecap="round" stroke-linejoin="round" stroke-miterlimit="4" fill="none"/><path d="M15.68 45.09C15.68 45.09 17.65 44.93 18.93 45.19 20.21 45.45 21.31 45.77 21.31 45.77" stroke="#40B4E5" stroke-width="2.04082" stroke-linecap="round" stroke-linejoin="round" stroke-miterlimit="4" fill="none"/><circle cx="29.86" cy="17.59" r="1.37" stroke-width="2.04082" stroke-miterlimit="4" fill="#40B4E5"/><circle cx="23.1" cy="20.09" r="1.37" stroke-width="2.04082" stroke-miterlimit="4" fill="#40B4E5"/><circle cx="36.95" cy="19.73" r="1.37" stroke-width="2.04082" stroke-miterlimit="4" fill="#40B4E5"/><circle cx="19.37" cy="30.17" r="1.37" stroke-width="2.04082" stroke-miterlimit="4" fill="#40B4E5"/><circle cx="25.78" cy="30.42" r="1.37" stroke-width="2.04082" stroke-miterlimit="4" fill="#40B4E5"/><circle cx="32.78" cy="29.15" r="1.37" stroke-width="2.04082" stroke-miterlimit="4" fill="#40B4E5"/><circle cx="40.35" cy="29.54" r="1.37" stroke-width="2.04082" stroke-miterlimit="4" fill="#40B4E5"/><circle cx="22.96" cy="39.45" r="1.37" stroke-width="2.04082" stroke-miterlimit="4" fill="#40B4E5"/><circle cx="30.54" cy="39.84" r="1.37" stroke-width="2.04082" stroke-miterlimit="4" fill="#40B4E5"/><circle cx="37.05" cy="38.28" r="1.37" stroke-width="2.04082" stroke-miterlimit="4" fill="#40B4E5"/></g></svg>