<svg width="512" height="512" viewBox="0 0 511.98 511.98" xmlns="http://www.w3.org/2000/svg" xmlns:xlink="http://www.w3.org/1999/xlink" id="Capa_1" overflow="hidden"><style>
.MsftOfcThm_Background1_Fill_v2 {
 fill:#FFFFFF; 
}
</style>
<path d="M505.398 138.492C499.477 132.432 490.111 130.339 482.121 133.102L379.018 29.418C381.459 21.577 379.63 12.724 373.489 6.582 364.635-2.27 350.139-2.183 341.176 6.781 331.513 16.445 324.07 28.593 319.052 42.886 315.706 52.014 330.11 57.088 333.207 47.852 337.472 35.698 343.723 25.448 351.784 17.387 359.005 9.965 370.116 21.055 362.683 28.287 336.999 53.972 339.272 103.897 347.09 145.176 339.862 143.37 335.939 142.128 330.093 140.553 326.364 118.294 325.212 98.043 326.67 80.298 327.01 76.17 323.939 72.548 319.81 72.209 315.698 71.872 312.061 74.94 311.721 79.069 310.294 96.418 311.186 115.876 314.353 137.03 306.567 135.59 298.789 134.601 291.116 134.101 244.71 131.095 203.095 145.489 173.942 174.642 144.784 203.802 130.391 245.42 133.414 291.811 133.856 299.418 134.806 307.047 136.254 314.832 90.884 307.958 38.542 309.414 6.78 341.174-2.183 350.138-2.272 364.632 6.582 373.487 11.933 378.921 19.971 381.211 27.418 379.558L85.543 437.683C88.473 440.611 93.22 440.611 96.15 437.683 99.079 434.753 99.079 430.005 96.15 427.076L40.704 371.63C49.293 364.1 61.829 359.889 76.569 358.169L153.949 435.203C152.336 449.442 148.274 462.281 140.352 471.276L120.899 451.823C117.969 448.895 113.221 448.895 110.292 451.823 107.363 454.753 107.363 459.501 110.292 462.43L132.422 484.56C130.769 492.013 133.06 500.047 138.49 505.395 142.882 509.786 148.659 511.976 154.463 511.976 160.361 511.976 166.286 509.712 170.805 505.195 170.805 505.195 170.805 505.195 170.806 505.194 186.639 489.36 196.261 467.076 199.405 438.961 201.489 420.317 200.733 399.087 197.17 375.73 204.494 377.091 211.753 378.019 218.891 378.483 225.745 378.964 232.688 379.087 239.381 378.814 243.52 378.646 246.739 375.155 246.571 371.016 246.402 366.877 242.867 363.678 238.773 363.826 232.604 364.083 226.192 363.961 219.866 363.514 209.063 362.812 197.928 360.96 186.691 358.023 182.256 356.89 177.902 355.501 173.457 354.319 158.263 350.184 134.525 344.709 109.814 342.839 71.766 339.959 44.335 346.635 28.287 362.683 25.378 365.724 20.124 365.925 17.189 362.88 14.183 359.875 14.272 354.897 17.387 351.782 47.265 321.904 100.263 323.202 144.256 331.333 170.214 335.476 196.723 346.798 222.701 347.935 260.064 350.364 293.144 339.212 315.828 316.531 338.511 293.851 349.666 260.78 347.239 223.41 346.548 212.78 344.778 201.956 341.979 191.16 347.777 192.551 353.503 193.798 359.118 194.893 361.05 203.911 362.325 212.952 362.902 221.835 365.632 263.875 352.785 301.376 326.727 327.432 311.756 342.401 293.247 352.967 271.712 358.836 267.716 359.926 265.359 364.048 266.448 368.045 267.525 372.075 271.768 374.401 275.657 373.309 299.741 366.744 320.492 354.877 337.332 338.039 366.487 308.887 380.884 267.272 377.87 220.863 377.372 213.186 376.387 205.408 374.952 197.628 398.437 201.147 419.792 201.849 438.556 199.702 466.833 196.469 489.254 186.746 505.196 170.805 514.162 161.842 514.251 147.346 505.398 138.492ZM160.201 494.59C157.084 497.704 152.104 497.796 149.099 494.79 146.057 491.858 146.257 486.598 149.3 483.69 174.753 458.236 172.314 408.563 164.371 367.433 170.208 368.895 175.658 370.568 181.4 372.149 188.311 412.702 189.639 465.151 160.201 494.59ZM148.293 363.636C151.361 378.141 154.373 396.673 154.774 414.858L96.926 357.269C113.212 357.556 130.912 359.953 148.293 363.636ZM370.462 42.087 469.581 141.765C460.19 149.202 447.225 152.971 433.014 154.422L357.563 78.957C359.031 64.593 362.865 51.499 370.462 42.087ZM363.116 148.859C360.212 134.846 357.389 117.099 356.899 99.509L412.464 155.083C394.874 154.591 377.128 151.765 363.116 148.859ZM201.643 211.543 214.166 224.066C217.096 226.994 221.843 226.994 224.773 224.066 227.702 221.136 227.702 216.388 224.773 213.459L212.374 201.06C221.701 193.441 232.694 187.742 244.92 184.11L327.872 267.063C324.241 279.29 318.542 290.283 310.924 299.61L249.522 238.208C246.592 235.28 241.844 235.28 238.915 238.208 235.986 241.138 235.986 245.886 238.915 248.815L300.44 310.34C291.331 318.142 280.543 324.044 268.507 327.903L184.078 243.474C187.937 231.438 193.84 220.651 201.643 211.543ZM325.194 186.787C331.426 207.252 334.246 228.809 331.544 249.519L262.461 180.435C283.176 177.732 304.743 180.553 325.194 186.787ZM223.683 332.968C211.555 332.341 198.659 329.676 186.152 325.835 179.46 304.437 176.864 282.143 180.081 260.692L251.286 331.897C242.512 333.215 233.269 333.591 223.683 332.968ZM494.59 160.2C463.767 191.024 408.073 188.57 366.744 181.069 341.311 177.096 314.466 165.971 288.571 164.737 251.202 162.313 218.13 173.471 195.449 196.153 172.766 218.837 161.612 251.91 164.043 289.311 164.671 299.822 166.393 310.452 169.291 321.378 163.625 320.031 157.796 318.697 152.102 317.583 150.126 308.51 148.891 299.649 148.384 290.86 145.645 248.819 158.488 211.313 184.55 185.252 210.607 159.194 248.108 146.342 290.144 149.072 314.026 150.353 330.013 156.817 355.184 162.503 398.267 172.019 455.536 177.455 483.691 149.299 486.592 146.25 491.873 146.08 494.791 149.099 497.834 152.032 497.634 157.291 494.59 160.2Z" class="MsftOfcThm_Background1_Fill_v2" stroke="none" stroke-width="1" stroke-linecap="butt" stroke-linejoin="miter" stroke-miterlimit="4" fill="#FFFFFF" fill-opacity="1"/></svg>