<svg viewBox="0 0 64 64" xmlns="http://www.w3.org/2000/svg" xmlns:xlink="http://www.w3.org/1999/xlink" xml:space="preserve" overflow="hidden"><g id="BG_Colour" display="none" opacity="0.5"><g display="inline"><rect x="0" y="0" width="64" height="64"/></g></g><g id="AW"><g><path d="M24.79 33.46C25.34 33.46 25.79 33.91 25.79 34.46L25.79 38.55C25.79 40.21 24.45 41.55 22.79 41.55L16.36 41.55C12.14 41.55 8.65 44.82 8.38 49.03L7.95 61.06C7.91 61.62 7.44 62.03 6.89 62 6.34 61.96 5.92 61.49 5.96 60.94L6.38 48.9C6.72 43.64 11.09 39.55 16.36 39.55L22.79 39.55C23.34 39.55 23.79 39.1 23.79 38.55L23.79 34.46C23.79 33.91 24.24 33.46 24.79 33.46Z" fill="#FFFFFF" fill-rule="evenodd" clip-rule="evenodd"/><path d="M39.25 33.46C38.7 33.46 38.25 33.91 38.25 34.46L38.25 38.55C38.25 40.21 39.59 41.55 41.25 41.55L47.68 41.55C51.9 41.55 55.39 44.82 55.66 49.03L56.05 61.01C56.09 61.56 56.56 61.98 57.11 61.94 57.66 61.9 58.08 61.43 58.04 60.88L57.65 48.9C57.31 43.64 52.94 39.55 47.67 39.55L41.24 39.55C40.69 39.55 40.24 39.1 40.24 38.55L40.24 34.46C40.25 33.91 39.8 33.46 39.25 33.46Z" fill="#FFFFFF" fill-rule="evenodd" clip-rule="evenodd"/><path d="M44.23 18.6C43.77 18.2 43.21 18 42.87 17.95L43.16 15.97C43.82 16.07 44.76 16.4 45.55 17.09 46.37 17.82 47.01 18.92 47.01 20.45 47.01 21.98 46.37 23.09 45.55 23.81 44.76 24.51 43.82 24.84 43.16 24.93L42.87 22.95C43.21 22.9 43.77 22.71 44.23 22.3 44.66 21.92 45.02 21.35 45.02 20.44 45.02 19.53 44.66 18.97 44.23 18.6Z" fill="#FFFFFF" fill-rule="evenodd" clip-rule="evenodd"/><path d="M19.81 18.6C20.27 18.2 20.83 18 21.17 17.95L20.88 15.97C20.22 16.07 19.28 16.4 18.49 17.09 17.67 17.82 17.03 18.92 17.03 20.45 17.03 21.98 17.67 23.09 18.49 23.81 19.28 24.51 20.22 24.84 20.88 24.93L21.17 22.95C20.83 22.9 20.27 22.71 19.81 22.3 19.38 21.92 19.02 21.35 19.02 20.44 19.02 19.53 19.38 18.97 19.81 18.6Z" fill="#FFFFFF" fill-rule="evenodd" clip-rule="evenodd"/><path d="M21.36 9.09C21.45 8.33 21.62 7.4 21.76 7.11 22.78 5.09 27.9 3.06 32 3.06 36.1 3.06 41.22 5.08 42.24 7.11 43.26 9.13 42.84 24.78 42.84 27.82 42.84 29.79 38.46 36.86 31.99 37.35 30.4 37.23 28.94 36.71 27.64 35.96 23.64 33.66 21.14 29.23 21.14 27.82 21.14 25.57 20.66 18.3 20.95 12.87" stroke="#FFFFFF" stroke-width="2" stroke-linecap="round" stroke-miterlimit="10" fill="none"/></g><path d="M28 43C28 43 31.73 45.46 36 43" stroke="#40B4E5" stroke-width="2" stroke-linecap="round" stroke-miterlimit="10" fill="none"/><path d="M24.5 10C24.5 10 31.5 13 39.5 10" stroke="#40B4E5" stroke-width="2" stroke-linecap="round" stroke-miterlimit="10" fill="none"/></g></svg>