<svg viewBox="0 0 64 64" xmlns="http://www.w3.org/2000/svg" xmlns:xlink="http://www.w3.org/1999/xlink" xml:space="preserve" overflow="hidden"><g id="BG_Colour" display="none" opacity="0.5"><g display="inline"><rect x="0" y="0.07" width="64" height="64"/></g></g><g id="AW"><path d="M50.29 32C50.29 42.1 42.1 50.29 32 50.29 21.9 50.29 13.71 42.1 13.71 32 13.71 21.9 21.9 13.71 32 13.71 42.1 13.71 50.29 21.9 50.29 32Z" stroke="#FFFFFF" stroke-width="2" stroke-linecap="round" stroke-linejoin="round" stroke-miterlimit="10" fill="none"/><path d="M12.29 5.51C13.59 6.39 14.44 7.87 14.44 9.56 14.44 12.25 12.26 14.44 9.56 14.44 6.86 14.44 4.68 12.26 4.68 9.56 4.68 7.33 6.18 5.45 8.23 4.87" stroke="#FFFFFF" stroke-width="2" stroke-linecap="round" stroke-linejoin="round" stroke-miterlimit="10" fill="none"/><path d="M35.66 5.66C35.66 7.68 34.02 9.32 32 9.32 29.98 9.32 28.34 7.68 28.34 5.66 28.34 3.64 29.98 2 32 2 34.02 2 35.66 3.64 35.66 5.66Z" stroke="#FFFFFF" stroke-width="2" stroke-linecap="round" stroke-linejoin="round" stroke-miterlimit="10" fill="none"/><path d="M35.66 58.34C35.66 60.36 34.02 62 32 62 29.98 62 28.34 60.36 28.34 58.34 28.34 56.32 29.98 54.68 32 54.68 34.02 54.68 35.66 56.32 35.66 58.34Z" stroke="#FFFFFF" stroke-width="2" stroke-linecap="round" stroke-linejoin="round" stroke-miterlimit="10" fill="none"/><path d="M62 32C62 34.02 60.36 35.66 58.34 35.66 56.32 35.66 54.68 34.02 54.68 32 54.68 29.98 56.32 28.34 58.34 28.34 60.36 28.34 62 29.98 62 32Z" stroke="#FFFFFF" stroke-width="2" stroke-linecap="round" stroke-linejoin="round" stroke-miterlimit="10" fill="none"/><path d="M9.32 32C9.32 34.02 7.68 35.66 5.66 35.66 3.64 35.66 2 34.02 2 32 2 29.98 3.64 28.34 5.66 28.34 7.68 28.34 9.32 29.98 9.32 32Z" stroke="#FFFFFF" stroke-width="2" stroke-linecap="round" stroke-linejoin="round" stroke-miterlimit="10" fill="none"/><path d="M9.32 32 13.71 32" stroke="#FFFFFF" stroke-width="2" stroke-linecap="round" stroke-linejoin="round" stroke-miterlimit="10" fill="none"/><path d="M54.68 32 50.29 32" stroke="#FFFFFF" stroke-width="2" stroke-linecap="round" stroke-linejoin="round" stroke-miterlimit="10" fill="none"/><path d="M32 9.32 32 13.71" stroke="#FFFFFF" stroke-width="2" stroke-linecap="round" stroke-linejoin="round" stroke-miterlimit="10" fill="none"/><path d="M32 54.68 32 50.29" stroke="#FFFFFF" stroke-width="2" stroke-linecap="round" stroke-linejoin="round" stroke-miterlimit="10" fill="none"/><path d="M13.1 13.1 18.95 18.95" stroke="#FFFFFF" stroke-width="2" stroke-linecap="round" stroke-linejoin="round" stroke-miterlimit="10" fill="none"/><path d="M59.32 9.56C59.32 12.25 57.14 14.44 54.44 14.44 51.75 14.44 49.56 12.26 49.56 9.56 49.56 6.86 51.74 4.68 54.44 4.68 57.13 4.68 59.32 6.87 59.32 9.56Z" stroke="#FFFFFF" stroke-width="2" stroke-linecap="round" stroke-linejoin="round" stroke-miterlimit="10" fill="none"/><path d="M50.9 13.1 45.05 18.95" stroke="#FFFFFF" stroke-width="2" stroke-linecap="round" stroke-linejoin="round" stroke-miterlimit="10" fill="none"/><path d="M50.9 50.9 45.05 45.05" stroke="#FFFFFF" stroke-width="2" stroke-linecap="round" stroke-linejoin="round" stroke-miterlimit="10" fill="none"/><path d="M14.44 54.44C14.44 57.13 12.26 59.32 9.56 59.32 6.87 59.32 4.68 57.14 4.68 54.44 4.68 51.75 6.86 49.56 9.56 49.56 12.25 49.56 14.44 51.74 14.44 54.44Z" stroke="#FFFFFF" stroke-width="2" stroke-linecap="round" stroke-linejoin="round" stroke-miterlimit="10" fill="none"/><path d="M13.1 50.9 18.95 45.05" stroke="#FFFFFF" stroke-width="2" stroke-linecap="round" stroke-linejoin="round" stroke-miterlimit="10" fill="none"/><path d="M59.32 54.44C59.32 57.13 57.14 59.32 54.44 59.32 51.75 59.32 49.56 57.14 49.56 54.44 49.56 51.75 51.74 49.56 54.44 49.56 57.13 49.56 59.32 51.74 59.32 54.44Z" stroke="#FFFFFF" stroke-width="2" stroke-linecap="round" stroke-linejoin="round" stroke-miterlimit="10" fill="none"/><path d="M33.92 41.22 41.31 41.22 41.31 36.34C41.31 33.89 39.32 31.9 36.88 31.9L27.12 31.9C24.67 31.9 22.69 33.89 22.69 36.34L22.69 41.22 30.08 41.22 33.92 41.22Z" stroke="#40B4E5" stroke-width="2" stroke-linecap="round" stroke-linejoin="round" stroke-miterlimit="10" fill="none"/><path d="M37.54 26.36C37.54 29.42 35.06 31.9 32 31.9 28.94 31.9 26.46 29.42 26.46 26.36 26.46 23.3 28.94 20.82 32 20.82 35.06 20.82 37.54 23.3 37.54 26.36Z" stroke="#40B4E5" stroke-width="2" stroke-linecap="round" stroke-linejoin="round" stroke-miterlimit="10" fill="none"/></g></svg>