<svg width="512" height="512" viewBox="0 0 512 512" xmlns="http://www.w3.org/2000/svg" xmlns:xlink="http://www.w3.org/1999/xlink" overflow="hidden"><style>
.MsftOfcThm_Background1_Fill_v2 {
 fill:#FFFFFF; 
}
</style>
<g id="body_temperature"><path d="M423.896 88.1039C423.238 87.4459 422.567 86.8065 421.882 86.1857 400.649 66.9752 368.314 66.9752 347.081 86.1857 346.397 86.8065 345.725 87.4459 345.067 88.1039L325.176 107.995 325.174 107.997 195.014 238.157C185.252 247.946 177.786 259.78 173.154 272.804L164.66 296.793C158.939 312.995 150.165 327.949 138.813 340.847L108.043 375.868C107.707 376.251 107.447 376.694 107.277 377.175L77.4839 406.968C69.8766 414.575 69.8765 426.909 77.4837 434.516 85.0908 442.124 97.4244 442.124 105.032 434.517L134.831 404.718C135.309 404.55 135.75 404.292 136.132 403.957L171.153 373.186C184.051 361.835 199.006 353.061 215.207 347.34L239.196 338.846C252.221 334.214 264.055 326.748 273.843 316.986L404.003 186.827 404.006 186.825 423.896 166.933C445.664 145.165 445.664 109.873 423.897 88.1047 423.897 88.1045 423.896 88.1042 423.896 88.1039ZM99.3745 428.86C94.8919 433.343 87.624 433.343 83.1412 428.861 83.141 428.86 83.1408 428.86 83.1406 428.86L83.1401 428.86C78.6574 424.378 78.657 417.11 83.1392 412.628 83.1397 412.627 83.1401 412.627 83.1406 412.626L111.324 384.442 127.558 400.677ZM268.186 311.329C259.241 320.249 248.428 327.072 236.526 331.305L212.537 339.799C195.376 345.858 179.535 355.152 165.873 367.177L133.669 395.472 116.528 378.332 144.823 346.127C156.848 332.465 166.141 316.625 172.201 299.463L180.695 275.474C184.929 263.572 191.751 252.759 200.671 243.814L328.005 116.481 395.519 183.995ZM418.239 161.276 401.176 178.338 333.662 110.824 350.724 93.7612C351.288 93.1976 351.863 92.6499 352.449 92.1182 370.635 75.665 398.328 75.665 416.514 92.1182 417.1 92.6498 417.675 93.1975 418.239 93.7612 436.882 112.404 436.883 142.63 418.241 161.273 418.24 161.274 418.24 161.275 418.239 161.276Z" class="MsftOfcThm_Background1_Fill_v2" stroke="none" stroke-width="1" stroke-linecap="butt" stroke-linejoin="miter" stroke-miterlimit="4" fill="#FFFFFF" fill-opacity="1"/><path d="M308.178 172.959C306.616 171.397 304.083 171.397 302.521 172.959L235.286 240.195C233.724 241.757 233.724 244.29 235.286 245.852L266.148 276.714C267.71 278.276 270.243 278.276 271.805 276.714L339.041 209.479C340.603 207.917 340.603 205.384 339.041 203.822ZM268.977 268.229 243.771 243.023 305.35 181.444 330.556 206.65Z" class="MsftOfcThm_Background1_Fill_v2" stroke="none" stroke-width="1" stroke-linecap="butt" stroke-linejoin="miter" stroke-miterlimit="4" fill="#FFFFFF" fill-opacity="1"/><path d="M359.518 173.515 338.485 152.482C334.206 148.213 327.278 148.213 322.999 152.482L321.539 153.942C317.269 158.221 317.269 165.149 321.539 169.428L342.572 190.462C346.851 194.731 353.779 194.731 358.058 190.462L359.518 189.001C363.794 184.725 363.794 177.792 359.518 173.515ZM353.861 183.344 352.401 184.804C351.248 185.955 349.382 185.955 348.229 184.804L327.196 163.771C326.045 162.618 326.045 160.752 327.196 159.599L328.656 158.139C329.809 156.989 331.675 156.989 332.828 158.139L353.861 179.172C355.013 180.325 355.013 182.192 353.861 183.344Z" class="MsftOfcThm_Background1_Fill_v2" stroke="none" stroke-width="1" stroke-linecap="butt" stroke-linejoin="miter" stroke-miterlimit="4" fill="#FFFFFF" fill-opacity="1"/></g></svg>