<svg viewBox="0 0 64 64" xmlns="http://www.w3.org/2000/svg" xmlns:xlink="http://www.w3.org/1999/xlink" id="AW" xml:space="preserve" overflow="hidden"><g><g><path d="M24.87 62C24.37 62 23.93 61.62 23.88 61.11 23.86 60.89 23.27 55.66 23.5 52.97L23.54 52.51C23.58 52.12 23.62 51.63 23.58 51.5 23.22 51.22 20.55 51.13 18.41 51.06 16.13 50.98 14.37 50.29 13.17 49.01 11.31 47.01 11.42 44.19 11.46 43.13L11.47 42.87C11.47 42.51 11.39 42.35 11.26 42.07 11.12 41.77 10.94 41.4 10.89 40.84 10.79 39.73 10.92 38.88 11.32 37.91 11.42 37.67 11.35 37.05 11.22 36.49 10.07 36.13 7.7 35.16 7.52 33.14 7.32 30.95 9.48 28.64 11.21 26.78 11.7 26.25 12.36 25.55 12.58 25.21 12.5 24.82 12.38 23.91 12.23 21.65 12.16 20.57 12.63 18.99 13.17 17.16 13.29 16.75 13.42 16.33 13.53 15.92 13.56 15.8 13.6 15.64 13.65 15.46 15.86 6.53 22.85 2 34.43 2 54.34 2 56.49 16.64 56.49 22.93 56.49 27.41 54.4 32.24 52.55 36.51 51.04 40 49.61 43.3 49.55 45.81 49.41 51.28 52.59 55.47 52.63 55.51 52.97 55.95 52.89 56.57 52.45 56.91 52.01 57.25 51.39 57.17 51.05 56.73 50.9 56.54 47.4 51.96 47.55 45.75 47.62 42.85 49.13 39.38 50.72 35.7 52.58 31.41 54.5 26.98 54.5 22.92 54.49 15.86 51.89 4 34.43 4 18.54 4 16.32 12.99 15.59 15.94 15.54 16.15 15.49 16.32 15.45 16.46 15.33 16.88 15.2 17.31 15.08 17.72 14.65 19.16 14.17 20.79 14.22 21.51 14.35 23.49 14.48 24.64 14.55 24.87 14.86 25.8 14.08 26.63 12.67 28.14 11.37 29.54 9.39 31.65 9.51 32.95 9.58 33.75 11.33 34.48 12.25 34.69 12.59 34.77 12.86 35.01 12.97 35.34 13.09 35.69 13.67 37.48 13.17 38.67 12.86 39.42 12.83 39.99 12.89 40.65 12.91 40.84 12.96 40.96 13.07 41.2 13.24 41.56 13.47 42.05 13.47 42.85 13.47 42.93 13.47 43.05 13.46 43.19 13.42 44.1 13.34 46.24 14.64 47.63 15.46 48.51 16.75 48.99 18.48 49.05 22.77 49.19 24.3 49.29 25.11 50.21 25.71 50.89 25.63 51.73 25.54 52.7L25.5 53.14C25.29 55.64 25.86 60.83 25.87 60.89 25.93 61.44 25.54 61.93 24.99 62 24.95 62 24.91 62 24.87 62Z" fill="#FFFFFF"/></g><g><path d="M34.09 17.56C32.21 17.56 30.68 16 30.68 14.07 30.68 11.7 34.05 6.85 34.05 6.85 34.05 6.85 37.49 11.7 37.49 14.07 37.49 16 35.97 17.56 34.09 17.56Z" stroke="#40B4E5" stroke-width="2" stroke-linejoin="round" stroke-miterlimit="10" fill="none"/><path d="M34.09 17.56C32.21 17.56 30.68 16 30.68 14.07 30.68 11.7 34.05 6.85 34.05 6.85 34.05 6.85 37.49 11.7 37.49 14.07 37.49 16 35.97 17.56 34.09 17.56Z" stroke="#40B4E5" stroke-width="2" stroke-linejoin="round" stroke-miterlimit="10" fill="none"/><path d="M27.03 27.66C25.15 27.66 23.62 26.1 23.62 24.17 23.62 21.8 26.99 16.95 26.99 16.95 26.99 16.95 30.43 21.8 30.43 24.17 30.43 26.1 28.91 27.66 27.03 27.66Z" stroke="#40B4E5" stroke-width="2" stroke-linejoin="round" stroke-miterlimit="10" fill="none"/><path d="M27.03 27.66C25.15 27.66 23.62 26.1 23.62 24.17 23.62 21.8 26.99 16.95 26.99 16.95 26.99 16.95 30.43 21.8 30.43 24.17 30.43 26.1 28.91 27.66 27.03 27.66Z" stroke="#40B4E5" stroke-width="2" stroke-linejoin="round" stroke-miterlimit="10" fill="none"/><path d="M36.97 33.59C35.09 33.59 33.56 32.03 33.56 30.1 33.56 27.73 36.93 22.88 36.93 22.88 36.93 22.88 40.37 27.73 40.37 30.1 40.38 32.03 38.86 33.59 36.97 33.59Z" stroke="#40B4E5" stroke-width="2" stroke-linejoin="round" stroke-miterlimit="10" fill="none"/><path d="M36.97 33.59C35.09 33.59 33.56 32.03 33.56 30.1 33.56 27.73 36.93 22.88 36.93 22.88 36.93 22.88 40.37 27.73 40.37 30.1 40.38 32.03 38.86 33.59 36.97 33.59Z" stroke="#40B4E5" stroke-width="2" stroke-linejoin="round" stroke-miterlimit="10" fill="none"/></g></g></svg>