<svg viewBox="0 0 64 64" xmlns="http://www.w3.org/2000/svg" xmlns:xlink="http://www.w3.org/1999/xlink" id="AW" xml:space="preserve" overflow="hidden"><g><circle cx="32" cy="13.66" r="11.66" stroke="#FFFFFF" stroke-width="2" stroke-miterlimit="10" fill="none"/><g><g><path d="M23.58 13.66C23.58 13.49 23.58 13.33 23.59 13.16" stroke="#40B4E5" stroke-width="2" stroke-linecap="round" stroke-miterlimit="10" fill="none"/><path d="M24.88 9.16C25.21 8.63 25.61 8.14 26.05 7.7 26.81 6.94 27.72 6.32 28.73 5.9 29.74 5.48 30.84 5.24 32 5.24 33.16 5.24 34.27 5.48 35.28 5.9 36.29 6.32 37.19 6.94 37.96 7.7 38.73 8.46 39.34 9.37 39.76 10.38 39.86 10.61 39.94 10.84 40.02 11.08" stroke="#40B4E5" stroke-width="2" stroke-linecap="round" stroke-miterlimit="10" stroke-dasharray="1.0599 4.2394" fill="none"/><path d="M40.41 13.16C40.42 13.33 40.42 13.49 40.42 13.66" stroke="#40B4E5" stroke-width="2" stroke-linecap="round" stroke-miterlimit="10" fill="none"/></g></g><path d="M29.93 62 10.49 62C8.41 62 6.67 60.46 6.45 58.44L2.02 18.31C1.82 16.54 3.24 15 5.05 15L20.12 15" stroke="#FFFFFF" stroke-width="2" stroke-linecap="round" stroke-linejoin="round" stroke-miterlimit="10" fill="none"/><path d="M43.93 15 58.95 15C60.76 15 62.18 16.54 61.98 18.31L57.56 58.44C57.33 60.46 55.59 62 53.51 62L34.01 62" stroke="#FFFFFF" stroke-width="2" stroke-linecap="round" stroke-linejoin="round" stroke-miterlimit="10" fill="none"/><path d="M23.66 16.25 32.59 16.97" stroke="#40B4E5" stroke-width="2" stroke-linecap="round" stroke-linejoin="round" stroke-miterlimit="10" fill="none"/><circle cx="32" cy="17" r="1" stroke="#40B4E5" stroke-width="2" stroke-linecap="round" stroke-linejoin="round" stroke-miterlimit="10" fill="none"/><path d="M31.26 35.27C31.06 35.47 30.96 35.73 30.96 36.01L30.96 54.15 26.84 50.03C26.43 49.62 25.77 49.63 25.37 50.03 24.97 50.43 24.97 51.1 25.37 51.5L31.27 57.4C31.45 57.58 31.69 57.69 31.93 57.7 31.99 57.71 32.07 57.7 32.14 57.69 32.34 57.66 32.53 57.58 32.68 57.46 32.69 57.45 32.72 57.42 32.76 57.38L38.64 51.5C39.05 51.09 39.04 50.43 38.64 50.03 38.24 49.63 37.57 49.63 37.17 50.03L33.05 54.15 33.05 36.01C33.05 35.43 32.58 34.96 32 34.96 31.72 34.97 31.45 35.07 31.26 35.27Z" fill="#40B4E5"/><g><path d="M15.23 21.86C15.03 22.06 14.93 22.32 14.93 22.6L14.93 40.74 10.81 36.62C10.4 36.21 9.74 36.22 9.34 36.62 8.94 37.02 8.94 37.69 9.34 38.09L15.24 43.99C15.42 44.17 15.66 44.28 15.9 44.29 15.96 44.3 16.04 44.29 16.11 44.28 16.31 44.25 16.5 44.17 16.65 44.05 16.66 44.04 16.69 44.01 16.73 43.97L22.61 38.09C23.02 37.68 23.01 37.02 22.61 36.62 22.21 36.22 21.54 36.22 21.14 36.62L17.02 40.74 17.02 22.6C17.02 22.02 16.55 21.55 15.97 21.55 15.68 21.56 15.42 21.66 15.23 21.86Z" fill="#40B4E5"/><path d="M47.29 21.86C47.09 22.06 46.99 22.32 46.99 22.6L46.99 40.74 42.87 36.62C42.46 36.21 41.8 36.22 41.4 36.62 41 37.02 41 37.69 41.4 38.09L47.3 43.99C47.48 44.17 47.72 44.28 47.96 44.29 48.02 44.3 48.1 44.29 48.17 44.28 48.37 44.25 48.56 44.17 48.71 44.05 48.72 44.04 48.75 44.01 48.79 43.97L54.67 38.09C55.08 37.68 55.07 37.02 54.67 36.62 54.27 36.22 53.6 36.22 53.2 36.62L49.08 40.74 49.08 22.6C49.08 22.02 48.61 21.55 48.03 21.55 47.75 21.56 47.49 21.66 47.29 21.86Z" fill="#40B4E5"/></g></g></svg>